<?xml version="1.0" encoding="utf-8"?>
<svg xmlns="http://www.w3.org/2000/svg" xmlns:xlink="http://www.w3.org/1999/xlink" width="300" height="220" viewBox="0 0 1200 880">
<defs>
  <clipPath id="clip330">
    <rect x="0" y="0" width="1200" height="880"/>
  </clipPath>
</defs>
<path clip-path="url(#clip330)" d="M0 880 L1200 880 L1200 1.13687e-13 L0 1.13687e-13  Z" fill="#ffffff" fill-rule="evenodd" fill-opacity="1"/>
<defs>
  <clipPath id="clip331">
    <rect x="410" y="220" width="634" height="440"/>
  </clipPath>
</defs>
<path clip-path="url(#clip330)" d="M373.188 601.44 L1042.52 601.44 L1042.52 220.748 L373.188 220.748  Z" fill="#ffffff" fill-rule="evenodd" fill-opacity="1"/>
<defs>
  <clipPath id="clip332">
    <rect x="373" y="220" width="670" height="382"/>
  </clipPath>
</defs>
<polyline clip-path="url(#clip332)" style="stroke:#000000; stroke-linecap:round; stroke-linejoin:round; stroke-width:2; stroke-opacity:0.1; fill:none" points="458.599,601.44 458.599,220.748 "/>
<polyline clip-path="url(#clip332)" style="stroke:#000000; stroke-linecap:round; stroke-linejoin:round; stroke-width:2; stroke-opacity:0.1; fill:none" points="624.769,601.44 624.769,220.748 "/>
<polyline clip-path="url(#clip332)" style="stroke:#000000; stroke-linecap:round; stroke-linejoin:round; stroke-width:2; stroke-opacity:0.1; fill:none" points="790.939,601.44 790.939,220.748 "/>
<polyline clip-path="url(#clip332)" style="stroke:#000000; stroke-linecap:round; stroke-linejoin:round; stroke-width:2; stroke-opacity:0.1; fill:none" points="957.108,601.44 957.108,220.748 "/>
<polyline clip-path="url(#clip332)" style="stroke:#000000; stroke-linecap:round; stroke-linejoin:round; stroke-width:2; stroke-opacity:0.1; fill:none" points="373.188,558.2 1042.52,558.2 "/>
<polyline clip-path="url(#clip332)" style="stroke:#000000; stroke-linecap:round; stroke-linejoin:round; stroke-width:2; stroke-opacity:0.1; fill:none" points="373.188,476.53 1042.52,476.53 "/>
<polyline clip-path="url(#clip332)" style="stroke:#000000; stroke-linecap:round; stroke-linejoin:round; stroke-width:2; stroke-opacity:0.1; fill:none" points="373.188,394.861 1042.52,394.861 "/>
<polyline clip-path="url(#clip332)" style="stroke:#000000; stroke-linecap:round; stroke-linejoin:round; stroke-width:2; stroke-opacity:0.1; fill:none" points="373.188,313.191 1042.52,313.191 "/>
<polyline clip-path="url(#clip332)" style="stroke:#000000; stroke-linecap:round; stroke-linejoin:round; stroke-width:2; stroke-opacity:0.1; fill:none" points="373.188,231.521 1042.52,231.521 "/>
<polyline clip-path="url(#clip330)" style="stroke:#000000; stroke-linecap:round; stroke-linejoin:round; stroke-width:4; stroke-opacity:1; fill:none" points="373.188,601.44 1042.52,601.44 "/>
<polyline clip-path="url(#clip330)" style="stroke:#000000; stroke-linecap:round; stroke-linejoin:round; stroke-width:4; stroke-opacity:1; fill:none" points="458.599,601.44 458.599,582.542 "/>
<polyline clip-path="url(#clip330)" style="stroke:#000000; stroke-linecap:round; stroke-linejoin:round; stroke-width:4; stroke-opacity:1; fill:none" points="624.769,601.44 624.769,582.542 "/>
<polyline clip-path="url(#clip330)" style="stroke:#000000; stroke-linecap:round; stroke-linejoin:round; stroke-width:4; stroke-opacity:1; fill:none" points="790.939,601.44 790.939,582.542 "/>
<polyline clip-path="url(#clip330)" style="stroke:#000000; stroke-linecap:round; stroke-linejoin:round; stroke-width:4; stroke-opacity:1; fill:none" points="957.108,601.44 957.108,582.542 "/>
<path clip-path="url(#clip330)" d="M433.299 619.68 L451.655 619.68 L451.655 623.615 L437.581 623.615 L437.581 632.087 Q438.599 631.74 439.618 631.578 Q440.636 631.393 441.655 631.393 Q447.442 631.393 450.822 634.564 Q454.201 637.735 454.201 643.152 Q454.201 648.73 450.729 651.832 Q447.257 654.911 440.937 654.911 Q438.761 654.911 436.493 654.541 Q434.248 654.17 431.84 653.429 L431.84 648.73 Q433.924 649.865 436.146 650.42 Q438.368 650.976 440.845 650.976 Q444.849 650.976 447.187 648.869 Q449.525 646.763 449.525 643.152 Q449.525 639.541 447.187 637.434 Q444.849 635.328 440.845 635.328 Q438.97 635.328 437.095 635.744 Q435.243 636.161 433.299 637.041 L433.299 619.68 Z" fill="#000000" fill-rule="nonzero" fill-opacity="1" /><path clip-path="url(#clip330)" d="M473.414 622.758 Q469.803 622.758 467.974 626.323 Q466.169 629.865 466.169 636.994 Q466.169 644.101 467.974 647.666 Q469.803 651.207 473.414 651.207 Q477.048 651.207 478.854 647.666 Q480.683 644.101 480.683 636.994 Q480.683 629.865 478.854 626.323 Q477.048 622.758 473.414 622.758 M473.414 619.055 Q479.224 619.055 482.28 623.661 Q485.358 628.244 485.358 636.994 Q485.358 645.721 482.28 650.328 Q479.224 654.911 473.414 654.911 Q467.604 654.911 464.525 650.328 Q461.47 645.721 461.47 636.994 Q461.47 628.244 464.525 623.661 Q467.604 619.055 473.414 619.055 Z" fill="#000000" fill-rule="nonzero" fill-opacity="1" /><path clip-path="url(#clip330)" d="M584.376 650.304 L592.015 650.304 L592.015 623.939 L583.704 625.606 L583.704 621.346 L591.968 619.68 L596.644 619.68 L596.644 650.304 L604.283 650.304 L604.283 654.24 L584.376 654.24 L584.376 650.304 Z" fill="#000000" fill-rule="nonzero" fill-opacity="1" /><path clip-path="url(#clip330)" d="M623.727 622.758 Q620.116 622.758 618.288 626.323 Q616.482 629.865 616.482 636.994 Q616.482 644.101 618.288 647.666 Q620.116 651.207 623.727 651.207 Q627.362 651.207 629.167 647.666 Q630.996 644.101 630.996 636.994 Q630.996 629.865 629.167 626.323 Q627.362 622.758 623.727 622.758 M623.727 619.055 Q629.538 619.055 632.593 623.661 Q635.672 628.244 635.672 636.994 Q635.672 645.721 632.593 650.328 Q629.538 654.911 623.727 654.911 Q617.917 654.911 614.839 650.328 Q611.783 645.721 611.783 636.994 Q611.783 628.244 614.839 623.661 Q617.917 619.055 623.727 619.055 Z" fill="#000000" fill-rule="nonzero" fill-opacity="1" /><path clip-path="url(#clip330)" d="M653.889 622.758 Q650.278 622.758 648.449 626.323 Q646.644 629.865 646.644 636.994 Q646.644 644.101 648.449 647.666 Q650.278 651.207 653.889 651.207 Q657.524 651.207 659.329 647.666 Q661.158 644.101 661.158 636.994 Q661.158 629.865 659.329 626.323 Q657.524 622.758 653.889 622.758 M653.889 619.055 Q659.699 619.055 662.755 623.661 Q665.834 628.244 665.834 636.994 Q665.834 645.721 662.755 650.328 Q659.699 654.911 653.889 654.911 Q648.079 654.911 645 650.328 Q641.945 645.721 641.945 636.994 Q641.945 628.244 645 623.661 Q648.079 619.055 653.889 619.055 Z" fill="#000000" fill-rule="nonzero" fill-opacity="1" /><path clip-path="url(#clip330)" d="M750.545 650.304 L758.184 650.304 L758.184 623.939 L749.874 625.606 L749.874 621.346 L758.138 619.68 L762.814 619.68 L762.814 650.304 L770.453 650.304 L770.453 654.24 L750.545 654.24 L750.545 650.304 Z" fill="#000000" fill-rule="nonzero" fill-opacity="1" /><path clip-path="url(#clip330)" d="M779.943 619.68 L798.3 619.68 L798.3 623.615 L784.226 623.615 L784.226 632.087 Q785.244 631.74 786.263 631.578 Q787.281 631.393 788.3 631.393 Q794.087 631.393 797.467 634.564 Q800.846 637.735 800.846 643.152 Q800.846 648.73 797.374 651.832 Q793.902 654.911 787.582 654.911 Q785.406 654.911 783.138 654.541 Q780.893 654.17 778.485 653.429 L778.485 648.73 Q780.568 649.865 782.791 650.42 Q785.013 650.976 787.49 650.976 Q791.494 650.976 793.832 648.869 Q796.17 646.763 796.17 643.152 Q796.17 639.541 793.832 637.434 Q791.494 635.328 787.49 635.328 Q785.615 635.328 783.74 635.744 Q781.888 636.161 779.943 637.041 L779.943 619.68 Z" fill="#000000" fill-rule="nonzero" fill-opacity="1" /><path clip-path="url(#clip330)" d="M820.059 622.758 Q816.448 622.758 814.619 626.323 Q812.814 629.865 812.814 636.994 Q812.814 644.101 814.619 647.666 Q816.448 651.207 820.059 651.207 Q823.693 651.207 825.499 647.666 Q827.327 644.101 827.327 636.994 Q827.327 629.865 825.499 626.323 Q823.693 622.758 820.059 622.758 M820.059 619.055 Q825.869 619.055 828.925 623.661 Q832.003 628.244 832.003 636.994 Q832.003 645.721 828.925 650.328 Q825.869 654.911 820.059 654.911 Q814.249 654.911 811.17 650.328 Q808.115 645.721 808.115 636.994 Q808.115 628.244 811.17 623.661 Q814.249 619.055 820.059 619.055 Z" fill="#000000" fill-rule="nonzero" fill-opacity="1" /><path clip-path="url(#clip330)" d="M920.801 650.304 L937.12 650.304 L937.12 654.24 L915.176 654.24 L915.176 650.304 Q917.838 647.55 922.421 642.92 Q927.028 638.267 928.208 636.925 Q930.454 634.402 931.333 632.666 Q932.236 630.906 932.236 629.217 Q932.236 626.462 930.291 624.726 Q928.37 622.99 925.268 622.99 Q923.069 622.99 920.616 623.754 Q918.185 624.518 915.407 626.068 L915.407 621.346 Q918.231 620.212 920.685 619.633 Q923.139 619.055 925.176 619.055 Q930.546 619.055 933.741 621.74 Q936.935 624.425 936.935 628.916 Q936.935 631.045 936.125 632.967 Q935.338 634.865 933.231 637.457 Q932.653 638.129 929.551 641.346 Q926.449 644.541 920.801 650.304 Z" fill="#000000" fill-rule="nonzero" fill-opacity="1" /><path clip-path="url(#clip330)" d="M956.935 622.758 Q953.324 622.758 951.495 626.323 Q949.69 629.865 949.69 636.994 Q949.69 644.101 951.495 647.666 Q953.324 651.207 956.935 651.207 Q960.569 651.207 962.375 647.666 Q964.203 644.101 964.203 636.994 Q964.203 629.865 962.375 626.323 Q960.569 622.758 956.935 622.758 M956.935 619.055 Q962.745 619.055 965.801 623.661 Q968.879 628.244 968.879 636.994 Q968.879 645.721 965.801 650.328 Q962.745 654.911 956.935 654.911 Q951.125 654.911 948.046 650.328 Q944.99 645.721 944.99 636.994 Q944.99 628.244 948.046 623.661 Q951.125 619.055 956.935 619.055 Z" fill="#000000" fill-rule="nonzero" fill-opacity="1" /><path clip-path="url(#clip330)" d="M987.097 622.758 Q983.486 622.758 981.657 626.323 Q979.851 629.865 979.851 636.994 Q979.851 644.101 981.657 647.666 Q983.486 651.207 987.097 651.207 Q990.731 651.207 992.537 647.666 Q994.365 644.101 994.365 636.994 Q994.365 629.865 992.537 626.323 Q990.731 622.758 987.097 622.758 M987.097 619.055 Q992.907 619.055 995.962 623.661 Q999.041 628.244 999.041 636.994 Q999.041 645.721 995.962 650.328 Q992.907 654.911 987.097 654.911 Q981.287 654.911 978.208 650.328 Q975.152 645.721 975.152 636.994 Q975.152 628.244 978.208 623.661 Q981.287 619.055 987.097 619.055 Z" fill="#000000" fill-rule="nonzero" fill-opacity="1" /><path clip-path="url(#clip330)" d="M424.105 679.056 L429.418 679.056 L437.595 711.92 L445.746 679.056 L451.657 679.056 L459.834 711.92 L467.985 679.056 L473.324 679.056 L463.558 717.936 L456.944 717.936 L448.741 684.186 L440.46 717.936 L433.845 717.936 L424.105 679.056 Z" fill="#000000" fill-rule="nonzero" fill-opacity="1" /><path clip-path="url(#clip330)" d="M489.938 703.274 Q484.131 703.274 481.892 704.602 Q479.652 705.93 479.652 709.134 Q479.652 711.686 481.319 713.196 Q483.011 714.68 485.902 714.68 Q489.886 714.68 492.282 711.868 Q494.704 709.029 494.704 704.342 L494.704 703.274 L489.938 703.274 M499.496 701.295 L499.496 717.936 L494.704 717.936 L494.704 713.509 Q493.063 716.165 490.615 717.441 Q488.168 718.691 484.626 718.691 Q480.147 718.691 477.491 716.191 Q474.86 713.665 474.86 709.446 Q474.86 704.524 478.142 702.024 Q481.449 699.524 487.985 699.524 L494.704 699.524 L494.704 699.056 Q494.704 695.748 492.517 693.951 Q490.355 692.128 486.423 692.128 Q483.923 692.128 481.553 692.727 Q479.183 693.326 476.996 694.524 L476.996 690.097 Q479.626 689.082 482.1 688.587 Q484.574 688.066 486.918 688.066 Q493.246 688.066 496.371 691.347 Q499.496 694.628 499.496 701.295 Z" fill="#000000" fill-rule="nonzero" fill-opacity="1" /><path clip-path="url(#clip330)" d="M509.365 677.415 L514.157 677.415 L514.157 717.936 L509.365 717.936 L509.365 677.415 Z" fill="#000000" fill-rule="nonzero" fill-opacity="1" /><path clip-path="url(#clip330)" d="M524.001 677.415 L528.818 677.415 L528.818 701.347 L543.115 688.769 L549.235 688.769 L533.766 702.415 L549.886 717.936 L543.636 717.936 L528.818 703.691 L528.818 717.936 L524.001 717.936 L524.001 677.415 Z" fill="#000000" fill-rule="nonzero" fill-opacity="1" /><path clip-path="url(#clip330)" d="M555.068 688.769 L559.86 688.769 L559.86 717.936 L555.068 717.936 L555.068 688.769 M555.068 677.415 L559.86 677.415 L559.86 683.483 L555.068 683.483 L555.068 677.415 Z" fill="#000000" fill-rule="nonzero" fill-opacity="1" /><path clip-path="url(#clip330)" d="M594.131 700.332 L594.131 717.936 L589.339 717.936 L589.339 700.488 Q589.339 696.347 587.724 694.29 Q586.11 692.233 582.881 692.233 Q579 692.233 576.761 694.707 Q574.521 697.181 574.521 701.451 L574.521 717.936 L569.704 717.936 L569.704 688.769 L574.521 688.769 L574.521 693.3 Q576.24 690.67 578.558 689.368 Q580.901 688.066 583.948 688.066 Q588.974 688.066 591.552 691.191 Q594.131 694.29 594.131 700.332 Z" fill="#000000" fill-rule="nonzero" fill-opacity="1" /><path clip-path="url(#clip330)" d="M622.88 703.014 Q622.88 697.806 620.719 694.941 Q618.584 692.076 614.703 692.076 Q610.849 692.076 608.688 694.941 Q606.552 697.806 606.552 703.014 Q606.552 708.196 608.688 711.061 Q610.849 713.925 614.703 713.925 Q618.584 713.925 620.719 711.061 Q622.88 708.196 622.88 703.014 M627.672 714.316 Q627.672 721.764 624.365 725.383 Q621.057 729.029 614.235 729.029 Q611.709 729.029 609.469 728.639 Q607.229 728.274 605.12 727.493 L605.12 722.831 Q607.229 723.977 609.287 724.524 Q611.344 725.071 613.479 725.071 Q618.193 725.071 620.537 722.597 Q622.88 720.149 622.88 715.175 L622.88 712.805 Q621.396 715.384 619.078 716.66 Q616.761 717.936 613.531 717.936 Q608.167 717.936 604.886 713.847 Q601.604 709.759 601.604 703.014 Q601.604 696.243 604.886 692.155 Q608.167 688.066 613.531 688.066 Q616.761 688.066 619.078 689.342 Q621.396 690.618 622.88 693.196 L622.88 688.769 L627.672 688.769 L627.672 714.316 Z" fill="#000000" fill-rule="nonzero" fill-opacity="1" /><path clip-path="url(#clip330)" d="M673.088 689.628 L673.088 694.16 Q671.057 693.118 668.87 692.597 Q666.682 692.076 664.339 692.076 Q660.771 692.076 658.974 693.17 Q657.203 694.264 657.203 696.451 Q657.203 698.118 658.479 699.082 Q659.755 700.019 663.609 700.878 L665.25 701.243 Q670.354 702.337 672.49 704.342 Q674.651 706.321 674.651 709.889 Q674.651 713.951 671.422 716.321 Q668.219 718.691 662.594 718.691 Q660.25 718.691 657.698 718.222 Q655.172 717.779 652.359 716.868 L652.359 711.92 Q655.016 713.3 657.594 714.003 Q660.172 714.68 662.698 714.68 Q666.083 714.68 667.906 713.535 Q669.729 712.363 669.729 710.253 Q669.729 708.3 668.401 707.259 Q667.099 706.217 662.646 705.253 L660.979 704.863 Q656.526 703.925 654.547 701.998 Q652.568 700.045 652.568 696.66 Q652.568 692.545 655.484 690.306 Q658.401 688.066 663.766 688.066 Q666.422 688.066 668.766 688.457 Q671.109 688.847 673.088 689.628 Z" fill="#000000" fill-rule="nonzero" fill-opacity="1" /><path clip-path="url(#clip330)" d="M686.917 713.561 L686.917 729.029 L682.099 729.029 L682.099 688.769 L686.917 688.769 L686.917 693.196 Q688.427 690.592 690.719 689.342 Q693.036 688.066 696.239 688.066 Q701.552 688.066 704.859 692.285 Q708.192 696.503 708.192 703.378 Q708.192 710.253 704.859 714.472 Q701.552 718.691 696.239 718.691 Q693.036 718.691 690.719 717.441 Q688.427 716.165 686.917 713.561 M703.219 703.378 Q703.219 698.092 701.031 695.097 Q698.87 692.076 695.068 692.076 Q691.265 692.076 689.078 695.097 Q686.917 698.092 686.917 703.378 Q686.917 708.665 689.078 711.686 Q691.265 714.68 695.068 714.68 Q698.87 714.68 701.031 711.686 Q703.219 708.665 703.219 703.378 Z" fill="#000000" fill-rule="nonzero" fill-opacity="1" /><path clip-path="url(#clip330)" d="M741.083 702.154 L741.083 704.498 L719.052 704.498 Q719.364 709.446 722.02 712.05 Q724.703 714.628 729.468 714.628 Q732.229 714.628 734.807 713.951 Q737.411 713.274 739.963 711.92 L739.963 716.451 Q737.385 717.545 734.677 718.118 Q731.968 718.691 729.182 718.691 Q722.203 718.691 718.114 714.628 Q714.052 710.566 714.052 703.639 Q714.052 696.477 717.906 692.285 Q721.786 688.066 728.349 688.066 Q734.234 688.066 737.645 691.868 Q741.083 695.644 741.083 702.154 M736.291 700.748 Q736.239 696.816 734.078 694.472 Q731.942 692.128 728.401 692.128 Q724.39 692.128 721.968 694.394 Q719.573 696.66 719.208 700.774 L736.291 700.748 Z" fill="#000000" fill-rule="nonzero" fill-opacity="1" /><path clip-path="url(#clip330)" d="M773.895 702.154 L773.895 704.498 L751.864 704.498 Q752.177 709.446 754.833 712.05 Q757.515 714.628 762.281 714.628 Q765.041 714.628 767.619 713.951 Q770.223 713.274 772.775 711.92 L772.775 716.451 Q770.197 717.545 767.489 718.118 Q764.781 718.691 761.994 718.691 Q755.015 718.691 750.927 714.628 Q746.864 710.566 746.864 703.639 Q746.864 696.477 750.718 692.285 Q754.598 688.066 761.161 688.066 Q767.046 688.066 770.458 691.868 Q773.895 695.644 773.895 702.154 M769.104 700.748 Q769.051 696.816 766.89 694.472 Q764.755 692.128 761.213 692.128 Q757.203 692.128 754.781 694.394 Q752.385 696.66 752.02 700.774 L769.104 700.748 Z" fill="#000000" fill-rule="nonzero" fill-opacity="1" /><path clip-path="url(#clip330)" d="M800.952 693.196 L800.952 677.415 L805.744 677.415 L805.744 717.936 L800.952 717.936 L800.952 713.561 Q799.442 716.165 797.124 717.441 Q794.833 718.691 791.603 718.691 Q786.317 718.691 782.984 714.472 Q779.676 710.253 779.676 703.378 Q779.676 696.503 782.984 692.285 Q786.317 688.066 791.603 688.066 Q794.833 688.066 797.124 689.342 Q799.442 690.592 800.952 693.196 M784.624 703.378 Q784.624 708.665 786.786 711.686 Q788.973 714.68 792.775 714.68 Q796.577 714.68 798.765 711.686 Q800.952 708.665 800.952 703.378 Q800.952 698.092 798.765 695.097 Q796.577 692.076 792.775 692.076 Q788.973 692.076 786.786 695.097 Q784.624 698.092 784.624 703.378 Z" fill="#000000" fill-rule="nonzero" fill-opacity="1" /><path clip-path="url(#clip330)" d="M844.077 677.467 Q840.588 683.457 838.895 689.316 Q837.202 695.175 837.202 701.191 Q837.202 707.207 838.895 713.118 Q840.614 719.003 844.077 724.967 L839.91 724.967 Q836.004 718.847 834.051 712.936 Q832.124 707.024 832.124 701.191 Q832.124 695.384 834.051 689.498 Q835.978 683.613 839.91 677.467 L844.077 677.467 Z" fill="#000000" fill-rule="nonzero" fill-opacity="1" /><path clip-path="url(#clip330)" d="M874.363 689.889 L874.363 694.368 Q872.332 693.248 870.275 692.701 Q868.244 692.128 866.16 692.128 Q861.499 692.128 858.921 695.097 Q856.343 698.04 856.343 703.378 Q856.343 708.717 858.921 711.686 Q861.499 714.628 866.16 714.628 Q868.244 714.628 870.275 714.081 Q872.332 713.509 874.363 712.389 L874.363 716.816 Q872.358 717.753 870.197 718.222 Q868.061 718.691 865.64 718.691 Q859.051 718.691 855.171 714.55 Q851.291 710.41 851.291 703.378 Q851.291 696.243 855.197 692.155 Q859.129 688.066 865.952 688.066 Q868.166 688.066 870.275 688.535 Q872.384 688.977 874.363 689.889 Z" fill="#000000" fill-rule="nonzero" fill-opacity="1" /><path clip-path="url(#clip330)" d="M905.405 694.368 Q907.202 691.139 909.702 689.602 Q912.202 688.066 915.587 688.066 Q920.144 688.066 922.618 691.269 Q925.092 694.446 925.092 700.332 L925.092 717.936 L920.275 717.936 L920.275 700.488 Q920.275 696.295 918.79 694.264 Q917.306 692.233 914.259 692.233 Q910.535 692.233 908.374 694.707 Q906.212 697.181 906.212 701.451 L906.212 717.936 L901.395 717.936 L901.395 700.488 Q901.395 696.269 899.91 694.264 Q898.426 692.233 895.327 692.233 Q891.655 692.233 889.494 694.733 Q887.332 697.207 887.332 701.451 L887.332 717.936 L882.514 717.936 L882.514 688.769 L887.332 688.769 L887.332 693.3 Q888.973 690.618 891.264 689.342 Q893.556 688.066 896.707 688.066 Q899.884 688.066 902.098 689.681 Q904.337 691.295 905.405 694.368 Z" fill="#000000" fill-rule="nonzero" fill-opacity="1" /><path clip-path="url(#clip330)" d="M943.165 679.056 L947.592 679.056 L934.051 722.884 L929.624 722.884 L943.165 679.056 Z" fill="#000000" fill-rule="nonzero" fill-opacity="1" /><path clip-path="url(#clip330)" d="M971.212 689.628 L971.212 694.16 Q969.181 693.118 966.993 692.597 Q964.806 692.076 962.462 692.076 Q958.894 692.076 957.097 693.17 Q955.327 694.264 955.327 696.451 Q955.327 698.118 956.603 699.082 Q957.879 700.019 961.733 700.878 L963.373 701.243 Q968.478 702.337 970.613 704.342 Q972.774 706.321 972.774 709.889 Q972.774 713.951 969.545 716.321 Q966.342 718.691 960.717 718.691 Q958.373 718.691 955.821 718.222 Q953.295 717.779 950.483 716.868 L950.483 711.92 Q953.139 713.3 955.717 714.003 Q958.295 714.68 960.821 714.68 Q964.207 714.68 966.03 713.535 Q967.853 712.363 967.853 710.253 Q967.853 708.3 966.524 707.259 Q965.222 706.217 960.769 705.253 L959.103 704.863 Q954.649 703.925 952.67 701.998 Q950.691 700.045 950.691 696.66 Q950.691 692.545 953.608 690.306 Q956.524 688.066 961.889 688.066 Q964.545 688.066 966.889 688.457 Q969.233 688.847 971.212 689.628 Z" fill="#000000" fill-rule="nonzero" fill-opacity="1" /><path clip-path="url(#clip330)" d="M979.649 677.467 L983.816 677.467 Q987.722 683.613 989.649 689.498 Q991.602 695.384 991.602 701.191 Q991.602 707.024 989.649 712.936 Q987.722 718.847 983.816 724.967 L979.649 724.967 Q983.113 719.003 984.806 713.118 Q986.524 707.207 986.524 701.191 Q986.524 695.175 984.806 689.316 Q983.113 683.457 979.649 677.467 Z" fill="#000000" fill-rule="nonzero" fill-opacity="1" /><polyline clip-path="url(#clip330)" style="stroke:#000000; stroke-linecap:round; stroke-linejoin:round; stroke-width:4; stroke-opacity:1; fill:none" points="373.188,601.44 373.188,220.748 "/>
<polyline clip-path="url(#clip330)" style="stroke:#000000; stroke-linecap:round; stroke-linejoin:round; stroke-width:4; stroke-opacity:1; fill:none" points="373.188,558.2 392.086,558.2 "/>
<polyline clip-path="url(#clip330)" style="stroke:#000000; stroke-linecap:round; stroke-linejoin:round; stroke-width:4; stroke-opacity:1; fill:none" points="373.188,476.53 392.086,476.53 "/>
<polyline clip-path="url(#clip330)" style="stroke:#000000; stroke-linecap:round; stroke-linejoin:round; stroke-width:4; stroke-opacity:1; fill:none" points="373.188,394.861 392.086,394.861 "/>
<polyline clip-path="url(#clip330)" style="stroke:#000000; stroke-linecap:round; stroke-linejoin:round; stroke-width:4; stroke-opacity:1; fill:none" points="373.188,313.191 392.086,313.191 "/>
<polyline clip-path="url(#clip330)" style="stroke:#000000; stroke-linecap:round; stroke-linejoin:round; stroke-width:4; stroke-opacity:1; fill:none" points="373.188,231.521 392.086,231.521 "/>
<path clip-path="url(#clip330)" d="M237.689 543.999 Q234.078 543.999 232.249 547.564 Q230.443 551.105 230.443 558.235 Q230.443 565.341 232.249 568.906 Q234.078 572.448 237.689 572.448 Q241.323 572.448 243.129 568.906 Q244.957 565.341 244.957 558.235 Q244.957 551.105 243.129 547.564 Q241.323 543.999 237.689 543.999 M237.689 540.295 Q243.499 540.295 246.554 544.902 Q249.633 549.485 249.633 558.235 Q249.633 566.962 246.554 571.568 Q243.499 576.152 237.689 576.152 Q231.879 576.152 228.8 571.568 Q225.744 566.962 225.744 558.235 Q225.744 549.485 228.8 544.902 Q231.879 540.295 237.689 540.295 Z" fill="#000000" fill-rule="nonzero" fill-opacity="1" /><path clip-path="url(#clip330)" d="M257.851 569.601 L262.735 569.601 L262.735 575.48 L257.851 575.48 L257.851 569.601 Z" fill="#000000" fill-rule="nonzero" fill-opacity="1" /><path clip-path="url(#clip330)" d="M273.059 574.763 L273.059 570.503 Q274.818 571.337 276.624 571.777 Q278.429 572.216 280.165 572.216 Q284.795 572.216 287.226 569.115 Q289.679 565.99 290.026 559.647 Q288.684 561.638 286.624 562.703 Q284.564 563.767 282.064 563.767 Q276.878 563.767 273.846 560.642 Q270.837 557.494 270.837 552.054 Q270.837 546.73 273.985 543.513 Q277.133 540.295 282.364 540.295 Q288.36 540.295 291.508 544.902 Q294.679 549.485 294.679 558.235 Q294.679 566.406 290.79 571.29 Q286.925 576.152 280.374 576.152 Q278.614 576.152 276.809 575.804 Q275.003 575.457 273.059 574.763 M282.364 560.11 Q285.513 560.11 287.341 557.957 Q289.193 555.804 289.193 552.054 Q289.193 548.328 287.341 546.175 Q285.513 543.999 282.364 543.999 Q279.216 543.999 277.364 546.175 Q275.536 548.328 275.536 552.054 Q275.536 555.804 277.364 557.957 Q279.216 560.11 282.364 560.11 Z" fill="#000000" fill-rule="nonzero" fill-opacity="1" /><path clip-path="url(#clip330)" d="M313.082 543.999 Q309.471 543.999 307.642 547.564 Q305.837 551.105 305.837 558.235 Q305.837 565.341 307.642 568.906 Q309.471 572.448 313.082 572.448 Q316.716 572.448 318.522 568.906 Q320.35 565.341 320.35 558.235 Q320.35 551.105 318.522 547.564 Q316.716 543.999 313.082 543.999 M313.082 540.295 Q318.892 540.295 321.948 544.902 Q325.026 549.485 325.026 558.235 Q325.026 566.962 321.948 571.568 Q318.892 576.152 313.082 576.152 Q307.272 576.152 304.193 571.568 Q301.137 566.962 301.137 558.235 Q301.137 549.485 304.193 544.902 Q307.272 540.295 313.082 540.295 Z" fill="#000000" fill-rule="nonzero" fill-opacity="1" /><path clip-path="url(#clip330)" d="M343.244 543.999 Q339.633 543.999 337.804 547.564 Q335.998 551.105 335.998 558.235 Q335.998 565.341 337.804 568.906 Q339.633 572.448 343.244 572.448 Q346.878 572.448 348.684 568.906 Q350.512 565.341 350.512 558.235 Q350.512 551.105 348.684 547.564 Q346.878 543.999 343.244 543.999 M343.244 540.295 Q349.054 540.295 352.109 544.902 Q355.188 549.485 355.188 558.235 Q355.188 566.962 352.109 571.568 Q349.054 576.152 343.244 576.152 Q337.434 576.152 334.355 571.568 Q331.299 566.962 331.299 558.235 Q331.299 549.485 334.355 544.902 Q337.434 540.295 343.244 540.295 Z" fill="#000000" fill-rule="nonzero" fill-opacity="1" /><path clip-path="url(#clip330)" d="M238.684 462.329 Q235.073 462.329 233.244 465.894 Q231.439 469.436 231.439 476.565 Q231.439 483.672 233.244 487.236 Q235.073 490.778 238.684 490.778 Q242.318 490.778 244.124 487.236 Q245.953 483.672 245.953 476.565 Q245.953 469.436 244.124 465.894 Q242.318 462.329 238.684 462.329 M238.684 458.625 Q244.494 458.625 247.55 463.232 Q250.629 467.815 250.629 476.565 Q250.629 485.292 247.55 489.898 Q244.494 494.482 238.684 494.482 Q232.874 494.482 229.795 489.898 Q226.74 485.292 226.74 476.565 Q226.74 467.815 229.795 463.232 Q232.874 458.625 238.684 458.625 Z" fill="#000000" fill-rule="nonzero" fill-opacity="1" /><path clip-path="url(#clip330)" d="M258.846 487.931 L263.73 487.931 L263.73 493.81 L258.846 493.81 L258.846 487.931 Z" fill="#000000" fill-rule="nonzero" fill-opacity="1" /><path clip-path="url(#clip330)" d="M274.054 493.093 L274.054 488.834 Q275.814 489.667 277.619 490.107 Q279.425 490.547 281.161 490.547 Q285.79 490.547 288.221 487.445 Q290.675 484.32 291.022 477.977 Q289.679 479.968 287.619 481.033 Q285.559 482.098 283.059 482.098 Q277.874 482.098 274.841 478.973 Q271.832 475.824 271.832 470.385 Q271.832 465.061 274.98 461.843 Q278.128 458.625 283.36 458.625 Q289.355 458.625 292.503 463.232 Q295.675 467.815 295.675 476.565 Q295.675 484.736 291.786 489.621 Q287.92 494.482 281.369 494.482 Q279.61 494.482 277.804 494.134 Q275.999 493.787 274.054 493.093 M283.36 478.44 Q286.508 478.44 288.337 476.287 Q290.188 474.135 290.188 470.385 Q290.188 466.658 288.337 464.505 Q286.508 462.329 283.36 462.329 Q280.212 462.329 278.36 464.505 Q276.531 466.658 276.531 470.385 Q276.531 474.135 278.36 476.287 Q280.212 478.44 283.36 478.44 Z" fill="#000000" fill-rule="nonzero" fill-opacity="1" /><path clip-path="url(#clip330)" d="M308.105 489.875 L324.424 489.875 L324.424 493.81 L302.48 493.81 L302.48 489.875 Q305.142 487.121 309.725 482.491 Q314.332 477.838 315.512 476.496 Q317.758 473.973 318.637 472.236 Q319.54 470.477 319.54 468.787 Q319.54 466.033 317.596 464.297 Q315.674 462.561 312.573 462.561 Q310.374 462.561 307.92 463.324 Q305.489 464.088 302.712 465.639 L302.712 460.917 Q305.536 459.783 307.989 459.204 Q310.443 458.625 312.48 458.625 Q317.85 458.625 321.045 461.311 Q324.239 463.996 324.239 468.486 Q324.239 470.616 323.429 472.537 Q322.642 474.436 320.536 477.028 Q319.957 477.699 316.855 480.917 Q313.753 484.111 308.105 489.875 Z" fill="#000000" fill-rule="nonzero" fill-opacity="1" /><path clip-path="url(#clip330)" d="M334.285 459.25 L352.642 459.25 L352.642 463.186 L338.568 463.186 L338.568 471.658 Q339.586 471.311 340.605 471.149 Q341.623 470.963 342.642 470.963 Q348.429 470.963 351.809 474.135 Q355.188 477.306 355.188 482.723 Q355.188 488.301 351.716 491.403 Q348.244 494.482 341.924 494.482 Q339.748 494.482 337.48 494.111 Q335.235 493.741 332.827 493 L332.827 488.301 Q334.91 489.435 337.133 489.991 Q339.355 490.547 341.832 490.547 Q345.836 490.547 348.174 488.44 Q350.512 486.334 350.512 482.723 Q350.512 479.111 348.174 477.005 Q345.836 474.898 341.832 474.898 Q339.957 474.898 338.082 475.315 Q336.23 475.732 334.285 476.611 L334.285 459.25 Z" fill="#000000" fill-rule="nonzero" fill-opacity="1" /><path clip-path="url(#clip330)" d="M237.689 380.659 Q234.078 380.659 232.249 384.224 Q230.443 387.766 230.443 394.895 Q230.443 402.002 232.249 405.567 Q234.078 409.108 237.689 409.108 Q241.323 409.108 243.129 405.567 Q244.957 402.002 244.957 394.895 Q244.957 387.766 243.129 384.224 Q241.323 380.659 237.689 380.659 M237.689 376.956 Q243.499 376.956 246.554 381.562 Q249.633 386.145 249.633 394.895 Q249.633 403.622 246.554 408.229 Q243.499 412.812 237.689 412.812 Q231.879 412.812 228.8 408.229 Q225.744 403.622 225.744 394.895 Q225.744 386.145 228.8 381.562 Q231.879 376.956 237.689 376.956 Z" fill="#000000" fill-rule="nonzero" fill-opacity="1" /><path clip-path="url(#clip330)" d="M257.851 406.261 L262.735 406.261 L262.735 412.141 L257.851 412.141 L257.851 406.261 Z" fill="#000000" fill-rule="nonzero" fill-opacity="1" /><path clip-path="url(#clip330)" d="M273.059 411.423 L273.059 407.164 Q274.818 407.997 276.624 408.437 Q278.429 408.877 280.165 408.877 Q284.795 408.877 287.226 405.775 Q289.679 402.65 290.026 396.307 Q288.684 398.298 286.624 399.363 Q284.564 400.428 282.064 400.428 Q276.878 400.428 273.846 397.303 Q270.837 394.155 270.837 388.715 Q270.837 383.391 273.985 380.173 Q277.133 376.956 282.364 376.956 Q288.36 376.956 291.508 381.562 Q294.679 386.145 294.679 394.895 Q294.679 403.067 290.79 407.951 Q286.925 412.812 280.374 412.812 Q278.614 412.812 276.809 412.465 Q275.003 412.117 273.059 411.423 M282.364 396.77 Q285.513 396.77 287.341 394.618 Q289.193 392.465 289.193 388.715 Q289.193 384.988 287.341 382.835 Q285.513 380.659 282.364 380.659 Q279.216 380.659 277.364 382.835 Q275.536 384.988 275.536 388.715 Q275.536 392.465 277.364 394.618 Q279.216 396.77 282.364 396.77 Z" fill="#000000" fill-rule="nonzero" fill-opacity="1" /><path clip-path="url(#clip330)" d="M303.128 377.581 L321.485 377.581 L321.485 381.516 L307.411 381.516 L307.411 389.988 Q308.429 389.641 309.448 389.479 Q310.466 389.294 311.485 389.294 Q317.272 389.294 320.651 392.465 Q324.031 395.636 324.031 401.053 Q324.031 406.631 320.559 409.733 Q317.086 412.812 310.767 412.812 Q308.591 412.812 306.323 412.442 Q304.077 412.071 301.67 411.33 L301.67 406.631 Q303.753 407.766 305.975 408.321 Q308.198 408.877 310.674 408.877 Q314.679 408.877 317.017 406.77 Q319.355 404.664 319.355 401.053 Q319.355 397.442 317.017 395.335 Q314.679 393.229 310.674 393.229 Q308.799 393.229 306.924 393.645 Q305.073 394.062 303.128 394.942 L303.128 377.581 Z" fill="#000000" fill-rule="nonzero" fill-opacity="1" /><path clip-path="url(#clip330)" d="M343.244 380.659 Q339.633 380.659 337.804 384.224 Q335.998 387.766 335.998 394.895 Q335.998 402.002 337.804 405.567 Q339.633 409.108 343.244 409.108 Q346.878 409.108 348.684 405.567 Q350.512 402.002 350.512 394.895 Q350.512 387.766 348.684 384.224 Q346.878 380.659 343.244 380.659 M343.244 376.956 Q349.054 376.956 352.109 381.562 Q355.188 386.145 355.188 394.895 Q355.188 403.622 352.109 408.229 Q349.054 412.812 343.244 412.812 Q337.434 412.812 334.355 408.229 Q331.299 403.622 331.299 394.895 Q331.299 386.145 334.355 381.562 Q337.434 376.956 343.244 376.956 Z" fill="#000000" fill-rule="nonzero" fill-opacity="1" /><path clip-path="url(#clip330)" d="M238.684 298.99 Q235.073 298.99 233.244 302.554 Q231.439 306.096 231.439 313.226 Q231.439 320.332 233.244 323.897 Q235.073 327.438 238.684 327.438 Q242.318 327.438 244.124 323.897 Q245.953 320.332 245.953 313.226 Q245.953 306.096 244.124 302.554 Q242.318 298.99 238.684 298.99 M238.684 295.286 Q244.494 295.286 247.55 299.892 Q250.629 304.476 250.629 313.226 Q250.629 321.952 247.55 326.559 Q244.494 331.142 238.684 331.142 Q232.874 331.142 229.795 326.559 Q226.74 321.952 226.74 313.226 Q226.74 304.476 229.795 299.892 Q232.874 295.286 238.684 295.286 Z" fill="#000000" fill-rule="nonzero" fill-opacity="1" /><path clip-path="url(#clip330)" d="M258.846 324.591 L263.73 324.591 L263.73 330.471 L258.846 330.471 L258.846 324.591 Z" fill="#000000" fill-rule="nonzero" fill-opacity="1" /><path clip-path="url(#clip330)" d="M274.054 329.753 L274.054 325.494 Q275.814 326.327 277.619 326.767 Q279.425 327.207 281.161 327.207 Q285.79 327.207 288.221 324.105 Q290.675 320.98 291.022 314.638 Q289.679 316.628 287.619 317.693 Q285.559 318.758 283.059 318.758 Q277.874 318.758 274.841 315.633 Q271.832 312.485 271.832 307.045 Q271.832 301.721 274.98 298.503 Q278.128 295.286 283.36 295.286 Q289.355 295.286 292.503 299.892 Q295.675 304.476 295.675 313.226 Q295.675 321.397 291.786 326.281 Q287.92 331.142 281.369 331.142 Q279.61 331.142 277.804 330.795 Q275.999 330.448 274.054 329.753 M283.36 315.101 Q286.508 315.101 288.337 312.948 Q290.188 310.795 290.188 307.045 Q290.188 303.318 288.337 301.165 Q286.508 298.99 283.36 298.99 Q280.212 298.99 278.36 301.165 Q276.531 303.318 276.531 307.045 Q276.531 310.795 278.36 312.948 Q280.212 315.101 283.36 315.101 Z" fill="#000000" fill-rule="nonzero" fill-opacity="1" /><path clip-path="url(#clip330)" d="M302.897 295.911 L325.119 295.911 L325.119 297.902 L312.573 330.471 L307.688 330.471 L319.494 299.846 L302.897 299.846 L302.897 295.911 Z" fill="#000000" fill-rule="nonzero" fill-opacity="1" /><path clip-path="url(#clip330)" d="M334.285 295.911 L352.642 295.911 L352.642 299.846 L338.568 299.846 L338.568 308.318 Q339.586 307.971 340.605 307.809 Q341.623 307.624 342.642 307.624 Q348.429 307.624 351.809 310.795 Q355.188 313.966 355.188 319.383 Q355.188 324.962 351.716 328.063 Q348.244 331.142 341.924 331.142 Q339.748 331.142 337.48 330.772 Q335.235 330.401 332.827 329.661 L332.827 324.962 Q334.91 326.096 337.133 326.651 Q339.355 327.207 341.832 327.207 Q345.836 327.207 348.174 325.1 Q350.512 322.994 350.512 319.383 Q350.512 315.772 348.174 313.665 Q345.836 311.559 341.832 311.559 Q339.957 311.559 338.082 311.976 Q336.23 312.392 334.285 313.272 L334.285 295.911 Z" fill="#000000" fill-rule="nonzero" fill-opacity="1" /><path clip-path="url(#clip330)" d="M228.499 244.866 L236.138 244.866 L236.138 218.5 L227.828 220.167 L227.828 215.908 L236.092 214.241 L240.767 214.241 L240.767 244.866 L248.406 244.866 L248.406 248.801 L228.499 248.801 L228.499 244.866 Z" fill="#000000" fill-rule="nonzero" fill-opacity="1" /><path clip-path="url(#clip330)" d="M257.851 242.921 L262.735 242.921 L262.735 248.801 L257.851 248.801 L257.851 242.921 Z" fill="#000000" fill-rule="nonzero" fill-opacity="1" /><path clip-path="url(#clip330)" d="M282.92 217.32 Q279.309 217.32 277.48 220.885 Q275.675 224.426 275.675 231.556 Q275.675 238.662 277.48 242.227 Q279.309 245.769 282.92 245.769 Q286.554 245.769 288.36 242.227 Q290.188 238.662 290.188 231.556 Q290.188 224.426 288.36 220.885 Q286.554 217.32 282.92 217.32 M282.92 213.616 Q288.73 213.616 291.786 218.222 Q294.864 222.806 294.864 231.556 Q294.864 240.283 291.786 244.889 Q288.73 249.472 282.92 249.472 Q277.11 249.472 274.031 244.889 Q270.976 240.283 270.976 231.556 Q270.976 222.806 274.031 218.222 Q277.11 213.616 282.92 213.616 Z" fill="#000000" fill-rule="nonzero" fill-opacity="1" /><path clip-path="url(#clip330)" d="M313.082 217.32 Q309.471 217.32 307.642 220.885 Q305.837 224.426 305.837 231.556 Q305.837 238.662 307.642 242.227 Q309.471 245.769 313.082 245.769 Q316.716 245.769 318.522 242.227 Q320.35 238.662 320.35 231.556 Q320.35 224.426 318.522 220.885 Q316.716 217.32 313.082 217.32 M313.082 213.616 Q318.892 213.616 321.948 218.222 Q325.026 222.806 325.026 231.556 Q325.026 240.283 321.948 244.889 Q318.892 249.472 313.082 249.472 Q307.272 249.472 304.193 244.889 Q301.137 240.283 301.137 231.556 Q301.137 222.806 304.193 218.222 Q307.272 213.616 313.082 213.616 Z" fill="#000000" fill-rule="nonzero" fill-opacity="1" /><path clip-path="url(#clip330)" d="M343.244 217.32 Q339.633 217.32 337.804 220.885 Q335.998 224.426 335.998 231.556 Q335.998 238.662 337.804 242.227 Q339.633 245.769 343.244 245.769 Q346.878 245.769 348.684 242.227 Q350.512 238.662 350.512 231.556 Q350.512 224.426 348.684 220.885 Q346.878 217.32 343.244 217.32 M343.244 213.616 Q349.054 213.616 352.109 218.222 Q355.188 222.806 355.188 231.556 Q355.188 240.283 352.109 244.889 Q349.054 249.472 343.244 249.472 Q337.434 249.472 334.355 244.889 Q331.299 240.283 331.299 231.556 Q331.299 222.806 334.355 218.222 Q337.434 213.616 343.244 213.616 Z" fill="#000000" fill-rule="nonzero" fill-opacity="1" /><path clip-path="url(#clip330)" d="M157.2 686.353 L157.2 681.093 L173.138 681.093 L173.138 661.978 L157.2 661.978 L157.2 656.718 L196.08 656.718 L196.08 661.978 L177.565 661.978 L177.565 681.093 L196.08 681.093 L196.08 686.353 L157.2 686.353 Z" fill="#000000" fill-rule="nonzero" fill-opacity="1" /><path clip-path="url(#clip330)" d="M180.299 621.51 L182.643 621.51 L182.643 643.541 Q187.591 643.228 190.195 640.572 Q192.773 637.89 192.773 633.124 Q192.773 630.364 192.096 627.786 Q191.419 625.181 190.065 622.629 L194.596 622.629 Q195.69 625.207 196.263 627.916 Q196.836 630.624 196.836 633.411 Q196.836 640.39 192.773 644.478 Q188.711 648.541 181.784 648.541 Q174.622 648.541 170.429 644.686 Q166.211 640.806 166.211 634.244 Q166.211 628.358 170.013 624.947 Q173.789 621.51 180.299 621.51 M178.893 626.301 Q174.961 626.353 172.617 628.515 Q170.273 630.65 170.273 634.192 Q170.273 638.202 172.539 640.624 Q174.804 643.02 178.919 643.384 L178.893 626.301 Z" fill="#000000" fill-rule="nonzero" fill-opacity="1" /><path clip-path="url(#clip330)" d="M178.476 589.4 L196.08 589.4 L196.08 594.192 L178.633 594.192 Q174.492 594.192 172.435 595.807 Q170.377 597.421 170.377 600.65 Q170.377 604.53 172.851 606.77 Q175.325 609.01 179.596 609.01 L196.08 609.01 L196.08 613.827 L166.914 613.827 L166.914 609.01 L171.445 609.01 Q168.815 607.291 167.513 604.973 Q166.211 602.629 166.211 599.583 Q166.211 594.557 169.336 591.978 Q172.435 589.4 178.476 589.4 Z" fill="#000000" fill-rule="nonzero" fill-opacity="1" /><path clip-path="url(#clip330)" d="M171.393 562.942 Q170.924 563.749 170.716 564.713 Q170.482 565.65 170.482 566.796 Q170.482 570.859 173.138 573.046 Q175.768 575.208 180.716 575.208 L196.08 575.208 L196.08 580.025 L166.914 580.025 L166.914 575.208 L171.445 575.208 Q168.789 573.697 167.513 571.275 Q166.211 568.854 166.211 565.39 Q166.211 564.895 166.289 564.296 Q166.341 563.697 166.471 562.968 L171.393 562.942 Z" fill="#000000" fill-rule="nonzero" fill-opacity="1" /><path clip-path="url(#clip330)" d="M166.914 557.916 L166.914 553.124 L196.08 553.124 L196.08 557.916 L166.914 557.916 M155.56 557.916 L155.56 553.124 L161.627 553.124 L161.627 557.916 L155.56 557.916 Z" fill="#000000" fill-rule="nonzero" fill-opacity="1" /><path clip-path="url(#clip330)" d="M168.034 522.109 L172.513 522.109 Q171.393 524.14 170.846 526.198 Q170.273 528.229 170.273 530.312 Q170.273 534.974 173.242 537.552 Q176.185 540.13 181.523 540.13 Q186.862 540.13 189.83 537.552 Q192.773 534.974 192.773 530.312 Q192.773 528.229 192.226 526.198 Q191.653 524.14 190.534 522.109 L194.961 522.109 Q195.898 524.114 196.367 526.276 Q196.836 528.411 196.836 530.833 Q196.836 537.421 192.695 541.302 Q188.554 545.182 181.523 545.182 Q174.388 545.182 170.299 541.276 Q166.211 537.343 166.211 530.52 Q166.211 528.307 166.679 526.198 Q167.122 524.088 168.034 522.109 Z" fill="#000000" fill-rule="nonzero" fill-opacity="1" /><path clip-path="url(#clip330)" d="M166.914 513.776 L166.914 508.984 L196.08 508.984 L196.08 513.776 L166.914 513.776 M155.56 513.776 L155.56 508.984 L161.627 508.984 L161.627 513.776 L155.56 513.776 Z" fill="#000000" fill-rule="nonzero" fill-opacity="1" /><path clip-path="url(#clip330)" d="M171.341 462.812 L155.56 462.812 L155.56 458.021 L196.08 458.021 L196.08 462.812 L191.705 462.812 Q194.31 464.323 195.586 466.641 Q196.836 468.932 196.836 472.161 Q196.836 477.448 192.617 480.781 Q188.398 484.088 181.523 484.088 Q174.648 484.088 170.429 480.781 Q166.211 477.448 166.211 472.161 Q166.211 468.932 167.487 466.641 Q168.737 464.323 171.341 462.812 M181.523 479.14 Q186.81 479.14 189.83 476.979 Q192.825 474.792 192.825 470.989 Q192.825 467.187 189.83 465 Q186.81 462.812 181.523 462.812 Q176.237 462.812 173.242 465 Q170.221 467.187 170.221 470.989 Q170.221 474.792 173.242 476.979 Q176.237 479.14 181.523 479.14 Z" fill="#000000" fill-rule="nonzero" fill-opacity="1" /><path clip-path="url(#clip330)" d="M180.299 423.203 L182.643 423.203 L182.643 445.234 Q187.591 444.922 190.195 442.266 Q192.773 439.583 192.773 434.818 Q192.773 432.057 192.096 429.479 Q191.419 426.875 190.065 424.323 L194.596 424.323 Q195.69 426.901 196.263 429.61 Q196.836 432.318 196.836 435.104 Q196.836 442.083 192.773 446.172 Q188.711 450.234 181.784 450.234 Q174.622 450.234 170.429 446.38 Q166.211 442.5 166.211 435.938 Q166.211 430.052 170.013 426.641 Q173.789 423.203 180.299 423.203 M178.893 427.995 Q174.961 428.047 172.617 430.208 Q170.273 432.344 170.273 435.886 Q170.273 439.896 172.539 442.318 Q174.804 444.714 178.919 445.078 L178.893 427.995 Z" fill="#000000" fill-rule="nonzero" fill-opacity="1" /><path clip-path="url(#clip330)" d="M191.705 410.703 L207.174 410.703 L207.174 415.521 L166.914 415.521 L166.914 410.703 L171.341 410.703 Q168.737 409.193 167.487 406.901 Q166.211 404.584 166.211 401.38 Q166.211 396.068 170.429 392.761 Q174.648 389.427 181.523 389.427 Q188.398 389.427 192.617 392.761 Q196.836 396.068 196.836 401.38 Q196.836 404.584 195.586 406.901 Q194.31 409.193 191.705 410.703 M181.523 394.401 Q176.237 394.401 173.242 396.589 Q170.221 398.75 170.221 402.552 Q170.221 406.354 173.242 408.542 Q176.237 410.703 181.523 410.703 Q186.81 410.703 189.83 408.542 Q192.825 406.354 192.825 402.552 Q192.825 398.75 189.83 396.589 Q186.81 394.401 181.523 394.401 Z" fill="#000000" fill-rule="nonzero" fill-opacity="1" /><path clip-path="url(#clip330)" d="M181.419 368.23 Q181.419 374.037 182.747 376.276 Q184.075 378.516 187.278 378.516 Q189.83 378.516 191.341 376.849 Q192.825 375.157 192.825 372.266 Q192.825 368.282 190.013 365.886 Q187.174 363.464 182.487 363.464 L181.419 363.464 L181.419 368.23 M179.44 358.672 L196.08 358.672 L196.08 363.464 L191.653 363.464 Q194.31 365.105 195.586 367.553 Q196.836 370 196.836 373.542 Q196.836 378.021 194.336 380.677 Q191.81 383.308 187.591 383.308 Q182.669 383.308 180.169 380.026 Q177.669 376.719 177.669 370.183 L177.669 363.464 L177.2 363.464 Q173.893 363.464 172.096 365.652 Q170.273 367.813 170.273 371.745 Q170.273 374.245 170.872 376.615 Q171.471 378.985 172.669 381.172 L168.242 381.172 Q167.226 378.542 166.732 376.068 Q166.211 373.594 166.211 371.25 Q166.211 364.922 169.492 361.797 Q172.773 358.672 179.44 358.672 Z" fill="#000000" fill-rule="nonzero" fill-opacity="1" /><path clip-path="url(#clip330)" d="M171.393 331.902 Q170.924 332.709 170.716 333.673 Q170.482 334.61 170.482 335.756 Q170.482 339.818 173.138 342.006 Q175.768 344.167 180.716 344.167 L196.08 344.167 L196.08 348.985 L166.914 348.985 L166.914 344.167 L171.445 344.167 Q168.789 342.657 167.513 340.235 Q166.211 337.813 166.211 334.35 Q166.211 333.855 166.289 333.256 Q166.341 332.657 166.471 331.928 L171.393 331.902 Z" fill="#000000" fill-rule="nonzero" fill-opacity="1" /><path clip-path="url(#clip330)" d="M158.633 322.136 L166.914 322.136 L166.914 312.266 L170.638 312.266 L170.638 322.136 L186.471 322.136 Q190.039 322.136 191.054 321.173 Q192.07 320.183 192.07 317.188 L192.07 312.266 L196.08 312.266 L196.08 317.188 Q196.08 322.735 194.023 324.844 Q191.94 326.954 186.471 326.954 L170.638 326.954 L170.638 330.469 L166.914 330.469 L166.914 326.954 L158.633 326.954 L158.633 322.136 Z" fill="#000000" fill-rule="nonzero" fill-opacity="1" /><path clip-path="url(#clip330)" d="M184.57 306.459 L166.914 306.459 L166.914 301.667 L184.388 301.667 Q188.528 301.667 190.612 300.053 Q192.669 298.438 192.669 295.209 Q192.669 291.329 190.195 289.089 Q187.721 286.824 183.45 286.824 L166.914 286.824 L166.914 282.032 L196.08 282.032 L196.08 286.824 L191.601 286.824 Q194.257 288.569 195.56 290.886 Q196.836 293.178 196.836 296.225 Q196.836 301.251 193.711 303.855 Q190.586 306.459 184.57 306.459 M166.211 294.402 L166.211 294.402 Z" fill="#000000" fill-rule="nonzero" fill-opacity="1" /><path clip-path="url(#clip330)" d="M171.393 255.261 Q170.924 256.069 170.716 257.032 Q170.482 257.97 170.482 259.116 Q170.482 263.178 173.138 265.366 Q175.768 267.527 180.716 267.527 L196.08 267.527 L196.08 272.345 L166.914 272.345 L166.914 267.527 L171.445 267.527 Q168.789 266.017 167.513 263.595 Q166.211 261.173 166.211 257.709 Q166.211 257.215 166.289 256.616 Q166.341 256.017 166.471 255.288 L171.393 255.261 Z" fill="#000000" fill-rule="nonzero" fill-opacity="1" /><path clip-path="url(#clip330)" d="M180.299 226.46 L182.643 226.46 L182.643 248.491 Q187.591 248.178 190.195 245.522 Q192.773 242.84 192.773 238.074 Q192.773 235.314 192.096 232.736 Q191.419 230.131 190.065 227.579 L194.596 227.579 Q195.69 230.157 196.263 232.866 Q196.836 235.574 196.836 238.361 Q196.836 245.34 192.773 249.428 Q188.711 253.491 181.784 253.491 Q174.622 253.491 170.429 249.637 Q166.211 245.756 166.211 239.194 Q166.211 233.308 170.013 229.897 Q173.789 226.46 180.299 226.46 M178.893 231.251 Q174.961 231.303 172.617 233.465 Q170.273 235.6 170.273 239.142 Q170.273 243.152 172.539 245.574 Q174.804 247.97 178.919 248.334 L178.893 231.251 Z" fill="#000000" fill-rule="nonzero" fill-opacity="1" /><path clip-path="url(#clip330)" d="M155.612 190.132 Q161.601 193.621 167.461 195.314 Q173.32 197.007 179.336 197.007 Q185.351 197.007 191.263 195.314 Q197.148 193.595 203.112 190.132 L203.112 194.298 Q196.992 198.204 191.08 200.158 Q185.169 202.085 179.336 202.085 Q173.528 202.085 167.643 200.158 Q161.758 198.231 155.612 194.298 L155.612 190.132 Z" fill="#000000" fill-rule="nonzero" fill-opacity="1" /><path clip-path="url(#clip330)" d="M178.476 156.59 L207.174 156.59 L207.174 161.382 L178.633 161.382 Q174.492 161.382 172.435 162.996 Q170.377 164.611 170.377 167.84 Q170.377 171.72 172.851 173.96 Q175.325 176.199 179.596 176.199 L196.08 176.199 L196.08 181.017 L166.914 181.017 L166.914 176.199 L171.445 176.199 Q168.815 174.481 167.513 172.163 Q166.211 169.819 166.211 166.772 Q166.211 161.746 169.31 159.168 Q172.435 156.59 178.476 156.59 Z" fill="#000000" fill-rule="nonzero" fill-opacity="1" /><path clip-path="url(#clip330)" d="M155.612 147.788 L155.612 143.621 Q161.758 139.715 167.643 137.788 Q173.528 135.835 179.336 135.835 Q185.169 135.835 191.08 137.788 Q196.992 139.715 203.112 143.621 L203.112 147.788 Q197.148 144.325 191.263 142.632 Q185.351 140.913 179.336 140.913 Q173.32 140.913 167.461 142.632 Q161.601 144.325 155.612 147.788 Z" fill="#000000" fill-rule="nonzero" fill-opacity="1" /><path clip-path="url(#clip330)" d="M159.361 14.3981 L151.433 35.8968 L167.319 35.8968 L159.361 14.3981 M156.063 8.64 L162.689 8.64 L179.153 51.84 L173.077 51.84 L169.142 40.7579 L149.668 40.7579 L145.733 51.84 L139.57 51.84 L156.063 8.64 Z" fill="#000000" fill-rule="nonzero" fill-opacity="1" /><path clip-path="url(#clip330)" d="M191.306 31.2093 L191.306 47.0368 L200.681 47.0368 Q205.397 47.0368 207.654 45.0981 Q209.94 43.1306 209.94 39.1086 Q209.94 35.0577 207.654 33.148 Q205.397 31.2093 200.681 31.2093 L191.306 31.2093 M191.306 13.4432 L191.306 26.464 L199.957 26.464 Q204.24 26.464 206.323 24.8726 Q208.435 23.2522 208.435 19.9536 Q208.435 16.6839 206.323 15.0636 Q204.24 13.4432 199.957 13.4432 L191.306 13.4432 M185.461 8.64 L200.391 8.64 Q207.075 8.64 210.692 11.4178 Q214.309 14.1955 214.309 19.317 Q214.309 23.2811 212.457 25.6249 Q210.605 27.9686 207.017 28.5473 Q211.329 29.4732 213.701 32.4246 Q216.103 35.347 216.103 39.7452 Q216.103 45.5322 212.168 48.6861 Q208.233 51.84 200.97 51.84 L185.461 51.84 L185.461 8.64 Z" fill="#000000" fill-rule="nonzero" fill-opacity="1" /><path clip-path="url(#clip330)" d="M227.243 44.4905 L233.348 44.4905 L233.348 51.84 L227.243 51.84 L227.243 44.4905 M227.243 21.1978 L233.348 21.1978 L233.348 28.5473 L227.243 28.5473 L227.243 21.1978 Z" fill="#000000" fill-rule="nonzero" fill-opacity="1" /><path clip-path="url(#clip330)" d="M286.01 24.3517 L286.01 6.81709 L291.334 6.81709 L291.334 51.84 L286.01 51.84 L286.01 46.9789 Q284.332 49.8724 281.757 51.2902 Q279.21 52.6791 275.622 52.6791 Q269.749 52.6791 266.045 47.9916 Q262.37 43.3042 262.37 35.6653 Q262.37 28.0265 266.045 23.339 Q269.749 18.6515 275.622 18.6515 Q279.21 18.6515 281.757 20.0693 Q284.332 21.4582 286.01 24.3517 M267.868 35.6653 Q267.868 41.5391 270.269 44.8956 Q272.7 48.2231 276.925 48.2231 Q281.149 48.2231 283.58 44.8956 Q286.01 41.5391 286.01 35.6653 Q286.01 29.7915 283.58 26.464 Q281.149 23.1075 276.925 23.1075 Q272.7 23.1075 270.269 26.464 Q267.868 29.7915 267.868 35.6653 Z" fill="#000000" fill-rule="nonzero" fill-opacity="1" /><path clip-path="url(#clip330)" d="M315.784 54.8492 Q313.527 60.6362 311.386 62.4013 Q309.245 64.1663 305.657 64.1663 L301.404 64.1663 L301.404 59.7103 L304.529 59.7103 Q306.728 59.7103 307.943 58.6687 Q309.158 57.627 310.634 53.7497 L311.589 51.3192 L298.481 19.4328 L304.123 19.4328 L314.251 44.7799 L324.378 19.4328 L330.02 19.4328 L315.784 54.8492 Z" fill="#000000" fill-rule="nonzero" fill-opacity="1" /><path clip-path="url(#clip330)" d="M364.308 32.2799 L364.308 51.84 L358.984 51.84 L358.984 32.4535 Q358.984 27.8529 357.19 25.567 Q355.396 23.2811 351.808 23.2811 Q347.497 23.2811 345.009 26.03 Q342.52 28.7788 342.52 33.5241 L342.52 51.84 L337.167 51.84 L337.167 19.4328 L342.52 19.4328 L342.52 24.4675 Q344.43 21.545 347.005 20.0983 Q349.609 18.6515 352.995 18.6515 Q358.579 18.6515 361.444 22.1237 Q364.308 25.567 364.308 32.2799 Z" fill="#000000" fill-rule="nonzero" fill-opacity="1" /><path clip-path="url(#clip330)" d="M389.655 35.5496 Q383.203 35.5496 380.714 37.0253 Q378.226 38.501 378.226 42.06 Q378.226 44.8956 380.078 46.5738 Q381.959 48.2231 385.17 48.2231 Q389.598 48.2231 392.26 45.0981 Q394.95 41.9442 394.95 36.7359 L394.95 35.5496 L389.655 35.5496 M400.275 33.3505 L400.275 51.84 L394.95 51.84 L394.95 46.921 Q393.128 49.8724 390.408 51.2902 Q387.688 52.6791 383.753 52.6791 Q378.776 52.6791 375.824 49.9014 Q372.902 47.0947 372.902 42.4072 Q372.902 36.9385 376.548 34.1607 Q380.223 31.3829 387.485 31.3829 L394.95 31.3829 L394.95 30.8621 Q394.95 27.1874 392.52 25.1908 Q390.118 23.1654 385.749 23.1654 Q382.971 23.1654 380.338 23.8309 Q377.705 24.4964 375.275 25.8274 L375.275 20.9085 Q378.197 19.78 380.946 19.2302 Q383.695 18.6515 386.299 18.6515 Q393.33 18.6515 396.802 22.2973 Q400.275 25.9431 400.275 33.3505 Z" fill="#000000" fill-rule="nonzero" fill-opacity="1" /><path clip-path="url(#clip330)" d="M436.472 25.6538 Q438.469 22.0659 441.247 20.3587 Q444.024 18.6515 447.786 18.6515 Q452.849 18.6515 455.598 22.2105 Q458.347 25.7406 458.347 32.2799 L458.347 51.84 L452.994 51.84 L452.994 32.4535 Q452.994 27.795 451.345 25.5381 Q449.696 23.2811 446.31 23.2811 Q442.172 23.2811 439.771 26.03 Q437.369 28.7788 437.369 33.5241 L437.369 51.84 L432.016 51.84 L432.016 32.4535 Q432.016 27.7661 430.367 25.5381 Q428.718 23.2811 425.274 23.2811 Q421.195 23.2811 418.793 26.0589 Q416.391 28.8077 416.391 33.5241 L416.391 51.84 L411.038 51.84 L411.038 19.4328 L416.391 19.4328 L416.391 24.4675 Q418.214 21.4872 420.761 20.0693 Q423.307 18.6515 426.808 18.6515 Q430.338 18.6515 432.798 20.4455 Q435.286 22.2395 436.472 25.6538 Z" fill="#000000" fill-rule="nonzero" fill-opacity="1" /><path clip-path="url(#clip330)" d="M468.966 19.4328 L474.29 19.4328 L474.29 51.84 L468.966 51.84 L468.966 19.4328 M468.966 6.81709 L474.29 6.81709 L474.29 13.559 L468.966 13.559 L468.966 6.81709 Z" fill="#000000" fill-rule="nonzero" fill-opacity="1" /><path clip-path="url(#clip330)" d="M508.752 20.677 L508.752 25.6538 Q506.495 24.4096 504.209 23.802 Q501.952 23.1654 499.637 23.1654 Q494.458 23.1654 491.593 26.464 Q488.729 29.7336 488.729 35.6653 Q488.729 41.597 491.593 44.8956 Q494.458 48.1653 499.637 48.1653 Q501.952 48.1653 504.209 47.5576 Q506.495 46.921 508.752 45.6768 L508.752 50.5958 Q506.524 51.6375 504.122 52.1583 Q501.75 52.6791 499.059 52.6791 Q491.738 52.6791 487.427 48.0784 Q483.116 43.4778 483.116 35.6653 Q483.116 27.7371 487.456 23.1943 Q491.825 18.6515 499.406 18.6515 Q501.865 18.6515 504.209 19.1724 Q506.553 19.6642 508.752 20.677 Z" fill="#000000" fill-rule="nonzero" fill-opacity="1" /><path clip-path="url(#clip330)" d="M532.739 35.5496 Q526.287 35.5496 523.798 37.0253 Q521.31 38.501 521.31 42.06 Q521.31 44.8956 523.162 46.5738 Q525.042 48.2231 528.254 48.2231 Q532.681 48.2231 535.343 45.0981 Q538.034 41.9442 538.034 36.7359 L538.034 35.5496 L532.739 35.5496 M543.358 33.3505 L543.358 51.84 L538.034 51.84 L538.034 46.921 Q536.211 49.8724 533.491 51.2902 Q530.772 52.6791 526.836 52.6791 Q521.86 52.6791 518.908 49.9014 Q515.986 47.0947 515.986 42.4072 Q515.986 36.9385 519.632 34.1607 Q523.306 31.3829 530.569 31.3829 L538.034 31.3829 L538.034 30.8621 Q538.034 27.1874 535.604 25.1908 Q533.202 23.1654 528.833 23.1654 Q526.055 23.1654 523.422 23.8309 Q520.789 24.4964 518.358 25.8274 L518.358 20.9085 Q521.281 19.78 524.03 19.2302 Q526.778 18.6515 529.383 18.6515 Q536.414 18.6515 539.886 22.2973 Q543.358 25.9431 543.358 33.3505 Z" fill="#000000" fill-rule="nonzero" fill-opacity="1" /><path clip-path="url(#clip330)" d="M554.325 6.81709 L559.649 6.81709 L559.649 51.84 L554.325 51.84 L554.325 6.81709 Z" fill="#000000" fill-rule="nonzero" fill-opacity="1" /><path clip-path="url(#clip330)" d="M610.285 20.3876 L610.285 25.4223 Q608.028 24.2649 605.598 23.6862 Q603.167 23.1075 600.563 23.1075 Q596.599 23.1075 594.602 24.3228 Q592.635 25.5381 592.635 27.9686 Q592.635 29.8204 594.052 30.891 Q595.47 31.9327 599.753 32.8876 L601.576 33.2926 Q607.247 34.5079 609.619 36.7359 Q612.021 38.935 612.021 42.8991 Q612.021 47.4129 608.433 50.046 Q604.874 52.6791 598.624 52.6791 Q596.02 52.6791 593.184 52.1583 Q590.378 51.6664 587.253 50.6537 L587.253 45.156 Q590.204 46.6896 593.069 47.4708 Q595.933 48.2231 598.74 48.2231 Q602.501 48.2231 604.527 46.95 Q606.552 45.6479 606.552 43.3042 Q606.552 41.134 605.077 39.9766 Q603.63 38.8192 598.682 37.7486 L596.83 37.3146 Q591.882 36.273 589.683 34.1318 Q587.484 31.9616 587.484 28.2001 Q587.484 23.6283 590.725 21.1399 Q593.966 18.6515 599.926 18.6515 Q602.878 18.6515 605.482 19.0855 Q608.086 19.5196 610.285 20.3876 Z" fill="#000000" fill-rule="nonzero" fill-opacity="1" /><path clip-path="url(#clip330)" d="M625.765 10.2314 L625.765 19.4328 L636.732 19.4328 L636.732 23.5705 L625.765 23.5705 L625.765 41.163 Q625.765 45.1271 626.836 46.2555 Q627.935 47.384 631.263 47.384 L636.732 47.384 L636.732 51.84 L631.263 51.84 Q625.1 51.84 622.756 49.5541 Q620.412 47.2393 620.412 41.163 L620.412 23.5705 L616.506 23.5705 L616.506 19.4328 L620.412 19.4328 L620.412 10.2314 L625.765 10.2314 Z" fill="#000000" fill-rule="nonzero" fill-opacity="1" /><path clip-path="url(#clip330)" d="M662.513 24.4096 Q661.616 23.8888 660.545 23.6573 Q659.503 23.3969 658.23 23.3969 Q653.716 23.3969 651.286 26.3482 Q648.884 29.2707 648.884 34.7683 L648.884 51.84 L643.531 51.84 L643.531 19.4328 L648.884 19.4328 L648.884 24.4675 Q650.563 21.5161 653.254 20.0983 Q655.944 18.6515 659.793 18.6515 Q660.343 18.6515 661.008 18.7383 Q661.674 18.7962 662.484 18.9409 L662.513 24.4096 Z" fill="#000000" fill-rule="nonzero" fill-opacity="1" /><path clip-path="url(#clip330)" d="M682.825 35.5496 Q676.373 35.5496 673.884 37.0253 Q671.396 38.501 671.396 42.06 Q671.396 44.8956 673.248 46.5738 Q675.128 48.2231 678.34 48.2231 Q682.767 48.2231 685.429 45.0981 Q688.12 41.9442 688.12 36.7359 L688.12 35.5496 L682.825 35.5496 M693.444 33.3505 L693.444 51.84 L688.12 51.84 L688.12 46.921 Q686.297 49.8724 683.577 51.2902 Q680.858 52.6791 676.922 52.6791 Q671.946 52.6791 668.994 49.9014 Q666.072 47.0947 666.072 42.4072 Q666.072 36.9385 669.718 34.1607 Q673.392 31.3829 680.655 31.3829 L688.12 31.3829 L688.12 30.8621 Q688.12 27.1874 685.69 25.1908 Q683.288 23.1654 678.919 23.1654 Q676.141 23.1654 673.508 23.8309 Q670.875 24.4964 668.444 25.8274 L668.444 20.9085 Q671.367 19.78 674.116 19.2302 Q676.864 18.6515 679.469 18.6515 Q686.5 18.6515 689.972 22.2973 Q693.444 25.9431 693.444 33.3505 Z" fill="#000000" fill-rule="nonzero" fill-opacity="1" /><path clip-path="url(#clip330)" d="M704.411 19.4328 L709.735 19.4328 L709.735 51.84 L704.411 51.84 L704.411 19.4328 M704.411 6.81709 L709.735 6.81709 L709.735 13.559 L704.411 13.559 L704.411 6.81709 Z" fill="#000000" fill-rule="nonzero" fill-opacity="1" /><path clip-path="url(#clip330)" d="M747.813 32.2799 L747.813 51.84 L742.489 51.84 L742.489 32.4535 Q742.489 27.8529 740.695 25.567 Q738.901 23.2811 735.313 23.2811 Q731.002 23.2811 728.514 26.03 Q726.025 28.7788 726.025 33.5241 L726.025 51.84 L720.672 51.84 L720.672 19.4328 L726.025 19.4328 L726.025 24.4675 Q727.935 21.545 730.51 20.0983 Q733.114 18.6515 736.5 18.6515 Q742.084 18.6515 744.949 22.1237 Q747.813 25.567 747.813 32.2799 Z" fill="#000000" fill-rule="nonzero" fill-opacity="1" /><path clip-path="url(#clip330)" d="M773.45 19.4328 L779.092 19.4328 L789.219 46.6317 L799.346 19.4328 L804.989 19.4328 L792.836 51.84 L785.602 51.84 L773.45 19.4328 Z" fill="#000000" fill-rule="nonzero" fill-opacity="1" /><path clip-path="url(#clip330)" d="M832.998 20.3876 L832.998 25.4223 Q830.741 24.2649 828.31 23.6862 Q825.88 23.1075 823.276 23.1075 Q819.312 23.1075 817.315 24.3228 Q815.348 25.5381 815.348 27.9686 Q815.348 29.8204 816.765 30.891 Q818.183 31.9327 822.466 32.8876 L824.288 33.2926 Q829.96 34.5079 832.332 36.7359 Q834.734 38.935 834.734 42.8991 Q834.734 47.4129 831.146 50.046 Q827.587 52.6791 821.337 52.6791 Q818.733 52.6791 815.897 52.1583 Q813.091 51.6664 809.966 50.6537 L809.966 45.156 Q812.917 46.6896 815.782 47.4708 Q818.646 48.2231 821.453 48.2231 Q825.214 48.2231 827.24 46.95 Q829.265 45.6479 829.265 43.3042 Q829.265 41.134 827.79 39.9766 Q826.343 38.8192 821.395 37.7486 L819.543 37.3146 Q814.595 36.273 812.396 34.1318 Q810.197 31.9616 810.197 28.2001 Q810.197 23.6283 813.438 21.1399 Q816.679 18.6515 822.639 18.6515 Q825.591 18.6515 828.195 19.0855 Q830.799 19.5196 832.998 20.3876 Z" fill="#000000" fill-rule="nonzero" fill-opacity="1" /><path clip-path="url(#clip330)" d="M858.953 19.4328 L864.277 19.4328 L870.932 44.722 L877.558 19.4328 L883.837 19.4328 L890.492 44.722 L897.118 19.4328 L902.442 19.4328 L893.964 51.84 L887.685 51.84 L880.712 25.2776 L873.709 51.84 L867.431 51.84 L858.953 19.4328 Z" fill="#000000" fill-rule="nonzero" fill-opacity="1" /><path clip-path="url(#clip330)" d="M925.243 35.5496 Q918.79 35.5496 916.302 37.0253 Q913.813 38.501 913.813 42.06 Q913.813 44.8956 915.665 46.5738 Q917.546 48.2231 920.758 48.2231 Q925.185 48.2231 927.847 45.0981 Q930.538 41.9442 930.538 36.7359 L930.538 35.5496 L925.243 35.5496 M935.862 33.3505 L935.862 51.84 L930.538 51.84 L930.538 46.921 Q928.715 49.8724 925.995 51.2902 Q923.275 52.6791 919.34 52.6791 Q914.363 52.6791 911.412 49.9014 Q908.489 47.0947 908.489 42.4072 Q908.489 36.9385 912.135 34.1607 Q915.81 31.3829 923.073 31.3829 L930.538 31.3829 L930.538 30.8621 Q930.538 27.1874 928.107 25.1908 Q925.706 23.1654 921.337 23.1654 Q918.559 23.1654 915.926 23.8309 Q913.293 24.4964 910.862 25.8274 L910.862 20.9085 Q913.785 19.78 916.533 19.2302 Q919.282 18.6515 921.886 18.6515 Q928.918 18.6515 932.39 22.2973 Q935.862 25.9431 935.862 33.3505 Z" fill="#000000" fill-rule="nonzero" fill-opacity="1" /><path clip-path="url(#clip330)" d="M946.828 6.81709 L952.152 6.81709 L952.152 51.84 L946.828 51.84 L946.828 6.81709 Z" fill="#000000" fill-rule="nonzero" fill-opacity="1" /><path clip-path="url(#clip330)" d="M963.09 6.81709 L968.443 6.81709 L968.443 33.4084 L984.328 19.4328 L991.128 19.4328 L973.94 34.5947 L991.851 51.84 L984.907 51.84 L968.443 36.0125 L968.443 51.84 L963.09 51.84 L963.09 6.81709 Z" fill="#000000" fill-rule="nonzero" fill-opacity="1" /><path clip-path="url(#clip330)" d="M997.609 19.4328 L1002.93 19.4328 L1002.93 51.84 L997.609 51.84 L997.609 19.4328 M997.609 6.81709 L1002.93 6.81709 L1002.93 13.559 L997.609 13.559 L997.609 6.81709 Z" fill="#000000" fill-rule="nonzero" fill-opacity="1" /><path clip-path="url(#clip330)" d="M1041.01 32.2799 L1041.01 51.84 L1035.69 51.84 L1035.69 32.4535 Q1035.69 27.8529 1033.89 25.567 Q1032.1 23.2811 1028.51 23.2811 Q1024.2 23.2811 1021.71 26.03 Q1019.22 28.7788 1019.22 33.5241 L1019.22 51.84 L1013.87 51.84 L1013.87 19.4328 L1019.22 19.4328 L1019.22 24.4675 Q1021.13 21.545 1023.71 20.0983 Q1026.31 18.6515 1029.7 18.6515 Q1035.28 18.6515 1038.15 22.1237 Q1041.01 25.567 1041.01 32.2799 Z" fill="#000000" fill-rule="nonzero" fill-opacity="1" /><path clip-path="url(#clip330)" d="M1072.96 35.2602 Q1072.96 29.4732 1070.55 26.2904 Q1068.18 23.1075 1063.87 23.1075 Q1059.59 23.1075 1057.19 26.2904 Q1054.81 29.4732 1054.81 35.2602 Q1054.81 41.0183 1057.19 44.2012 Q1059.59 47.384 1063.87 47.384 Q1068.18 47.384 1070.55 44.2012 Q1072.96 41.0183 1072.96 35.2602 M1078.28 47.818 Q1078.28 56.0934 1074.61 60.1154 Q1070.93 64.1663 1063.35 64.1663 Q1060.54 64.1663 1058.05 63.7323 Q1055.57 63.3272 1053.22 62.4592 L1053.22 57.2798 Q1055.57 58.5529 1057.85 59.1606 Q1060.14 59.7682 1062.51 59.7682 Q1067.75 59.7682 1070.35 57.0194 Q1072.96 54.2995 1072.96 48.7729 L1072.96 46.1398 Q1071.31 49.0044 1068.73 50.4222 Q1066.16 51.84 1062.57 51.84 Q1056.61 51.84 1052.96 47.2972 Q1049.32 42.7544 1049.32 35.2602 Q1049.32 27.7371 1052.96 23.1943 Q1056.61 18.6515 1062.57 18.6515 Q1066.16 18.6515 1068.73 20.0693 Q1071.31 21.4872 1072.96 24.3517 L1072.96 19.4328 L1078.28 19.4328 L1078.28 47.818 Z" fill="#000000" fill-rule="nonzero" fill-opacity="1" /><path clip-path="url(#clip330)" d="M1128.74 20.3876 L1128.74 25.4223 Q1126.49 24.2649 1124.06 23.6862 Q1121.62 23.1075 1119.02 23.1075 Q1115.06 23.1075 1113.06 24.3228 Q1111.09 25.5381 1111.09 27.9686 Q1111.09 29.8204 1112.51 30.891 Q1113.93 31.9327 1118.21 32.8876 L1120.03 33.2926 Q1125.7 34.5079 1128.08 36.7359 Q1130.48 38.935 1130.48 42.8991 Q1130.48 47.4129 1126.89 50.046 Q1123.33 52.6791 1117.08 52.6791 Q1114.48 52.6791 1111.64 52.1583 Q1108.84 51.6664 1105.71 50.6537 L1105.71 45.156 Q1108.66 46.6896 1111.53 47.4708 Q1114.39 48.2231 1117.2 48.2231 Q1120.96 48.2231 1122.98 46.95 Q1125.01 45.6479 1125.01 43.3042 Q1125.01 41.134 1123.53 39.9766 Q1122.09 38.8192 1117.14 37.7486 L1115.29 37.3146 Q1110.34 36.273 1108.14 34.1318 Q1105.94 31.9616 1105.94 28.2001 Q1105.94 23.6283 1109.18 21.1399 Q1112.42 18.6515 1118.38 18.6515 Q1121.34 18.6515 1123.94 19.0855 Q1126.54 19.5196 1128.74 20.3876 Z" fill="#000000" fill-rule="nonzero" fill-opacity="1" /><path clip-path="url(#clip330)" d="M1144.11 46.9789 L1144.11 64.1663 L1138.75 64.1663 L1138.75 19.4328 L1144.11 19.4328 L1144.11 24.3517 Q1145.79 21.4582 1148.33 20.0693 Q1150.91 18.6515 1154.47 18.6515 Q1160.37 18.6515 1164.04 23.339 Q1167.75 28.0265 1167.75 35.6653 Q1167.75 43.3042 1164.04 47.9916 Q1160.37 52.6791 1154.47 52.6791 Q1150.91 52.6791 1148.33 51.2902 Q1145.79 49.8724 1144.11 46.9789 M1162.22 35.6653 Q1162.22 29.7915 1159.79 26.464 Q1157.39 23.1075 1153.16 23.1075 Q1148.94 23.1075 1146.51 26.464 Q1144.11 29.7915 1144.11 35.6653 Q1144.11 41.5391 1146.51 44.8956 Q1148.94 48.2231 1153.16 48.2231 Q1157.39 48.2231 1159.79 44.8956 Q1162.22 41.5391 1162.22 35.6653 Z" fill="#000000" fill-rule="nonzero" fill-opacity="1" /><path clip-path="url(#clip330)" d="M1204.29 34.3054 L1204.29 36.9095 L1179.81 36.9095 Q1180.16 42.4072 1183.11 45.3007 Q1186.09 48.1653 1191.39 48.1653 Q1194.45 48.1653 1197.32 47.4129 Q1200.21 46.6606 1203.05 45.156 L1203.05 50.1907 Q1200.18 51.406 1197.17 52.0425 Q1194.16 52.6791 1191.07 52.6791 Q1183.31 52.6791 1178.77 48.1653 Q1174.26 43.6514 1174.26 35.9547 Q1174.26 27.9975 1178.54 23.339 Q1182.85 18.6515 1190.14 18.6515 Q1196.68 18.6515 1200.47 22.876 Q1204.29 27.0716 1204.29 34.3054 M1198.97 32.7429 Q1198.91 28.3737 1196.51 25.7695 Q1194.14 23.1654 1190.2 23.1654 Q1185.74 23.1654 1183.05 25.6827 Q1180.39 28.2001 1179.99 32.7718 L1198.97 32.7429 Z" fill="#000000" fill-rule="nonzero" fill-opacity="1" /><path clip-path="url(#clip330)" d="M1240.75 34.3054 L1240.75 36.9095 L1216.27 36.9095 Q1216.62 42.4072 1219.57 45.3007 Q1222.55 48.1653 1227.85 48.1653 Q1230.91 48.1653 1233.78 47.4129 Q1236.67 46.6606 1239.51 45.156 L1239.51 50.1907 Q1236.64 51.406 1233.63 52.0425 Q1230.62 52.6791 1227.53 52.6791 Q1219.77 52.6791 1215.23 48.1653 Q1210.72 43.6514 1210.72 35.9547 Q1210.72 27.9975 1215 23.339 Q1219.31 18.6515 1226.6 18.6515 Q1233.14 18.6515 1236.93 22.876 Q1240.75 27.0716 1240.75 34.3054 M1235.43 32.7429 Q1235.37 28.3737 1232.97 25.7695 Q1230.59 23.1654 1226.66 23.1654 Q1222.2 23.1654 1219.51 25.6827 Q1216.85 28.2001 1216.44 32.7718 L1235.43 32.7429 Z" fill="#000000" fill-rule="nonzero" fill-opacity="1" /><path clip-path="url(#clip330)" d="M1270.81 24.3517 L1270.81 6.81709 L1276.14 6.81709 L1276.14 51.84 L1270.81 51.84 L1270.81 46.9789 Q1269.14 49.8724 1266.56 51.2902 Q1264.01 52.6791 1260.43 52.6791 Q1254.55 52.6791 1250.85 47.9916 Q1247.17 43.3042 1247.17 35.6653 Q1247.17 28.0265 1250.85 23.339 Q1254.55 18.6515 1260.43 18.6515 Q1264.01 18.6515 1266.56 20.0693 Q1269.14 21.4582 1270.81 24.3517 M1252.67 35.6653 Q1252.67 41.5391 1255.07 44.8956 Q1257.5 48.2231 1261.73 48.2231 Q1265.95 48.2231 1268.38 44.8956 Q1270.81 41.5391 1270.81 35.6653 Q1270.81 29.7915 1268.38 26.464 Q1265.95 23.1075 1261.73 23.1075 Q1257.5 23.1075 1255.07 26.464 Q1252.67 29.7915 1252.67 35.6653 Z" fill="#000000" fill-rule="nonzero" fill-opacity="1" /><polyline clip-path="url(#clip332)" style="stroke:#4482b5; stroke-linecap:round; stroke-linejoin:round; stroke-width:4.8; stroke-opacity:0.35; fill:none" points="392.131,328.117 418.719,328.901 614.799,281.947 641.386,280.423 704.531,279.441 790.939,270.142 807.556,289.905 940.491,262.691 993.666,268.024 "/>
<polyline clip-path="url(#clip332)" style="stroke:#4482b5; stroke-linecap:round; stroke-linejoin:round; stroke-width:4.8; stroke-opacity:0.35; fill:none" points="392.131,391.26 448.629,383.406 614.799,385.956 658.003,383.574 711.177,376.802 807.556,372.245 890.641,393.005 "/>
<polyline clip-path="url(#clip332)" style="stroke:#4482b5; stroke-linecap:round; stroke-linejoin:round; stroke-width:4.8; stroke-opacity:0.35; fill:none" points="392.131,278.134 448.629,301.642 594.859,309.217 624.769,278.571 651.356,297.79 707.854,302.716 840.79,318.905 874.024,314.62 907.258,309.186 "/>
<polyline clip-path="url(#clip332)" style="stroke:#4482b5; stroke-linecap:round; stroke-linejoin:round; stroke-width:4.8; stroke-opacity:0.35; fill:none" points="392.131,288.699 395.455,327.002 508.45,278.369 621.446,288.388 641.386,296.307 658.003,296.746 744.411,289.798 824.173,290.945 857.407,277.396 "/>
<polyline clip-path="url(#clip332)" style="stroke:#4482b5; stroke-linecap:round; stroke-linejoin:round; stroke-width:4.8; stroke-opacity:0.35; fill:none" points="392.131,329.43 458.599,338.971 541.684,324.224 641.386,292.27 674.62,292.644 707.854,276.722 830.819,268.274 874.024,278.396 917.228,287.136 "/>
<polyline clip-path="url(#clip332)" style="stroke:#4482b5; stroke-linecap:round; stroke-linejoin:round; stroke-width:4.8; stroke-opacity:0.35; fill:none" points="392.131,347.2 418.719,309.212 608.152,309.17 621.446,296.46 664.65,292.503 707.854,291.248 854.083,291.918 900.611,274.897 947.138,301.139 "/>
<polyline clip-path="url(#clip332)" style="stroke:#4482b5; stroke-linecap:round; stroke-linejoin:round; stroke-width:4.8; stroke-opacity:0.35; fill:none" points="392.131,395.496 398.778,407.909 641.386,385.681 648.033,385.353 704.531,385.253 757.705,291.685 807.556,384.601 850.76,381.027 893.964,383.475 "/>
<polyline clip-path="url(#clip332)" style="stroke:#4482b5; stroke-linecap:round; stroke-linejoin:round; stroke-width:4.8; stroke-opacity:0.35; fill:none" points="392.131,398.919 465.246,395.868 651.356,385.059 664.65,388.539 744.411,393.159 824.173,392.888 897.287,391.39 947.138,402.825 996.989,257.862 "/>
<polyline clip-path="url(#clip332)" style="stroke:#4482b5; stroke-linecap:round; stroke-linejoin:round; stroke-width:4.8; stroke-opacity:0.35; fill:none" points="392.131,404.699 402.102,399.257 631.416,590.665 658.003,407.226 704.531,406.21 774.322,399.446 847.436,374.408 893.964,338.158 940.491,388.828 "/>
<polyline clip-path="url(#clip332)" style="stroke:#4482b5; stroke-linecap:round; stroke-linejoin:round; stroke-width:4.8; stroke-opacity:0.35; fill:none" points="392.131,235.038 468.57,397.582 614.799,407.364 674.62,237.264 754.381,412.74 850.76,318.24 890.641,288.371 897.287,398.39 943.815,389.382 "/>
<polyline clip-path="url(#clip332)" style="stroke:#4482b5; stroke-linecap:round; stroke-linejoin:round; stroke-width:4.8; stroke-opacity:0.35; fill:none" points="392.131,392.844 498.48,386.227 621.446,386.138 731.118,387.502 774.322,242.149 830.819,391.926 840.79,370.574 874.024,390.548 917.228,392.066 "/>
<polyline clip-path="url(#clip332)" style="stroke:#4482b5; stroke-linecap:round; stroke-linejoin:round; stroke-width:4.8; stroke-opacity:0.35; fill:none" points="392.131,386.649 488.51,387.541 667.973,386.147 724.471,380.783 857.407,315.702 920.551,378.056 973.725,373.865 1023.58,378.92 "/>
<polyline clip-path="url(#clip332)" style="stroke:#4482b5; stroke-linecap:round; stroke-linejoin:round; stroke-width:4.8; stroke-opacity:0.35; fill:none" points="392.131,401.408 525.067,411.661 724.471,391.937 764.352,399.57 837.466,389.012 907.258,397.24 920.551,395.525 970.402,231.837 1020.25,238.527 "/>
<polyline clip-path="url(#clip332)" style="stroke:#4482b5; stroke-linecap:round; stroke-linejoin:round; stroke-width:4.8; stroke-opacity:0.35; fill:none" points="392.131,378.09 475.216,388.05 614.799,397.085 658.003,391.415 727.794,393.559 840.79,382.737 840.79,379.385 883.994,301.979 927.198,383.304 "/>
<polyline clip-path="url(#clip332)" style="stroke:#4482b5; stroke-linecap:round; stroke-linejoin:round; stroke-width:4.8; stroke-opacity:0.35; fill:none" points="392.131,409.496 451.953,405.026 707.854,390.119 764.352,393.417 840.79,394.778 893.964,392.131 917.228,390.285 943.815,390.626 993.666,393.513 "/>
<polyline clip-path="url(#clip332)" style="stroke:#4482b5; stroke-linecap:round; stroke-linejoin:round; stroke-width:4.8; stroke-opacity:0.35; fill:none" points="392.131,391.259 438.659,394.669 525.067,391.599 551.654,377.912 664.65,393.543 774.322,390.207 790.939,387.172 830.819,387.948 870.7,386.301 "/>
<polyline clip-path="url(#clip332)" style="stroke:#4482b5; stroke-linecap:round; stroke-linejoin:round; stroke-width:4.8; stroke-opacity:0.35; fill:none" points="392.131,410.89 528.391,406.514 677.943,316.566 691.237,235.393 774.322,411.256 870.7,410.886 874.024,231.548 917.228,383.801 963.755,231.701 "/>
<polyline clip-path="url(#clip332)" style="stroke:#4482b5; stroke-linecap:round; stroke-linejoin:round; stroke-width:4.8; stroke-opacity:0.35; fill:none" points="591.535,231.668 624.769,231.611 658.003,231.615 691.237,231.787 724.471,231.525 757.705,231.607 "/>
<polyline clip-path="url(#clip332)" style="stroke:#4482b5; stroke-linecap:round; stroke-linejoin:round; stroke-width:4.8; stroke-opacity:0.35; fill:none" points="591.535,232.633 638.063,237.306 684.59,231.523 731.118,231.742 777.645,231.815 824.173,231.529 "/>
<polyline clip-path="url(#clip332)" style="stroke:#4482b5; stroke-linecap:round; stroke-linejoin:round; stroke-width:4.8; stroke-opacity:0.35; fill:none" points="608.152,469.484 641.386,231.527 674.62,239.829 707.854,235.087 741.088,231.532 774.322,233.901 "/>
<polyline clip-path="url(#clip332)" style="stroke:#4482b5; stroke-linecap:round; stroke-linejoin:round; stroke-width:4.8; stroke-opacity:0.35; fill:none" points="591.535,231.671 631.416,231.559 671.297,234.184 711.177,231.527 751.058,231.544 790.939,232.033 "/>
<polyline clip-path="url(#clip332)" style="stroke:#4482b5; stroke-linecap:round; stroke-linejoin:round; stroke-width:4.8; stroke-opacity:0.35; fill:none" points="658.003,232.147 684.59,231.851 711.177,231.609 737.764,232.454 764.352,232.391 790.939,231.567 "/>
<circle clip-path="url(#clip332)" cx="807.556" cy="289.905" r="14.4" fill="#4482b5" fill-rule="evenodd" fill-opacity="0.75" stroke="none"/>
<circle clip-path="url(#clip332)" cx="940.491" cy="262.691" r="14.4" fill="#4482b5" fill-rule="evenodd" fill-opacity="0.75" stroke="none"/>
<circle clip-path="url(#clip332)" cx="993.666" cy="268.024" r="14.4" fill="#4482b5" fill-rule="evenodd" fill-opacity="0.75" stroke="none"/>
<circle clip-path="url(#clip332)" cx="392.131" cy="328.117" r="14.4" fill="#4482b5" fill-rule="evenodd" fill-opacity="0.75" stroke="none"/>
<circle clip-path="url(#clip332)" cx="418.719" cy="328.901" r="14.4" fill="#4482b5" fill-rule="evenodd" fill-opacity="0.75" stroke="none"/>
<circle clip-path="url(#clip332)" cx="614.799" cy="281.947" r="14.4" fill="#4482b5" fill-rule="evenodd" fill-opacity="0.75" stroke="none"/>
<circle clip-path="url(#clip332)" cx="641.386" cy="280.423" r="14.4" fill="#4482b5" fill-rule="evenodd" fill-opacity="0.75" stroke="none"/>
<circle clip-path="url(#clip332)" cx="704.531" cy="279.441" r="14.4" fill="#4482b5" fill-rule="evenodd" fill-opacity="0.75" stroke="none"/>
<circle clip-path="url(#clip332)" cx="790.939" cy="270.142" r="14.4" fill="#4482b5" fill-rule="evenodd" fill-opacity="0.75" stroke="none"/>
<circle clip-path="url(#clip332)" cx="392.131" cy="391.26" r="14.4" fill="#4482b5" fill-rule="evenodd" fill-opacity="0.75" stroke="none"/>
<circle clip-path="url(#clip332)" cx="448.629" cy="383.406" r="14.4" fill="#4482b5" fill-rule="evenodd" fill-opacity="0.75" stroke="none"/>
<circle clip-path="url(#clip332)" cx="614.799" cy="385.956" r="14.4" fill="#4482b5" fill-rule="evenodd" fill-opacity="0.75" stroke="none"/>
<circle clip-path="url(#clip332)" cx="658.003" cy="383.574" r="14.4" fill="#4482b5" fill-rule="evenodd" fill-opacity="0.75" stroke="none"/>
<circle clip-path="url(#clip332)" cx="711.177" cy="376.802" r="14.4" fill="#4482b5" fill-rule="evenodd" fill-opacity="0.75" stroke="none"/>
<circle clip-path="url(#clip332)" cx="807.556" cy="372.245" r="14.4" fill="#4482b5" fill-rule="evenodd" fill-opacity="0.75" stroke="none"/>
<circle clip-path="url(#clip332)" cx="890.641" cy="393.005" r="14.4" fill="#4482b5" fill-rule="evenodd" fill-opacity="0.75" stroke="none"/>
<circle clip-path="url(#clip332)" cx="392.131" cy="278.134" r="14.4" fill="#4482b5" fill-rule="evenodd" fill-opacity="0.75" stroke="none"/>
<circle clip-path="url(#clip332)" cx="448.629" cy="301.642" r="14.4" fill="#4482b5" fill-rule="evenodd" fill-opacity="0.75" stroke="none"/>
<circle clip-path="url(#clip332)" cx="594.859" cy="309.217" r="14.4" fill="#4482b5" fill-rule="evenodd" fill-opacity="0.75" stroke="none"/>
<circle clip-path="url(#clip332)" cx="624.769" cy="278.571" r="14.4" fill="#4482b5" fill-rule="evenodd" fill-opacity="0.75" stroke="none"/>
<circle clip-path="url(#clip332)" cx="651.356" cy="297.79" r="14.4" fill="#4482b5" fill-rule="evenodd" fill-opacity="0.75" stroke="none"/>
<circle clip-path="url(#clip332)" cx="707.854" cy="302.716" r="14.4" fill="#4482b5" fill-rule="evenodd" fill-opacity="0.75" stroke="none"/>
<circle clip-path="url(#clip332)" cx="840.79" cy="318.905" r="14.4" fill="#4482b5" fill-rule="evenodd" fill-opacity="0.75" stroke="none"/>
<circle clip-path="url(#clip332)" cx="874.024" cy="314.62" r="14.4" fill="#4482b5" fill-rule="evenodd" fill-opacity="0.75" stroke="none"/>
<circle clip-path="url(#clip332)" cx="907.258" cy="309.186" r="14.4" fill="#4482b5" fill-rule="evenodd" fill-opacity="0.75" stroke="none"/>
<circle clip-path="url(#clip332)" cx="392.131" cy="288.699" r="14.4" fill="#4482b5" fill-rule="evenodd" fill-opacity="0.75" stroke="none"/>
<circle clip-path="url(#clip332)" cx="395.455" cy="327.002" r="14.4" fill="#4482b5" fill-rule="evenodd" fill-opacity="0.75" stroke="none"/>
<circle clip-path="url(#clip332)" cx="508.45" cy="278.369" r="14.4" fill="#4482b5" fill-rule="evenodd" fill-opacity="0.75" stroke="none"/>
<circle clip-path="url(#clip332)" cx="621.446" cy="288.388" r="14.4" fill="#4482b5" fill-rule="evenodd" fill-opacity="0.75" stroke="none"/>
<circle clip-path="url(#clip332)" cx="641.386" cy="296.307" r="14.4" fill="#4482b5" fill-rule="evenodd" fill-opacity="0.75" stroke="none"/>
<circle clip-path="url(#clip332)" cx="658.003" cy="296.746" r="14.4" fill="#4482b5" fill-rule="evenodd" fill-opacity="0.75" stroke="none"/>
<circle clip-path="url(#clip332)" cx="744.411" cy="289.798" r="14.4" fill="#4482b5" fill-rule="evenodd" fill-opacity="0.75" stroke="none"/>
<circle clip-path="url(#clip332)" cx="824.173" cy="290.945" r="14.4" fill="#4482b5" fill-rule="evenodd" fill-opacity="0.75" stroke="none"/>
<circle clip-path="url(#clip332)" cx="857.407" cy="277.396" r="14.4" fill="#4482b5" fill-rule="evenodd" fill-opacity="0.75" stroke="none"/>
<circle clip-path="url(#clip332)" cx="392.131" cy="329.43" r="14.4" fill="#4482b5" fill-rule="evenodd" fill-opacity="0.75" stroke="none"/>
<circle clip-path="url(#clip332)" cx="458.599" cy="338.971" r="14.4" fill="#4482b5" fill-rule="evenodd" fill-opacity="0.75" stroke="none"/>
<circle clip-path="url(#clip332)" cx="541.684" cy="324.224" r="14.4" fill="#4482b5" fill-rule="evenodd" fill-opacity="0.75" stroke="none"/>
<circle clip-path="url(#clip332)" cx="641.386" cy="292.27" r="14.4" fill="#4482b5" fill-rule="evenodd" fill-opacity="0.75" stroke="none"/>
<circle clip-path="url(#clip332)" cx="674.62" cy="292.644" r="14.4" fill="#4482b5" fill-rule="evenodd" fill-opacity="0.75" stroke="none"/>
<circle clip-path="url(#clip332)" cx="707.854" cy="276.722" r="14.4" fill="#4482b5" fill-rule="evenodd" fill-opacity="0.75" stroke="none"/>
<circle clip-path="url(#clip332)" cx="830.819" cy="268.274" r="14.4" fill="#4482b5" fill-rule="evenodd" fill-opacity="0.75" stroke="none"/>
<circle clip-path="url(#clip332)" cx="874.024" cy="278.396" r="14.4" fill="#4482b5" fill-rule="evenodd" fill-opacity="0.75" stroke="none"/>
<circle clip-path="url(#clip332)" cx="917.228" cy="287.136" r="14.4" fill="#4482b5" fill-rule="evenodd" fill-opacity="0.75" stroke="none"/>
<circle clip-path="url(#clip332)" cx="392.131" cy="347.2" r="14.4" fill="#4482b5" fill-rule="evenodd" fill-opacity="0.75" stroke="none"/>
<circle clip-path="url(#clip332)" cx="418.719" cy="309.212" r="14.4" fill="#4482b5" fill-rule="evenodd" fill-opacity="0.75" stroke="none"/>
<circle clip-path="url(#clip332)" cx="608.152" cy="309.17" r="14.4" fill="#4482b5" fill-rule="evenodd" fill-opacity="0.75" stroke="none"/>
<circle clip-path="url(#clip332)" cx="621.446" cy="296.46" r="14.4" fill="#4482b5" fill-rule="evenodd" fill-opacity="0.75" stroke="none"/>
<circle clip-path="url(#clip332)" cx="664.65" cy="292.503" r="14.4" fill="#4482b5" fill-rule="evenodd" fill-opacity="0.75" stroke="none"/>
<circle clip-path="url(#clip332)" cx="707.854" cy="291.248" r="14.4" fill="#4482b5" fill-rule="evenodd" fill-opacity="0.75" stroke="none"/>
<circle clip-path="url(#clip332)" cx="854.083" cy="291.918" r="14.4" fill="#4482b5" fill-rule="evenodd" fill-opacity="0.75" stroke="none"/>
<circle clip-path="url(#clip332)" cx="900.611" cy="274.897" r="14.4" fill="#4482b5" fill-rule="evenodd" fill-opacity="0.75" stroke="none"/>
<circle clip-path="url(#clip332)" cx="947.138" cy="301.139" r="14.4" fill="#4482b5" fill-rule="evenodd" fill-opacity="0.75" stroke="none"/>
<circle clip-path="url(#clip332)" cx="392.131" cy="395.496" r="14.4" fill="#4482b5" fill-rule="evenodd" fill-opacity="0.75" stroke="none"/>
<circle clip-path="url(#clip332)" cx="398.778" cy="407.909" r="14.4" fill="#4482b5" fill-rule="evenodd" fill-opacity="0.75" stroke="none"/>
<circle clip-path="url(#clip332)" cx="641.386" cy="385.681" r="14.4" fill="#4482b5" fill-rule="evenodd" fill-opacity="0.75" stroke="none"/>
<circle clip-path="url(#clip332)" cx="648.033" cy="385.353" r="14.4" fill="#4482b5" fill-rule="evenodd" fill-opacity="0.75" stroke="none"/>
<circle clip-path="url(#clip332)" cx="704.531" cy="385.253" r="14.4" fill="#4482b5" fill-rule="evenodd" fill-opacity="0.75" stroke="none"/>
<circle clip-path="url(#clip332)" cx="757.705" cy="291.685" r="14.4" fill="#4482b5" fill-rule="evenodd" fill-opacity="0.75" stroke="none"/>
<circle clip-path="url(#clip332)" cx="807.556" cy="384.601" r="14.4" fill="#4482b5" fill-rule="evenodd" fill-opacity="0.75" stroke="none"/>
<circle clip-path="url(#clip332)" cx="850.76" cy="381.027" r="14.4" fill="#4482b5" fill-rule="evenodd" fill-opacity="0.75" stroke="none"/>
<circle clip-path="url(#clip332)" cx="893.964" cy="383.475" r="14.4" fill="#4482b5" fill-rule="evenodd" fill-opacity="0.75" stroke="none"/>
<circle clip-path="url(#clip332)" cx="392.131" cy="398.919" r="14.4" fill="#4482b5" fill-rule="evenodd" fill-opacity="0.75" stroke="none"/>
<circle clip-path="url(#clip332)" cx="465.246" cy="395.868" r="14.4" fill="#4482b5" fill-rule="evenodd" fill-opacity="0.75" stroke="none"/>
<circle clip-path="url(#clip332)" cx="651.356" cy="385.059" r="14.4" fill="#4482b5" fill-rule="evenodd" fill-opacity="0.75" stroke="none"/>
<circle clip-path="url(#clip332)" cx="664.65" cy="388.539" r="14.4" fill="#4482b5" fill-rule="evenodd" fill-opacity="0.75" stroke="none"/>
<circle clip-path="url(#clip332)" cx="744.411" cy="393.159" r="14.4" fill="#4482b5" fill-rule="evenodd" fill-opacity="0.75" stroke="none"/>
<circle clip-path="url(#clip332)" cx="824.173" cy="392.888" r="14.4" fill="#4482b5" fill-rule="evenodd" fill-opacity="0.75" stroke="none"/>
<circle clip-path="url(#clip332)" cx="897.287" cy="391.39" r="14.4" fill="#4482b5" fill-rule="evenodd" fill-opacity="0.75" stroke="none"/>
<circle clip-path="url(#clip332)" cx="947.138" cy="402.825" r="14.4" fill="#4482b5" fill-rule="evenodd" fill-opacity="0.75" stroke="none"/>
<circle clip-path="url(#clip332)" cx="996.989" cy="257.862" r="14.4" fill="#4482b5" fill-rule="evenodd" fill-opacity="0.75" stroke="none"/>
<circle clip-path="url(#clip332)" cx="392.131" cy="404.699" r="14.4" fill="#4482b5" fill-rule="evenodd" fill-opacity="0.75" stroke="none"/>
<circle clip-path="url(#clip332)" cx="402.102" cy="399.257" r="14.4" fill="#4482b5" fill-rule="evenodd" fill-opacity="0.75" stroke="none"/>
<circle clip-path="url(#clip332)" cx="631.416" cy="590.665" r="14.4" fill="#4482b5" fill-rule="evenodd" fill-opacity="0.75" stroke="none"/>
<circle clip-path="url(#clip332)" cx="658.003" cy="407.226" r="14.4" fill="#4482b5" fill-rule="evenodd" fill-opacity="0.75" stroke="none"/>
<circle clip-path="url(#clip332)" cx="704.531" cy="406.21" r="14.4" fill="#4482b5" fill-rule="evenodd" fill-opacity="0.75" stroke="none"/>
<circle clip-path="url(#clip332)" cx="774.322" cy="399.446" r="14.4" fill="#4482b5" fill-rule="evenodd" fill-opacity="0.75" stroke="none"/>
<circle clip-path="url(#clip332)" cx="847.436" cy="374.408" r="14.4" fill="#4482b5" fill-rule="evenodd" fill-opacity="0.75" stroke="none"/>
<circle clip-path="url(#clip332)" cx="893.964" cy="338.158" r="14.4" fill="#4482b5" fill-rule="evenodd" fill-opacity="0.75" stroke="none"/>
<circle clip-path="url(#clip332)" cx="940.491" cy="388.828" r="14.4" fill="#4482b5" fill-rule="evenodd" fill-opacity="0.75" stroke="none"/>
<circle clip-path="url(#clip332)" cx="392.131" cy="235.038" r="14.4" fill="#4482b5" fill-rule="evenodd" fill-opacity="0.75" stroke="none"/>
<circle clip-path="url(#clip332)" cx="468.57" cy="397.582" r="14.4" fill="#4482b5" fill-rule="evenodd" fill-opacity="0.75" stroke="none"/>
<circle clip-path="url(#clip332)" cx="614.799" cy="407.364" r="14.4" fill="#4482b5" fill-rule="evenodd" fill-opacity="0.75" stroke="none"/>
<circle clip-path="url(#clip332)" cx="674.62" cy="237.264" r="14.4" fill="#4482b5" fill-rule="evenodd" fill-opacity="0.75" stroke="none"/>
<circle clip-path="url(#clip332)" cx="754.381" cy="412.74" r="14.4" fill="#4482b5" fill-rule="evenodd" fill-opacity="0.75" stroke="none"/>
<circle clip-path="url(#clip332)" cx="890.641" cy="288.371" r="14.4" fill="#4482b5" fill-rule="evenodd" fill-opacity="0.75" stroke="none"/>
<circle clip-path="url(#clip332)" cx="850.76" cy="318.24" r="14.4" fill="#4482b5" fill-rule="evenodd" fill-opacity="0.75" stroke="none"/>
<circle clip-path="url(#clip332)" cx="897.287" cy="398.39" r="14.4" fill="#4482b5" fill-rule="evenodd" fill-opacity="0.75" stroke="none"/>
<circle clip-path="url(#clip332)" cx="943.815" cy="389.382" r="14.4" fill="#4482b5" fill-rule="evenodd" fill-opacity="0.75" stroke="none"/>
<circle clip-path="url(#clip332)" cx="392.131" cy="392.844" r="14.4" fill="#4482b5" fill-rule="evenodd" fill-opacity="0.75" stroke="none"/>
<circle clip-path="url(#clip332)" cx="498.48" cy="386.227" r="14.4" fill="#4482b5" fill-rule="evenodd" fill-opacity="0.75" stroke="none"/>
<circle clip-path="url(#clip332)" cx="621.446" cy="386.138" r="14.4" fill="#4482b5" fill-rule="evenodd" fill-opacity="0.75" stroke="none"/>
<circle clip-path="url(#clip332)" cx="731.118" cy="387.502" r="14.4" fill="#4482b5" fill-rule="evenodd" fill-opacity="0.75" stroke="none"/>
<circle clip-path="url(#clip332)" cx="774.322" cy="242.149" r="14.4" fill="#4482b5" fill-rule="evenodd" fill-opacity="0.75" stroke="none"/>
<circle clip-path="url(#clip332)" cx="840.79" cy="370.574" r="14.4" fill="#4482b5" fill-rule="evenodd" fill-opacity="0.75" stroke="none"/>
<circle clip-path="url(#clip332)" cx="830.819" cy="391.926" r="14.4" fill="#4482b5" fill-rule="evenodd" fill-opacity="0.75" stroke="none"/>
<circle clip-path="url(#clip332)" cx="874.024" cy="390.548" r="14.4" fill="#4482b5" fill-rule="evenodd" fill-opacity="0.75" stroke="none"/>
<circle clip-path="url(#clip332)" cx="917.228" cy="392.066" r="14.4" fill="#4482b5" fill-rule="evenodd" fill-opacity="0.75" stroke="none"/>
<circle clip-path="url(#clip332)" cx="392.131" cy="386.649" r="14.4" fill="#4482b5" fill-rule="evenodd" fill-opacity="0.75" stroke="none"/>
<circle clip-path="url(#clip332)" cx="488.51" cy="387.541" r="14.4" fill="#4482b5" fill-rule="evenodd" fill-opacity="0.75" stroke="none"/>
<circle clip-path="url(#clip332)" cx="667.973" cy="386.147" r="14.4" fill="#4482b5" fill-rule="evenodd" fill-opacity="0.75" stroke="none"/>
<circle clip-path="url(#clip332)" cx="724.471" cy="380.783" r="14.4" fill="#4482b5" fill-rule="evenodd" fill-opacity="0.75" stroke="none"/>
<circle clip-path="url(#clip332)" cx="857.407" cy="315.702" r="14.4" fill="#4482b5" fill-rule="evenodd" fill-opacity="0.75" stroke="none"/>
<circle clip-path="url(#clip332)" cx="920.551" cy="378.056" r="14.4" fill="#4482b5" fill-rule="evenodd" fill-opacity="0.75" stroke="none"/>
<circle clip-path="url(#clip332)" cx="973.725" cy="373.865" r="14.4" fill="#4482b5" fill-rule="evenodd" fill-opacity="0.75" stroke="none"/>
<circle clip-path="url(#clip332)" cx="1023.58" cy="378.92" r="14.4" fill="#4482b5" fill-rule="evenodd" fill-opacity="0.75" stroke="none"/>
<circle clip-path="url(#clip332)" cx="392.131" cy="401.408" r="14.4" fill="#4482b5" fill-rule="evenodd" fill-opacity="0.75" stroke="none"/>
<circle clip-path="url(#clip332)" cx="525.067" cy="411.661" r="14.4" fill="#4482b5" fill-rule="evenodd" fill-opacity="0.75" stroke="none"/>
<circle clip-path="url(#clip332)" cx="724.471" cy="391.937" r="14.4" fill="#4482b5" fill-rule="evenodd" fill-opacity="0.75" stroke="none"/>
<circle clip-path="url(#clip332)" cx="764.352" cy="399.57" r="14.4" fill="#4482b5" fill-rule="evenodd" fill-opacity="0.75" stroke="none"/>
<circle clip-path="url(#clip332)" cx="837.466" cy="389.012" r="14.4" fill="#4482b5" fill-rule="evenodd" fill-opacity="0.75" stroke="none"/>
<circle clip-path="url(#clip332)" cx="907.258" cy="397.24" r="14.4" fill="#4482b5" fill-rule="evenodd" fill-opacity="0.75" stroke="none"/>
<circle clip-path="url(#clip332)" cx="920.551" cy="395.525" r="14.4" fill="#4482b5" fill-rule="evenodd" fill-opacity="0.75" stroke="none"/>
<circle clip-path="url(#clip332)" cx="970.402" cy="231.837" r="14.4" fill="#4482b5" fill-rule="evenodd" fill-opacity="0.75" stroke="none"/>
<circle clip-path="url(#clip332)" cx="1020.25" cy="238.527" r="14.4" fill="#4482b5" fill-rule="evenodd" fill-opacity="0.75" stroke="none"/>
<circle clip-path="url(#clip332)" cx="392.131" cy="378.09" r="14.4" fill="#4482b5" fill-rule="evenodd" fill-opacity="0.75" stroke="none"/>
<circle clip-path="url(#clip332)" cx="475.216" cy="388.05" r="14.4" fill="#4482b5" fill-rule="evenodd" fill-opacity="0.75" stroke="none"/>
<circle clip-path="url(#clip332)" cx="614.799" cy="397.085" r="14.4" fill="#4482b5" fill-rule="evenodd" fill-opacity="0.75" stroke="none"/>
<circle clip-path="url(#clip332)" cx="658.003" cy="391.415" r="14.4" fill="#4482b5" fill-rule="evenodd" fill-opacity="0.75" stroke="none"/>
<circle clip-path="url(#clip332)" cx="727.794" cy="393.559" r="14.4" fill="#4482b5" fill-rule="evenodd" fill-opacity="0.75" stroke="none"/>
<circle clip-path="url(#clip332)" cx="840.79" cy="382.737" r="14.4" fill="#4482b5" fill-rule="evenodd" fill-opacity="0.75" stroke="none"/>
<circle clip-path="url(#clip332)" cx="840.79" cy="379.385" r="14.4" fill="#4482b5" fill-rule="evenodd" fill-opacity="0.75" stroke="none"/>
<circle clip-path="url(#clip332)" cx="883.994" cy="301.979" r="14.4" fill="#4482b5" fill-rule="evenodd" fill-opacity="0.75" stroke="none"/>
<circle clip-path="url(#clip332)" cx="927.198" cy="383.304" r="14.4" fill="#4482b5" fill-rule="evenodd" fill-opacity="0.75" stroke="none"/>
<circle clip-path="url(#clip332)" cx="392.131" cy="409.496" r="14.4" fill="#4482b5" fill-rule="evenodd" fill-opacity="0.75" stroke="none"/>
<circle clip-path="url(#clip332)" cx="451.953" cy="405.026" r="14.4" fill="#4482b5" fill-rule="evenodd" fill-opacity="0.75" stroke="none"/>
<circle clip-path="url(#clip332)" cx="707.854" cy="390.119" r="14.4" fill="#4482b5" fill-rule="evenodd" fill-opacity="0.75" stroke="none"/>
<circle clip-path="url(#clip332)" cx="764.352" cy="393.417" r="14.4" fill="#4482b5" fill-rule="evenodd" fill-opacity="0.75" stroke="none"/>
<circle clip-path="url(#clip332)" cx="840.79" cy="394.778" r="14.4" fill="#4482b5" fill-rule="evenodd" fill-opacity="0.75" stroke="none"/>
<circle clip-path="url(#clip332)" cx="917.228" cy="390.285" r="14.4" fill="#4482b5" fill-rule="evenodd" fill-opacity="0.75" stroke="none"/>
<circle clip-path="url(#clip332)" cx="893.964" cy="392.131" r="14.4" fill="#4482b5" fill-rule="evenodd" fill-opacity="0.75" stroke="none"/>
<circle clip-path="url(#clip332)" cx="943.815" cy="390.626" r="14.4" fill="#4482b5" fill-rule="evenodd" fill-opacity="0.75" stroke="none"/>
<circle clip-path="url(#clip332)" cx="993.666" cy="393.513" r="14.4" fill="#4482b5" fill-rule="evenodd" fill-opacity="0.75" stroke="none"/>
<circle clip-path="url(#clip332)" cx="392.131" cy="391.259" r="14.4" fill="#4482b5" fill-rule="evenodd" fill-opacity="0.75" stroke="none"/>
<circle clip-path="url(#clip332)" cx="438.659" cy="394.669" r="14.4" fill="#4482b5" fill-rule="evenodd" fill-opacity="0.75" stroke="none"/>
<circle clip-path="url(#clip332)" cx="525.067" cy="391.599" r="14.4" fill="#4482b5" fill-rule="evenodd" fill-opacity="0.75" stroke="none"/>
<circle clip-path="url(#clip332)" cx="551.654" cy="377.912" r="14.4" fill="#4482b5" fill-rule="evenodd" fill-opacity="0.75" stroke="none"/>
<circle clip-path="url(#clip332)" cx="664.65" cy="393.543" r="14.4" fill="#4482b5" fill-rule="evenodd" fill-opacity="0.75" stroke="none"/>
<circle clip-path="url(#clip332)" cx="774.322" cy="390.207" r="14.4" fill="#4482b5" fill-rule="evenodd" fill-opacity="0.75" stroke="none"/>
<circle clip-path="url(#clip332)" cx="790.939" cy="387.172" r="14.4" fill="#4482b5" fill-rule="evenodd" fill-opacity="0.75" stroke="none"/>
<circle clip-path="url(#clip332)" cx="830.819" cy="387.948" r="14.4" fill="#4482b5" fill-rule="evenodd" fill-opacity="0.75" stroke="none"/>
<circle clip-path="url(#clip332)" cx="870.7" cy="386.301" r="14.4" fill="#4482b5" fill-rule="evenodd" fill-opacity="0.75" stroke="none"/>
<circle clip-path="url(#clip332)" cx="392.131" cy="410.89" r="14.4" fill="#4482b5" fill-rule="evenodd" fill-opacity="0.75" stroke="none"/>
<circle clip-path="url(#clip332)" cx="528.391" cy="406.514" r="14.4" fill="#4482b5" fill-rule="evenodd" fill-opacity="0.75" stroke="none"/>
<circle clip-path="url(#clip332)" cx="677.943" cy="316.566" r="14.4" fill="#4482b5" fill-rule="evenodd" fill-opacity="0.75" stroke="none"/>
<circle clip-path="url(#clip332)" cx="691.237" cy="235.393" r="14.4" fill="#4482b5" fill-rule="evenodd" fill-opacity="0.75" stroke="none"/>
<circle clip-path="url(#clip332)" cx="774.322" cy="411.256" r="14.4" fill="#4482b5" fill-rule="evenodd" fill-opacity="0.75" stroke="none"/>
<circle clip-path="url(#clip332)" cx="874.024" cy="231.548" r="14.4" fill="#4482b5" fill-rule="evenodd" fill-opacity="0.75" stroke="none"/>
<circle clip-path="url(#clip332)" cx="870.7" cy="410.886" r="14.4" fill="#4482b5" fill-rule="evenodd" fill-opacity="0.75" stroke="none"/>
<circle clip-path="url(#clip332)" cx="917.228" cy="383.801" r="14.4" fill="#4482b5" fill-rule="evenodd" fill-opacity="0.75" stroke="none"/>
<circle clip-path="url(#clip332)" cx="963.755" cy="231.701" r="14.4" fill="#4482b5" fill-rule="evenodd" fill-opacity="0.75" stroke="none"/>
<circle clip-path="url(#clip332)" cx="591.535" cy="231.668" r="14.4" fill="#4482b5" fill-rule="evenodd" fill-opacity="0.75" stroke="none"/>
<circle clip-path="url(#clip332)" cx="624.769" cy="231.611" r="14.4" fill="#4482b5" fill-rule="evenodd" fill-opacity="0.75" stroke="none"/>
<circle clip-path="url(#clip332)" cx="658.003" cy="231.615" r="14.4" fill="#4482b5" fill-rule="evenodd" fill-opacity="0.75" stroke="none"/>
<circle clip-path="url(#clip332)" cx="691.237" cy="231.787" r="14.4" fill="#4482b5" fill-rule="evenodd" fill-opacity="0.75" stroke="none"/>
<circle clip-path="url(#clip332)" cx="724.471" cy="231.525" r="14.4" fill="#4482b5" fill-rule="evenodd" fill-opacity="0.75" stroke="none"/>
<circle clip-path="url(#clip332)" cx="757.705" cy="231.607" r="14.4" fill="#4482b5" fill-rule="evenodd" fill-opacity="0.75" stroke="none"/>
<circle clip-path="url(#clip332)" cx="591.535" cy="232.633" r="14.4" fill="#4482b5" fill-rule="evenodd" fill-opacity="0.75" stroke="none"/>
<circle clip-path="url(#clip332)" cx="638.063" cy="237.306" r="14.4" fill="#4482b5" fill-rule="evenodd" fill-opacity="0.75" stroke="none"/>
<circle clip-path="url(#clip332)" cx="684.59" cy="231.523" r="14.4" fill="#4482b5" fill-rule="evenodd" fill-opacity="0.75" stroke="none"/>
<circle clip-path="url(#clip332)" cx="731.118" cy="231.742" r="14.4" fill="#4482b5" fill-rule="evenodd" fill-opacity="0.75" stroke="none"/>
<circle clip-path="url(#clip332)" cx="777.645" cy="231.815" r="14.4" fill="#4482b5" fill-rule="evenodd" fill-opacity="0.75" stroke="none"/>
<circle clip-path="url(#clip332)" cx="824.173" cy="231.529" r="14.4" fill="#4482b5" fill-rule="evenodd" fill-opacity="0.75" stroke="none"/>
<circle clip-path="url(#clip332)" cx="608.152" cy="469.484" r="14.4" fill="#4482b5" fill-rule="evenodd" fill-opacity="0.75" stroke="none"/>
<circle clip-path="url(#clip332)" cx="641.386" cy="231.527" r="14.4" fill="#4482b5" fill-rule="evenodd" fill-opacity="0.75" stroke="none"/>
<circle clip-path="url(#clip332)" cx="674.62" cy="239.829" r="14.4" fill="#4482b5" fill-rule="evenodd" fill-opacity="0.75" stroke="none"/>
<circle clip-path="url(#clip332)" cx="707.854" cy="235.087" r="14.4" fill="#4482b5" fill-rule="evenodd" fill-opacity="0.75" stroke="none"/>
<circle clip-path="url(#clip332)" cx="741.088" cy="231.532" r="14.4" fill="#4482b5" fill-rule="evenodd" fill-opacity="0.75" stroke="none"/>
<circle clip-path="url(#clip332)" cx="774.322" cy="233.901" r="14.4" fill="#4482b5" fill-rule="evenodd" fill-opacity="0.75" stroke="none"/>
<circle clip-path="url(#clip332)" cx="591.535" cy="231.671" r="14.4" fill="#4482b5" fill-rule="evenodd" fill-opacity="0.75" stroke="none"/>
<circle clip-path="url(#clip332)" cx="631.416" cy="231.559" r="14.4" fill="#4482b5" fill-rule="evenodd" fill-opacity="0.75" stroke="none"/>
<circle clip-path="url(#clip332)" cx="671.297" cy="234.184" r="14.4" fill="#4482b5" fill-rule="evenodd" fill-opacity="0.75" stroke="none"/>
<circle clip-path="url(#clip332)" cx="711.177" cy="231.527" r="14.4" fill="#4482b5" fill-rule="evenodd" fill-opacity="0.75" stroke="none"/>
<circle clip-path="url(#clip332)" cx="751.058" cy="231.544" r="14.4" fill="#4482b5" fill-rule="evenodd" fill-opacity="0.75" stroke="none"/>
<circle clip-path="url(#clip332)" cx="790.939" cy="232.033" r="14.4" fill="#4482b5" fill-rule="evenodd" fill-opacity="0.75" stroke="none"/>
<circle clip-path="url(#clip332)" cx="658.003" cy="232.147" r="14.4" fill="#4482b5" fill-rule="evenodd" fill-opacity="0.75" stroke="none"/>
<circle clip-path="url(#clip332)" cx="684.59" cy="231.851" r="14.4" fill="#4482b5" fill-rule="evenodd" fill-opacity="0.75" stroke="none"/>
<circle clip-path="url(#clip332)" cx="711.177" cy="231.609" r="14.4" fill="#4482b5" fill-rule="evenodd" fill-opacity="0.75" stroke="none"/>
<circle clip-path="url(#clip332)" cx="737.764" cy="232.454" r="14.4" fill="#4482b5" fill-rule="evenodd" fill-opacity="0.75" stroke="none"/>
<circle clip-path="url(#clip332)" cx="764.352" cy="232.391" r="14.4" fill="#4482b5" fill-rule="evenodd" fill-opacity="0.75" stroke="none"/>
<circle clip-path="url(#clip332)" cx="790.939" cy="231.567" r="14.4" fill="#4482b5" fill-rule="evenodd" fill-opacity="0.75" stroke="none"/>
</svg>
