<?xml version="1.0" encoding="utf-8"?>
<svg xmlns="http://www.w3.org/2000/svg" xmlns:xlink="http://www.w3.org/1999/xlink" width="300" height="220" viewBox="0 0 1200 880">
<defs>
  <clipPath id="clip740">
    <rect x="0" y="0" width="1200" height="880"/>
  </clipPath>
</defs>
<path clip-path="url(#clip740)" d="M0 880 L1200 880 L1200 1.13687e-13 L0 1.13687e-13  Z" fill="#ffffff" fill-rule="evenodd" fill-opacity="1"/>
<defs>
  <clipPath id="clip741">
    <rect x="907" y="649" width="241" height="156"/>
  </clipPath>
</defs>
<path clip-path="url(#clip740)" d="M329.98 591.936 L1042.52 591.936 L1042.52 225.5 L329.98 225.5  Z" fill="#ffffff" fill-rule="evenodd" fill-opacity="1"/>
<defs>
  <clipPath id="clip742">
    <rect x="329" y="225" width="714" height="367"/>
  </clipPath>
</defs>
<polyline clip-path="url(#clip742)" style="stroke:#000000; stroke-linecap:round; stroke-linejoin:round; stroke-width:2; stroke-opacity:0.1; fill:none" points="450.262,591.936 450.262,225.5 "/>
<polyline clip-path="url(#clip742)" style="stroke:#000000; stroke-linecap:round; stroke-linejoin:round; stroke-width:2; stroke-opacity:0.1; fill:none" points="593.285,591.936 593.285,225.5 "/>
<polyline clip-path="url(#clip742)" style="stroke:#000000; stroke-linecap:round; stroke-linejoin:round; stroke-width:2; stroke-opacity:0.1; fill:none" points="736.308,591.936 736.308,225.5 "/>
<polyline clip-path="url(#clip742)" style="stroke:#000000; stroke-linecap:round; stroke-linejoin:round; stroke-width:2; stroke-opacity:0.1; fill:none" points="879.331,591.936 879.331,225.5 "/>
<polyline clip-path="url(#clip742)" style="stroke:#000000; stroke-linecap:round; stroke-linejoin:round; stroke-width:2; stroke-opacity:0.1; fill:none" points="1022.35,591.936 1022.35,225.5 "/>
<polyline clip-path="url(#clip742)" style="stroke:#000000; stroke-linecap:round; stroke-linejoin:round; stroke-width:2; stroke-opacity:0.1; fill:none" points="329.98,591.936 1042.52,591.936 "/>
<polyline clip-path="url(#clip742)" style="stroke:#000000; stroke-linecap:round; stroke-linejoin:round; stroke-width:2; stroke-opacity:0.1; fill:none" points="329.98,530.863 1042.52,530.863 "/>
<polyline clip-path="url(#clip742)" style="stroke:#000000; stroke-linecap:round; stroke-linejoin:round; stroke-width:2; stroke-opacity:0.1; fill:none" points="329.98,469.791 1042.52,469.791 "/>
<polyline clip-path="url(#clip742)" style="stroke:#000000; stroke-linecap:round; stroke-linejoin:round; stroke-width:2; stroke-opacity:0.1; fill:none" points="329.98,408.718 1042.52,408.718 "/>
<polyline clip-path="url(#clip742)" style="stroke:#000000; stroke-linecap:round; stroke-linejoin:round; stroke-width:2; stroke-opacity:0.1; fill:none" points="329.98,347.645 1042.52,347.645 "/>
<polyline clip-path="url(#clip742)" style="stroke:#000000; stroke-linecap:round; stroke-linejoin:round; stroke-width:2; stroke-opacity:0.1; fill:none" points="329.98,286.573 1042.52,286.573 "/>
<polyline clip-path="url(#clip742)" style="stroke:#000000; stroke-linecap:round; stroke-linejoin:round; stroke-width:2; stroke-opacity:0.1; fill:none" points="329.98,225.5 1042.52,225.5 "/>
<polyline clip-path="url(#clip740)" style="stroke:#000000; stroke-linecap:round; stroke-linejoin:round; stroke-width:4; stroke-opacity:1; fill:none" points="329.98,591.936 1042.52,591.936 "/>
<polyline clip-path="url(#clip740)" style="stroke:#000000; stroke-linecap:round; stroke-linejoin:round; stroke-width:4; stroke-opacity:1; fill:none" points="450.262,591.936 450.262,573.038 "/>
<polyline clip-path="url(#clip740)" style="stroke:#000000; stroke-linecap:round; stroke-linejoin:round; stroke-width:4; stroke-opacity:1; fill:none" points="593.285,591.936 593.285,573.038 "/>
<polyline clip-path="url(#clip740)" style="stroke:#000000; stroke-linecap:round; stroke-linejoin:round; stroke-width:4; stroke-opacity:1; fill:none" points="736.308,591.936 736.308,573.038 "/>
<polyline clip-path="url(#clip740)" style="stroke:#000000; stroke-linecap:round; stroke-linejoin:round; stroke-width:4; stroke-opacity:1; fill:none" points="879.331,591.936 879.331,573.038 "/>
<polyline clip-path="url(#clip740)" style="stroke:#000000; stroke-linecap:round; stroke-linejoin:round; stroke-width:4; stroke-opacity:1; fill:none" points="1022.35,591.936 1022.35,573.038 "/>
<path clip-path="url(#clip740)" d="M439.442 645.709 L448.036 645.709 L448.036 616.047 L438.687 617.922 L438.687 613.131 L447.984 611.256 L453.244 611.256 L453.244 645.709 L461.838 645.709 L461.838 650.136 L439.442 650.136 L439.442 645.709 Z" fill="#000000" fill-rule="nonzero" fill-opacity="1" /><path clip-path="url(#clip740)" d="M587.27 645.709 L605.629 645.709 L605.629 650.136 L580.942 650.136 L580.942 645.709 Q583.936 642.61 589.093 637.401 Q594.275 632.167 595.603 630.657 Q598.129 627.818 599.119 625.865 Q600.134 623.886 600.134 621.985 Q600.134 618.886 597.947 616.933 Q595.785 614.98 592.296 614.98 Q589.822 614.98 587.061 615.839 Q584.327 616.698 581.202 618.443 L581.202 613.131 Q584.379 611.855 587.139 611.204 Q589.9 610.553 592.191 610.553 Q598.233 610.553 601.827 613.573 Q605.421 616.594 605.421 621.646 Q605.421 624.042 604.509 626.203 Q603.624 628.339 601.254 631.256 Q600.603 632.011 597.113 635.63 Q593.624 639.224 587.27 645.709 Z" fill="#000000" fill-rule="nonzero" fill-opacity="1" /><path clip-path="url(#clip740)" d="M741.087 629.172 Q744.863 629.979 746.972 632.532 Q749.107 635.084 749.107 638.834 Q749.107 644.589 745.149 647.74 Q741.191 650.891 733.899 650.891 Q731.451 650.891 728.847 650.396 Q726.269 649.927 723.509 648.964 L723.509 643.886 Q725.696 645.162 728.3 645.813 Q730.904 646.464 733.743 646.464 Q738.691 646.464 741.269 644.511 Q743.873 642.558 743.873 638.834 Q743.873 635.396 741.451 633.469 Q739.055 631.516 734.758 631.516 L730.227 631.516 L730.227 627.193 L734.967 627.193 Q738.847 627.193 740.904 625.657 Q742.962 624.094 742.962 621.177 Q742.962 618.183 740.826 616.594 Q738.717 614.98 734.758 614.98 Q732.597 614.98 730.123 615.448 Q727.649 615.917 724.68 616.907 L724.68 612.219 Q727.675 611.386 730.279 610.969 Q732.91 610.553 735.227 610.553 Q741.217 610.553 744.706 613.287 Q748.196 615.995 748.196 620.631 Q748.196 623.86 746.347 626.099 Q744.498 628.313 741.087 629.172 Z" fill="#000000" fill-rule="nonzero" fill-opacity="1" /><path clip-path="url(#clip740)" d="M882.716 615.839 L869.435 636.594 L882.716 636.594 L882.716 615.839 M881.336 611.256 L887.95 611.256 L887.95 636.594 L893.497 636.594 L893.497 640.969 L887.95 640.969 L887.95 650.136 L882.716 650.136 L882.716 640.969 L865.164 640.969 L865.164 635.891 L881.336 611.256 Z" fill="#000000" fill-rule="nonzero" fill-opacity="1" /><path clip-path="url(#clip740)" d="M1011.42 611.256 L1032.07 611.256 L1032.07 615.683 L1016.23 615.683 L1016.23 625.214 Q1017.38 624.823 1018.53 624.641 Q1019.67 624.433 1020.82 624.433 Q1027.33 624.433 1031.13 628 Q1034.93 631.568 1034.93 637.662 Q1034.93 643.938 1031.03 647.427 Q1027.12 650.891 1020.01 650.891 Q1017.56 650.891 1015.01 650.474 Q1012.48 650.057 1009.78 649.224 L1009.78 643.938 Q1012.12 645.214 1014.62 645.839 Q1017.12 646.464 1019.91 646.464 Q1024.41 646.464 1027.04 644.094 Q1029.67 641.724 1029.67 637.662 Q1029.67 633.599 1027.04 631.229 Q1024.41 628.86 1019.91 628.86 Q1017.8 628.86 1015.69 629.328 Q1013.6 629.797 1011.42 630.787 L1011.42 611.256 Z" fill="#000000" fill-rule="nonzero" fill-opacity="1" /><path clip-path="url(#clip740)" d="M355.552 676.896 L380.378 676.896 L380.378 681.815 L361.396 681.815 L361.396 694.546 L378.526 694.546 L378.526 699.465 L361.396 699.465 L361.396 720.096 L355.552 720.096 L355.552 676.896 Z" fill="#000000" fill-rule="nonzero" fill-opacity="1" /><path clip-path="url(#clip740)" d="M399.851 691.421 Q395.569 691.421 393.08 694.777 Q390.592 698.105 390.592 703.921 Q390.592 709.737 393.051 713.093 Q395.54 716.421 399.851 716.421 Q404.105 716.421 406.593 713.064 Q409.081 709.708 409.081 703.921 Q409.081 698.163 406.593 694.806 Q404.105 691.421 399.851 691.421 M399.851 686.907 Q406.795 686.907 410.76 691.421 Q414.724 695.935 414.724 703.921 Q414.724 711.878 410.76 716.421 Q406.795 720.935 399.851 720.935 Q392.878 720.935 388.914 716.421 Q384.978 711.878 384.978 703.921 Q384.978 695.935 388.914 691.421 Q392.878 686.907 399.851 686.907 Z" fill="#000000" fill-rule="nonzero" fill-opacity="1" /><path clip-path="url(#clip740)" d="M442.328 692.665 Q441.431 692.144 440.36 691.913 Q439.318 691.652 438.045 691.652 Q433.531 691.652 431.101 694.604 Q428.699 697.526 428.699 703.024 L428.699 720.096 L423.346 720.096 L423.346 687.688 L428.699 687.688 L428.699 692.723 Q430.378 689.772 433.068 688.354 Q435.759 686.907 439.608 686.907 Q440.158 686.907 440.823 686.994 Q441.489 687.052 442.299 687.196 L442.328 692.665 Z" fill="#000000" fill-rule="nonzero" fill-opacity="1" /><path clip-path="url(#clip740)" d="M469.932 688.933 L469.932 693.909 Q467.675 692.665 465.389 692.058 Q463.132 691.421 460.817 691.421 Q455.638 691.421 452.773 694.72 Q449.909 697.989 449.909 703.921 Q449.909 709.853 452.773 713.151 Q455.638 716.421 460.817 716.421 Q463.132 716.421 465.389 715.813 Q467.675 715.177 469.932 713.932 L469.932 718.851 Q467.704 719.893 465.302 720.414 Q462.929 720.935 460.238 720.935 Q452.918 720.935 448.607 716.334 Q444.295 711.733 444.295 703.921 Q444.295 695.993 448.636 691.45 Q453.005 686.907 460.586 686.907 Q463.045 686.907 465.389 687.428 Q467.733 687.92 469.932 688.933 Z" fill="#000000" fill-rule="nonzero" fill-opacity="1" /><path clip-path="url(#clip740)" d="M479.191 687.688 L484.515 687.688 L484.515 720.096 L479.191 720.096 L479.191 687.688 M479.191 675.073 L484.515 675.073 L484.515 681.815 L479.191 681.815 L479.191 675.073 Z" fill="#000000" fill-rule="nonzero" fill-opacity="1" /><path clip-path="url(#clip740)" d="M522.593 700.536 L522.593 720.096 L517.269 720.096 L517.269 700.709 Q517.269 696.108 515.475 693.823 Q513.681 691.537 510.094 691.537 Q505.782 691.537 503.294 694.286 Q500.805 697.034 500.805 701.78 L500.805 720.096 L495.452 720.096 L495.452 687.688 L500.805 687.688 L500.805 692.723 Q502.715 689.801 505.29 688.354 Q507.894 686.907 511.28 686.907 Q516.864 686.907 519.729 690.379 Q522.593 693.823 522.593 700.536 Z" fill="#000000" fill-rule="nonzero" fill-opacity="1" /><path clip-path="url(#clip740)" d="M554.538 703.516 Q554.538 697.729 552.136 694.546 Q549.763 691.363 545.452 691.363 Q541.17 691.363 538.768 694.546 Q536.395 697.729 536.395 703.516 Q536.395 709.274 538.768 712.457 Q541.17 715.64 545.452 715.64 Q549.763 715.64 552.136 712.457 Q554.538 709.274 554.538 703.516 M559.862 716.074 Q559.862 724.349 556.187 728.371 Q552.512 732.422 544.931 732.422 Q542.125 732.422 539.636 731.988 Q537.148 731.583 534.804 730.715 L534.804 725.535 Q537.148 726.809 539.434 727.416 Q541.72 728.024 544.092 728.024 Q549.329 728.024 551.934 725.275 Q554.538 722.555 554.538 717.029 L554.538 714.395 Q552.888 717.26 550.313 718.678 Q547.738 720.096 544.15 720.096 Q538.189 720.096 534.544 715.553 Q530.898 711.01 530.898 703.516 Q530.898 695.993 534.544 691.45 Q538.189 686.907 544.15 686.907 Q547.738 686.907 550.313 688.325 Q552.888 689.743 554.538 692.607 L554.538 687.688 L559.862 687.688 L559.862 716.074 Z" fill="#000000" fill-rule="nonzero" fill-opacity="1" /><path clip-path="url(#clip740)" d="M606.071 675.073 L606.071 679.5 L600.978 679.5 Q598.114 679.5 596.985 680.657 Q595.886 681.815 595.886 684.824 L595.886 687.688 L604.653 687.688 L604.653 691.826 L595.886 691.826 L595.886 720.096 L590.533 720.096 L590.533 691.826 L585.44 691.826 L585.44 687.688 L590.533 687.688 L590.533 685.431 Q590.533 680.021 593.05 677.561 Q595.568 675.073 601.036 675.073 L606.071 675.073 Z" fill="#000000" fill-rule="nonzero" fill-opacity="1" /><path clip-path="url(#clip740)" d="M629.306 692.665 Q628.409 692.144 627.338 691.913 Q626.297 691.652 625.023 691.652 Q620.51 691.652 618.079 694.604 Q615.677 697.526 615.677 703.024 L615.677 720.096 L610.324 720.096 L610.324 687.688 L615.677 687.688 L615.677 692.723 Q617.356 689.772 620.047 688.354 Q622.738 686.907 626.586 686.907 Q627.136 686.907 627.801 686.994 Q628.467 687.052 629.277 687.196 L629.306 692.665 Z" fill="#000000" fill-rule="nonzero" fill-opacity="1" /><path clip-path="url(#clip740)" d="M661.308 702.561 L661.308 705.165 L636.829 705.165 Q637.176 710.663 640.128 713.556 Q643.108 716.421 648.403 716.421 Q651.47 716.421 654.335 715.669 Q657.228 714.916 660.064 713.412 L660.064 718.446 Q657.199 719.662 654.19 720.298 Q651.181 720.935 648.085 720.935 Q640.33 720.935 635.787 716.421 Q631.273 711.907 631.273 704.21 Q631.273 696.253 635.556 691.595 Q639.867 686.907 647.159 686.907 Q653.698 686.907 657.489 691.132 Q661.308 695.327 661.308 702.561 M655.984 700.999 Q655.926 696.629 653.524 694.025 Q651.152 691.421 647.217 691.421 Q642.761 691.421 640.07 693.938 Q637.408 696.456 637.003 701.027 L655.984 700.999 Z" fill="#000000" fill-rule="nonzero" fill-opacity="1" /><path clip-path="url(#clip740)" d="M673.229 703.921 Q673.229 709.795 675.631 713.151 Q678.061 716.479 682.286 716.479 Q686.51 716.479 688.941 713.151 Q691.372 709.795 691.372 703.921 Q691.372 698.047 688.941 694.72 Q686.51 691.363 682.286 691.363 Q678.061 691.363 675.631 694.72 Q673.229 698.047 673.229 703.921 M691.372 715.235 Q689.693 718.128 687.118 719.546 Q684.572 720.935 680.984 720.935 Q675.11 720.935 671.406 716.247 Q667.732 711.56 667.732 703.921 Q667.732 696.282 671.406 691.595 Q675.11 686.907 680.984 686.907 Q684.572 686.907 687.118 688.325 Q689.693 689.714 691.372 692.607 L691.372 687.688 L696.696 687.688 L696.696 732.422 L691.372 732.422 L691.372 715.235 Z" fill="#000000" fill-rule="nonzero" fill-opacity="1" /><path clip-path="url(#clip740)" d="M707.112 707.306 L707.112 687.688 L712.436 687.688 L712.436 707.104 Q712.436 711.704 714.23 714.019 Q716.024 716.305 719.612 716.305 Q723.923 716.305 726.412 713.556 Q728.929 710.807 728.929 706.062 L728.929 687.688 L734.253 687.688 L734.253 720.096 L728.929 720.096 L728.929 715.119 Q726.991 718.07 724.415 719.517 Q721.869 720.935 718.484 720.935 Q712.899 720.935 710.006 717.463 Q707.112 713.99 707.112 707.306 M720.509 686.907 L720.509 686.907 Z" fill="#000000" fill-rule="nonzero" fill-opacity="1" /><path clip-path="url(#clip740)" d="M772.939 702.561 L772.939 705.165 L748.46 705.165 Q748.808 710.663 751.759 713.556 Q754.739 716.421 760.034 716.421 Q763.101 716.421 765.966 715.669 Q768.86 714.916 771.695 713.412 L771.695 718.446 Q768.831 719.662 765.821 720.298 Q762.812 720.935 759.716 720.935 Q751.961 720.935 747.419 716.421 Q742.905 711.907 742.905 704.21 Q742.905 696.253 747.187 691.595 Q751.498 686.907 758.79 686.907 Q765.329 686.907 769.12 691.132 Q772.939 695.327 772.939 702.561 M767.615 700.999 Q767.557 696.629 765.156 694.025 Q762.783 691.421 758.848 691.421 Q754.392 691.421 751.701 693.938 Q749.039 696.456 748.634 701.027 L767.615 700.999 Z" fill="#000000" fill-rule="nonzero" fill-opacity="1" /><path clip-path="url(#clip740)" d="M808.616 700.536 L808.616 720.096 L803.292 720.096 L803.292 700.709 Q803.292 696.108 801.498 693.823 Q799.704 691.537 796.116 691.537 Q791.805 691.537 789.317 694.286 Q786.828 697.034 786.828 701.78 L786.828 720.096 L781.475 720.096 L781.475 687.688 L786.828 687.688 L786.828 692.723 Q788.738 689.801 791.313 688.354 Q793.917 686.907 797.303 686.907 Q802.887 686.907 805.752 690.379 Q808.616 693.823 808.616 700.536 Z" fill="#000000" fill-rule="nonzero" fill-opacity="1" /><path clip-path="url(#clip740)" d="M842.557 688.933 L842.557 693.909 Q840.3 692.665 838.014 692.058 Q835.757 691.421 833.442 691.421 Q828.263 691.421 825.399 694.72 Q822.534 697.989 822.534 703.921 Q822.534 709.853 825.399 713.151 Q828.263 716.421 833.442 716.421 Q835.757 716.421 838.014 715.813 Q840.3 715.177 842.557 713.932 L842.557 718.851 Q840.329 719.893 837.927 720.414 Q835.555 720.935 832.864 720.935 Q825.543 720.935 821.232 716.334 Q816.921 711.733 816.921 703.921 Q816.921 695.993 821.261 691.45 Q825.63 686.907 833.211 686.907 Q835.67 686.907 838.014 687.428 Q840.358 687.92 842.557 688.933 Z" fill="#000000" fill-rule="nonzero" fill-opacity="1" /><path clip-path="url(#clip740)" d="M865.3 723.105 Q863.043 728.892 860.902 730.657 Q858.761 732.422 855.173 732.422 L850.919 732.422 L850.919 727.966 L854.044 727.966 Q856.243 727.966 857.459 726.924 Q858.674 725.883 860.15 722.005 L861.104 719.575 L847.997 687.688 L853.639 687.688 L863.766 713.035 L873.894 687.688 L879.536 687.688 L865.3 723.105 Z" fill="#000000" fill-rule="nonzero" fill-opacity="1" /><path clip-path="url(#clip740)" d="M918.511 675.131 Q914.634 681.786 912.753 688.296 Q910.873 694.806 910.873 701.49 Q910.873 708.174 912.753 714.743 Q914.663 721.282 918.511 727.908 L913.882 727.908 Q909.542 721.108 907.372 714.54 Q905.23 707.972 905.23 701.49 Q905.23 695.038 907.372 688.499 Q909.513 681.959 913.882 675.131 L918.511 675.131 Z" fill="#000000" fill-rule="nonzero" fill-opacity="1" /><path clip-path="url(#clip740)" d="M929.073 676.896 L934.918 676.896 L934.918 694.604 L956.156 694.604 L956.156 676.896 L962.001 676.896 L962.001 720.096 L956.156 720.096 L956.156 699.523 L934.918 699.523 L934.918 720.096 L929.073 720.096 L929.073 676.896 Z" fill="#000000" fill-rule="nonzero" fill-opacity="1" /><path clip-path="url(#clip740)" d="M971.086 687.688 L996.376 687.688 L996.376 692.549 L976.353 715.842 L996.376 715.842 L996.376 720.096 L970.363 720.096 L970.363 715.235 L990.386 691.942 L971.086 691.942 L971.086 687.688 Z" fill="#000000" fill-rule="nonzero" fill-opacity="1" /><path clip-path="url(#clip740)" d="M1003.67 675.131 L1008.3 675.131 Q1012.64 681.959 1014.78 688.499 Q1016.95 695.038 1016.95 701.49 Q1016.95 707.972 1014.78 714.54 Q1012.64 721.108 1008.3 727.908 L1003.67 727.908 Q1007.52 721.282 1009.4 714.743 Q1011.31 708.174 1011.31 701.49 Q1011.31 694.806 1009.4 688.296 Q1007.52 681.786 1003.67 675.131 Z" fill="#000000" fill-rule="nonzero" fill-opacity="1" /><polyline clip-path="url(#clip740)" style="stroke:#000000; stroke-linecap:round; stroke-linejoin:round; stroke-width:4; stroke-opacity:1; fill:none" points="329.98,591.936 329.98,225.5 "/>
<polyline clip-path="url(#clip740)" style="stroke:#000000; stroke-linecap:round; stroke-linejoin:round; stroke-width:4; stroke-opacity:1; fill:none" points="329.98,591.936 348.878,591.936 "/>
<polyline clip-path="url(#clip740)" style="stroke:#000000; stroke-linecap:round; stroke-linejoin:round; stroke-width:4; stroke-opacity:1; fill:none" points="329.98,530.863 348.878,530.863 "/>
<polyline clip-path="url(#clip740)" style="stroke:#000000; stroke-linecap:round; stroke-linejoin:round; stroke-width:4; stroke-opacity:1; fill:none" points="329.98,469.791 348.878,469.791 "/>
<polyline clip-path="url(#clip740)" style="stroke:#000000; stroke-linecap:round; stroke-linejoin:round; stroke-width:4; stroke-opacity:1; fill:none" points="329.98,408.718 348.878,408.718 "/>
<polyline clip-path="url(#clip740)" style="stroke:#000000; stroke-linecap:round; stroke-linejoin:round; stroke-width:4; stroke-opacity:1; fill:none" points="329.98,347.645 348.878,347.645 "/>
<polyline clip-path="url(#clip740)" style="stroke:#000000; stroke-linecap:round; stroke-linejoin:round; stroke-width:4; stroke-opacity:1; fill:none" points="329.98,286.573 348.878,286.573 "/>
<polyline clip-path="url(#clip740)" style="stroke:#000000; stroke-linecap:round; stroke-linejoin:round; stroke-width:4; stroke-opacity:1; fill:none" points="329.98,225.5 348.878,225.5 "/>
<path clip-path="url(#clip740)" d="M233.473 614.202 L242.067 614.202 L242.067 584.541 L232.718 586.416 L232.718 581.624 L242.015 579.749 L247.275 579.749 L247.275 614.202 L255.869 614.202 L255.869 618.629 L233.473 618.629 L233.473 614.202 Z" fill="#000000" fill-rule="nonzero" fill-opacity="1" /><path clip-path="url(#clip740)" d="M277.744 583.213 Q273.681 583.213 271.624 587.223 Q269.593 591.207 269.593 599.228 Q269.593 607.223 271.624 611.233 Q273.681 615.218 277.744 615.218 Q281.832 615.218 283.864 611.233 Q285.921 607.223 285.921 599.228 Q285.921 591.207 283.864 587.223 Q281.832 583.213 277.744 583.213 M277.744 579.046 Q284.28 579.046 287.718 584.228 Q291.181 589.385 291.181 599.228 Q291.181 609.046 287.718 614.228 Q284.28 619.384 277.744 619.384 Q271.207 619.384 267.744 614.228 Q264.306 609.046 264.306 599.228 Q264.306 589.385 267.744 584.228 Q271.207 579.046 277.744 579.046 Z" fill="#000000" fill-rule="nonzero" fill-opacity="1" /><path clip-path="url(#clip740)" d="M305.463 570.76 Q308.531 571.416 310.245 573.489 Q311.98 575.563 311.98 578.61 Q311.98 583.286 308.764 585.846 Q305.548 588.406 299.624 588.406 Q297.635 588.406 295.519 588.004 Q293.424 587.623 291.181 586.84 L291.181 582.714 Q292.959 583.751 295.074 584.28 Q297.19 584.809 299.497 584.809 Q303.517 584.809 305.612 583.222 Q307.727 581.635 307.727 578.61 Q307.727 575.817 305.76 574.251 Q303.813 572.664 300.322 572.664 L296.64 572.664 L296.64 569.152 L300.491 569.152 Q303.644 569.152 305.315 567.903 Q306.987 566.634 306.987 564.264 Q306.987 561.831 305.252 560.54 Q303.538 559.228 300.322 559.228 Q298.566 559.228 296.556 559.609 Q294.546 559.99 292.133 560.794 L292.133 556.985 Q294.567 556.308 296.683 555.97 Q298.82 555.631 300.703 555.631 Q305.569 555.631 308.404 557.853 Q311.24 560.053 311.24 563.82 Q311.24 566.443 309.737 568.263 Q308.235 570.061 305.463 570.76 Z" fill="#000000" fill-rule="nonzero" fill-opacity="1" /><path clip-path="url(#clip740)" d="M231.252 553.13 L239.845 553.13 L239.845 523.468 L230.496 525.343 L230.496 520.552 L239.793 518.677 L245.054 518.677 L245.054 553.13 L253.647 553.13 L253.647 557.557 L231.252 557.557 L231.252 553.13 Z" fill="#000000" fill-rule="nonzero" fill-opacity="1" /><path clip-path="url(#clip740)" d="M275.522 522.14 Q271.46 522.14 269.402 526.151 Q267.371 530.135 267.371 538.156 Q267.371 546.15 269.402 550.161 Q271.46 554.145 275.522 554.145 Q279.611 554.145 281.642 550.161 Q283.699 546.15 283.699 538.156 Q283.699 530.135 281.642 526.151 Q279.611 522.14 275.522 522.14 M275.522 517.974 Q282.059 517.974 285.496 523.156 Q288.96 528.312 288.96 538.156 Q288.96 547.973 285.496 553.156 Q282.059 558.312 275.522 558.312 Q268.986 558.312 265.522 553.156 Q262.085 547.973 262.085 538.156 Q262.085 528.312 265.522 523.156 Q268.986 517.974 275.522 517.974 Z" fill="#000000" fill-rule="nonzero" fill-opacity="1" /><path clip-path="url(#clip740)" d="M303.221 498.854 L292.43 515.717 L303.221 515.717 L303.221 498.854 M302.099 495.13 L307.474 495.13 L307.474 515.717 L311.98 515.717 L311.98 519.272 L307.474 519.272 L307.474 526.72 L303.221 526.72 L303.221 519.272 L288.96 519.272 L288.96 515.146 L302.099 495.13 Z" fill="#000000" fill-rule="nonzero" fill-opacity="1" /><path clip-path="url(#clip740)" d="M233.833 492.057 L242.427 492.057 L242.427 462.396 L233.078 464.271 L233.078 459.479 L242.375 457.604 L247.635 457.604 L247.635 492.057 L256.229 492.057 L256.229 496.484 L233.833 496.484 L233.833 492.057 Z" fill="#000000" fill-rule="nonzero" fill-opacity="1" /><path clip-path="url(#clip740)" d="M278.104 461.068 Q274.041 461.068 271.984 465.078 Q269.953 469.062 269.953 477.083 Q269.953 485.078 271.984 489.088 Q274.041 493.073 278.104 493.073 Q282.192 493.073 284.223 489.088 Q286.281 485.078 286.281 477.083 Q286.281 469.062 284.223 465.078 Q282.192 461.068 278.104 461.068 M278.104 456.901 Q284.64 456.901 288.077 462.083 Q291.541 467.239 291.541 477.083 Q291.541 486.901 288.077 492.083 Q284.64 497.239 278.104 497.239 Q271.567 497.239 268.104 492.083 Q264.666 486.901 264.666 477.083 Q264.666 467.239 268.104 462.083 Q271.567 456.901 278.104 456.901 Z" fill="#000000" fill-rule="nonzero" fill-opacity="1" /><path clip-path="url(#clip740)" d="M292.874 434.057 L309.653 434.057 L309.653 437.654 L296.788 437.654 L296.788 445.398 Q297.719 445.081 298.65 444.933 Q299.581 444.764 300.512 444.764 Q305.802 444.764 308.891 447.662 Q311.98 450.561 311.98 455.512 Q311.98 460.612 308.807 463.447 Q305.633 466.261 299.856 466.261 Q297.867 466.261 295.794 465.922 Q293.741 465.584 291.541 464.907 L291.541 460.612 Q293.445 461.648 295.476 462.156 Q297.508 462.664 299.772 462.664 Q303.432 462.664 305.569 460.739 Q307.706 458.813 307.706 455.512 Q307.706 452.212 305.569 450.286 Q303.432 448.361 299.772 448.361 Q298.058 448.361 296.344 448.742 Q294.651 449.122 292.874 449.926 L292.874 434.057 Z" fill="#000000" fill-rule="nonzero" fill-opacity="1" /><path clip-path="url(#clip740)" d="M232.458 430.984 L241.051 430.984 L241.051 401.323 L231.702 403.198 L231.702 398.407 L240.999 396.532 L246.26 396.532 L246.26 430.984 L254.853 430.984 L254.853 435.412 L232.458 435.412 L232.458 430.984 Z" fill="#000000" fill-rule="nonzero" fill-opacity="1" /><path clip-path="url(#clip740)" d="M276.728 399.995 Q272.666 399.995 270.608 404.005 Q268.577 407.99 268.577 416.011 Q268.577 424.005 270.608 428.016 Q272.666 432 276.728 432 Q280.817 432 282.848 428.016 Q284.905 424.005 284.905 416.011 Q284.905 407.99 282.848 404.005 Q280.817 399.995 276.728 399.995 M276.728 395.828 Q283.265 395.828 286.702 401.011 Q290.166 406.167 290.166 416.011 Q290.166 425.828 286.702 431.011 Q283.265 436.167 276.728 436.167 Q270.192 436.167 266.728 431.011 Q263.291 425.828 263.291 416.011 Q263.291 406.167 266.728 401.011 Q270.192 395.828 276.728 395.828 Z" fill="#000000" fill-rule="nonzero" fill-opacity="1" /><path clip-path="url(#clip740)" d="M301.443 387.077 Q298.566 387.077 296.873 389.044 Q295.201 391.012 295.201 394.44 Q295.201 397.846 296.873 399.835 Q298.566 401.803 301.443 401.803 Q304.321 401.803 305.992 399.835 Q307.685 397.846 307.685 394.44 Q307.685 391.012 305.992 389.044 Q304.321 387.077 301.443 387.077 M309.928 373.683 L309.928 377.576 Q308.32 376.815 306.669 376.413 Q305.04 376.011 303.432 376.011 Q299.2 376.011 296.958 378.867 Q294.736 381.723 294.419 387.5 Q295.667 385.659 297.55 384.686 Q299.433 383.691 301.697 383.691 Q306.458 383.691 309.209 386.59 Q311.98 389.467 311.98 394.44 Q311.98 399.306 309.103 402.247 Q306.225 405.188 301.443 405.188 Q295.963 405.188 293.064 400.999 Q290.166 396.788 290.166 388.812 Q290.166 381.321 293.72 376.878 Q297.275 372.414 303.263 372.414 Q304.871 372.414 306.5 372.731 Q308.151 373.048 309.928 373.683 Z" fill="#000000" fill-rule="nonzero" fill-opacity="1" /><path clip-path="url(#clip740)" d="M233.96 369.912 L242.554 369.912 L242.554 340.251 L233.205 342.126 L233.205 337.334 L242.502 335.459 L247.762 335.459 L247.762 369.912 L256.356 369.912 L256.356 374.339 L233.96 374.339 L233.96 369.912 Z" fill="#000000" fill-rule="nonzero" fill-opacity="1" /><path clip-path="url(#clip740)" d="M278.23 338.923 Q274.168 338.923 272.111 342.933 Q270.079 346.917 270.079 354.938 Q270.079 362.933 272.111 366.943 Q274.168 370.928 278.23 370.928 Q282.319 370.928 284.35 366.943 Q286.408 362.933 286.408 354.938 Q286.408 346.917 284.35 342.933 Q282.319 338.923 278.23 338.923 M278.23 334.756 Q284.767 334.756 288.204 339.938 Q291.668 345.094 291.668 354.938 Q291.668 364.756 288.204 369.938 Q284.767 375.094 278.23 375.094 Q271.694 375.094 268.231 369.938 Q264.793 364.756 264.793 354.938 Q264.793 345.094 268.231 339.938 Q271.694 334.756 278.23 334.756 Z" fill="#000000" fill-rule="nonzero" fill-opacity="1" /><path clip-path="url(#clip740)" d="M291.668 311.912 L311.98 311.912 L311.98 313.732 L300.512 343.502 L296.048 343.502 L306.839 315.509 L291.668 315.509 L291.668 311.912 Z" fill="#000000" fill-rule="nonzero" fill-opacity="1" /><path clip-path="url(#clip740)" d="M232.606 308.839 L241.199 308.839 L241.199 279.178 L231.851 281.053 L231.851 276.261 L241.147 274.386 L246.408 274.386 L246.408 308.839 L255.001 308.839 L255.001 313.266 L232.606 313.266 L232.606 308.839 Z" fill="#000000" fill-rule="nonzero" fill-opacity="1" /><path clip-path="url(#clip740)" d="M276.876 277.85 Q272.814 277.85 270.757 281.86 Q268.725 285.845 268.725 293.866 Q268.725 301.86 270.757 305.871 Q272.814 309.855 276.876 309.855 Q280.965 309.855 282.996 305.871 Q285.053 301.86 285.053 293.866 Q285.053 285.845 282.996 281.86 Q280.965 277.85 276.876 277.85 M276.876 273.683 Q283.413 273.683 286.85 278.866 Q290.314 284.022 290.314 293.866 Q290.314 303.683 286.85 308.865 Q283.413 314.022 276.876 314.022 Q270.34 314.022 266.876 308.865 Q263.439 303.683 263.439 293.866 Q263.439 284.022 266.876 278.866 Q270.34 273.683 276.876 273.683 Z" fill="#000000" fill-rule="nonzero" fill-opacity="1" /><path clip-path="url(#clip740)" d="M301.147 267.428 Q298.1 267.428 296.344 269.057 Q294.609 270.687 294.609 273.543 Q294.609 276.4 296.344 278.029 Q298.1 279.658 301.147 279.658 Q304.194 279.658 305.95 278.029 Q307.706 276.378 307.706 273.543 Q307.706 270.687 305.95 269.057 Q304.215 267.428 301.147 267.428 M296.873 265.609 Q294.122 264.931 292.578 263.048 Q291.054 261.165 291.054 258.457 Q291.054 254.669 293.741 252.469 Q296.45 250.268 301.147 250.268 Q305.865 250.268 308.553 252.469 Q311.24 254.669 311.24 258.457 Q311.24 261.165 309.695 263.048 Q308.172 264.931 305.442 265.609 Q308.531 266.328 310.245 268.423 Q311.98 270.517 311.98 273.543 Q311.98 278.135 309.166 280.589 Q306.373 283.043 301.147 283.043 Q295.921 283.043 293.107 280.589 Q290.314 278.135 290.314 273.543 Q290.314 270.517 292.049 268.423 Q293.784 266.328 296.873 265.609 M295.307 258.859 Q295.307 261.313 296.831 262.689 Q298.375 264.064 301.147 264.064 Q303.898 264.064 305.442 262.689 Q307.008 261.313 307.008 258.859 Q307.008 256.404 305.442 255.029 Q303.898 253.654 301.147 253.654 Q298.375 253.654 296.831 255.029 Q295.307 256.404 295.307 258.859 Z" fill="#000000" fill-rule="nonzero" fill-opacity="1" /><path clip-path="url(#clip740)" d="M232.479 247.767 L241.072 247.767 L241.072 218.106 L231.724 219.981 L231.724 215.189 L241.02 213.314 L246.281 213.314 L246.281 247.767 L254.875 247.767 L254.875 252.194 L232.479 252.194 L232.479 247.767 Z" fill="#000000" fill-rule="nonzero" fill-opacity="1" /><path clip-path="url(#clip740)" d="M276.749 216.777 Q272.687 216.777 270.63 220.788 Q268.598 224.772 268.598 232.793 Q268.598 240.788 270.63 244.798 Q272.687 248.782 276.749 248.782 Q280.838 248.782 282.869 244.798 Q284.926 240.788 284.926 232.793 Q284.926 224.772 282.869 220.788 Q280.838 216.777 276.749 216.777 M276.749 212.611 Q283.286 212.611 286.723 217.793 Q290.187 222.949 290.187 232.793 Q290.187 242.611 286.723 247.793 Q283.286 252.949 276.749 252.949 Q270.213 252.949 266.749 247.793 Q263.312 242.611 263.312 232.793 Q263.312 222.949 266.749 217.793 Q270.213 212.611 276.749 212.611 Z" fill="#000000" fill-rule="nonzero" fill-opacity="1" /><path clip-path="url(#clip740)" d="M292.218 220.701 L292.218 216.808 Q293.826 217.57 295.476 217.972 Q297.127 218.374 298.714 218.374 Q302.946 218.374 305.167 215.539 Q307.41 212.682 307.727 206.885 Q306.5 208.704 304.617 209.678 Q302.734 210.651 300.449 210.651 Q295.709 210.651 292.937 207.794 Q290.187 204.917 290.187 199.945 Q290.187 195.078 293.064 192.137 Q295.942 189.196 300.724 189.196 Q306.204 189.196 309.082 193.406 Q311.98 197.596 311.98 205.594 Q311.98 213.063 308.426 217.527 Q304.892 221.971 298.904 221.971 Q297.296 221.971 295.646 221.653 Q293.995 221.336 292.218 220.701 M300.724 207.308 Q303.601 207.308 305.273 205.34 Q306.966 203.372 306.966 199.945 Q306.966 196.538 305.273 194.57 Q303.601 192.581 300.724 192.581 Q297.846 192.581 296.154 194.57 Q294.482 196.538 294.482 199.945 Q294.482 203.372 296.154 205.34 Q297.846 207.308 300.724 207.308 Z" fill="#000000" fill-rule="nonzero" fill-opacity="1" /><path clip-path="url(#clip740)" d="M179.282 601.642 Q179.918 599.762 182.002 597.996 Q184.085 596.203 187.731 594.409 L199.536 588.477 L199.536 594.756 L188.454 600.282 Q184.114 602.424 182.696 604.449 Q181.278 606.446 181.278 609.918 L181.278 616.283 L199.536 616.283 L199.536 622.128 L156.336 622.128 L156.336 608.934 Q156.336 601.527 159.432 597.881 Q162.528 594.235 168.778 594.235 Q172.858 594.235 175.549 596.145 Q178.24 598.025 179.282 601.642 M161.14 616.283 L176.475 616.283 L176.475 608.934 Q176.475 604.709 174.537 602.568 Q172.569 600.398 168.778 600.398 Q164.988 600.398 163.078 602.568 Q161.14 604.709 161.14 608.934 L161.14 616.283 Z" fill="#000000" fill-rule="nonzero" fill-opacity="1" /><path clip-path="url(#clip740)" d="M182.002 556.127 L184.606 556.127 L184.606 580.607 Q190.104 580.259 192.997 577.308 Q195.862 574.328 195.862 569.033 Q195.862 565.965 195.109 563.101 Q194.357 560.207 192.852 557.372 L197.887 557.372 Q199.102 560.236 199.739 563.246 Q200.375 566.255 200.375 569.351 Q200.375 577.105 195.862 581.648 Q191.348 586.162 183.651 586.162 Q175.694 586.162 171.035 581.88 Q166.348 577.568 166.348 570.277 Q166.348 563.737 170.572 559.947 Q174.768 556.127 182.002 556.127 M180.439 561.452 Q176.07 561.509 173.466 563.911 Q170.862 566.284 170.862 570.219 Q170.862 574.675 173.379 577.366 Q175.896 580.028 180.468 580.433 L180.439 561.452 Z" fill="#000000" fill-rule="nonzero" fill-opacity="1" /><path clip-path="url(#clip740)" d="M168.084 526.73 L173.119 526.73 Q171.961 528.986 171.383 531.417 Q170.804 533.848 170.804 536.452 Q170.804 540.416 172.019 542.412 Q173.234 544.38 175.665 544.38 Q177.517 544.38 178.587 542.962 Q179.629 541.544 180.584 537.262 L180.989 535.439 Q182.204 529.768 184.432 527.395 Q186.631 524.993 190.595 524.993 Q195.109 524.993 197.742 528.581 Q200.375 532.14 200.375 538.39 Q200.375 540.994 199.855 543.83 Q199.363 546.637 198.35 549.762 L192.852 549.762 Q194.386 546.81 195.167 543.946 Q195.919 541.081 195.919 538.275 Q195.919 534.513 194.646 532.488 Q193.344 530.462 191.001 530.462 Q188.83 530.462 187.673 531.938 Q186.516 533.385 185.445 538.332 L185.011 540.184 Q183.969 545.132 181.828 547.331 Q179.658 549.53 175.896 549.53 Q171.325 549.53 168.836 546.29 Q166.348 543.049 166.348 537.088 Q166.348 534.137 166.782 531.533 Q167.216 528.929 168.084 526.73 Z" fill="#000000" fill-rule="nonzero" fill-opacity="1" /><path clip-path="url(#clip740)" d="M170.862 503.958 Q170.862 508.24 174.218 510.728 Q177.546 513.217 183.362 513.217 Q189.178 513.217 192.534 510.757 Q195.862 508.269 195.862 503.958 Q195.862 499.704 192.505 497.216 Q189.149 494.727 183.362 494.727 Q177.604 494.727 174.247 497.216 Q170.862 499.704 170.862 503.958 M166.348 503.958 Q166.348 497.013 170.862 493.049 Q175.376 489.085 183.362 489.085 Q191.319 489.085 195.862 493.049 Q200.375 497.013 200.375 503.958 Q200.375 510.931 195.862 514.895 Q191.319 518.83 183.362 518.83 Q175.376 518.83 170.862 514.895 Q166.348 510.931 166.348 503.958 Z" fill="#000000" fill-rule="nonzero" fill-opacity="1" /><path clip-path="url(#clip740)" d="M154.513 480.26 L154.513 474.936 L199.536 474.936 L199.536 480.26 L154.513 480.26 Z" fill="#000000" fill-rule="nonzero" fill-opacity="1" /><path clip-path="url(#clip740)" d="M167.129 467.615 L167.129 461.973 L194.328 451.846 L167.129 441.718 L167.129 436.076 L199.536 448.229 L199.536 455.463 L167.129 467.615 Z" fill="#000000" fill-rule="nonzero" fill-opacity="1" /><path clip-path="url(#clip740)" d="M182.002 401.007 L184.606 401.007 L184.606 425.486 Q190.104 425.139 192.997 422.187 Q195.862 419.207 195.862 413.912 Q195.862 410.845 195.109 407.98 Q194.357 405.087 192.852 402.251 L197.887 402.251 Q199.102 405.116 199.739 408.125 Q200.375 411.134 200.375 414.23 Q200.375 421.985 195.862 426.527 Q191.348 431.041 183.651 431.041 Q175.694 431.041 171.035 426.759 Q166.348 422.448 166.348 415.156 Q166.348 408.617 170.572 404.826 Q174.768 401.007 182.002 401.007 M180.439 406.331 Q176.07 406.389 173.466 408.79 Q170.862 411.163 170.862 415.098 Q170.862 419.554 173.379 422.245 Q175.896 424.907 180.468 425.312 L180.439 406.331 Z" fill="#000000" fill-rule="nonzero" fill-opacity="1" /><path clip-path="url(#clip740)" d="M179.976 365.33 L199.536 365.33 L199.536 370.654 L180.15 370.654 Q175.549 370.654 173.263 372.448 Q170.978 374.242 170.978 377.83 Q170.978 382.141 173.726 384.63 Q176.475 387.118 181.221 387.118 L199.536 387.118 L199.536 392.471 L167.129 392.471 L167.129 387.118 L172.164 387.118 Q169.241 385.208 167.795 382.633 Q166.348 380.029 166.348 376.644 Q166.348 371.059 169.82 368.194 Q173.263 365.33 179.976 365.33 Z" fill="#000000" fill-rule="nonzero" fill-opacity="1" /><path clip-path="url(#clip740)" d="M157.928 349.445 L167.129 349.445 L167.129 338.478 L171.267 338.478 L171.267 349.445 L188.859 349.445 Q192.823 349.445 193.952 348.374 Q195.08 347.274 195.08 343.947 L195.08 338.478 L199.536 338.478 L199.536 343.947 Q199.536 350.11 197.251 352.454 Q194.936 354.798 188.859 354.798 L171.267 354.798 L171.267 358.704 L167.129 358.704 L167.129 354.798 L157.928 354.798 L157.928 349.445 Z" fill="#000000" fill-rule="nonzero" fill-opacity="1" /><path clip-path="url(#clip740)" d="M182.957 291.314 Q177.17 291.314 173.987 293.716 Q170.804 296.088 170.804 300.4 Q170.804 304.682 173.987 307.084 Q177.17 309.456 182.957 309.456 Q188.715 309.456 191.898 307.084 Q195.08 304.682 195.08 300.4 Q195.08 296.088 191.898 293.716 Q188.715 291.314 182.957 291.314 M195.514 285.99 Q203.79 285.99 207.812 289.665 Q211.863 293.34 211.863 300.921 Q211.863 303.727 211.429 306.216 Q211.024 308.704 210.156 311.048 L204.976 311.048 Q206.249 308.704 206.857 306.418 Q207.465 304.132 207.465 301.76 Q207.465 296.522 204.716 293.918 Q201.996 291.314 196.469 291.314 L193.836 291.314 Q196.701 292.963 198.119 295.539 Q199.536 298.114 199.536 301.702 Q199.536 307.662 194.994 311.308 Q190.451 314.954 182.957 314.954 Q175.433 314.954 170.891 311.308 Q166.348 307.662 166.348 301.702 Q166.348 298.114 167.766 295.539 Q169.184 292.963 172.048 291.314 L167.129 291.314 L167.129 285.99 L195.514 285.99 Z" fill="#000000" fill-rule="nonzero" fill-opacity="1" /><path clip-path="url(#clip740)" d="M183.246 260.296 Q183.246 266.748 184.722 269.237 Q186.197 271.725 189.756 271.725 Q192.592 271.725 194.27 269.873 Q195.919 267.992 195.919 264.781 Q195.919 260.354 192.795 257.692 Q189.641 255.001 184.432 255.001 L183.246 255.001 L183.246 260.296 M181.047 249.677 L199.536 249.677 L199.536 255.001 L194.617 255.001 Q197.569 256.824 198.987 259.543 Q200.375 262.263 200.375 266.198 Q200.375 271.175 197.598 274.127 Q194.791 277.049 190.104 277.049 Q184.635 277.049 181.857 273.403 Q179.079 269.729 179.079 262.466 L179.079 255.001 L178.558 255.001 Q174.884 255.001 172.887 257.431 Q170.862 259.833 170.862 264.202 Q170.862 266.98 171.527 269.613 Q172.193 272.246 173.524 274.676 L168.605 274.676 Q167.476 271.754 166.927 269.005 Q166.348 266.256 166.348 263.652 Q166.348 256.621 169.994 253.149 Q173.64 249.677 181.047 249.677 Z" fill="#000000" fill-rule="nonzero" fill-opacity="1" /><path clip-path="url(#clip740)" d="M167.129 238.71 L167.129 233.386 L199.536 233.386 L199.536 238.71 L167.129 238.71 M154.513 238.71 L154.513 233.386 L161.255 233.386 L161.255 238.71 L154.513 238.71 Z" fill="#000000" fill-rule="nonzero" fill-opacity="1" /><path clip-path="url(#clip740)" d="M179.976 195.308 L199.536 195.308 L199.536 200.632 L180.15 200.632 Q175.549 200.632 173.263 202.426 Q170.978 204.22 170.978 207.808 Q170.978 212.119 173.726 214.607 Q176.475 217.096 181.221 217.096 L199.536 217.096 L199.536 222.449 L167.129 222.449 L167.129 217.096 L172.164 217.096 Q169.241 215.186 167.795 212.611 Q166.348 210.007 166.348 206.621 Q166.348 201.037 169.82 198.172 Q173.263 195.308 179.976 195.308 Z" fill="#000000" fill-rule="nonzero" fill-opacity="1" /><path clip-path="url(#clip740)" d="M-31.1492 7.56246 Q-35.4142 14.883 -37.4831 22.0444 Q-39.552 29.2059 -39.552 36.5583 Q-39.552 43.9106 -37.4831 51.1357 Q-35.3824 58.329 -31.1492 65.6177 L-36.2418 65.6177 Q-41.0161 58.138 -43.4032 50.9129 Q-45.7585 43.6878 -45.7585 36.5583 Q-45.7585 29.4605 -43.4032 22.2672 Q-41.0479 15.074 -36.2418 7.56246 L-31.1492 7.56246 Z" fill="#000000" fill-rule="nonzero" fill-opacity="1" /><path clip-path="url(#clip740)" d="M-13.1024 34.3303 L-13.1024 51.7405 L-2.79 51.7405 Q2.39805 51.7405 4.88068 49.608 Q7.39513 47.4436 7.39513 43.0194 Q7.39513 38.5635 4.88068 36.4628 Q2.39805 34.3303 -2.79 34.3303 L-13.1024 34.3303 M-13.1024 14.7875 L-13.1024 29.1104 L-3.58571 29.1104 Q1.12491 29.1104 3.41656 27.3598 Q5.74005 25.5774 5.74005 21.949 Q5.74005 18.3523 3.41656 16.5699 Q1.12491 14.7875 -3.58571 14.7875 L-13.1024 14.7875 M-19.5318 9.504 L-3.10828 9.504 Q4.24411 9.504 8.22267 12.5595 Q12.2012 15.6151 12.2012 21.2487 Q12.2012 25.6092 10.1642 28.1873 Q8.12719 30.7655 4.18045 31.402 Q8.9229 32.4205 11.5328 35.6671 Q14.1746 38.8817 14.1746 43.7197 Q14.1746 50.0854 9.84593 53.5547 Q5.51725 57.024 -2.47171 57.024 L-19.5318 57.024 L-19.5318 9.504 Z" fill="#000000" fill-rule="nonzero" fill-opacity="1" /><path clip-path="url(#clip740)" d="M24.0096 7.56246 L29.1022 7.56246 Q33.8765 15.074 36.2318 22.2672 Q38.6189 29.4605 38.6189 36.5583 Q38.6189 43.6878 36.2318 50.9129 Q33.8765 58.138 29.1022 65.6177 L24.0096 65.6177 Q28.2428 58.329 30.3117 51.1357 Q32.4124 43.9106 32.4124 36.5583 Q32.4124 29.2059 30.3117 22.0444 Q28.2428 14.883 24.0096 7.56246 Z" fill="#000000" fill-rule="nonzero" fill-opacity="1" /><path clip-path="url(#clip740)" d="M107.941 15.8379 L99.2204 39.4865 L116.694 39.4865 L107.941 15.8379 M104.313 9.504 L111.602 9.504 L129.712 57.024 L123.028 57.024 L118.7 44.8337 L97.2789 44.8337 L92.9502 57.024 L86.1708 57.024 L104.313 9.504 Z" fill="#000000" fill-rule="nonzero" fill-opacity="1" /><path clip-path="url(#clip740)" d="M143.08 34.3303 L143.08 51.7405 L153.393 51.7405 Q158.581 51.7405 161.063 49.608 Q163.578 47.4436 163.578 43.0194 Q163.578 38.5635 161.063 36.4628 Q158.581 34.3303 153.393 34.3303 L143.08 34.3303 M143.08 14.7875 L143.08 29.1104 L152.597 29.1104 Q157.308 29.1104 159.599 27.3598 Q161.923 25.5774 161.923 21.949 Q161.923 18.3523 159.599 16.5699 Q157.308 14.7875 152.597 14.7875 L143.08 14.7875 M136.651 9.504 L153.074 9.504 Q160.427 9.504 164.405 12.5595 Q168.384 15.6151 168.384 21.2487 Q168.384 25.6092 166.347 28.1873 Q164.31 30.7655 160.363 31.402 Q165.106 32.4205 167.715 35.6671 Q170.357 38.8817 170.357 43.7197 Q170.357 50.0854 166.029 53.5547 Q161.7 57.024 153.711 57.024 L136.651 57.024 L136.651 9.504 Z" fill="#000000" fill-rule="nonzero" fill-opacity="1" /><path clip-path="url(#clip740)" d="M219.882 7.4988 L219.882 12.3686 L214.281 12.3686 Q211.13 12.3686 209.888 13.6417 Q208.679 14.9149 208.679 18.225 L208.679 21.376 L218.323 21.376 L218.323 25.9275 L208.679 25.9275 L208.679 57.024 L202.79 57.024 L202.79 25.9275 L197.189 25.9275 L197.189 21.376 L202.79 21.376 L202.79 18.8934 Q202.79 12.9415 205.56 10.2361 Q208.329 7.4988 214.344 7.4988 L219.882 7.4988 Z" fill="#000000" fill-rule="nonzero" fill-opacity="1" /><path clip-path="url(#clip740)" d="M245.441 26.8506 Q244.454 26.2776 243.276 26.023 Q242.131 25.7366 240.73 25.7366 Q235.765 25.7366 233.091 28.9831 Q230.449 32.1977 230.449 38.2452 L230.449 57.024 L224.561 57.024 L224.561 21.376 L230.449 21.376 L230.449 26.9142 Q232.296 23.6677 235.256 22.1081 Q238.216 20.5167 242.449 20.5167 Q243.054 20.5167 243.786 20.6122 Q244.518 20.6758 245.409 20.835 L245.441 26.8506 Z" fill="#000000" fill-rule="nonzero" fill-opacity="1" /><path clip-path="url(#clip740)" d="M280.643 37.7359 L280.643 40.6005 L253.716 40.6005 Q254.098 46.6479 257.345 49.8308 Q260.623 52.9818 266.448 52.9818 Q269.821 52.9818 272.972 52.1542 Q276.155 51.3267 279.274 49.6716 L279.274 55.2098 Q276.123 56.5466 272.813 57.2468 Q269.503 57.947 266.097 57.947 Q257.567 57.947 252.57 52.9818 Q247.605 48.0165 247.605 39.5501 Q247.605 30.7973 252.316 25.6729 Q257.058 20.5167 265.079 20.5167 Q272.272 20.5167 276.442 25.1636 Q280.643 29.7788 280.643 37.7359 M274.787 36.0172 Q274.723 31.2111 272.081 28.3465 Q269.471 25.4819 265.143 25.4819 Q260.241 25.4819 257.281 28.251 Q254.353 31.0201 253.907 36.049 L274.787 36.0172 Z" fill="#000000" fill-rule="nonzero" fill-opacity="1" /><path clip-path="url(#clip740)" d="M293.756 39.2318 Q293.756 45.693 296.398 49.3852 Q299.072 53.0454 303.719 53.0454 Q308.366 53.0454 311.039 49.3852 Q313.713 45.693 313.713 39.2318 Q313.713 32.7707 311.039 29.1104 Q308.366 25.4183 303.719 25.4183 Q299.072 25.4183 296.398 29.1104 Q293.756 32.7707 293.756 39.2318 M313.713 51.6768 Q311.867 54.8597 309.034 56.4193 Q306.233 57.947 302.286 57.947 Q295.825 57.947 291.751 52.7908 Q287.709 47.6346 287.709 39.2318 Q287.709 30.8291 291.751 25.6729 Q295.825 20.5167 302.286 20.5167 Q306.233 20.5167 309.034 22.0763 Q311.867 23.604 313.713 26.7869 L313.713 21.376 L319.569 21.376 L319.569 70.583 L313.713 70.583 L313.713 51.6768 Z" fill="#000000" fill-rule="nonzero" fill-opacity="1" /><path clip-path="url(#clip740)" d="M331.028 42.9558 L331.028 21.376 L336.884 21.376 L336.884 42.733 Q336.884 47.7937 338.857 50.34 Q340.831 52.8545 344.778 52.8545 Q349.52 52.8545 352.257 49.8308 Q355.026 46.807 355.026 41.5872 L355.026 21.376 L360.883 21.376 L360.883 57.024 L355.026 57.024 L355.026 51.5495 Q352.894 54.796 350.061 56.3874 Q347.26 57.947 343.536 57.947 Q337.393 57.947 334.211 54.1276 Q331.028 50.3082 331.028 42.9558 M345.764 20.5167 L345.764 20.5167 Z" fill="#000000" fill-rule="nonzero" fill-opacity="1" /><path clip-path="url(#clip740)" d="M403.438 37.7359 L403.438 40.6005 L376.511 40.6005 Q376.893 46.6479 380.139 49.8308 Q383.417 52.9818 389.242 52.9818 Q392.616 52.9818 395.767 52.1542 Q398.95 51.3267 402.069 49.6716 L402.069 55.2098 Q398.918 56.5466 395.608 57.2468 Q392.298 57.947 388.892 57.947 Q380.362 57.947 375.365 52.9818 Q370.4 48.0165 370.4 39.5501 Q370.4 30.7973 375.11 25.6729 Q379.853 20.5167 387.873 20.5167 Q395.067 20.5167 399.236 25.1636 Q403.438 29.7788 403.438 37.7359 M397.581 36.0172 Q397.517 31.2111 394.876 28.3465 Q392.266 25.4819 387.937 25.4819 Q383.035 25.4819 380.075 28.251 Q377.147 31.0201 376.702 36.049 L397.581 36.0172 Z" fill="#000000" fill-rule="nonzero" fill-opacity="1" /><path clip-path="url(#clip740)" d="M442.682 35.5079 L442.682 57.024 L436.826 57.024 L436.826 35.6989 Q436.826 30.6381 434.852 28.1237 Q432.879 25.6092 428.932 25.6092 Q424.19 25.6092 421.453 28.6329 Q418.715 31.6567 418.715 36.8765 L418.715 57.024 L412.827 57.024 L412.827 21.376 L418.715 21.376 L418.715 26.9142 Q420.816 23.6995 423.649 22.1081 Q426.513 20.5167 430.237 20.5167 Q436.38 20.5167 439.531 24.3361 Q442.682 28.1237 442.682 35.5079 Z" fill="#000000" fill-rule="nonzero" fill-opacity="1" /><path clip-path="url(#clip740)" d="M480.017 22.7447 L480.017 28.2192 Q477.534 26.8506 475.02 26.1822 Q472.537 25.4819 469.991 25.4819 Q464.294 25.4819 461.143 29.1104 Q457.992 32.707 457.992 39.2318 Q457.992 45.7567 461.143 49.3852 Q464.294 52.9818 469.991 52.9818 Q472.537 52.9818 475.02 52.3134 Q477.534 51.6131 480.017 50.2445 L480.017 55.6554 Q477.566 56.8012 474.924 57.3741 Q472.315 57.947 469.354 57.947 Q461.302 57.947 456.559 52.8863 Q451.817 47.8256 451.817 39.2318 Q451.817 30.5108 456.591 25.5138 Q461.397 20.5167 469.736 20.5167 Q472.442 20.5167 475.02 21.0896 Q477.598 21.6307 480.017 22.7447 Z" fill="#000000" fill-rule="nonzero" fill-opacity="1" /><path clip-path="url(#clip740)" d="M505.034 60.3342 Q502.552 66.6999 500.196 68.6414 Q497.841 70.583 493.894 70.583 L489.215 70.583 L489.215 65.6814 L492.653 65.6814 Q495.072 65.6814 496.409 64.5355 Q497.746 63.3897 499.369 59.1247 L500.419 56.4511 L486.001 21.376 L492.207 21.376 L503.347 49.2578 L514.487 21.376 L520.694 21.376 L505.034 60.3342 Z" fill="#000000" fill-rule="nonzero" fill-opacity="1" /><path clip-path="url(#clip740)" d="M524.672 36.5583 L541.828 36.5583 L541.828 41.7781 L524.672 41.7781 L524.672 36.5583 Z" fill="#000000" fill-rule="nonzero" fill-opacity="1" /><path clip-path="url(#clip740)" d="M571.811 26.8506 Q570.824 26.2776 569.646 26.023 Q568.5 25.7366 567.1 25.7366 Q562.135 25.7366 559.461 28.9831 Q556.819 32.1977 556.819 38.2452 L556.819 57.024 L550.931 57.024 L550.931 21.376 L556.819 21.376 L556.819 26.9142 Q558.665 23.6677 561.625 22.1081 Q564.585 20.5167 568.819 20.5167 Q569.423 20.5167 570.155 20.6122 Q570.887 20.6758 571.779 20.835 L571.811 26.8506 Z" fill="#000000" fill-rule="nonzero" fill-opacity="1" /><path clip-path="url(#clip740)" d="M607.013 37.7359 L607.013 40.6005 L580.086 40.6005 Q580.468 46.6479 583.714 49.8308 Q586.993 52.9818 592.817 52.9818 Q596.191 52.9818 599.342 52.1542 Q602.525 51.3267 605.644 49.6716 L605.644 55.2098 Q602.493 56.5466 599.183 57.2468 Q595.873 57.947 592.467 57.947 Q583.937 57.947 578.94 52.9818 Q573.975 48.0165 573.975 39.5501 Q573.975 30.7973 578.685 25.6729 Q583.428 20.5167 591.449 20.5167 Q598.642 20.5167 602.812 25.1636 Q607.013 29.7788 607.013 37.7359 M601.156 36.0172 Q601.093 31.2111 598.451 28.3465 Q595.841 25.4819 591.512 25.4819 Q586.611 25.4819 583.651 28.251 Q580.722 31.0201 580.277 36.049 L601.156 36.0172 Z" fill="#000000" fill-rule="nonzero" fill-opacity="1" /><path clip-path="url(#clip740)" d="M639.351 22.4264 L639.351 27.9645 Q636.868 26.6914 634.194 26.0548 Q631.521 25.4183 628.656 25.4183 Q624.296 25.4183 622.1 26.7551 Q619.935 28.0919 619.935 30.7655 Q619.935 32.8025 621.495 33.9801 Q623.054 35.126 627.765 36.1763 L629.77 36.6219 Q636.009 37.9587 638.619 40.4095 Q641.26 42.8285 641.26 47.189 Q641.26 52.1542 637.314 55.0506 Q633.399 57.947 626.524 57.947 Q623.659 57.947 620.54 57.3741 Q617.453 56.833 614.015 55.719 L614.015 49.6716 Q617.262 51.3585 620.413 52.2179 Q623.564 53.0454 626.651 53.0454 Q630.789 53.0454 633.017 51.645 Q635.245 50.2127 635.245 47.6346 Q635.245 45.2474 633.622 43.9743 Q632.03 42.7012 626.587 41.5235 L624.55 41.0461 Q619.108 39.9002 616.689 37.5449 Q614.27 35.1578 614.27 31.0201 Q614.27 25.9912 617.835 23.2539 Q621.399 20.5167 627.956 20.5167 Q631.203 20.5167 634.067 20.9941 Q636.932 21.4715 639.351 22.4264 Z" fill="#000000" fill-rule="nonzero" fill-opacity="1" /><path clip-path="url(#clip740)" d="M664.4 25.4819 Q659.689 25.4819 656.952 29.174 Q654.215 32.8343 654.215 39.2318 Q654.215 45.6294 656.92 49.3215 Q659.657 52.9818 664.4 52.9818 Q669.079 52.9818 671.816 49.2897 Q674.553 45.5976 674.553 39.2318 Q674.553 32.898 671.816 29.2059 Q669.079 25.4819 664.4 25.4819 M664.4 20.5167 Q672.039 20.5167 676.399 25.4819 Q680.76 30.4472 680.76 39.2318 Q680.76 47.9847 676.399 52.9818 Q672.039 57.947 664.4 57.947 Q656.729 57.947 652.369 52.9818 Q648.04 47.9847 648.04 39.2318 Q648.04 30.4472 652.369 25.4819 Q656.729 20.5167 664.4 20.5167 Z" fill="#000000" fill-rule="nonzero" fill-opacity="1" /><path clip-path="url(#clip740)" d="M690.467 7.4988 L696.324 7.4988 L696.324 57.024 L690.467 57.024 L690.467 7.4988 Z" fill="#000000" fill-rule="nonzero" fill-opacity="1" /><path clip-path="url(#clip740)" d="M704.376 21.376 L710.583 21.376 L721.723 51.2949 L732.863 21.376 L739.069 21.376 L725.701 57.024 L717.744 57.024 L704.376 21.376 Z" fill="#000000" fill-rule="nonzero" fill-opacity="1" /><path clip-path="url(#clip740)" d="M777.646 37.7359 L777.646 40.6005 L750.719 40.6005 Q751.101 46.6479 754.347 49.8308 Q757.625 52.9818 763.45 52.9818 Q766.824 52.9818 769.975 52.1542 Q773.158 51.3267 776.277 49.6716 L776.277 55.2098 Q773.126 56.5466 769.816 57.2468 Q766.506 57.947 763.1 57.947 Q754.57 57.947 749.573 52.9818 Q744.608 48.0165 744.608 39.5501 Q744.608 30.7973 749.318 25.6729 Q754.061 20.5167 762.081 20.5167 Q769.275 20.5167 773.444 25.1636 Q777.646 29.7788 777.646 37.7359 M771.789 36.0172 Q771.726 31.2111 769.084 28.3465 Q766.474 25.4819 762.145 25.4819 Q757.244 25.4819 754.283 28.251 Q751.355 31.0201 750.91 36.049 L771.789 36.0172 Z" fill="#000000" fill-rule="nonzero" fill-opacity="1" /><path clip-path="url(#clip740)" d="M810.715 26.7869 L810.715 7.4988 L816.572 7.4988 L816.572 57.024 L810.715 57.024 L810.715 51.6768 Q808.869 54.8597 806.037 56.4193 Q803.236 57.947 799.289 57.947 Q792.828 57.947 788.754 52.7908 Q784.712 47.6346 784.712 39.2318 Q784.712 30.8291 788.754 25.6729 Q792.828 20.5167 799.289 20.5167 Q803.236 20.5167 806.037 22.0763 Q808.869 23.604 810.715 26.7869 M790.759 39.2318 Q790.759 45.693 793.401 49.3852 Q796.074 53.0454 800.721 53.0454 Q805.368 53.0454 808.042 49.3852 Q810.715 45.693 810.715 39.2318 Q810.715 32.7707 808.042 29.1104 Q805.368 25.4183 800.721 25.4183 Q796.074 25.4183 793.401 29.1104 Q790.759 32.7707 790.759 39.2318 Z" fill="#000000" fill-rule="nonzero" fill-opacity="1" /><path clip-path="url(#clip740)" d="M872.813 38.7863 Q872.813 32.4205 870.171 28.9194 Q867.561 25.4183 862.819 25.4183 Q858.108 25.4183 855.466 28.9194 Q852.856 32.4205 852.856 38.7863 Q852.856 45.1201 855.466 48.6213 Q858.108 52.1224 862.819 52.1224 Q867.561 52.1224 870.171 48.6213 Q872.813 45.1201 872.813 38.7863 M878.669 52.5998 Q878.669 61.7028 874.627 66.127 Q870.585 70.583 862.246 70.583 Q859.159 70.583 856.421 70.1055 Q853.684 69.6599 851.106 68.7051 L851.106 63.0078 Q853.684 64.4082 856.198 65.0766 Q858.713 65.745 861.323 65.745 Q867.084 65.745 869.948 62.7213 Q872.813 59.7294 872.813 53.6502 L872.813 50.7538 Q870.999 53.9048 868.166 55.4644 Q865.333 57.024 861.387 57.024 Q854.83 57.024 850.819 52.0269 Q846.809 47.0298 846.809 38.7863 Q846.809 30.5108 850.819 25.5138 Q854.83 20.5167 861.387 20.5167 Q865.333 20.5167 868.166 22.0763 Q870.999 23.6359 872.813 26.7869 L872.813 21.376 L878.669 21.376 L878.669 52.5998 Z" fill="#000000" fill-rule="nonzero" fill-opacity="1" /><path clip-path="url(#clip740)" d="M906.933 39.1045 Q899.835 39.1045 897.098 40.7278 Q894.361 42.351 894.361 46.266 Q894.361 49.3852 896.398 51.2312 Q898.467 53.0454 902 53.0454 Q906.869 53.0454 909.798 49.608 Q912.758 46.1386 912.758 40.4095 L912.758 39.1045 L906.933 39.1045 M918.614 36.6856 L918.614 57.024 L912.758 57.024 L912.758 51.6131 Q910.753 54.8597 907.761 56.4193 Q904.769 57.947 900.44 57.947 Q894.966 57.947 891.719 54.8915 Q888.504 51.8041 888.504 46.6479 Q888.504 40.6323 892.515 37.5768 Q896.557 34.5212 904.546 34.5212 L912.758 34.5212 L912.758 33.9483 Q912.758 29.9061 910.084 27.7099 Q907.442 25.4819 902.636 25.4819 Q899.581 25.4819 896.684 26.214 Q893.788 26.946 891.114 28.4101 L891.114 22.9993 Q894.329 21.758 897.353 21.1532 Q900.376 20.5167 903.241 20.5167 Q910.975 20.5167 914.795 24.5271 Q918.614 28.5375 918.614 36.6856 Z" fill="#000000" fill-rule="nonzero" fill-opacity="1" /><path clip-path="url(#clip740)" d="M930.677 21.376 L936.534 21.376 L936.534 57.024 L930.677 57.024 L930.677 21.376 M930.677 7.4988 L936.534 7.4988 L936.534 14.9149 L930.677 14.9149 L930.677 7.4988 Z" fill="#000000" fill-rule="nonzero" fill-opacity="1" /><path clip-path="url(#clip740)" d="M978.42 35.5079 L978.42 57.024 L972.564 57.024 L972.564 35.6989 Q972.564 30.6381 970.59 28.1237 Q968.617 25.6092 964.67 25.6092 Q959.928 25.6092 957.19 28.6329 Q954.453 31.6567 954.453 36.8765 L954.453 57.024 L948.565 57.024 L948.565 21.376 L954.453 21.376 L954.453 26.9142 Q956.554 23.6995 959.387 22.1081 Q962.251 20.5167 965.975 20.5167 Q972.118 20.5167 975.269 24.3361 Q978.42 28.1237 978.42 35.5079 Z" fill="#000000" fill-rule="nonzero" fill-opacity="1" /><path clip-path="url(#clip740)" d="M1036.41 39.2318 Q1036.41 32.7707 1033.74 29.1104 Q1031.1 25.4183 1026.45 25.4183 Q1021.8 25.4183 1019.13 29.1104 Q1016.49 32.7707 1016.49 39.2318 Q1016.49 45.693 1019.13 49.3852 Q1021.8 53.0454 1026.45 53.0454 Q1031.1 53.0454 1033.74 49.3852 Q1036.41 45.693 1036.41 39.2318 M1016.49 26.7869 Q1018.33 23.604 1021.13 22.0763 Q1023.97 20.5167 1027.88 20.5167 Q1034.37 20.5167 1038.42 25.6729 Q1042.49 30.8291 1042.49 39.2318 Q1042.49 47.6346 1038.42 52.7908 Q1034.37 57.947 1027.88 57.947 Q1023.97 57.947 1021.13 56.4193 Q1018.33 54.8597 1016.49 51.6768 L1016.49 57.024 L1010.6 57.024 L1010.6 7.4988 L1016.49 7.4988 L1016.49 26.7869 Z" fill="#000000" fill-rule="nonzero" fill-opacity="1" /><path clip-path="url(#clip740)" d="M1067.03 60.3342 Q1064.55 66.6999 1062.19 68.6414 Q1059.84 70.583 1055.89 70.583 L1051.21 70.583 L1051.21 65.6814 L1054.65 65.6814 Q1057.07 65.6814 1058.41 64.5355 Q1059.74 63.3897 1061.37 59.1247 L1062.42 56.4511 L1048 21.376 L1054.2 21.376 L1065.34 49.2578 L1076.48 21.376 L1082.69 21.376 L1067.03 60.3342 Z" fill="#000000" fill-rule="nonzero" fill-opacity="1" /><path clip-path="url(#clip740)" d="M1134.22 22.4264 L1134.22 27.9645 Q1131.74 26.6914 1129.06 26.0548 Q1126.39 25.4183 1123.53 25.4183 Q1119.17 25.4183 1116.97 26.7551 Q1114.81 28.0919 1114.81 30.7655 Q1114.81 32.8025 1116.36 33.9801 Q1117.92 35.126 1122.64 36.1763 L1124.64 36.6219 Q1130.88 37.9587 1133.49 40.4095 Q1136.13 42.8285 1136.13 47.189 Q1136.13 52.1542 1132.18 55.0506 Q1128.27 57.947 1121.39 57.947 Q1118.53 57.947 1115.41 57.3741 Q1112.32 56.833 1108.89 55.719 L1108.89 49.6716 Q1112.13 51.3585 1115.28 52.2179 Q1118.43 53.0454 1121.52 53.0454 Q1125.66 53.0454 1127.89 51.645 Q1130.11 50.2127 1130.11 47.6346 Q1130.11 45.2474 1128.49 43.9743 Q1126.9 42.7012 1121.46 41.5235 L1119.42 41.0461 Q1113.98 39.9002 1111.56 37.5449 Q1109.14 35.1578 1109.14 31.0201 Q1109.14 25.9912 1112.7 23.2539 Q1116.27 20.5167 1122.83 20.5167 Q1126.07 20.5167 1128.94 20.9941 Q1131.8 21.4715 1134.22 22.4264 Z" fill="#000000" fill-rule="nonzero" fill-opacity="1" /><path clip-path="url(#clip740)" d="M1151.12 51.6768 L1151.12 70.583 L1145.23 70.583 L1145.23 21.376 L1151.12 21.376 L1151.12 26.7869 Q1152.97 23.604 1155.77 22.0763 Q1158.6 20.5167 1162.52 20.5167 Q1169.01 20.5167 1173.05 25.6729 Q1177.13 30.8291 1177.13 39.2318 Q1177.13 47.6346 1173.05 52.7908 Q1169.01 57.947 1162.52 57.947 Q1158.6 57.947 1155.77 56.4193 Q1152.97 54.8597 1151.12 51.6768 M1171.05 39.2318 Q1171.05 32.7707 1168.37 29.1104 Q1165.73 25.4183 1161.08 25.4183 Q1156.44 25.4183 1153.76 29.1104 Q1151.12 32.7707 1151.12 39.2318 Q1151.12 45.693 1153.76 49.3852 Q1156.44 53.0454 1161.08 53.0454 Q1165.73 53.0454 1168.37 49.3852 Q1171.05 45.693 1171.05 39.2318 Z" fill="#000000" fill-rule="nonzero" fill-opacity="1" /><path clip-path="url(#clip740)" d="M1217.32 37.7359 L1217.32 40.6005 L1190.4 40.6005 Q1190.78 46.6479 1194.03 49.8308 Q1197.3 52.9818 1203.13 52.9818 Q1206.5 52.9818 1209.65 52.1542 Q1212.84 51.3267 1215.96 49.6716 L1215.96 55.2098 Q1212.81 56.5466 1209.5 57.2468 Q1206.19 57.947 1202.78 57.947 Q1194.25 57.947 1189.25 52.9818 Q1184.29 48.0165 1184.29 39.5501 Q1184.29 30.7973 1189 25.6729 Q1193.74 20.5167 1201.76 20.5167 Q1208.95 20.5167 1213.12 25.1636 Q1217.32 29.7788 1217.32 37.7359 M1211.47 36.0172 Q1211.4 31.2111 1208.76 28.3465 Q1206.15 25.4819 1201.82 25.4819 Q1196.92 25.4819 1193.96 28.251 Q1191.03 31.0201 1190.59 36.049 L1211.47 36.0172 Z" fill="#000000" fill-rule="nonzero" fill-opacity="1" /><path clip-path="url(#clip740)" d="M1257.43 37.7359 L1257.43 40.6005 L1230.5 40.6005 Q1230.88 46.6479 1234.13 49.8308 Q1237.41 52.9818 1243.23 52.9818 Q1246.61 52.9818 1249.76 52.1542 Q1252.94 51.3267 1256.06 49.6716 L1256.06 55.2098 Q1252.91 56.5466 1249.6 57.2468 Q1246.29 57.947 1242.88 57.947 Q1234.35 57.947 1229.36 52.9818 Q1224.39 48.0165 1224.39 39.5501 Q1224.39 30.7973 1229.1 25.6729 Q1233.84 20.5167 1241.86 20.5167 Q1249.06 20.5167 1253.23 25.1636 Q1257.43 29.7788 1257.43 37.7359 M1251.57 36.0172 Q1251.51 31.2111 1248.87 28.3465 Q1246.26 25.4819 1241.93 25.4819 Q1237.03 25.4819 1234.07 28.251 Q1231.14 31.0201 1230.69 36.049 L1251.57 36.0172 Z" fill="#000000" fill-rule="nonzero" fill-opacity="1" /><path clip-path="url(#clip740)" d="M1290.5 26.7869 L1290.5 7.4988 L1296.36 7.4988 L1296.36 57.024 L1290.5 57.024 L1290.5 51.6768 Q1288.65 54.8597 1285.82 56.4193 Q1283.02 57.947 1279.07 57.947 Q1272.61 57.947 1268.54 52.7908 Q1264.49 47.6346 1264.49 39.2318 Q1264.49 30.8291 1268.54 25.6729 Q1272.61 20.5167 1279.07 20.5167 Q1283.02 20.5167 1285.82 22.0763 Q1288.65 23.604 1290.5 26.7869 M1270.54 39.2318 Q1270.54 45.693 1273.18 49.3852 Q1275.86 53.0454 1280.5 53.0454 Q1285.15 53.0454 1287.83 49.3852 Q1290.5 45.693 1290.5 39.2318 Q1290.5 32.7707 1287.83 29.1104 Q1285.15 25.4183 1280.5 25.4183 Q1275.86 25.4183 1273.18 29.1104 Q1270.54 32.7707 1270.54 39.2318 Z" fill="#000000" fill-rule="nonzero" fill-opacity="1" /><path clip-path="url(#clip740)" d="M1354.73 39.2318 Q1354.73 32.7707 1352.06 29.1104 Q1349.41 25.4183 1344.77 25.4183 Q1340.12 25.4183 1337.45 29.1104 Q1334.8 32.7707 1334.8 39.2318 Q1334.8 45.693 1337.45 49.3852 Q1340.12 53.0454 1344.77 53.0454 Q1349.41 53.0454 1352.06 49.3852 Q1354.73 45.693 1354.73 39.2318 M1334.8 26.7869 Q1336.65 23.604 1339.45 22.0763 Q1342.28 20.5167 1346.2 20.5167 Q1352.69 20.5167 1356.73 25.6729 Q1360.81 30.8291 1360.81 39.2318 Q1360.81 47.6346 1356.73 52.7908 Q1352.69 57.947 1346.2 57.947 Q1342.28 57.947 1339.45 56.4193 Q1336.65 54.8597 1334.8 51.6768 L1334.8 57.024 L1328.92 57.024 L1328.92 7.4988 L1334.8 7.4988 L1334.8 26.7869 Z" fill="#000000" fill-rule="nonzero" fill-opacity="1" /><path clip-path="url(#clip740)" d="M1370.52 21.376 L1376.37 21.376 L1376.37 57.024 L1370.52 57.024 L1370.52 21.376 M1370.52 7.4988 L1376.37 7.4988 L1376.37 14.9149 L1370.52 14.9149 L1370.52 7.4988 Z" fill="#000000" fill-rule="nonzero" fill-opacity="1" /><path clip-path="url(#clip740)" d="M1418.26 35.5079 L1418.26 57.024 L1412.4 57.024 L1412.4 35.6989 Q1412.4 30.6381 1410.43 28.1237 Q1408.46 25.6092 1404.51 25.6092 Q1399.77 25.6092 1397.03 28.6329 Q1394.29 31.6567 1394.29 36.8765 L1394.29 57.024 L1388.4 57.024 L1388.4 21.376 L1394.29 21.376 L1394.29 26.9142 Q1396.39 23.6995 1399.23 22.1081 Q1402.09 20.5167 1405.81 20.5167 Q1411.96 20.5167 1415.11 24.3361 Q1418.26 28.1237 1418.26 35.5079 Z" fill="#000000" fill-rule="nonzero" fill-opacity="1" /><path clip-path="url(#clip742)" d="M350.147 394.17 L364.449 373.578 L378.751 371.01 L393.053 381.134 L407.356 395.404 L421.658 394.488 L435.96 382.567 L450.262 384.475 L464.565 392.657 L478.867 397.065 L493.169 396.641 L507.472 394.583 L521.774 399.94 L536.076 403.846 L550.378 408.622 L564.681 417.317 L578.983 426.487 L593.285 431.631 L607.587 435.34 L621.89 436.699 L636.192 437.519 L650.494 438.104 L664.797 437.578 L679.099 439.473 L693.401 443.286 L707.703 450.539 L722.006 458.638 L736.308 460.257 L750.61 460.162 L764.913 462.744 L779.215 463.614 L793.517 462.827 L807.819 461.338 L822.122 461.341 L836.424 462.181 L850.726 463.509 L865.028 466.738 L879.331 468.824 L893.633 469.13 L907.935 469.53 L922.238 470.588 L936.54 471.467 L950.842 475.325 L965.144 478.168 L979.447 481.182 L993.749 483.164 L1008.05 485.9 L1022.35 487.066 L1022.35 527.864 L1008.05 526.77 L993.749 525.641 L979.447 524.47 L965.144 523.251 L950.842 521.978 L936.54 520.647 L922.238 519.255 L907.935 517.799 L893.633 516.324 L879.331 514.904 L865.028 513.362 L850.726 511.462 L836.424 508.576 L822.122 505.815 L807.819 503.464 L793.517 501.487 L779.215 499.796 L764.913 498.757 L750.61 497.905 L736.308 495.454 L722.006 492.748 L707.703 489.563 L693.401 485.976 L679.099 482.344 L664.797 478.814 L650.494 475.431 L636.192 467.847 L621.89 463.045 L607.587 460.294 L593.285 457.149 L578.983 449.838 L564.681 442.716 L550.378 438.791 L536.076 430.157 L521.774 435.066 L507.472 438.617 L493.169 440.482 L478.867 436.008 L464.565 423.65 L450.262 419.788 L435.96 429.913 L421.658 436.902 L407.356 424.607 L393.053 407.754 L378.751 395.096 L364.449 429.845 L350.147 443.281  Z" fill="#0000ff" fill-rule="evenodd" fill-opacity="0.14"/>
<polyline clip-path="url(#clip742)" style="stroke:#009af9; stroke-linecap:round; stroke-linejoin:round; stroke-width:0; stroke-opacity:1; fill:none" points="350.147,394.17 364.449,373.578 378.751,371.01 393.053,381.134 407.356,395.404 421.658,394.488 435.96,382.567 450.262,384.475 464.565,392.657 478.867,397.065 493.169,396.641 507.472,394.583 521.774,399.94 536.076,403.846 550.378,408.622 564.681,417.317 578.983,426.487 593.285,431.631 607.587,435.34 621.89,436.699 636.192,437.519 650.494,438.104 664.797,437.578 679.099,439.473 693.401,443.286 707.703,450.539 722.006,458.638 736.308,460.257 750.61,460.162 764.913,462.744 779.215,463.614 793.517,462.827 807.819,461.338 822.122,461.341 836.424,462.181 850.726,463.509 865.028,466.738 879.331,468.824 893.633,469.13 907.935,469.53 922.238,470.588 936.54,471.467 950.842,475.325 965.144,478.168 979.447,481.182 993.749,483.164 1008.05,485.9 1022.35,487.066 "/>
<polyline clip-path="url(#clip742)" style="stroke:#0000ff; stroke-linecap:round; stroke-linejoin:round; stroke-width:12; stroke-opacity:1; fill:none" points="350.147,405.934 364.449,396.049 378.751,381.926 393.053,399.612 407.356,404.344 421.658,406.617 435.96,397.978 450.262,396.071 464.565,398.274 478.867,406.345 493.169,406.962 507.472,407.31 521.774,411.968 536.076,414.147 550.378,416.516 564.681,429.068 578.983,433.365 593.285,439.255 607.587,443.15 621.89,445.358 636.192,448.049 650.494,449.042 664.797,448.923 679.099,449.949 693.401,452.964 707.703,457.591 722.006,462.943 736.308,467.835 750.61,472.26 764.913,475.505 779.215,477.639 793.517,478.062 807.819,477.851 822.122,476.895 836.424,475.944 850.726,474.143 865.028,472.146 879.331,471.046 893.633,473.52 907.935,473.93 922.238,475.714 936.54,477.943 950.842,481.331 965.144,484.533 979.447,487.495 993.749,490.813 1008.05,493.411 1022.35,494.798 "/>
<path clip-path="url(#clip742)" d="M350.147 403.609 L364.449 401.265 L378.751 395.064 L393.053 357.456 L407.356 387.698 L421.658 402.391 L435.96 400.614 L450.262 399.311 L464.565 387.297 L478.867 379.81 L493.169 383.823 L507.472 401.727 L521.774 409.963 L536.076 400.263 L550.378 386.026 L564.681 405.515 L578.983 406.614 L593.285 409.806 L607.587 417.538 L621.89 423.882 L636.192 426.896 L650.494 433.797 L664.797 436.084 L679.099 438.418 L693.401 432.781 L707.703 428.582 L722.006 434.002 L736.308 430.486 L750.61 437.421 L764.913 439.807 L779.215 436.816 L793.517 438.634 L807.819 439.945 L822.122 437.09 L836.424 440.461 L850.726 443.015 L865.028 447.177 L879.331 453.709 L893.633 458.633 L907.935 456.262 L922.238 458.43 L936.54 456.603 L950.842 461.972 L965.144 464.252 L979.447 467.289 L993.749 468.292 L1008.05 472.525 L1022.35 475.865 L1022.35 482.423 L1008.05 482.402 L993.749 482.095 L979.447 481.447 L965.144 479.972 L950.842 477.359 L936.54 476.65 L922.238 475.533 L907.935 472.424 L893.633 471.73 L879.331 469.835 L865.028 472.316 L850.726 476.947 L836.424 479.759 L822.122 480.847 L807.819 480.533 L793.517 478.913 L779.215 475.943 L764.913 471.488 L750.61 465.243 L736.308 461.703 L722.006 459.271 L707.703 455.93 L693.401 453.26 L679.099 453.249 L664.797 448.22 L650.494 441.622 L636.192 440.255 L621.89 433.376 L607.587 439.913 L593.285 434.684 L578.983 426.126 L564.681 422.048 L550.378 421.939 L536.076 428.687 L521.774 423.066 L507.472 417.287 L493.169 413.434 L478.867 390.368 L464.565 405.258 L450.262 415.387 L435.96 426.143 L421.658 429.513 L407.356 415.904 L393.053 396.449 L378.751 407.813 L364.449 421.599 L350.147 424.569  Z" fill="#3f00bf" fill-rule="evenodd" fill-opacity="0.14"/>
<polyline clip-path="url(#clip742)" style="stroke:#3da44d; stroke-linecap:round; stroke-linejoin:round; stroke-width:0; stroke-opacity:1; fill:none" points="350.147,403.609 364.449,401.265 378.751,395.064 393.053,357.456 407.356,387.698 421.658,402.391 435.96,400.614 450.262,399.311 464.565,387.297 478.867,379.81 493.169,383.823 507.472,401.727 521.774,409.963 536.076,400.263 550.378,386.026 564.681,405.515 578.983,406.614 593.285,409.806 607.587,417.538 621.89,423.882 636.192,426.896 650.494,433.797 664.797,436.084 679.099,438.418 693.401,432.781 707.703,428.582 722.006,434.002 736.308,430.486 750.61,437.421 764.913,439.807 779.215,436.816 793.517,438.634 807.819,439.945 822.122,437.09 836.424,440.461 850.726,443.015 865.028,447.177 879.331,453.709 893.633,458.633 907.935,456.262 922.238,458.43 936.54,456.603 950.842,461.972 965.144,464.252 979.447,467.289 993.749,468.292 1008.05,472.525 1022.35,475.865 "/>
<polyline clip-path="url(#clip742)" style="stroke:#3f00bf; stroke-linecap:round; stroke-linejoin:round; stroke-width:12; stroke-opacity:1; fill:none" points="350.147,415.775 364.449,415.758 378.751,400.231 393.053,387.15 407.356,390.096 421.658,408.037 435.96,415.756 450.262,404.166 464.565,389.829 478.867,388.048 493.169,393.235 507.472,408.694 521.774,414.49 536.076,406.552 550.378,409.601 564.681,411.367 578.983,425.046 593.285,418.14 607.587,421.461 621.89,428.688 636.192,433.539 650.494,437.742 664.797,441.389 679.099,444.621 693.401,450.865 707.703,440.909 722.006,444.085 736.308,454.146 750.61,453.383 764.913,454.45 779.215,451.322 793.517,446.506 807.819,443.058 822.122,443.134 836.424,447.198 850.726,454.831 865.028,459.744 879.331,461.757 893.633,463.991 907.935,466.111 922.238,463.532 936.54,469.903 950.842,476.159 965.144,475.007 979.447,471.38 993.749,473.752 1008.05,475.271 1022.35,477 "/>
<path clip-path="url(#clip742)" d="M350.147 421.711 L364.449 423.362 L378.751 424.172 L393.053 412.719 L407.356 377.488 L421.658 379.834 L435.96 404.598 L450.262 414.598 L464.565 422.246 L478.867 425.206 L493.169 415.136 L507.472 405.539 L521.774 410.276 L536.076 395.838 L550.378 408.527 L564.681 427.433 L578.983 434.657 L593.285 427.025 L607.587 413.119 L621.89 420.137 L636.192 415.701 L650.494 414.463 L664.797 431.579 L679.099 439.705 L693.401 434.64 L707.703 436.686 L722.006 440.552 L736.308 437.887 L750.61 436.854 L764.913 434.602 L779.215 431.379 L793.517 433.466 L807.819 436.838 L822.122 444.812 L836.424 447.676 L850.726 447.806 L865.028 444.948 L879.331 444.372 L893.633 447.592 L907.935 453.799 L922.238 456.578 L936.54 456.44 L950.842 457.745 L965.144 467.429 L979.447 469.616 L993.749 468.707 L1008.05 466.889 L1022.35 466.736 L1022.35 494.071 L1008.05 491.962 L993.749 490.099 L979.447 487.446 L965.144 482.003 L950.842 477.7 L936.54 473.961 L922.238 476.522 L907.935 475.998 L893.633 473.074 L879.331 469.993 L865.028 467.283 L850.726 465.357 L836.424 465.133 L822.122 461.619 L807.819 460.307 L793.517 462.912 L779.215 466.561 L764.913 470.479 L750.61 473.895 L736.308 472.778 L722.006 463.955 L707.703 459.339 L693.401 461.316 L679.099 459.257 L664.797 453.925 L650.494 446.827 L636.192 449.685 L621.89 441.961 L607.587 447.71 L593.285 452.672 L578.983 454.549 L564.681 452.083 L550.378 440.173 L536.076 419.841 L521.774 425.855 L507.472 438.602 L493.169 444.005 L478.867 448.696 L464.565 452.099 L450.262 452.591 L435.96 444.891 L421.658 408.826 L407.356 424.61 L393.053 437.124 L378.751 445.355 L364.449 451.135 L350.147 450.854  Z" fill="#7f007f" fill-rule="evenodd" fill-opacity="0.14"/>
<polyline clip-path="url(#clip742)" style="stroke:#ac8d18; stroke-linecap:round; stroke-linejoin:round; stroke-width:0; stroke-opacity:1; fill:none" points="350.147,421.711 364.449,423.362 378.751,424.172 393.053,412.719 407.356,377.488 421.658,379.834 435.96,404.598 450.262,414.598 464.565,422.246 478.867,425.206 493.169,415.136 507.472,405.539 521.774,410.276 536.076,395.838 550.378,408.527 564.681,427.433 578.983,434.657 593.285,427.025 607.587,413.119 621.89,420.137 636.192,415.701 650.494,414.463 664.797,431.579 679.099,439.705 693.401,434.64 707.703,436.686 722.006,440.552 736.308,437.887 750.61,436.854 764.913,434.602 779.215,431.379 793.517,433.466 807.819,436.838 822.122,444.812 836.424,447.676 850.726,447.806 865.028,444.948 879.331,444.372 893.633,447.592 907.935,453.799 922.238,456.578 936.54,456.44 950.842,457.745 965.144,467.429 979.447,469.616 993.749,468.707 1008.05,466.889 1022.35,466.736 "/>
<polyline clip-path="url(#clip742)" style="stroke:#7f007f; stroke-linecap:round; stroke-linejoin:round; stroke-width:12; stroke-opacity:1; fill:none" points="350.147,428.869 364.449,432.987 378.751,428.742 393.053,417.39 407.356,394.437 421.658,406.015 435.96,425.682 450.262,435.405 464.565,436.374 478.867,428.278 493.169,424.709 507.472,418.813 521.774,414.186 536.076,408.524 550.378,436.468 564.681,443.095 578.983,442.686 593.285,436.656 607.587,430.202 621.89,424.783 636.192,435.611 650.494,432.431 664.797,434.658 679.099,453.151 693.401,452.109 707.703,437.595 722.006,448.64 736.308,455.784 750.61,450.453 764.913,442.539 779.215,435.109 793.517,435.408 807.819,442.357 822.122,446.772 836.424,449.29 850.726,452.411 865.028,454.889 879.331,457.502 893.633,460.747 907.935,461.986 922.238,462.002 936.54,463.921 950.842,467.375 965.144,470.223 979.447,477.798 993.749,481.049 1008.05,482.164 1022.35,479.881 "/>
<path clip-path="url(#clip742)" d="M350.147 409.07 L364.449 417.367 L378.751 419.933 L393.053 419.831 L407.356 410.23 L421.658 396.511 L435.96 378.589 L450.262 398.909 L464.565 415.786 L478.867 421.55 L493.169 423.721 L507.472 421.18 L521.774 413.223 L536.076 399.725 L550.378 384.056 L564.681 385.704 L578.983 395.122 L593.285 412.784 L607.587 419.165 L621.89 427.479 L636.192 424.546 L650.494 420.07 L664.797 412.119 L679.099 406.683 L693.401 401.313 L707.703 405.921 L722.006 420.011 L736.308 424.99 L750.61 426.557 L764.913 434.097 L779.215 437.512 L793.517 431.636 L807.819 432.452 L822.122 431.199 L836.424 425.212 L850.726 427.073 L865.028 434.365 L879.331 442.661 L893.633 442.164 L907.935 441.545 L922.238 442.176 L936.54 438.273 L950.842 444.104 L965.144 442.193 L979.447 440.561 L993.749 442.711 L1008.05 450.972 L1022.35 457.488 L1022.35 492.852 L1008.05 491.638 L993.749 488.431 L979.447 484.224 L965.144 482.897 L950.842 486.459 L936.54 489.137 L922.238 491.851 L907.935 492.26 L893.633 490.125 L879.331 487.075 L865.028 482.706 L850.726 481.126 L836.424 478.419 L822.122 474.296 L807.819 478.342 L793.517 481.791 L779.215 480.931 L764.913 479.113 L750.61 474.431 L736.308 468.231 L722.006 459.29 L707.703 457.347 L693.401 459.281 L679.099 454.017 L664.797 465.034 L650.494 474.075 L636.192 478.897 L621.89 475.451 L607.587 464.466 L593.285 453.116 L578.983 440.258 L564.681 430.052 L550.378 445.026 L536.076 459.523 L521.774 467.363 L507.472 478.842 L493.169 485.82 L478.867 490.162 L464.565 477.243 L450.262 454.014 L435.96 420.981 L421.658 460.201 L407.356 481.874 L393.053 488.334 L378.751 489.225 L364.449 485.913 L350.147 479.902  Z" fill="#bf003f" fill-rule="evenodd" fill-opacity="0.14"/>
<polyline clip-path="url(#clip742)" style="stroke:#ed5d92; stroke-linecap:round; stroke-linejoin:round; stroke-width:0; stroke-opacity:1; fill:none" points="350.147,409.07 364.449,417.367 378.751,419.933 393.053,419.831 407.356,410.23 421.658,396.511 435.96,378.589 450.262,398.909 464.565,415.786 478.867,421.55 493.169,423.721 507.472,421.18 521.774,413.223 536.076,399.725 550.378,384.056 564.681,385.704 578.983,395.122 593.285,412.784 607.587,419.165 621.89,427.479 636.192,424.546 650.494,420.07 664.797,412.119 679.099,406.683 693.401,401.313 707.703,405.921 722.006,420.011 736.308,424.99 750.61,426.557 764.913,434.097 779.215,437.512 793.517,431.636 807.819,432.452 822.122,431.199 836.424,425.212 850.726,427.073 865.028,434.365 879.331,442.661 893.633,442.164 907.935,441.545 922.238,442.176 936.54,438.273 950.842,444.104 965.144,442.193 979.447,440.561 993.749,442.711 1008.05,450.972 1022.35,457.488 "/>
<polyline clip-path="url(#clip742)" style="stroke:#bf003f; stroke-linecap:round; stroke-linejoin:round; stroke-width:12; stroke-opacity:1; fill:none" points="350.147,432.425 364.449,439.224 378.751,438.046 393.053,434.655 407.356,429.982 421.658,416.816 435.96,394.587 450.262,416.12 464.565,425.371 478.867,433.863 493.169,437.23 507.472,438.707 521.774,431.597 536.076,423.444 550.378,412.361 564.681,408.388 578.983,415.803 593.285,426.944 607.587,436.8 621.89,443.244 636.192,444.314 650.494,445.596 664.797,440.967 679.099,431.98 693.401,427.268 707.703,427.757 722.006,440.87 736.308,447.404 750.61,453.117 764.913,458.871 779.215,453.541 793.517,451.149 807.819,449.193 822.122,446.629 836.424,450.43 850.726,456.645 865.028,456.426 879.331,459.745 893.633,461.924 907.935,460.609 922.238,462.448 936.54,456.82 950.842,458.5 965.144,459.531 979.447,458.611 993.749,462.175 1008.05,467.741 1022.35,470.466 "/>
<path clip-path="url(#clip742)" d="M350.147 416.115 L364.449 419.919 L378.751 424.734 L393.053 428.471 L407.356 428.902 L421.658 424.605 L435.96 412.779 L450.262 393.616 L464.565 386.38 L478.867 398.867 L493.169 416.866 L507.472 425.659 L521.774 431.062 L536.076 430.349 L550.378 427.092 L564.681 421.23 L578.983 409.01 L593.285 400.969 L607.587 401.023 L621.89 403.445 L636.192 408.87 L650.494 420.539 L664.797 424.114 L679.099 433.068 L693.401 434.337 L707.703 433.367 L722.006 426.402 L736.308 423.988 L750.61 422.108 L764.913 416.185 L779.215 421.912 L793.517 427.491 L807.819 428.024 L822.122 435.928 L836.424 439.047 L850.726 441.348 L865.028 437.568 L879.331 435.697 L893.633 437.908 L907.935 433.332 L922.238 436.914 L936.54 440.202 L950.842 445.364 L965.144 448.758 L979.447 449.623 L993.749 451.016 L1008.05 453.911 L1022.35 449.262 L1022.35 484.697 L1008.05 482.211 L993.749 479.938 L979.447 478.141 L965.144 477.346 L950.842 476.331 L936.54 474.788 L922.238 479.819 L907.935 479.239 L893.633 475.284 L879.331 475.202 L865.028 473.475 L850.726 474.999 L836.424 475.223 L822.122 474.966 L807.819 472.549 L793.517 467.083 L779.215 458.953 L764.913 463.604 L750.61 467.687 L736.308 466.383 L722.006 464.894 L707.703 466.57 L693.401 469.269 L679.099 466.91 L664.797 460.13 L650.494 452.442 L636.192 447.985 L621.89 440.824 L607.587 445.281 L593.285 456.123 L578.983 454.029 L564.681 457.777 L550.378 462.123 L536.076 463.624 L521.774 464.309 L507.472 459.053 L493.169 453.764 L478.867 441.395 L464.565 427.325 L450.262 433.642 L435.96 446.554 L421.658 453.53 L407.356 455.357 L393.053 458.372 L378.751 459.956 L364.449 456.502 L350.147 451.001  Z" fill="#ff0000" fill-rule="evenodd" fill-opacity="0.14"/>
<polyline clip-path="url(#clip742)" style="stroke:#00a98d; stroke-linecap:round; stroke-linejoin:round; stroke-width:0; stroke-opacity:1; fill:none" points="350.147,416.115 364.449,419.919 378.751,424.734 393.053,428.471 407.356,428.902 421.658,424.605 435.96,412.779 450.262,393.616 464.565,386.38 478.867,398.867 493.169,416.866 507.472,425.659 521.774,431.062 536.076,430.349 550.378,427.092 564.681,421.23 578.983,409.01 593.285,400.969 607.587,401.023 621.89,403.445 636.192,408.87 650.494,420.539 664.797,424.114 679.099,433.068 693.401,434.337 707.703,433.367 722.006,426.402 736.308,423.988 750.61,422.108 764.913,416.185 779.215,421.912 793.517,427.491 807.819,428.024 822.122,435.928 836.424,439.047 850.726,441.348 865.028,437.568 879.331,435.697 893.633,437.908 907.935,433.332 922.238,436.914 936.54,440.202 950.842,445.364 965.144,448.758 979.447,449.623 993.749,451.016 1008.05,453.911 1022.35,449.262 "/>
<polyline clip-path="url(#clip742)" style="stroke:#ff0000; stroke-linecap:round; stroke-linejoin:round; stroke-width:12; stroke-opacity:1; fill:none" points="350.147,432.445 364.449,436.385 378.751,437.12 393.053,438.425 407.356,437.921 421.658,435.411 435.96,427.418 450.262,412.213 464.565,403.659 478.867,424.981 493.169,436.426 507.472,438.248 521.774,441.525 536.076,441.288 550.378,441.905 564.681,440.347 578.983,436.281 593.285,427.194 607.587,426.469 621.89,420.745 636.192,430.1 650.494,435.579 664.797,444.719 679.099,448.28 693.401,450.466 707.703,449.939 722.006,447.908 736.308,444.178 750.61,441.975 764.913,440.877 779.215,441.793 793.517,446.59 807.819,449.479 822.122,451.319 836.424,450.841 850.726,455.407 865.028,456.356 879.331,457.374 893.633,456.91 907.935,456.604 922.238,455.971 936.54,457.822 950.842,462.306 965.144,464.153 979.447,466.832 993.749,465.671 1008.05,467.344 1022.35,468.625 "/>
<path clip-path="url(#clip740)" d="M681.59 548.755 L1018.77 548.755 L1018.77 237.715 L681.59 237.715  Z" fill="#ffffff" fill-rule="evenodd" fill-opacity="1"/>
<polyline clip-path="url(#clip740)" style="stroke:#000000; stroke-linecap:round; stroke-linejoin:round; stroke-width:4; stroke-opacity:1; fill:none" points="681.59,548.755 1018.77,548.755 1018.77,237.715 681.59,237.715 681.59,548.755 "/>
<polyline clip-path="url(#clip740)" style="stroke:#0000ff; stroke-linecap:round; stroke-linejoin:round; stroke-width:12; stroke-opacity:1; fill:none" points="689.507,289.555 737.01,289.555 "/>
<path clip-path="url(#clip740)" d="M774.603 283.502 L750.714 291.997 L774.603 300.446 L774.603 304.659 L744.927 293.895 L744.927 290.053 L774.603 279.289 L774.603 283.502 Z" fill="#000000" fill-rule="nonzero" fill-opacity="1" /><path clip-path="url(#clip740)" d="M797.542 276.349 L785.737 294.798 L797.542 294.798 L797.542 276.349 M796.315 272.275 L802.195 272.275 L802.195 294.798 L807.126 294.798 L807.126 298.687 L802.195 298.687 L802.195 306.835 L797.542 306.835 L797.542 298.687 L781.94 298.687 L781.94 294.173 L796.315 272.275 Z" fill="#000000" fill-rule="nonzero" fill-opacity="1" /><path clip-path="url(#clip740)" d="M824.857 275.354 Q821.246 275.354 819.417 278.918 Q817.612 282.46 817.612 289.59 Q817.612 296.696 819.417 300.261 Q821.246 303.802 824.857 303.802 Q828.491 303.802 830.297 300.261 Q832.125 296.696 832.125 289.59 Q832.125 282.46 830.297 278.918 Q828.491 275.354 824.857 275.354 M824.857 271.65 Q830.667 271.65 833.723 276.256 Q836.801 280.84 836.801 289.59 Q836.801 298.316 833.723 302.923 Q830.667 307.506 824.857 307.506 Q819.047 307.506 815.968 302.923 Q812.913 298.316 812.913 289.59 Q812.913 280.84 815.968 276.256 Q819.047 271.65 824.857 271.65 Z" fill="#000000" fill-rule="nonzero" fill-opacity="1" /><polyline clip-path="url(#clip740)" style="stroke:#3f00bf; stroke-linecap:round; stroke-linejoin:round; stroke-width:12; stroke-opacity:1; fill:none" points="689.507,341.395 737.01,341.395 "/>
<path clip-path="url(#clip740)" d="M760.529 328.189 L748.723 346.638 L760.529 346.638 L760.529 328.189 M759.302 324.115 L765.181 324.115 L765.181 346.638 L770.112 346.638 L770.112 350.527 L765.181 350.527 L765.181 358.675 L760.529 358.675 L760.529 350.527 L744.927 350.527 L744.927 346.013 L759.302 324.115 Z" fill="#000000" fill-rule="nonzero" fill-opacity="1" /><path clip-path="url(#clip740)" d="M787.843 327.194 Q784.232 327.194 782.403 330.758 Q780.598 334.3 780.598 341.43 Q780.598 348.536 782.403 352.101 Q784.232 355.642 787.843 355.642 Q791.477 355.642 793.283 352.101 Q795.112 348.536 795.112 341.43 Q795.112 334.3 793.283 330.758 Q791.477 327.194 787.843 327.194 M787.843 323.49 Q793.653 323.49 796.709 328.096 Q799.788 332.68 799.788 341.43 Q799.788 350.156 796.709 354.763 Q793.653 359.346 787.843 359.346 Q782.033 359.346 778.954 354.763 Q775.899 350.156 775.899 341.43 Q775.899 332.68 778.954 328.096 Q782.033 323.49 787.843 323.49 Z" fill="#000000" fill-rule="nonzero" fill-opacity="1" /><path clip-path="url(#clip740)" d="M805.251 344.022 L824.324 344.022 L824.324 347.355 L805.251 347.355 L805.251 344.022 Z" fill="#000000" fill-rule="nonzero" fill-opacity="1" /><path clip-path="url(#clip740)" d="M842.287 339.531 Q839.139 339.531 837.287 341.684 Q835.459 343.837 835.459 347.587 Q835.459 351.314 837.287 353.49 Q839.139 355.642 842.287 355.642 Q845.435 355.642 847.264 353.49 Q849.116 351.314 849.116 347.587 Q849.116 343.837 847.264 341.684 Q845.435 339.531 842.287 339.531 M851.57 324.879 L851.57 329.138 Q849.81 328.305 848.005 327.865 Q846.223 327.425 844.463 327.425 Q839.834 327.425 837.38 330.55 Q834.949 333.675 834.602 339.994 Q835.968 337.981 838.028 336.916 Q840.088 335.828 842.565 335.828 Q847.773 335.828 850.783 338.999 Q853.815 342.147 853.815 347.587 Q853.815 352.911 850.667 356.129 Q847.519 359.346 842.287 359.346 Q836.292 359.346 833.121 354.763 Q829.949 350.156 829.949 341.43 Q829.949 333.235 833.838 328.374 Q837.727 323.49 844.278 323.49 Q846.037 323.49 847.82 323.837 Q849.625 324.184 851.57 324.879 Z" fill="#000000" fill-rule="nonzero" fill-opacity="1" /><path clip-path="url(#clip740)" d="M871.871 327.194 Q868.259 327.194 866.431 330.758 Q864.625 334.3 864.625 341.43 Q864.625 348.536 866.431 352.101 Q868.259 355.642 871.871 355.642 Q875.505 355.642 877.31 352.101 Q879.139 348.536 879.139 341.43 Q879.139 334.3 877.31 330.758 Q875.505 327.194 871.871 327.194 M871.871 323.49 Q877.681 323.49 880.736 328.096 Q883.815 332.68 883.815 341.43 Q883.815 350.156 880.736 354.763 Q877.681 359.346 871.871 359.346 Q866.06 359.346 862.982 354.763 Q859.926 350.156 859.926 341.43 Q859.926 332.68 862.982 328.096 Q866.06 323.49 871.871 323.49 Z" fill="#000000" fill-rule="nonzero" fill-opacity="1" /><polyline clip-path="url(#clip740)" style="stroke:#7f007f; stroke-linecap:round; stroke-linejoin:round; stroke-width:12; stroke-opacity:1; fill:none" points="689.507,393.235 737.01,393.235 "/>
<path clip-path="url(#clip740)" d="M757.265 391.371 Q754.117 391.371 752.265 393.524 Q750.436 395.677 750.436 399.427 Q750.436 403.154 752.265 405.33 Q754.117 407.482 757.265 407.482 Q760.413 407.482 762.241 405.33 Q764.093 403.154 764.093 399.427 Q764.093 395.677 762.241 393.524 Q760.413 391.371 757.265 391.371 M766.547 376.719 L766.547 380.978 Q764.788 380.145 762.982 379.705 Q761.2 379.265 759.441 379.265 Q754.811 379.265 752.357 382.39 Q749.927 385.515 749.58 391.834 Q750.945 389.821 753.005 388.756 Q755.066 387.668 757.542 387.668 Q762.751 387.668 765.76 390.839 Q768.792 393.987 768.792 399.427 Q768.792 404.751 765.644 407.969 Q762.496 411.186 757.265 411.186 Q751.269 411.186 748.098 406.603 Q744.927 401.996 744.927 393.27 Q744.927 385.075 748.816 380.214 Q752.705 375.33 759.255 375.33 Q761.015 375.33 762.797 375.677 Q764.603 376.024 766.547 376.719 Z" fill="#000000" fill-rule="nonzero" fill-opacity="1" /><path clip-path="url(#clip740)" d="M786.848 379.034 Q783.237 379.034 781.408 382.598 Q779.603 386.14 779.603 393.27 Q779.603 400.376 781.408 403.941 Q783.237 407.482 786.848 407.482 Q790.482 407.482 792.288 403.941 Q794.116 400.376 794.116 393.27 Q794.116 386.14 792.288 382.598 Q790.482 379.034 786.848 379.034 M786.848 375.33 Q792.658 375.33 795.714 379.936 Q798.792 384.52 798.792 393.27 Q798.792 401.996 795.714 406.603 Q792.658 411.186 786.848 411.186 Q781.038 411.186 777.959 406.603 Q774.903 401.996 774.903 393.27 Q774.903 384.52 777.959 379.936 Q781.038 375.33 786.848 375.33 Z" fill="#000000" fill-rule="nonzero" fill-opacity="1" /><path clip-path="url(#clip740)" d="M804.255 395.862 L823.329 395.862 L823.329 399.195 L804.255 399.195 L804.255 395.862 Z" fill="#000000" fill-rule="nonzero" fill-opacity="1" /><path clip-path="url(#clip740)" d="M830.852 409.797 L830.852 405.538 Q832.611 406.371 834.417 406.811 Q836.223 407.251 837.959 407.251 Q842.588 407.251 845.019 404.149 Q847.473 401.024 847.82 394.682 Q846.477 396.672 844.417 397.737 Q842.357 398.802 839.857 398.802 Q834.672 398.802 831.639 395.677 Q828.63 392.529 828.63 387.089 Q828.63 381.765 831.778 378.547 Q834.926 375.33 840.158 375.33 Q846.153 375.33 849.301 379.936 Q852.472 384.52 852.472 393.27 Q852.472 401.441 848.584 406.325 Q844.718 411.186 838.167 411.186 Q836.408 411.186 834.602 410.839 Q832.797 410.492 830.852 409.797 M840.158 395.145 Q843.306 395.145 845.135 392.992 Q846.986 390.839 846.986 387.089 Q846.986 383.362 845.135 381.209 Q843.306 379.034 840.158 379.034 Q837.01 379.034 835.158 381.209 Q833.329 383.362 833.329 387.089 Q833.329 390.839 835.158 392.992 Q837.01 395.145 840.158 395.145 Z" fill="#000000" fill-rule="nonzero" fill-opacity="1" /><path clip-path="url(#clip740)" d="M870.875 379.034 Q867.264 379.034 865.435 382.598 Q863.63 386.14 863.63 393.27 Q863.63 400.376 865.435 403.941 Q867.264 407.482 870.875 407.482 Q874.509 407.482 876.315 403.941 Q878.144 400.376 878.144 393.27 Q878.144 386.14 876.315 382.598 Q874.509 379.034 870.875 379.034 M870.875 375.33 Q876.685 375.33 879.741 379.936 Q882.82 384.52 882.82 393.27 Q882.82 401.996 879.741 406.603 Q876.685 411.186 870.875 411.186 Q865.065 411.186 861.986 406.603 Q858.931 401.996 858.931 393.27 Q858.931 384.52 861.986 379.936 Q865.065 375.33 870.875 375.33 Z" fill="#000000" fill-rule="nonzero" fill-opacity="1" /><polyline clip-path="url(#clip740)" style="stroke:#bf003f; stroke-linecap:round; stroke-linejoin:round; stroke-width:12; stroke-opacity:1; fill:none" points="689.507,445.075 737.01,445.075 "/>
<path clip-path="url(#clip740)" d="M747.149 461.637 L747.149 457.378 Q748.908 458.211 750.714 458.651 Q752.519 459.091 754.255 459.091 Q758.885 459.091 761.316 455.989 Q763.769 452.864 764.116 446.522 Q762.774 448.512 760.714 449.577 Q758.654 450.642 756.154 450.642 Q750.968 450.642 747.936 447.517 Q744.927 444.369 744.927 438.929 Q744.927 433.605 748.075 430.387 Q751.223 427.17 756.454 427.17 Q762.45 427.17 765.598 431.776 Q768.769 436.36 768.769 445.11 Q768.769 453.281 764.88 458.165 Q761.015 463.026 754.464 463.026 Q752.705 463.026 750.899 462.679 Q749.093 462.332 747.149 461.637 M756.454 446.985 Q759.603 446.985 761.431 444.832 Q763.283 442.679 763.283 438.929 Q763.283 435.202 761.431 433.049 Q759.603 430.874 756.454 430.874 Q753.306 430.874 751.455 433.049 Q749.626 435.202 749.626 438.929 Q749.626 442.679 751.455 444.832 Q753.306 446.985 756.454 446.985 Z" fill="#000000" fill-rule="nonzero" fill-opacity="1" /><path clip-path="url(#clip740)" d="M787.172 430.874 Q783.561 430.874 781.732 434.438 Q779.927 437.98 779.927 445.11 Q779.927 452.216 781.732 455.781 Q783.561 459.322 787.172 459.322 Q790.806 459.322 792.612 455.781 Q794.44 452.216 794.44 445.11 Q794.44 437.98 792.612 434.438 Q790.806 430.874 787.172 430.874 M787.172 427.17 Q792.982 427.17 796.038 431.776 Q799.116 436.36 799.116 445.11 Q799.116 453.836 796.038 458.443 Q792.982 463.026 787.172 463.026 Q781.362 463.026 778.283 458.443 Q775.228 453.836 775.228 445.11 Q775.228 436.36 778.283 431.776 Q781.362 427.17 787.172 427.17 Z" fill="#000000" fill-rule="nonzero" fill-opacity="1" /><path clip-path="url(#clip740)" d="M804.579 447.702 L823.653 447.702 L823.653 451.035 L804.579 451.035 L804.579 447.702 Z" fill="#000000" fill-rule="nonzero" fill-opacity="1" /><path clip-path="url(#clip740)" d="M831.848 458.42 L839.486 458.42 L839.486 432.054 L831.176 433.721 L831.176 429.462 L839.44 427.795 L844.116 427.795 L844.116 458.42 L851.755 458.42 L851.755 462.355 L831.848 462.355 L831.848 458.42 Z" fill="#000000" fill-rule="nonzero" fill-opacity="1" /><path clip-path="url(#clip740)" d="M875.366 443.721 Q878.722 444.438 880.597 446.707 Q882.495 448.975 882.495 452.309 Q882.495 457.424 878.977 460.225 Q875.458 463.026 868.977 463.026 Q866.801 463.026 864.486 462.586 Q862.195 462.17 859.741 461.313 L859.741 456.799 Q861.685 457.934 864 458.512 Q866.315 459.091 868.838 459.091 Q873.236 459.091 875.528 457.355 Q877.843 455.619 877.843 452.309 Q877.843 449.253 875.69 447.54 Q873.56 445.804 869.741 445.804 L865.713 445.804 L865.713 441.961 L869.926 441.961 Q873.375 441.961 875.204 440.596 Q877.033 439.207 877.033 436.614 Q877.033 433.952 875.134 432.54 Q873.259 431.105 869.741 431.105 Q867.82 431.105 865.621 431.522 Q863.422 431.938 860.783 432.818 L860.783 428.651 Q863.445 427.911 865.759 427.54 Q868.097 427.17 870.158 427.17 Q875.482 427.17 878.583 429.6 Q881.685 432.008 881.685 436.128 Q881.685 438.998 880.042 440.989 Q878.398 442.957 875.366 443.721 Z" fill="#000000" fill-rule="nonzero" fill-opacity="1" /><path clip-path="url(#clip740)" d="M901.361 430.874 Q897.75 430.874 895.921 434.438 Q894.116 437.98 894.116 445.11 Q894.116 452.216 895.921 455.781 Q897.75 459.322 901.361 459.322 Q904.995 459.322 906.801 455.781 Q908.63 452.216 908.63 445.11 Q908.63 437.98 906.801 434.438 Q904.995 430.874 901.361 430.874 M901.361 427.17 Q907.171 427.17 910.227 431.776 Q913.305 436.36 913.305 445.11 Q913.305 453.836 910.227 458.443 Q907.171 463.026 901.361 463.026 Q895.551 463.026 892.472 458.443 Q889.417 453.836 889.417 445.11 Q889.417 436.36 892.472 431.776 Q895.551 427.17 901.361 427.17 Z" fill="#000000" fill-rule="nonzero" fill-opacity="1" /><polyline clip-path="url(#clip740)" style="stroke:#ff0000; stroke-linecap:round; stroke-linejoin:round; stroke-width:12; stroke-opacity:1; fill:none" points="689.507,496.915 737.01,496.915 "/>
<path clip-path="url(#clip740)" d="M744.927 490.862 L744.927 486.649 L774.603 497.413 L774.603 501.255 L744.927 512.019 L744.927 507.806 L768.769 499.357 L744.927 490.862 Z" fill="#000000" fill-rule="nonzero" fill-opacity="1" /><path clip-path="url(#clip740)" d="M785.505 510.26 L793.144 510.26 L793.144 483.894 L784.834 485.561 L784.834 481.302 L793.098 479.635 L797.774 479.635 L797.774 510.26 L805.413 510.26 L805.413 514.195 L785.505 514.195 L785.505 510.26 Z" fill="#000000" fill-rule="nonzero" fill-opacity="1" /><path clip-path="url(#clip740)" d="M829.024 495.561 Q832.38 496.278 834.255 498.547 Q836.153 500.815 836.153 504.149 Q836.153 509.264 832.635 512.065 Q829.116 514.866 822.635 514.866 Q820.459 514.866 818.144 514.426 Q815.852 514.01 813.399 513.153 L813.399 508.639 Q815.343 509.774 817.658 510.352 Q819.973 510.931 822.496 510.931 Q826.894 510.931 829.186 509.195 Q831.5 507.459 831.5 504.149 Q831.5 501.093 829.348 499.38 Q827.218 497.644 823.399 497.644 L819.371 497.644 L819.371 493.801 L823.584 493.801 Q827.033 493.801 828.862 492.436 Q830.69 491.047 830.69 488.454 Q830.69 485.792 828.792 484.38 Q826.917 482.945 823.399 482.945 Q821.477 482.945 819.278 483.362 Q817.079 483.778 814.44 484.658 L814.44 480.491 Q817.102 479.751 819.417 479.38 Q821.755 479.01 823.815 479.01 Q829.139 479.01 832.241 481.44 Q835.343 483.848 835.343 487.968 Q835.343 490.838 833.699 492.829 Q832.056 494.797 829.024 495.561 Z" fill="#000000" fill-rule="nonzero" fill-opacity="1" /><path clip-path="url(#clip740)" d="M855.019 482.714 Q851.408 482.714 849.579 486.278 Q847.773 489.82 847.773 496.95 Q847.773 504.056 849.579 507.621 Q851.408 511.162 855.019 511.162 Q858.653 511.162 860.459 507.621 Q862.287 504.056 862.287 496.95 Q862.287 489.82 860.459 486.278 Q858.653 482.714 855.019 482.714 M855.019 479.01 Q860.829 479.01 863.884 483.616 Q866.963 488.2 866.963 496.95 Q866.963 505.676 863.884 510.283 Q860.829 514.866 855.019 514.866 Q849.209 514.866 846.13 510.283 Q843.074 505.676 843.074 496.95 Q843.074 488.2 846.13 483.616 Q849.209 479.01 855.019 479.01 Z" fill="#000000" fill-rule="nonzero" fill-opacity="1" /><path clip-path="url(#clip740)" d="M923.375 489.264 L923.375 493.246 Q921.569 492.251 919.741 491.764 Q917.935 491.255 916.083 491.255 Q911.94 491.255 909.648 493.894 Q907.356 496.51 907.356 501.255 Q907.356 506 909.648 508.639 Q911.94 511.255 916.083 511.255 Q917.935 511.255 919.741 510.769 Q921.569 510.26 923.375 509.264 L923.375 513.199 Q921.592 514.033 919.671 514.449 Q917.773 514.866 915.62 514.866 Q909.764 514.866 906.315 511.186 Q902.866 507.505 902.866 501.255 Q902.866 494.913 906.338 491.278 Q909.833 487.644 915.898 487.644 Q917.866 487.644 919.741 488.061 Q921.616 488.454 923.375 489.264 Z" fill="#000000" fill-rule="nonzero" fill-opacity="1" /><path clip-path="url(#clip740)" d="M950.967 493.246 Q952.565 490.376 954.787 489.01 Q957.009 487.644 960.018 487.644 Q964.069 487.644 966.268 490.491 Q968.467 493.315 968.467 498.547 L968.467 514.195 L964.185 514.195 L964.185 498.686 Q964.185 494.959 962.865 493.153 Q961.546 491.348 958.838 491.348 Q955.527 491.348 953.606 493.547 Q951.685 495.746 951.685 499.542 L951.685 514.195 L947.403 514.195 L947.403 498.686 Q947.403 494.936 946.083 493.153 Q944.764 491.348 942.009 491.348 Q938.745 491.348 936.824 493.57 Q934.903 495.769 934.903 499.542 L934.903 514.195 L930.62 514.195 L930.62 488.269 L934.903 488.269 L934.903 492.297 Q936.361 489.913 938.398 488.778 Q940.435 487.644 943.236 487.644 Q946.06 487.644 948.028 489.079 Q950.018 490.514 950.967 493.246 Z" fill="#000000" fill-rule="nonzero" fill-opacity="1" /><path clip-path="url(#clip740)" d="M984.532 479.635 L988.467 479.635 L976.43 518.593 L972.495 518.593 L984.532 479.635 Z" fill="#000000" fill-rule="nonzero" fill-opacity="1" /><path clip-path="url(#clip740)" d="M1009.46 489.033 L1009.46 493.061 Q1007.66 492.135 1005.71 491.672 Q1003.77 491.209 1001.68 491.209 Q998.513 491.209 996.916 492.181 Q995.342 493.153 995.342 495.098 Q995.342 496.579 996.476 497.436 Q997.611 498.269 1001.04 499.033 L1002.49 499.357 Q1007.03 500.329 1008.93 502.112 Q1010.85 503.871 1010.85 507.042 Q1010.85 510.653 1007.98 512.76 Q1005.13 514.866 1000.13 514.866 Q998.05 514.866 995.782 514.449 Q993.537 514.056 991.037 513.246 L991.037 508.848 Q993.398 510.075 995.689 510.7 Q997.981 511.301 1000.23 511.301 Q1003.24 511.301 1004.86 510.283 Q1006.48 509.241 1006.48 507.366 Q1006.48 505.63 1005.3 504.704 Q1004.14 503.778 1000.18 502.922 L998.699 502.575 Q994.74 501.741 992.981 500.028 Q991.222 498.292 991.222 495.283 Q991.222 491.626 993.814 489.635 Q996.407 487.644 1001.18 487.644 Q1003.54 487.644 1005.62 487.991 Q1007.7 488.339 1009.46 489.033 Z" fill="#000000" fill-rule="nonzero" fill-opacity="1" /></svg>
