<?xml version="1.0" encoding="utf-8"?>
<svg xmlns="http://www.w3.org/2000/svg" xmlns:xlink="http://www.w3.org/1999/xlink" width="672" height="220" viewBox="0 0 2688 880">
<defs>
  <clipPath id="clip380">
    <rect x="0" y="0" width="2688" height="880"/>
  </clipPath>
</defs>
<path clip-path="url(#clip380)" d="M0 880 L2688 880 L2688 0 L0 0  Z" fill="#ffffff" fill-rule="evenodd" fill-opacity="1"/>
<defs>
  <clipPath id="clip381">
    <rect x="1755" y="115" width="757" height="499"/>
  </clipPath>
</defs>
<path clip-path="url(#clip380)" d="M356.931 637.674 L1186.52 637.674 L1186.52 198.685 L356.931 198.685  Z" fill="#ffffff" fill-rule="evenodd" fill-opacity="1"/>
<defs>
  <clipPath id="clip382">
    <rect x="356" y="198" width="831" height="440"/>
  </clipPath>
</defs>
<polyline clip-path="url(#clip382)" style="stroke:#000000; stroke-linecap:round; stroke-linejoin:round; stroke-width:2; stroke-opacity:0.1; fill:none" points="380.409,637.674 380.409,198.685 "/>
<polyline clip-path="url(#clip382)" style="stroke:#000000; stroke-linecap:round; stroke-linejoin:round; stroke-width:2; stroke-opacity:0.1; fill:none" points="576.067,637.674 576.067,198.685 "/>
<polyline clip-path="url(#clip382)" style="stroke:#000000; stroke-linecap:round; stroke-linejoin:round; stroke-width:2; stroke-opacity:0.1; fill:none" points="771.725,637.674 771.725,198.685 "/>
<polyline clip-path="url(#clip382)" style="stroke:#000000; stroke-linecap:round; stroke-linejoin:round; stroke-width:2; stroke-opacity:0.1; fill:none" points="967.383,637.674 967.383,198.685 "/>
<polyline clip-path="url(#clip382)" style="stroke:#000000; stroke-linecap:round; stroke-linejoin:round; stroke-width:2; stroke-opacity:0.1; fill:none" points="1163.04,637.674 1163.04,198.685 "/>
<polyline clip-path="url(#clip382)" style="stroke:#000000; stroke-linecap:round; stroke-linejoin:round; stroke-width:2; stroke-opacity:0.1; fill:none" points="356.931,637.674 1186.52,637.674 "/>
<polyline clip-path="url(#clip382)" style="stroke:#000000; stroke-linecap:round; stroke-linejoin:round; stroke-width:2; stroke-opacity:0.1; fill:none" points="356.931,418.18 1186.52,418.18 "/>
<polyline clip-path="url(#clip382)" style="stroke:#000000; stroke-linecap:round; stroke-linejoin:round; stroke-width:2; stroke-opacity:0.1; fill:none" points="356.931,198.685 1186.52,198.685 "/>
<polyline clip-path="url(#clip380)" style="stroke:#000000; stroke-linecap:round; stroke-linejoin:round; stroke-width:4; stroke-opacity:1; fill:none" points="356.931,637.674 1186.52,637.674 "/>
<polyline clip-path="url(#clip380)" style="stroke:#000000; stroke-linecap:round; stroke-linejoin:round; stroke-width:4; stroke-opacity:1; fill:none" points="380.409,637.674 380.409,618.776 "/>
<polyline clip-path="url(#clip380)" style="stroke:#000000; stroke-linecap:round; stroke-linejoin:round; stroke-width:4; stroke-opacity:1; fill:none" points="576.067,637.674 576.067,618.776 "/>
<polyline clip-path="url(#clip380)" style="stroke:#000000; stroke-linecap:round; stroke-linejoin:round; stroke-width:4; stroke-opacity:1; fill:none" points="771.725,637.674 771.725,618.776 "/>
<polyline clip-path="url(#clip380)" style="stroke:#000000; stroke-linecap:round; stroke-linejoin:round; stroke-width:4; stroke-opacity:1; fill:none" points="967.383,637.674 967.383,618.776 "/>
<polyline clip-path="url(#clip380)" style="stroke:#000000; stroke-linecap:round; stroke-linejoin:round; stroke-width:4; stroke-opacity:1; fill:none" points="1163.04,637.674 1163.04,618.776 "/>
<path clip-path="url(#clip380)" d="M368.387 708.259 L377.936 708.259 L377.936 675.302 L367.548 677.385 L367.548 672.061 L377.878 669.978 L383.723 669.978 L383.723 708.259 L393.271 708.259 L393.271 713.178 L368.387 713.178 L368.387 708.259 Z" fill="#000000" fill-rule="nonzero" fill-opacity="1" /><path clip-path="url(#clip380)" d="M569.383 708.259 L589.782 708.259 L589.782 713.178 L562.352 713.178 L562.352 708.259 Q565.68 704.815 571.409 699.028 Q577.167 693.212 578.643 691.534 Q581.449 688.38 582.549 686.21 Q583.677 684.011 583.677 681.899 Q583.677 678.456 581.247 676.285 Q578.845 674.115 574.968 674.115 Q572.219 674.115 569.152 675.07 Q566.114 676.025 562.641 677.964 L562.641 672.061 Q566.172 670.643 569.239 669.92 Q572.306 669.196 574.852 669.196 Q581.565 669.196 585.558 672.553 Q589.551 675.909 589.551 681.523 Q589.551 684.185 588.538 686.586 Q587.555 688.959 584.921 692.2 Q584.198 693.039 580.321 697.061 Q576.443 701.054 569.383 708.259 Z" fill="#000000" fill-rule="nonzero" fill-opacity="1" /><path clip-path="url(#clip380)" d="M777.035 689.885 Q781.23 690.782 783.574 693.618 Q785.947 696.453 785.947 700.62 Q785.947 707.014 781.549 710.516 Q777.15 714.017 769.049 714.017 Q766.329 714.017 763.435 713.467 Q760.571 712.946 757.504 711.876 L757.504 706.233 Q759.934 707.651 762.828 708.374 Q765.721 709.098 768.875 709.098 Q774.373 709.098 777.237 706.928 Q780.131 704.758 780.131 700.62 Q780.131 696.8 777.44 694.659 Q774.778 692.489 770.003 692.489 L764.969 692.489 L764.969 687.686 L770.235 687.686 Q774.546 687.686 776.832 685.979 Q779.118 684.243 779.118 681.002 Q779.118 677.674 776.745 675.909 Q774.402 674.115 770.003 674.115 Q767.602 674.115 764.853 674.636 Q762.104 675.157 758.806 676.257 L758.806 671.048 Q762.133 670.122 765.027 669.659 Q767.949 669.196 770.524 669.196 Q777.179 669.196 781.057 672.235 Q784.934 675.244 784.934 680.394 Q784.934 683.982 782.88 686.471 Q780.825 688.93 777.035 689.885 Z" fill="#000000" fill-rule="nonzero" fill-opacity="1" /><path clip-path="url(#clip380)" d="M971.144 675.07 L956.388 698.131 L971.144 698.131 L971.144 675.07 M969.611 669.978 L976.96 669.978 L976.96 698.131 L983.124 698.131 L983.124 702.992 L976.96 702.992 L976.96 713.178 L971.144 713.178 L971.144 702.992 L951.642 702.992 L951.642 697.35 L969.611 669.978 Z" fill="#000000" fill-rule="nonzero" fill-opacity="1" /><path clip-path="url(#clip380)" d="M1150.89 669.978 L1173.83 669.978 L1173.83 674.897 L1156.24 674.897 L1156.24 685.487 Q1157.51 685.053 1158.79 684.85 Q1160.06 684.619 1161.33 684.619 Q1168.57 684.619 1172.79 688.583 Q1177.02 692.547 1177.02 699.318 Q1177.02 706.291 1172.68 710.168 Q1168.34 714.017 1160.44 714.017 Q1157.72 714.017 1154.88 713.554 Q1152.07 713.091 1149.07 712.165 L1149.07 706.291 Q1151.67 707.709 1154.45 708.403 Q1157.22 709.098 1160.32 709.098 Q1165.33 709.098 1168.25 706.465 Q1171.17 703.832 1171.17 699.318 Q1171.17 694.804 1168.25 692.171 Q1165.33 689.538 1160.32 689.538 Q1157.98 689.538 1155.63 690.059 Q1153.32 690.579 1150.89 691.679 L1150.89 669.978 Z" fill="#000000" fill-rule="nonzero" fill-opacity="1" /><path clip-path="url(#clip380)" d="M620.317 752.298 L626.746 752.298 L626.746 771.777 L650.108 771.777 L650.108 752.298 L656.538 752.298 L656.538 799.818 L650.108 799.818 L650.108 777.188 L626.746 777.188 L626.746 799.818 L620.317 799.818 L620.317 752.298 Z" fill="#000000" fill-rule="nonzero" fill-opacity="1" /><path clip-path="url(#clip380)" d="M685.279 781.898 Q678.181 781.898 675.444 783.521 Q672.707 785.145 672.707 789.06 Q672.707 792.179 674.744 794.025 Q676.812 795.839 680.345 795.839 Q685.215 795.839 688.143 792.402 Q691.103 788.932 691.103 783.203 L691.103 781.898 L685.279 781.898 M696.96 779.479 L696.96 799.818 L691.103 799.818 L691.103 794.407 Q689.098 797.653 686.106 799.213 Q683.114 800.741 678.786 800.741 Q673.311 800.741 670.065 797.685 Q666.85 794.598 666.85 789.442 Q666.85 783.426 670.86 780.37 Q674.903 777.315 682.892 777.315 L691.103 777.315 L691.103 776.742 Q691.103 772.7 688.43 770.504 Q685.788 768.276 680.982 768.276 Q677.926 768.276 675.03 769.008 Q672.134 769.74 669.46 771.204 L669.46 765.793 Q672.675 764.552 675.698 763.947 Q678.722 763.31 681.587 763.31 Q689.321 763.31 693.14 767.321 Q696.96 771.331 696.96 779.479 Z" fill="#000000" fill-rule="nonzero" fill-opacity="1" /><path clip-path="url(#clip380)" d="M729.68 769.644 Q728.693 769.071 727.515 768.817 Q726.369 768.53 724.969 768.53 Q720.004 768.53 717.33 771.777 Q714.688 774.991 714.688 781.039 L714.688 799.818 L708.8 799.818 L708.8 764.17 L714.688 764.17 L714.688 769.708 Q716.534 766.461 719.494 764.902 Q722.455 763.31 726.688 763.31 Q727.292 763.31 728.025 763.406 Q728.757 763.469 729.648 763.629 L729.68 769.644 Z" fill="#000000" fill-rule="nonzero" fill-opacity="1" /><path clip-path="url(#clip380)" d="M762.431 771.013 Q764.627 767.066 767.683 765.188 Q770.738 763.31 774.876 763.31 Q780.446 763.31 783.47 767.225 Q786.494 771.108 786.494 778.302 L786.494 799.818 L780.605 799.818 L780.605 778.493 Q780.605 773.368 778.791 770.885 Q776.977 768.403 773.253 768.403 Q768.701 768.403 766.06 771.427 Q763.418 774.45 763.418 779.67 L763.418 799.818 L757.53 799.818 L757.53 778.493 Q757.53 773.336 755.715 770.885 Q753.901 768.403 750.114 768.403 Q745.626 768.403 742.984 771.458 Q740.342 774.482 740.342 779.67 L740.342 799.818 L734.454 799.818 L734.454 764.17 L740.342 764.17 L740.342 769.708 Q742.347 766.429 745.148 764.87 Q747.949 763.31 751.8 763.31 Q755.684 763.31 758.389 765.284 Q761.126 767.257 762.431 771.013 Z" fill="#000000" fill-rule="nonzero" fill-opacity="1" /><path clip-path="url(#clip380)" d="M811.988 768.276 Q807.278 768.276 804.54 771.968 Q801.803 775.628 801.803 782.025 Q801.803 788.423 804.509 792.115 Q807.246 795.775 811.988 795.775 Q816.667 795.775 819.404 792.083 Q822.142 788.391 822.142 782.025 Q822.142 775.692 819.404 771.999 Q816.667 768.276 811.988 768.276 M811.988 763.31 Q819.627 763.31 823.988 768.276 Q828.348 773.241 828.348 782.025 Q828.348 790.778 823.988 795.775 Q819.627 800.741 811.988 800.741 Q804.318 800.741 799.957 795.775 Q795.628 790.778 795.628 782.025 Q795.628 773.241 799.957 768.276 Q804.318 763.31 811.988 763.31 Z" fill="#000000" fill-rule="nonzero" fill-opacity="1" /><path clip-path="url(#clip380)" d="M867.688 778.302 L867.688 799.818 L861.832 799.818 L861.832 778.493 Q861.832 773.432 859.858 770.917 Q857.885 768.403 853.938 768.403 Q849.196 768.403 846.459 771.427 Q843.721 774.45 843.721 779.67 L843.721 799.818 L837.833 799.818 L837.833 764.17 L843.721 764.17 L843.721 769.708 Q845.822 766.493 848.655 764.902 Q851.519 763.31 855.243 763.31 Q861.386 763.31 864.537 767.13 Q867.688 770.917 867.688 778.302 Z" fill="#000000" fill-rule="nonzero" fill-opacity="1" /><path clip-path="url(#clip380)" d="M879.369 764.17 L885.226 764.17 L885.226 799.818 L879.369 799.818 L879.369 764.17 M879.369 750.292 L885.226 750.292 L885.226 757.708 L879.369 757.708 L879.369 750.292 Z" fill="#000000" fill-rule="nonzero" fill-opacity="1" /><path clip-path="url(#clip380)" d="M923.133 765.538 L923.133 771.013 Q920.651 769.644 918.136 768.976 Q915.654 768.276 913.107 768.276 Q907.41 768.276 904.259 771.904 Q901.108 775.501 901.108 782.025 Q901.108 788.55 904.259 792.179 Q907.41 795.775 913.107 795.775 Q915.654 795.775 918.136 795.107 Q920.651 794.407 923.133 793.038 L923.133 798.449 Q920.683 799.595 918.041 800.168 Q915.431 800.741 912.471 800.741 Q904.418 800.741 899.676 795.68 Q894.933 790.619 894.933 782.025 Q894.933 773.304 899.708 768.307 Q904.514 763.31 912.853 763.31 Q915.558 763.31 918.136 763.883 Q920.714 764.424 923.133 765.538 Z" fill="#000000" fill-rule="nonzero" fill-opacity="1" /><polyline clip-path="url(#clip380)" style="stroke:#000000; stroke-linecap:round; stroke-linejoin:round; stroke-width:4; stroke-opacity:1; fill:none" points="356.931,637.674 356.931,198.685 "/>
<polyline clip-path="url(#clip380)" style="stroke:#000000; stroke-linecap:round; stroke-linejoin:round; stroke-width:4; stroke-opacity:1; fill:none" points="356.931,637.674 375.828,637.674 "/>
<polyline clip-path="url(#clip380)" style="stroke:#000000; stroke-linecap:round; stroke-linejoin:round; stroke-width:4; stroke-opacity:1; fill:none" points="356.931,418.18 375.828,418.18 "/>
<polyline clip-path="url(#clip380)" style="stroke:#000000; stroke-linecap:round; stroke-linejoin:round; stroke-width:4; stroke-opacity:1; fill:none" points="356.931,198.685 375.828,198.685 "/>
<path clip-path="url(#clip380)" d="M228.228 662.414 L237.777 662.414 L237.777 629.457 L227.389 631.54 L227.389 626.216 L237.719 624.133 L243.564 624.133 L243.564 662.414 L253.113 662.414 L253.113 667.333 L228.228 667.333 L228.228 662.414 Z" fill="#000000" fill-rule="nonzero" fill-opacity="1" /><path clip-path="url(#clip380)" d="M277.418 627.981 Q272.904 627.981 270.618 632.437 Q268.361 636.865 268.361 645.777 Q268.361 654.66 270.618 659.116 Q272.904 663.543 277.418 663.543 Q281.961 663.543 284.218 659.116 Q286.504 654.66 286.504 645.777 Q286.504 636.865 284.218 632.437 Q281.961 627.981 277.418 627.981 M277.418 623.352 Q284.681 623.352 288.5 629.11 Q292.349 634.839 292.349 645.777 Q292.349 656.685 288.5 662.443 Q284.681 668.172 277.418 668.172 Q270.155 668.172 266.307 662.443 Q262.488 656.685 262.488 645.777 Q262.488 634.839 266.307 629.11 Q270.155 623.352 277.418 623.352 Z" fill="#000000" fill-rule="nonzero" fill-opacity="1" /><path clip-path="url(#clip380)" d="M304.48 601.097 Q300.812 601.097 298.955 604.717 Q297.121 608.314 297.121 615.555 Q297.121 622.773 298.955 626.393 Q300.812 629.99 304.48 629.99 Q308.171 629.99 310.004 626.393 Q311.862 622.773 311.862 615.555 Q311.862 608.314 310.004 604.717 Q308.171 601.097 304.48 601.097 M304.48 597.335 Q310.38 597.335 313.484 602.014 Q316.611 606.669 316.611 615.555 Q316.611 624.419 313.484 629.097 Q310.38 633.752 304.48 633.752 Q298.579 633.752 295.452 629.097 Q292.349 624.419 292.349 615.555 Q292.349 606.669 295.452 602.014 Q298.579 597.335 304.48 597.335 Z" fill="#000000" fill-rule="nonzero" fill-opacity="1" /><path clip-path="url(#clip380)" d="M229.78 442.92 L239.329 442.92 L239.329 409.963 L228.941 412.046 L228.941 406.722 L239.271 404.639 L245.116 404.639 L245.116 442.92 L254.664 442.92 L254.664 447.839 L229.78 447.839 L229.78 442.92 Z" fill="#000000" fill-rule="nonzero" fill-opacity="1" /><path clip-path="url(#clip380)" d="M278.97 408.487 Q274.456 408.487 272.17 412.943 Q269.913 417.37 269.913 426.282 Q269.913 435.166 272.17 439.622 Q274.456 444.049 278.97 444.049 Q283.512 444.049 285.769 439.622 Q288.055 435.166 288.055 426.282 Q288.055 417.37 285.769 412.943 Q283.512 408.487 278.97 408.487 M278.97 403.858 Q286.232 403.858 290.052 409.616 Q293.9 415.345 293.9 426.282 Q293.9 437.191 290.052 442.949 Q286.232 448.678 278.97 448.678 Q271.707 448.678 267.859 442.949 Q264.039 437.191 264.039 426.282 Q264.039 415.345 267.859 409.616 Q271.707 403.858 278.97 403.858 Z" fill="#000000" fill-rule="nonzero" fill-opacity="1" /><path clip-path="url(#clip380)" d="M295.381 378.476 L314.024 378.476 L314.024 382.473 L299.731 382.473 L299.731 391.077 Q300.765 390.725 301.799 390.56 Q302.834 390.372 303.868 390.372 Q309.746 390.372 313.178 393.593 Q316.611 396.814 316.611 402.315 Q316.611 407.981 313.084 411.131 Q309.558 414.258 303.139 414.258 Q300.93 414.258 298.626 413.882 Q296.345 413.506 293.9 412.753 L293.9 407.981 Q296.016 409.133 298.273 409.697 Q300.53 410.261 303.045 410.261 Q307.113 410.261 309.487 408.122 Q311.862 405.982 311.862 402.315 Q311.862 398.647 309.487 396.508 Q307.113 394.369 303.045 394.369 Q301.141 394.369 299.237 394.792 Q297.356 395.215 295.381 396.108 L295.381 378.476 Z" fill="#000000" fill-rule="nonzero" fill-opacity="1" /><path clip-path="url(#clip380)" d="M199.711 223.426 L209.26 223.426 L209.26 190.469 L198.872 192.552 L198.872 187.228 L209.202 185.145 L215.047 185.145 L215.047 223.426 L224.595 223.426 L224.595 228.345 L199.711 228.345 L199.711 223.426 Z" fill="#000000" fill-rule="nonzero" fill-opacity="1" /><path clip-path="url(#clip380)" d="M248.901 188.993 Q244.387 188.993 242.101 193.449 Q239.844 197.876 239.844 206.788 Q239.844 215.671 242.101 220.127 Q244.387 224.555 248.901 224.555 Q253.444 224.555 255.7 220.127 Q257.986 215.671 257.986 206.788 Q257.986 197.876 255.7 193.449 Q253.444 188.993 248.901 188.993 M248.901 184.364 Q256.163 184.364 259.983 190.122 Q263.831 195.851 263.831 206.788 Q263.831 217.697 259.983 223.455 Q256.163 229.184 248.901 229.184 Q241.638 229.184 237.79 223.455 Q233.97 217.697 233.97 206.788 Q233.97 195.851 237.79 190.122 Q241.638 184.364 248.901 184.364 Z" fill="#000000" fill-rule="nonzero" fill-opacity="1" /><path clip-path="url(#clip380)" d="M264.513 190.085 L272.271 190.085 L272.271 163.308 L263.831 165 L263.831 160.675 L272.224 158.982 L276.973 158.982 L276.973 190.085 L284.731 190.085 L284.731 194.082 L264.513 194.082 L264.513 190.085 Z" fill="#000000" fill-rule="nonzero" fill-opacity="1" /><path clip-path="url(#clip380)" d="M304.48 162.109 Q300.812 162.109 298.955 165.729 Q297.121 169.326 297.121 176.567 Q297.121 183.785 298.955 187.405 Q300.812 191.002 304.48 191.002 Q308.171 191.002 310.004 187.405 Q311.862 183.785 311.862 176.567 Q311.862 169.326 310.004 165.729 Q308.171 162.109 304.48 162.109 M304.48 158.347 Q310.38 158.347 313.484 163.026 Q316.611 167.681 316.611 176.567 Q316.611 185.43 313.484 190.109 Q310.38 194.764 304.48 194.764 Q298.579 194.764 295.452 190.109 Q292.349 185.43 292.349 176.567 Q292.349 167.681 295.452 163.026 Q298.579 158.347 304.48 158.347 Z" fill="#000000" fill-rule="nonzero" fill-opacity="1" /><path clip-path="url(#clip380)" d="M122.016 630.396 Q122.716 628.327 125.008 626.386 Q127.3 624.413 131.31 622.439 L144.296 615.914 L144.296 622.821 L132.106 628.9 Q127.331 631.256 125.772 633.484 Q124.212 635.68 124.212 639.499 L124.212 646.502 L144.296 646.502 L144.296 652.931 L96.7761 652.931 L96.7761 638.417 Q96.7761 630.269 100.182 626.259 Q103.587 622.248 110.462 622.248 Q114.95 622.248 117.91 624.349 Q120.87 626.418 122.016 630.396 M102.06 646.502 L118.929 646.502 L118.929 638.417 Q118.929 633.77 116.796 631.415 Q114.632 629.028 110.462 629.028 Q106.293 629.028 104.192 631.415 Q102.06 633.77 102.06 638.417 L102.06 646.502 Z" fill="#000000" fill-rule="nonzero" fill-opacity="1" /><path clip-path="url(#clip380)" d="M125.008 580.33 L127.873 580.33 L127.873 607.257 Q133.92 606.875 137.103 603.629 Q140.254 600.35 140.254 594.526 Q140.254 591.152 139.426 588.001 Q138.599 584.818 136.944 581.699 L142.482 581.699 Q143.819 584.85 144.519 588.16 Q145.219 591.47 145.219 594.876 Q145.219 603.406 140.254 608.403 Q135.289 613.368 126.822 613.368 Q118.069 613.368 112.945 608.657 Q107.789 603.915 107.789 595.894 Q107.789 588.701 112.436 584.531 Q117.051 580.33 125.008 580.33 M123.289 586.186 Q118.483 586.25 115.619 588.892 Q112.754 591.502 112.754 595.831 Q112.754 600.732 115.523 603.692 Q118.292 606.62 123.321 607.066 L123.289 586.186 Z" fill="#000000" fill-rule="nonzero" fill-opacity="1" /><path clip-path="url(#clip380)" d="M109.698 547.992 L115.237 547.992 Q113.964 550.475 113.327 553.148 Q112.69 555.822 112.69 558.687 Q112.69 563.047 114.027 565.243 Q115.364 567.408 118.038 567.408 Q120.075 567.408 121.252 565.848 Q122.398 564.288 123.448 559.578 L123.894 557.573 Q125.231 551.334 127.682 548.724 Q130.101 546.083 134.461 546.083 Q139.426 546.083 142.323 550.029 Q145.219 553.944 145.219 560.819 Q145.219 563.684 144.646 566.803 Q144.105 569.89 142.991 573.328 L136.944 573.328 Q138.631 570.081 139.49 566.93 Q140.318 563.779 140.318 560.692 Q140.318 556.554 138.917 554.326 Q137.485 552.098 134.907 552.098 Q132.52 552.098 131.246 553.721 Q129.973 555.313 128.796 560.755 L128.318 562.792 Q127.172 568.235 124.817 570.654 Q122.43 573.073 118.292 573.073 Q113.263 573.073 110.526 569.508 Q107.789 565.944 107.789 559.387 Q107.789 556.14 108.266 553.276 Q108.744 550.411 109.698 547.992 Z" fill="#000000" fill-rule="nonzero" fill-opacity="1" /><path clip-path="url(#clip380)" d="M112.754 522.943 Q112.754 527.654 116.446 530.391 Q120.106 533.128 126.504 533.128 Q132.901 533.128 136.594 530.423 Q140.254 527.686 140.254 522.943 Q140.254 518.264 136.562 515.527 Q132.87 512.79 126.504 512.79 Q120.17 512.79 116.478 515.527 Q112.754 518.264 112.754 522.943 M107.789 522.943 Q107.789 515.304 112.754 510.944 Q117.719 506.583 126.504 506.583 Q135.257 506.583 140.254 510.944 Q145.219 515.304 145.219 522.943 Q145.219 530.614 140.254 534.974 Q135.257 539.303 126.504 539.303 Q117.719 539.303 112.754 534.974 Q107.789 530.614 107.789 522.943 Z" fill="#000000" fill-rule="nonzero" fill-opacity="1" /><path clip-path="url(#clip380)" d="M94.7709 496.876 L94.7709 491.019 L144.296 491.019 L144.296 496.876 L94.7709 496.876 Z" fill="#000000" fill-rule="nonzero" fill-opacity="1" /><path clip-path="url(#clip380)" d="M108.648 482.967 L108.648 476.76 L138.567 465.62 L108.648 454.48 L108.648 448.273 L144.296 461.641 L144.296 469.599 L108.648 482.967 Z" fill="#000000" fill-rule="nonzero" fill-opacity="1" /><path clip-path="url(#clip380)" d="M125.008 409.697 L127.873 409.697 L127.873 436.624 Q133.92 436.242 137.103 432.996 Q140.254 429.717 140.254 423.893 Q140.254 420.519 139.426 417.368 Q138.599 414.185 136.944 411.066 L142.482 411.066 Q143.819 414.217 144.519 417.527 Q145.219 420.837 145.219 424.243 Q145.219 432.773 140.254 437.77 Q135.289 442.735 126.822 442.735 Q118.069 442.735 112.945 438.025 Q107.789 433.282 107.789 425.261 Q107.789 418.068 112.436 413.899 Q117.051 409.697 125.008 409.697 M123.289 415.554 Q118.483 415.617 115.619 418.259 Q112.754 420.869 112.754 425.198 Q112.754 430.099 115.523 433.059 Q118.292 435.988 123.321 436.433 L123.289 415.554 Z" fill="#000000" fill-rule="nonzero" fill-opacity="1" /><path clip-path="url(#clip380)" d="M122.78 370.453 L144.296 370.453 L144.296 376.309 L122.971 376.309 Q117.91 376.309 115.396 378.282 Q112.881 380.256 112.881 384.203 Q112.881 388.945 115.905 391.682 Q118.929 394.42 124.149 394.42 L144.296 394.42 L144.296 400.308 L108.648 400.308 L108.648 394.42 L114.186 394.42 Q110.972 392.319 109.38 389.486 Q107.789 386.622 107.789 382.898 Q107.789 376.755 111.608 373.604 Q115.396 370.453 122.78 370.453 Z" fill="#000000" fill-rule="nonzero" fill-opacity="1" /><path clip-path="url(#clip380)" d="M98.5267 352.979 L108.648 352.979 L108.648 340.916 L113.2 340.916 L113.2 352.979 L132.551 352.979 Q136.912 352.979 138.153 351.801 Q139.394 350.592 139.394 346.931 L139.394 340.916 L144.296 340.916 L144.296 346.931 Q144.296 353.711 141.782 356.289 Q139.235 358.867 132.551 358.867 L113.2 358.867 L113.2 363.164 L108.648 363.164 L108.648 358.867 L98.5267 358.867 L98.5267 352.979 Z" fill="#000000" fill-rule="nonzero" fill-opacity="1" /><path clip-path="url(#clip380)" d="M126.058 289.035 Q119.693 289.035 116.191 291.677 Q112.69 294.287 112.69 299.029 Q112.69 303.74 116.191 306.382 Q119.693 308.992 126.058 308.992 Q132.392 308.992 135.893 306.382 Q139.394 303.74 139.394 299.029 Q139.394 294.287 135.893 291.677 Q132.392 289.035 126.058 289.035 M139.872 283.179 Q148.975 283.179 153.399 287.221 Q157.855 291.263 157.855 299.602 Q157.855 302.69 157.378 305.427 Q156.932 308.164 155.977 310.742 L150.28 310.742 Q151.68 308.164 152.349 305.65 Q153.017 303.135 153.017 300.525 Q153.017 294.764 149.993 291.9 Q147.002 289.035 140.922 289.035 L138.026 289.035 Q141.177 290.85 142.736 293.682 Q144.296 296.515 144.296 300.462 Q144.296 307.018 139.299 311.029 Q134.302 315.039 126.058 315.039 Q117.783 315.039 112.786 311.029 Q107.789 307.018 107.789 300.462 Q107.789 296.515 109.348 293.682 Q110.908 290.85 114.059 289.035 L108.648 289.035 L108.648 283.179 L139.872 283.179 Z" fill="#000000" fill-rule="nonzero" fill-opacity="1" /><path clip-path="url(#clip380)" d="M126.377 254.915 Q126.377 262.013 128 264.75 Q129.623 267.487 133.538 267.487 Q136.657 267.487 138.503 265.45 Q140.318 263.381 140.318 259.849 Q140.318 254.979 136.88 252.051 Q133.411 249.09 127.682 249.09 L126.377 249.09 L126.377 254.915 M123.958 243.234 L144.296 243.234 L144.296 249.09 L138.885 249.09 Q142.132 251.096 143.691 254.088 Q145.219 257.079 145.219 261.408 Q145.219 266.883 142.164 270.129 Q139.076 273.344 133.92 273.344 Q127.904 273.344 124.849 269.333 Q121.793 265.291 121.793 257.302 L121.793 249.09 L121.22 249.09 Q117.178 249.09 114.982 251.764 Q112.754 254.406 112.754 259.212 Q112.754 262.267 113.486 265.164 Q114.218 268.06 115.682 270.734 L110.271 270.734 Q109.03 267.519 108.425 264.495 Q107.789 261.472 107.789 258.607 Q107.789 250.873 111.799 247.053 Q115.81 243.234 123.958 243.234 Z" fill="#000000" fill-rule="nonzero" fill-opacity="1" /><path clip-path="url(#clip380)" d="M108.648 231.171 L108.648 225.315 L144.296 225.315 L144.296 231.171 L108.648 231.171 M94.7709 231.171 L94.7709 225.315 L102.187 225.315 L102.187 231.171 L94.7709 231.171 Z" fill="#000000" fill-rule="nonzero" fill-opacity="1" /><path clip-path="url(#clip380)" d="M122.78 183.428 L144.296 183.428 L144.296 189.285 L122.971 189.285 Q117.91 189.285 115.396 191.258 Q112.881 193.231 112.881 197.178 Q112.881 201.921 115.905 204.658 Q118.929 207.395 124.149 207.395 L144.296 207.395 L144.296 213.283 L108.648 213.283 L108.648 207.395 L114.186 207.395 Q110.972 205.294 109.38 202.462 Q107.789 199.597 107.789 195.873 Q107.789 189.73 111.608 186.579 Q115.396 183.428 122.78 183.428 Z" fill="#000000" fill-rule="nonzero" fill-opacity="1" /><path clip-path="url(#clip380)" d="M749.555 17.2777 L740.041 43.0762 L759.104 43.0762 L749.555 17.2777 M745.597 10.368 L753.548 10.368 L773.305 62.208 L766.013 62.208 L761.291 48.9095 L737.923 48.9095 L733.201 62.208 L725.805 62.208 L745.597 10.368 Z" fill="#000000" fill-rule="nonzero" fill-opacity="1" /><path clip-path="url(#clip380)" d="M787.888 37.4512 L787.888 56.4441 L799.138 56.4441 Q804.798 56.4441 807.506 54.1178 Q810.249 51.7567 810.249 46.9303 Q810.249 42.0692 807.506 39.7776 Q804.798 37.4512 799.138 37.4512 L787.888 37.4512 M787.888 16.1319 L787.888 31.7568 L798.27 31.7568 Q803.409 31.7568 805.909 29.8471 Q808.444 27.9026 808.444 23.9443 Q808.444 20.0207 805.909 18.0763 Q803.409 16.1319 798.27 16.1319 L787.888 16.1319 M780.874 10.368 L798.791 10.368 Q806.812 10.368 811.152 13.7013 Q815.492 17.0346 815.492 23.1804 Q815.492 27.9374 813.27 30.7498 Q811.048 33.5623 806.742 34.2568 Q811.916 35.3679 814.763 38.9095 Q817.645 42.4164 817.645 47.6942 Q817.645 54.6386 812.923 58.4233 Q808.201 62.208 799.485 62.208 L780.874 62.208 L780.874 10.368 Z" fill="#000000" fill-rule="nonzero" fill-opacity="1" /><polyline clip-path="url(#clip382)" style="stroke:#0000ff; stroke-linecap:round; stroke-linejoin:round; stroke-width:12; stroke-opacity:1; fill:none" points="380.409,348.227 576.067,376.765 771.725,388.039 967.383,412.276 1163.04,424.508 "/>
<polyline clip-path="url(#clip382)" style="stroke:#3f00bf; stroke-linecap:round; stroke-linejoin:round; stroke-width:12; stroke-opacity:1; fill:none" points="380.409,340.91 576.067,386.227 771.725,396.973 967.383,422.812 1163.04,436.963 "/>
<polyline clip-path="url(#clip382)" style="stroke:#7f007f; stroke-linecap:round; stroke-linejoin:round; stroke-width:12; stroke-opacity:1; fill:none" points="380.409,344.465 576.067,359.717 771.725,371.92 967.383,394.832 1163.04,397.988 "/>
<polyline clip-path="url(#clip382)" style="stroke:#bf003f; stroke-linecap:round; stroke-linejoin:round; stroke-width:12; stroke-opacity:1; fill:none" points="380.409,341.066 576.067,383.294 771.725,415.503 967.383,438.909 1163.04,470.211 "/>
<polyline clip-path="url(#clip382)" style="stroke:#ff0000; stroke-linecap:round; stroke-linejoin:round; stroke-width:12; stroke-opacity:1; fill:none" points="380.409,341.796 576.067,381.461 771.725,412.603 967.383,437.869 1163.04,463.817 "/>
<path clip-path="url(#clip380)" d="M1700.93 637.674 L2251.53 637.674 L2251.53 198.685 L1700.93 198.685  Z" fill="#ffffff" fill-rule="evenodd" fill-opacity="1"/>
<defs>
  <clipPath id="clip383">
    <rect x="1700" y="198" width="552" height="440"/>
  </clipPath>
</defs>
<polyline clip-path="url(#clip383)" style="stroke:#000000; stroke-linecap:round; stroke-linejoin:round; stroke-width:2; stroke-opacity:0.1; fill:none" points="1716.51,637.674 1716.51,198.685 "/>
<polyline clip-path="url(#clip383)" style="stroke:#000000; stroke-linecap:round; stroke-linejoin:round; stroke-width:2; stroke-opacity:0.1; fill:none" points="1846.37,637.674 1846.37,198.685 "/>
<polyline clip-path="url(#clip383)" style="stroke:#000000; stroke-linecap:round; stroke-linejoin:round; stroke-width:2; stroke-opacity:0.1; fill:none" points="1976.23,637.674 1976.23,198.685 "/>
<polyline clip-path="url(#clip383)" style="stroke:#000000; stroke-linecap:round; stroke-linejoin:round; stroke-width:2; stroke-opacity:0.1; fill:none" points="2106.09,637.674 2106.09,198.685 "/>
<polyline clip-path="url(#clip383)" style="stroke:#000000; stroke-linecap:round; stroke-linejoin:round; stroke-width:2; stroke-opacity:0.1; fill:none" points="2235.95,637.674 2235.95,198.685 "/>
<polyline clip-path="url(#clip383)" style="stroke:#000000; stroke-linecap:round; stroke-linejoin:round; stroke-width:2; stroke-opacity:0.1; fill:none" points="1700.93,637.674 2251.53,637.674 "/>
<polyline clip-path="url(#clip383)" style="stroke:#000000; stroke-linecap:round; stroke-linejoin:round; stroke-width:2; stroke-opacity:0.1; fill:none" points="1700.93,418.18 2251.53,418.18 "/>
<polyline clip-path="url(#clip383)" style="stroke:#000000; stroke-linecap:round; stroke-linejoin:round; stroke-width:2; stroke-opacity:0.1; fill:none" points="1700.93,198.685 2251.53,198.685 "/>
<polyline clip-path="url(#clip380)" style="stroke:#000000; stroke-linecap:round; stroke-linejoin:round; stroke-width:4; stroke-opacity:1; fill:none" points="1700.93,637.674 2251.53,637.674 "/>
<polyline clip-path="url(#clip380)" style="stroke:#000000; stroke-linecap:round; stroke-linejoin:round; stroke-width:4; stroke-opacity:1; fill:none" points="1716.51,637.674 1716.51,618.776 "/>
<polyline clip-path="url(#clip380)" style="stroke:#000000; stroke-linecap:round; stroke-linejoin:round; stroke-width:4; stroke-opacity:1; fill:none" points="1846.37,637.674 1846.37,618.776 "/>
<polyline clip-path="url(#clip380)" style="stroke:#000000; stroke-linecap:round; stroke-linejoin:round; stroke-width:4; stroke-opacity:1; fill:none" points="1976.23,637.674 1976.23,618.776 "/>
<polyline clip-path="url(#clip380)" style="stroke:#000000; stroke-linecap:round; stroke-linejoin:round; stroke-width:4; stroke-opacity:1; fill:none" points="2106.09,637.674 2106.09,618.776 "/>
<polyline clip-path="url(#clip380)" style="stroke:#000000; stroke-linecap:round; stroke-linejoin:round; stroke-width:4; stroke-opacity:1; fill:none" points="2235.95,637.674 2235.95,618.776 "/>
<path clip-path="url(#clip380)" d="M1704.49 708.259 L1714.04 708.259 L1714.04 675.302 L1703.65 677.385 L1703.65 672.061 L1713.98 669.978 L1719.83 669.978 L1719.83 708.259 L1729.38 708.259 L1729.38 713.178 L1704.49 713.178 L1704.49 708.259 Z" fill="#000000" fill-rule="nonzero" fill-opacity="1" /><path clip-path="url(#clip380)" d="M1839.69 708.259 L1860.09 708.259 L1860.09 713.178 L1832.66 713.178 L1832.66 708.259 Q1835.98 704.815 1841.71 699.028 Q1847.47 693.212 1848.95 691.534 Q1851.75 688.38 1852.85 686.21 Q1853.98 684.011 1853.98 681.899 Q1853.98 678.456 1851.55 676.285 Q1849.15 674.115 1845.27 674.115 Q1842.52 674.115 1839.46 675.07 Q1836.42 676.025 1832.95 677.964 L1832.95 672.061 Q1836.48 670.643 1839.54 669.92 Q1842.61 669.196 1845.16 669.196 Q1851.87 669.196 1855.86 672.553 Q1859.86 675.909 1859.86 681.523 Q1859.86 684.185 1858.84 686.586 Q1857.86 688.959 1855.23 692.2 Q1854.5 693.039 1850.63 697.061 Q1846.75 701.054 1839.69 708.259 Z" fill="#000000" fill-rule="nonzero" fill-opacity="1" /><path clip-path="url(#clip380)" d="M1981.54 689.885 Q1985.73 690.782 1988.08 693.618 Q1990.45 696.453 1990.45 700.62 Q1990.45 707.014 1986.05 710.516 Q1981.66 714.017 1973.55 714.017 Q1970.83 714.017 1967.94 713.467 Q1965.08 712.946 1962.01 711.876 L1962.01 706.233 Q1964.44 707.651 1967.33 708.374 Q1970.23 709.098 1973.38 709.098 Q1978.88 709.098 1981.74 706.928 Q1984.64 704.758 1984.64 700.62 Q1984.64 696.8 1981.94 694.659 Q1979.28 692.489 1974.51 692.489 L1969.47 692.489 L1969.47 687.686 L1974.74 687.686 Q1979.05 687.686 1981.34 685.979 Q1983.62 684.243 1983.62 681.002 Q1983.62 677.674 1981.25 675.909 Q1978.91 674.115 1974.51 674.115 Q1972.11 674.115 1969.36 674.636 Q1966.61 675.157 1963.31 676.257 L1963.31 671.048 Q1966.64 670.122 1969.53 669.659 Q1972.45 669.196 1975.03 669.196 Q1981.68 669.196 1985.56 672.235 Q1989.44 675.244 1989.44 680.394 Q1989.44 683.982 1987.38 686.471 Q1985.33 688.93 1981.54 689.885 Z" fill="#000000" fill-rule="nonzero" fill-opacity="1" /><path clip-path="url(#clip380)" d="M2109.85 675.07 L2095.09 698.131 L2109.85 698.131 L2109.85 675.07 M2108.32 669.978 L2115.67 669.978 L2115.67 698.131 L2121.83 698.131 L2121.83 702.992 L2115.67 702.992 L2115.67 713.178 L2109.85 713.178 L2109.85 702.992 L2090.35 702.992 L2090.35 697.35 L2108.32 669.978 Z" fill="#000000" fill-rule="nonzero" fill-opacity="1" /><path clip-path="url(#clip380)" d="M2223.79 669.978 L2246.74 669.978 L2246.74 674.897 L2229.15 674.897 L2229.15 685.487 Q2230.42 685.053 2231.69 684.85 Q2232.97 684.619 2234.24 684.619 Q2241.47 684.619 2245.7 688.583 Q2249.92 692.547 2249.92 699.318 Q2249.92 706.291 2245.58 710.168 Q2241.24 714.017 2233.34 714.017 Q2230.62 714.017 2227.79 713.554 Q2224.98 713.091 2221.97 712.165 L2221.97 706.291 Q2224.57 707.709 2227.35 708.403 Q2230.13 709.098 2233.23 709.098 Q2238.23 709.098 2241.15 706.465 Q2244.08 703.832 2244.08 699.318 Q2244.08 694.804 2241.15 692.171 Q2238.23 689.538 2233.23 689.538 Q2230.88 689.538 2228.54 690.059 Q2226.22 690.579 2223.79 691.679 L2223.79 669.978 Z" fill="#000000" fill-rule="nonzero" fill-opacity="1" /><path clip-path="url(#clip380)" d="M1824.82 752.298 L1831.25 752.298 L1831.25 771.777 L1854.61 771.777 L1854.61 752.298 L1861.04 752.298 L1861.04 799.818 L1854.61 799.818 L1854.61 777.188 L1831.25 777.188 L1831.25 799.818 L1824.82 799.818 L1824.82 752.298 Z" fill="#000000" fill-rule="nonzero" fill-opacity="1" /><path clip-path="url(#clip380)" d="M1889.78 781.898 Q1882.69 781.898 1879.95 783.521 Q1877.21 785.145 1877.21 789.06 Q1877.21 792.179 1879.25 794.025 Q1881.32 795.839 1884.85 795.839 Q1889.72 795.839 1892.65 792.402 Q1895.61 788.932 1895.61 783.203 L1895.61 781.898 L1889.78 781.898 M1901.46 779.479 L1901.46 799.818 L1895.61 799.818 L1895.61 794.407 Q1893.6 797.653 1890.61 799.213 Q1887.62 800.741 1883.29 800.741 Q1877.82 800.741 1874.57 797.685 Q1871.35 794.598 1871.35 789.442 Q1871.35 783.426 1875.37 780.37 Q1879.41 777.315 1887.4 777.315 L1895.61 777.315 L1895.61 776.742 Q1895.61 772.7 1892.93 770.504 Q1890.29 768.276 1885.49 768.276 Q1882.43 768.276 1879.53 769.008 Q1876.64 769.74 1873.96 771.204 L1873.96 765.793 Q1877.18 764.552 1880.2 763.947 Q1883.23 763.31 1886.09 763.31 Q1893.83 763.31 1897.65 767.321 Q1901.46 771.331 1901.46 779.479 Z" fill="#000000" fill-rule="nonzero" fill-opacity="1" /><path clip-path="url(#clip380)" d="M1934.18 769.644 Q1933.2 769.071 1932.02 768.817 Q1930.87 768.53 1929.47 768.53 Q1924.51 768.53 1921.83 771.777 Q1919.19 774.991 1919.19 781.039 L1919.19 799.818 L1913.3 799.818 L1913.3 764.17 L1919.19 764.17 L1919.19 769.708 Q1921.04 766.461 1924 764.902 Q1926.96 763.31 1931.19 763.31 Q1931.8 763.31 1932.53 763.406 Q1933.26 763.469 1934.15 763.629 L1934.18 769.644 Z" fill="#000000" fill-rule="nonzero" fill-opacity="1" /><path clip-path="url(#clip380)" d="M1966.94 771.013 Q1969.13 767.066 1972.19 765.188 Q1975.24 763.31 1979.38 763.31 Q1984.95 763.31 1987.97 767.225 Q1991 771.108 1991 778.302 L1991 799.818 L1985.11 799.818 L1985.11 778.493 Q1985.11 773.368 1983.3 770.885 Q1981.48 768.403 1977.76 768.403 Q1973.21 768.403 1970.56 771.427 Q1967.92 774.45 1967.92 779.67 L1967.92 799.818 L1962.03 799.818 L1962.03 778.493 Q1962.03 773.336 1960.22 770.885 Q1958.41 768.403 1954.62 768.403 Q1950.13 768.403 1947.49 771.458 Q1944.85 774.482 1944.85 779.67 L1944.85 799.818 L1938.96 799.818 L1938.96 764.17 L1944.85 764.17 L1944.85 769.708 Q1946.85 766.429 1949.65 764.87 Q1952.45 763.31 1956.31 763.31 Q1960.19 763.31 1962.89 765.284 Q1965.63 767.257 1966.94 771.013 Z" fill="#000000" fill-rule="nonzero" fill-opacity="1" /><path clip-path="url(#clip380)" d="M2016.49 768.276 Q2011.78 768.276 2009.05 771.968 Q2006.31 775.628 2006.31 782.025 Q2006.31 788.423 2009.01 792.115 Q2011.75 795.775 2016.49 795.775 Q2021.17 795.775 2023.91 792.083 Q2026.65 788.391 2026.65 782.025 Q2026.65 775.692 2023.91 771.999 Q2021.17 768.276 2016.49 768.276 M2016.49 763.31 Q2024.13 763.31 2028.49 768.276 Q2032.85 773.241 2032.85 782.025 Q2032.85 790.778 2028.49 795.775 Q2024.13 800.741 2016.49 800.741 Q2008.82 800.741 2004.46 795.775 Q2000.13 790.778 2000.13 782.025 Q2000.13 773.241 2004.46 768.276 Q2008.82 763.31 2016.49 763.31 Z" fill="#000000" fill-rule="nonzero" fill-opacity="1" /><path clip-path="url(#clip380)" d="M2072.19 778.302 L2072.19 799.818 L2066.34 799.818 L2066.34 778.493 Q2066.34 773.432 2064.36 770.917 Q2062.39 768.403 2058.44 768.403 Q2053.7 768.403 2050.96 771.427 Q2048.23 774.45 2048.23 779.67 L2048.23 799.818 L2042.34 799.818 L2042.34 764.17 L2048.23 764.17 L2048.23 769.708 Q2050.33 766.493 2053.16 764.902 Q2056.02 763.31 2059.75 763.31 Q2065.89 763.31 2069.04 767.13 Q2072.19 770.917 2072.19 778.302 Z" fill="#000000" fill-rule="nonzero" fill-opacity="1" /><path clip-path="url(#clip380)" d="M2083.87 764.17 L2089.73 764.17 L2089.73 799.818 L2083.87 799.818 L2083.87 764.17 M2083.87 750.292 L2089.73 750.292 L2089.73 757.708 L2083.87 757.708 L2083.87 750.292 Z" fill="#000000" fill-rule="nonzero" fill-opacity="1" /><path clip-path="url(#clip380)" d="M2127.64 765.538 L2127.64 771.013 Q2125.16 769.644 2122.64 768.976 Q2120.16 768.276 2117.61 768.276 Q2111.91 768.276 2108.76 771.904 Q2105.61 775.501 2105.61 782.025 Q2105.61 788.55 2108.76 792.179 Q2111.91 795.775 2117.61 795.775 Q2120.16 795.775 2122.64 795.107 Q2125.16 794.407 2127.64 793.038 L2127.64 798.449 Q2125.19 799.595 2122.55 800.168 Q2119.94 800.741 2116.98 800.741 Q2108.92 800.741 2104.18 795.68 Q2099.44 790.619 2099.44 782.025 Q2099.44 773.304 2104.21 768.307 Q2109.02 763.31 2117.36 763.31 Q2120.06 763.31 2122.64 763.883 Q2125.22 764.424 2127.64 765.538 Z" fill="#000000" fill-rule="nonzero" fill-opacity="1" /><polyline clip-path="url(#clip380)" style="stroke:#000000; stroke-linecap:round; stroke-linejoin:round; stroke-width:4; stroke-opacity:1; fill:none" points="1700.93,637.674 1700.93,198.685 "/>
<polyline clip-path="url(#clip380)" style="stroke:#000000; stroke-linecap:round; stroke-linejoin:round; stroke-width:4; stroke-opacity:1; fill:none" points="1700.93,637.674 1713.47,637.674 "/>
<polyline clip-path="url(#clip380)" style="stroke:#000000; stroke-linecap:round; stroke-linejoin:round; stroke-width:4; stroke-opacity:1; fill:none" points="1700.93,418.18 1713.47,418.18 "/>
<polyline clip-path="url(#clip380)" style="stroke:#000000; stroke-linecap:round; stroke-linejoin:round; stroke-width:4; stroke-opacity:1; fill:none" points="1700.93,198.685 1713.47,198.685 "/>
<path clip-path="url(#clip380)" d="M1572.23 662.414 L1581.78 662.414 L1581.78 629.457 L1571.39 631.54 L1571.39 626.216 L1581.72 624.133 L1587.56 624.133 L1587.56 662.414 L1597.11 662.414 L1597.11 667.333 L1572.23 667.333 L1572.23 662.414 Z" fill="#000000" fill-rule="nonzero" fill-opacity="1" /><path clip-path="url(#clip380)" d="M1621.42 627.981 Q1616.9 627.981 1614.62 632.437 Q1612.36 636.865 1612.36 645.777 Q1612.36 654.66 1614.62 659.116 Q1616.9 663.543 1621.42 663.543 Q1625.96 663.543 1628.22 659.116 Q1630.5 654.66 1630.5 645.777 Q1630.5 636.865 1628.22 632.437 Q1625.96 627.981 1621.42 627.981 M1621.42 623.352 Q1628.68 623.352 1632.5 629.11 Q1636.35 634.839 1636.35 645.777 Q1636.35 656.685 1632.5 662.443 Q1628.68 668.172 1621.42 668.172 Q1614.16 668.172 1610.31 662.443 Q1606.49 656.685 1606.49 645.777 Q1606.49 634.839 1610.31 629.11 Q1614.16 623.352 1621.42 623.352 Z" fill="#000000" fill-rule="nonzero" fill-opacity="1" /><path clip-path="url(#clip380)" d="M1648.48 601.097 Q1644.81 601.097 1642.95 604.717 Q1641.12 608.314 1641.12 615.555 Q1641.12 622.773 1642.95 626.393 Q1644.81 629.99 1648.48 629.99 Q1652.17 629.99 1654 626.393 Q1655.86 622.773 1655.86 615.555 Q1655.86 608.314 1654 604.717 Q1652.17 601.097 1648.48 601.097 M1648.48 597.335 Q1654.38 597.335 1657.48 602.014 Q1660.61 606.669 1660.61 615.555 Q1660.61 624.419 1657.48 629.097 Q1654.38 633.752 1648.48 633.752 Q1642.58 633.752 1639.45 629.097 Q1636.35 624.419 1636.35 615.555 Q1636.35 606.669 1639.45 602.014 Q1642.58 597.335 1648.48 597.335 Z" fill="#000000" fill-rule="nonzero" fill-opacity="1" /><path clip-path="url(#clip380)" d="M1573.78 442.92 L1583.33 442.92 L1583.33 409.963 L1572.94 412.046 L1572.94 406.722 L1583.27 404.639 L1589.12 404.639 L1589.12 442.92 L1598.66 442.92 L1598.66 447.839 L1573.78 447.839 L1573.78 442.92 Z" fill="#000000" fill-rule="nonzero" fill-opacity="1" /><path clip-path="url(#clip380)" d="M1622.97 408.487 Q1618.46 408.487 1616.17 412.943 Q1613.91 417.37 1613.91 426.282 Q1613.91 435.166 1616.17 439.622 Q1618.46 444.049 1622.97 444.049 Q1627.51 444.049 1629.77 439.622 Q1632.06 435.166 1632.06 426.282 Q1632.06 417.37 1629.77 412.943 Q1627.51 408.487 1622.97 408.487 M1622.97 403.858 Q1630.23 403.858 1634.05 409.616 Q1637.9 415.345 1637.9 426.282 Q1637.9 437.191 1634.05 442.949 Q1630.23 448.678 1622.97 448.678 Q1615.71 448.678 1611.86 442.949 Q1608.04 437.191 1608.04 426.282 Q1608.04 415.345 1611.86 409.616 Q1615.71 403.858 1622.97 403.858 Z" fill="#000000" fill-rule="nonzero" fill-opacity="1" /><path clip-path="url(#clip380)" d="M1639.38 378.476 L1658.02 378.476 L1658.02 382.473 L1643.73 382.473 L1643.73 391.077 Q1644.76 390.725 1645.8 390.56 Q1646.83 390.372 1647.87 390.372 Q1653.75 390.372 1657.18 393.593 Q1660.61 396.814 1660.61 402.315 Q1660.61 407.981 1657.08 411.131 Q1653.56 414.258 1647.14 414.258 Q1644.93 414.258 1642.63 413.882 Q1640.35 413.506 1637.9 412.753 L1637.9 407.981 Q1640.02 409.133 1642.27 409.697 Q1644.53 410.261 1647.05 410.261 Q1651.11 410.261 1653.49 408.122 Q1655.86 405.982 1655.86 402.315 Q1655.86 398.647 1653.49 396.508 Q1651.11 394.369 1647.05 394.369 Q1645.14 394.369 1643.24 394.792 Q1641.36 395.215 1639.38 396.108 L1639.38 378.476 Z" fill="#000000" fill-rule="nonzero" fill-opacity="1" /><path clip-path="url(#clip380)" d="M1543.71 223.426 L1553.26 223.426 L1553.26 190.469 L1542.87 192.552 L1542.87 187.228 L1553.2 185.145 L1559.05 185.145 L1559.05 223.426 L1568.6 223.426 L1568.6 228.345 L1543.71 228.345 L1543.71 223.426 Z" fill="#000000" fill-rule="nonzero" fill-opacity="1" /><path clip-path="url(#clip380)" d="M1592.9 188.993 Q1588.39 188.993 1586.1 193.449 Q1583.84 197.876 1583.84 206.788 Q1583.84 215.671 1586.1 220.127 Q1588.39 224.555 1592.9 224.555 Q1597.44 224.555 1599.7 220.127 Q1601.99 215.671 1601.99 206.788 Q1601.99 197.876 1599.7 193.449 Q1597.44 188.993 1592.9 188.993 M1592.9 184.364 Q1600.16 184.364 1603.98 190.122 Q1607.83 195.851 1607.83 206.788 Q1607.83 217.697 1603.98 223.455 Q1600.16 229.184 1592.9 229.184 Q1585.64 229.184 1581.79 223.455 Q1577.97 217.697 1577.97 206.788 Q1577.97 195.851 1581.79 190.122 Q1585.64 184.364 1592.9 184.364 Z" fill="#000000" fill-rule="nonzero" fill-opacity="1" /><path clip-path="url(#clip380)" d="M1608.51 190.085 L1616.27 190.085 L1616.27 163.308 L1607.83 165 L1607.83 160.675 L1616.22 158.982 L1620.97 158.982 L1620.97 190.085 L1628.73 190.085 L1628.73 194.082 L1608.51 194.082 L1608.51 190.085 Z" fill="#000000" fill-rule="nonzero" fill-opacity="1" /><path clip-path="url(#clip380)" d="M1648.48 162.109 Q1644.81 162.109 1642.95 165.729 Q1641.12 169.326 1641.12 176.567 Q1641.12 183.785 1642.95 187.405 Q1644.81 191.002 1648.48 191.002 Q1652.17 191.002 1654 187.405 Q1655.86 183.785 1655.86 176.567 Q1655.86 169.326 1654 165.729 Q1652.17 162.109 1648.48 162.109 M1648.48 158.347 Q1654.38 158.347 1657.48 163.026 Q1660.61 167.681 1660.61 176.567 Q1660.61 185.43 1657.48 190.109 Q1654.38 194.764 1648.48 194.764 Q1642.58 194.764 1639.45 190.109 Q1636.35 185.43 1636.35 176.567 Q1636.35 167.681 1639.45 163.026 Q1642.58 158.347 1648.48 158.347 Z" fill="#000000" fill-rule="nonzero" fill-opacity="1" /><path clip-path="url(#clip380)" d="M1466.02 630.396 Q1466.72 628.327 1469.01 626.386 Q1471.3 624.413 1475.31 622.439 L1488.3 615.914 L1488.3 622.821 L1476.11 628.9 Q1471.33 631.256 1469.77 633.484 Q1468.21 635.68 1468.21 639.499 L1468.21 646.502 L1488.3 646.502 L1488.3 652.931 L1440.78 652.931 L1440.78 638.417 Q1440.78 630.269 1444.18 626.259 Q1447.59 622.248 1454.46 622.248 Q1458.95 622.248 1461.91 624.349 Q1464.87 626.418 1466.02 630.396 M1446.06 646.502 L1462.93 646.502 L1462.93 638.417 Q1462.93 633.77 1460.8 631.415 Q1458.63 629.028 1454.46 629.028 Q1450.29 629.028 1448.19 631.415 Q1446.06 633.77 1446.06 638.417 L1446.06 646.502 Z" fill="#000000" fill-rule="nonzero" fill-opacity="1" /><path clip-path="url(#clip380)" d="M1469.01 580.33 L1471.87 580.33 L1471.87 607.257 Q1477.92 606.875 1481.1 603.629 Q1484.25 600.35 1484.25 594.526 Q1484.25 591.152 1483.43 588.001 Q1482.6 584.818 1480.94 581.699 L1486.48 581.699 Q1487.82 584.85 1488.52 588.16 Q1489.22 591.47 1489.22 594.876 Q1489.22 603.406 1484.25 608.403 Q1479.29 613.368 1470.82 613.368 Q1462.07 613.368 1456.94 608.657 Q1451.79 603.915 1451.79 595.894 Q1451.79 588.701 1456.44 584.531 Q1461.05 580.33 1469.01 580.33 M1467.29 586.186 Q1462.48 586.25 1459.62 588.892 Q1456.75 591.502 1456.75 595.831 Q1456.75 600.732 1459.52 603.692 Q1462.29 606.62 1467.32 607.066 L1467.29 586.186 Z" fill="#000000" fill-rule="nonzero" fill-opacity="1" /><path clip-path="url(#clip380)" d="M1453.7 547.992 L1459.24 547.992 Q1457.96 550.475 1457.33 553.148 Q1456.69 555.822 1456.69 558.687 Q1456.69 563.047 1458.03 565.243 Q1459.36 567.408 1462.04 567.408 Q1464.07 567.408 1465.25 565.848 Q1466.4 564.288 1467.45 559.578 L1467.89 557.573 Q1469.23 551.334 1471.68 548.724 Q1474.1 546.083 1478.46 546.083 Q1483.43 546.083 1486.32 550.029 Q1489.22 553.944 1489.22 560.819 Q1489.22 563.684 1488.65 566.803 Q1488.11 569.89 1486.99 573.328 L1480.94 573.328 Q1482.63 570.081 1483.49 566.93 Q1484.32 563.779 1484.32 560.692 Q1484.32 556.554 1482.92 554.326 Q1481.48 552.098 1478.91 552.098 Q1476.52 552.098 1475.25 553.721 Q1473.97 555.313 1472.8 560.755 L1472.32 562.792 Q1471.17 568.235 1468.82 570.654 Q1466.43 573.073 1462.29 573.073 Q1457.26 573.073 1454.53 569.508 Q1451.79 565.944 1451.79 559.387 Q1451.79 556.14 1452.27 553.276 Q1452.74 550.411 1453.7 547.992 Z" fill="#000000" fill-rule="nonzero" fill-opacity="1" /><path clip-path="url(#clip380)" d="M1456.75 522.943 Q1456.75 527.654 1460.45 530.391 Q1464.11 533.128 1470.5 533.128 Q1476.9 533.128 1480.59 530.423 Q1484.25 527.686 1484.25 522.943 Q1484.25 518.264 1480.56 515.527 Q1476.87 512.79 1470.5 512.79 Q1464.17 512.79 1460.48 515.527 Q1456.75 518.264 1456.75 522.943 M1451.79 522.943 Q1451.79 515.304 1456.75 510.944 Q1461.72 506.583 1470.5 506.583 Q1479.26 506.583 1484.25 510.944 Q1489.22 515.304 1489.22 522.943 Q1489.22 530.614 1484.25 534.974 Q1479.26 539.303 1470.5 539.303 Q1461.72 539.303 1456.75 534.974 Q1451.79 530.614 1451.79 522.943 Z" fill="#000000" fill-rule="nonzero" fill-opacity="1" /><path clip-path="url(#clip380)" d="M1438.77 496.876 L1438.77 491.019 L1488.3 491.019 L1488.3 496.876 L1438.77 496.876 Z" fill="#000000" fill-rule="nonzero" fill-opacity="1" /><path clip-path="url(#clip380)" d="M1452.65 482.967 L1452.65 476.76 L1482.57 465.62 L1452.65 454.48 L1452.65 448.273 L1488.3 461.641 L1488.3 469.599 L1452.65 482.967 Z" fill="#000000" fill-rule="nonzero" fill-opacity="1" /><path clip-path="url(#clip380)" d="M1469.01 409.697 L1471.87 409.697 L1471.87 436.624 Q1477.92 436.242 1481.1 432.996 Q1484.25 429.717 1484.25 423.893 Q1484.25 420.519 1483.43 417.368 Q1482.6 414.185 1480.94 411.066 L1486.48 411.066 Q1487.82 414.217 1488.52 417.527 Q1489.22 420.837 1489.22 424.243 Q1489.22 432.773 1484.25 437.77 Q1479.29 442.735 1470.82 442.735 Q1462.07 442.735 1456.94 438.025 Q1451.79 433.282 1451.79 425.261 Q1451.79 418.068 1456.44 413.899 Q1461.05 409.697 1469.01 409.697 M1467.29 415.554 Q1462.48 415.617 1459.62 418.259 Q1456.75 420.869 1456.75 425.198 Q1456.75 430.099 1459.52 433.059 Q1462.29 435.988 1467.32 436.433 L1467.29 415.554 Z" fill="#000000" fill-rule="nonzero" fill-opacity="1" /><path clip-path="url(#clip380)" d="M1466.78 370.453 L1488.3 370.453 L1488.3 376.309 L1466.97 376.309 Q1461.91 376.309 1459.4 378.282 Q1456.88 380.256 1456.88 384.203 Q1456.88 388.945 1459.91 391.682 Q1462.93 394.42 1468.15 394.42 L1488.3 394.42 L1488.3 400.308 L1452.65 400.308 L1452.65 394.42 L1458.19 394.42 Q1454.97 392.319 1453.38 389.486 Q1451.79 386.622 1451.79 382.898 Q1451.79 376.755 1455.61 373.604 Q1459.4 370.453 1466.78 370.453 Z" fill="#000000" fill-rule="nonzero" fill-opacity="1" /><path clip-path="url(#clip380)" d="M1442.53 352.979 L1452.65 352.979 L1452.65 340.916 L1457.2 340.916 L1457.2 352.979 L1476.55 352.979 Q1480.91 352.979 1482.15 351.801 Q1483.39 350.592 1483.39 346.931 L1483.39 340.916 L1488.3 340.916 L1488.3 346.931 Q1488.3 353.711 1485.78 356.289 Q1483.24 358.867 1476.55 358.867 L1457.2 358.867 L1457.2 363.164 L1452.65 363.164 L1452.65 358.867 L1442.53 358.867 L1442.53 352.979 Z" fill="#000000" fill-rule="nonzero" fill-opacity="1" /><path clip-path="url(#clip380)" d="M1470.06 289.035 Q1463.69 289.035 1460.19 291.677 Q1456.69 294.287 1456.69 299.029 Q1456.69 303.74 1460.19 306.382 Q1463.69 308.992 1470.06 308.992 Q1476.39 308.992 1479.89 306.382 Q1483.39 303.74 1483.39 299.029 Q1483.39 294.287 1479.89 291.677 Q1476.39 289.035 1470.06 289.035 M1483.87 283.179 Q1492.97 283.179 1497.4 287.221 Q1501.86 291.263 1501.86 299.602 Q1501.86 302.69 1501.38 305.427 Q1500.93 308.164 1499.98 310.742 L1494.28 310.742 Q1495.68 308.164 1496.35 305.65 Q1497.02 303.135 1497.02 300.525 Q1497.02 294.764 1493.99 291.9 Q1491 289.035 1484.92 289.035 L1482.03 289.035 Q1485.18 290.85 1486.74 293.682 Q1488.3 296.515 1488.3 300.462 Q1488.3 307.018 1483.3 311.029 Q1478.3 315.039 1470.06 315.039 Q1461.78 315.039 1456.79 311.029 Q1451.79 307.018 1451.79 300.462 Q1451.79 296.515 1453.35 293.682 Q1454.91 290.85 1458.06 289.035 L1452.65 289.035 L1452.65 283.179 L1483.87 283.179 Z" fill="#000000" fill-rule="nonzero" fill-opacity="1" /><path clip-path="url(#clip380)" d="M1470.38 254.915 Q1470.38 262.013 1472 264.75 Q1473.62 267.487 1477.54 267.487 Q1480.66 267.487 1482.5 265.45 Q1484.32 263.381 1484.32 259.849 Q1484.32 254.979 1480.88 252.051 Q1477.41 249.09 1471.68 249.09 L1470.38 249.09 L1470.38 254.915 M1467.96 243.234 L1488.3 243.234 L1488.3 249.09 L1482.89 249.09 Q1486.13 251.096 1487.69 254.088 Q1489.22 257.079 1489.22 261.408 Q1489.22 266.883 1486.16 270.129 Q1483.08 273.344 1477.92 273.344 Q1471.9 273.344 1468.85 269.333 Q1465.79 265.291 1465.79 257.302 L1465.79 249.09 L1465.22 249.09 Q1461.18 249.09 1458.98 251.764 Q1456.75 254.406 1456.75 259.212 Q1456.75 262.267 1457.49 265.164 Q1458.22 268.06 1459.68 270.734 L1454.27 270.734 Q1453.03 267.519 1452.43 264.495 Q1451.79 261.472 1451.79 258.607 Q1451.79 250.873 1455.8 247.053 Q1459.81 243.234 1467.96 243.234 Z" fill="#000000" fill-rule="nonzero" fill-opacity="1" /><path clip-path="url(#clip380)" d="M1452.65 231.171 L1452.65 225.315 L1488.3 225.315 L1488.3 231.171 L1452.65 231.171 M1438.77 231.171 L1438.77 225.315 L1446.19 225.315 L1446.19 231.171 L1438.77 231.171 Z" fill="#000000" fill-rule="nonzero" fill-opacity="1" /><path clip-path="url(#clip380)" d="M1466.78 183.428 L1488.3 183.428 L1488.3 189.285 L1466.97 189.285 Q1461.91 189.285 1459.4 191.258 Q1456.88 193.231 1456.88 197.178 Q1456.88 201.921 1459.91 204.658 Q1462.93 207.395 1468.15 207.395 L1488.3 207.395 L1488.3 213.283 L1452.65 213.283 L1452.65 207.395 L1458.19 207.395 Q1454.97 205.294 1453.38 202.462 Q1451.79 199.597 1451.79 195.873 Q1451.79 189.73 1455.61 186.579 Q1459.4 183.428 1466.78 183.428 Z" fill="#000000" fill-rule="nonzero" fill-opacity="1" /><path clip-path="url(#clip380)" d="M1900.54 12.0694 L1900.54 18.9096 Q1896.54 16.9999 1893 16.0624 Q1889.46 15.1249 1886.16 15.1249 Q1880.43 15.1249 1877.31 17.3471 Q1874.22 19.5693 1874.22 23.6665 Q1874.22 27.104 1876.27 28.8748 Q1878.35 30.6109 1884.11 31.6873 L1888.35 32.5554 Q1896.2 34.0484 1899.91 37.8331 Q1903.66 41.5831 1903.66 47.9025 Q1903.66 55.4372 1898.59 59.3261 Q1893.56 63.2149 1883.8 63.2149 Q1880.12 63.2149 1875.95 62.3816 Q1871.82 61.5483 1867.38 59.9163 L1867.38 52.6942 Q1871.65 55.09 1875.74 56.3053 Q1879.84 57.5205 1883.8 57.5205 Q1889.81 57.5205 1893.07 55.1594 Q1896.33 52.7983 1896.33 48.4234 Q1896.33 44.6039 1893.97 42.4512 Q1891.65 40.2984 1886.3 39.222 L1882.03 38.3887 Q1874.18 36.8262 1870.67 33.4929 Q1867.17 30.1596 1867.17 24.2221 Q1867.17 17.3471 1871.99 13.3888 Q1876.86 9.43051 1885.36 9.43051 Q1889.01 9.43051 1892.79 10.0902 Q1896.58 10.7499 1900.54 12.0694 Z" fill="#000000" fill-rule="nonzero" fill-opacity="1" /><path clip-path="url(#clip380)" d="M1920.64 12.2777 L1920.64 23.3193 L1933.8 23.3193 L1933.8 28.2846 L1920.64 28.2846 L1920.64 49.3956 Q1920.64 54.1525 1921.92 55.5066 Q1923.24 56.8608 1927.24 56.8608 L1933.8 56.8608 L1933.8 62.208 L1927.24 62.208 Q1919.84 62.208 1917.03 59.465 Q1914.22 56.6872 1914.22 49.3956 L1914.22 28.2846 L1909.53 28.2846 L1909.53 23.3193 L1914.22 23.3193 L1914.22 12.2777 L1920.64 12.2777 Z" fill="#000000" fill-rule="nonzero" fill-opacity="1" /><path clip-path="url(#clip380)" d="M1964.74 29.2915 Q1963.66 28.6665 1962.38 28.3887 Q1961.13 28.0762 1959.6 28.0762 Q1954.18 28.0762 1951.26 31.6179 Q1948.38 35.1248 1948.38 41.722 L1948.38 62.208 L1941.96 62.208 L1941.96 23.3193 L1948.38 23.3193 L1948.38 29.361 Q1950.4 25.8193 1953.63 24.1179 Q1956.85 22.3818 1961.47 22.3818 Q1962.13 22.3818 1962.93 22.486 Q1963.73 22.5554 1964.7 22.729 L1964.74 29.2915 Z" fill="#000000" fill-rule="nonzero" fill-opacity="1" /><path clip-path="url(#clip380)" d="M1984.95 27.7985 Q1979.81 27.7985 1976.82 31.8262 Q1973.83 35.8193 1973.83 42.7984 Q1973.83 49.7775 1976.79 53.8053 Q1979.77 57.7983 1984.95 57.7983 Q1990.05 57.7983 1993.04 53.7705 Q1996.02 49.7428 1996.02 42.7984 Q1996.02 35.8887 1993.04 31.8609 Q1990.05 27.7985 1984.95 27.7985 M1984.95 22.3818 Q1993.28 22.3818 1998.04 27.7985 Q2002.79 33.2151 2002.79 42.7984 Q2002.79 52.3469 1998.04 57.7983 Q1993.28 63.2149 1984.95 63.2149 Q1976.58 63.2149 1971.82 57.7983 Q1967.1 52.3469 1967.1 42.7984 Q1967.1 33.2151 1971.82 27.7985 Q1976.58 22.3818 1984.95 22.3818 Z" fill="#000000" fill-rule="nonzero" fill-opacity="1" /><path clip-path="url(#clip380)" d="M2013.14 8.18051 L2019.56 8.18051 L2019.56 40.0901 L2038.63 23.3193 L2046.78 23.3193 L2026.16 41.5137 L2047.65 62.208 L2039.32 62.208 L2019.56 43.215 L2019.56 62.208 L2013.14 62.208 L2013.14 8.18051 Z" fill="#000000" fill-rule="nonzero" fill-opacity="1" /><path clip-path="url(#clip380)" d="M2085.29 41.1664 L2085.29 44.2914 L2055.92 44.2914 Q2056.33 50.8886 2059.88 54.3608 Q2063.45 57.7983 2069.81 57.7983 Q2073.49 57.7983 2076.92 56.8955 Q2080.4 55.9928 2083.8 54.1872 L2083.8 60.2288 Q2080.36 61.6872 2076.75 62.4511 Q2073.14 63.2149 2069.42 63.2149 Q2060.12 63.2149 2054.67 57.7983 Q2049.25 52.3817 2049.25 43.1456 Q2049.25 33.597 2054.39 28.0068 Q2059.56 22.3818 2068.31 22.3818 Q2076.16 22.3818 2080.71 27.4512 Q2085.29 32.4859 2085.29 41.1664 M2078.9 39.2915 Q2078.83 34.0484 2075.95 30.9234 Q2073.1 27.7985 2068.38 27.7985 Q2063.03 27.7985 2059.81 30.8193 Q2056.61 33.8401 2056.13 39.3262 L2078.9 39.2915 Z" fill="#000000" fill-rule="nonzero" fill-opacity="1" /><polyline clip-path="url(#clip383)" style="stroke:#0000ff; stroke-linecap:round; stroke-linejoin:round; stroke-width:12; stroke-opacity:1; fill:none" points="1716.51,331.06 1846.37,363.975 1976.23,376.632 2106.09,404.438 2235.95,412.114 "/>
<polyline clip-path="url(#clip383)" style="stroke:#5500aa; stroke-linecap:round; stroke-linejoin:round; stroke-width:12; stroke-opacity:1; fill:none" points="1716.51,324.418 1846.37,367.715 1976.23,384.076 2106.09,397.493 2235.95,412.862 "/>
<polyline clip-path="url(#clip383)" style="stroke:#aa0055; stroke-linecap:round; stroke-linejoin:round; stroke-width:12; stroke-opacity:1; fill:none" points="1716.51,318.332 1846.37,386.36 1976.23,411.926 2106.09,468.716 2235.95,513.4 "/>
<polyline clip-path="url(#clip383)" style="stroke:#ff0000; stroke-linecap:round; stroke-linejoin:round; stroke-width:12; stroke-opacity:1; fill:none" points="1716.51,301.63 1846.37,367.93 1976.23,404.541 2106.09,450.662 2235.95,496.181 "/>
<path clip-path="url(#clip380)" d="M2279.18 536.492 L2530.52 536.492 L2530.52 277.292 L2279.18 277.292  Z" fill="#ffffff" fill-rule="evenodd" fill-opacity="1"/>
<polyline clip-path="url(#clip380)" style="stroke:#000000; stroke-linecap:round; stroke-linejoin:round; stroke-width:4; stroke-opacity:1; fill:none" points="2279.18,536.492 2530.52,536.492 2530.52,277.292 2279.18,277.292 2279.18,536.492 "/>
<polyline clip-path="url(#clip380)" style="stroke:#0000ff; stroke-linecap:round; stroke-linejoin:round; stroke-width:12; stroke-opacity:1; fill:none" points="2288.4,329.132 2343.71,329.132 "/>
<path clip-path="url(#clip380)" d="M2382.6 323.079 L2358.71 331.575 L2382.6 340.024 L2382.6 344.237 L2352.92 333.473 L2352.92 329.63 L2382.6 318.866 L2382.6 323.079 Z" fill="#000000" fill-rule="nonzero" fill-opacity="1" /><path clip-path="url(#clip380)" d="M2405.54 315.927 L2393.73 334.376 L2405.54 334.376 L2405.54 315.927 M2404.31 311.852 L2410.19 311.852 L2410.19 334.376 L2415.12 334.376 L2415.12 338.264 L2410.19 338.264 L2410.19 346.412 L2405.54 346.412 L2405.54 338.264 L2389.94 338.264 L2389.94 333.751 L2404.31 311.852 Z" fill="#000000" fill-rule="nonzero" fill-opacity="1" /><path clip-path="url(#clip380)" d="M2432.85 314.931 Q2429.24 314.931 2427.41 318.496 Q2425.61 322.038 2425.61 329.167 Q2425.61 336.274 2427.41 339.838 Q2429.24 343.38 2432.85 343.38 Q2436.49 343.38 2438.29 339.838 Q2440.12 336.274 2440.12 329.167 Q2440.12 322.038 2438.29 318.496 Q2436.49 314.931 2432.85 314.931 M2432.85 311.227 Q2438.66 311.227 2441.72 315.834 Q2444.8 320.417 2444.8 329.167 Q2444.8 337.894 2441.72 342.5 Q2438.66 347.084 2432.85 347.084 Q2427.04 347.084 2423.96 342.5 Q2420.91 337.894 2420.91 329.167 Q2420.91 320.417 2423.96 315.834 Q2427.04 311.227 2432.85 311.227 Z" fill="#000000" fill-rule="nonzero" fill-opacity="1" /><polyline clip-path="url(#clip380)" style="stroke:#5500aa; stroke-linecap:round; stroke-linejoin:round; stroke-width:12; stroke-opacity:1; fill:none" points="2288.4,380.972 2343.71,380.972 "/>
<path clip-path="url(#clip380)" d="M2368.53 367.767 L2356.72 386.216 L2368.53 386.216 L2368.53 367.767 M2367.3 363.692 L2373.18 363.692 L2373.18 386.216 L2378.11 386.216 L2378.11 390.104 L2373.18 390.104 L2373.18 398.252 L2368.53 398.252 L2368.53 390.104 L2352.92 390.104 L2352.92 385.591 L2367.3 363.692 Z" fill="#000000" fill-rule="nonzero" fill-opacity="1" /><path clip-path="url(#clip380)" d="M2395.84 366.771 Q2392.23 366.771 2390.4 370.336 Q2388.59 373.878 2388.59 381.007 Q2388.59 388.114 2390.4 391.678 Q2392.23 395.22 2395.84 395.22 Q2399.47 395.22 2401.28 391.678 Q2403.11 388.114 2403.11 381.007 Q2403.11 373.878 2401.28 370.336 Q2399.47 366.771 2395.84 366.771 M2395.84 363.067 Q2401.65 363.067 2404.71 367.674 Q2407.78 372.257 2407.78 381.007 Q2407.78 389.734 2404.71 394.34 Q2401.65 398.924 2395.84 398.924 Q2390.03 398.924 2386.95 394.34 Q2383.9 389.734 2383.9 381.007 Q2383.9 372.257 2386.95 367.674 Q2390.03 363.067 2395.84 363.067 Z" fill="#000000" fill-rule="nonzero" fill-opacity="1" /><path clip-path="url(#clip380)" d="M2413.25 383.6 L2432.32 383.6 L2432.32 386.933 L2413.25 386.933 L2413.25 383.6 Z" fill="#000000" fill-rule="nonzero" fill-opacity="1" /><path clip-path="url(#clip380)" d="M2450.28 379.109 Q2447.14 379.109 2445.28 381.262 Q2443.46 383.415 2443.46 387.165 Q2443.46 390.891 2445.28 393.067 Q2447.14 395.22 2450.28 395.22 Q2453.43 395.22 2455.26 393.067 Q2457.11 390.891 2457.11 387.165 Q2457.11 383.415 2455.26 381.262 Q2453.43 379.109 2450.28 379.109 M2459.57 364.456 L2459.57 368.716 Q2457.81 367.882 2456 367.442 Q2454.22 367.003 2452.46 367.003 Q2447.83 367.003 2445.38 370.128 Q2442.95 373.253 2442.6 379.572 Q2443.96 377.558 2446.02 376.493 Q2448.08 375.405 2450.56 375.405 Q2455.77 375.405 2458.78 378.577 Q2461.81 381.725 2461.81 387.165 Q2461.81 392.489 2458.66 395.706 Q2455.52 398.924 2450.28 398.924 Q2444.29 398.924 2441.12 394.34 Q2437.95 389.734 2437.95 381.007 Q2437.95 372.813 2441.83 367.952 Q2445.72 363.067 2452.27 363.067 Q2454.03 363.067 2455.82 363.415 Q2457.62 363.762 2459.57 364.456 Z" fill="#000000" fill-rule="nonzero" fill-opacity="1" /><path clip-path="url(#clip380)" d="M2479.87 366.771 Q2476.26 366.771 2474.43 370.336 Q2472.62 373.878 2472.62 381.007 Q2472.62 388.114 2474.43 391.678 Q2476.26 395.22 2479.87 395.22 Q2483.5 395.22 2485.31 391.678 Q2487.14 388.114 2487.14 381.007 Q2487.14 373.878 2485.31 370.336 Q2483.5 366.771 2479.87 366.771 M2479.87 363.067 Q2485.68 363.067 2488.73 367.674 Q2491.81 372.257 2491.81 381.007 Q2491.81 389.734 2488.73 394.34 Q2485.68 398.924 2479.87 398.924 Q2474.06 398.924 2470.98 394.34 Q2467.92 389.734 2467.92 381.007 Q2467.92 372.257 2470.98 367.674 Q2474.06 363.067 2479.87 363.067 Z" fill="#000000" fill-rule="nonzero" fill-opacity="1" /><polyline clip-path="url(#clip380)" style="stroke:#aa0055; stroke-linecap:round; stroke-linejoin:round; stroke-width:12; stroke-opacity:1; fill:none" points="2288.4,432.812 2343.71,432.812 "/>
<path clip-path="url(#clip380)" d="M2365.26 430.949 Q2362.11 430.949 2360.26 433.102 Q2358.43 435.255 2358.43 439.005 Q2358.43 442.731 2360.26 444.907 Q2362.11 447.06 2365.26 447.06 Q2368.41 447.06 2370.24 444.907 Q2372.09 442.731 2372.09 439.005 Q2372.09 435.255 2370.24 433.102 Q2368.41 430.949 2365.26 430.949 M2374.54 416.296 L2374.54 420.556 Q2372.78 419.722 2370.98 419.282 Q2369.2 418.843 2367.44 418.843 Q2362.81 418.843 2360.35 421.968 Q2357.92 425.093 2357.58 431.412 Q2358.94 429.398 2361 428.333 Q2363.06 427.245 2365.54 427.245 Q2370.75 427.245 2373.76 430.417 Q2376.79 433.565 2376.79 439.005 Q2376.79 444.329 2373.64 447.546 Q2370.49 450.764 2365.26 450.764 Q2359.27 450.764 2356.09 446.18 Q2352.92 441.574 2352.92 432.847 Q2352.92 424.653 2356.81 419.792 Q2360.7 414.907 2367.25 414.907 Q2369.01 414.907 2370.79 415.255 Q2372.6 415.602 2374.54 416.296 Z" fill="#000000" fill-rule="nonzero" fill-opacity="1" /><path clip-path="url(#clip380)" d="M2394.84 418.611 Q2391.23 418.611 2389.4 422.176 Q2387.6 425.718 2387.6 432.847 Q2387.6 439.954 2389.4 443.518 Q2391.23 447.06 2394.84 447.06 Q2398.48 447.06 2400.28 443.518 Q2402.11 439.954 2402.11 432.847 Q2402.11 425.718 2400.28 422.176 Q2398.48 418.611 2394.84 418.611 M2394.84 414.907 Q2400.65 414.907 2403.71 419.514 Q2406.79 424.097 2406.79 432.847 Q2406.79 441.574 2403.71 446.18 Q2400.65 450.764 2394.84 450.764 Q2389.03 450.764 2385.96 446.18 Q2382.9 441.574 2382.9 432.847 Q2382.9 424.097 2385.96 419.514 Q2389.03 414.907 2394.84 414.907 Z" fill="#000000" fill-rule="nonzero" fill-opacity="1" /><path clip-path="url(#clip380)" d="M2412.25 435.44 L2431.33 435.44 L2431.33 438.773 L2412.25 438.773 L2412.25 435.44 Z" fill="#000000" fill-rule="nonzero" fill-opacity="1" /><path clip-path="url(#clip380)" d="M2438.85 449.375 L2438.85 445.116 Q2440.61 445.949 2442.41 446.389 Q2444.22 446.829 2445.96 446.829 Q2450.58 446.829 2453.02 443.727 Q2455.47 440.602 2455.82 434.259 Q2454.47 436.25 2452.41 437.315 Q2450.35 438.38 2447.85 438.38 Q2442.67 438.38 2439.64 435.255 Q2436.63 432.106 2436.63 426.667 Q2436.63 421.343 2439.77 418.125 Q2442.92 414.907 2448.15 414.907 Q2454.15 414.907 2457.3 419.514 Q2460.47 424.097 2460.47 432.847 Q2460.47 441.018 2456.58 445.903 Q2452.71 450.764 2446.16 450.764 Q2444.4 450.764 2442.6 450.417 Q2440.79 450.069 2438.85 449.375 M2448.15 434.722 Q2451.3 434.722 2453.13 432.569 Q2454.98 430.417 2454.98 426.667 Q2454.98 422.94 2453.13 420.787 Q2451.3 418.611 2448.15 418.611 Q2445.01 418.611 2443.15 420.787 Q2441.33 422.94 2441.33 426.667 Q2441.33 430.417 2443.15 432.569 Q2445.01 434.722 2448.15 434.722 Z" fill="#000000" fill-rule="nonzero" fill-opacity="1" /><path clip-path="url(#clip380)" d="M2478.87 418.611 Q2475.26 418.611 2473.43 422.176 Q2471.63 425.718 2471.63 432.847 Q2471.63 439.954 2473.43 443.518 Q2475.26 447.06 2478.87 447.06 Q2482.51 447.06 2484.31 443.518 Q2486.14 439.954 2486.14 432.847 Q2486.14 425.718 2484.31 422.176 Q2482.51 418.611 2478.87 418.611 M2478.87 414.907 Q2484.68 414.907 2487.74 419.514 Q2490.82 424.097 2490.82 432.847 Q2490.82 441.574 2487.74 446.18 Q2484.68 450.764 2478.87 450.764 Q2473.06 450.764 2469.98 446.18 Q2466.93 441.574 2466.93 432.847 Q2466.93 424.097 2469.98 419.514 Q2473.06 414.907 2478.87 414.907 Z" fill="#000000" fill-rule="nonzero" fill-opacity="1" /><polyline clip-path="url(#clip380)" style="stroke:#ff0000; stroke-linecap:round; stroke-linejoin:round; stroke-width:12; stroke-opacity:1; fill:none" points="2288.4,484.652 2343.71,484.652 "/>
<path clip-path="url(#clip380)" d="M2355.15 501.215 L2355.15 496.956 Q2356.9 497.789 2358.71 498.229 Q2360.52 498.669 2362.25 498.669 Q2366.88 498.669 2369.31 495.567 Q2371.77 492.442 2372.11 486.099 Q2370.77 488.09 2368.71 489.155 Q2366.65 490.22 2364.15 490.22 Q2358.96 490.22 2355.93 487.095 Q2352.92 483.946 2352.92 478.507 Q2352.92 473.183 2356.07 469.965 Q2359.22 466.747 2364.45 466.747 Q2370.45 466.747 2373.59 471.354 Q2376.77 475.937 2376.77 484.687 Q2376.77 492.858 2372.88 497.743 Q2369.01 502.604 2362.46 502.604 Q2360.7 502.604 2358.9 502.257 Q2357.09 501.909 2355.15 501.215 M2364.45 486.562 Q2367.6 486.562 2369.43 484.409 Q2371.28 482.257 2371.28 478.507 Q2371.28 474.78 2369.43 472.627 Q2367.6 470.451 2364.45 470.451 Q2361.3 470.451 2359.45 472.627 Q2357.62 474.78 2357.62 478.507 Q2357.62 482.257 2359.45 484.409 Q2361.3 486.562 2364.45 486.562 Z" fill="#000000" fill-rule="nonzero" fill-opacity="1" /><path clip-path="url(#clip380)" d="M2395.17 470.451 Q2391.56 470.451 2389.73 474.016 Q2387.92 477.558 2387.92 484.687 Q2387.92 491.794 2389.73 495.358 Q2391.56 498.9 2395.17 498.9 Q2398.8 498.9 2400.61 495.358 Q2402.44 491.794 2402.44 484.687 Q2402.44 477.558 2400.61 474.016 Q2398.8 470.451 2395.17 470.451 M2395.17 466.747 Q2400.98 466.747 2404.03 471.354 Q2407.11 475.937 2407.11 484.687 Q2407.11 493.414 2404.03 498.02 Q2400.98 502.604 2395.17 502.604 Q2389.36 502.604 2386.28 498.02 Q2383.22 493.414 2383.22 484.687 Q2383.22 475.937 2386.28 471.354 Q2389.36 466.747 2395.17 466.747 Z" fill="#000000" fill-rule="nonzero" fill-opacity="1" /><path clip-path="url(#clip380)" d="M2412.58 487.28 L2431.65 487.28 L2431.65 490.613 L2412.58 490.613 L2412.58 487.28 Z" fill="#000000" fill-rule="nonzero" fill-opacity="1" /><path clip-path="url(#clip380)" d="M2439.84 497.997 L2447.48 497.997 L2447.48 471.632 L2439.17 473.298 L2439.17 469.039 L2447.44 467.372 L2452.11 467.372 L2452.11 497.997 L2459.75 497.997 L2459.75 501.932 L2439.84 501.932 L2439.84 497.997 Z" fill="#000000" fill-rule="nonzero" fill-opacity="1" /><path clip-path="url(#clip380)" d="M2483.36 483.298 Q2486.72 484.016 2488.59 486.284 Q2490.49 488.553 2490.49 491.886 Q2490.49 497.002 2486.97 499.803 Q2483.46 502.604 2476.97 502.604 Q2474.8 502.604 2472.48 502.164 Q2470.19 501.747 2467.74 500.891 L2467.74 496.377 Q2469.68 497.511 2472 498.09 Q2474.31 498.669 2476.83 498.669 Q2481.23 498.669 2483.52 496.933 Q2485.84 495.196 2485.84 491.886 Q2485.84 488.831 2483.69 487.118 Q2481.56 485.382 2477.74 485.382 L2473.71 485.382 L2473.71 481.539 L2477.92 481.539 Q2481.37 481.539 2483.2 480.173 Q2485.03 478.784 2485.03 476.192 Q2485.03 473.53 2483.13 472.118 Q2481.26 470.683 2477.74 470.683 Q2475.82 470.683 2473.62 471.099 Q2471.42 471.516 2468.78 472.396 L2468.78 468.229 Q2471.44 467.488 2473.76 467.118 Q2476.09 466.747 2478.15 466.747 Q2483.48 466.747 2486.58 469.178 Q2489.68 471.585 2489.68 475.706 Q2489.68 478.576 2488.04 480.567 Q2486.39 482.534 2483.36 483.298 Z" fill="#000000" fill-rule="nonzero" fill-opacity="1" /><path clip-path="url(#clip380)" d="M2509.36 470.451 Q2505.75 470.451 2503.92 474.016 Q2502.11 477.558 2502.11 484.687 Q2502.11 491.794 2503.92 495.358 Q2505.75 498.9 2509.36 498.9 Q2512.99 498.9 2514.8 495.358 Q2516.63 491.794 2516.63 484.687 Q2516.63 477.558 2514.8 474.016 Q2512.99 470.451 2509.36 470.451 M2509.36 466.747 Q2515.17 466.747 2518.22 471.354 Q2521.3 475.937 2521.3 484.687 Q2521.3 493.414 2518.22 498.02 Q2515.17 502.604 2509.36 502.604 Q2503.55 502.604 2500.47 498.02 Q2497.41 493.414 2497.41 484.687 Q2497.41 475.937 2500.47 471.354 Q2503.55 466.747 2509.36 466.747 Z" fill="#000000" fill-rule="nonzero" fill-opacity="1" /></svg>
