<?xml version="1.0" encoding="utf-8"?>
<svg xmlns="http://www.w3.org/2000/svg" xmlns:xlink="http://www.w3.org/1999/xlink" width="300" height="220" viewBox="0 0 1200 880">
<defs>
  <clipPath id="clip240">
    <rect x="0" y="0" width="1200" height="880"/>
  </clipPath>
</defs>
<path clip-path="url(#clip240)" d="M0 880 L1200 880 L1200 1.13687e-13 L0 1.13687e-13  Z" fill="#ffffff" fill-rule="evenodd" fill-opacity="1"/>
<defs>
  <clipPath id="clip241">
    <rect x="343" y="220" width="700" height="382"/>
  </clipPath>
</defs>
<path clip-path="url(#clip240)" d="M343.026 659.956 L1042.52 659.956 L1042.52 220.748 L343.026 220.748  Z" fill="#ffffff" fill-rule="evenodd" fill-opacity="1"/>
<defs>
  <clipPath id="clip242">
    <rect x="343" y="220" width="700" height="440"/>
  </clipPath>
</defs>
<polyline clip-path="url(#clip242)" style="stroke:#000000; stroke-linecap:round; stroke-linejoin:round; stroke-width:2; stroke-opacity:0.1; fill:none" points="422.322,659.956 422.322,220.748 "/>
<polyline clip-path="url(#clip242)" style="stroke:#000000; stroke-linecap:round; stroke-linejoin:round; stroke-width:2; stroke-opacity:0.1; fill:none" points="692.773,659.956 692.773,220.748 "/>
<polyline clip-path="url(#clip242)" style="stroke:#000000; stroke-linecap:round; stroke-linejoin:round; stroke-width:2; stroke-opacity:0.1; fill:none" points="963.224,659.956 963.224,220.748 "/>
<polyline clip-path="url(#clip242)" style="stroke:#000000; stroke-linecap:round; stroke-linejoin:round; stroke-width:2; stroke-opacity:0.1; fill:none" points="343.026,603.121 1042.52,603.121 "/>
<polyline clip-path="url(#clip242)" style="stroke:#000000; stroke-linecap:round; stroke-linejoin:round; stroke-width:2; stroke-opacity:0.1; fill:none" points="343.026,510.635 1042.52,510.635 "/>
<polyline clip-path="url(#clip242)" style="stroke:#000000; stroke-linecap:round; stroke-linejoin:round; stroke-width:2; stroke-opacity:0.1; fill:none" points="343.026,418.15 1042.52,418.15 "/>
<polyline clip-path="url(#clip242)" style="stroke:#000000; stroke-linecap:round; stroke-linejoin:round; stroke-width:2; stroke-opacity:0.1; fill:none" points="343.026,325.664 1042.52,325.664 "/>
<polyline clip-path="url(#clip242)" style="stroke:#000000; stroke-linecap:round; stroke-linejoin:round; stroke-width:2; stroke-opacity:0.1; fill:none" points="343.026,233.178 1042.52,233.178 "/>
<polyline clip-path="url(#clip240)" style="stroke:#000000; stroke-linecap:round; stroke-linejoin:round; stroke-width:4; stroke-opacity:1; fill:none" points="343.026,659.956 1042.52,659.956 "/>
<polyline clip-path="url(#clip240)" style="stroke:#000000; stroke-linecap:round; stroke-linejoin:round; stroke-width:4; stroke-opacity:1; fill:none" points="422.322,659.956 422.322,641.058 "/>
<polyline clip-path="url(#clip240)" style="stroke:#000000; stroke-linecap:round; stroke-linejoin:round; stroke-width:4; stroke-opacity:1; fill:none" points="692.773,659.956 692.773,641.058 "/>
<polyline clip-path="url(#clip240)" style="stroke:#000000; stroke-linecap:round; stroke-linejoin:round; stroke-width:4; stroke-opacity:1; fill:none" points="963.224,659.956 963.224,641.058 "/>
<path clip-path="url(#clip240)" d="M407.542 682.802 L401.2 700.001 L413.908 700.001 L407.542 682.802 M404.903 678.196 L410.204 678.196 L423.376 712.756 L418.515 712.756 L415.366 703.89 L399.788 703.89 L396.64 712.756 L391.709 712.756 L404.903 678.196 Z" fill="#000000" fill-rule="nonzero" fill-opacity="1" /><path clip-path="url(#clip240)" d="M433.098 696.251 L433.098 708.913 L440.598 708.913 Q444.371 708.913 446.176 707.362 Q448.005 705.788 448.005 702.571 Q448.005 699.33 446.176 697.802 Q444.371 696.251 440.598 696.251 L433.098 696.251 M433.098 682.038 L433.098 692.455 L440.019 692.455 Q443.445 692.455 445.112 691.182 Q446.801 689.885 446.801 687.247 Q446.801 684.631 445.112 683.335 Q443.445 682.038 440.019 682.038 L433.098 682.038 M428.422 678.196 L440.366 678.196 Q445.713 678.196 448.607 680.418 Q451.5 682.64 451.5 686.737 Q451.5 689.909 450.019 691.784 Q448.538 693.659 445.667 694.121 Q449.116 694.862 451.014 697.223 Q452.936 699.561 452.936 703.08 Q452.936 707.709 449.787 710.233 Q446.639 712.756 440.829 712.756 L428.422 712.756 L428.422 678.196 Z" fill="#000000" fill-rule="nonzero" fill-opacity="1" /><path clip-path="url(#clip240)" d="M665.018 678.196 L669.694 678.196 L669.694 692.362 L686.685 692.362 L686.685 678.196 L691.361 678.196 L691.361 712.756 L686.685 712.756 L686.685 696.297 L669.694 696.297 L669.694 712.756 L665.018 712.756 L665.018 678.196 Z" fill="#000000" fill-rule="nonzero" fill-opacity="1" /><path clip-path="url(#clip240)" d="M700.666 678.196 L720.527 678.196 L720.527 682.131 L705.342 682.131 L705.342 692.316 L719.046 692.316 L719.046 696.251 L705.342 696.251 L705.342 712.756 L700.666 712.756 L700.666 678.196 Z" fill="#000000" fill-rule="nonzero" fill-opacity="1" /><path clip-path="url(#clip240)" d="M940.087 678.196 L944.763 678.196 L944.763 708.82 L961.592 708.82 L961.592 712.756 L940.087 712.756 L940.087 678.196 Z" fill="#000000" fill-rule="nonzero" fill-opacity="1" /><path clip-path="url(#clip240)" d="M966.499 678.196 L986.36 678.196 L986.36 682.131 L971.175 682.131 L971.175 692.316 L984.879 692.316 L984.879 696.251 L971.175 696.251 L971.175 712.756 L966.499 712.756 L966.499 678.196 Z" fill="#000000" fill-rule="nonzero" fill-opacity="1" /><polyline clip-path="url(#clip240)" style="stroke:#000000; stroke-linecap:round; stroke-linejoin:round; stroke-width:4; stroke-opacity:1; fill:none" points="343.026,659.956 343.026,220.748 "/>
<polyline clip-path="url(#clip240)" style="stroke:#000000; stroke-linecap:round; stroke-linejoin:round; stroke-width:4; stroke-opacity:1; fill:none" points="343.026,603.121 361.924,603.121 "/>
<polyline clip-path="url(#clip240)" style="stroke:#000000; stroke-linecap:round; stroke-linejoin:round; stroke-width:4; stroke-opacity:1; fill:none" points="343.026,510.635 361.924,510.635 "/>
<polyline clip-path="url(#clip240)" style="stroke:#000000; stroke-linecap:round; stroke-linejoin:round; stroke-width:4; stroke-opacity:1; fill:none" points="343.026,418.15 361.924,418.15 "/>
<polyline clip-path="url(#clip240)" style="stroke:#000000; stroke-linecap:round; stroke-linejoin:round; stroke-width:4; stroke-opacity:1; fill:none" points="343.026,325.664 361.924,325.664 "/>
<polyline clip-path="url(#clip240)" style="stroke:#000000; stroke-linecap:round; stroke-linejoin:round; stroke-width:4; stroke-opacity:1; fill:none" points="343.026,233.178 361.924,233.178 "/>
<path clip-path="url(#clip240)" d="M237.689 588.92 Q234.078 588.92 232.249 592.485 Q230.443 596.026 230.443 603.156 Q230.443 610.263 232.249 613.827 Q234.078 617.369 237.689 617.369 Q241.323 617.369 243.129 613.827 Q244.957 610.263 244.957 603.156 Q244.957 596.026 243.129 592.485 Q241.323 588.92 237.689 588.92 M237.689 585.216 Q243.499 585.216 246.554 589.823 Q249.633 594.406 249.633 603.156 Q249.633 611.883 246.554 616.489 Q243.499 621.073 237.689 621.073 Q231.879 621.073 228.8 616.489 Q225.744 611.883 225.744 603.156 Q225.744 594.406 228.8 589.823 Q231.879 585.216 237.689 585.216 Z" fill="#000000" fill-rule="nonzero" fill-opacity="1" /><path clip-path="url(#clip240)" d="M257.851 614.522 L262.735 614.522 L262.735 620.401 L257.851 620.401 L257.851 614.522 Z" fill="#000000" fill-rule="nonzero" fill-opacity="1" /><path clip-path="url(#clip240)" d="M282.92 603.989 Q279.587 603.989 277.665 605.772 Q275.767 607.554 275.767 610.679 Q275.767 613.804 277.665 615.587 Q279.587 617.369 282.92 617.369 Q286.253 617.369 288.175 615.587 Q290.096 613.781 290.096 610.679 Q290.096 607.554 288.175 605.772 Q286.276 603.989 282.92 603.989 M278.244 601.999 Q275.235 601.258 273.545 599.198 Q271.878 597.138 271.878 594.175 Q271.878 590.031 274.818 587.624 Q277.781 585.216 282.92 585.216 Q288.082 585.216 291.022 587.624 Q293.962 590.031 293.962 594.175 Q293.962 597.138 292.272 599.198 Q290.605 601.258 287.619 601.999 Q290.999 602.786 292.874 605.077 Q294.772 607.369 294.772 610.679 Q294.772 615.702 291.693 618.387 Q288.638 621.073 282.92 621.073 Q277.202 621.073 274.124 618.387 Q271.068 615.702 271.068 610.679 Q271.068 607.369 272.966 605.077 Q274.864 602.786 278.244 601.999 M276.531 594.614 Q276.531 597.3 278.198 598.804 Q279.888 600.309 282.92 600.309 Q285.929 600.309 287.619 598.804 Q289.332 597.3 289.332 594.614 Q289.332 591.929 287.619 590.425 Q285.929 588.92 282.92 588.92 Q279.888 588.92 278.198 590.425 Q276.531 591.929 276.531 594.614 Z" fill="#000000" fill-rule="nonzero" fill-opacity="1" /><path clip-path="url(#clip240)" d="M313.082 588.92 Q309.471 588.92 307.642 592.485 Q305.837 596.026 305.837 603.156 Q305.837 610.263 307.642 613.827 Q309.471 617.369 313.082 617.369 Q316.716 617.369 318.522 613.827 Q320.35 610.263 320.35 603.156 Q320.35 596.026 318.522 592.485 Q316.716 588.92 313.082 588.92 M313.082 585.216 Q318.892 585.216 321.948 589.823 Q325.026 594.406 325.026 603.156 Q325.026 611.883 321.948 616.489 Q318.892 621.073 313.082 621.073 Q307.272 621.073 304.193 616.489 Q301.137 611.883 301.137 603.156 Q301.137 594.406 304.193 589.823 Q307.272 585.216 313.082 585.216 Z" fill="#000000" fill-rule="nonzero" fill-opacity="1" /><path clip-path="url(#clip240)" d="M238.684 496.434 Q235.073 496.434 233.244 499.999 Q231.439 503.541 231.439 510.67 Q231.439 517.777 233.244 521.341 Q235.073 524.883 238.684 524.883 Q242.318 524.883 244.124 521.341 Q245.953 517.777 245.953 510.67 Q245.953 503.541 244.124 499.999 Q242.318 496.434 238.684 496.434 M238.684 492.73 Q244.494 492.73 247.55 497.337 Q250.629 501.92 250.629 510.67 Q250.629 519.397 247.55 524.003 Q244.494 528.587 238.684 528.587 Q232.874 528.587 229.795 524.003 Q226.74 519.397 226.74 510.67 Q226.74 501.92 229.795 497.337 Q232.874 492.73 238.684 492.73 Z" fill="#000000" fill-rule="nonzero" fill-opacity="1" /><path clip-path="url(#clip240)" d="M258.846 522.036 L263.73 522.036 L263.73 527.915 L258.846 527.915 L258.846 522.036 Z" fill="#000000" fill-rule="nonzero" fill-opacity="1" /><path clip-path="url(#clip240)" d="M283.915 511.504 Q280.582 511.504 278.661 513.286 Q276.763 515.068 276.763 518.193 Q276.763 521.318 278.661 523.101 Q280.582 524.883 283.915 524.883 Q287.249 524.883 289.17 523.101 Q291.091 521.295 291.091 518.193 Q291.091 515.068 289.17 513.286 Q287.272 511.504 283.915 511.504 M279.239 509.513 Q276.23 508.772 274.54 506.712 Q272.874 504.652 272.874 501.689 Q272.874 497.545 275.814 495.138 Q278.777 492.73 283.915 492.73 Q289.077 492.73 292.017 495.138 Q294.957 497.545 294.957 501.689 Q294.957 504.652 293.267 506.712 Q291.601 508.772 288.614 509.513 Q291.994 510.3 293.869 512.591 Q295.767 514.883 295.767 518.193 Q295.767 523.216 292.688 525.902 Q289.633 528.587 283.915 528.587 Q278.198 528.587 275.119 525.902 Q272.064 523.216 272.064 518.193 Q272.064 514.883 273.962 512.591 Q275.86 510.3 279.239 509.513 M277.527 502.129 Q277.527 504.814 279.193 506.318 Q280.883 507.823 283.915 507.823 Q286.925 507.823 288.614 506.318 Q290.327 504.814 290.327 502.129 Q290.327 499.443 288.614 497.939 Q286.925 496.434 283.915 496.434 Q280.883 496.434 279.193 497.939 Q277.527 499.443 277.527 502.129 Z" fill="#000000" fill-rule="nonzero" fill-opacity="1" /><path clip-path="url(#clip240)" d="M304.124 493.355 L322.48 493.355 L322.48 497.291 L308.406 497.291 L308.406 505.763 Q309.424 505.416 310.443 505.254 Q311.462 505.068 312.48 505.068 Q318.267 505.068 321.647 508.24 Q325.026 511.411 325.026 516.828 Q325.026 522.406 321.554 525.508 Q318.082 528.587 311.762 528.587 Q309.587 528.587 307.318 528.216 Q305.073 527.846 302.665 527.105 L302.665 522.406 Q304.749 523.541 306.971 524.096 Q309.193 524.652 311.67 524.652 Q315.674 524.652 318.012 522.545 Q320.35 520.439 320.35 516.828 Q320.35 513.216 318.012 511.11 Q315.674 509.004 311.67 509.004 Q309.795 509.004 307.92 509.42 Q306.068 509.837 304.124 510.716 L304.124 493.355 Z" fill="#000000" fill-rule="nonzero" fill-opacity="1" /><path clip-path="url(#clip240)" d="M237.689 403.948 Q234.078 403.948 232.249 407.513 Q230.443 411.055 230.443 418.184 Q230.443 425.291 232.249 428.856 Q234.078 432.397 237.689 432.397 Q241.323 432.397 243.129 428.856 Q244.957 425.291 244.957 418.184 Q244.957 411.055 243.129 407.513 Q241.323 403.948 237.689 403.948 M237.689 400.245 Q243.499 400.245 246.554 404.851 Q249.633 409.434 249.633 418.184 Q249.633 426.911 246.554 431.518 Q243.499 436.101 237.689 436.101 Q231.879 436.101 228.8 431.518 Q225.744 426.911 225.744 418.184 Q225.744 409.434 228.8 404.851 Q231.879 400.245 237.689 400.245 Z" fill="#000000" fill-rule="nonzero" fill-opacity="1" /><path clip-path="url(#clip240)" d="M257.851 429.55 L262.735 429.55 L262.735 435.43 L257.851 435.43 L257.851 429.55 Z" fill="#000000" fill-rule="nonzero" fill-opacity="1" /><path clip-path="url(#clip240)" d="M273.059 434.712 L273.059 430.453 Q274.818 431.286 276.624 431.726 Q278.429 432.166 280.165 432.166 Q284.795 432.166 287.226 429.064 Q289.679 425.939 290.026 419.596 Q288.684 421.587 286.624 422.652 Q284.564 423.717 282.064 423.717 Q276.878 423.717 273.846 420.592 Q270.837 417.444 270.837 412.004 Q270.837 406.68 273.985 403.462 Q277.133 400.245 282.364 400.245 Q288.36 400.245 291.508 404.851 Q294.679 409.434 294.679 418.184 Q294.679 426.356 290.79 431.24 Q286.925 436.101 280.374 436.101 Q278.614 436.101 276.809 435.754 Q275.003 435.406 273.059 434.712 M282.364 420.059 Q285.513 420.059 287.341 417.907 Q289.193 415.754 289.193 412.004 Q289.193 408.277 287.341 406.124 Q285.513 403.948 282.364 403.948 Q279.216 403.948 277.364 406.124 Q275.536 408.277 275.536 412.004 Q275.536 415.754 277.364 417.907 Q279.216 420.059 282.364 420.059 Z" fill="#000000" fill-rule="nonzero" fill-opacity="1" /><path clip-path="url(#clip240)" d="M313.082 403.948 Q309.471 403.948 307.642 407.513 Q305.837 411.055 305.837 418.184 Q305.837 425.291 307.642 428.856 Q309.471 432.397 313.082 432.397 Q316.716 432.397 318.522 428.856 Q320.35 425.291 320.35 418.184 Q320.35 411.055 318.522 407.513 Q316.716 403.948 313.082 403.948 M313.082 400.245 Q318.892 400.245 321.948 404.851 Q325.026 409.434 325.026 418.184 Q325.026 426.911 321.948 431.518 Q318.892 436.101 313.082 436.101 Q307.272 436.101 304.193 431.518 Q301.137 426.911 301.137 418.184 Q301.137 409.434 304.193 404.851 Q307.272 400.245 313.082 400.245 Z" fill="#000000" fill-rule="nonzero" fill-opacity="1" /><path clip-path="url(#clip240)" d="M238.684 311.462 Q235.073 311.462 233.244 315.027 Q231.439 318.569 231.439 325.698 Q231.439 332.805 233.244 336.37 Q235.073 339.911 238.684 339.911 Q242.318 339.911 244.124 336.37 Q245.953 332.805 245.953 325.698 Q245.953 318.569 244.124 315.027 Q242.318 311.462 238.684 311.462 M238.684 307.759 Q244.494 307.759 247.55 312.365 Q250.629 316.948 250.629 325.698 Q250.629 334.425 247.55 339.032 Q244.494 343.615 238.684 343.615 Q232.874 343.615 229.795 339.032 Q226.74 334.425 226.74 325.698 Q226.74 316.948 229.795 312.365 Q232.874 307.759 238.684 307.759 Z" fill="#000000" fill-rule="nonzero" fill-opacity="1" /><path clip-path="url(#clip240)" d="M258.846 337.064 L263.73 337.064 L263.73 342.944 L258.846 342.944 L258.846 337.064 Z" fill="#000000" fill-rule="nonzero" fill-opacity="1" /><path clip-path="url(#clip240)" d="M274.054 342.226 L274.054 337.967 Q275.814 338.8 277.619 339.24 Q279.425 339.68 281.161 339.68 Q285.79 339.68 288.221 336.578 Q290.675 333.453 291.022 327.11 Q289.679 329.101 287.619 330.166 Q285.559 331.231 283.059 331.231 Q277.874 331.231 274.841 328.106 Q271.832 324.958 271.832 319.518 Q271.832 314.194 274.98 310.976 Q278.128 307.759 283.36 307.759 Q289.355 307.759 292.503 312.365 Q295.675 316.948 295.675 325.698 Q295.675 333.87 291.786 338.754 Q287.92 343.615 281.369 343.615 Q279.61 343.615 277.804 343.268 Q275.999 342.921 274.054 342.226 M283.36 327.573 Q286.508 327.573 288.337 325.421 Q290.188 323.268 290.188 319.518 Q290.188 315.791 288.337 313.638 Q286.508 311.462 283.36 311.462 Q280.212 311.462 278.36 313.638 Q276.531 315.791 276.531 319.518 Q276.531 323.268 278.36 325.421 Q280.212 327.573 283.36 327.573 Z" fill="#000000" fill-rule="nonzero" fill-opacity="1" /><path clip-path="url(#clip240)" d="M304.124 308.384 L322.48 308.384 L322.48 312.319 L308.406 312.319 L308.406 320.791 Q309.424 320.444 310.443 320.282 Q311.462 320.097 312.48 320.097 Q318.267 320.097 321.647 323.268 Q325.026 326.439 325.026 331.856 Q325.026 337.434 321.554 340.536 Q318.082 343.615 311.762 343.615 Q309.587 343.615 307.318 343.245 Q305.073 342.874 302.665 342.134 L302.665 337.434 Q304.749 338.569 306.971 339.124 Q309.193 339.68 311.67 339.68 Q315.674 339.68 318.012 337.573 Q320.35 335.467 320.35 331.856 Q320.35 328.245 318.012 326.138 Q315.674 324.032 311.67 324.032 Q309.795 324.032 307.92 324.448 Q306.068 324.865 304.124 325.745 L304.124 308.384 Z" fill="#000000" fill-rule="nonzero" fill-opacity="1" /><path clip-path="url(#clip240)" d="M228.499 246.523 L236.138 246.523 L236.138 220.157 L227.828 221.824 L227.828 217.564 L236.092 215.898 L240.767 215.898 L240.767 246.523 L248.406 246.523 L248.406 250.458 L228.499 250.458 L228.499 246.523 Z" fill="#000000" fill-rule="nonzero" fill-opacity="1" /><path clip-path="url(#clip240)" d="M257.851 244.578 L262.735 244.578 L262.735 250.458 L257.851 250.458 L257.851 244.578 Z" fill="#000000" fill-rule="nonzero" fill-opacity="1" /><path clip-path="url(#clip240)" d="M282.92 218.977 Q279.309 218.977 277.48 222.541 Q275.675 226.083 275.675 233.213 Q275.675 240.319 277.48 243.884 Q279.309 247.425 282.92 247.425 Q286.554 247.425 288.36 243.884 Q290.188 240.319 290.188 233.213 Q290.188 226.083 288.36 222.541 Q286.554 218.977 282.92 218.977 M282.92 215.273 Q288.73 215.273 291.786 219.879 Q294.864 224.463 294.864 233.213 Q294.864 241.939 291.786 246.546 Q288.73 251.129 282.92 251.129 Q277.11 251.129 274.031 246.546 Q270.976 241.939 270.976 233.213 Q270.976 224.463 274.031 219.879 Q277.11 215.273 282.92 215.273 Z" fill="#000000" fill-rule="nonzero" fill-opacity="1" /><path clip-path="url(#clip240)" d="M313.082 218.977 Q309.471 218.977 307.642 222.541 Q305.837 226.083 305.837 233.213 Q305.837 240.319 307.642 243.884 Q309.471 247.425 313.082 247.425 Q316.716 247.425 318.522 243.884 Q320.35 240.319 320.35 233.213 Q320.35 226.083 318.522 222.541 Q316.716 218.977 313.082 218.977 M313.082 215.273 Q318.892 215.273 321.948 219.879 Q325.026 224.463 325.026 233.213 Q325.026 241.939 321.948 246.546 Q318.892 251.129 313.082 251.129 Q307.272 251.129 304.193 246.546 Q301.137 241.939 301.137 233.213 Q301.137 224.463 304.193 219.879 Q307.272 215.273 313.082 215.273 Z" fill="#000000" fill-rule="nonzero" fill-opacity="1" /><path clip-path="url(#clip240)" d="M157.2 670.299 L157.2 665.038 L173.138 665.038 L173.138 645.924 L157.2 645.924 L157.2 640.663 L196.08 640.663 L196.08 645.924 L177.565 645.924 L177.565 665.038 L196.08 665.038 L196.08 670.299 L157.2 670.299 Z" fill="#000000" fill-rule="nonzero" fill-opacity="1" /><path clip-path="url(#clip240)" d="M180.299 605.455 L182.643 605.455 L182.643 627.486 Q187.591 627.174 190.195 624.518 Q192.773 621.835 192.773 617.07 Q192.773 614.309 192.096 611.731 Q191.419 609.127 190.065 606.575 L194.596 606.575 Q195.69 609.153 196.263 611.861 Q196.836 614.57 196.836 617.356 Q196.836 624.335 192.773 628.424 Q188.711 632.486 181.784 632.486 Q174.622 632.486 170.429 628.632 Q166.211 624.752 166.211 618.19 Q166.211 612.304 170.013 608.893 Q173.789 605.455 180.299 605.455 M178.893 610.247 Q174.961 610.299 172.617 612.46 Q170.273 614.596 170.273 618.138 Q170.273 622.148 172.539 624.57 Q174.804 626.966 178.919 627.33 L178.893 610.247 Z" fill="#000000" fill-rule="nonzero" fill-opacity="1" /><path clip-path="url(#clip240)" d="M178.476 573.346 L196.08 573.346 L196.08 578.138 L178.633 578.138 Q174.492 578.138 172.435 579.752 Q170.377 581.367 170.377 584.596 Q170.377 588.476 172.851 590.716 Q175.325 592.955 179.596 592.955 L196.08 592.955 L196.08 597.773 L166.914 597.773 L166.914 592.955 L171.445 592.955 Q168.815 591.237 167.513 588.919 Q166.211 586.575 166.211 583.528 Q166.211 578.502 169.336 575.924 Q172.435 573.346 178.476 573.346 Z" fill="#000000" fill-rule="nonzero" fill-opacity="1" /><path clip-path="url(#clip240)" d="M171.393 546.888 Q170.924 547.695 170.716 548.659 Q170.482 549.596 170.482 550.742 Q170.482 554.805 173.138 556.992 Q175.768 559.153 180.716 559.153 L196.08 559.153 L196.08 563.971 L166.914 563.971 L166.914 559.153 L171.445 559.153 Q168.789 557.643 167.513 555.221 Q166.211 552.799 166.211 549.336 Q166.211 548.841 166.289 548.242 Q166.341 547.643 166.471 546.914 L171.393 546.888 Z" fill="#000000" fill-rule="nonzero" fill-opacity="1" /><path clip-path="url(#clip240)" d="M166.914 541.862 L166.914 537.07 L196.08 537.07 L196.08 541.862 L166.914 541.862 M155.56 541.862 L155.56 537.07 L161.627 537.07 L161.627 541.862 L155.56 541.862 Z" fill="#000000" fill-rule="nonzero" fill-opacity="1" /><path clip-path="url(#clip240)" d="M168.034 506.055 L172.513 506.055 Q171.393 508.086 170.846 510.143 Q170.273 512.175 170.273 514.258 Q170.273 518.919 173.242 521.497 Q176.185 524.076 181.523 524.076 Q186.862 524.076 189.83 521.497 Q192.773 518.919 192.773 514.258 Q192.773 512.175 192.226 510.143 Q191.653 508.086 190.534 506.055 L194.961 506.055 Q195.898 508.06 196.367 510.221 Q196.836 512.357 196.836 514.779 Q196.836 521.367 192.695 525.247 Q188.554 529.128 181.523 529.128 Q174.388 529.128 170.299 525.221 Q166.211 521.289 166.211 514.466 Q166.211 512.253 166.679 510.143 Q167.122 508.034 168.034 506.055 Z" fill="#000000" fill-rule="nonzero" fill-opacity="1" /><path clip-path="url(#clip240)" d="M166.914 497.721 L166.914 492.93 L196.08 492.93 L196.08 497.721 L166.914 497.721 M155.56 497.721 L155.56 492.93 L161.627 492.93 L161.627 497.721 L155.56 497.721 Z" fill="#000000" fill-rule="nonzero" fill-opacity="1" /><path clip-path="url(#clip240)" d="M171.341 446.758 L155.56 446.758 L155.56 441.967 L196.08 441.967 L196.08 446.758 L191.705 446.758 Q194.31 448.269 195.586 450.586 Q196.836 452.878 196.836 456.107 Q196.836 461.394 192.617 464.727 Q188.398 468.034 181.523 468.034 Q174.648 468.034 170.429 464.727 Q166.211 461.394 166.211 456.107 Q166.211 452.878 167.487 450.586 Q168.737 448.269 171.341 446.758 M181.523 463.086 Q186.81 463.086 189.83 460.925 Q192.825 458.737 192.825 454.935 Q192.825 451.133 189.83 448.946 Q186.81 446.758 181.523 446.758 Q176.237 446.758 173.242 448.946 Q170.221 451.133 170.221 454.935 Q170.221 458.737 173.242 460.925 Q176.237 463.086 181.523 463.086 Z" fill="#000000" fill-rule="nonzero" fill-opacity="1" /><path clip-path="url(#clip240)" d="M180.299 407.149 L182.643 407.149 L182.643 429.18 Q187.591 428.868 190.195 426.211 Q192.773 423.529 192.773 418.764 Q192.773 416.003 192.096 413.425 Q191.419 410.821 190.065 408.269 L194.596 408.269 Q195.69 410.847 196.263 413.555 Q196.836 416.264 196.836 419.05 Q196.836 426.029 192.773 430.118 Q188.711 434.18 181.784 434.18 Q174.622 434.18 170.429 430.326 Q166.211 426.446 166.211 419.883 Q166.211 413.998 170.013 410.587 Q173.789 407.149 180.299 407.149 M178.893 411.941 Q174.961 411.993 172.617 414.154 Q170.273 416.29 170.273 419.831 Q170.273 423.842 172.539 426.264 Q174.804 428.659 178.919 429.024 L178.893 411.941 Z" fill="#000000" fill-rule="nonzero" fill-opacity="1" /><path clip-path="url(#clip240)" d="M191.705 394.649 L207.174 394.649 L207.174 399.467 L166.914 399.467 L166.914 394.649 L171.341 394.649 Q168.737 393.139 167.487 390.847 Q166.211 388.529 166.211 385.326 Q166.211 380.014 170.429 376.707 Q174.648 373.373 181.523 373.373 Q188.398 373.373 192.617 376.707 Q196.836 380.014 196.836 385.326 Q196.836 388.529 195.586 390.847 Q194.31 393.139 191.705 394.649 M181.523 378.347 Q176.237 378.347 173.242 380.535 Q170.221 382.696 170.221 386.498 Q170.221 390.3 173.242 392.488 Q176.237 394.649 181.523 394.649 Q186.81 394.649 189.83 392.488 Q192.825 390.3 192.825 386.498 Q192.825 382.696 189.83 380.535 Q186.81 378.347 181.523 378.347 Z" fill="#000000" fill-rule="nonzero" fill-opacity="1" /><path clip-path="url(#clip240)" d="M181.419 352.175 Q181.419 357.983 182.747 360.222 Q184.075 362.462 187.278 362.462 Q189.83 362.462 191.341 360.795 Q192.825 359.102 192.825 356.212 Q192.825 352.227 190.013 349.832 Q187.174 347.41 182.487 347.41 L181.419 347.41 L181.419 352.175 M179.44 342.618 L196.08 342.618 L196.08 347.41 L191.653 347.41 Q194.31 349.05 195.586 351.498 Q196.836 353.946 196.836 357.488 Q196.836 361.967 194.336 364.623 Q191.81 367.253 187.591 367.253 Q182.669 367.253 180.169 363.972 Q177.669 360.665 177.669 354.129 L177.669 347.41 L177.2 347.41 Q173.893 347.41 172.096 349.597 Q170.273 351.759 170.273 355.691 Q170.273 358.191 170.872 360.561 Q171.471 362.931 172.669 365.118 L168.242 365.118 Q167.226 362.488 166.732 360.014 Q166.211 357.54 166.211 355.196 Q166.211 348.868 169.492 345.743 Q172.773 342.618 179.44 342.618 Z" fill="#000000" fill-rule="nonzero" fill-opacity="1" /><path clip-path="url(#clip240)" d="M171.393 315.847 Q170.924 316.655 170.716 317.618 Q170.482 318.556 170.482 319.702 Q170.482 323.764 173.138 325.952 Q175.768 328.113 180.716 328.113 L196.08 328.113 L196.08 332.931 L166.914 332.931 L166.914 328.113 L171.445 328.113 Q168.789 326.603 167.513 324.181 Q166.211 321.759 166.211 318.295 Q166.211 317.801 166.289 317.202 Q166.341 316.603 166.471 315.874 L171.393 315.847 Z" fill="#000000" fill-rule="nonzero" fill-opacity="1" /><path clip-path="url(#clip240)" d="M158.633 306.082 L166.914 306.082 L166.914 296.212 L170.638 296.212 L170.638 306.082 L186.471 306.082 Q190.039 306.082 191.054 305.118 Q192.07 304.129 192.07 301.134 L192.07 296.212 L196.08 296.212 L196.08 301.134 Q196.08 306.681 194.023 308.79 Q191.94 310.9 186.471 310.9 L170.638 310.9 L170.638 314.415 L166.914 314.415 L166.914 310.9 L158.633 310.9 L158.633 306.082 Z" fill="#000000" fill-rule="nonzero" fill-opacity="1" /><path clip-path="url(#clip240)" d="M184.57 290.405 L166.914 290.405 L166.914 285.613 L184.388 285.613 Q188.528 285.613 190.612 283.999 Q192.669 282.384 192.669 279.155 Q192.669 275.275 190.195 273.035 Q187.721 270.77 183.45 270.77 L166.914 270.77 L166.914 265.978 L196.08 265.978 L196.08 270.77 L191.601 270.77 Q194.257 272.514 195.56 274.832 Q196.836 277.124 196.836 280.171 Q196.836 285.197 193.711 287.801 Q190.586 290.405 184.57 290.405 M166.211 278.348 L166.211 278.348 Z" fill="#000000" fill-rule="nonzero" fill-opacity="1" /><path clip-path="url(#clip240)" d="M171.393 239.207 Q170.924 240.015 170.716 240.978 Q170.482 241.916 170.482 243.061 Q170.482 247.124 173.138 249.311 Q175.768 251.473 180.716 251.473 L196.08 251.473 L196.08 256.29 L166.914 256.29 L166.914 251.473 L171.445 251.473 Q168.789 249.962 167.513 247.541 Q166.211 245.119 166.211 241.655 Q166.211 241.16 166.289 240.561 Q166.341 239.962 166.471 239.233 L171.393 239.207 Z" fill="#000000" fill-rule="nonzero" fill-opacity="1" /><path clip-path="url(#clip240)" d="M180.299 210.405 L182.643 210.405 L182.643 232.436 Q187.591 232.124 190.195 229.468 Q192.773 226.785 192.773 222.02 Q192.773 219.259 192.096 216.681 Q191.419 214.077 190.065 211.525 L194.596 211.525 Q195.69 214.103 196.263 216.812 Q196.836 219.52 196.836 222.306 Q196.836 229.285 192.773 233.374 Q188.711 237.436 181.784 237.436 Q174.622 237.436 170.429 233.582 Q166.211 229.702 166.211 223.14 Q166.211 217.254 170.013 213.843 Q173.789 210.405 180.299 210.405 M178.893 215.197 Q174.961 215.249 172.617 217.41 Q170.273 219.546 170.273 223.088 Q170.273 227.098 172.539 229.52 Q174.804 231.916 178.919 232.28 L178.893 215.197 Z" fill="#000000" fill-rule="nonzero" fill-opacity="1" /><path clip-path="url(#clip240)" d="M83.271 8.64 L91.1414 8.64 L110.296 44.7799 L110.296 8.64 L115.968 8.64 L115.968 51.84 L108.097 51.84 L88.9423 15.7001 L88.9423 51.84 L83.271 51.84 L83.271 8.64 Z" fill="#000000" fill-rule="nonzero" fill-opacity="1" /><path clip-path="url(#clip240)" d="M139.926 23.1654 Q135.643 23.1654 133.155 26.5218 Q130.667 29.8494 130.667 35.6653 Q130.667 41.4813 133.126 44.8377 Q135.614 48.1653 139.926 48.1653 Q144.179 48.1653 146.668 44.8088 Q149.156 41.4523 149.156 35.6653 Q149.156 29.9072 146.668 26.5508 Q144.179 23.1654 139.926 23.1654 M139.926 18.6515 Q146.87 18.6515 150.834 23.1654 Q154.798 27.6792 154.798 35.6653 Q154.798 43.6225 150.834 48.1653 Q146.87 52.6791 139.926 52.6791 Q132.952 52.6791 128.988 48.1653 Q125.053 43.6225 125.053 35.6653 Q125.053 27.6792 128.988 23.1654 Q132.952 18.6515 139.926 18.6515 Z" fill="#000000" fill-rule="nonzero" fill-opacity="1" /><path clip-path="url(#clip240)" d="M190.562 32.2799 L190.562 51.84 L185.238 51.84 L185.238 32.4535 Q185.238 27.8529 183.444 25.567 Q181.65 23.2811 178.062 23.2811 Q173.751 23.2811 171.262 26.03 Q168.774 28.7788 168.774 33.5241 L168.774 51.84 L163.421 51.84 L163.421 19.4328 L168.774 19.4328 L168.774 24.4675 Q170.684 21.545 173.259 20.0983 Q175.863 18.6515 179.249 18.6515 Q184.833 18.6515 187.698 22.1237 Q190.562 25.567 190.562 32.2799 Z" fill="#000000" fill-rule="nonzero" fill-opacity="1" /><path clip-path="url(#clip240)" d="M198.49 33.2348 L214.086 33.2348 L214.086 37.9801 L198.49 37.9801 L198.49 33.2348 Z" fill="#000000" fill-rule="nonzero" fill-opacity="1" /><path clip-path="url(#clip240)" d="M249.503 32.2799 L249.503 51.84 L244.179 51.84 L244.179 32.4535 Q244.179 27.8529 242.385 25.567 Q240.591 23.2811 237.003 23.2811 Q232.692 23.2811 230.203 26.03 Q227.715 28.7788 227.715 33.5241 L227.715 51.84 L222.362 51.84 L222.362 19.4328 L227.715 19.4328 L227.715 24.4675 Q229.624 21.545 232.2 20.0983 Q234.804 18.6515 238.189 18.6515 Q243.774 18.6515 246.638 22.1237 Q249.503 25.567 249.503 32.2799 Z" fill="#000000" fill-rule="nonzero" fill-opacity="1" /><path clip-path="url(#clip240)" d="M272.68 23.1654 Q268.397 23.1654 265.909 26.5218 Q263.421 29.8494 263.421 35.6653 Q263.421 41.4813 265.88 44.8377 Q268.368 48.1653 272.68 48.1653 Q276.933 48.1653 279.422 44.8088 Q281.91 41.4523 281.91 35.6653 Q281.91 29.9072 279.422 26.5508 Q276.933 23.1654 272.68 23.1654 M272.68 18.6515 Q279.624 18.6515 283.588 23.1654 Q287.552 27.6792 287.552 35.6653 Q287.552 43.6225 283.588 48.1653 Q279.624 52.6791 272.68 52.6791 Q265.706 52.6791 261.742 48.1653 Q257.807 43.6225 257.807 35.6653 Q257.807 27.6792 261.742 23.1654 Q265.706 18.6515 272.68 18.6515 Z" fill="#000000" fill-rule="nonzero" fill-opacity="1" /><path clip-path="url(#clip240)" d="M315.156 24.4096 Q314.259 23.8888 313.189 23.6573 Q312.147 23.3969 310.874 23.3969 Q306.36 23.3969 303.93 26.3482 Q301.528 29.2707 301.528 34.7683 L301.528 51.84 L296.175 51.84 L296.175 19.4328 L301.528 19.4328 L301.528 24.4675 Q303.206 21.5161 305.897 20.0983 Q308.588 18.6515 312.436 18.6515 Q312.986 18.6515 313.652 18.7383 Q314.317 18.7962 315.127 18.9409 L315.156 24.4096 Z" fill="#000000" fill-rule="nonzero" fill-opacity="1" /><path clip-path="url(#clip240)" d="M344.931 25.6538 Q346.927 22.0659 349.705 20.3587 Q352.483 18.6515 356.244 18.6515 Q361.308 18.6515 364.057 22.2105 Q366.805 25.7406 366.805 32.2799 L366.805 51.84 L361.452 51.84 L361.452 32.4535 Q361.452 27.795 359.803 25.5381 Q358.154 23.2811 354.768 23.2811 Q350.631 23.2811 348.229 26.03 Q345.827 28.7788 345.827 33.5241 L345.827 51.84 L340.475 51.84 L340.475 32.4535 Q340.475 27.7661 338.825 25.5381 Q337.176 23.2811 333.733 23.2811 Q329.653 23.2811 327.251 26.0589 Q324.85 28.8077 324.85 33.5241 L324.85 51.84 L319.497 51.84 L319.497 19.4328 L324.85 19.4328 L324.85 24.4675 Q326.673 21.4872 329.219 20.0693 Q331.765 18.6515 335.266 18.6515 Q338.796 18.6515 341.256 20.4455 Q343.744 22.2395 344.931 25.6538 Z" fill="#000000" fill-rule="nonzero" fill-opacity="1" /><path clip-path="url(#clip240)" d="M392.152 35.5496 Q385.7 35.5496 383.212 37.0253 Q380.723 38.501 380.723 42.06 Q380.723 44.8956 382.575 46.5738 Q384.456 48.2231 387.668 48.2231 Q392.095 48.2231 394.757 45.0981 Q397.448 41.9442 397.448 36.7359 L397.448 35.5496 L392.152 35.5496 M402.772 33.3505 L402.772 51.84 L397.448 51.84 L397.448 46.921 Q395.625 49.8724 392.905 51.2902 Q390.185 52.6791 386.25 52.6791 Q381.273 52.6791 378.322 49.9014 Q375.399 47.0947 375.399 42.4072 Q375.399 36.9385 379.045 34.1607 Q382.72 31.3829 389.982 31.3829 L397.448 31.3829 L397.448 30.8621 Q397.448 27.1874 395.017 25.1908 Q392.615 23.1654 388.246 23.1654 Q385.468 23.1654 382.835 23.8309 Q380.202 24.4964 377.772 25.8274 L377.772 20.9085 Q380.694 19.78 383.443 19.2302 Q386.192 18.6515 388.796 18.6515 Q395.827 18.6515 399.299 22.2973 Q402.772 25.9431 402.772 33.3505 Z" fill="#000000" fill-rule="nonzero" fill-opacity="1" /><path clip-path="url(#clip240)" d="M413.738 6.81709 L419.062 6.81709 L419.062 51.84 L413.738 51.84 L413.738 6.81709 Z" fill="#000000" fill-rule="nonzero" fill-opacity="1" /><path clip-path="url(#clip240)" d="M430.202 19.4328 L435.526 19.4328 L435.526 51.84 L430.202 51.84 L430.202 19.4328 M430.202 6.81709 L435.526 6.81709 L435.526 13.559 L430.202 13.559 L430.202 6.81709 Z" fill="#000000" fill-rule="nonzero" fill-opacity="1" /><path clip-path="url(#clip240)" d="M451.932 10.2314 L451.932 19.4328 L462.899 19.4328 L462.899 23.5705 L451.932 23.5705 L451.932 41.163 Q451.932 45.1271 453.003 46.2555 Q454.102 47.384 457.43 47.384 L462.899 47.384 L462.899 51.84 L457.43 51.84 Q451.267 51.84 448.923 49.5541 Q446.579 47.2393 446.579 41.163 L446.579 23.5705 L442.673 23.5705 L442.673 19.4328 L446.579 19.4328 L446.579 10.2314 L451.932 10.2314 Z" fill="#000000" fill-rule="nonzero" fill-opacity="1" /><path clip-path="url(#clip240)" d="M483.385 54.8492 Q481.128 60.6362 478.986 62.4013 Q476.845 64.1663 473.257 64.1663 L469.004 64.1663 L469.004 59.7103 L472.129 59.7103 Q474.328 59.7103 475.543 58.6687 Q476.759 57.627 478.234 53.7497 L479.189 51.3192 L466.081 19.4328 L471.724 19.4328 L481.851 44.7799 L491.978 19.4328 L497.621 19.4328 L483.385 54.8492 Z" fill="#000000" fill-rule="nonzero" fill-opacity="1" /><path clip-path="url(#clip240)" d="M547.071 35.6653 Q547.071 29.7915 544.64 26.464 Q542.238 23.1075 538.014 23.1075 Q533.789 23.1075 531.359 26.464 Q528.957 29.7915 528.957 35.6653 Q528.957 41.5391 531.359 44.8956 Q533.789 48.2231 538.014 48.2231 Q542.238 48.2231 544.64 44.8956 Q547.071 41.5391 547.071 35.6653 M528.957 24.3517 Q530.636 21.4582 533.182 20.0693 Q535.757 18.6515 539.316 18.6515 Q545.219 18.6515 548.894 23.339 Q552.597 28.0265 552.597 35.6653 Q552.597 43.3042 548.894 47.9916 Q545.219 52.6791 539.316 52.6791 Q535.757 52.6791 533.182 51.2902 Q530.636 49.8724 528.957 46.9789 L528.957 51.84 L523.604 51.84 L523.604 6.81709 L528.957 6.81709 L528.957 24.3517 Z" fill="#000000" fill-rule="nonzero" fill-opacity="1" /><path clip-path="url(#clip240)" d="M574.906 54.8492 Q572.649 60.6362 570.508 62.4013 Q568.367 64.1663 564.779 64.1663 L560.525 64.1663 L560.525 59.7103 L563.65 59.7103 Q565.849 59.7103 567.065 58.6687 Q568.28 57.627 569.756 53.7497 L570.711 51.3192 L557.603 19.4328 L563.245 19.4328 L573.373 44.7799 L583.5 19.4328 L589.142 19.4328 L574.906 54.8492 Z" fill="#000000" fill-rule="nonzero" fill-opacity="1" /><path clip-path="url(#clip240)" d="M636.653 35.2602 Q636.653 29.4732 634.252 26.2904 Q631.879 23.1075 627.568 23.1075 Q623.285 23.1075 620.884 26.2904 Q618.511 29.4732 618.511 35.2602 Q618.511 41.0183 620.884 44.2012 Q623.285 47.384 627.568 47.384 Q631.879 47.384 634.252 44.2012 Q636.653 41.0183 636.653 35.2602 M641.978 47.818 Q641.978 56.0934 638.303 60.1154 Q634.628 64.1663 627.047 64.1663 Q624.24 64.1663 621.752 63.7323 Q619.264 63.3272 616.92 62.4592 L616.92 57.2798 Q619.264 58.5529 621.549 59.1606 Q623.835 59.7682 626.208 59.7682 Q631.445 59.7682 634.049 57.0194 Q636.653 54.2995 636.653 48.7729 L636.653 46.1398 Q635.004 49.0044 632.429 50.4222 Q629.854 51.84 626.266 51.84 Q620.305 51.84 616.659 47.2972 Q613.014 42.7544 613.014 35.2602 Q613.014 27.7371 616.659 23.1943 Q620.305 18.6515 626.266 18.6515 Q629.854 18.6515 632.429 20.0693 Q635.004 21.4872 636.653 24.3517 L636.653 19.4328 L641.978 19.4328 L641.978 47.818 Z" fill="#000000" fill-rule="nonzero" fill-opacity="1" /><path clip-path="url(#clip240)" d="M671.723 24.4096 Q670.826 23.8888 669.755 23.6573 Q668.713 23.3969 667.44 23.3969 Q662.926 23.3969 660.496 26.3482 Q658.094 29.2707 658.094 34.7683 L658.094 51.84 L652.741 51.84 L652.741 19.4328 L658.094 19.4328 L658.094 24.4675 Q659.773 21.5161 662.464 20.0983 Q665.154 18.6515 669.003 18.6515 Q669.553 18.6515 670.218 18.7383 Q670.884 18.7962 671.694 18.9409 L671.723 24.4096 Z" fill="#000000" fill-rule="nonzero" fill-opacity="1" /><path clip-path="url(#clip240)" d="M688.563 23.1654 Q684.281 23.1654 681.792 26.5218 Q679.304 29.8494 679.304 35.6653 Q679.304 41.4813 681.763 44.8377 Q684.252 48.1653 688.563 48.1653 Q692.816 48.1653 695.305 44.8088 Q697.793 41.4523 697.793 35.6653 Q697.793 29.9072 695.305 26.5508 Q692.816 23.1654 688.563 23.1654 M688.563 18.6515 Q695.507 18.6515 699.471 23.1654 Q703.436 27.6792 703.436 35.6653 Q703.436 43.6225 699.471 48.1653 Q695.507 52.6791 688.563 52.6791 Q681.59 52.6791 677.625 48.1653 Q673.69 43.6225 673.69 35.6653 Q673.69 27.6792 677.625 23.1654 Q681.59 18.6515 688.563 18.6515 Z" fill="#000000" fill-rule="nonzero" fill-opacity="1" /><path clip-path="url(#clip240)" d="M711.711 39.0507 L711.711 19.4328 L717.035 19.4328 L717.035 38.8482 Q717.035 43.4488 718.829 45.7636 Q720.623 48.0495 724.211 48.0495 Q728.522 48.0495 731.011 45.3007 Q733.528 42.5519 733.528 37.8065 L733.528 19.4328 L738.852 19.4328 L738.852 51.84 L733.528 51.84 L733.528 46.8632 Q731.589 49.8145 729.014 51.2613 Q726.468 52.6791 723.082 52.6791 Q717.498 52.6791 714.604 49.2069 Q711.711 45.7347 711.711 39.0507 M725.108 18.6515 L725.108 18.6515 Z" fill="#000000" fill-rule="nonzero" fill-opacity="1" /><path clip-path="url(#clip240)" d="M754.969 46.9789 L754.969 64.1663 L749.616 64.1663 L749.616 19.4328 L754.969 19.4328 L754.969 24.3517 Q756.647 21.4582 759.193 20.0693 Q761.769 18.6515 765.328 18.6515 Q771.23 18.6515 774.905 23.339 Q778.609 28.0265 778.609 35.6653 Q778.609 43.3042 774.905 47.9916 Q771.23 52.6791 765.328 52.6791 Q761.769 52.6791 759.193 51.2902 Q756.647 49.8724 754.969 46.9789 M773.082 35.6653 Q773.082 29.7915 770.652 26.464 Q768.25 23.1075 764.025 23.1075 Q759.801 23.1075 757.37 26.464 Q754.969 29.7915 754.969 35.6653 Q754.969 41.5391 757.37 44.8956 Q759.801 48.2231 764.025 48.2231 Q768.25 48.2231 770.652 44.8956 Q773.082 41.5391 773.082 35.6653 Z" fill="#000000" fill-rule="nonzero" fill-opacity="1" /><path clip-path="url(#clip240)" d="M837.897 6.87496 Q834.019 13.53 832.139 20.0404 Q830.258 26.5508 830.258 33.2348 Q830.258 39.9188 832.139 46.487 Q834.048 53.0263 837.897 59.6525 L833.267 59.6525 Q828.927 52.8527 826.757 46.2845 Q824.615 39.7162 824.615 33.2348 Q824.615 26.7823 826.757 20.2429 Q828.898 13.7036 833.267 6.87496 L837.897 6.87496 Z" fill="#000000" fill-rule="nonzero" fill-opacity="1" /><path clip-path="url(#clip240)" d="M862.896 14.3981 L854.968 35.8968 L870.854 35.8968 L862.896 14.3981 M859.598 8.64 L866.224 8.64 L882.688 51.84 L876.612 51.84 L872.677 40.7579 L853.203 40.7579 L849.268 51.84 L843.105 51.84 L859.598 8.64 Z" fill="#000000" fill-rule="nonzero" fill-opacity="1" /><path clip-path="url(#clip240)" d="M894.841 31.2093 L894.841 47.0368 L904.216 47.0368 Q908.932 47.0368 911.189 45.0981 Q913.475 43.1306 913.475 39.1086 Q913.475 35.0577 911.189 33.148 Q908.932 31.2093 904.216 31.2093 L894.841 31.2093 M894.841 13.4432 L894.841 26.464 L903.492 26.464 Q907.775 26.464 909.858 24.8726 Q911.97 23.2522 911.97 19.9536 Q911.97 16.6839 909.858 15.0636 Q907.775 13.4432 903.492 13.4432 L894.841 13.4432 M888.996 8.64 L903.926 8.64 Q910.61 8.64 914.227 11.4178 Q917.844 14.1955 917.844 19.317 Q917.844 23.2811 915.992 25.6249 Q914.14 27.9686 910.552 28.5473 Q914.864 29.4732 917.236 32.4246 Q919.638 35.347 919.638 39.7452 Q919.638 45.5322 915.703 48.6861 Q911.768 51.84 904.505 51.84 L888.996 51.84 L888.996 8.64 Z" fill="#000000" fill-rule="nonzero" fill-opacity="1" /><path clip-path="url(#clip240)" d="M986.044 22.442 L958.266 30.457 L986.044 38.3852 L986.044 43.5356 L948.949 32.8876 L948.949 27.9686 L986.044 17.3494 L986.044 22.442 M948.949 46.921 L986.044 46.921 L986.044 51.84 L948.949 51.84 L948.949 46.921 Z" fill="#000000" fill-rule="nonzero" fill-opacity="1" /><path clip-path="url(#clip240)" d="M1018.51 46.921 L1028.06 46.921 L1028.06 13.964 L1017.67 16.0474 L1017.67 10.7233 L1028 8.64 L1033.84 8.64 L1033.84 46.921 L1043.39 46.921 L1043.39 51.84 L1018.51 51.84 L1018.51 46.921 Z" fill="#000000" fill-rule="nonzero" fill-opacity="1" /><path clip-path="url(#clip240)" d="M1060.23 46.921 L1080.63 46.921 L1080.63 51.84 L1053.2 51.84 L1053.2 46.921 Q1056.53 43.4778 1062.26 37.6908 Q1068.02 31.8748 1069.49 30.1966 Q1072.3 27.0427 1073.4 24.8726 Q1074.53 22.6735 1074.53 20.5612 Q1074.53 17.118 1072.1 14.9478 Q1069.7 12.7777 1065.82 12.7777 Q1063.07 12.7777 1060 13.7326 Q1056.96 14.6874 1053.49 16.6261 L1053.49 10.7233 Q1057.02 9.30551 1060.09 8.58213 Q1063.16 7.85875 1065.7 7.85875 Q1072.42 7.85875 1076.41 11.2152 Q1080.4 14.5717 1080.4 20.1851 Q1080.4 22.8471 1079.39 25.2487 Q1078.4 27.6214 1075.77 30.8621 Q1075.05 31.7012 1071.17 35.7232 Q1067.29 39.7162 1060.23 46.921 Z" fill="#000000" fill-rule="nonzero" fill-opacity="1" /><path clip-path="url(#clip240)" d="M1091.43 8.64 L1119.2 8.64 L1119.2 11.1284 L1103.52 51.84 L1097.41 51.84 L1112.17 13.559 L1091.43 13.559 L1091.43 8.64 Z" fill="#000000" fill-rule="nonzero" fill-opacity="1" /><path clip-path="url(#clip240)" d="M1172.01 20.677 L1172.01 25.6538 Q1169.75 24.4096 1167.47 23.802 Q1165.21 23.1654 1162.89 23.1654 Q1157.72 23.1654 1154.85 26.464 Q1151.99 29.7336 1151.99 35.6653 Q1151.99 41.597 1154.85 44.8956 Q1157.72 48.1653 1162.89 48.1653 Q1165.21 48.1653 1167.47 47.5576 Q1169.75 46.921 1172.01 45.6768 L1172.01 50.5958 Q1169.78 51.6375 1167.38 52.1583 Q1165.01 52.6791 1162.32 52.6791 Q1155 52.6791 1150.68 48.0784 Q1146.37 43.4778 1146.37 35.6653 Q1146.37 27.7371 1150.71 23.1943 Q1155.08 18.6515 1162.66 18.6515 Q1165.12 18.6515 1167.47 19.1724 Q1169.81 19.6642 1172.01 20.677 Z" fill="#000000" fill-rule="nonzero" fill-opacity="1" /><path clip-path="url(#clip240)" d="M1206.5 25.6538 Q1208.5 22.0659 1211.27 20.3587 Q1214.05 18.6515 1217.81 18.6515 Q1222.88 18.6515 1225.63 22.2105 Q1228.37 25.7406 1228.37 32.2799 L1228.37 51.84 L1223.02 51.84 L1223.02 32.4535 Q1223.02 27.795 1221.37 25.5381 Q1219.72 23.2811 1216.34 23.2811 Q1212.2 23.2811 1209.8 26.03 Q1207.4 28.7788 1207.4 33.5241 L1207.4 51.84 L1202.04 51.84 L1202.04 32.4535 Q1202.04 27.7661 1200.39 25.5381 Q1198.75 23.2811 1195.3 23.2811 Q1191.22 23.2811 1188.82 26.0589 Q1186.42 28.8077 1186.42 33.5241 L1186.42 51.84 L1181.07 51.84 L1181.07 19.4328 L1186.42 19.4328 L1186.42 24.4675 Q1188.24 21.4872 1190.79 20.0693 Q1193.33 18.6515 1196.84 18.6515 Q1200.37 18.6515 1202.83 20.4455 Q1205.31 22.2395 1206.5 25.6538 Z" fill="#000000" fill-rule="nonzero" fill-opacity="1" /><path clip-path="url(#clip240)" d="M1248.46 8.64 L1253.37 8.64 L1238.33 57.3377 L1233.41 57.3377 L1248.46 8.64 Z" fill="#000000" fill-rule="nonzero" fill-opacity="1" /><path clip-path="url(#clip240)" d="M1279.62 20.3876 L1279.62 25.4223 Q1277.36 24.2649 1274.93 23.6862 Q1272.5 23.1075 1269.9 23.1075 Q1265.93 23.1075 1263.94 24.3228 Q1261.97 25.5381 1261.97 27.9686 Q1261.97 29.8204 1263.39 30.891 Q1264.8 31.9327 1269.09 32.8876 L1270.91 33.2926 Q1276.58 34.5079 1278.95 36.7359 Q1281.35 38.935 1281.35 42.8991 Q1281.35 47.4129 1277.77 50.046 Q1274.21 52.6791 1267.96 52.6791 Q1265.35 52.6791 1262.52 52.1583 Q1259.71 51.6664 1256.59 50.6537 L1256.59 45.156 Q1259.54 46.6896 1262.4 47.4708 Q1265.27 48.2231 1268.07 48.2231 Q1271.84 48.2231 1273.86 46.95 Q1275.89 45.6479 1275.89 43.3042 Q1275.89 41.134 1274.41 39.9766 Q1272.96 38.8192 1268.02 37.7486 L1266.16 37.3146 Q1261.22 36.273 1259.02 34.1318 Q1256.82 31.9616 1256.82 28.2001 Q1256.82 23.6283 1260.06 21.1399 Q1263.3 18.6515 1269.26 18.6515 Q1272.21 18.6515 1274.82 19.0855 Q1277.42 19.5196 1279.62 20.3876 Z" fill="#000000" fill-rule="nonzero" fill-opacity="1" /><path clip-path="url(#clip240)" d="M1288.99 6.87496 L1293.62 6.87496 Q1297.96 13.7036 1300.1 20.2429 Q1302.27 26.7823 1302.27 33.2348 Q1302.27 39.7162 1300.1 46.2845 Q1297.96 52.8527 1293.62 59.6525 L1288.99 59.6525 Q1292.84 53.0263 1294.72 46.487 Q1296.63 39.9188 1296.63 33.2348 Q1296.63 26.5508 1294.72 20.0404 Q1292.84 13.53 1288.99 6.87496 Z" fill="#000000" fill-rule="nonzero" fill-opacity="1" /><circle clip-path="url(#clip242)" cx="428.34" cy="287.872" r="10.8" fill="#4482b5" fill-rule="evenodd" fill-opacity="0.65" stroke="none"/>
<circle clip-path="url(#clip242)" cx="448.707" cy="288.316" r="10.8" fill="#4482b5" fill-rule="evenodd" fill-opacity="0.65" stroke="none"/>
<circle clip-path="url(#clip242)" cx="435.276" cy="261.73" r="10.8" fill="#4482b5" fill-rule="evenodd" fill-opacity="0.65" stroke="none"/>
<circle clip-path="url(#clip242)" cx="406.91" cy="260.867" r="10.8" fill="#4482b5" fill-rule="evenodd" fill-opacity="0.65" stroke="none"/>
<circle clip-path="url(#clip242)" cx="425.512" cy="260.311" r="10.8" fill="#4482b5" fill-rule="evenodd" fill-opacity="0.65" stroke="none"/>
<circle clip-path="url(#clip242)" cx="430.169" cy="323.625" r="10.8" fill="#4482b5" fill-rule="evenodd" fill-opacity="0.65" stroke="none"/>
<circle clip-path="url(#clip242)" cx="398.491" cy="319.178" r="10.8" fill="#4482b5" fill-rule="evenodd" fill-opacity="0.65" stroke="none"/>
<circle clip-path="url(#clip242)" cx="413.861" cy="320.622" r="10.8" fill="#4482b5" fill-rule="evenodd" fill-opacity="0.65" stroke="none"/>
<circle clip-path="url(#clip242)" cx="417.943" cy="319.273" r="10.8" fill="#4482b5" fill-rule="evenodd" fill-opacity="0.65" stroke="none"/>
<circle clip-path="url(#clip242)" cx="415.221" cy="315.438" r="10.8" fill="#4482b5" fill-rule="evenodd" fill-opacity="0.65" stroke="none"/>
<circle clip-path="url(#clip242)" cx="451.223" cy="259.571" r="10.8" fill="#4482b5" fill-rule="evenodd" fill-opacity="0.65" stroke="none"/>
<circle clip-path="url(#clip242)" cx="418.308" cy="272.882" r="10.8" fill="#4482b5" fill-rule="evenodd" fill-opacity="0.65" stroke="none"/>
<circle clip-path="url(#clip242)" cx="426.924" cy="277.171" r="10.8" fill="#4482b5" fill-rule="evenodd" fill-opacity="0.65" stroke="none"/>
<circle clip-path="url(#clip242)" cx="415.527" cy="259.818" r="10.8" fill="#4482b5" fill-rule="evenodd" fill-opacity="0.65" stroke="none"/>
<circle clip-path="url(#clip242)" cx="413.056" cy="270.7" r="10.8" fill="#4482b5" fill-rule="evenodd" fill-opacity="0.65" stroke="none"/>
<circle clip-path="url(#clip242)" cx="411.825" cy="273.49" r="10.8" fill="#4482b5" fill-rule="evenodd" fill-opacity="0.65" stroke="none"/>
<circle clip-path="url(#clip242)" cx="420.459" cy="265.553" r="10.8" fill="#4482b5" fill-rule="evenodd" fill-opacity="0.65" stroke="none"/>
<circle clip-path="url(#clip242)" cx="402.069" cy="287.241" r="10.8" fill="#4482b5" fill-rule="evenodd" fill-opacity="0.65" stroke="none"/>
<circle clip-path="url(#clip242)" cx="393.377" cy="259.704" r="10.8" fill="#4482b5" fill-rule="evenodd" fill-opacity="0.65" stroke="none"/>
<circle clip-path="url(#clip242)" cx="437.695" cy="265.377" r="10.8" fill="#4482b5" fill-rule="evenodd" fill-opacity="0.65" stroke="none"/>
<circle clip-path="url(#clip242)" cx="448.197" cy="269.861" r="10.8" fill="#4482b5" fill-rule="evenodd" fill-opacity="0.65" stroke="none"/>
<circle clip-path="url(#clip242)" cx="422.296" cy="270.109" r="10.8" fill="#4482b5" fill-rule="evenodd" fill-opacity="0.65" stroke="none"/>
<circle clip-path="url(#clip242)" cx="420.594" cy="288.615" r="10.8" fill="#4482b5" fill-rule="evenodd" fill-opacity="0.65" stroke="none"/>
<circle clip-path="url(#clip242)" cx="450.715" cy="294.018" r="10.8" fill="#4482b5" fill-rule="evenodd" fill-opacity="0.65" stroke="none"/>
<circle clip-path="url(#clip242)" cx="430.51" cy="285.668" r="10.8" fill="#4482b5" fill-rule="evenodd" fill-opacity="0.65" stroke="none"/>
<circle clip-path="url(#clip242)" cx="411.915" cy="267.575" r="10.8" fill="#4482b5" fill-rule="evenodd" fill-opacity="0.65" stroke="none"/>
<circle clip-path="url(#clip242)" cx="397.541" cy="267.787" r="10.8" fill="#4482b5" fill-rule="evenodd" fill-opacity="0.65" stroke="none"/>
<circle clip-path="url(#clip242)" cx="431.605" cy="258.771" r="10.8" fill="#4482b5" fill-rule="evenodd" fill-opacity="0.65" stroke="none"/>
<circle clip-path="url(#clip242)" cx="425.471" cy="298.678" r="10.8" fill="#4482b5" fill-rule="evenodd" fill-opacity="0.65" stroke="none"/>
<circle clip-path="url(#clip242)" cx="406.833" cy="277.168" r="10.8" fill="#4482b5" fill-rule="evenodd" fill-opacity="0.65" stroke="none"/>
<circle clip-path="url(#clip242)" cx="428.896" cy="277.144" r="10.8" fill="#4482b5" fill-rule="evenodd" fill-opacity="0.65" stroke="none"/>
<circle clip-path="url(#clip242)" cx="436.38" cy="269.948" r="10.8" fill="#4482b5" fill-rule="evenodd" fill-opacity="0.65" stroke="none"/>
<circle clip-path="url(#clip242)" cx="420.552" cy="267.707" r="10.8" fill="#4482b5" fill-rule="evenodd" fill-opacity="0.65" stroke="none"/>
<circle clip-path="url(#clip242)" cx="413.236" cy="266.996" r="10.8" fill="#4482b5" fill-rule="evenodd" fill-opacity="0.65" stroke="none"/>
<circle clip-path="url(#clip242)" cx="429.247" cy="326.023" r="10.8" fill="#4482b5" fill-rule="evenodd" fill-opacity="0.65" stroke="none"/>
<circle clip-path="url(#clip242)" cx="403.715" cy="333.052" r="10.8" fill="#4482b5" fill-rule="evenodd" fill-opacity="0.65" stroke="none"/>
<circle clip-path="url(#clip242)" cx="410.913" cy="320.466" r="10.8" fill="#4482b5" fill-rule="evenodd" fill-opacity="0.65" stroke="none"/>
<circle clip-path="url(#clip242)" cx="416.215" cy="320.28" r="10.8" fill="#4482b5" fill-rule="evenodd" fill-opacity="0.65" stroke="none"/>
<circle clip-path="url(#clip242)" cx="419.049" cy="320.224" r="10.8" fill="#4482b5" fill-rule="evenodd" fill-opacity="0.65" stroke="none"/>
<circle clip-path="url(#clip242)" cx="407.208" cy="327.962" r="10.8" fill="#4482b5" fill-rule="evenodd" fill-opacity="0.65" stroke="none"/>
<circle clip-path="url(#clip242)" cx="395.432" cy="326.234" r="10.8" fill="#4482b5" fill-rule="evenodd" fill-opacity="0.65" stroke="none"/>
<circle clip-path="url(#clip242)" cx="446.81" cy="320.114" r="10.8" fill="#4482b5" fill-rule="evenodd" fill-opacity="0.65" stroke="none"/>
<circle clip-path="url(#clip242)" cx="451.331" cy="322.084" r="10.8" fill="#4482b5" fill-rule="evenodd" fill-opacity="0.65" stroke="none"/>
<circle clip-path="url(#clip242)" cx="410.746" cy="331.235" r="10.8" fill="#4482b5" fill-rule="evenodd" fill-opacity="0.65" stroke="none"/>
<circle clip-path="url(#clip242)" cx="446.778" cy="328.153" r="10.8" fill="#4482b5" fill-rule="evenodd" fill-opacity="0.65" stroke="none"/>
<circle clip-path="url(#clip242)" cx="443.445" cy="436.532" r="10.8" fill="#4482b5" fill-rule="evenodd" fill-opacity="0.65" stroke="none"/>
<circle clip-path="url(#clip242)" cx="437.514" cy="332.665" r="10.8" fill="#4482b5" fill-rule="evenodd" fill-opacity="0.65" stroke="none"/>
<circle clip-path="url(#clip242)" cx="392.573" cy="332.09" r="10.8" fill="#4482b5" fill-rule="evenodd" fill-opacity="0.65" stroke="none"/>
<circle clip-path="url(#clip242)" cx="449.438" cy="235.169" r="10.8" fill="#4482b5" fill-rule="evenodd" fill-opacity="0.65" stroke="none"/>
<circle clip-path="url(#clip242)" cx="437.271" cy="327.204" r="10.8" fill="#4482b5" fill-rule="evenodd" fill-opacity="0.65" stroke="none"/>
<circle clip-path="url(#clip242)" cx="398.27" cy="332.743" r="10.8" fill="#4482b5" fill-rule="evenodd" fill-opacity="0.65" stroke="none"/>
<circle clip-path="url(#clip242)" cx="393.79" cy="236.43" r="10.8" fill="#4482b5" fill-rule="evenodd" fill-opacity="0.65" stroke="none"/>
<circle clip-path="url(#clip242)" cx="431.072" cy="324.522" r="10.8" fill="#4482b5" fill-rule="evenodd" fill-opacity="0.65" stroke="none"/>
<circle clip-path="url(#clip242)" cx="396.332" cy="320.775" r="10.8" fill="#4482b5" fill-rule="evenodd" fill-opacity="0.65" stroke="none"/>
<circle clip-path="url(#clip242)" cx="433.817" cy="320.725" r="10.8" fill="#4482b5" fill-rule="evenodd" fill-opacity="0.65" stroke="none"/>
<circle clip-path="url(#clip242)" cx="441.699" cy="321.014" r="10.8" fill="#4482b5" fill-rule="evenodd" fill-opacity="0.65" stroke="none"/>
<circle clip-path="url(#clip242)" cx="443.032" cy="321.519" r="10.8" fill="#4482b5" fill-rule="evenodd" fill-opacity="0.65" stroke="none"/>
<circle clip-path="url(#clip242)" cx="417.328" cy="320.73" r="10.8" fill="#4482b5" fill-rule="evenodd" fill-opacity="0.65" stroke="none"/>
<circle clip-path="url(#clip242)" cx="409.749" cy="329.371" r="10.8" fill="#4482b5" fill-rule="evenodd" fill-opacity="0.65" stroke="none"/>
<circle clip-path="url(#clip242)" cx="441.216" cy="335.176" r="10.8" fill="#4482b5" fill-rule="evenodd" fill-opacity="0.65" stroke="none"/>
<circle clip-path="url(#clip242)" cx="426.289" cy="316.168" r="10.8" fill="#4482b5" fill-rule="evenodd" fill-opacity="0.65" stroke="none"/>
<circle clip-path="url(#clip242)" cx="425.175" cy="321.807" r="10.8" fill="#4482b5" fill-rule="evenodd" fill-opacity="0.65" stroke="none"/>
<circle clip-path="url(#clip242)" cx="436.85" cy="326.923" r="10.8" fill="#4482b5" fill-rule="evenodd" fill-opacity="0.65" stroke="none"/>
<circle clip-path="url(#clip242)" cx="404.8" cy="323.713" r="10.8" fill="#4482b5" fill-rule="evenodd" fill-opacity="0.65" stroke="none"/>
<circle clip-path="url(#clip242)" cx="434.228" cy="333.95" r="10.8" fill="#4482b5" fill-rule="evenodd" fill-opacity="0.65" stroke="none"/>
<circle clip-path="url(#clip242)" cx="394.187" cy="331.419" r="10.8" fill="#4482b5" fill-rule="evenodd" fill-opacity="0.65" stroke="none"/>
<circle clip-path="url(#clip242)" cx="424.139" cy="322.979" r="10.8" fill="#4482b5" fill-rule="evenodd" fill-opacity="0.65" stroke="none"/>
<circle clip-path="url(#clip242)" cx="414.399" cy="323.625" r="10.8" fill="#4482b5" fill-rule="evenodd" fill-opacity="0.65" stroke="none"/>
<circle clip-path="url(#clip242)" cx="418.469" cy="325.555" r="10.8" fill="#4482b5" fill-rule="evenodd" fill-opacity="0.65" stroke="none"/>
<circle clip-path="url(#clip242)" cx="430.671" cy="323.817" r="10.8" fill="#4482b5" fill-rule="evenodd" fill-opacity="0.65" stroke="none"/>
<circle clip-path="url(#clip242)" cx="401.449" cy="316.067" r="10.8" fill="#4482b5" fill-rule="evenodd" fill-opacity="0.65" stroke="none"/>
<circle clip-path="url(#clip242)" cx="399.447" cy="324.917" r="10.8" fill="#4482b5" fill-rule="evenodd" fill-opacity="0.65" stroke="none"/>
<circle clip-path="url(#clip242)" cx="404.592" cy="334.74" r="10.8" fill="#4482b5" fill-rule="evenodd" fill-opacity="0.65" stroke="none"/>
<circle clip-path="url(#clip242)" cx="447.531" cy="332.262" r="10.8" fill="#4482b5" fill-rule="evenodd" fill-opacity="0.65" stroke="none"/>
<circle clip-path="url(#clip242)" cx="414.494" cy="281.332" r="10.8" fill="#4482b5" fill-rule="evenodd" fill-opacity="0.65" stroke="none"/>
<circle clip-path="url(#clip242)" cx="427.542" cy="235.37" r="10.8" fill="#4482b5" fill-rule="evenodd" fill-opacity="0.65" stroke="none"/>
<circle clip-path="url(#clip242)" cx="432.554" cy="233.261" r="10.8" fill="#4482b5" fill-rule="evenodd" fill-opacity="0.65" stroke="none"/>
<circle clip-path="url(#clip242)" cx="398.779" cy="233.229" r="10.8" fill="#4482b5" fill-rule="evenodd" fill-opacity="0.65" stroke="none"/>
<circle clip-path="url(#clip242)" cx="407.997" cy="233.231" r="10.8" fill="#4482b5" fill-rule="evenodd" fill-opacity="0.65" stroke="none"/>
<circle clip-path="url(#clip242)" cx="411.591" cy="233.329" r="10.8" fill="#4482b5" fill-rule="evenodd" fill-opacity="0.65" stroke="none"/>
<circle clip-path="url(#clip242)" cx="411.71" cy="233.807" r="10.8" fill="#4482b5" fill-rule="evenodd" fill-opacity="0.65" stroke="none"/>
<circle clip-path="url(#clip242)" cx="418.628" cy="236.453" r="10.8" fill="#4482b5" fill-rule="evenodd" fill-opacity="0.65" stroke="none"/>
<circle clip-path="url(#clip242)" cx="417.648" cy="233.179" r="10.8" fill="#4482b5" fill-rule="evenodd" fill-opacity="0.65" stroke="none"/>
<circle clip-path="url(#clip242)" cx="421.826" cy="367.917" r="10.8" fill="#4482b5" fill-rule="evenodd" fill-opacity="0.65" stroke="none"/>
<circle clip-path="url(#clip242)" cx="411.638" cy="233.181" r="10.8" fill="#4482b5" fill-rule="evenodd" fill-opacity="0.65" stroke="none"/>
<circle clip-path="url(#clip242)" cx="411.158" cy="237.882" r="10.8" fill="#4482b5" fill-rule="evenodd" fill-opacity="0.65" stroke="none"/>
<circle clip-path="url(#clip242)" cx="434.012" cy="235.197" r="10.8" fill="#4482b5" fill-rule="evenodd" fill-opacity="0.65" stroke="none"/>
<circle clip-path="url(#clip242)" cx="409.606" cy="233.263" r="10.8" fill="#4482b5" fill-rule="evenodd" fill-opacity="0.65" stroke="none"/>
<circle clip-path="url(#clip242)" cx="411.249" cy="233.199" r="10.8" fill="#4482b5" fill-rule="evenodd" fill-opacity="0.65" stroke="none"/>
<circle clip-path="url(#clip242)" cx="411.056" cy="234.686" r="10.8" fill="#4482b5" fill-rule="evenodd" fill-opacity="0.65" stroke="none"/>
<circle clip-path="url(#clip242)" cx="405.56" cy="233.181" r="10.8" fill="#4482b5" fill-rule="evenodd" fill-opacity="0.65" stroke="none"/>
<circle clip-path="url(#clip242)" cx="406.034" cy="233.532" r="10.8" fill="#4482b5" fill-rule="evenodd" fill-opacity="0.65" stroke="none"/>
<circle clip-path="url(#clip242)" cx="437.721" cy="233.365" r="10.8" fill="#4482b5" fill-rule="evenodd" fill-opacity="0.65" stroke="none"/>
<circle clip-path="url(#clip242)" cx="436.727" cy="233.227" r="10.8" fill="#4482b5" fill-rule="evenodd" fill-opacity="0.65" stroke="none"/>
<polyline clip-path="url(#clip242)" style="stroke:#000000; stroke-linecap:round; stroke-linejoin:round; stroke-width:12; stroke-opacity:1; fill:none" points="362.823,288.466 481.822,288.466 "/>
<polyline clip-path="url(#clip242)" style="stroke:#000000; stroke-linecap:round; stroke-linejoin:round; stroke-width:8; stroke-opacity:1; fill:none" points="422.322,323.691 422.322,259.941 "/>
<circle clip-path="url(#clip242)" cx="702.368" cy="233.191" r="10.8" fill="#ff8c00" fill-rule="evenodd" fill-opacity="0.65" stroke="none"/>
<circle clip-path="url(#clip242)" cx="715.742" cy="233.185" r="10.8" fill="#ff8c00" fill-rule="evenodd" fill-opacity="0.65" stroke="none"/>
<circle clip-path="url(#clip242)" cx="694.368" cy="233.406" r="10.8" fill="#ff8c00" fill-rule="evenodd" fill-opacity="0.65" stroke="none"/>
<circle clip-path="url(#clip242)" cx="682.204" cy="233.197" r="10.8" fill="#ff8c00" fill-rule="evenodd" fill-opacity="0.65" stroke="none"/>
<circle clip-path="url(#clip242)" cx="681.073" cy="434.824" r="10.8" fill="#ff8c00" fill-rule="evenodd" fill-opacity="0.65" stroke="none"/>
<circle clip-path="url(#clip242)" cx="668.475" cy="253.889" r="10.8" fill="#ff8c00" fill-rule="evenodd" fill-opacity="0.65" stroke="none"/>
<circle clip-path="url(#clip242)" cx="682.898" cy="233.24" r="10.8" fill="#ff8c00" fill-rule="evenodd" fill-opacity="0.65" stroke="none"/>
<circle clip-path="url(#clip242)" cx="672.235" cy="618.749" r="10.8" fill="#ff8c00" fill-rule="evenodd" fill-opacity="0.65" stroke="none"/>
<circle clip-path="url(#clip242)" cx="699.797" cy="326.37" r="10.8" fill="#ff8c00" fill-rule="evenodd" fill-opacity="0.65" stroke="none"/>
<circle clip-path="url(#clip242)" cx="688.222" cy="233.231" r="10.8" fill="#ff8c00" fill-rule="evenodd" fill-opacity="0.65" stroke="none"/>
<circle clip-path="url(#clip242)" cx="718.378" cy="343.388" r="10.8" fill="#ff8c00" fill-rule="evenodd" fill-opacity="0.65" stroke="none"/>
<circle clip-path="url(#clip242)" cx="693.991" cy="431.736" r="10.8" fill="#ff8c00" fill-rule="evenodd" fill-opacity="0.65" stroke="none"/>
<circle clip-path="url(#clip242)" cx="683.005" cy="235.929" r="10.8" fill="#ff8c00" fill-rule="evenodd" fill-opacity="0.65" stroke="none"/>
<circle clip-path="url(#clip242)" cx="679.95" cy="234.429" r="10.8" fill="#ff8c00" fill-rule="evenodd" fill-opacity="0.65" stroke="none"/>
<circle clip-path="url(#clip242)" cx="668.427" cy="236.703" r="10.8" fill="#ff8c00" fill-rule="evenodd" fill-opacity="0.65" stroke="none"/>
<circle clip-path="url(#clip242)" cx="668.989" cy="233.187" r="10.8" fill="#ff8c00" fill-rule="evenodd" fill-opacity="0.65" stroke="none"/>
<circle clip-path="url(#clip242)" cx="689.234" cy="233.196" r="10.8" fill="#ff8c00" fill-rule="evenodd" fill-opacity="0.65" stroke="none"/>
<circle clip-path="url(#clip242)" cx="683.518" cy="272.318" r="10.8" fill="#ff8c00" fill-rule="evenodd" fill-opacity="0.65" stroke="none"/>
<circle clip-path="url(#clip242)" cx="684.055" cy="240.362" r="10.8" fill="#ff8c00" fill-rule="evenodd" fill-opacity="0.65" stroke="none"/>
<circle clip-path="url(#clip242)" cx="698.456" cy="633.091" r="10.8" fill="#ff8c00" fill-rule="evenodd" fill-opacity="0.65" stroke="none"/>
<circle clip-path="url(#clip242)" cx="721.169" cy="233.391" r="10.8" fill="#ff8c00" fill-rule="evenodd" fill-opacity="0.65" stroke="none"/>
<circle clip-path="url(#clip242)" cx="675.043" cy="233.222" r="10.8" fill="#ff8c00" fill-rule="evenodd" fill-opacity="0.65" stroke="none"/>
<circle clip-path="url(#clip242)" cx="701.777" cy="233.251" r="10.8" fill="#ff8c00" fill-rule="evenodd" fill-opacity="0.65" stroke="none"/>
<circle clip-path="url(#clip242)" cx="666.816" cy="233.23" r="10.8" fill="#ff8c00" fill-rule="evenodd" fill-opacity="0.65" stroke="none"/>
<circle clip-path="url(#clip242)" cx="718.539" cy="233.318" r="10.8" fill="#ff8c00" fill-rule="evenodd" fill-opacity="0.65" stroke="none"/>
<circle clip-path="url(#clip242)" cx="713.548" cy="233.182" r="10.8" fill="#ff8c00" fill-rule="evenodd" fill-opacity="0.65" stroke="none"/>
<circle clip-path="url(#clip242)" cx="703.023" cy="233.196" r="10.8" fill="#ff8c00" fill-rule="evenodd" fill-opacity="0.65" stroke="none"/>
<circle clip-path="url(#clip242)" cx="687.757" cy="233.188" r="10.8" fill="#ff8c00" fill-rule="evenodd" fill-opacity="0.65" stroke="none"/>
<circle clip-path="url(#clip242)" cx="673.253" cy="233.18" r="10.8" fill="#ff8c00" fill-rule="evenodd" fill-opacity="0.65" stroke="none"/>
<circle clip-path="url(#clip242)" cx="675.373" cy="597.054" r="10.8" fill="#ff8c00" fill-rule="evenodd" fill-opacity="0.65" stroke="none"/>
<circle clip-path="url(#clip242)" cx="666.378" cy="419.679" r="10.8" fill="#ff8c00" fill-rule="evenodd" fill-opacity="0.65" stroke="none"/>
<circle clip-path="url(#clip242)" cx="666.055" cy="432.968" r="10.8" fill="#ff8c00" fill-rule="evenodd" fill-opacity="0.65" stroke="none"/>
<circle clip-path="url(#clip242)" cx="692.421" cy="570.75" r="10.8" fill="#ff8c00" fill-rule="evenodd" fill-opacity="0.65" stroke="none"/>
<circle clip-path="url(#clip242)" cx="705.338" cy="291.161" r="10.8" fill="#ff8c00" fill-rule="evenodd" fill-opacity="0.65" stroke="none"/>
<circle clip-path="url(#clip242)" cx="681.527" cy="282.868" r="10.8" fill="#ff8c00" fill-rule="evenodd" fill-opacity="0.65" stroke="none"/>
<circle clip-path="url(#clip242)" cx="715.851" cy="427.676" r="10.8" fill="#ff8c00" fill-rule="evenodd" fill-opacity="0.65" stroke="none"/>
<circle clip-path="url(#clip242)" cx="691.121" cy="616.048" r="10.8" fill="#ff8c00" fill-rule="evenodd" fill-opacity="0.65" stroke="none"/>
<circle clip-path="url(#clip242)" cx="673.138" cy="581.235" r="10.8" fill="#ff8c00" fill-rule="evenodd" fill-opacity="0.65" stroke="none"/>
<circle clip-path="url(#clip242)" cx="677.304" cy="588.587" r="10.8" fill="#ff8c00" fill-rule="evenodd" fill-opacity="0.65" stroke="none"/>
<circle clip-path="url(#clip242)" cx="718.837" cy="233.43" r="10.8" fill="#ff8c00" fill-rule="evenodd" fill-opacity="0.65" stroke="none"/>
<circle clip-path="url(#clip242)" cx="683.572" cy="243.911" r="10.8" fill="#ff8c00" fill-rule="evenodd" fill-opacity="0.65" stroke="none"/>
<circle clip-path="url(#clip242)" cx="689.033" cy="233.185" r="10.8" fill="#ff8c00" fill-rule="evenodd" fill-opacity="0.65" stroke="none"/>
<circle clip-path="url(#clip242)" cx="674.186" cy="433.606" r="10.8" fill="#ff8c00" fill-rule="evenodd" fill-opacity="0.65" stroke="none"/>
<circle clip-path="url(#clip242)" cx="668.537" cy="233.292" r="10.8" fill="#ff8c00" fill-rule="evenodd" fill-opacity="0.65" stroke="none"/>
<circle clip-path="url(#clip242)" cx="678.179" cy="233.181" r="10.8" fill="#ff8c00" fill-rule="evenodd" fill-opacity="0.65" stroke="none"/>
<circle clip-path="url(#clip242)" cx="688.31" cy="381.867" r="10.8" fill="#ff8c00" fill-rule="evenodd" fill-opacity="0.65" stroke="none"/>
<circle clip-path="url(#clip242)" cx="704.182" cy="233.369" r="10.8" fill="#ff8c00" fill-rule="evenodd" fill-opacity="0.65" stroke="none"/>
<circle clip-path="url(#clip242)" cx="668.458" cy="293.827" r="10.8" fill="#ff8c00" fill-rule="evenodd" fill-opacity="0.65" stroke="none"/>
<circle clip-path="url(#clip242)" cx="695.993" cy="281.352" r="10.8" fill="#ff8c00" fill-rule="evenodd" fill-opacity="0.65" stroke="none"/>
<circle clip-path="url(#clip242)" cx="703.463" cy="235.658" r="10.8" fill="#ff8c00" fill-rule="evenodd" fill-opacity="0.65" stroke="none"/>
<circle clip-path="url(#clip242)" cx="683.487" cy="429.683" r="10.8" fill="#ff8c00" fill-rule="evenodd" fill-opacity="0.65" stroke="none"/>
<circle clip-path="url(#clip242)" cx="700.924" cy="233.308" r="10.8" fill="#ff8c00" fill-rule="evenodd" fill-opacity="0.65" stroke="none"/>
<circle clip-path="url(#clip242)" cx="682.969" cy="312.14" r="10.8" fill="#ff8c00" fill-rule="evenodd" fill-opacity="0.65" stroke="none"/>
<circle clip-path="url(#clip242)" cx="669.964" cy="233.308" r="10.8" fill="#ff8c00" fill-rule="evenodd" fill-opacity="0.65" stroke="none"/>
<circle clip-path="url(#clip242)" cx="669.681" cy="233.562" r="10.8" fill="#ff8c00" fill-rule="evenodd" fill-opacity="0.65" stroke="none"/>
<circle clip-path="url(#clip242)" cx="679.216" cy="234.846" r="10.8" fill="#ff8c00" fill-rule="evenodd" fill-opacity="0.65" stroke="none"/>
<circle clip-path="url(#clip242)" cx="709.594" cy="233.188" r="10.8" fill="#ff8c00" fill-rule="evenodd" fill-opacity="0.65" stroke="none"/>
<circle clip-path="url(#clip242)" cx="677.476" cy="234.031" r="10.8" fill="#ff8c00" fill-rule="evenodd" fill-opacity="0.65" stroke="none"/>
<circle clip-path="url(#clip242)" cx="698.139" cy="233.184" r="10.8" fill="#ff8c00" fill-rule="evenodd" fill-opacity="0.65" stroke="none"/>
<circle clip-path="url(#clip242)" cx="687.3" cy="233.273" r="10.8" fill="#ff8c00" fill-rule="evenodd" fill-opacity="0.65" stroke="none"/>
<circle clip-path="url(#clip242)" cx="715.116" cy="509.172" r="10.8" fill="#ff8c00" fill-rule="evenodd" fill-opacity="0.65" stroke="none"/>
<circle clip-path="url(#clip242)" cx="679.365" cy="255.095" r="10.8" fill="#ff8c00" fill-rule="evenodd" fill-opacity="0.65" stroke="none"/>
<circle clip-path="url(#clip242)" cx="685.958" cy="233.246" r="10.8" fill="#ff8c00" fill-rule="evenodd" fill-opacity="0.65" stroke="none"/>
<circle clip-path="url(#clip242)" cx="717.566" cy="609.521" r="10.8" fill="#ff8c00" fill-rule="evenodd" fill-opacity="0.65" stroke="none"/>
<circle clip-path="url(#clip242)" cx="700.58" cy="239.486" r="10.8" fill="#ff8c00" fill-rule="evenodd" fill-opacity="0.65" stroke="none"/>
<polyline clip-path="url(#clip242)" style="stroke:#000000; stroke-linecap:round; stroke-linejoin:round; stroke-width:12; stroke-opacity:1; fill:none" points="633.274,235.658 752.272,235.658 "/>
<polyline clip-path="url(#clip242)" style="stroke:#000000; stroke-linecap:round; stroke-linejoin:round; stroke-width:8; stroke-opacity:1; fill:none" points="692.773,381.867 692.773,233.24 "/>
<circle clip-path="url(#clip242)" cx="986.284" cy="639.239" r="10.8" fill="#db143d" fill-rule="evenodd" fill-opacity="0.65" stroke="none"/>
<circle clip-path="url(#clip242)" cx="934.092" cy="455.009" r="10.8" fill="#db143d" fill-rule="evenodd" fill-opacity="0.65" stroke="none"/>
<circle clip-path="url(#clip242)" cx="983.867" cy="336.776" r="10.8" fill="#db143d" fill-rule="evenodd" fill-opacity="0.65" stroke="none"/>
<circle clip-path="url(#clip242)" cx="984.118" cy="236.197" r="10.8" fill="#db143d" fill-rule="evenodd" fill-opacity="0.65" stroke="none"/>
<circle clip-path="url(#clip242)" cx="940.605" cy="638.869" r="10.8" fill="#db143d" fill-rule="evenodd" fill-opacity="0.65" stroke="none"/>
<circle clip-path="url(#clip242)" cx="933.66" cy="233.822" r="10.8" fill="#db143d" fill-rule="evenodd" fill-opacity="0.65" stroke="none"/>
<circle clip-path="url(#clip242)" cx="971.534" cy="446.21" r="10.8" fill="#db143d" fill-rule="evenodd" fill-opacity="0.65" stroke="none"/>
<circle clip-path="url(#clip242)" cx="936.536" cy="619.467" r="10.8" fill="#db143d" fill-rule="evenodd" fill-opacity="0.65" stroke="none"/>
<circle clip-path="url(#clip242)" cx="992.196" cy="235.669" r="10.8" fill="#db143d" fill-rule="evenodd" fill-opacity="0.65" stroke="none"/>
<circle clip-path="url(#clip242)" cx="985.999" cy="475.479" r="10.8" fill="#db143d" fill-rule="evenodd" fill-opacity="0.65" stroke="none"/>
<circle clip-path="url(#clip242)" cx="981.559" cy="438.633" r="10.8" fill="#db143d" fill-rule="evenodd" fill-opacity="0.65" stroke="none"/>
<circle clip-path="url(#clip242)" cx="983.63" cy="422.893" r="10.8" fill="#db143d" fill-rule="evenodd" fill-opacity="0.65" stroke="none"/>
<circle clip-path="url(#clip242)" cx="943.398" cy="616.571" r="10.8" fill="#db143d" fill-rule="evenodd" fill-opacity="0.65" stroke="none"/>
<circle clip-path="url(#clip242)" cx="957.552" cy="233.227" r="10.8" fill="#db143d" fill-rule="evenodd" fill-opacity="0.65" stroke="none"/>
<circle clip-path="url(#clip242)" cx="971.778" cy="233.443" r="10.8" fill="#db143d" fill-rule="evenodd" fill-opacity="0.65" stroke="none"/>
<circle clip-path="url(#clip242)" cx="970.826" cy="236.354" r="10.8" fill="#db143d" fill-rule="evenodd" fill-opacity="0.65" stroke="none"/>
<circle clip-path="url(#clip242)" cx="941.738" cy="610.101" r="10.8" fill="#db143d" fill-rule="evenodd" fill-opacity="0.65" stroke="none"/>
<circle clip-path="url(#clip242)" cx="975.001" cy="233.941" r="10.8" fill="#db143d" fill-rule="evenodd" fill-opacity="0.65" stroke="none"/>
<circle clip-path="url(#clip242)" cx="956.614" cy="596.974" r="10.8" fill="#db143d" fill-rule="evenodd" fill-opacity="0.65" stroke="none"/>
<circle clip-path="url(#clip242)" cx="979.401" cy="603.748" r="10.8" fill="#db143d" fill-rule="evenodd" fill-opacity="0.65" stroke="none"/>
<circle clip-path="url(#clip242)" cx="976.157" cy="550.606" r="10.8" fill="#db143d" fill-rule="evenodd" fill-opacity="0.65" stroke="none"/>
<circle clip-path="url(#clip242)" cx="971.22" cy="385.53" r="10.8" fill="#db143d" fill-rule="evenodd" fill-opacity="0.65" stroke="none"/>
<circle clip-path="url(#clip242)" cx="987.949" cy="296.091" r="10.8" fill="#db143d" fill-rule="evenodd" fill-opacity="0.65" stroke="none"/>
<circle clip-path="url(#clip242)" cx="946.018" cy="233.507" r="10.8" fill="#db143d" fill-rule="evenodd" fill-opacity="0.65" stroke="none"/>
<circle clip-path="url(#clip242)" cx="970.634" cy="619.506" r="10.8" fill="#db143d" fill-rule="evenodd" fill-opacity="0.65" stroke="none"/>
<circle clip-path="url(#clip242)" cx="940.216" cy="438.151" r="10.8" fill="#db143d" fill-rule="evenodd" fill-opacity="0.65" stroke="none"/>
<circle clip-path="url(#clip242)" cx="948.871" cy="407.563" r="10.8" fill="#db143d" fill-rule="evenodd" fill-opacity="0.65" stroke="none"/>
<circle clip-path="url(#clip242)" cx="987.797" cy="358.771" r="10.8" fill="#db143d" fill-rule="evenodd" fill-opacity="0.65" stroke="none"/>
<circle clip-path="url(#clip242)" cx="957.825" cy="233.641" r="10.8" fill="#db143d" fill-rule="evenodd" fill-opacity="0.65" stroke="none"/>
<circle clip-path="url(#clip242)" cx="969.837" cy="239.909" r="10.8" fill="#db143d" fill-rule="evenodd" fill-opacity="0.65" stroke="none"/>
<circle clip-path="url(#clip242)" cx="986.974" cy="429.688" r="10.8" fill="#db143d" fill-rule="evenodd" fill-opacity="0.65" stroke="none"/>
<circle clip-path="url(#clip242)" cx="960.465" cy="442.081" r="10.8" fill="#db143d" fill-rule="evenodd" fill-opacity="0.65" stroke="none"/>
<circle clip-path="url(#clip242)" cx="954.796" cy="288.89" r="10.8" fill="#db143d" fill-rule="evenodd" fill-opacity="0.65" stroke="none"/>
<circle clip-path="url(#clip242)" cx="960.898" cy="431.327" r="10.8" fill="#db143d" fill-rule="evenodd" fill-opacity="0.65" stroke="none"/>
<circle clip-path="url(#clip242)" cx="963.789" cy="234.423" r="10.8" fill="#db143d" fill-rule="evenodd" fill-opacity="0.65" stroke="none"/>
<circle clip-path="url(#clip242)" cx="974.031" cy="233.18" r="10.8" fill="#db143d" fill-rule="evenodd" fill-opacity="0.65" stroke="none"/>
<circle clip-path="url(#clip242)" cx="955.555" cy="629.503" r="10.8" fill="#db143d" fill-rule="evenodd" fill-opacity="0.65" stroke="none"/>
<circle clip-path="url(#clip242)" cx="939.319" cy="530.485" r="10.8" fill="#db143d" fill-rule="evenodd" fill-opacity="0.65" stroke="none"/>
<circle clip-path="url(#clip242)" cx="975.522" cy="507.975" r="10.8" fill="#db143d" fill-rule="evenodd" fill-opacity="0.65" stroke="none"/>
<circle clip-path="url(#clip242)" cx="949.149" cy="316.369" r="10.8" fill="#db143d" fill-rule="evenodd" fill-opacity="0.65" stroke="none"/>
<circle clip-path="url(#clip242)" cx="986.918" cy="249.173" r="10.8" fill="#db143d" fill-rule="evenodd" fill-opacity="0.65" stroke="none"/>
<circle clip-path="url(#clip242)" cx="954.316" cy="647.525" r="10.8" fill="#db143d" fill-rule="evenodd" fill-opacity="0.65" stroke="none"/>
<circle clip-path="url(#clip242)" cx="961.638" cy="233.182" r="10.8" fill="#db143d" fill-rule="evenodd" fill-opacity="0.65" stroke="none"/>
<circle clip-path="url(#clip242)" cx="938.957" cy="430.707" r="10.8" fill="#db143d" fill-rule="evenodd" fill-opacity="0.65" stroke="none"/>
<circle clip-path="url(#clip242)" cx="959.088" cy="331.829" r="10.8" fill="#db143d" fill-rule="evenodd" fill-opacity="0.65" stroke="none"/>
<circle clip-path="url(#clip242)" cx="975.575" cy="432.651" r="10.8" fill="#db143d" fill-rule="evenodd" fill-opacity="0.65" stroke="none"/>
<circle clip-path="url(#clip242)" cx="967.052" cy="431.885" r="10.8" fill="#db143d" fill-rule="evenodd" fill-opacity="0.65" stroke="none"/>
<circle clip-path="url(#clip242)" cx="981.97" cy="243.157" r="10.8" fill="#db143d" fill-rule="evenodd" fill-opacity="0.65" stroke="none"/>
<circle clip-path="url(#clip242)" cx="942.097" cy="646.792" r="10.8" fill="#db143d" fill-rule="evenodd" fill-opacity="0.65" stroke="none"/>
<circle clip-path="url(#clip242)" cx="945.817" cy="641.585" r="10.8" fill="#db143d" fill-rule="evenodd" fill-opacity="0.65" stroke="none"/>
<circle clip-path="url(#clip242)" cx="935.067" cy="547.18" r="10.8" fill="#db143d" fill-rule="evenodd" fill-opacity="0.65" stroke="none"/>
<circle clip-path="url(#clip242)" cx="971.066" cy="267.773" r="10.8" fill="#db143d" fill-rule="evenodd" fill-opacity="0.65" stroke="none"/>
<circle clip-path="url(#clip242)" cx="962.613" cy="516.672" r="10.8" fill="#db143d" fill-rule="evenodd" fill-opacity="0.65" stroke="none"/>
<circle clip-path="url(#clip242)" cx="983.569" cy="642.484" r="10.8" fill="#db143d" fill-rule="evenodd" fill-opacity="0.65" stroke="none"/>
<polyline clip-path="url(#clip242)" style="stroke:#000000; stroke-linecap:round; stroke-linejoin:round; stroke-width:12; stroke-opacity:1; fill:none" points="903.724,431.017 1022.72,431.017 "/>
<polyline clip-path="url(#clip242)" style="stroke:#000000; stroke-linecap:round; stroke-linejoin:round; stroke-width:8; stroke-opacity:1; fill:none" points="963.224,549.75 963.224,244.661 "/>
</svg>
