<?xml version="1.0" encoding="utf-8"?>
<svg xmlns="http://www.w3.org/2000/svg" xmlns:xlink="http://www.w3.org/1999/xlink" width="300" height="220" viewBox="0 0 1200 880">
<defs>
  <clipPath id="clip340">
    <rect x="0" y="0" width="1200" height="880"/>
  </clipPath>
</defs>
<path clip-path="url(#clip340)" d="M0 880 L1200 880 L1200 1.13687e-13 L0 1.13687e-13  Z" fill="#ffffff" fill-rule="evenodd" fill-opacity="1"/>
<defs>
  <clipPath id="clip341">
    <rect x="410" y="220" width="634" height="440"/>
  </clipPath>
</defs>
<path clip-path="url(#clip340)" d="M342.679 601.44 L1042.52 601.44 L1042.52 220.748 L342.679 220.748  Z" fill="#ffffff" fill-rule="evenodd" fill-opacity="1"/>
<defs>
  <clipPath id="clip342">
    <rect x="342" y="220" width="701" height="382"/>
  </clipPath>
</defs>
<polyline clip-path="url(#clip342)" style="stroke:#000000; stroke-linecap:round; stroke-linejoin:round; stroke-width:2; stroke-opacity:0.1; fill:none" points="433.224,601.44 433.224,220.748 "/>
<polyline clip-path="url(#clip342)" style="stroke:#000000; stroke-linecap:round; stroke-linejoin:round; stroke-width:2; stroke-opacity:0.1; fill:none" points="532.259,601.44 532.259,220.748 "/>
<polyline clip-path="url(#clip342)" style="stroke:#000000; stroke-linecap:round; stroke-linejoin:round; stroke-width:2; stroke-opacity:0.1; fill:none" points="631.293,601.44 631.293,220.748 "/>
<polyline clip-path="url(#clip342)" style="stroke:#000000; stroke-linecap:round; stroke-linejoin:round; stroke-width:2; stroke-opacity:0.1; fill:none" points="730.327,601.44 730.327,220.748 "/>
<polyline clip-path="url(#clip342)" style="stroke:#000000; stroke-linecap:round; stroke-linejoin:round; stroke-width:2; stroke-opacity:0.1; fill:none" points="829.361,601.44 829.361,220.748 "/>
<polyline clip-path="url(#clip342)" style="stroke:#000000; stroke-linecap:round; stroke-linejoin:round; stroke-width:2; stroke-opacity:0.1; fill:none" points="928.395,601.44 928.395,220.748 "/>
<polyline clip-path="url(#clip342)" style="stroke:#000000; stroke-linecap:round; stroke-linejoin:round; stroke-width:2; stroke-opacity:0.1; fill:none" points="1027.43,601.44 1027.43,220.748 "/>
<polyline clip-path="url(#clip342)" style="stroke:#000000; stroke-linecap:round; stroke-linejoin:round; stroke-width:2; stroke-opacity:0.1; fill:none" points="342.679,549.994 1042.52,549.994 "/>
<polyline clip-path="url(#clip342)" style="stroke:#000000; stroke-linecap:round; stroke-linejoin:round; stroke-width:2; stroke-opacity:0.1; fill:none" points="342.679,483.646 1042.52,483.646 "/>
<polyline clip-path="url(#clip342)" style="stroke:#000000; stroke-linecap:round; stroke-linejoin:round; stroke-width:2; stroke-opacity:0.1; fill:none" points="342.679,417.297 1042.52,417.297 "/>
<polyline clip-path="url(#clip342)" style="stroke:#000000; stroke-linecap:round; stroke-linejoin:round; stroke-width:2; stroke-opacity:0.1; fill:none" points="342.679,350.949 1042.52,350.949 "/>
<polyline clip-path="url(#clip342)" style="stroke:#000000; stroke-linecap:round; stroke-linejoin:round; stroke-width:2; stroke-opacity:0.1; fill:none" points="342.679,284.601 1042.52,284.601 "/>
<polyline clip-path="url(#clip340)" style="stroke:#000000; stroke-linecap:round; stroke-linejoin:round; stroke-width:4; stroke-opacity:1; fill:none" points="342.679,601.44 1042.52,601.44 "/>
<polyline clip-path="url(#clip340)" style="stroke:#000000; stroke-linecap:round; stroke-linejoin:round; stroke-width:4; stroke-opacity:1; fill:none" points="433.224,601.44 433.224,582.542 "/>
<polyline clip-path="url(#clip340)" style="stroke:#000000; stroke-linecap:round; stroke-linejoin:round; stroke-width:4; stroke-opacity:1; fill:none" points="532.259,601.44 532.259,582.542 "/>
<polyline clip-path="url(#clip340)" style="stroke:#000000; stroke-linecap:round; stroke-linejoin:round; stroke-width:4; stroke-opacity:1; fill:none" points="631.293,601.44 631.293,582.542 "/>
<polyline clip-path="url(#clip340)" style="stroke:#000000; stroke-linecap:round; stroke-linejoin:round; stroke-width:4; stroke-opacity:1; fill:none" points="730.327,601.44 730.327,582.542 "/>
<polyline clip-path="url(#clip340)" style="stroke:#000000; stroke-linecap:round; stroke-linejoin:round; stroke-width:4; stroke-opacity:1; fill:none" points="829.361,601.44 829.361,582.542 "/>
<polyline clip-path="url(#clip340)" style="stroke:#000000; stroke-linecap:round; stroke-linejoin:round; stroke-width:4; stroke-opacity:1; fill:none" points="928.395,601.44 928.395,582.542 "/>
<polyline clip-path="url(#clip340)" style="stroke:#000000; stroke-linecap:round; stroke-linejoin:round; stroke-width:4; stroke-opacity:1; fill:none" points="1027.43,601.44 1027.43,582.542 "/>
<path clip-path="url(#clip340)" d="M350.088 637.411 L379.764 637.411 L379.764 641.346 L350.088 641.346 L350.088 637.411 Z" fill="#000000" fill-rule="nonzero" fill-opacity="1" /><path clip-path="url(#clip340)" d="M399.857 622.758 Q396.245 622.758 394.417 626.323 Q392.611 629.865 392.611 636.994 Q392.611 644.101 394.417 647.666 Q396.245 651.207 399.857 651.207 Q403.491 651.207 405.296 647.666 Q407.125 644.101 407.125 636.994 Q407.125 629.865 405.296 626.323 Q403.491 622.758 399.857 622.758 M399.857 619.055 Q405.667 619.055 408.722 623.661 Q411.801 628.244 411.801 636.994 Q411.801 645.721 408.722 650.328 Q405.667 654.911 399.857 654.911 Q394.046 654.911 390.968 650.328 Q387.912 645.721 387.912 636.994 Q387.912 628.244 390.968 623.661 Q394.046 619.055 399.857 619.055 Z" fill="#000000" fill-rule="nonzero" fill-opacity="1" /><path clip-path="url(#clip340)" d="M420.019 648.36 L424.903 648.36 L424.903 654.24 L420.019 654.24 L420.019 648.36 Z" fill="#000000" fill-rule="nonzero" fill-opacity="1" /><path clip-path="url(#clip340)" d="M445.088 622.758 Q441.477 622.758 439.648 626.323 Q437.842 629.865 437.842 636.994 Q437.842 644.101 439.648 647.666 Q441.477 651.207 445.088 651.207 Q448.722 651.207 450.528 647.666 Q452.356 644.101 452.356 636.994 Q452.356 629.865 450.528 626.323 Q448.722 622.758 445.088 622.758 M445.088 619.055 Q450.898 619.055 453.954 623.661 Q457.032 628.244 457.032 636.994 Q457.032 645.721 453.954 650.328 Q450.898 654.911 445.088 654.911 Q439.278 654.911 436.199 650.328 Q433.143 645.721 433.143 636.994 Q433.143 628.244 436.199 623.661 Q439.278 619.055 445.088 619.055 Z" fill="#000000" fill-rule="nonzero" fill-opacity="1" /><path clip-path="url(#clip340)" d="M469.278 650.304 L485.597 650.304 L485.597 654.24 L463.653 654.24 L463.653 650.304 Q466.315 647.55 470.898 642.92 Q475.504 638.267 476.685 636.925 Q478.93 634.402 479.81 632.666 Q480.713 630.906 480.713 629.217 Q480.713 626.462 478.768 624.726 Q476.847 622.99 473.745 622.99 Q471.546 622.99 469.092 623.754 Q466.662 624.518 463.884 626.068 L463.884 621.346 Q466.708 620.212 469.162 619.633 Q471.615 619.055 473.652 619.055 Q479.023 619.055 482.217 621.74 Q485.412 624.425 485.412 628.916 Q485.412 631.045 484.601 632.967 Q483.814 634.865 481.708 637.457 Q481.129 638.129 478.027 641.346 Q474.926 644.541 469.278 650.304 Z" fill="#000000" fill-rule="nonzero" fill-opacity="1" /><path clip-path="url(#clip340)" d="M495.458 619.68 L513.814 619.68 L513.814 623.615 L499.74 623.615 L499.74 632.087 Q500.759 631.74 501.777 631.578 Q502.796 631.393 503.814 631.393 Q509.601 631.393 512.981 634.564 Q516.361 637.735 516.361 643.152 Q516.361 648.73 512.888 651.832 Q509.416 654.911 503.097 654.911 Q500.921 654.911 498.652 654.541 Q496.407 654.17 494 653.429 L494 648.73 Q496.083 649.865 498.305 650.42 Q500.527 650.976 503.004 650.976 Q507.009 650.976 509.347 648.869 Q511.685 646.763 511.685 643.152 Q511.685 639.541 509.347 637.434 Q507.009 635.328 503.004 635.328 Q501.129 635.328 499.254 635.744 Q497.402 636.161 495.458 637.041 L495.458 619.68 Z" fill="#000000" fill-rule="nonzero" fill-opacity="1" /><path clip-path="url(#clip340)" d="M479.481 622.758 Q475.87 622.758 474.041 626.323 Q472.236 629.865 472.236 636.994 Q472.236 644.101 474.041 647.666 Q475.87 651.207 479.481 651.207 Q483.115 651.207 484.921 647.666 Q486.749 644.101 486.749 636.994 Q486.749 629.865 484.921 626.323 Q483.115 622.758 479.481 622.758 M479.481 619.055 Q485.291 619.055 488.347 623.661 Q491.425 628.244 491.425 636.994 Q491.425 645.721 488.347 650.328 Q485.291 654.911 479.481 654.911 Q473.671 654.911 470.592 650.328 Q467.537 645.721 467.537 636.994 Q467.537 628.244 470.592 623.661 Q473.671 619.055 479.481 619.055 Z" fill="#000000" fill-rule="nonzero" fill-opacity="1" /><path clip-path="url(#clip340)" d="M499.643 648.36 L504.527 648.36 L504.527 654.24 L499.643 654.24 L499.643 648.36 Z" fill="#000000" fill-rule="nonzero" fill-opacity="1" /><path clip-path="url(#clip340)" d="M524.712 622.758 Q521.101 622.758 519.272 626.323 Q517.467 629.865 517.467 636.994 Q517.467 644.101 519.272 647.666 Q521.101 651.207 524.712 651.207 Q528.346 651.207 530.152 647.666 Q531.981 644.101 531.981 636.994 Q531.981 629.865 530.152 626.323 Q528.346 622.758 524.712 622.758 M524.712 619.055 Q530.522 619.055 533.578 623.661 Q536.657 628.244 536.657 636.994 Q536.657 645.721 533.578 650.328 Q530.522 654.911 524.712 654.911 Q518.902 654.911 515.823 650.328 Q512.768 645.721 512.768 636.994 Q512.768 628.244 515.823 623.661 Q518.902 619.055 524.712 619.055 Z" fill="#000000" fill-rule="nonzero" fill-opacity="1" /><path clip-path="url(#clip340)" d="M554.874 622.758 Q551.263 622.758 549.434 626.323 Q547.629 629.865 547.629 636.994 Q547.629 644.101 549.434 647.666 Q551.263 651.207 554.874 651.207 Q558.508 651.207 560.314 647.666 Q562.143 644.101 562.143 636.994 Q562.143 629.865 560.314 626.323 Q558.508 622.758 554.874 622.758 M554.874 619.055 Q560.684 619.055 563.74 623.661 Q566.819 628.244 566.819 636.994 Q566.819 645.721 563.74 650.328 Q560.684 654.911 554.874 654.911 Q549.064 654.911 545.985 650.328 Q542.93 645.721 542.93 636.994 Q542.93 628.244 545.985 623.661 Q549.064 619.055 554.874 619.055 Z" fill="#000000" fill-rule="nonzero" fill-opacity="1" /><path clip-path="url(#clip340)" d="M585.036 622.758 Q581.425 622.758 579.596 626.323 Q577.791 629.865 577.791 636.994 Q577.791 644.101 579.596 647.666 Q581.425 651.207 585.036 651.207 Q588.67 651.207 590.476 647.666 Q592.304 644.101 592.304 636.994 Q592.304 629.865 590.476 626.323 Q588.67 622.758 585.036 622.758 M585.036 619.055 Q590.846 619.055 593.902 623.661 Q596.98 628.244 596.98 636.994 Q596.98 645.721 593.902 650.328 Q590.846 654.911 585.036 654.911 Q579.226 654.911 576.147 650.328 Q573.092 645.721 573.092 636.994 Q573.092 628.244 576.147 623.661 Q579.226 619.055 585.036 619.055 Z" fill="#000000" fill-rule="nonzero" fill-opacity="1" /><path clip-path="url(#clip340)" d="M579.013 622.758 Q575.402 622.758 573.573 626.323 Q571.767 629.865 571.767 636.994 Q571.767 644.101 573.573 647.666 Q575.402 651.207 579.013 651.207 Q582.647 651.207 584.453 647.666 Q586.281 644.101 586.281 636.994 Q586.281 629.865 584.453 626.323 Q582.647 622.758 579.013 622.758 M579.013 619.055 Q584.823 619.055 587.878 623.661 Q590.957 628.244 590.957 636.994 Q590.957 645.721 587.878 650.328 Q584.823 654.911 579.013 654.911 Q573.203 654.911 570.124 650.328 Q567.068 645.721 567.068 636.994 Q567.068 628.244 570.124 623.661 Q573.203 619.055 579.013 619.055 Z" fill="#000000" fill-rule="nonzero" fill-opacity="1" /><path clip-path="url(#clip340)" d="M599.175 648.36 L604.059 648.36 L604.059 654.24 L599.175 654.24 L599.175 648.36 Z" fill="#000000" fill-rule="nonzero" fill-opacity="1" /><path clip-path="url(#clip340)" d="M624.244 622.758 Q620.633 622.758 618.804 626.323 Q616.999 629.865 616.999 636.994 Q616.999 644.101 618.804 647.666 Q620.633 651.207 624.244 651.207 Q627.878 651.207 629.684 647.666 Q631.512 644.101 631.512 636.994 Q631.512 629.865 629.684 626.323 Q627.878 622.758 624.244 622.758 M624.244 619.055 Q630.054 619.055 633.11 623.661 Q636.188 628.244 636.188 636.994 Q636.188 645.721 633.11 650.328 Q630.054 654.911 624.244 654.911 Q618.434 654.911 615.355 650.328 Q612.3 645.721 612.3 636.994 Q612.3 628.244 615.355 623.661 Q618.434 619.055 624.244 619.055 Z" fill="#000000" fill-rule="nonzero" fill-opacity="1" /><path clip-path="url(#clip340)" d="M648.434 650.304 L664.753 650.304 L664.753 654.24 L642.809 654.24 L642.809 650.304 Q645.471 647.55 650.054 642.92 Q654.66 638.267 655.841 636.925 Q658.086 634.402 658.966 632.666 Q659.869 630.906 659.869 629.217 Q659.869 626.462 657.924 624.726 Q656.003 622.99 652.901 622.99 Q650.702 622.99 648.248 623.754 Q645.818 624.518 643.04 626.068 L643.04 621.346 Q645.864 620.212 648.318 619.633 Q650.772 619.055 652.809 619.055 Q658.179 619.055 661.373 621.74 Q664.568 624.425 664.568 628.916 Q664.568 631.045 663.758 632.967 Q662.971 634.865 660.864 637.457 Q660.285 638.129 657.184 641.346 Q654.082 644.541 648.434 650.304 Z" fill="#000000" fill-rule="nonzero" fill-opacity="1" /><path clip-path="url(#clip340)" d="M674.614 619.68 L692.97 619.68 L692.97 623.615 L678.896 623.615 L678.896 632.087 Q679.915 631.74 680.934 631.578 Q681.952 631.393 682.971 631.393 Q688.758 631.393 692.137 634.564 Q695.517 637.735 695.517 643.152 Q695.517 648.73 692.045 651.832 Q688.572 654.911 682.253 654.911 Q680.077 654.911 677.809 654.541 Q675.563 654.17 673.156 653.429 L673.156 648.73 Q675.239 649.865 677.461 650.42 Q679.684 650.976 682.16 650.976 Q686.165 650.976 688.503 648.869 Q690.841 646.763 690.841 643.152 Q690.841 639.541 688.503 637.434 Q686.165 635.328 682.16 635.328 Q680.285 635.328 678.41 635.744 Q676.559 636.161 674.614 637.041 L674.614 619.68 Z" fill="#000000" fill-rule="nonzero" fill-opacity="1" /><path clip-path="url(#clip340)" d="M677.549 622.758 Q673.938 622.758 672.109 626.323 Q670.304 629.865 670.304 636.994 Q670.304 644.101 672.109 647.666 Q673.938 651.207 677.549 651.207 Q681.183 651.207 682.989 647.666 Q684.818 644.101 684.818 636.994 Q684.818 629.865 682.989 626.323 Q681.183 622.758 677.549 622.758 M677.549 619.055 Q683.359 619.055 686.415 623.661 Q689.494 628.244 689.494 636.994 Q689.494 645.721 686.415 650.328 Q683.359 654.911 677.549 654.911 Q671.739 654.911 668.66 650.328 Q665.605 645.721 665.605 636.994 Q665.605 628.244 668.66 623.661 Q671.739 619.055 677.549 619.055 Z" fill="#000000" fill-rule="nonzero" fill-opacity="1" /><path clip-path="url(#clip340)" d="M697.711 648.36 L702.595 648.36 L702.595 654.24 L697.711 654.24 L697.711 648.36 Z" fill="#000000" fill-rule="nonzero" fill-opacity="1" /><path clip-path="url(#clip340)" d="M722.78 622.758 Q719.169 622.758 717.341 626.323 Q715.535 629.865 715.535 636.994 Q715.535 644.101 717.341 647.666 Q719.169 651.207 722.78 651.207 Q726.415 651.207 728.22 647.666 Q730.049 644.101 730.049 636.994 Q730.049 629.865 728.22 626.323 Q726.415 622.758 722.78 622.758 M722.78 619.055 Q728.591 619.055 731.646 623.661 Q734.725 628.244 734.725 636.994 Q734.725 645.721 731.646 650.328 Q728.591 654.911 722.78 654.911 Q716.97 654.911 713.892 650.328 Q710.836 645.721 710.836 636.994 Q710.836 628.244 713.892 623.661 Q716.97 619.055 722.78 619.055 Z" fill="#000000" fill-rule="nonzero" fill-opacity="1" /><path clip-path="url(#clip340)" d="M742.989 619.68 L761.345 619.68 L761.345 623.615 L747.271 623.615 L747.271 632.087 Q748.289 631.74 749.308 631.578 Q750.327 631.393 751.345 631.393 Q757.132 631.393 760.512 634.564 Q763.891 637.735 763.891 643.152 Q763.891 648.73 760.419 651.832 Q756.947 654.911 750.627 654.911 Q748.452 654.911 746.183 654.541 Q743.938 654.17 741.53 653.429 L741.53 648.73 Q743.614 649.865 745.836 650.42 Q748.058 650.976 750.535 650.976 Q754.539 650.976 756.877 648.869 Q759.215 646.763 759.215 643.152 Q759.215 639.541 756.877 637.434 Q754.539 635.328 750.535 635.328 Q748.66 635.328 746.785 635.744 Q744.933 636.161 742.989 637.041 L742.989 619.68 Z" fill="#000000" fill-rule="nonzero" fill-opacity="1" /><path clip-path="url(#clip340)" d="M783.104 622.758 Q779.493 622.758 777.664 626.323 Q775.859 629.865 775.859 636.994 Q775.859 644.101 777.664 647.666 Q779.493 651.207 783.104 651.207 Q786.738 651.207 788.544 647.666 Q790.373 644.101 790.373 636.994 Q790.373 629.865 788.544 626.323 Q786.738 622.758 783.104 622.758 M783.104 619.055 Q788.914 619.055 791.97 623.661 Q795.048 628.244 795.048 636.994 Q795.048 645.721 791.97 650.328 Q788.914 654.911 783.104 654.911 Q777.294 654.911 774.215 650.328 Q771.16 645.721 771.16 636.994 Q771.16 628.244 774.215 623.661 Q777.294 619.055 783.104 619.055 Z" fill="#000000" fill-rule="nonzero" fill-opacity="1" /><path clip-path="url(#clip340)" d="M777.081 622.758 Q773.47 622.758 771.641 626.323 Q769.836 629.865 769.836 636.994 Q769.836 644.101 771.641 647.666 Q773.47 651.207 777.081 651.207 Q780.715 651.207 782.521 647.666 Q784.349 644.101 784.349 636.994 Q784.349 629.865 782.521 626.323 Q780.715 622.758 777.081 622.758 M777.081 619.055 Q782.891 619.055 785.947 623.661 Q789.025 628.244 789.025 636.994 Q789.025 645.721 785.947 650.328 Q782.891 654.911 777.081 654.911 Q771.271 654.911 768.192 650.328 Q765.136 645.721 765.136 636.994 Q765.136 628.244 768.192 623.661 Q771.271 619.055 777.081 619.055 Z" fill="#000000" fill-rule="nonzero" fill-opacity="1" /><path clip-path="url(#clip340)" d="M797.243 648.36 L802.127 648.36 L802.127 654.24 L797.243 654.24 L797.243 648.36 Z" fill="#000000" fill-rule="nonzero" fill-opacity="1" /><path clip-path="url(#clip340)" d="M822.312 622.758 Q818.701 622.758 816.872 626.323 Q815.067 629.865 815.067 636.994 Q815.067 644.101 816.872 647.666 Q818.701 651.207 822.312 651.207 Q825.946 651.207 827.752 647.666 Q829.581 644.101 829.581 636.994 Q829.581 629.865 827.752 626.323 Q825.946 622.758 822.312 622.758 M822.312 619.055 Q828.122 619.055 831.178 623.661 Q834.256 628.244 834.256 636.994 Q834.256 645.721 831.178 650.328 Q828.122 654.911 822.312 654.911 Q816.502 654.911 813.423 650.328 Q810.368 645.721 810.368 636.994 Q810.368 628.244 813.423 623.661 Q816.502 619.055 822.312 619.055 Z" fill="#000000" fill-rule="nonzero" fill-opacity="1" /><path clip-path="url(#clip340)" d="M841.293 619.68 L863.516 619.68 L863.516 621.67 L850.969 654.24 L846.085 654.24 L857.891 623.615 L841.293 623.615 L841.293 619.68 Z" fill="#000000" fill-rule="nonzero" fill-opacity="1" /><path clip-path="url(#clip340)" d="M872.682 619.68 L891.039 619.68 L891.039 623.615 L876.965 623.615 L876.965 632.087 Q877.983 631.74 879.002 631.578 Q880.02 631.393 881.039 631.393 Q886.826 631.393 890.205 634.564 Q893.585 637.735 893.585 643.152 Q893.585 648.73 890.113 651.832 Q886.64 654.911 880.321 654.911 Q878.145 654.911 875.877 654.541 Q873.631 654.17 871.224 653.429 L871.224 648.73 Q873.307 649.865 875.529 650.42 Q877.752 650.976 880.228 650.976 Q884.233 650.976 886.571 648.869 Q888.909 646.763 888.909 643.152 Q888.909 639.541 886.571 637.434 Q884.233 635.328 880.228 635.328 Q878.353 635.328 876.478 635.744 Q874.627 636.161 872.682 637.041 L872.682 619.68 Z" fill="#000000" fill-rule="nonzero" fill-opacity="1" /><path clip-path="url(#clip340)" d="M875.617 622.758 Q872.006 622.758 870.177 626.323 Q868.372 629.865 868.372 636.994 Q868.372 644.101 870.177 647.666 Q872.006 651.207 875.617 651.207 Q879.251 651.207 881.057 647.666 Q882.886 644.101 882.886 636.994 Q882.886 629.865 881.057 626.323 Q879.251 622.758 875.617 622.758 M875.617 619.055 Q881.427 619.055 884.483 623.661 Q887.562 628.244 887.562 636.994 Q887.562 645.721 884.483 650.328 Q881.427 654.911 875.617 654.911 Q869.807 654.911 866.728 650.328 Q863.673 645.721 863.673 636.994 Q863.673 628.244 866.728 623.661 Q869.807 619.055 875.617 619.055 Z" fill="#000000" fill-rule="nonzero" fill-opacity="1" /><path clip-path="url(#clip340)" d="M895.779 648.36 L900.663 648.36 L900.663 654.24 L895.779 654.24 L895.779 648.36 Z" fill="#000000" fill-rule="nonzero" fill-opacity="1" /><path clip-path="url(#clip340)" d="M911.659 650.304 L919.298 650.304 L919.298 623.939 L910.987 625.606 L910.987 621.346 L919.251 619.68 L923.927 619.68 L923.927 650.304 L931.566 650.304 L931.566 654.24 L911.659 654.24 L911.659 650.304 Z" fill="#000000" fill-rule="nonzero" fill-opacity="1" /><path clip-path="url(#clip340)" d="M951.01 622.758 Q947.399 622.758 945.571 626.323 Q943.765 629.865 943.765 636.994 Q943.765 644.101 945.571 647.666 Q947.399 651.207 951.01 651.207 Q954.645 651.207 956.45 647.666 Q958.279 644.101 958.279 636.994 Q958.279 629.865 956.45 626.323 Q954.645 622.758 951.01 622.758 M951.01 619.055 Q956.821 619.055 959.876 623.661 Q962.955 628.244 962.955 636.994 Q962.955 645.721 959.876 650.328 Q956.821 654.911 951.01 654.911 Q945.2 654.911 942.122 650.328 Q939.066 645.721 939.066 636.994 Q939.066 628.244 942.122 623.661 Q945.2 619.055 951.01 619.055 Z" fill="#000000" fill-rule="nonzero" fill-opacity="1" /><path clip-path="url(#clip340)" d="M981.172 622.758 Q977.561 622.758 975.732 626.323 Q973.927 629.865 973.927 636.994 Q973.927 644.101 975.732 647.666 Q977.561 651.207 981.172 651.207 Q984.806 651.207 986.612 647.666 Q988.441 644.101 988.441 636.994 Q988.441 629.865 986.612 626.323 Q984.806 622.758 981.172 622.758 M981.172 619.055 Q986.982 619.055 990.038 623.661 Q993.117 628.244 993.117 636.994 Q993.117 645.721 990.038 650.328 Q986.982 654.911 981.172 654.911 Q975.362 654.911 972.283 650.328 Q969.228 645.721 969.228 636.994 Q969.228 628.244 972.283 623.661 Q975.362 619.055 981.172 619.055 Z" fill="#000000" fill-rule="nonzero" fill-opacity="1" /><path clip-path="url(#clip340)" d="M975.149 622.758 Q971.538 622.758 969.709 626.323 Q967.904 629.865 967.904 636.994 Q967.904 644.101 969.709 647.666 Q971.538 651.207 975.149 651.207 Q978.783 651.207 980.589 647.666 Q982.417 644.101 982.417 636.994 Q982.417 629.865 980.589 626.323 Q978.783 622.758 975.149 622.758 M975.149 619.055 Q980.959 619.055 984.015 623.661 Q987.093 628.244 987.093 636.994 Q987.093 645.721 984.015 650.328 Q980.959 654.911 975.149 654.911 Q969.339 654.911 966.26 650.328 Q963.205 645.721 963.205 636.994 Q963.205 628.244 966.26 623.661 Q969.339 619.055 975.149 619.055 Z" fill="#000000" fill-rule="nonzero" fill-opacity="1" /><path clip-path="url(#clip340)" d="M995.311 648.36 L1000.2 648.36 L1000.2 654.24 L995.311 654.24 L995.311 648.36 Z" fill="#000000" fill-rule="nonzero" fill-opacity="1" /><path clip-path="url(#clip340)" d="M1011.19 650.304 L1018.83 650.304 L1018.83 623.939 L1010.52 625.606 L1010.52 621.346 L1018.78 619.68 L1023.46 619.68 L1023.46 650.304 L1031.1 650.304 L1031.1 654.24 L1011.19 654.24 L1011.19 650.304 Z" fill="#000000" fill-rule="nonzero" fill-opacity="1" /><path clip-path="url(#clip340)" d="M1044.57 650.304 L1060.89 650.304 L1060.89 654.24 L1038.94 654.24 L1038.94 650.304 Q1041.61 647.55 1046.19 642.92 Q1050.8 638.267 1051.98 636.925 Q1054.22 634.402 1055.1 632.666 Q1056.01 630.906 1056.01 629.217 Q1056.01 626.462 1054.06 624.726 Q1052.14 622.99 1049.04 622.99 Q1046.84 622.99 1044.38 623.754 Q1041.95 624.518 1039.18 626.068 L1039.18 621.346 Q1042 620.212 1044.45 619.633 Q1046.91 619.055 1048.94 619.055 Q1054.32 619.055 1057.51 621.74 Q1060.7 624.425 1060.7 628.916 Q1060.7 631.045 1059.89 632.967 Q1059.11 634.865 1057 637.457 Q1056.42 638.129 1053.32 641.346 Q1050.22 644.541 1044.57 650.304 Z" fill="#000000" fill-rule="nonzero" fill-opacity="1" /><path clip-path="url(#clip340)" d="M1070.75 619.68 L1089.11 619.68 L1089.11 623.615 L1075.03 623.615 L1075.03 632.087 Q1076.05 631.74 1077.07 631.578 Q1078.09 631.393 1079.11 631.393 Q1084.89 631.393 1088.27 634.564 Q1091.65 637.735 1091.65 643.152 Q1091.65 648.73 1088.18 651.832 Q1084.71 654.911 1078.39 654.911 Q1076.21 654.911 1073.94 654.541 Q1071.7 654.17 1069.29 653.429 L1069.29 648.73 Q1071.38 649.865 1073.6 650.42 Q1075.82 650.976 1078.3 650.976 Q1082.3 650.976 1084.64 648.869 Q1086.98 646.763 1086.98 643.152 Q1086.98 639.541 1084.64 637.434 Q1082.3 635.328 1078.3 635.328 Q1076.42 635.328 1074.55 635.744 Q1072.69 636.161 1070.75 637.041 L1070.75 619.68 Z" fill="#000000" fill-rule="nonzero" fill-opacity="1" /><path clip-path="url(#clip340)" d="M280.18 699.707 Q281.872 700.279 283.461 702.154 Q285.076 704.029 286.69 707.311 L292.029 717.936 L286.378 717.936 L281.404 707.962 Q279.477 704.055 277.654 702.779 Q275.857 701.503 272.732 701.503 L267.003 701.503 L267.003 717.936 L261.742 717.936 L261.742 679.056 L273.617 679.056 Q280.284 679.056 283.565 681.842 Q286.846 684.629 286.846 690.253 Q286.846 693.925 285.128 696.347 Q283.435 698.769 280.18 699.707 M267.003 683.379 L267.003 697.181 L273.617 697.181 Q277.419 697.181 279.346 695.436 Q281.299 693.665 281.299 690.253 Q281.299 686.842 279.346 685.123 Q277.419 683.379 273.617 683.379 L267.003 683.379 Z" fill="#000000" fill-rule="nonzero" fill-opacity="1" /><path clip-path="url(#clip340)" d="M310.674 703.274 Q304.867 703.274 302.627 704.602 Q300.388 705.93 300.388 709.134 Q300.388 711.686 302.055 713.196 Q303.747 714.68 306.638 714.68 Q310.622 714.68 313.018 711.868 Q315.44 709.029 315.44 704.342 L315.44 703.274 L310.674 703.274 M320.232 701.295 L320.232 717.936 L315.44 717.936 L315.44 713.509 Q313.799 716.165 311.351 717.441 Q308.903 718.691 305.362 718.691 Q300.883 718.691 298.226 716.191 Q295.596 713.665 295.596 709.446 Q295.596 704.524 298.878 702.024 Q302.185 699.524 308.721 699.524 L315.44 699.524 L315.44 699.056 Q315.44 695.748 313.252 693.951 Q311.091 692.128 307.159 692.128 Q304.659 692.128 302.289 692.727 Q299.919 693.326 297.732 694.524 L297.732 690.097 Q300.362 689.082 302.836 688.587 Q305.31 688.066 307.654 688.066 Q313.982 688.066 317.107 691.347 Q320.232 694.628 320.232 701.295 Z" fill="#000000" fill-rule="nonzero" fill-opacity="1" /><path clip-path="url(#clip340)" d="M354.346 700.332 L354.346 717.936 L349.554 717.936 L349.554 700.488 Q349.554 696.347 347.94 694.29 Q346.325 692.233 343.096 692.233 Q339.216 692.233 336.976 694.707 Q334.737 697.181 334.737 701.451 L334.737 717.936 L329.919 717.936 L329.919 688.769 L334.737 688.769 L334.737 693.3 Q336.455 690.67 338.773 689.368 Q341.117 688.066 344.164 688.066 Q349.19 688.066 351.768 691.191 Q354.346 694.29 354.346 700.332 Z" fill="#000000" fill-rule="nonzero" fill-opacity="1" /><path clip-path="url(#clip340)" d="M363.721 677.415 L368.539 677.415 L368.539 701.347 L382.835 688.769 L388.955 688.769 L373.486 702.415 L389.606 717.936 L383.356 717.936 L368.539 703.691 L368.539 717.936 L363.721 717.936 L363.721 677.415 Z" fill="#000000" fill-rule="nonzero" fill-opacity="1" /><path clip-path="url(#clip340)" d="M430.335 689.628 L430.335 694.16 Q428.304 693.118 426.116 692.597 Q423.929 692.076 421.585 692.076 Q418.017 692.076 416.221 693.17 Q414.45 694.264 414.45 696.451 Q414.45 698.118 415.726 699.082 Q417.002 700.019 420.856 700.878 L422.497 701.243 Q427.601 702.337 429.736 704.342 Q431.898 706.321 431.898 709.889 Q431.898 713.951 428.668 716.321 Q425.465 718.691 419.84 718.691 Q417.497 718.691 414.945 718.222 Q412.419 717.779 409.606 716.868 L409.606 711.92 Q412.262 713.3 414.84 714.003 Q417.419 714.68 419.945 714.68 Q423.33 714.68 425.153 713.535 Q426.976 712.363 426.976 710.253 Q426.976 708.3 425.648 707.259 Q424.346 706.217 419.892 705.253 L418.226 704.863 Q413.773 703.925 411.794 701.998 Q409.814 700.045 409.814 696.66 Q409.814 692.545 412.731 690.306 Q415.648 688.066 421.012 688.066 Q423.669 688.066 426.012 688.457 Q428.356 688.847 430.335 689.628 Z" fill="#000000" fill-rule="nonzero" fill-opacity="1" /><path clip-path="url(#clip340)" d="M439.528 677.415 L444.319 677.415 L444.319 717.936 L439.528 717.936 L439.528 677.415 Z" fill="#000000" fill-rule="nonzero" fill-opacity="1" /><path clip-path="url(#clip340)" d="M465.647 692.128 Q461.793 692.128 459.554 695.149 Q457.314 698.144 457.314 703.378 Q457.314 708.613 459.528 711.634 Q461.767 714.628 465.647 714.628 Q469.476 714.628 471.715 711.608 Q473.955 708.587 473.955 703.378 Q473.955 698.196 471.715 695.175 Q469.476 692.128 465.647 692.128 M465.647 688.066 Q471.897 688.066 475.465 692.128 Q479.033 696.191 479.033 703.378 Q479.033 710.54 475.465 714.628 Q471.897 718.691 465.647 718.691 Q459.371 718.691 455.804 714.628 Q452.262 710.54 452.262 703.378 Q452.262 696.191 455.804 692.128 Q459.371 688.066 465.647 688.066 Z" fill="#000000" fill-rule="nonzero" fill-opacity="1" /><path clip-path="url(#clip340)" d="M491.611 713.561 L491.611 729.029 L486.793 729.029 L486.793 688.769 L491.611 688.769 L491.611 693.196 Q493.121 690.592 495.413 689.342 Q497.731 688.066 500.934 688.066 Q506.246 688.066 509.553 692.285 Q512.887 696.503 512.887 703.378 Q512.887 710.253 509.553 714.472 Q506.246 718.691 500.934 718.691 Q497.731 718.691 495.413 717.441 Q493.121 716.165 491.611 713.561 M507.913 703.378 Q507.913 698.092 505.725 695.097 Q503.564 692.076 499.762 692.076 Q495.96 692.076 493.772 695.097 Q491.611 698.092 491.611 703.378 Q491.611 708.665 493.772 711.686 Q495.96 714.68 499.762 714.68 Q503.564 714.68 505.725 711.686 Q507.913 708.665 507.913 703.378 Z" fill="#000000" fill-rule="nonzero" fill-opacity="1" /><path clip-path="url(#clip340)" d="M545.777 702.154 L545.777 704.498 L523.746 704.498 Q524.059 709.446 526.715 712.05 Q529.397 714.628 534.163 714.628 Q536.923 714.628 539.501 713.951 Q542.105 713.274 544.657 711.92 L544.657 716.451 Q542.079 717.545 539.371 718.118 Q536.663 718.691 533.876 718.691 Q526.897 718.691 522.809 714.628 Q518.746 710.566 518.746 703.639 Q518.746 696.477 522.6 692.285 Q526.48 688.066 533.043 688.066 Q538.928 688.066 542.34 691.868 Q545.777 695.644 545.777 702.154 M540.986 700.748 Q540.934 696.816 538.772 694.472 Q536.637 692.128 533.095 692.128 Q529.085 692.128 526.663 694.394 Q524.267 696.66 523.902 700.774 L540.986 700.748 Z" fill="#000000" fill-rule="nonzero" fill-opacity="1" /><path clip-path="url(#clip340)" d="M582.105 677.467 Q578.616 683.457 576.923 689.316 Q575.23 695.175 575.23 701.191 Q575.23 707.207 576.923 713.118 Q578.642 719.003 582.105 724.967 L577.939 724.967 Q574.032 718.847 572.079 712.936 Q570.152 707.024 570.152 701.191 Q570.152 695.384 572.079 689.498 Q574.006 683.613 577.939 677.467 L582.105 677.467 Z" fill="#000000" fill-rule="nonzero" fill-opacity="1" /><path clip-path="url(#clip340)" d="M610.595 693.196 L610.595 677.415 L615.386 677.415 L615.386 717.936 L610.595 717.936 L610.595 713.561 Q609.084 716.165 606.766 717.441 Q604.475 718.691 601.246 718.691 Q595.959 718.691 592.626 714.472 Q589.319 710.253 589.319 703.378 Q589.319 696.503 592.626 692.285 Q595.959 688.066 601.246 688.066 Q604.475 688.066 606.766 689.342 Q609.084 690.592 610.595 693.196 M594.267 703.378 Q594.267 708.665 596.428 711.686 Q598.615 714.68 602.418 714.68 Q606.22 714.68 608.407 711.686 Q610.595 708.665 610.595 703.378 Q610.595 698.092 608.407 695.097 Q606.22 692.076 602.418 692.076 Q598.615 692.076 596.428 695.097 Q594.267 698.092 594.267 703.378 Z" fill="#000000" fill-rule="nonzero" fill-opacity="1" /><path clip-path="url(#clip340)" d="M650.204 702.154 L650.204 704.498 L628.173 704.498 Q628.485 709.446 631.141 712.05 Q633.824 714.628 638.589 714.628 Q641.35 714.628 643.928 713.951 Q646.532 713.274 649.084 711.92 L649.084 716.451 Q646.506 717.545 643.798 718.118 Q641.089 718.691 638.303 718.691 Q631.324 718.691 627.235 714.628 Q623.173 710.566 623.173 703.639 Q623.173 696.477 627.027 692.285 Q630.907 688.066 637.469 688.066 Q643.355 688.066 646.766 691.868 Q650.204 695.644 650.204 702.154 M645.412 700.748 Q645.36 696.816 643.199 694.472 Q641.063 692.128 637.522 692.128 Q633.511 692.128 631.089 694.394 Q628.693 696.66 628.329 700.774 L645.412 700.748 Z" fill="#000000" fill-rule="nonzero" fill-opacity="1" /><path clip-path="url(#clip340)" d="M658.068 677.415 L662.86 677.415 L662.86 717.936 L658.068 717.936 L658.068 677.415 Z" fill="#000000" fill-rule="nonzero" fill-opacity="1" /><path clip-path="url(#clip340)" d="M677.625 680.488 L677.625 688.769 L687.495 688.769 L687.495 692.493 L677.625 692.493 L677.625 708.326 Q677.625 711.894 678.589 712.91 Q679.579 713.925 682.573 713.925 L687.495 713.925 L687.495 717.936 L682.573 717.936 Q677.027 717.936 674.917 715.878 Q672.808 713.795 672.808 708.326 L672.808 692.493 L669.292 692.493 L669.292 688.769 L672.808 688.769 L672.808 680.488 L677.625 680.488 Z" fill="#000000" fill-rule="nonzero" fill-opacity="1" /><path clip-path="url(#clip340)" d="M707.052 703.274 Q701.245 703.274 699.006 704.602 Q696.766 705.93 696.766 709.134 Q696.766 711.686 698.433 713.196 Q700.125 714.68 703.016 714.68 Q707 714.68 709.396 711.868 Q711.818 709.029 711.818 704.342 L711.818 703.274 L707.052 703.274 M716.61 701.295 L716.61 717.936 L711.818 717.936 L711.818 713.509 Q710.177 716.165 707.729 717.441 Q705.282 718.691 701.74 718.691 Q697.261 718.691 694.605 716.191 Q691.974 713.665 691.974 709.446 Q691.974 704.524 695.256 702.024 Q698.563 699.524 705.099 699.524 L711.818 699.524 L711.818 699.056 Q711.818 695.748 709.631 693.951 Q707.469 692.128 703.537 692.128 Q701.037 692.128 698.667 692.727 Q696.297 693.326 694.11 694.524 L694.11 690.097 Q696.74 689.082 699.214 688.587 Q701.688 688.066 704.032 688.066 Q710.36 688.066 713.485 691.347 Q716.61 694.628 716.61 701.295 Z" fill="#000000" fill-rule="nonzero" fill-opacity="1" /><path clip-path="url(#clip340)" d="M760.333 693.248 Q759.526 692.78 758.563 692.571 Q757.625 692.337 756.479 692.337 Q752.417 692.337 750.229 694.993 Q748.068 697.623 748.068 702.571 L748.068 717.936 L743.25 717.936 L743.25 688.769 L748.068 688.769 L748.068 693.3 Q749.578 690.644 752 689.368 Q754.422 688.066 757.885 688.066 Q758.38 688.066 758.979 688.144 Q759.578 688.196 760.307 688.326 L760.333 693.248 Z" fill="#000000" fill-rule="nonzero" fill-opacity="1" /><path clip-path="url(#clip340)" d="M778.615 703.274 Q772.807 703.274 770.568 704.602 Q768.328 705.93 768.328 709.134 Q768.328 711.686 769.995 713.196 Q771.687 714.68 774.578 714.68 Q778.562 714.68 780.958 711.868 Q783.38 709.029 783.38 704.342 L783.38 703.274 L778.615 703.274 M788.172 701.295 L788.172 717.936 L783.38 717.936 L783.38 713.509 Q781.74 716.165 779.292 717.441 Q776.844 718.691 773.302 718.691 Q768.823 718.691 766.167 716.191 Q763.536 713.665 763.536 709.446 Q763.536 704.524 766.818 702.024 Q770.125 699.524 776.661 699.524 L783.38 699.524 L783.38 699.056 Q783.38 695.748 781.193 693.951 Q779.031 692.128 775.099 692.128 Q772.599 692.128 770.229 692.727 Q767.859 693.326 765.672 694.524 L765.672 690.097 Q768.302 689.082 770.776 688.587 Q773.25 688.066 775.594 688.066 Q781.922 688.066 785.047 691.347 Q788.172 694.628 788.172 701.295 Z" fill="#000000" fill-rule="nonzero" fill-opacity="1" /><path clip-path="url(#clip340)" d="M822.286 700.332 L822.286 717.936 L817.495 717.936 L817.495 700.488 Q817.495 696.347 815.88 694.29 Q814.265 692.233 811.036 692.233 Q807.156 692.233 804.916 694.707 Q802.677 697.181 802.677 701.451 L802.677 717.936 L797.859 717.936 L797.859 688.769 L802.677 688.769 L802.677 693.3 Q804.396 690.67 806.713 689.368 Q809.057 688.066 812.104 688.066 Q817.13 688.066 819.708 691.191 Q822.286 694.29 822.286 700.332 Z" fill="#000000" fill-rule="nonzero" fill-opacity="1" /><path clip-path="url(#clip340)" d="M831.661 677.415 L836.479 677.415 L836.479 701.347 L850.776 688.769 L856.895 688.769 L841.427 702.415 L857.546 717.936 L851.296 717.936 L836.479 703.691 L836.479 717.936 L831.661 717.936 L831.661 677.415 Z" fill="#000000" fill-rule="nonzero" fill-opacity="1" /><path clip-path="url(#clip340)" d="M884.317 713.561 L884.317 729.029 L879.499 729.029 L879.499 688.769 L884.317 688.769 L884.317 693.196 Q885.827 690.592 888.119 689.342 Q890.437 688.066 893.64 688.066 Q898.952 688.066 902.26 692.285 Q905.593 696.503 905.593 703.378 Q905.593 710.253 902.26 714.472 Q898.952 718.691 893.64 718.691 Q890.437 718.691 888.119 717.441 Q885.827 716.165 884.317 713.561 M900.619 703.378 Q900.619 698.092 898.432 695.097 Q896.27 692.076 892.468 692.076 Q888.666 692.076 886.479 695.097 Q884.317 698.092 884.317 703.378 Q884.317 708.665 886.479 711.686 Q888.666 714.68 892.468 714.68 Q896.27 714.68 898.432 711.686 Q900.619 708.665 900.619 703.378 Z" fill="#000000" fill-rule="nonzero" fill-opacity="1" /><path clip-path="url(#clip340)" d="M938.483 702.154 L938.483 704.498 L916.452 704.498 Q916.765 709.446 919.421 712.05 Q922.103 714.628 926.869 714.628 Q929.629 714.628 932.207 713.951 Q934.812 713.274 937.364 711.92 L937.364 716.451 Q934.786 717.545 932.077 718.118 Q929.369 718.691 926.582 718.691 Q919.603 718.691 915.515 714.628 Q911.452 710.566 911.452 703.639 Q911.452 696.477 915.306 692.285 Q919.187 688.066 925.749 688.066 Q931.635 688.066 935.046 691.868 Q938.483 695.644 938.483 702.154 M933.692 700.748 Q933.64 696.816 931.478 694.472 Q929.343 692.128 925.801 692.128 Q921.791 692.128 919.369 694.394 Q916.973 696.66 916.609 700.774 L933.692 700.748 Z" fill="#000000" fill-rule="nonzero" fill-opacity="1" /><path clip-path="url(#clip340)" d="M963.249 693.248 Q962.442 692.78 961.478 692.571 Q960.541 692.337 959.395 692.337 Q955.332 692.337 953.145 694.993 Q950.983 697.623 950.983 702.571 L950.983 717.936 L946.166 717.936 L946.166 688.769 L950.983 688.769 L950.983 693.3 Q952.494 690.644 954.916 689.368 Q957.338 688.066 960.801 688.066 Q961.296 688.066 961.895 688.144 Q962.494 688.196 963.223 688.326 L963.249 693.248 Z" fill="#000000" fill-rule="nonzero" fill-opacity="1" /><path clip-path="url(#clip340)" d="M1006.22 689.889 L1006.22 694.368 Q1004.19 693.248 1002.13 692.701 Q1000.1 692.128 998.014 692.128 Q993.353 692.128 990.775 695.097 Q988.197 698.04 988.197 703.378 Q988.197 708.717 990.775 711.686 Q993.353 714.628 998.014 714.628 Q1000.1 714.628 1002.13 714.081 Q1004.19 713.509 1006.22 712.389 L1006.22 716.816 Q1004.21 717.753 1002.05 718.222 Q999.915 718.691 997.494 718.691 Q990.905 718.691 987.025 714.55 Q983.145 710.41 983.145 703.378 Q983.145 696.243 987.051 692.155 Q990.983 688.066 997.806 688.066 Q1000.02 688.066 1002.13 688.535 Q1004.24 688.977 1006.22 689.889 Z" fill="#000000" fill-rule="nonzero" fill-opacity="1" /><path clip-path="url(#clip340)" d="M1037.26 694.368 Q1039.06 691.139 1041.56 689.602 Q1044.06 688.066 1047.44 688.066 Q1052 688.066 1054.47 691.269 Q1056.95 694.446 1056.95 700.332 L1056.95 717.936 L1052.13 717.936 L1052.13 700.488 Q1052.13 696.295 1050.64 694.264 Q1049.16 692.233 1046.11 692.233 Q1042.39 692.233 1040.23 694.707 Q1038.07 697.181 1038.07 701.451 L1038.07 717.936 L1033.25 717.936 L1033.25 700.488 Q1033.25 696.269 1031.76 694.264 Q1030.28 692.233 1027.18 692.233 Q1023.51 692.233 1021.35 694.733 Q1019.19 697.207 1019.19 701.451 L1019.19 717.936 L1014.37 717.936 L1014.37 688.769 L1019.19 688.769 L1019.19 693.3 Q1020.83 690.618 1023.12 689.342 Q1025.41 688.066 1028.56 688.066 Q1031.74 688.066 1033.95 689.681 Q1036.19 691.295 1037.26 694.368 Z" fill="#000000" fill-rule="nonzero" fill-opacity="1" /><path clip-path="url(#clip340)" d="M1075.02 679.056 L1079.45 679.056 L1065.9 722.884 L1061.48 722.884 L1075.02 679.056 Z" fill="#000000" fill-rule="nonzero" fill-opacity="1" /><path clip-path="url(#clip340)" d="M1103.07 689.628 L1103.07 694.16 Q1101.03 693.118 1098.85 692.597 Q1096.66 692.076 1094.32 692.076 Q1090.75 692.076 1088.95 693.17 Q1087.18 694.264 1087.18 696.451 Q1087.18 698.118 1088.46 699.082 Q1089.73 700.019 1093.59 700.878 L1095.23 701.243 Q1100.33 702.337 1102.47 704.342 Q1104.63 706.321 1104.63 709.889 Q1104.63 713.951 1101.4 716.321 Q1098.2 718.691 1092.57 718.691 Q1090.23 718.691 1087.68 718.222 Q1085.15 717.779 1082.34 716.868 L1082.34 711.92 Q1084.99 713.3 1087.57 714.003 Q1090.15 714.68 1092.68 714.68 Q1096.06 714.68 1097.88 713.535 Q1099.71 712.363 1099.71 710.253 Q1099.71 708.3 1098.38 707.259 Q1097.08 706.217 1092.62 705.253 L1090.96 704.863 Q1086.5 703.925 1084.52 701.998 Q1082.55 700.045 1082.55 696.66 Q1082.55 692.545 1085.46 690.306 Q1088.38 688.066 1093.74 688.066 Q1096.4 688.066 1098.74 688.457 Q1101.09 688.847 1103.07 689.628 Z" fill="#000000" fill-rule="nonzero" fill-opacity="1" /><path clip-path="url(#clip340)" d="M1111.5 677.467 L1115.67 677.467 Q1119.58 683.613 1121.5 689.498 Q1123.46 695.384 1123.46 701.191 Q1123.46 707.024 1121.5 712.936 Q1119.58 718.847 1115.67 724.967 L1111.5 724.967 Q1114.97 719.003 1116.66 713.118 Q1118.38 707.207 1118.38 701.191 Q1118.38 695.175 1116.66 689.316 Q1114.97 683.457 1111.5 677.467 Z" fill="#000000" fill-rule="nonzero" fill-opacity="1" /><polyline clip-path="url(#clip340)" style="stroke:#000000; stroke-linecap:round; stroke-linejoin:round; stroke-width:4; stroke-opacity:1; fill:none" points="342.679,601.44 342.679,220.748 "/>
<polyline clip-path="url(#clip340)" style="stroke:#000000; stroke-linecap:round; stroke-linejoin:round; stroke-width:4; stroke-opacity:1; fill:none" points="342.679,549.994 361.577,549.994 "/>
<polyline clip-path="url(#clip340)" style="stroke:#000000; stroke-linecap:round; stroke-linejoin:round; stroke-width:4; stroke-opacity:1; fill:none" points="342.679,483.646 361.577,483.646 "/>
<polyline clip-path="url(#clip340)" style="stroke:#000000; stroke-linecap:round; stroke-linejoin:round; stroke-width:4; stroke-opacity:1; fill:none" points="342.679,417.297 361.577,417.297 "/>
<polyline clip-path="url(#clip340)" style="stroke:#000000; stroke-linecap:round; stroke-linejoin:round; stroke-width:4; stroke-opacity:1; fill:none" points="342.679,350.949 361.577,350.949 "/>
<polyline clip-path="url(#clip340)" style="stroke:#000000; stroke-linecap:round; stroke-linejoin:round; stroke-width:4; stroke-opacity:1; fill:none" points="342.679,284.601 361.577,284.601 "/>
<path clip-path="url(#clip340)" d="M228.152 563.339 L235.791 563.339 L235.791 536.973 L227.48 538.64 L227.48 534.38 L235.744 532.714 L240.42 532.714 L240.42 563.339 L248.059 563.339 L248.059 567.274 L228.152 567.274 L228.152 563.339 Z" fill="#000000" fill-rule="nonzero" fill-opacity="1" /><path clip-path="url(#clip340)" d="M257.55 532.714 L275.906 532.714 L275.906 536.649 L261.832 536.649 L261.832 545.121 Q262.851 544.774 263.869 544.612 Q264.888 544.427 265.906 544.427 Q271.693 544.427 275.073 547.598 Q278.452 550.769 278.452 556.186 Q278.452 561.765 274.98 564.866 Q271.508 567.945 265.189 567.945 Q263.013 567.945 260.744 567.575 Q258.499 567.204 256.091 566.464 L256.091 561.765 Q258.175 562.899 260.397 563.454 Q262.619 564.01 265.096 564.01 Q269.101 564.01 271.439 561.903 Q273.777 559.797 273.777 556.186 Q273.777 552.575 271.439 550.468 Q269.101 548.362 265.096 548.362 Q263.221 548.362 261.346 548.779 Q259.494 549.195 257.55 550.075 L257.55 532.714 Z" fill="#000000" fill-rule="nonzero" fill-opacity="1" /><path clip-path="url(#clip340)" d="M287.665 561.394 L292.55 561.394 L292.55 567.274 L287.665 567.274 L287.665 561.394 Z" fill="#000000" fill-rule="nonzero" fill-opacity="1" /><path clip-path="url(#clip340)" d="M312.735 535.793 Q309.124 535.793 307.295 539.357 Q305.489 542.899 305.489 550.029 Q305.489 557.135 307.295 560.7 Q309.124 564.241 312.735 564.241 Q316.369 564.241 318.174 560.7 Q320.003 557.135 320.003 550.029 Q320.003 542.899 318.174 539.357 Q316.369 535.793 312.735 535.793 M312.735 532.089 Q318.545 532.089 321.6 536.695 Q324.679 541.279 324.679 550.029 Q324.679 558.755 321.6 563.362 Q318.545 567.945 312.735 567.945 Q306.924 567.945 303.846 563.362 Q300.79 558.755 300.79 550.029 Q300.79 541.279 303.846 536.695 Q306.924 532.089 312.735 532.089 Z" fill="#000000" fill-rule="nonzero" fill-opacity="1" /><path clip-path="url(#clip340)" d="M229.147 496.991 L236.786 496.991 L236.786 470.625 L228.476 472.292 L228.476 468.032 L236.74 466.366 L241.416 466.366 L241.416 496.991 L249.054 496.991 L249.054 500.926 L229.147 500.926 L229.147 496.991 Z" fill="#000000" fill-rule="nonzero" fill-opacity="1" /><path clip-path="url(#clip340)" d="M257.318 466.366 L279.54 466.366 L279.54 468.356 L266.994 500.926 L262.11 500.926 L273.915 470.301 L257.318 470.301 L257.318 466.366 Z" fill="#000000" fill-rule="nonzero" fill-opacity="1" /><path clip-path="url(#clip340)" d="M288.661 495.046 L293.545 495.046 L293.545 500.926 L288.661 500.926 L288.661 495.046 Z" fill="#000000" fill-rule="nonzero" fill-opacity="1" /><path clip-path="url(#clip340)" d="M303.776 466.366 L322.133 466.366 L322.133 470.301 L308.059 470.301 L308.059 478.773 Q309.077 478.426 310.096 478.264 Q311.114 478.079 312.133 478.079 Q317.92 478.079 321.299 481.25 Q324.679 484.421 324.679 489.838 Q324.679 495.416 321.207 498.518 Q317.735 501.597 311.415 501.597 Q309.239 501.597 306.971 501.227 Q304.725 500.856 302.318 500.115 L302.318 495.416 Q304.401 496.551 306.624 497.106 Q308.846 497.662 311.323 497.662 Q315.327 497.662 317.665 495.555 Q320.003 493.449 320.003 489.838 Q320.003 486.227 317.665 484.12 Q315.327 482.014 311.323 482.014 Q309.448 482.014 307.573 482.43 Q305.721 482.847 303.776 483.727 L303.776 466.366 Z" fill="#000000" fill-rule="nonzero" fill-opacity="1" /><path clip-path="url(#clip340)" d="M231.369 430.642 L247.689 430.642 L247.689 434.577 L225.744 434.577 L225.744 430.642 Q228.406 427.888 232.99 423.258 Q237.596 418.605 238.777 417.263 Q241.022 414.74 241.902 413.004 Q242.804 411.244 242.804 409.554 Q242.804 406.8 240.86 405.064 Q238.939 403.328 235.837 403.328 Q233.638 403.328 231.184 404.092 Q228.754 404.855 225.976 406.406 L225.976 401.684 Q228.8 400.55 231.254 399.971 Q233.707 399.393 235.744 399.393 Q241.115 399.393 244.309 402.078 Q247.504 404.763 247.504 409.254 Q247.504 411.383 246.693 413.304 Q245.906 415.203 243.8 417.795 Q243.221 418.466 240.119 421.684 Q237.017 424.878 231.369 430.642 Z" fill="#000000" fill-rule="nonzero" fill-opacity="1" /><path clip-path="url(#clip340)" d="M267.503 403.096 Q263.892 403.096 262.064 406.661 Q260.258 410.203 260.258 417.332 Q260.258 424.439 262.064 428.003 Q263.892 431.545 267.503 431.545 Q271.138 431.545 272.943 428.003 Q274.772 424.439 274.772 417.332 Q274.772 410.203 272.943 406.661 Q271.138 403.096 267.503 403.096 M267.503 399.393 Q273.314 399.393 276.369 403.999 Q279.448 408.582 279.448 417.332 Q279.448 426.059 276.369 430.665 Q273.314 435.249 267.503 435.249 Q261.693 435.249 258.615 430.665 Q255.559 426.059 255.559 417.332 Q255.559 408.582 258.615 403.999 Q261.693 399.393 267.503 399.393 Z" fill="#000000" fill-rule="nonzero" fill-opacity="1" /><path clip-path="url(#clip340)" d="M287.665 428.698 L292.55 428.698 L292.55 434.577 L287.665 434.577 L287.665 428.698 Z" fill="#000000" fill-rule="nonzero" fill-opacity="1" /><path clip-path="url(#clip340)" d="M312.735 403.096 Q309.124 403.096 307.295 406.661 Q305.489 410.203 305.489 417.332 Q305.489 424.439 307.295 428.003 Q309.124 431.545 312.735 431.545 Q316.369 431.545 318.174 428.003 Q320.003 424.439 320.003 417.332 Q320.003 410.203 318.174 406.661 Q316.369 403.096 312.735 403.096 M312.735 399.393 Q318.545 399.393 321.6 403.999 Q324.679 408.582 324.679 417.332 Q324.679 426.059 321.6 430.665 Q318.545 435.249 312.735 435.249 Q306.924 435.249 303.846 430.665 Q300.79 426.059 300.79 417.332 Q300.79 408.582 303.846 403.999 Q306.924 399.393 312.735 399.393 Z" fill="#000000" fill-rule="nonzero" fill-opacity="1" /><path clip-path="url(#clip340)" d="M232.365 364.294 L248.684 364.294 L248.684 368.229 L226.74 368.229 L226.74 364.294 Q229.402 361.54 233.985 356.91 Q238.592 352.257 239.772 350.915 Q242.017 348.391 242.897 346.655 Q243.8 344.896 243.8 343.206 Q243.8 340.452 241.855 338.716 Q239.934 336.979 236.832 336.979 Q234.633 336.979 232.18 337.743 Q229.749 338.507 226.971 340.058 L226.971 335.336 Q229.795 334.202 232.249 333.623 Q234.703 333.044 236.74 333.044 Q242.11 333.044 245.304 335.73 Q248.499 338.415 248.499 342.905 Q248.499 345.035 247.689 346.956 Q246.902 348.854 244.795 351.447 Q244.217 352.118 241.115 355.336 Q238.013 358.53 232.365 364.294 Z" fill="#000000" fill-rule="nonzero" fill-opacity="1" /><path clip-path="url(#clip340)" d="M262.527 364.294 L278.846 364.294 L278.846 368.229 L256.902 368.229 L256.902 364.294 Q259.564 361.54 264.147 356.91 Q268.753 352.257 269.934 350.915 Q272.179 348.391 273.059 346.655 Q273.962 344.896 273.962 343.206 Q273.962 340.452 272.017 338.716 Q270.096 336.979 266.994 336.979 Q264.795 336.979 262.341 337.743 Q259.911 338.507 257.133 340.058 L257.133 335.336 Q259.957 334.202 262.411 333.623 Q264.865 333.044 266.902 333.044 Q272.272 333.044 275.466 335.73 Q278.661 338.415 278.661 342.905 Q278.661 345.035 277.851 346.956 Q277.064 348.854 274.957 351.447 Q274.378 352.118 271.277 355.336 Q268.175 358.53 262.527 364.294 Z" fill="#000000" fill-rule="nonzero" fill-opacity="1" /><path clip-path="url(#clip340)" d="M288.661 362.35 L293.545 362.35 L293.545 368.229 L288.661 368.229 L288.661 362.35 Z" fill="#000000" fill-rule="nonzero" fill-opacity="1" /><path clip-path="url(#clip340)" d="M303.776 333.669 L322.133 333.669 L322.133 337.604 L308.059 337.604 L308.059 346.077 Q309.077 345.729 310.096 345.567 Q311.114 345.382 312.133 345.382 Q317.92 345.382 321.299 348.554 Q324.679 351.725 324.679 357.141 Q324.679 362.72 321.207 365.822 Q317.735 368.901 311.415 368.901 Q309.239 368.901 306.971 368.53 Q304.725 368.16 302.318 367.419 L302.318 362.72 Q304.401 363.854 306.624 364.41 Q308.846 364.965 311.323 364.965 Q315.327 364.965 317.665 362.859 Q320.003 360.753 320.003 357.141 Q320.003 353.53 317.665 351.424 Q315.327 349.317 311.323 349.317 Q309.448 349.317 307.573 349.734 Q305.721 350.151 303.776 351.03 L303.776 333.669 Z" fill="#000000" fill-rule="nonzero" fill-opacity="1" /><path clip-path="url(#clip340)" d="M231.369 297.946 L247.689 297.946 L247.689 301.881 L225.744 301.881 L225.744 297.946 Q228.406 295.191 232.99 290.562 Q237.596 285.909 238.777 284.566 Q241.022 282.043 241.902 280.307 Q242.804 278.548 242.804 276.858 Q242.804 274.104 240.86 272.367 Q238.939 270.631 235.837 270.631 Q233.638 270.631 231.184 271.395 Q228.754 272.159 225.976 273.71 L225.976 268.988 Q228.8 267.854 231.254 267.275 Q233.707 266.696 235.744 266.696 Q241.115 266.696 244.309 269.381 Q247.504 272.067 247.504 276.557 Q247.504 278.687 246.693 280.608 Q245.906 282.506 243.8 285.099 Q243.221 285.77 240.119 288.988 Q237.017 292.182 231.369 297.946 Z" fill="#000000" fill-rule="nonzero" fill-opacity="1" /><path clip-path="url(#clip340)" d="M257.55 267.321 L275.906 267.321 L275.906 271.256 L261.832 271.256 L261.832 279.729 Q262.851 279.381 263.869 279.219 Q264.888 279.034 265.906 279.034 Q271.693 279.034 275.073 282.205 Q278.452 285.377 278.452 290.793 Q278.452 296.372 274.98 299.474 Q271.508 302.552 265.189 302.552 Q263.013 302.552 260.744 302.182 Q258.499 301.812 256.091 301.071 L256.091 296.372 Q258.175 297.506 260.397 298.062 Q262.619 298.617 265.096 298.617 Q269.101 298.617 271.439 296.511 Q273.777 294.404 273.777 290.793 Q273.777 287.182 271.439 285.076 Q269.101 282.969 265.096 282.969 Q263.221 282.969 261.346 283.386 Q259.494 283.803 257.55 284.682 L257.55 267.321 Z" fill="#000000" fill-rule="nonzero" fill-opacity="1" /><path clip-path="url(#clip340)" d="M287.665 296.002 L292.55 296.002 L292.55 301.881 L287.665 301.881 L287.665 296.002 Z" fill="#000000" fill-rule="nonzero" fill-opacity="1" /><path clip-path="url(#clip340)" d="M312.735 270.4 Q309.124 270.4 307.295 273.965 Q305.489 277.506 305.489 284.636 Q305.489 291.742 307.295 295.307 Q309.124 298.849 312.735 298.849 Q316.369 298.849 318.174 295.307 Q320.003 291.742 320.003 284.636 Q320.003 277.506 318.174 273.965 Q316.369 270.4 312.735 270.4 M312.735 266.696 Q318.545 266.696 321.6 271.303 Q324.679 275.886 324.679 284.636 Q324.679 293.363 321.6 297.969 Q318.545 302.552 312.735 302.552 Q306.924 302.552 303.846 297.969 Q300.79 293.363 300.79 284.636 Q300.79 275.886 303.846 271.303 Q306.924 266.696 312.735 266.696 Z" fill="#000000" fill-rule="nonzero" fill-opacity="1" /><path clip-path="url(#clip340)" d="M177.513 544.049 L191.757 544.049 L191.757 535.612 Q191.757 531.367 190.013 529.336 Q188.242 527.278 184.622 527.278 Q180.976 527.278 179.258 529.336 Q177.513 531.367 177.513 535.612 L177.513 544.049 M161.523 544.049 L173.242 544.049 L173.242 536.263 Q173.242 532.408 171.81 530.533 Q170.351 528.632 167.383 528.632 Q164.44 528.632 162.982 530.533 Q161.523 532.408 161.523 536.263 L161.523 544.049 M157.2 549.309 L157.2 535.872 Q157.2 529.856 159.7 526.601 Q162.2 523.346 166.81 523.346 Q170.377 523.346 172.487 525.013 Q174.596 526.679 175.117 529.908 Q175.95 526.028 178.607 523.893 Q181.237 521.731 185.195 521.731 Q190.403 521.731 193.242 525.273 Q196.08 528.815 196.08 535.351 L196.08 549.309 L157.2 549.309 Z" fill="#000000" fill-rule="nonzero" fill-opacity="1" /><path clip-path="url(#clip340)" d="M180.299 487.982 L182.643 487.982 L182.643 510.013 Q187.591 509.7 190.195 507.044 Q192.773 504.362 192.773 499.596 Q192.773 496.836 192.096 494.258 Q191.419 491.653 190.065 489.101 L194.596 489.101 Q195.69 491.679 196.263 494.388 Q196.836 497.096 196.836 499.883 Q196.836 506.862 192.773 510.95 Q188.711 515.013 181.784 515.013 Q174.622 515.013 170.429 511.159 Q166.211 507.278 166.211 500.716 Q166.211 494.831 170.013 491.419 Q173.789 487.982 180.299 487.982 M178.893 492.773 Q174.961 492.825 172.617 494.987 Q170.273 497.122 170.273 500.664 Q170.273 504.674 172.539 507.096 Q174.804 509.492 178.919 509.856 L178.893 492.773 Z" fill="#000000" fill-rule="nonzero" fill-opacity="1" /><path clip-path="url(#clip340)" d="M171.393 463.216 Q170.924 464.023 170.716 464.987 Q170.482 465.924 170.482 467.07 Q170.482 471.133 173.138 473.32 Q175.768 475.482 180.716 475.482 L196.08 475.482 L196.08 480.299 L166.914 480.299 L166.914 475.482 L171.445 475.482 Q168.789 473.971 167.513 471.549 Q166.211 469.128 166.211 465.664 Q166.211 465.169 166.289 464.57 Q166.341 463.971 166.471 463.242 L171.393 463.216 Z" fill="#000000" fill-rule="nonzero" fill-opacity="1" /><path clip-path="url(#clip340)" d="M181.159 439.935 Q175.95 439.935 173.086 442.096 Q170.221 444.232 170.221 448.112 Q170.221 451.966 173.086 454.128 Q175.95 456.263 181.159 456.263 Q186.341 456.263 189.205 454.128 Q192.07 451.966 192.07 448.112 Q192.07 444.232 189.205 442.096 Q186.341 439.935 181.159 439.935 M192.461 435.143 Q199.908 435.143 203.528 438.451 Q207.174 441.758 207.174 448.581 Q207.174 451.107 206.783 453.346 Q206.419 455.586 205.638 457.695 L200.976 457.695 Q202.122 455.586 202.669 453.529 Q203.216 451.471 203.216 449.336 Q203.216 444.622 200.742 442.279 Q198.294 439.935 193.32 439.935 L190.95 439.935 Q193.528 441.419 194.804 443.737 Q196.08 446.055 196.08 449.284 Q196.08 454.648 191.992 457.93 Q187.903 461.211 181.159 461.211 Q174.388 461.211 170.299 457.93 Q166.211 454.648 166.211 449.284 Q166.211 446.055 167.487 443.737 Q168.763 441.419 171.341 439.935 L166.914 439.935 L166.914 435.143 L192.461 435.143 Z" fill="#000000" fill-rule="nonzero" fill-opacity="1" /><path clip-path="url(#clip340)" d="M167.773 389.727 L172.304 389.727 Q171.263 391.758 170.742 393.946 Q170.221 396.133 170.221 398.477 Q170.221 402.045 171.315 403.841 Q172.409 405.612 174.596 405.612 Q176.263 405.612 177.226 404.336 Q178.164 403.06 179.023 399.206 L179.388 397.565 Q180.482 392.461 182.487 390.326 Q184.466 388.164 188.034 388.164 Q192.096 388.164 194.466 391.394 Q196.836 394.597 196.836 400.222 Q196.836 402.565 196.367 405.117 Q195.924 407.643 195.013 410.456 L190.065 410.456 Q191.445 407.8 192.148 405.222 Q192.825 402.644 192.825 400.117 Q192.825 396.732 191.679 394.909 Q190.507 393.086 188.398 393.086 Q186.445 393.086 185.403 394.414 Q184.362 395.716 183.398 400.17 L183.008 401.836 Q182.07 406.289 180.143 408.268 Q178.19 410.248 174.804 410.248 Q170.69 410.248 168.45 407.331 Q166.211 404.414 166.211 399.05 Q166.211 396.394 166.601 394.05 Q166.992 391.706 167.773 389.727 Z" fill="#000000" fill-rule="nonzero" fill-opacity="1" /><path clip-path="url(#clip340)" d="M168.034 359.545 L172.513 359.545 Q171.393 361.576 170.846 363.633 Q170.273 365.665 170.273 367.748 Q170.273 372.409 173.242 374.987 Q176.185 377.566 181.523 377.566 Q186.862 377.566 189.83 374.987 Q192.773 372.409 192.773 367.748 Q192.773 365.665 192.226 363.633 Q191.653 361.576 190.534 359.545 L194.961 359.545 Q195.898 361.55 196.367 363.711 Q196.836 365.847 196.836 368.269 Q196.836 374.857 192.695 378.737 Q188.554 382.618 181.523 382.618 Q174.388 382.618 170.299 378.711 Q166.211 374.779 166.211 367.956 Q166.211 365.743 166.679 363.633 Q167.122 361.524 168.034 359.545 Z" fill="#000000" fill-rule="nonzero" fill-opacity="1" /><path clip-path="url(#clip340)" d="M170.273 339.909 Q170.273 343.764 173.294 346.003 Q176.289 348.243 181.523 348.243 Q186.758 348.243 189.778 346.029 Q192.773 343.79 192.773 339.909 Q192.773 336.081 189.752 333.842 Q186.731 331.602 181.523 331.602 Q176.341 331.602 173.32 333.842 Q170.273 336.081 170.273 339.909 M166.211 339.909 Q166.211 333.66 170.273 330.092 Q174.336 326.524 181.523 326.524 Q188.685 326.524 192.773 330.092 Q196.836 333.66 196.836 339.909 Q196.836 346.185 192.773 349.753 Q188.685 353.295 181.523 353.295 Q174.336 353.295 170.273 349.753 Q166.211 346.185 166.211 339.909 Z" fill="#000000" fill-rule="nonzero" fill-opacity="1" /><path clip-path="url(#clip340)" d="M171.393 301.681 Q170.924 302.488 170.716 303.451 Q170.482 304.389 170.482 305.535 Q170.482 309.597 173.138 311.785 Q175.768 313.946 180.716 313.946 L196.08 313.946 L196.08 318.764 L166.914 318.764 L166.914 313.946 L171.445 313.946 Q168.789 312.436 167.513 310.014 Q166.211 307.592 166.211 304.128 Q166.211 303.634 166.289 303.035 Q166.341 302.436 166.471 301.707 L171.393 301.681 Z" fill="#000000" fill-rule="nonzero" fill-opacity="1" /><path clip-path="url(#clip340)" d="M180.299 272.879 L182.643 272.879 L182.643 294.91 Q187.591 294.597 190.195 291.941 Q192.773 289.259 192.773 284.493 Q192.773 281.733 192.096 279.155 Q191.419 276.55 190.065 273.998 L194.596 273.998 Q195.69 276.576 196.263 279.285 Q196.836 281.993 196.836 284.78 Q196.836 291.759 192.773 295.847 Q188.711 299.91 181.784 299.91 Q174.622 299.91 170.429 296.056 Q166.211 292.175 166.211 285.613 Q166.211 279.728 170.013 276.316 Q173.789 272.879 180.299 272.879 M178.893 277.67 Q174.961 277.722 172.617 279.884 Q170.273 282.019 170.273 285.561 Q170.273 289.571 172.539 291.993 Q174.804 294.389 178.919 294.753 L178.893 277.67 Z" fill="#000000" fill-rule="nonzero" fill-opacity="1" /><path clip-path="url(#clip340)" d="M192.964 11.9675 L192.964 18.1307 Q190.012 15.3819 186.656 14.0219 Q183.328 12.662 179.567 12.662 Q172.159 12.662 168.224 17.2048 Q164.289 21.7186 164.289 30.2834 Q164.289 38.8192 168.224 43.362 Q172.159 47.8759 179.567 47.8759 Q183.328 47.8759 186.656 46.516 Q190.012 45.156 192.964 42.4072 L192.964 48.5125 Q189.897 50.5958 186.453 51.6375 Q183.039 52.6791 179.22 52.6791 Q169.411 52.6791 163.768 46.6896 Q158.126 40.6711 158.126 30.2834 Q158.126 19.8668 163.768 13.8772 Q169.411 7.85875 179.22 7.85875 Q183.097 7.85875 186.511 8.90042 Q189.954 9.91314 192.964 11.9675 Z" fill="#000000" fill-rule="nonzero" fill-opacity="1" /><path clip-path="url(#clip340)" d="M201.76 6.81709 L207.084 6.81709 L207.084 51.84 L201.76 51.84 L201.76 6.81709 Z" fill="#000000" fill-rule="nonzero" fill-opacity="1" /><path clip-path="url(#clip340)" d="M218.224 19.4328 L223.548 19.4328 L223.548 51.84 L218.224 51.84 L218.224 19.4328 M218.224 6.81709 L223.548 6.81709 L223.548 13.559 L218.224 13.559 L218.224 6.81709 Z" fill="#000000" fill-rule="nonzero" fill-opacity="1" /><path clip-path="url(#clip340)" d="M261.627 32.2799 L261.627 51.84 L256.303 51.84 L256.303 32.4535 Q256.303 27.8529 254.509 25.567 Q252.715 23.2811 249.127 23.2811 Q244.815 23.2811 242.327 26.03 Q239.838 28.7788 239.838 33.5241 L239.838 51.84 L234.485 51.84 L234.485 19.4328 L239.838 19.4328 L239.838 24.4675 Q241.748 21.545 244.323 20.0983 Q246.928 18.6515 250.313 18.6515 Q255.897 18.6515 258.762 22.1237 Q261.627 25.567 261.627 32.2799 Z" fill="#000000" fill-rule="nonzero" fill-opacity="1" /><path clip-path="url(#clip340)" d="M272.246 19.4328 L277.57 19.4328 L277.57 51.84 L272.246 51.84 L272.246 19.4328 M272.246 6.81709 L277.57 6.81709 L277.57 13.559 L272.246 13.559 L272.246 6.81709 Z" fill="#000000" fill-rule="nonzero" fill-opacity="1" /><path clip-path="url(#clip340)" d="M312.031 20.677 L312.031 25.6538 Q309.774 24.4096 307.489 23.802 Q305.232 23.1654 302.917 23.1654 Q297.737 23.1654 294.873 26.464 Q292.008 29.7336 292.008 35.6653 Q292.008 41.597 294.873 44.8956 Q297.737 48.1653 302.917 48.1653 Q305.232 48.1653 307.489 47.5576 Q309.774 46.921 312.031 45.6768 L312.031 50.5958 Q309.803 51.6375 307.402 52.1583 Q305.029 52.6791 302.338 52.6791 Q295.018 52.6791 290.706 48.0784 Q286.395 43.4778 286.395 35.6653 Q286.395 27.7371 290.735 23.1943 Q295.104 18.6515 302.685 18.6515 Q305.145 18.6515 307.489 19.1724 Q309.832 19.6642 312.031 20.677 Z" fill="#000000" fill-rule="nonzero" fill-opacity="1" /><path clip-path="url(#clip340)" d="M336.019 35.5496 Q329.566 35.5496 327.078 37.0253 Q324.589 38.501 324.589 42.06 Q324.589 44.8956 326.441 46.5738 Q328.322 48.2231 331.534 48.2231 Q335.961 48.2231 338.623 45.0981 Q341.314 41.9442 341.314 36.7359 L341.314 35.5496 L336.019 35.5496 M346.638 33.3505 L346.638 51.84 L341.314 51.84 L341.314 46.921 Q339.491 49.8724 336.771 51.2902 Q334.051 52.6791 330.116 52.6791 Q325.139 52.6791 322.188 49.9014 Q319.265 47.0947 319.265 42.4072 Q319.265 36.9385 322.911 34.1607 Q326.586 31.3829 333.848 31.3829 L341.314 31.3829 L341.314 30.8621 Q341.314 27.1874 338.883 25.1908 Q336.481 23.1654 332.112 23.1654 Q329.335 23.1654 326.701 23.8309 Q324.068 24.4964 321.638 25.8274 L321.638 20.9085 Q324.56 19.78 327.309 19.2302 Q330.058 18.6515 332.662 18.6515 Q339.693 18.6515 343.165 22.2973 Q346.638 25.9431 346.638 33.3505 Z" fill="#000000" fill-rule="nonzero" fill-opacity="1" /><path clip-path="url(#clip340)" d="M357.604 6.81709 L362.928 6.81709 L362.928 51.84 L357.604 51.84 L357.604 6.81709 Z" fill="#000000" fill-rule="nonzero" fill-opacity="1" /><path clip-path="url(#clip340)" d="M407.633 35.5496 Q401.18 35.5496 398.692 37.0253 Q396.203 38.501 396.203 42.06 Q396.203 44.8956 398.055 46.5738 Q399.936 48.2231 403.148 48.2231 Q407.575 48.2231 410.237 45.0981 Q412.928 41.9442 412.928 36.7359 L412.928 35.5496 L407.633 35.5496 M418.252 33.3505 L418.252 51.84 L412.928 51.84 L412.928 46.921 Q411.105 49.8724 408.385 51.2902 Q405.665 52.6791 401.73 52.6791 Q396.753 52.6791 393.802 49.9014 Q390.879 47.0947 390.879 42.4072 Q390.879 36.9385 394.525 34.1607 Q398.2 31.3829 405.463 31.3829 L412.928 31.3829 L412.928 30.8621 Q412.928 27.1874 410.497 25.1908 Q408.096 23.1654 403.726 23.1654 Q400.949 23.1654 398.316 23.8309 Q395.683 24.4964 393.252 25.8274 L393.252 20.9085 Q396.174 19.78 398.923 19.2302 Q401.672 18.6515 404.276 18.6515 Q411.307 18.6515 414.78 22.2973 Q418.252 25.9431 418.252 33.3505 Z" fill="#000000" fill-rule="nonzero" fill-opacity="1" /><path clip-path="url(#clip340)" d="M449.878 20.3876 L449.878 25.4223 Q447.621 24.2649 445.19 23.6862 Q442.76 23.1075 440.156 23.1075 Q436.192 23.1075 434.195 24.3228 Q432.227 25.5381 432.227 27.9686 Q432.227 29.8204 433.645 30.891 Q435.063 31.9327 439.346 32.8876 L441.168 33.2926 Q446.84 34.5079 449.212 36.7359 Q451.614 38.935 451.614 42.8991 Q451.614 47.4129 448.026 50.046 Q444.467 52.6791 438.217 52.6791 Q435.613 52.6791 432.777 52.1583 Q429.971 51.6664 426.846 50.6537 L426.846 45.156 Q429.797 46.6896 432.662 47.4708 Q435.526 48.2231 438.333 48.2231 Q442.094 48.2231 444.12 46.95 Q446.145 45.6479 446.145 43.3042 Q446.145 41.134 444.67 39.9766 Q443.223 38.8192 438.275 37.7486 L436.423 37.3146 Q431.475 36.273 429.276 34.1318 Q427.077 31.9616 427.077 28.2001 Q427.077 23.6283 430.318 21.1399 Q433.559 18.6515 439.519 18.6515 Q442.47 18.6515 445.075 19.0855 Q447.679 19.5196 449.878 20.3876 Z" fill="#000000" fill-rule="nonzero" fill-opacity="1" /><path clip-path="url(#clip340)" d="M480.752 20.3876 L480.752 25.4223 Q478.495 24.2649 476.064 23.6862 Q473.634 23.1075 471.029 23.1075 Q467.065 23.1075 465.069 24.3228 Q463.101 25.5381 463.101 27.9686 Q463.101 29.8204 464.519 30.891 Q465.937 31.9327 470.219 32.8876 L472.042 33.2926 Q477.713 34.5079 480.086 36.7359 Q482.488 38.935 482.488 42.8991 Q482.488 47.4129 478.9 50.046 Q475.341 52.6791 469.091 52.6791 Q466.487 52.6791 463.651 52.1583 Q460.844 51.6664 457.719 50.6537 L457.719 45.156 Q460.671 46.6896 463.535 47.4708 Q466.4 48.2231 469.206 48.2231 Q472.968 48.2231 474.993 46.95 Q477.019 45.6479 477.019 43.3042 Q477.019 41.134 475.543 39.9766 Q474.096 38.8192 469.149 37.7486 L467.297 37.3146 Q462.349 36.273 460.15 34.1318 Q457.951 31.9616 457.951 28.2001 Q457.951 23.6283 461.191 21.1399 Q464.432 18.6515 470.393 18.6515 Q473.344 18.6515 475.948 19.0855 Q478.552 19.5196 480.752 20.3876 Z" fill="#000000" fill-rule="nonzero" fill-opacity="1" /><path clip-path="url(#clip340)" d="M503.523 23.1654 Q499.241 23.1654 496.753 26.5218 Q494.264 29.8494 494.264 35.6653 Q494.264 41.4813 496.724 44.8377 Q499.212 48.1653 503.523 48.1653 Q507.777 48.1653 510.265 44.8088 Q512.754 41.4523 512.754 35.6653 Q512.754 29.9072 510.265 26.5508 Q507.777 23.1654 503.523 23.1654 M503.523 18.6515 Q510.468 18.6515 514.432 23.1654 Q518.396 27.6792 518.396 35.6653 Q518.396 43.6225 514.432 48.1653 Q510.468 52.6791 503.523 52.6791 Q496.55 52.6791 492.586 48.1653 Q488.651 43.6225 488.651 35.6653 Q488.651 27.6792 492.586 23.1654 Q496.55 18.6515 503.523 18.6515 Z" fill="#000000" fill-rule="nonzero" fill-opacity="1" /><path clip-path="url(#clip340)" d="M550.543 20.677 L550.543 25.6538 Q548.286 24.4096 546 23.802 Q543.743 23.1654 541.428 23.1654 Q536.249 23.1654 533.384 26.464 Q530.52 29.7336 530.52 35.6653 Q530.52 41.597 533.384 44.8956 Q536.249 48.1653 541.428 48.1653 Q543.743 48.1653 546 47.5576 Q548.286 46.921 550.543 45.6768 L550.543 50.5958 Q548.315 51.6375 545.913 52.1583 Q543.541 52.6791 540.85 52.6791 Q533.529 52.6791 529.218 48.0784 Q524.906 43.4778 524.906 35.6653 Q524.906 27.7371 529.247 23.1943 Q533.616 18.6515 541.197 18.6515 Q543.656 18.6515 546 19.1724 Q548.344 19.6642 550.543 20.677 Z" fill="#000000" fill-rule="nonzero" fill-opacity="1" /><path clip-path="url(#clip340)" d="M559.802 19.4328 L565.126 19.4328 L565.126 51.84 L559.802 51.84 L559.802 19.4328 M559.802 6.81709 L565.126 6.81709 L565.126 13.559 L559.802 13.559 L559.802 6.81709 Z" fill="#000000" fill-rule="nonzero" fill-opacity="1" /><path clip-path="url(#clip340)" d="M590.994 35.5496 Q584.541 35.5496 582.053 37.0253 Q579.565 38.501 579.565 42.06 Q579.565 44.8956 581.417 46.5738 Q583.297 48.2231 586.509 48.2231 Q590.936 48.2231 593.598 45.0981 Q596.289 41.9442 596.289 36.7359 L596.289 35.5496 L590.994 35.5496 M601.613 33.3505 L601.613 51.84 L596.289 51.84 L596.289 46.921 Q594.466 49.8724 591.746 51.2902 Q589.026 52.6791 585.091 52.6791 Q580.114 52.6791 577.163 49.9014 Q574.241 47.0947 574.241 42.4072 Q574.241 36.9385 577.886 34.1607 Q581.561 31.3829 588.824 31.3829 L596.289 31.3829 L596.289 30.8621 Q596.289 27.1874 593.859 25.1908 Q591.457 23.1654 587.088 23.1654 Q584.31 23.1654 581.677 23.8309 Q579.044 24.4964 576.613 25.8274 L576.613 20.9085 Q579.536 19.78 582.285 19.2302 Q585.033 18.6515 587.638 18.6515 Q594.669 18.6515 598.141 22.2973 Q601.613 25.9431 601.613 33.3505 Z" fill="#000000" fill-rule="nonzero" fill-opacity="1" /><path clip-path="url(#clip340)" d="M617.846 10.2314 L617.846 19.4328 L628.812 19.4328 L628.812 23.5705 L617.846 23.5705 L617.846 41.163 Q617.846 45.1271 618.916 46.2555 Q620.016 47.384 623.343 47.384 L628.812 47.384 L628.812 51.84 L623.343 51.84 Q617.18 51.84 614.836 49.5541 Q612.493 47.2393 612.493 41.163 L612.493 23.5705 L608.586 23.5705 L608.586 19.4328 L612.493 19.4328 L612.493 10.2314 L617.846 10.2314 Z" fill="#000000" fill-rule="nonzero" fill-opacity="1" /><path clip-path="url(#clip340)" d="M635.814 19.4328 L641.138 19.4328 L641.138 51.84 L635.814 51.84 L635.814 19.4328 M635.814 6.81709 L641.138 6.81709 L641.138 13.559 L635.814 13.559 L635.814 6.81709 Z" fill="#000000" fill-rule="nonzero" fill-opacity="1" /><path clip-path="url(#clip340)" d="M664.836 23.1654 Q660.554 23.1654 658.065 26.5218 Q655.577 29.8494 655.577 35.6653 Q655.577 41.4813 658.036 44.8377 Q660.525 48.1653 664.836 48.1653 Q669.09 48.1653 671.578 44.8088 Q674.066 41.4523 674.066 35.6653 Q674.066 29.9072 671.578 26.5508 Q669.09 23.1654 664.836 23.1654 M664.836 18.6515 Q671.781 18.6515 675.745 23.1654 Q679.709 27.6792 679.709 35.6653 Q679.709 43.6225 675.745 48.1653 Q671.781 52.6791 664.836 52.6791 Q657.863 52.6791 653.899 48.1653 Q649.964 43.6225 649.964 35.6653 Q649.964 27.6792 653.899 23.1654 Q657.863 18.6515 664.836 18.6515 Z" fill="#000000" fill-rule="nonzero" fill-opacity="1" /><path clip-path="url(#clip340)" d="M715.473 32.2799 L715.473 51.84 L710.148 51.84 L710.148 32.4535 Q710.148 27.8529 708.354 25.567 Q706.561 23.2811 702.973 23.2811 Q698.661 23.2811 696.173 26.03 Q693.684 28.7788 693.684 33.5241 L693.684 51.84 L688.331 51.84 L688.331 19.4328 L693.684 19.4328 L693.684 24.4675 Q695.594 21.545 698.169 20.0983 Q700.774 18.6515 704.159 18.6515 Q709.743 18.6515 712.608 22.1237 Q715.473 25.567 715.473 32.2799 Z" fill="#000000" fill-rule="nonzero" fill-opacity="1" /><path clip-path="url(#clip340)" d="M757.718 6.87496 Q753.84 13.53 751.96 20.0404 Q750.079 26.5508 750.079 33.2348 Q750.079 39.9188 751.96 46.487 Q753.869 53.0263 757.718 59.6525 L753.088 59.6525 Q748.748 52.8527 746.578 46.2845 Q744.436 39.7162 744.436 33.2348 Q744.436 26.7823 746.578 20.2429 Q748.719 13.7036 753.088 6.87496 L757.718 6.87496 Z" fill="#000000" fill-rule="nonzero" fill-opacity="1" /><path clip-path="url(#clip340)" d="M788.707 20.3876 L788.707 25.4223 Q786.45 24.2649 784.02 23.6862 Q781.589 23.1075 778.985 23.1075 Q775.021 23.1075 773.024 24.3228 Q771.057 25.5381 771.057 27.9686 Q771.057 29.8204 772.475 30.891 Q773.892 31.9327 778.175 32.8876 L779.998 33.2926 Q785.669 34.5079 788.042 36.7359 Q790.443 38.935 790.443 42.8991 Q790.443 47.4129 786.855 50.046 Q783.296 52.6791 777.046 52.6791 Q774.442 52.6791 771.606 52.1583 Q768.8 51.6664 765.675 50.6537 L765.675 45.156 Q768.626 46.6896 771.491 47.4708 Q774.355 48.2231 777.162 48.2231 Q780.924 48.2231 782.949 46.95 Q784.974 45.6479 784.974 43.3042 Q784.974 41.134 783.499 39.9766 Q782.052 38.8192 777.104 37.7486 L775.252 37.3146 Q770.304 36.273 768.105 34.1318 Q765.906 31.9616 765.906 28.2001 Q765.906 23.6283 769.147 21.1399 Q772.388 18.6515 778.348 18.6515 Q781.3 18.6515 783.904 19.0855 Q786.508 19.5196 788.707 20.3876 Z" fill="#000000" fill-rule="nonzero" fill-opacity="1" /><path clip-path="url(#clip340)" d="M804.187 10.2314 L804.187 19.4328 L815.154 19.4328 L815.154 23.5705 L804.187 23.5705 L804.187 41.163 Q804.187 45.1271 805.258 46.2555 Q806.357 47.384 809.685 47.384 L815.154 47.384 L815.154 51.84 L809.685 51.84 Q803.522 51.84 801.178 49.5541 Q798.834 47.2393 798.834 41.163 L798.834 23.5705 L794.928 23.5705 L794.928 19.4328 L798.834 19.4328 L798.834 10.2314 L804.187 10.2314 Z" fill="#000000" fill-rule="nonzero" fill-opacity="1" /><path clip-path="url(#clip340)" d="M840.935 24.4096 Q840.038 23.8888 838.967 23.6573 Q837.926 23.3969 836.652 23.3969 Q832.139 23.3969 829.708 26.3482 Q827.306 29.2707 827.306 34.7683 L827.306 51.84 L821.953 51.84 L821.953 19.4328 L827.306 19.4328 L827.306 24.4675 Q828.985 21.5161 831.676 20.0983 Q834.367 18.6515 838.215 18.6515 Q838.765 18.6515 839.43 18.7383 Q840.096 18.7962 840.906 18.9409 L840.935 24.4096 Z" fill="#000000" fill-rule="nonzero" fill-opacity="1" /><path clip-path="url(#clip340)" d="M857.775 23.1654 Q853.493 23.1654 851.004 26.5218 Q848.516 29.8494 848.516 35.6653 Q848.516 41.4813 850.975 44.8377 Q853.464 48.1653 857.775 48.1653 Q862.028 48.1653 864.517 44.8088 Q867.005 41.4523 867.005 35.6653 Q867.005 29.9072 864.517 26.5508 Q862.028 23.1654 857.775 23.1654 M857.775 18.6515 Q864.719 18.6515 868.683 23.1654 Q872.648 27.6792 872.648 35.6653 Q872.648 43.6225 868.683 48.1653 Q864.719 52.6791 857.775 52.6791 Q850.802 52.6791 846.838 48.1653 Q842.902 43.6225 842.902 35.6653 Q842.902 27.6792 846.838 23.1654 Q850.802 18.6515 857.775 18.6515 Z" fill="#000000" fill-rule="nonzero" fill-opacity="1" /><path clip-path="url(#clip340)" d="M881.27 6.81709 L886.623 6.81709 L886.623 33.4084 L902.509 19.4328 L909.308 19.4328 L892.121 34.5947 L910.032 51.84 L903.087 51.84 L886.623 36.0125 L886.623 51.84 L881.27 51.84 L881.27 6.81709 Z" fill="#000000" fill-rule="nonzero" fill-opacity="1" /><path clip-path="url(#clip340)" d="M941.397 34.3054 L941.397 36.9095 L916.918 36.9095 Q917.265 42.4072 920.217 45.3007 Q923.197 48.1653 928.492 48.1653 Q931.559 48.1653 934.424 47.4129 Q937.317 46.6606 940.153 45.156 L940.153 50.1907 Q937.288 51.406 934.279 52.0425 Q931.27 52.6791 928.174 52.6791 Q920.419 52.6791 915.877 48.1653 Q911.363 43.6514 911.363 35.9547 Q911.363 27.9975 915.645 23.339 Q919.956 18.6515 927.248 18.6515 Q933.787 18.6515 937.578 22.876 Q941.397 27.0716 941.397 34.3054 M936.073 32.7429 Q936.015 28.3737 933.614 25.7695 Q931.241 23.1654 927.306 23.1654 Q922.85 23.1654 920.159 25.6827 Q917.497 28.2001 917.092 32.7718 L936.073 32.7429 Z" fill="#000000" fill-rule="nonzero" fill-opacity="1" /><path clip-path="url(#clip340)" d="M989.632 20.3876 L989.632 25.4223 Q987.375 24.2649 984.944 23.6862 Q982.514 23.1075 979.91 23.1075 Q975.946 23.1075 973.949 24.3228 Q971.982 25.5381 971.982 27.9686 Q971.982 29.8204 973.399 30.891 Q974.817 31.9327 979.1 32.8876 L980.922 33.2926 Q986.594 34.5079 988.966 36.7359 Q991.368 38.935 991.368 42.8991 Q991.368 47.4129 987.78 50.046 Q984.221 52.6791 977.971 52.6791 Q975.367 52.6791 972.531 52.1583 Q969.725 51.6664 966.6 50.6537 L966.6 45.156 Q969.551 46.6896 972.416 47.4708 Q975.28 48.2231 978.087 48.2231 Q981.848 48.2231 983.874 46.95 Q985.899 45.6479 985.899 43.3042 Q985.899 41.134 984.424 39.9766 Q982.977 38.8192 978.029 37.7486 L976.177 37.3146 Q971.229 36.273 969.03 34.1318 Q966.831 31.9616 966.831 28.2001 Q966.831 23.6283 970.072 21.1399 Q973.313 18.6515 979.273 18.6515 Q982.225 18.6515 984.829 19.0855 Q987.433 19.5196 989.632 20.3876 Z" fill="#000000" fill-rule="nonzero" fill-opacity="1" /><path clip-path="url(#clip340)" d="M999.296 39.0507 L999.296 19.4328 L1004.62 19.4328 L1004.62 38.8482 Q1004.62 43.4488 1006.41 45.7636 Q1008.21 48.0495 1011.8 48.0495 Q1016.11 48.0495 1018.6 45.3007 Q1021.11 42.5519 1021.11 37.8065 L1021.11 19.4328 L1026.44 19.4328 L1026.44 51.84 L1021.11 51.84 L1021.11 46.8632 Q1019.17 49.8145 1016.6 51.2613 Q1014.05 52.6791 1010.67 52.6791 Q1005.08 52.6791 1002.19 49.2069 Q999.296 45.7347 999.296 39.0507 M1012.69 18.6515 L1012.69 18.6515 Z" fill="#000000" fill-rule="nonzero" fill-opacity="1" /><path clip-path="url(#clip340)" d="M1060.67 35.6653 Q1060.67 29.7915 1058.24 26.464 Q1055.84 23.1075 1051.61 23.1075 Q1047.39 23.1075 1044.96 26.464 Q1042.55 29.7915 1042.55 35.6653 Q1042.55 41.5391 1044.96 44.8956 Q1047.39 48.2231 1051.61 48.2231 Q1055.84 48.2231 1058.24 44.8956 Q1060.67 41.5391 1060.67 35.6653 M1042.55 24.3517 Q1044.23 21.4582 1046.78 20.0693 Q1049.35 18.6515 1052.91 18.6515 Q1058.82 18.6515 1062.49 23.339 Q1066.19 28.0265 1066.19 35.6653 Q1066.19 43.3042 1062.49 47.9916 Q1058.82 52.6791 1052.91 52.6791 Q1049.35 52.6791 1046.78 51.2902 Q1044.23 49.8724 1042.55 46.9789 L1042.55 51.84 L1037.2 51.84 L1037.2 6.81709 L1042.55 6.81709 L1042.55 24.3517 Z" fill="#000000" fill-rule="nonzero" fill-opacity="1" /><path clip-path="url(#clip340)" d="M1075.02 19.4328 L1080.34 19.4328 L1080.34 52.4187 Q1080.34 58.6108 1077.97 61.3886 Q1075.63 64.1663 1070.39 64.1663 L1068.36 64.1663 L1068.36 59.6525 L1069.78 59.6525 Q1072.82 59.6525 1073.92 58.2346 Q1075.02 56.8458 1075.02 52.4187 L1075.02 19.4328 M1075.02 6.81709 L1080.34 6.81709 L1080.34 13.559 L1075.02 13.559 L1075.02 6.81709 Z" fill="#000000" fill-rule="nonzero" fill-opacity="1" /><path clip-path="url(#clip340)" d="M1119.2 34.3054 L1119.2 36.9095 L1094.72 36.9095 Q1095.07 42.4072 1098.02 45.3007 Q1101 48.1653 1106.3 48.1653 Q1109.37 48.1653 1112.23 47.4129 Q1115.12 46.6606 1117.96 45.156 L1117.96 50.1907 Q1115.09 51.406 1112.08 52.0425 Q1109.08 52.6791 1105.98 52.6791 Q1098.23 52.6791 1093.68 48.1653 Q1089.17 43.6514 1089.17 35.9547 Q1089.17 27.9975 1093.45 23.339 Q1097.76 18.6515 1105.05 18.6515 Q1111.59 18.6515 1115.38 22.876 Q1119.2 27.0716 1119.2 34.3054 M1113.88 32.7429 Q1113.82 28.3737 1111.42 25.7695 Q1109.05 23.1654 1105.11 23.1654 Q1100.66 23.1654 1097.96 25.6827 Q1095.3 28.2001 1094.9 32.7718 L1113.88 32.7429 Z" fill="#000000" fill-rule="nonzero" fill-opacity="1" /><path clip-path="url(#clip340)" d="M1151.26 20.677 L1151.26 25.6538 Q1149.01 24.4096 1146.72 23.802 Q1144.46 23.1654 1142.15 23.1654 Q1136.97 23.1654 1134.1 26.464 Q1131.24 29.7336 1131.24 35.6653 Q1131.24 41.597 1134.1 44.8956 Q1136.97 48.1653 1142.15 48.1653 Q1144.46 48.1653 1146.72 47.5576 Q1149.01 46.921 1151.26 45.6768 L1151.26 50.5958 Q1149.03 51.6375 1146.63 52.1583 Q1144.26 52.6791 1141.57 52.6791 Q1134.25 52.6791 1129.94 48.0784 Q1125.63 43.4778 1125.63 35.6653 Q1125.63 27.7371 1129.97 23.1943 Q1134.34 18.6515 1141.92 18.6515 Q1144.38 18.6515 1146.72 19.1724 Q1149.06 19.6642 1151.26 20.677 Z" fill="#000000" fill-rule="nonzero" fill-opacity="1" /><path clip-path="url(#clip340)" d="M1165.79 10.2314 L1165.79 19.4328 L1176.75 19.4328 L1176.75 23.5705 L1165.79 23.5705 L1165.79 41.163 Q1165.79 45.1271 1166.86 46.2555 Q1167.96 47.384 1171.29 47.384 L1176.75 47.384 L1176.75 51.84 L1171.29 51.84 Q1165.12 51.84 1162.78 49.5541 Q1160.44 47.2393 1160.44 41.163 L1160.44 23.5705 L1156.53 23.5705 L1156.53 19.4328 L1160.44 19.4328 L1160.44 10.2314 L1165.79 10.2314 Z" fill="#000000" fill-rule="nonzero" fill-opacity="1" /><path clip-path="url(#clip340)" d="M1204.42 20.3876 L1204.42 25.4223 Q1202.16 24.2649 1199.73 23.6862 Q1197.3 23.1075 1194.69 23.1075 Q1190.73 23.1075 1188.73 24.3228 Q1186.77 25.5381 1186.77 27.9686 Q1186.77 29.8204 1188.18 30.891 Q1189.6 31.9327 1193.88 32.8876 L1195.71 33.2926 Q1201.38 34.5079 1203.75 36.7359 Q1206.15 38.935 1206.15 42.8991 Q1206.15 47.4129 1202.56 50.046 Q1199.01 52.6791 1192.76 52.6791 Q1190.15 52.6791 1187.32 52.1583 Q1184.51 51.6664 1181.38 50.6537 L1181.38 45.156 Q1184.34 46.6896 1187.2 47.4708 Q1190.06 48.2231 1192.87 48.2231 Q1196.63 48.2231 1198.66 46.95 Q1200.68 45.6479 1200.68 43.3042 Q1200.68 41.134 1199.21 39.9766 Q1197.76 38.8192 1192.81 37.7486 L1190.96 37.3146 Q1186.01 36.273 1183.81 34.1318 Q1181.62 31.9616 1181.62 28.2001 Q1181.62 23.6283 1184.86 21.1399 Q1188.1 18.6515 1194.06 18.6515 Q1197.01 18.6515 1199.61 19.0855 Q1202.22 19.5196 1204.42 20.3876 Z" fill="#000000" fill-rule="nonzero" fill-opacity="1" /><path clip-path="url(#clip340)" d="M1213.79 6.87496 L1218.42 6.87496 Q1222.76 13.7036 1224.9 20.2429 Q1227.07 26.7823 1227.07 33.2348 Q1227.07 39.7162 1224.9 46.2845 Q1222.76 52.8527 1218.42 59.6525 L1213.79 59.6525 Q1217.64 53.0263 1219.52 46.487 Q1221.43 39.9188 1221.43 33.2348 Q1221.43 26.5508 1219.52 20.0404 Q1217.64 13.53 1213.79 6.87496 Z" fill="#000000" fill-rule="nonzero" fill-opacity="1" /><circle clip-path="url(#clip342)" cx="611.486" cy="417.297" r="14.4" fill="#ff8c00" fill-rule="evenodd" fill-opacity="0.8" stroke="none"/>
<circle clip-path="url(#clip342)" cx="532.259" cy="258.062" r="14.4" fill="#ff8c00" fill-rule="evenodd" fill-opacity="0.8" stroke="none"/>
<circle clip-path="url(#clip342)" cx="419.077" cy="258.062" r="14.4" fill="#ff8c00" fill-rule="evenodd" fill-opacity="0.8" stroke="none"/>
<circle clip-path="url(#clip342)" cx="532.259" cy="364.219" r="14.4" fill="#ff8c00" fill-rule="evenodd" fill-opacity="0.8" stroke="none"/>
<circle clip-path="url(#clip342)" cx="456.804" cy="231.523" r="14.4" fill="#ff8c00" fill-rule="evenodd" fill-opacity="0.8" stroke="none"/>
<circle clip-path="url(#clip342)" cx="554.895" cy="337.68" r="14.4" fill="#ff8c00" fill-rule="evenodd" fill-opacity="0.8" stroke="none"/>
<circle clip-path="url(#clip342)" cx="532.259" cy="417.297" r="14.4" fill="#ff8c00" fill-rule="evenodd" fill-opacity="0.8" stroke="none"/>
<polyline clip-path="url(#clip342)" style="stroke:#ff8c00; stroke-linecap:round; stroke-linejoin:round; stroke-width:8; stroke-opacity:1; fill:none" points="419.077,233.323 423.003,236.946 426.93,240.569 430.857,244.191 434.784,247.814 438.71,251.437 442.637,255.059 446.564,258.682 450.49,262.305 454.417,265.927 458.344,269.55 462.271,273.173 466.197,276.796 470.124,280.418 474.051,284.041 477.977,287.664 481.904,291.286 485.831,294.909 489.758,298.532 493.684,302.154 497.611,305.777 501.538,309.4 505.464,313.022 509.391,316.645 513.318,320.268 517.245,323.891 521.171,327.513 525.098,331.136 529.025,334.759 532.951,338.381 536.878,342.004 540.805,345.627 544.732,349.249 548.658,352.872 552.585,356.495 556.512,360.118 560.438,363.74 564.365,367.363 568.292,370.986 572.219,374.608 576.145,378.231 580.072,381.854 583.999,385.476 587.925,389.099 591.852,392.722 595.779,396.345 599.706,399.967 603.632,403.59 607.559,407.213 611.486,410.835 "/>
<circle clip-path="url(#clip342)" cx="560.554" cy="364.219" r="14.4" fill="#db143d" fill-rule="evenodd" fill-opacity="0.8" stroke="none"/>
<circle clip-path="url(#clip342)" cx="900.099" cy="549.994" r="14.4" fill="#db143d" fill-rule="evenodd" fill-opacity="0.8" stroke="none"/>
<circle clip-path="url(#clip342)" cx="532.259" cy="470.376" r="14.4" fill="#db143d" fill-rule="evenodd" fill-opacity="0.8" stroke="none"/>
<circle clip-path="url(#clip342)" cx="362.486" cy="337.68" r="14.4" fill="#db143d" fill-rule="evenodd" fill-opacity="0.8" stroke="none"/>
<circle clip-path="url(#clip342)" cx="626.577" cy="496.915" r="14.4" fill="#db143d" fill-rule="evenodd" fill-opacity="0.8" stroke="none"/>
<circle clip-path="url(#clip342)" cx="1022.71" cy="576.533" r="14.4" fill="#db143d" fill-rule="evenodd" fill-opacity="0.8" stroke="none"/>
<polyline clip-path="url(#clip342)" style="stroke:#db143d; stroke-linecap:round; stroke-linejoin:round; stroke-width:8; stroke-opacity:1; fill:none" points="362.486,358.899 375.96,363.629 389.434,368.359 402.908,373.089 416.382,377.818 429.856,382.548 443.33,387.278 456.804,392.008 470.278,396.738 483.752,401.468 497.226,406.198 510.7,410.928 524.174,415.658 537.648,420.388 551.122,425.118 564.596,429.848 578.07,434.578 591.544,439.308 605.018,444.037 618.492,448.767 631.966,453.497 645.44,458.227 658.914,462.957 672.388,467.687 685.862,472.417 699.336,477.147 712.81,481.877 726.284,486.607 739.758,491.337 753.232,496.067 766.706,500.797 780.18,505.527 793.655,510.257 807.129,514.986 820.603,519.716 834.077,524.446 847.551,529.176 861.025,533.906 874.499,538.636 887.973,543.366 901.447,548.096 914.921,552.826 928.395,557.556 941.869,562.286 955.343,567.016 968.817,571.746 982.291,576.476 995.765,581.205 1009.24,585.935 1022.71,590.665 "/>
<path clip-path="url(#clip340)" d="M743.028 588.75 L1019.19 588.75 L1019.19 433.23 L743.028 433.23  Z" fill="#ffffff" fill-rule="evenodd" fill-opacity="1"/>
<polyline clip-path="url(#clip340)" style="stroke:#000000; stroke-linecap:round; stroke-linejoin:round; stroke-width:4; stroke-opacity:1; fill:none" points="743.028,588.75 1019.19,588.75 1019.19,433.23 743.028,433.23 743.028,588.75 "/>
<circle clip-path="url(#clip340)" cx="774.132" cy="485.07" r="23.04" fill="#ff8c00" fill-rule="evenodd" fill-opacity="0.8" stroke="none"/>
<path clip-path="url(#clip340)" d="M805.236 467.79 L809.912 467.79 L809.912 481.957 L826.903 481.957 L826.903 467.79 L831.579 467.79 L831.579 502.35 L826.903 502.35 L826.903 485.892 L809.912 485.892 L809.912 502.35 L805.236 502.35 L805.236 467.79 Z" fill="#000000" fill-rule="nonzero" fill-opacity="1" /><path clip-path="url(#clip340)" d="M840.884 467.79 L860.745 467.79 L860.745 471.725 L845.56 471.725 L845.56 481.91 L859.264 481.91 L859.264 485.845 L845.56 485.845 L845.56 502.35 L840.884 502.35 L840.884 467.79 Z" fill="#000000" fill-rule="nonzero" fill-opacity="1" /><path clip-path="url(#clip340)" d="M893.268 466.378 Q890.166 471.702 888.662 476.91 Q887.157 482.119 887.157 487.466 Q887.157 492.813 888.662 498.068 Q890.189 503.299 893.268 508.6 L889.564 508.6 Q886.092 503.16 884.356 497.905 Q882.643 492.651 882.643 487.466 Q882.643 482.304 884.356 477.072 Q886.069 471.841 889.564 466.378 L893.268 466.378 Z" fill="#000000" fill-rule="nonzero" fill-opacity="1" /><path clip-path="url(#clip340)" d="M923.083 486.702 L923.083 502.35 L918.824 502.35 L918.824 486.841 Q918.824 483.16 917.388 481.332 Q915.953 479.503 913.083 479.503 Q909.634 479.503 907.643 481.702 Q905.652 483.901 905.652 487.697 L905.652 502.35 L901.37 502.35 L901.37 476.424 L905.652 476.424 L905.652 480.452 Q907.18 478.114 909.24 476.957 Q911.324 475.799 914.032 475.799 Q918.499 475.799 920.791 478.577 Q923.083 481.332 923.083 486.702 Z" fill="#000000" fill-rule="nonzero" fill-opacity="1" /><path clip-path="url(#clip340)" d="M932.134 480.822 L961.809 480.822 L961.809 484.711 L932.134 484.711 L932.134 480.822 M932.134 490.267 L961.809 490.267 L961.809 494.202 L932.134 494.202 L932.134 490.267 Z" fill="#000000" fill-rule="nonzero" fill-opacity="1" /><path clip-path="url(#clip340)" d="M970.721 467.79 L992.944 467.79 L992.944 469.781 L980.397 502.35 L975.513 502.35 L987.319 471.725 L970.721 471.725 L970.721 467.79 Z" fill="#000000" fill-rule="nonzero" fill-opacity="1" /><path clip-path="url(#clip340)" d="M1000.79 466.378 L1004.49 466.378 Q1007.97 471.841 1009.68 477.072 Q1011.42 482.304 1011.42 487.466 Q1011.42 492.651 1009.68 497.905 Q1007.97 503.16 1004.49 508.6 L1000.79 508.6 Q1003.87 503.299 1005.37 498.068 Q1006.9 492.813 1006.9 487.466 Q1006.9 482.119 1005.37 476.91 Q1003.87 471.702 1000.79 466.378 Z" fill="#000000" fill-rule="nonzero" fill-opacity="1" /><circle clip-path="url(#clip340)" cx="774.132" cy="536.91" r="23.04" fill="#db143d" fill-rule="evenodd" fill-opacity="0.8" stroke="none"/>
<path clip-path="url(#clip340)" d="M805.236 519.63 L809.912 519.63 L809.912 550.255 L826.741 550.255 L826.741 554.19 L805.236 554.19 L805.236 519.63 Z" fill="#000000" fill-rule="nonzero" fill-opacity="1" /><path clip-path="url(#clip340)" d="M831.648 519.63 L851.509 519.63 L851.509 523.565 L836.324 523.565 L836.324 533.75 L850.028 533.75 L850.028 537.685 L836.324 537.685 L836.324 554.19 L831.648 554.19 L831.648 519.63 Z" fill="#000000" fill-rule="nonzero" fill-opacity="1" /><path clip-path="url(#clip340)" d="M884.032 518.218 Q880.93 523.542 879.426 528.75 Q877.921 533.959 877.921 539.306 Q877.921 544.653 879.426 549.908 Q880.953 555.139 884.032 560.44 L880.328 560.44 Q876.856 555 875.12 549.745 Q873.407 544.491 873.407 539.306 Q873.407 534.144 875.12 528.912 Q876.833 523.681 880.328 518.218 L884.032 518.218 Z" fill="#000000" fill-rule="nonzero" fill-opacity="1" /><path clip-path="url(#clip340)" d="M913.847 538.542 L913.847 554.19 L909.587 554.19 L909.587 538.681 Q909.587 535 908.152 533.172 Q906.717 531.343 903.847 531.343 Q900.398 531.343 898.407 533.542 Q896.416 535.741 896.416 539.537 L896.416 554.19 L892.134 554.19 L892.134 528.264 L896.416 528.264 L896.416 532.292 Q897.944 529.954 900.004 528.797 Q902.088 527.639 904.796 527.639 Q909.263 527.639 911.555 530.417 Q913.847 533.172 913.847 538.542 Z" fill="#000000" fill-rule="nonzero" fill-opacity="1" /><path clip-path="url(#clip340)" d="M922.898 532.662 L952.573 532.662 L952.573 536.551 L922.898 536.551 L922.898 532.662 M922.898 542.107 L952.573 542.107 L952.573 546.042 L922.898 546.042 L922.898 542.107 Z" fill="#000000" fill-rule="nonzero" fill-opacity="1" /><path clip-path="url(#clip340)" d="M973.245 535.046 Q970.096 535.046 968.245 537.199 Q966.416 539.352 966.416 543.102 Q966.416 546.829 968.245 549.005 Q970.096 551.158 973.245 551.158 Q976.393 551.158 978.221 549.005 Q980.073 546.829 980.073 543.102 Q980.073 539.352 978.221 537.199 Q976.393 535.046 973.245 535.046 M982.527 520.394 L982.527 524.653 Q980.768 523.82 978.962 523.38 Q977.18 522.94 975.42 522.94 Q970.791 522.94 968.337 526.065 Q965.907 529.19 965.559 535.509 Q966.925 533.496 968.985 532.431 Q971.046 531.343 973.522 531.343 Q978.731 531.343 981.74 534.514 Q984.772 537.662 984.772 543.102 Q984.772 548.426 981.624 551.644 Q978.476 554.861 973.245 554.861 Q967.249 554.861 964.078 550.278 Q960.907 545.671 960.907 536.945 Q960.907 528.75 964.796 523.889 Q968.684 519.005 975.235 519.005 Q976.995 519.005 978.777 519.352 Q980.582 519.699 982.527 520.394 Z" fill="#000000" fill-rule="nonzero" fill-opacity="1" /><path clip-path="url(#clip340)" d="M991.555 518.218 L995.258 518.218 Q998.731 523.681 1000.44 528.912 Q1002.18 534.144 1002.18 539.306 Q1002.18 544.491 1000.44 549.745 Q998.731 555 995.258 560.44 L991.555 560.44 Q994.633 555.139 996.138 549.908 Q997.666 544.653 997.666 539.306 Q997.666 533.959 996.138 528.75 Q994.633 523.542 991.555 518.218 Z" fill="#000000" fill-rule="nonzero" fill-opacity="1" /><path clip-path="url(#clip340)" d="M377.671 226.858 Q376.953 226.442 376.097 226.256 Q375.264 226.048 374.245 226.048 Q370.634 226.048 368.69 228.409 Q366.768 230.747 366.768 235.145 L366.768 248.803 L362.486 248.803 L362.486 222.877 L366.768 222.877 L366.768 226.905 Q368.111 224.543 370.264 223.409 Q372.416 222.252 375.495 222.252 Q375.935 222.252 376.467 222.321 Q377 222.368 377.648 222.483 L377.671 226.858 Z" fill="#000000" fill-rule="nonzero" fill-opacity="1" /><path clip-path="url(#clip340)" d="M382.694 227.275 L412.37 227.275 L412.37 231.164 L382.694 231.164 L382.694 227.275 M382.694 236.719 L412.37 236.719 L412.37 240.655 L382.694 240.655 L382.694 236.719 Z" fill="#000000" fill-rule="nonzero" fill-opacity="1" /><path clip-path="url(#clip340)" d="M419.708 233.918 L432.185 233.918 L432.185 237.715 L419.708 237.715 L419.708 233.918 Z" fill="#000000" fill-rule="nonzero" fill-opacity="1" /><path clip-path="url(#clip340)" d="M449.569 217.321 Q445.958 217.321 444.129 220.886 Q442.323 224.428 442.323 231.557 Q442.323 238.664 444.129 242.229 Q445.958 245.77 449.569 245.77 Q453.203 245.77 455.008 242.229 Q456.837 238.664 456.837 231.557 Q456.837 224.428 455.008 220.886 Q453.203 217.321 449.569 217.321 M449.569 213.618 Q455.379 213.618 458.434 218.224 Q461.513 222.807 461.513 231.557 Q461.513 240.284 458.434 244.891 Q455.379 249.474 449.569 249.474 Q443.759 249.474 440.68 244.891 Q437.624 240.284 437.624 231.557 Q437.624 222.807 440.68 218.224 Q443.759 213.618 449.569 213.618 Z" fill="#000000" fill-rule="nonzero" fill-opacity="1" /><path clip-path="url(#clip340)" d="M469.731 242.923 L474.615 242.923 L474.615 248.803 L469.731 248.803 L469.731 242.923 Z" fill="#000000" fill-rule="nonzero" fill-opacity="1" /><path clip-path="url(#clip340)" d="M494.8 232.391 Q491.467 232.391 489.545 234.173 Q487.647 235.955 487.647 239.08 Q487.647 242.205 489.545 243.988 Q491.467 245.77 494.8 245.77 Q498.133 245.77 500.055 243.988 Q501.976 242.182 501.976 239.08 Q501.976 235.955 500.055 234.173 Q498.156 232.391 494.8 232.391 M490.124 230.4 Q487.115 229.659 485.425 227.599 Q483.758 225.539 483.758 222.576 Q483.758 218.432 486.698 216.025 Q489.661 213.618 494.8 213.618 Q499.962 213.618 502.902 216.025 Q505.842 218.432 505.842 222.576 Q505.842 225.539 504.152 227.599 Q502.485 229.659 499.499 230.4 Q502.879 231.187 504.754 233.479 Q506.652 235.77 506.652 239.08 Q506.652 244.104 503.573 246.789 Q500.518 249.474 494.8 249.474 Q489.082 249.474 486.004 246.789 Q482.948 244.104 482.948 239.08 Q482.948 235.77 484.846 233.479 Q486.744 231.187 490.124 230.4 M488.411 223.016 Q488.411 225.701 490.078 227.206 Q491.768 228.71 494.8 228.71 Q497.809 228.71 499.499 227.206 Q501.212 225.701 501.212 223.016 Q501.212 220.331 499.499 218.826 Q497.809 217.321 494.8 217.321 Q491.768 217.321 490.078 218.826 Q488.411 220.331 488.411 223.016 Z" fill="#000000" fill-rule="nonzero" fill-opacity="1" /><path clip-path="url(#clip340)" d="M515.772 244.867 L523.411 244.867 L523.411 218.502 L515.101 220.169 L515.101 215.909 L523.365 214.243 L528.041 214.243 L528.041 244.867 L535.679 244.867 L535.679 248.803 L515.772 248.803 L515.772 244.867 Z" fill="#000000" fill-rule="nonzero" fill-opacity="1" /><path clip-path="url(#clip340)" d="M545.61 242.923 L550.494 242.923 L550.494 246.904 L546.698 254.312 L543.712 254.312 L545.61 246.904 L545.61 242.923 Z" fill="#000000" fill-rule="nonzero" fill-opacity="1" /><path clip-path="url(#clip340)" d="M578.781 244.914 L578.781 258.664 L574.499 258.664 L574.499 222.877 L578.781 222.877 L578.781 226.812 Q580.124 224.497 582.161 223.386 Q584.221 222.252 587.068 222.252 Q591.79 222.252 594.73 226.002 Q597.693 229.752 597.693 235.863 Q597.693 241.974 594.73 245.724 Q591.79 249.474 587.068 249.474 Q584.221 249.474 582.161 248.363 Q580.124 247.229 578.781 244.914 M593.272 235.863 Q593.272 231.164 591.327 228.502 Q589.406 225.817 586.026 225.817 Q582.647 225.817 580.702 228.502 Q578.781 231.164 578.781 235.863 Q578.781 240.562 580.702 243.247 Q582.647 245.909 586.026 245.909 Q589.406 245.909 591.327 243.247 Q593.272 240.562 593.272 235.863 Z" fill="#000000" fill-rule="nonzero" fill-opacity="1" /><path clip-path="url(#clip340)" d="M620.378 227.275 L650.054 227.275 L650.054 231.164 L620.378 231.164 L620.378 227.275 M620.378 236.719 L650.054 236.719 L650.054 240.655 L620.378 240.655 L620.378 236.719 Z" fill="#000000" fill-rule="nonzero" fill-opacity="1" /><path clip-path="url(#clip340)" d="M685.216 217.321 Q681.605 217.321 679.776 220.886 Q677.97 224.428 677.97 231.557 Q677.97 238.664 679.776 242.229 Q681.605 245.77 685.216 245.77 Q688.85 245.77 690.655 242.229 Q692.484 238.664 692.484 231.557 Q692.484 224.428 690.655 220.886 Q688.85 217.321 685.216 217.321 M685.216 213.618 Q691.026 213.618 694.081 218.224 Q697.16 222.807 697.16 231.557 Q697.16 240.284 694.081 244.891 Q691.026 249.474 685.216 249.474 Q679.405 249.474 676.327 244.891 Q673.271 240.284 673.271 231.557 Q673.271 222.807 676.327 218.224 Q679.405 213.618 685.216 213.618 Z" fill="#000000" fill-rule="nonzero" fill-opacity="1" /><path clip-path="url(#clip340)" d="M705.378 242.923 L710.262 242.923 L710.262 248.803 L705.378 248.803 L705.378 242.923 Z" fill="#000000" fill-rule="nonzero" fill-opacity="1" /><path clip-path="url(#clip340)" d="M730.447 217.321 Q726.836 217.321 725.007 220.886 Q723.202 224.428 723.202 231.557 Q723.202 238.664 725.007 242.229 Q726.836 245.77 730.447 245.77 Q734.081 245.77 735.887 242.229 Q737.715 238.664 737.715 231.557 Q737.715 224.428 735.887 220.886 Q734.081 217.321 730.447 217.321 M730.447 213.618 Q736.257 213.618 739.313 218.224 Q742.391 222.807 742.391 231.557 Q742.391 240.284 739.313 244.891 Q736.257 249.474 730.447 249.474 Q724.637 249.474 721.558 244.891 Q718.502 240.284 718.502 231.557 Q718.502 222.807 721.558 218.224 Q724.637 213.618 730.447 213.618 Z" fill="#000000" fill-rule="nonzero" fill-opacity="1" /><path clip-path="url(#clip340)" d="M760.609 217.321 Q756.998 217.321 755.169 220.886 Q753.363 224.428 753.363 231.557 Q753.363 238.664 755.169 242.229 Q756.998 245.77 760.609 245.77 Q764.243 245.77 766.048 242.229 Q767.877 238.664 767.877 231.557 Q767.877 224.428 766.048 220.886 Q764.243 217.321 760.609 217.321 M760.609 213.618 Q766.419 213.618 769.474 218.224 Q772.553 222.807 772.553 231.557 Q772.553 240.284 769.474 244.891 Q766.419 249.474 760.609 249.474 Q754.799 249.474 751.72 244.891 Q748.664 240.284 748.664 231.557 Q748.664 222.807 751.72 218.224 Q754.799 213.618 760.609 213.618 Z" fill="#000000" fill-rule="nonzero" fill-opacity="1" /><path clip-path="url(#clip340)" d="M781.581 244.867 L789.22 244.867 L789.22 218.502 L780.91 220.169 L780.91 215.909 L789.173 214.243 L793.849 214.243 L793.849 244.867 L801.488 244.867 L801.488 248.803 L781.581 248.803 L781.581 244.867 Z" fill="#000000" fill-rule="nonzero" fill-opacity="1" /></svg>
