<?xml version="1.0" encoding="utf-8"?>
<svg xmlns="http://www.w3.org/2000/svg" xmlns:xlink="http://www.w3.org/1999/xlink" width="300" height="220" viewBox="0 0 1200 880">
<defs>
  <clipPath id="clip290">
    <rect x="0" y="0" width="1200" height="880"/>
  </clipPath>
</defs>
<path clip-path="url(#clip290)" d="M0 880 L1200 880 L1200 1.13687e-13 L0 1.13687e-13  Z" fill="#ffffff" fill-rule="evenodd" fill-opacity="1"/>
<defs>
  <clipPath id="clip291">
    <rect x="343" y="220" width="700" height="440"/>
  </clipPath>
</defs>
<path clip-path="url(#clip290)" d="M410.017 659.956 L1042.52 659.956 L1042.52 220.748 L410.017 220.748  Z" fill="#ffffff" fill-rule="evenodd" fill-opacity="1"/>
<defs>
  <clipPath id="clip292">
    <rect x="410" y="220" width="634" height="440"/>
  </clipPath>
</defs>
<polyline clip-path="url(#clip292)" style="stroke:#000000; stroke-linecap:round; stroke-linejoin:round; stroke-width:2; stroke-opacity:0.1; fill:none" points="481.719,659.956 481.719,220.748 "/>
<polyline clip-path="url(#clip292)" style="stroke:#000000; stroke-linecap:round; stroke-linejoin:round; stroke-width:2; stroke-opacity:0.1; fill:none" points="726.268,659.956 726.268,220.748 "/>
<polyline clip-path="url(#clip292)" style="stroke:#000000; stroke-linecap:round; stroke-linejoin:round; stroke-width:2; stroke-opacity:0.1; fill:none" points="970.818,659.956 970.818,220.748 "/>
<polyline clip-path="url(#clip292)" style="stroke:#000000; stroke-linecap:round; stroke-linejoin:round; stroke-width:2; stroke-opacity:0.1; fill:none" points="410.017,657.414 1042.52,657.414 "/>
<polyline clip-path="url(#clip292)" style="stroke:#000000; stroke-linecap:round; stroke-linejoin:round; stroke-width:2; stroke-opacity:0.1; fill:none" points="410.017,580.108 1042.52,580.108 "/>
<polyline clip-path="url(#clip292)" style="stroke:#000000; stroke-linecap:round; stroke-linejoin:round; stroke-width:2; stroke-opacity:0.1; fill:none" points="410.017,502.802 1042.52,502.802 "/>
<polyline clip-path="url(#clip292)" style="stroke:#000000; stroke-linecap:round; stroke-linejoin:round; stroke-width:2; stroke-opacity:0.1; fill:none" points="410.017,425.497 1042.52,425.497 "/>
<polyline clip-path="url(#clip292)" style="stroke:#000000; stroke-linecap:round; stroke-linejoin:round; stroke-width:2; stroke-opacity:0.1; fill:none" points="410.017,348.191 1042.52,348.191 "/>
<polyline clip-path="url(#clip292)" style="stroke:#000000; stroke-linecap:round; stroke-linejoin:round; stroke-width:2; stroke-opacity:0.1; fill:none" points="410.017,270.885 1042.52,270.885 "/>
<polyline clip-path="url(#clip290)" style="stroke:#000000; stroke-linecap:round; stroke-linejoin:round; stroke-width:4; stroke-opacity:1; fill:none" points="410.017,659.956 1042.52,659.956 "/>
<polyline clip-path="url(#clip290)" style="stroke:#000000; stroke-linecap:round; stroke-linejoin:round; stroke-width:4; stroke-opacity:1; fill:none" points="481.719,659.956 481.719,641.058 "/>
<polyline clip-path="url(#clip290)" style="stroke:#000000; stroke-linecap:round; stroke-linejoin:round; stroke-width:4; stroke-opacity:1; fill:none" points="726.268,659.956 726.268,641.058 "/>
<polyline clip-path="url(#clip290)" style="stroke:#000000; stroke-linecap:round; stroke-linejoin:round; stroke-width:4; stroke-opacity:1; fill:none" points="970.818,659.956 970.818,641.058 "/>
<path clip-path="url(#clip290)" d="M466.939 682.802 L460.596 700.001 L473.304 700.001 L466.939 682.802 M464.3 678.196 L469.601 678.196 L482.772 712.756 L477.911 712.756 L474.763 703.89 L459.184 703.89 L456.036 712.756 L451.105 712.756 L464.3 678.196 Z" fill="#000000" fill-rule="nonzero" fill-opacity="1" /><path clip-path="url(#clip290)" d="M492.494 696.251 L492.494 708.913 L499.994 708.913 Q503.767 708.913 505.573 707.362 Q507.401 705.788 507.401 702.571 Q507.401 699.33 505.573 697.802 Q503.767 696.251 499.994 696.251 L492.494 696.251 M492.494 682.038 L492.494 692.455 L499.415 692.455 Q502.841 692.455 504.508 691.182 Q506.198 689.885 506.198 687.247 Q506.198 684.631 504.508 683.335 Q502.841 682.038 499.415 682.038 L492.494 682.038 M487.818 678.196 L499.762 678.196 Q505.11 678.196 508.003 680.418 Q510.897 682.64 510.897 686.737 Q510.897 689.909 509.415 691.784 Q507.934 693.659 505.063 694.121 Q508.512 694.862 510.411 697.223 Q512.332 699.561 512.332 703.08 Q512.332 707.709 509.184 710.233 Q506.036 712.756 500.225 712.756 L487.818 712.756 L487.818 678.196 Z" fill="#000000" fill-rule="nonzero" fill-opacity="1" /><path clip-path="url(#clip290)" d="M698.514 678.196 L703.19 678.196 L703.19 692.362 L720.18 692.362 L720.18 678.196 L724.856 678.196 L724.856 712.756 L720.18 712.756 L720.18 696.297 L703.19 696.297 L703.19 712.756 L698.514 712.756 L698.514 678.196 Z" fill="#000000" fill-rule="nonzero" fill-opacity="1" /><path clip-path="url(#clip290)" d="M734.162 678.196 L754.023 678.196 L754.023 682.131 L738.838 682.131 L738.838 692.316 L752.541 692.316 L752.541 696.251 L738.838 696.251 L738.838 712.756 L734.162 712.756 L734.162 678.196 Z" fill="#000000" fill-rule="nonzero" fill-opacity="1" /><path clip-path="url(#clip290)" d="M947.681 678.196 L952.357 678.196 L952.357 708.82 L969.186 708.82 L969.186 712.756 L947.681 712.756 L947.681 678.196 Z" fill="#000000" fill-rule="nonzero" fill-opacity="1" /><path clip-path="url(#clip290)" d="M974.093 678.196 L993.954 678.196 L993.954 682.131 L978.769 682.131 L978.769 692.316 L992.473 692.316 L992.473 696.251 L978.769 696.251 L978.769 712.756 L974.093 712.756 L974.093 678.196 Z" fill="#000000" fill-rule="nonzero" fill-opacity="1" /><polyline clip-path="url(#clip290)" style="stroke:#000000; stroke-linecap:round; stroke-linejoin:round; stroke-width:4; stroke-opacity:1; fill:none" points="410.017,659.956 410.017,220.748 "/>
<polyline clip-path="url(#clip290)" style="stroke:#000000; stroke-linecap:round; stroke-linejoin:round; stroke-width:4; stroke-opacity:1; fill:none" points="410.017,657.414 428.914,657.414 "/>
<polyline clip-path="url(#clip290)" style="stroke:#000000; stroke-linecap:round; stroke-linejoin:round; stroke-width:4; stroke-opacity:1; fill:none" points="410.017,580.108 428.914,580.108 "/>
<polyline clip-path="url(#clip290)" style="stroke:#000000; stroke-linecap:round; stroke-linejoin:round; stroke-width:4; stroke-opacity:1; fill:none" points="410.017,502.802 428.914,502.802 "/>
<polyline clip-path="url(#clip290)" style="stroke:#000000; stroke-linecap:round; stroke-linejoin:round; stroke-width:4; stroke-opacity:1; fill:none" points="410.017,425.497 428.914,425.497 "/>
<polyline clip-path="url(#clip290)" style="stroke:#000000; stroke-linecap:round; stroke-linejoin:round; stroke-width:4; stroke-opacity:1; fill:none" points="410.017,348.191 428.914,348.191 "/>
<polyline clip-path="url(#clip290)" style="stroke:#000000; stroke-linecap:round; stroke-linejoin:round; stroke-width:4; stroke-opacity:1; fill:none" points="410.017,270.885 428.914,270.885 "/>
<path clip-path="url(#clip290)" d="M225.744 657.865 L255.42 657.865 L255.42 661.8 L225.744 661.8 L225.744 657.865 Z" fill="#000000" fill-rule="nonzero" fill-opacity="1" /><path clip-path="url(#clip290)" d="M275.513 643.212 Q271.902 643.212 270.073 646.777 Q268.267 650.319 268.267 657.448 Q268.267 664.555 270.073 668.12 Q271.902 671.661 275.513 671.661 Q279.147 671.661 280.952 668.12 Q282.781 664.555 282.781 657.448 Q282.781 650.319 280.952 646.777 Q279.147 643.212 275.513 643.212 M275.513 639.509 Q281.323 639.509 284.378 644.115 Q287.457 648.698 287.457 657.448 Q287.457 666.175 284.378 670.782 Q281.323 675.365 275.513 675.365 Q269.702 675.365 266.624 670.782 Q263.568 666.175 263.568 657.448 Q263.568 648.698 266.624 644.115 Q269.702 639.509 275.513 639.509 Z" fill="#000000" fill-rule="nonzero" fill-opacity="1" /><path clip-path="url(#clip290)" d="M295.675 668.814 L300.559 668.814 L300.559 674.694 L295.675 674.694 L295.675 668.814 Z" fill="#000000" fill-rule="nonzero" fill-opacity="1" /><path clip-path="url(#clip290)" d="M320.744 643.212 Q317.133 643.212 315.304 646.777 Q313.499 650.319 313.499 657.448 Q313.499 664.555 315.304 668.12 Q317.133 671.661 320.744 671.661 Q324.378 671.661 326.184 668.12 Q328.012 664.555 328.012 657.448 Q328.012 650.319 326.184 646.777 Q324.378 643.212 320.744 643.212 M320.744 639.509 Q326.554 639.509 329.61 644.115 Q332.688 648.698 332.688 657.448 Q332.688 666.175 329.61 670.782 Q326.554 675.365 320.744 675.365 Q314.934 675.365 311.855 670.782 Q308.799 666.175 308.799 657.448 Q308.799 648.698 311.855 644.115 Q314.934 639.509 320.744 639.509 Z" fill="#000000" fill-rule="nonzero" fill-opacity="1" /><path clip-path="url(#clip290)" d="M350.906 643.212 Q347.295 643.212 345.466 646.777 Q343.66 650.319 343.66 657.448 Q343.66 664.555 345.466 668.12 Q347.295 671.661 350.906 671.661 Q354.54 671.661 356.346 668.12 Q358.174 664.555 358.174 657.448 Q358.174 650.319 356.346 646.777 Q354.54 643.212 350.906 643.212 M350.906 639.509 Q356.716 639.509 359.771 644.115 Q362.85 648.698 362.85 657.448 Q362.85 666.175 359.771 670.782 Q356.716 675.365 350.906 675.365 Q345.096 675.365 342.017 670.782 Q338.961 666.175 338.961 657.448 Q338.961 648.698 342.017 644.115 Q345.096 639.509 350.906 639.509 Z" fill="#000000" fill-rule="nonzero" fill-opacity="1" /><path clip-path="url(#clip290)" d="M371.114 640.134 L389.47 640.134 L389.47 644.069 L375.396 644.069 L375.396 652.541 Q376.415 652.194 377.433 652.032 Q378.452 651.847 379.47 651.847 Q385.257 651.847 388.637 655.018 Q392.017 658.189 392.017 663.606 Q392.017 669.184 388.544 672.286 Q385.072 675.365 378.753 675.365 Q376.577 675.365 374.308 674.995 Q372.063 674.624 369.656 673.883 L369.656 669.184 Q371.739 670.319 373.961 670.874 Q376.183 671.43 378.66 671.43 Q382.665 671.43 385.003 669.323 Q387.341 667.217 387.341 663.606 Q387.341 659.995 385.003 657.888 Q382.665 655.782 378.66 655.782 Q376.785 655.782 374.91 656.198 Q373.058 656.615 371.114 657.495 L371.114 640.134 Z" fill="#000000" fill-rule="nonzero" fill-opacity="1" /><path clip-path="url(#clip290)" d="M274.517 565.907 Q270.906 565.907 269.077 569.471 Q267.272 573.013 267.272 580.143 Q267.272 587.249 269.077 590.814 Q270.906 594.356 274.517 594.356 Q278.152 594.356 279.957 590.814 Q281.786 587.249 281.786 580.143 Q281.786 573.013 279.957 569.471 Q278.152 565.907 274.517 565.907 M274.517 562.203 Q280.327 562.203 283.383 566.809 Q286.462 571.393 286.462 580.143 Q286.462 588.87 283.383 593.476 Q280.327 598.059 274.517 598.059 Q268.707 598.059 265.628 593.476 Q262.573 588.87 262.573 580.143 Q262.573 571.393 265.628 566.809 Q268.707 562.203 274.517 562.203 Z" fill="#000000" fill-rule="nonzero" fill-opacity="1" /><path clip-path="url(#clip290)" d="M294.679 591.508 L299.563 591.508 L299.563 597.388 L294.679 597.388 L294.679 591.508 Z" fill="#000000" fill-rule="nonzero" fill-opacity="1" /><path clip-path="url(#clip290)" d="M319.749 565.907 Q316.137 565.907 314.309 569.471 Q312.503 573.013 312.503 580.143 Q312.503 587.249 314.309 590.814 Q316.137 594.356 319.749 594.356 Q323.383 594.356 325.188 590.814 Q327.017 587.249 327.017 580.143 Q327.017 573.013 325.188 569.471 Q323.383 565.907 319.749 565.907 M319.749 562.203 Q325.559 562.203 328.614 566.809 Q331.693 571.393 331.693 580.143 Q331.693 588.87 328.614 593.476 Q325.559 598.059 319.749 598.059 Q313.938 598.059 310.86 593.476 Q307.804 588.87 307.804 580.143 Q307.804 571.393 310.86 566.809 Q313.938 562.203 319.749 562.203 Z" fill="#000000" fill-rule="nonzero" fill-opacity="1" /><path clip-path="url(#clip290)" d="M349.91 565.907 Q346.299 565.907 344.471 569.471 Q342.665 573.013 342.665 580.143 Q342.665 587.249 344.471 590.814 Q346.299 594.356 349.91 594.356 Q353.545 594.356 355.35 590.814 Q357.179 587.249 357.179 580.143 Q357.179 573.013 355.35 569.471 Q353.545 565.907 349.91 565.907 M349.91 562.203 Q355.721 562.203 358.776 566.809 Q361.855 571.393 361.855 580.143 Q361.855 588.87 358.776 593.476 Q355.721 598.059 349.91 598.059 Q344.1 598.059 341.022 593.476 Q337.966 588.87 337.966 580.143 Q337.966 571.393 341.022 566.809 Q344.1 562.203 349.91 562.203 Z" fill="#000000" fill-rule="nonzero" fill-opacity="1" /><path clip-path="url(#clip290)" d="M380.072 565.907 Q376.461 565.907 374.632 569.471 Q372.827 573.013 372.827 580.143 Q372.827 587.249 374.632 590.814 Q376.461 594.356 380.072 594.356 Q383.706 594.356 385.512 590.814 Q387.341 587.249 387.341 580.143 Q387.341 573.013 385.512 569.471 Q383.706 565.907 380.072 565.907 M380.072 562.203 Q385.882 562.203 388.938 566.809 Q392.017 571.393 392.017 580.143 Q392.017 588.87 388.938 593.476 Q385.882 598.059 380.072 598.059 Q374.262 598.059 371.183 593.476 Q368.128 588.87 368.128 580.143 Q368.128 571.393 371.183 566.809 Q374.262 562.203 380.072 562.203 Z" fill="#000000" fill-rule="nonzero" fill-opacity="1" /><path clip-path="url(#clip290)" d="M275.513 488.601 Q271.902 488.601 270.073 492.166 Q268.267 495.707 268.267 502.837 Q268.267 509.944 270.073 513.508 Q271.902 517.05 275.513 517.05 Q279.147 517.05 280.952 513.508 Q282.781 509.944 282.781 502.837 Q282.781 495.707 280.952 492.166 Q279.147 488.601 275.513 488.601 M275.513 484.897 Q281.323 484.897 284.378 489.504 Q287.457 494.087 287.457 502.837 Q287.457 511.564 284.378 516.17 Q281.323 520.754 275.513 520.754 Q269.702 520.754 266.624 516.17 Q263.568 511.564 263.568 502.837 Q263.568 494.087 266.624 489.504 Q269.702 484.897 275.513 484.897 Z" fill="#000000" fill-rule="nonzero" fill-opacity="1" /><path clip-path="url(#clip290)" d="M295.675 514.203 L300.559 514.203 L300.559 520.082 L295.675 520.082 L295.675 514.203 Z" fill="#000000" fill-rule="nonzero" fill-opacity="1" /><path clip-path="url(#clip290)" d="M320.744 488.601 Q317.133 488.601 315.304 492.166 Q313.499 495.707 313.499 502.837 Q313.499 509.944 315.304 513.508 Q317.133 517.05 320.744 517.05 Q324.378 517.05 326.184 513.508 Q328.012 509.944 328.012 502.837 Q328.012 495.707 326.184 492.166 Q324.378 488.601 320.744 488.601 M320.744 484.897 Q326.554 484.897 329.61 489.504 Q332.688 494.087 332.688 502.837 Q332.688 511.564 329.61 516.17 Q326.554 520.754 320.744 520.754 Q314.934 520.754 311.855 516.17 Q308.799 511.564 308.799 502.837 Q308.799 494.087 311.855 489.504 Q314.934 484.897 320.744 484.897 Z" fill="#000000" fill-rule="nonzero" fill-opacity="1" /><path clip-path="url(#clip290)" d="M350.906 488.601 Q347.295 488.601 345.466 492.166 Q343.66 495.707 343.66 502.837 Q343.66 509.944 345.466 513.508 Q347.295 517.05 350.906 517.05 Q354.54 517.05 356.346 513.508 Q358.174 509.944 358.174 502.837 Q358.174 495.707 356.346 492.166 Q354.54 488.601 350.906 488.601 M350.906 484.897 Q356.716 484.897 359.771 489.504 Q362.85 494.087 362.85 502.837 Q362.85 511.564 359.771 516.17 Q356.716 520.754 350.906 520.754 Q345.096 520.754 342.017 516.17 Q338.961 511.564 338.961 502.837 Q338.961 494.087 342.017 489.504 Q345.096 484.897 350.906 484.897 Z" fill="#000000" fill-rule="nonzero" fill-opacity="1" /><path clip-path="url(#clip290)" d="M371.114 485.522 L389.47 485.522 L389.47 489.458 L375.396 489.458 L375.396 497.93 Q376.415 497.582 377.433 497.42 Q378.452 497.235 379.47 497.235 Q385.257 497.235 388.637 500.407 Q392.017 503.578 392.017 508.994 Q392.017 514.573 388.544 517.675 Q385.072 520.754 378.753 520.754 Q376.577 520.754 374.308 520.383 Q372.063 520.013 369.656 519.272 L369.656 514.573 Q371.739 515.707 373.961 516.263 Q376.183 516.818 378.66 516.818 Q382.665 516.818 385.003 514.712 Q387.341 512.606 387.341 508.994 Q387.341 505.383 385.003 503.277 Q382.665 501.17 378.66 501.17 Q376.785 501.17 374.91 501.587 Q373.058 502.004 371.114 502.883 L371.114 485.522 Z" fill="#000000" fill-rule="nonzero" fill-opacity="1" /><path clip-path="url(#clip290)" d="M274.517 411.295 Q270.906 411.295 269.077 414.86 Q267.272 418.402 267.272 425.531 Q267.272 432.638 269.077 436.203 Q270.906 439.744 274.517 439.744 Q278.152 439.744 279.957 436.203 Q281.786 432.638 281.786 425.531 Q281.786 418.402 279.957 414.86 Q278.152 411.295 274.517 411.295 M274.517 407.592 Q280.327 407.592 283.383 412.198 Q286.462 416.781 286.462 425.531 Q286.462 434.258 283.383 438.865 Q280.327 443.448 274.517 443.448 Q268.707 443.448 265.628 438.865 Q262.573 434.258 262.573 425.531 Q262.573 416.781 265.628 412.198 Q268.707 407.592 274.517 407.592 Z" fill="#000000" fill-rule="nonzero" fill-opacity="1" /><path clip-path="url(#clip290)" d="M294.679 436.897 L299.563 436.897 L299.563 442.777 L294.679 442.777 L294.679 436.897 Z" fill="#000000" fill-rule="nonzero" fill-opacity="1" /><path clip-path="url(#clip290)" d="M319.749 411.295 Q316.137 411.295 314.309 414.86 Q312.503 418.402 312.503 425.531 Q312.503 432.638 314.309 436.203 Q316.137 439.744 319.749 439.744 Q323.383 439.744 325.188 436.203 Q327.017 432.638 327.017 425.531 Q327.017 418.402 325.188 414.86 Q323.383 411.295 319.749 411.295 M319.749 407.592 Q325.559 407.592 328.614 412.198 Q331.693 416.781 331.693 425.531 Q331.693 434.258 328.614 438.865 Q325.559 443.448 319.749 443.448 Q313.938 443.448 310.86 438.865 Q307.804 434.258 307.804 425.531 Q307.804 416.781 310.86 412.198 Q313.938 407.592 319.749 407.592 Z" fill="#000000" fill-rule="nonzero" fill-opacity="1" /><path clip-path="url(#clip290)" d="M340.721 438.842 L348.359 438.842 L348.359 412.476 L340.049 414.143 L340.049 409.883 L348.313 408.217 L352.989 408.217 L352.989 438.842 L360.628 438.842 L360.628 442.777 L340.721 442.777 L340.721 438.842 Z" fill="#000000" fill-rule="nonzero" fill-opacity="1" /><path clip-path="url(#clip290)" d="M380.072 411.295 Q376.461 411.295 374.632 414.86 Q372.827 418.402 372.827 425.531 Q372.827 432.638 374.632 436.203 Q376.461 439.744 380.072 439.744 Q383.706 439.744 385.512 436.203 Q387.341 432.638 387.341 425.531 Q387.341 418.402 385.512 414.86 Q383.706 411.295 380.072 411.295 M380.072 407.592 Q385.882 407.592 388.938 412.198 Q392.017 416.781 392.017 425.531 Q392.017 434.258 388.938 438.865 Q385.882 443.448 380.072 443.448 Q374.262 443.448 371.183 438.865 Q368.128 434.258 368.128 425.531 Q368.128 416.781 371.183 412.198 Q374.262 407.592 380.072 407.592 Z" fill="#000000" fill-rule="nonzero" fill-opacity="1" /><path clip-path="url(#clip290)" d="M275.513 333.99 Q271.902 333.99 270.073 337.555 Q268.267 341.096 268.267 348.226 Q268.267 355.332 270.073 358.897 Q271.902 362.439 275.513 362.439 Q279.147 362.439 280.952 358.897 Q282.781 355.332 282.781 348.226 Q282.781 341.096 280.952 337.555 Q279.147 333.99 275.513 333.99 M275.513 330.286 Q281.323 330.286 284.378 334.892 Q287.457 339.476 287.457 348.226 Q287.457 356.953 284.378 361.559 Q281.323 366.142 275.513 366.142 Q269.702 366.142 266.624 361.559 Q263.568 356.953 263.568 348.226 Q263.568 339.476 266.624 334.892 Q269.702 330.286 275.513 330.286 Z" fill="#000000" fill-rule="nonzero" fill-opacity="1" /><path clip-path="url(#clip290)" d="M295.675 359.591 L300.559 359.591 L300.559 365.471 L295.675 365.471 L295.675 359.591 Z" fill="#000000" fill-rule="nonzero" fill-opacity="1" /><path clip-path="url(#clip290)" d="M320.744 333.99 Q317.133 333.99 315.304 337.555 Q313.499 341.096 313.499 348.226 Q313.499 355.332 315.304 358.897 Q317.133 362.439 320.744 362.439 Q324.378 362.439 326.184 358.897 Q328.012 355.332 328.012 348.226 Q328.012 341.096 326.184 337.555 Q324.378 333.99 320.744 333.99 M320.744 330.286 Q326.554 330.286 329.61 334.892 Q332.688 339.476 332.688 348.226 Q332.688 356.953 329.61 361.559 Q326.554 366.142 320.744 366.142 Q314.934 366.142 311.855 361.559 Q308.799 356.953 308.799 348.226 Q308.799 339.476 311.855 334.892 Q314.934 330.286 320.744 330.286 Z" fill="#000000" fill-rule="nonzero" fill-opacity="1" /><path clip-path="url(#clip290)" d="M341.716 361.536 L349.355 361.536 L349.355 335.17 L341.045 336.837 L341.045 332.578 L349.309 330.911 L353.984 330.911 L353.984 361.536 L361.623 361.536 L361.623 365.471 L341.716 365.471 L341.716 361.536 Z" fill="#000000" fill-rule="nonzero" fill-opacity="1" /><path clip-path="url(#clip290)" d="M371.114 330.911 L389.47 330.911 L389.47 334.846 L375.396 334.846 L375.396 343.318 Q376.415 342.971 377.433 342.809 Q378.452 342.624 379.47 342.624 Q385.257 342.624 388.637 345.795 Q392.017 348.966 392.017 354.383 Q392.017 359.962 388.544 363.064 Q385.072 366.142 378.753 366.142 Q376.577 366.142 374.308 365.772 Q372.063 365.402 369.656 364.661 L369.656 359.962 Q371.739 361.096 373.961 361.652 Q376.183 362.207 378.66 362.207 Q382.665 362.207 385.003 360.101 Q387.341 357.994 387.341 354.383 Q387.341 350.772 385.003 348.666 Q382.665 346.559 378.66 346.559 Q376.785 346.559 374.91 346.976 Q373.058 347.392 371.114 348.272 L371.114 330.911 Z" fill="#000000" fill-rule="nonzero" fill-opacity="1" /><path clip-path="url(#clip290)" d="M274.517 256.684 Q270.906 256.684 269.077 260.249 Q267.272 263.79 267.272 270.92 Q267.272 278.027 269.077 281.591 Q270.906 285.133 274.517 285.133 Q278.152 285.133 279.957 281.591 Q281.786 278.027 281.786 270.92 Q281.786 263.79 279.957 260.249 Q278.152 256.684 274.517 256.684 M274.517 252.98 Q280.327 252.98 283.383 257.587 Q286.462 262.17 286.462 270.92 Q286.462 279.647 283.383 284.253 Q280.327 288.837 274.517 288.837 Q268.707 288.837 265.628 284.253 Q262.573 279.647 262.573 270.92 Q262.573 262.17 265.628 257.587 Q268.707 252.98 274.517 252.98 Z" fill="#000000" fill-rule="nonzero" fill-opacity="1" /><path clip-path="url(#clip290)" d="M294.679 282.286 L299.563 282.286 L299.563 288.165 L294.679 288.165 L294.679 282.286 Z" fill="#000000" fill-rule="nonzero" fill-opacity="1" /><path clip-path="url(#clip290)" d="M319.749 256.684 Q316.137 256.684 314.309 260.249 Q312.503 263.79 312.503 270.92 Q312.503 278.027 314.309 281.591 Q316.137 285.133 319.749 285.133 Q323.383 285.133 325.188 281.591 Q327.017 278.027 327.017 270.92 Q327.017 263.79 325.188 260.249 Q323.383 256.684 319.749 256.684 M319.749 252.98 Q325.559 252.98 328.614 257.587 Q331.693 262.17 331.693 270.92 Q331.693 279.647 328.614 284.253 Q325.559 288.837 319.749 288.837 Q313.938 288.837 310.86 284.253 Q307.804 279.647 307.804 270.92 Q307.804 262.17 310.86 257.587 Q313.938 252.98 319.749 252.98 Z" fill="#000000" fill-rule="nonzero" fill-opacity="1" /><path clip-path="url(#clip290)" d="M343.938 284.23 L360.258 284.23 L360.258 288.165 L338.313 288.165 L338.313 284.23 Q340.975 281.476 345.559 276.846 Q350.165 272.193 351.346 270.851 Q353.591 268.328 354.471 266.591 Q355.373 264.832 355.373 263.142 Q355.373 260.388 353.429 258.652 Q351.508 256.916 348.406 256.916 Q346.207 256.916 343.753 257.679 Q341.322 258.443 338.545 259.994 L338.545 255.272 Q341.369 254.138 343.822 253.559 Q346.276 252.98 348.313 252.98 Q353.684 252.98 356.878 255.666 Q360.072 258.351 360.072 262.841 Q360.072 264.971 359.262 266.892 Q358.475 268.79 356.369 271.383 Q355.79 272.054 352.688 275.272 Q349.586 278.466 343.938 284.23 Z" fill="#000000" fill-rule="nonzero" fill-opacity="1" /><path clip-path="url(#clip290)" d="M380.072 256.684 Q376.461 256.684 374.632 260.249 Q372.827 263.79 372.827 270.92 Q372.827 278.027 374.632 281.591 Q376.461 285.133 380.072 285.133 Q383.706 285.133 385.512 281.591 Q387.341 278.027 387.341 270.92 Q387.341 263.79 385.512 260.249 Q383.706 256.684 380.072 256.684 M380.072 252.98 Q385.882 252.98 388.938 257.587 Q392.017 262.17 392.017 270.92 Q392.017 279.647 388.938 284.253 Q385.882 288.837 380.072 288.837 Q374.262 288.837 371.183 284.253 Q368.128 279.647 368.128 270.92 Q368.128 262.17 371.183 257.587 Q374.262 252.98 380.072 252.98 Z" fill="#000000" fill-rule="nonzero" fill-opacity="1" /><path clip-path="url(#clip290)" d="M171.341 615.69 L155.56 615.69 L155.56 610.898 L196.08 610.898 L196.08 615.69 L191.705 615.69 Q194.31 617.2 195.586 619.518 Q196.836 621.809 196.836 625.039 Q196.836 630.325 192.617 633.658 Q188.398 636.966 181.523 636.966 Q174.648 636.966 170.429 633.658 Q166.211 630.325 166.211 625.039 Q166.211 621.809 167.487 619.518 Q168.737 617.2 171.341 615.69 M181.523 632.018 Q186.81 632.018 189.83 629.856 Q192.825 627.669 192.825 623.867 Q192.825 620.065 189.83 617.877 Q186.81 615.69 181.523 615.69 Q176.237 615.69 173.242 617.877 Q170.221 620.065 170.221 623.867 Q170.221 627.669 173.242 629.856 Q176.237 632.018 181.523 632.018 Z" fill="#000000" fill-rule="nonzero" fill-opacity="1" /><path clip-path="url(#clip290)" d="M180.299 559.127 L182.643 559.127 L182.643 581.159 Q187.591 580.846 190.195 578.19 Q192.773 575.508 192.773 570.742 Q192.773 567.982 192.096 565.403 Q191.419 562.799 190.065 560.247 L194.596 560.247 Q195.69 562.825 196.263 565.534 Q196.836 568.242 196.836 571.028 Q196.836 578.008 192.773 582.096 Q188.711 586.159 181.784 586.159 Q174.622 586.159 170.429 582.304 Q166.211 578.424 166.211 571.862 Q166.211 565.976 170.013 562.565 Q173.789 559.127 180.299 559.127 M178.893 563.919 Q174.961 563.971 172.617 566.133 Q170.273 568.268 170.273 571.81 Q170.273 575.82 172.539 578.242 Q174.804 580.638 178.919 581.002 L178.893 563.919 Z" fill="#000000" fill-rule="nonzero" fill-opacity="1" /><path clip-path="url(#clip290)" d="M158.633 546.523 L166.914 546.523 L166.914 536.654 L170.638 536.654 L170.638 546.523 L186.471 546.523 Q190.039 546.523 191.054 545.56 Q192.07 544.57 192.07 541.575 L192.07 536.654 L196.08 536.654 L196.08 541.575 Q196.08 547.122 194.023 549.232 Q191.94 551.341 186.471 551.341 L170.638 551.341 L170.638 554.857 L166.914 554.857 L166.914 551.341 L158.633 551.341 L158.633 546.523 Z" fill="#000000" fill-rule="nonzero" fill-opacity="1" /><path clip-path="url(#clip290)" d="M181.419 517.096 Q181.419 522.904 182.747 525.143 Q184.075 527.383 187.278 527.383 Q189.83 527.383 191.341 525.716 Q192.825 524.023 192.825 521.133 Q192.825 517.148 190.013 514.753 Q187.174 512.331 182.487 512.331 L181.419 512.331 L181.419 517.096 M179.44 507.539 L196.08 507.539 L196.08 512.331 L191.653 512.331 Q194.31 513.971 195.586 516.419 Q196.836 518.867 196.836 522.409 Q196.836 526.888 194.336 529.544 Q191.81 532.174 187.591 532.174 Q182.669 532.174 180.169 528.893 Q177.669 525.586 177.669 519.049 L177.669 512.331 L177.2 512.331 Q173.893 512.331 172.096 514.518 Q170.273 516.68 170.273 520.612 Q170.273 523.112 170.872 525.482 Q171.471 527.852 172.669 530.039 L168.242 530.039 Q167.226 527.409 166.732 524.935 Q166.211 522.461 166.211 520.117 Q166.211 513.789 169.492 510.664 Q172.773 507.539 179.44 507.539 Z" fill="#000000" fill-rule="nonzero" fill-opacity="1" /><path clip-path="url(#clip290)" d="M157.2 472.201 L157.2 467.774 L201.028 481.315 L201.028 485.742 L157.2 472.201 Z" fill="#000000" fill-rule="nonzero" fill-opacity="1" /><path clip-path="url(#clip290)" d="M171.341 426.602 L155.56 426.602 L155.56 421.81 L196.08 421.81 L196.08 426.602 L191.705 426.602 Q194.31 428.112 195.586 430.43 Q196.836 432.722 196.836 435.951 Q196.836 441.237 192.617 444.571 Q188.398 447.878 181.523 447.878 Q174.648 447.878 170.429 444.571 Q166.211 441.237 166.211 435.951 Q166.211 432.722 167.487 430.43 Q168.737 428.112 171.341 426.602 M181.523 442.93 Q186.81 442.93 189.83 440.769 Q192.825 438.581 192.825 434.779 Q192.825 430.977 189.83 428.79 Q186.81 426.602 181.523 426.602 Q176.237 426.602 173.242 428.79 Q170.221 430.977 170.221 434.779 Q170.221 438.581 173.242 440.769 Q176.237 442.93 181.523 442.93 Z" fill="#000000" fill-rule="nonzero" fill-opacity="1" /><path clip-path="url(#clip290)" d="M167.773 376.394 L172.304 376.394 Q171.263 378.425 170.742 380.613 Q170.221 382.8 170.221 385.144 Q170.221 388.712 171.315 390.509 Q172.409 392.279 174.596 392.279 Q176.263 392.279 177.226 391.003 Q178.164 389.727 179.023 385.873 L179.388 384.233 Q180.482 379.128 182.487 376.993 Q184.466 374.832 188.034 374.832 Q192.096 374.832 194.466 378.061 Q196.836 381.264 196.836 386.889 Q196.836 389.232 196.367 391.785 Q195.924 394.311 195.013 397.123 L190.065 397.123 Q191.445 394.467 192.148 391.889 Q192.825 389.311 192.825 386.785 Q192.825 383.399 191.679 381.576 Q190.507 379.753 188.398 379.753 Q186.445 379.753 185.403 381.081 Q184.362 382.384 183.398 386.837 L183.008 388.503 Q182.07 392.956 180.143 394.936 Q178.19 396.915 174.804 396.915 Q170.69 396.915 168.45 393.998 Q166.211 391.081 166.211 385.717 Q166.211 383.061 166.601 380.717 Q166.992 378.373 167.773 376.394 Z" fill="#000000" fill-rule="nonzero" fill-opacity="1" /><path clip-path="url(#clip290)" d="M191.705 362.566 L207.174 362.566 L207.174 367.384 L166.914 367.384 L166.914 362.566 L171.341 362.566 Q168.737 361.056 167.487 358.764 Q166.211 356.446 166.211 353.243 Q166.211 347.931 170.429 344.623 Q174.648 341.29 181.523 341.29 Q188.398 341.29 192.617 344.623 Q196.836 347.931 196.836 353.243 Q196.836 356.446 195.586 358.764 Q194.31 361.056 191.705 362.566 M181.523 346.264 Q176.237 346.264 173.242 348.451 Q170.221 350.613 170.221 354.415 Q170.221 358.217 173.242 360.405 Q176.237 362.566 181.523 362.566 Q186.81 362.566 189.83 360.405 Q192.825 358.217 192.825 354.415 Q192.825 350.613 189.83 348.451 Q186.81 346.264 181.523 346.264 Z" fill="#000000" fill-rule="nonzero" fill-opacity="1" /><path clip-path="url(#clip290)" d="M180.299 308.4 L182.643 308.4 L182.643 330.431 Q187.591 330.118 190.195 327.462 Q192.773 324.78 192.773 320.014 Q192.773 317.254 192.096 314.676 Q191.419 312.071 190.065 309.519 L194.596 309.519 Q195.69 312.097 196.263 314.806 Q196.836 317.514 196.836 320.301 Q196.836 327.28 192.773 331.368 Q188.711 335.431 181.784 335.431 Q174.622 335.431 170.429 331.577 Q166.211 327.696 166.211 321.134 Q166.211 315.249 170.013 311.837 Q173.789 308.4 180.299 308.4 M178.893 313.191 Q174.961 313.243 172.617 315.405 Q170.273 317.54 170.273 321.082 Q170.273 325.092 172.539 327.514 Q174.804 329.91 178.919 330.274 L178.893 313.191 Z" fill="#000000" fill-rule="nonzero" fill-opacity="1" /><path clip-path="url(#clip290)" d="M180.299 275.587 L182.643 275.587 L182.643 297.618 Q187.591 297.306 190.195 294.65 Q192.773 291.967 192.773 287.202 Q192.773 284.441 192.096 281.863 Q191.419 279.259 190.065 276.707 L194.596 276.707 Q195.69 279.285 196.263 281.993 Q196.836 284.702 196.836 287.488 Q196.836 294.467 192.773 298.556 Q188.711 302.618 181.784 302.618 Q174.622 302.618 170.429 298.764 Q166.211 294.884 166.211 288.322 Q166.211 282.436 170.013 279.025 Q173.789 275.587 180.299 275.587 M178.893 280.379 Q174.961 280.431 172.617 282.592 Q170.273 284.728 170.273 288.269 Q170.273 292.28 172.539 294.702 Q174.804 297.098 178.919 297.462 L178.893 280.379 Z" fill="#000000" fill-rule="nonzero" fill-opacity="1" /><path clip-path="url(#clip290)" d="M171.341 248.53 L155.56 248.53 L155.56 243.738 L196.08 243.738 L196.08 248.53 L191.705 248.53 Q194.31 250.041 195.586 252.358 Q196.836 254.65 196.836 257.879 Q196.836 263.165 192.617 266.499 Q188.398 269.806 181.523 269.806 Q174.648 269.806 170.429 266.499 Q166.211 263.165 166.211 257.879 Q166.211 254.65 167.487 252.358 Q168.737 250.041 171.341 248.53 M181.523 264.858 Q186.81 264.858 189.83 262.697 Q192.825 260.509 192.825 256.707 Q192.825 252.905 189.83 250.718 Q186.81 248.53 181.523 248.53 Q176.237 248.53 173.242 250.718 Q170.221 252.905 170.221 256.707 Q170.221 260.509 173.242 262.697 Q176.237 264.858 181.523 264.858 Z" fill="#000000" fill-rule="nonzero" fill-opacity="1" /><path clip-path="url(#clip290)" d="M305.77 10.0578 L305.77 15.758 Q302.442 14.1666 299.491 13.3853 Q296.54 12.6041 293.791 12.6041 Q289.016 12.6041 286.412 14.4559 Q283.837 16.3078 283.837 19.7221 Q283.837 22.5867 285.544 24.0624 Q287.28 25.5091 292.084 26.4061 L295.614 27.1295 Q302.153 28.3737 305.249 31.5276 Q308.374 34.6526 308.374 39.9188 Q308.374 46.1977 304.149 49.4384 Q299.954 52.6791 291.823 52.6791 Q288.756 52.6791 285.284 51.9847 Q281.841 51.2902 278.137 49.9303 L278.137 43.9118 Q281.696 45.9083 285.11 46.921 Q288.525 47.9338 291.823 47.9338 Q296.829 47.9338 299.549 45.9662 Q302.269 43.9986 302.269 40.3528 Q302.269 37.1699 300.301 35.376 Q298.362 33.582 293.906 32.685 L290.347 31.9906 Q283.808 30.6885 280.886 27.9107 Q277.963 25.133 277.963 20.1851 Q277.963 14.4559 281.985 11.1573 Q286.036 7.85875 293.125 7.85875 Q296.163 7.85875 299.317 8.40852 Q302.471 8.95829 305.77 10.0578 Z" fill="#000000" fill-rule="nonzero" fill-opacity="1" /><path clip-path="url(#clip290)" d="M316.707 39.0507 L316.707 19.4328 L322.031 19.4328 L322.031 38.8482 Q322.031 43.4488 323.825 45.7636 Q325.619 48.0495 329.207 48.0495 Q333.519 48.0495 336.007 45.3007 Q338.524 42.5519 338.524 37.8065 L338.524 19.4328 L343.848 19.4328 L343.848 51.84 L338.524 51.84 L338.524 46.8632 Q336.586 49.8145 334.01 51.2613 Q331.464 52.6791 328.079 52.6791 Q322.494 52.6791 319.601 49.2069 Q316.707 45.7347 316.707 39.0507 M330.104 18.6515 L330.104 18.6515 Z" fill="#000000" fill-rule="nonzero" fill-opacity="1" /><path clip-path="url(#clip290)" d="M378.078 35.6653 Q378.078 29.7915 375.648 26.464 Q373.246 23.1075 369.022 23.1075 Q364.797 23.1075 362.367 26.464 Q359.965 29.7915 359.965 35.6653 Q359.965 41.5391 362.367 44.8956 Q364.797 48.2231 369.022 48.2231 Q373.246 48.2231 375.648 44.8956 Q378.078 41.5391 378.078 35.6653 M359.965 24.3517 Q361.643 21.4582 364.19 20.0693 Q366.765 18.6515 370.324 18.6515 Q376.227 18.6515 379.901 23.339 Q383.605 28.0265 383.605 35.6653 Q383.605 43.3042 379.901 47.9916 Q376.227 52.6791 370.324 52.6791 Q366.765 52.6791 364.19 51.2902 Q361.643 49.8724 359.965 46.9789 L359.965 51.84 L354.612 51.84 L354.612 6.81709 L359.965 6.81709 L359.965 24.3517 Z" fill="#000000" fill-rule="nonzero" fill-opacity="1" /><path clip-path="url(#clip290)" d="M392.43 19.4328 L397.754 19.4328 L397.754 52.4187 Q397.754 58.6108 395.382 61.3886 Q393.038 64.1663 387.801 64.1663 L385.775 64.1663 L385.775 59.6525 L387.193 59.6525 Q390.231 59.6525 391.331 58.2346 Q392.43 56.8458 392.43 52.4187 L392.43 19.4328 M392.43 6.81709 L397.754 6.81709 L397.754 13.559 L392.43 13.559 L392.43 6.81709 Z" fill="#000000" fill-rule="nonzero" fill-opacity="1" /><path clip-path="url(#clip290)" d="M436.614 34.3054 L436.614 36.9095 L412.135 36.9095 Q412.482 42.4072 415.434 45.3007 Q418.414 48.1653 423.709 48.1653 Q426.776 48.1653 429.641 47.4129 Q432.534 46.6606 435.37 45.156 L435.37 50.1907 Q432.505 51.406 429.496 52.0425 Q426.487 52.6791 423.391 52.6791 Q415.636 52.6791 411.093 48.1653 Q406.579 43.6514 406.579 35.9547 Q406.579 27.9975 410.862 23.339 Q415.173 18.6515 422.465 18.6515 Q429.004 18.6515 432.795 22.876 Q436.614 27.0716 436.614 34.3054 M431.29 32.7429 Q431.232 28.3737 428.831 25.7695 Q426.458 23.1654 422.523 23.1654 Q418.067 23.1654 415.376 25.6827 Q412.714 28.2001 412.309 32.7718 L431.29 32.7429 Z" fill="#000000" fill-rule="nonzero" fill-opacity="1" /><path clip-path="url(#clip290)" d="M468.674 20.677 L468.674 25.6538 Q466.417 24.4096 464.131 23.802 Q461.874 23.1654 459.56 23.1654 Q454.38 23.1654 451.516 26.464 Q448.651 29.7336 448.651 35.6653 Q448.651 41.597 451.516 44.8956 Q454.38 48.1653 459.56 48.1653 Q461.874 48.1653 464.131 47.5576 Q466.417 46.921 468.674 45.6768 L468.674 50.5958 Q466.446 51.6375 464.044 52.1583 Q461.672 52.6791 458.981 52.6791 Q451.66 52.6791 447.349 48.0784 Q443.038 43.4778 443.038 35.6653 Q443.038 27.7371 447.378 23.1943 Q451.747 18.6515 459.328 18.6515 Q461.788 18.6515 464.131 19.1724 Q466.475 19.6642 468.674 20.677 Z" fill="#000000" fill-rule="nonzero" fill-opacity="1" /><path clip-path="url(#clip290)" d="M483.199 10.2314 L483.199 19.4328 L494.166 19.4328 L494.166 23.5705 L483.199 23.5705 L483.199 41.163 Q483.199 45.1271 484.27 46.2555 Q485.37 47.384 488.697 47.384 L494.166 47.384 L494.166 51.84 L488.697 51.84 Q482.534 51.84 480.19 49.5541 Q477.846 47.2393 477.846 41.163 L477.846 23.5705 L473.94 23.5705 L473.94 19.4328 L477.846 19.4328 L477.846 10.2314 L483.199 10.2314 Z" fill="#000000" fill-rule="nonzero" fill-opacity="1" /><path clip-path="url(#clip290)" d="M498.477 33.2348 L514.073 33.2348 L514.073 37.9801 L498.477 37.9801 L498.477 33.2348 Z" fill="#000000" fill-rule="nonzero" fill-opacity="1" /><path clip-path="url(#clip290)" d="M522.551 6.81709 L527.875 6.81709 L527.875 51.84 L522.551 51.84 L522.551 6.81709 Z" fill="#000000" fill-rule="nonzero" fill-opacity="1" /><path clip-path="url(#clip290)" d="M566.735 34.3054 L566.735 36.9095 L542.256 36.9095 Q542.603 42.4072 545.554 45.3007 Q548.535 48.1653 553.83 48.1653 Q556.897 48.1653 559.762 47.4129 Q562.655 46.6606 565.491 45.156 L565.491 50.1907 Q562.626 51.406 559.617 52.0425 Q556.608 52.6791 553.512 52.6791 Q545.757 52.6791 541.214 48.1653 Q536.7 43.6514 536.7 35.9547 Q536.7 27.9975 540.983 23.339 Q545.294 18.6515 552.586 18.6515 Q559.125 18.6515 562.915 22.876 Q566.735 27.0716 566.735 34.3054 M561.411 32.7429 Q561.353 28.3737 558.951 25.7695 Q556.579 23.1654 552.644 23.1654 Q548.188 23.1654 545.497 25.6827 Q542.835 28.2001 542.429 32.7718 L561.411 32.7429 Z" fill="#000000" fill-rule="nonzero" fill-opacity="1" /><path clip-path="url(#clip290)" d="M571.654 19.4328 L577.296 19.4328 L587.423 46.6317 L597.551 19.4328 L603.193 19.4328 L591.04 51.84 L583.807 51.84 L571.654 19.4328 Z" fill="#000000" fill-rule="nonzero" fill-opacity="1" /><path clip-path="url(#clip290)" d="M638.262 34.3054 L638.262 36.9095 L613.783 36.9095 Q614.13 42.4072 617.082 45.3007 Q620.062 48.1653 625.357 48.1653 Q628.424 48.1653 631.289 47.4129 Q634.182 46.6606 637.018 45.156 L637.018 50.1907 Q634.153 51.406 631.144 52.0425 Q628.135 52.6791 625.039 52.6791 Q617.284 52.6791 612.742 48.1653 Q608.228 43.6514 608.228 35.9547 Q608.228 27.9975 612.51 23.339 Q616.821 18.6515 624.113 18.6515 Q630.652 18.6515 634.443 22.876 Q638.262 27.0716 638.262 34.3054 M632.938 32.7429 Q632.88 28.3737 630.479 25.7695 Q628.106 23.1654 624.171 23.1654 Q619.715 23.1654 617.024 25.6827 Q614.362 28.2001 613.957 32.7718 L632.938 32.7429 Z" fill="#000000" fill-rule="nonzero" fill-opacity="1" /><path clip-path="url(#clip290)" d="M647.001 6.81709 L652.325 6.81709 L652.325 51.84 L647.001 51.84 L647.001 6.81709 Z" fill="#000000" fill-rule="nonzero" fill-opacity="1" /><path clip-path="url(#clip290)" d="M702.961 20.3876 L702.961 25.4223 Q700.704 24.2649 698.274 23.6862 Q695.843 23.1075 693.239 23.1075 Q689.275 23.1075 687.278 24.3228 Q685.311 25.5381 685.311 27.9686 Q685.311 29.8204 686.728 30.891 Q688.146 31.9327 692.429 32.8876 L694.252 33.2926 Q699.923 34.5079 702.295 36.7359 Q704.697 38.935 704.697 42.8991 Q704.697 47.4129 701.109 50.046 Q697.55 52.6791 691.3 52.6791 Q688.696 52.6791 685.86 52.1583 Q683.054 51.6664 679.929 50.6537 L679.929 45.156 Q682.88 46.6896 685.745 47.4708 Q688.609 48.2231 691.416 48.2231 Q695.177 48.2231 697.203 46.95 Q699.228 45.6479 699.228 43.3042 Q699.228 41.134 697.753 39.9766 Q696.306 38.8192 691.358 37.7486 L689.506 37.3146 Q684.558 36.273 682.359 34.1318 Q680.16 31.9616 680.16 28.2001 Q680.16 23.6283 683.401 21.1399 Q686.642 18.6515 692.602 18.6515 Q695.554 18.6515 698.158 19.0855 Q700.762 19.5196 702.961 20.3876 Z" fill="#000000" fill-rule="nonzero" fill-opacity="1" /><path clip-path="url(#clip290)" d="M718.325 46.9789 L718.325 64.1663 L712.973 64.1663 L712.973 19.4328 L718.325 19.4328 L718.325 24.3517 Q720.004 21.4582 722.55 20.0693 Q725.125 18.6515 728.684 18.6515 Q734.587 18.6515 738.262 23.339 Q741.965 28.0265 741.965 35.6653 Q741.965 43.3042 738.262 47.9916 Q734.587 52.6791 728.684 52.6791 Q725.125 52.6791 722.55 51.2902 Q720.004 49.8724 718.325 46.9789 M736.439 35.6653 Q736.439 29.7915 734.008 26.464 Q731.607 23.1075 727.382 23.1075 Q723.158 23.1075 720.727 26.464 Q718.325 29.7915 718.325 35.6653 Q718.325 41.5391 720.727 44.8956 Q723.158 48.2231 727.382 48.2231 Q731.607 48.2231 734.008 44.8956 Q736.439 41.5391 736.439 35.6653 Z" fill="#000000" fill-rule="nonzero" fill-opacity="1" /><path clip-path="url(#clip290)" d="M778.51 34.3054 L778.51 36.9095 L754.031 36.9095 Q754.379 42.4072 757.33 45.3007 Q760.31 48.1653 765.605 48.1653 Q768.672 48.1653 771.537 47.4129 Q774.431 46.6606 777.266 45.156 L777.266 50.1907 Q774.402 51.406 771.392 52.0425 Q768.383 52.6791 765.287 52.6791 Q757.532 52.6791 752.99 48.1653 Q748.476 43.6514 748.476 35.9547 Q748.476 27.9975 752.758 23.339 Q757.069 18.6515 764.361 18.6515 Q770.9 18.6515 774.691 22.876 Q778.51 27.0716 778.51 34.3054 M773.186 32.7429 Q773.128 28.3737 770.727 25.7695 Q768.354 23.1654 764.419 23.1654 Q759.963 23.1654 757.272 25.6827 Q754.61 28.2001 754.205 32.7718 L773.186 32.7429 Z" fill="#000000" fill-rule="nonzero" fill-opacity="1" /><path clip-path="url(#clip290)" d="M814.968 34.3054 L814.968 36.9095 L790.489 36.9095 Q790.837 42.4072 793.788 45.3007 Q796.768 48.1653 802.063 48.1653 Q805.131 48.1653 807.995 47.4129 Q810.889 46.6606 813.724 45.156 L813.724 50.1907 Q810.86 51.406 807.85 52.0425 Q804.841 52.6791 801.745 52.6791 Q793.991 52.6791 789.448 48.1653 Q784.934 43.6514 784.934 35.9547 Q784.934 27.9975 789.216 23.339 Q793.528 18.6515 800.819 18.6515 Q807.359 18.6515 811.149 22.876 Q814.968 27.0716 814.968 34.3054 M809.644 32.7429 Q809.587 28.3737 807.185 25.7695 Q804.812 23.1654 800.877 23.1654 Q796.421 23.1654 793.73 25.6827 Q791.068 28.2001 790.663 32.7718 L809.644 32.7429 Z" fill="#000000" fill-rule="nonzero" fill-opacity="1" /><path clip-path="url(#clip290)" d="M845.032 24.3517 L845.032 6.81709 L850.356 6.81709 L850.356 51.84 L845.032 51.84 L845.032 46.9789 Q843.354 49.8724 840.779 51.2902 Q838.232 52.6791 834.644 52.6791 Q828.771 52.6791 825.067 47.9916 Q821.392 43.3042 821.392 35.6653 Q821.392 28.0265 825.067 23.339 Q828.771 18.6515 834.644 18.6515 Q838.232 18.6515 840.779 20.0693 Q843.354 21.4582 845.032 24.3517 M826.89 35.6653 Q826.89 41.5391 829.291 44.8956 Q831.722 48.2231 835.946 48.2231 Q840.171 48.2231 842.601 44.8956 Q845.032 41.5391 845.032 35.6653 Q845.032 29.7915 842.601 26.464 Q840.171 23.1075 835.946 23.1075 Q831.722 23.1075 829.291 26.464 Q826.89 29.7915 826.89 35.6653 Z" fill="#000000" fill-rule="nonzero" fill-opacity="1" /><path clip-path="url(#clip290)" d="M900.819 20.3876 L900.819 25.4223 Q898.562 24.2649 896.131 23.6862 Q893.701 23.1075 891.097 23.1075 Q887.132 23.1075 885.136 24.3228 Q883.168 25.5381 883.168 27.9686 Q883.168 29.8204 884.586 30.891 Q886.004 31.9327 890.286 32.8876 L892.109 33.2926 Q897.781 34.5079 900.153 36.7359 Q902.555 38.935 902.555 42.8991 Q902.555 47.4129 898.967 50.046 Q895.408 52.6791 889.158 52.6791 Q886.554 52.6791 883.718 52.1583 Q880.911 51.6664 877.786 50.6537 L877.786 45.156 Q880.738 46.6896 883.602 47.4708 Q886.467 48.2231 889.274 48.2231 Q893.035 48.2231 895.061 46.95 Q897.086 45.6479 897.086 43.3042 Q897.086 41.134 895.61 39.9766 Q894.164 38.8192 889.216 37.7486 L887.364 37.3146 Q882.416 36.273 880.217 34.1318 Q878.018 31.9616 878.018 28.2001 Q878.018 23.6283 881.259 21.1399 Q884.499 18.6515 890.46 18.6515 Q893.411 18.6515 896.016 19.0855 Q898.62 19.5196 900.819 20.3876 Z" fill="#000000" fill-rule="nonzero" fill-opacity="1" /><path clip-path="url(#clip290)" d="M938.753 34.3054 L938.753 36.9095 L914.274 36.9095 Q914.621 42.4072 917.572 45.3007 Q920.552 48.1653 925.848 48.1653 Q928.915 48.1653 931.779 47.4129 Q934.673 46.6606 937.508 45.156 L937.508 50.1907 Q934.644 51.406 931.635 52.0425 Q928.625 52.6791 925.529 52.6791 Q917.775 52.6791 913.232 48.1653 Q908.718 43.6514 908.718 35.9547 Q908.718 27.9975 913 23.339 Q917.312 18.6515 924.603 18.6515 Q931.143 18.6515 934.933 22.876 Q938.753 27.0716 938.753 34.3054 M933.429 32.7429 Q933.371 28.3737 930.969 25.7695 Q928.596 23.1654 924.661 23.1654 Q920.205 23.1654 917.514 25.6827 Q914.852 28.2001 914.447 32.7718 L933.429 32.7429 Z" fill="#000000" fill-rule="nonzero" fill-opacity="1" /><path clip-path="url(#clip290)" d="M974.429 32.2799 L974.429 51.84 L969.105 51.84 L969.105 32.4535 Q969.105 27.8529 967.311 25.567 Q965.517 23.2811 961.93 23.2811 Q957.618 23.2811 955.13 26.03 Q952.641 28.7788 952.641 33.5241 L952.641 51.84 L947.288 51.84 L947.288 19.4328 L952.641 19.4328 L952.641 24.4675 Q954.551 21.545 957.126 20.0983 Q959.73 18.6515 963.116 18.6515 Q968.7 18.6515 971.565 22.1237 Q974.429 25.567 974.429 32.2799 Z" fill="#000000" fill-rule="nonzero" fill-opacity="1" /><path clip-path="url(#clip290)" d="M1005.71 20.3876 L1005.71 25.4223 Q1003.45 24.2649 1001.02 23.6862 Q998.59 23.1075 995.986 23.1075 Q992.022 23.1075 990.025 24.3228 Q988.058 25.5381 988.058 27.9686 Q988.058 29.8204 989.476 30.891 Q990.893 31.9327 995.176 32.8876 L996.999 33.2926 Q1002.67 34.5079 1005.04 36.7359 Q1007.44 38.935 1007.44 42.8991 Q1007.44 47.4129 1003.86 50.046 Q1000.3 52.6791 994.047 52.6791 Q991.443 52.6791 988.608 52.1583 Q985.801 51.6664 982.676 50.6537 L982.676 45.156 Q985.627 46.6896 988.492 47.4708 Q991.356 48.2231 994.163 48.2231 Q997.925 48.2231 999.95 46.95 Q1001.98 45.6479 1001.98 43.3042 Q1001.98 41.134 1000.5 39.9766 Q999.053 38.8192 994.105 37.7486 L992.253 37.3146 Q987.306 36.273 985.106 34.1318 Q982.907 31.9616 982.907 28.2001 Q982.907 23.6283 986.148 21.1399 Q989.389 18.6515 995.349 18.6515 Q998.301 18.6515 1000.9 19.0855 Q1003.51 19.5196 1005.71 20.3876 Z" fill="#000000" fill-rule="nonzero" fill-opacity="1" /><path clip-path="url(#clip290)" d="M1015.92 19.4328 L1021.25 19.4328 L1021.25 51.84 L1015.92 51.84 L1015.92 19.4328 M1015.92 6.81709 L1021.25 6.81709 L1021.25 13.559 L1015.92 13.559 L1015.92 6.81709 Z" fill="#000000" fill-rule="nonzero" fill-opacity="1" /><path clip-path="url(#clip290)" d="M1037.65 10.2314 L1037.65 19.4328 L1048.62 19.4328 L1048.62 23.5705 L1037.65 23.5705 L1037.65 41.163 Q1037.65 45.1271 1038.72 46.2555 Q1039.82 47.384 1043.15 47.384 L1048.62 47.384 L1048.62 51.84 L1043.15 51.84 Q1036.99 51.84 1034.64 49.5541 Q1032.3 47.2393 1032.3 41.163 L1032.3 23.5705 L1028.39 23.5705 L1028.39 19.4328 L1032.3 19.4328 L1032.3 10.2314 L1037.65 10.2314 Z" fill="#000000" fill-rule="nonzero" fill-opacity="1" /><path clip-path="url(#clip290)" d="M1055.62 19.4328 L1060.95 19.4328 L1060.95 51.84 L1055.62 51.84 L1055.62 19.4328 M1055.62 6.81709 L1060.95 6.81709 L1060.95 13.559 L1055.62 13.559 L1055.62 6.81709 Z" fill="#000000" fill-rule="nonzero" fill-opacity="1" /><path clip-path="url(#clip290)" d="M1068.27 19.4328 L1073.91 19.4328 L1084.04 46.6317 L1094.16 19.4328 L1099.8 19.4328 L1087.65 51.84 L1080.42 51.84 L1068.27 19.4328 Z" fill="#000000" fill-rule="nonzero" fill-opacity="1" /><path clip-path="url(#clip290)" d="M1107.15 19.4328 L1112.48 19.4328 L1112.48 51.84 L1107.15 51.84 L1107.15 19.4328 M1107.15 6.81709 L1112.48 6.81709 L1112.48 13.559 L1107.15 13.559 L1107.15 6.81709 Z" fill="#000000" fill-rule="nonzero" fill-opacity="1" /><path clip-path="url(#clip290)" d="M1128.88 10.2314 L1128.88 19.4328 L1139.85 19.4328 L1139.85 23.5705 L1128.88 23.5705 L1128.88 41.163 Q1128.88 45.1271 1129.96 46.2555 Q1131.05 47.384 1134.38 47.384 L1139.85 47.384 L1139.85 51.84 L1134.38 51.84 Q1128.22 51.84 1125.88 49.5541 Q1123.53 47.2393 1123.53 41.163 L1123.53 23.5705 L1119.63 23.5705 L1119.63 19.4328 L1123.53 19.4328 L1123.53 10.2314 L1128.88 10.2314 Z" fill="#000000" fill-rule="nonzero" fill-opacity="1" /><path clip-path="url(#clip290)" d="M1160.34 54.8492 Q1158.08 60.6362 1155.94 62.4013 Q1153.8 64.1663 1150.21 64.1663 L1145.96 64.1663 L1145.96 59.7103 L1149.08 59.7103 Q1151.28 59.7103 1152.5 58.6687 Q1153.71 57.627 1155.19 53.7497 L1156.14 51.3192 L1143.03 19.4328 L1148.68 19.4328 L1158.8 44.7799 L1168.93 19.4328 L1174.57 19.4328 L1160.34 54.8492 Z" fill="#000000" fill-rule="nonzero" fill-opacity="1" /><polyline clip-path="url(#clip292)" style="stroke:#a6a6a6; stroke-linecap:round; stroke-linejoin:round; stroke-width:4; stroke-opacity:1; fill:none" stroke-dasharray="16, 10" points="-222.486,580.108 1675.02,580.108 "/>
<circle clip-path="url(#clip292)" cx="508.051" cy="578.47" r="10.8" fill="#4482b5" fill-rule="evenodd" fill-opacity="0.7" stroke="none"/>
<circle clip-path="url(#clip292)" cx="503.782" cy="579.95" r="10.8" fill="#4482b5" fill-rule="evenodd" fill-opacity="0.7" stroke="none"/>
<circle clip-path="url(#clip292)" cx="477.002" cy="580.977" r="10.8" fill="#4482b5" fill-rule="evenodd" fill-opacity="0.7" stroke="none"/>
<circle clip-path="url(#clip292)" cx="472.714" cy="579.47" r="10.8" fill="#4482b5" fill-rule="evenodd" fill-opacity="0.7" stroke="none"/>
<circle clip-path="url(#clip292)" cx="499.874" cy="578.186" r="10.8" fill="#4482b5" fill-rule="evenodd" fill-opacity="0.7" stroke="none"/>
<circle clip-path="url(#clip292)" cx="457.408" cy="578.935" r="10.8" fill="#4482b5" fill-rule="evenodd" fill-opacity="0.7" stroke="none"/>
<circle clip-path="url(#clip292)" cx="474.536" cy="579.029" r="10.8" fill="#4482b5" fill-rule="evenodd" fill-opacity="0.7" stroke="none"/>
<circle clip-path="url(#clip292)" cx="462.848" cy="578.497" r="10.8" fill="#4482b5" fill-rule="evenodd" fill-opacity="0.7" stroke="none"/>
<circle clip-path="url(#clip292)" cx="478.879" cy="578.477" r="10.8" fill="#4482b5" fill-rule="evenodd" fill-opacity="0.7" stroke="none"/>
<circle clip-path="url(#clip292)" cx="456.104" cy="581.604" r="10.8" fill="#4482b5" fill-rule="evenodd" fill-opacity="0.7" stroke="none"/>
<circle clip-path="url(#clip292)" cx="462.389" cy="579.536" r="10.8" fill="#4482b5" fill-rule="evenodd" fill-opacity="0.7" stroke="none"/>
<circle clip-path="url(#clip292)" cx="503.851" cy="579.534" r="10.8" fill="#4482b5" fill-rule="evenodd" fill-opacity="0.7" stroke="none"/>
<circle clip-path="url(#clip292)" cx="465.945" cy="576.804" r="10.8" fill="#4482b5" fill-rule="evenodd" fill-opacity="0.7" stroke="none"/>
<circle clip-path="url(#clip292)" cx="505.569" cy="579.213" r="10.8" fill="#4482b5" fill-rule="evenodd" fill-opacity="0.7" stroke="none"/>
<circle clip-path="url(#clip292)" cx="472.036" cy="579.662" r="10.8" fill="#4482b5" fill-rule="evenodd" fill-opacity="0.7" stroke="none"/>
<circle clip-path="url(#clip292)" cx="503.246" cy="579.994" r="10.8" fill="#4482b5" fill-rule="evenodd" fill-opacity="0.7" stroke="none"/>
<circle clip-path="url(#clip292)" cx="460.459" cy="577.316" r="10.8" fill="#4482b5" fill-rule="evenodd" fill-opacity="0.7" stroke="none"/>
<circle clip-path="url(#clip292)" cx="505.932" cy="580.103" r="10.8" fill="#4482b5" fill-rule="evenodd" fill-opacity="0.7" stroke="none"/>
<circle clip-path="url(#clip292)" cx="480.043" cy="579.898" r="10.8" fill="#4482b5" fill-rule="evenodd" fill-opacity="0.7" stroke="none"/>
<circle clip-path="url(#clip292)" cx="479.22" cy="564.116" r="10.8" fill="#4482b5" fill-rule="evenodd" fill-opacity="0.7" stroke="none"/>
<circle clip-path="url(#clip292)" cx="497.643" cy="580.098" r="10.8" fill="#4482b5" fill-rule="evenodd" fill-opacity="0.7" stroke="none"/>
<circle clip-path="url(#clip292)" cx="462.736" cy="580.101" r="10.8" fill="#4482b5" fill-rule="evenodd" fill-opacity="0.7" stroke="none"/>
<polyline clip-path="url(#clip292)" style="stroke:#000000; stroke-linecap:round; stroke-linejoin:round; stroke-width:12; stroke-opacity:1; fill:none" points="427.918,579.502 535.519,579.502 "/>
<polyline clip-path="url(#clip292)" style="stroke:#000000; stroke-linecap:round; stroke-linejoin:round; stroke-width:8; stroke-opacity:1; fill:none" points="481.719,579.983 481.719,578.482 "/>
<circle clip-path="url(#clip292)" cx="715.505" cy="647.525" r="10.8" fill="#ff8c00" fill-rule="evenodd" fill-opacity="0.7" stroke="none"/>
<circle clip-path="url(#clip292)" cx="736.835" cy="587.516" r="10.8" fill="#ff8c00" fill-rule="evenodd" fill-opacity="0.7" stroke="none"/>
<circle clip-path="url(#clip292)" cx="711.252" cy="540.359" r="10.8" fill="#ff8c00" fill-rule="evenodd" fill-opacity="0.7" stroke="none"/>
<circle clip-path="url(#clip292)" cx="700.939" cy="555.571" r="10.8" fill="#ff8c00" fill-rule="evenodd" fill-opacity="0.7" stroke="none"/>
<circle clip-path="url(#clip292)" cx="732.621" cy="580.091" r="10.8" fill="#ff8c00" fill-rule="evenodd" fill-opacity="0.7" stroke="none"/>
<circle clip-path="url(#clip292)" cx="724.247" cy="493.24" r="10.8" fill="#ff8c00" fill-rule="evenodd" fill-opacity="0.7" stroke="none"/>
<circle clip-path="url(#clip292)" cx="743.442" cy="509.85" r="10.8" fill="#ff8c00" fill-rule="evenodd" fill-opacity="0.7" stroke="none"/>
<circle clip-path="url(#clip292)" cx="744.526" cy="570.889" r="10.8" fill="#ff8c00" fill-rule="evenodd" fill-opacity="0.7" stroke="none"/>
<circle clip-path="url(#clip292)" cx="720.749" cy="591.987" r="10.8" fill="#ff8c00" fill-rule="evenodd" fill-opacity="0.7" stroke="none"/>
<circle clip-path="url(#clip292)" cx="704.507" cy="580.089" r="10.8" fill="#ff8c00" fill-rule="evenodd" fill-opacity="0.7" stroke="none"/>
<circle clip-path="url(#clip292)" cx="736" cy="621.965" r="10.8" fill="#ff8c00" fill-rule="evenodd" fill-opacity="0.7" stroke="none"/>
<polyline clip-path="url(#clip292)" style="stroke:#000000; stroke-linecap:round; stroke-linejoin:round; stroke-width:12; stroke-opacity:1; fill:none" points="672.467,580.089 780.069,580.089 "/>
<polyline clip-path="url(#clip292)" style="stroke:#000000; stroke-linecap:round; stroke-linejoin:round; stroke-width:8; stroke-opacity:1; fill:none" points="726.268,589.751 726.268,547.965 "/>
<circle clip-path="url(#clip292)" cx="954.259" cy="486.009" r="10.8" fill="#db143d" fill-rule="evenodd" fill-opacity="0.7" stroke="none"/>
<circle clip-path="url(#clip292)" cx="957.692" cy="555.075" r="10.8" fill="#db143d" fill-rule="evenodd" fill-opacity="0.7" stroke="none"/>
<circle clip-path="url(#clip292)" cx="984.212" cy="518.046" r="10.8" fill="#db143d" fill-rule="evenodd" fill-opacity="0.7" stroke="none"/>
<circle clip-path="url(#clip292)" cx="949.635" cy="233.179" r="10.8" fill="#db143d" fill-rule="evenodd" fill-opacity="0.7" stroke="none"/>
<circle clip-path="url(#clip292)" cx="945.275" cy="478.2" r="10.8" fill="#db143d" fill-rule="evenodd" fill-opacity="0.7" stroke="none"/>
<circle clip-path="url(#clip292)" cx="955.033" cy="463.638" r="10.8" fill="#db143d" fill-rule="evenodd" fill-opacity="0.7" stroke="none"/>
<circle clip-path="url(#clip292)" cx="953.615" cy="484.794" r="10.8" fill="#db143d" fill-rule="evenodd" fill-opacity="0.7" stroke="none"/>
<circle clip-path="url(#clip292)" cx="971.424" cy="594.396" r="10.8" fill="#db143d" fill-rule="evenodd" fill-opacity="0.7" stroke="none"/>
<circle clip-path="url(#clip292)" cx="993.824" cy="499.425" r="10.8" fill="#db143d" fill-rule="evenodd" fill-opacity="0.7" stroke="none"/>
<polyline clip-path="url(#clip292)" style="stroke:#000000; stroke-linecap:round; stroke-linejoin:round; stroke-width:12; stroke-opacity:1; fill:none" points="917.017,486.009 1024.62,486.009 "/>
<polyline clip-path="url(#clip292)" style="stroke:#000000; stroke-linecap:round; stroke-linejoin:round; stroke-width:8; stroke-opacity:1; fill:none" points="970.818,518.046 970.818,478.2 "/>
</svg>
