<?xml version="1.0" encoding="utf-8"?>
<svg xmlns="http://www.w3.org/2000/svg" xmlns:xlink="http://www.w3.org/1999/xlink" width="300" height="220" viewBox="0 0 1200 880">
<defs>
  <clipPath id="clip240">
    <rect x="0" y="0" width="1200" height="880"/>
  </clipPath>
</defs>
<path clip-path="url(#clip240)" d="M0 880 L1200 880 L1200 1.13687e-13 L0 1.13687e-13  Z" fill="#ffffff" fill-rule="evenodd" fill-opacity="1"/>
<defs>
  <clipPath id="clip241">
    <rect x="343" y="220" width="700" height="440"/>
  </clipPath>
</defs>
<path clip-path="url(#clip240)" d="M316.175 659.956 L1042.52 659.956 L1042.52 220.748 L316.175 220.748  Z" fill="#ffffff" fill-rule="evenodd" fill-opacity="1"/>
<defs>
  <clipPath id="clip242">
    <rect x="316" y="220" width="727" height="440"/>
  </clipPath>
</defs>
<polyline clip-path="url(#clip242)" style="stroke:#000000; stroke-linecap:round; stroke-linejoin:round; stroke-width:2; stroke-opacity:0.1; fill:none" points="398.515,659.956 398.515,220.748 "/>
<polyline clip-path="url(#clip242)" style="stroke:#000000; stroke-linecap:round; stroke-linejoin:round; stroke-width:2; stroke-opacity:0.1; fill:none" points="679.347,659.956 679.347,220.748 "/>
<polyline clip-path="url(#clip242)" style="stroke:#000000; stroke-linecap:round; stroke-linejoin:round; stroke-width:2; stroke-opacity:0.1; fill:none" points="960.18,659.956 960.18,220.748 "/>
<polyline clip-path="url(#clip242)" style="stroke:#000000; stroke-linecap:round; stroke-linejoin:round; stroke-width:2; stroke-opacity:0.1; fill:none" points="316.175,596.516 1042.52,596.516 "/>
<polyline clip-path="url(#clip242)" style="stroke:#000000; stroke-linecap:round; stroke-linejoin:round; stroke-width:2; stroke-opacity:0.1; fill:none" points="316.175,511.675 1042.52,511.675 "/>
<polyline clip-path="url(#clip242)" style="stroke:#000000; stroke-linecap:round; stroke-linejoin:round; stroke-width:2; stroke-opacity:0.1; fill:none" points="316.175,426.835 1042.52,426.835 "/>
<polyline clip-path="url(#clip242)" style="stroke:#000000; stroke-linecap:round; stroke-linejoin:round; stroke-width:2; stroke-opacity:0.1; fill:none" points="316.175,341.994 1042.52,341.994 "/>
<polyline clip-path="url(#clip242)" style="stroke:#000000; stroke-linecap:round; stroke-linejoin:round; stroke-width:2; stroke-opacity:0.1; fill:none" points="316.175,257.153 1042.52,257.153 "/>
<polyline clip-path="url(#clip240)" style="stroke:#000000; stroke-linecap:round; stroke-linejoin:round; stroke-width:4; stroke-opacity:1; fill:none" points="316.175,659.956 1042.52,659.956 "/>
<polyline clip-path="url(#clip240)" style="stroke:#000000; stroke-linecap:round; stroke-linejoin:round; stroke-width:4; stroke-opacity:1; fill:none" points="398.515,659.956 398.515,641.058 "/>
<polyline clip-path="url(#clip240)" style="stroke:#000000; stroke-linecap:round; stroke-linejoin:round; stroke-width:4; stroke-opacity:1; fill:none" points="679.347,659.956 679.347,641.058 "/>
<polyline clip-path="url(#clip240)" style="stroke:#000000; stroke-linecap:round; stroke-linejoin:round; stroke-width:4; stroke-opacity:1; fill:none" points="960.18,659.956 960.18,641.058 "/>
<path clip-path="url(#clip240)" d="M383.735 682.802 L377.392 700.001 L390.1 700.001 L383.735 682.802 M381.096 678.196 L386.397 678.196 L399.568 712.756 L394.707 712.756 L391.559 703.89 L375.98 703.89 L372.832 712.756 L367.901 712.756 L381.096 678.196 Z" fill="#000000" fill-rule="nonzero" fill-opacity="1" /><path clip-path="url(#clip240)" d="M409.29 696.251 L409.29 708.913 L416.79 708.913 Q420.563 708.913 422.369 707.362 Q424.197 705.788 424.197 702.571 Q424.197 699.33 422.369 697.802 Q420.563 696.251 416.79 696.251 L409.29 696.251 M409.29 682.038 L409.29 692.455 L416.211 692.455 Q419.637 692.455 421.304 691.182 Q422.994 689.885 422.994 687.247 Q422.994 684.631 421.304 683.335 Q419.637 682.038 416.211 682.038 L409.29 682.038 M404.614 678.196 L416.559 678.196 Q421.906 678.196 424.799 680.418 Q427.693 682.64 427.693 686.737 Q427.693 689.909 426.211 691.784 Q424.73 693.659 421.859 694.121 Q425.308 694.862 427.207 697.223 Q429.128 699.561 429.128 703.08 Q429.128 707.709 425.98 710.233 Q422.832 712.756 417.021 712.756 L404.614 712.756 L404.614 678.196 Z" fill="#000000" fill-rule="nonzero" fill-opacity="1" /><path clip-path="url(#clip240)" d="M651.593 678.196 L656.269 678.196 L656.269 692.362 L673.259 692.362 L673.259 678.196 L677.935 678.196 L677.935 712.756 L673.259 712.756 L673.259 696.297 L656.269 696.297 L656.269 712.756 L651.593 712.756 L651.593 678.196 Z" fill="#000000" fill-rule="nonzero" fill-opacity="1" /><path clip-path="url(#clip240)" d="M687.241 678.196 L707.102 678.196 L707.102 682.131 L691.916 682.131 L691.916 692.316 L705.62 692.316 L705.62 696.251 L691.916 696.251 L691.916 712.756 L687.241 712.756 L687.241 678.196 Z" fill="#000000" fill-rule="nonzero" fill-opacity="1" /><path clip-path="url(#clip240)" d="M937.043 678.196 L941.719 678.196 L941.719 708.82 L958.548 708.82 L958.548 712.756 L937.043 712.756 L937.043 678.196 Z" fill="#000000" fill-rule="nonzero" fill-opacity="1" /><path clip-path="url(#clip240)" d="M963.455 678.196 L983.316 678.196 L983.316 682.131 L968.131 682.131 L968.131 692.316 L981.835 692.316 L981.835 696.251 L968.131 696.251 L968.131 712.756 L963.455 712.756 L963.455 678.196 Z" fill="#000000" fill-rule="nonzero" fill-opacity="1" /><polyline clip-path="url(#clip240)" style="stroke:#000000; stroke-linecap:round; stroke-linejoin:round; stroke-width:4; stroke-opacity:1; fill:none" points="316.175,659.956 316.175,220.748 "/>
<polyline clip-path="url(#clip240)" style="stroke:#000000; stroke-linecap:round; stroke-linejoin:round; stroke-width:4; stroke-opacity:1; fill:none" points="316.175,596.516 335.072,596.516 "/>
<polyline clip-path="url(#clip240)" style="stroke:#000000; stroke-linecap:round; stroke-linejoin:round; stroke-width:4; stroke-opacity:1; fill:none" points="316.175,511.675 335.072,511.675 "/>
<polyline clip-path="url(#clip240)" style="stroke:#000000; stroke-linecap:round; stroke-linejoin:round; stroke-width:4; stroke-opacity:1; fill:none" points="316.175,426.835 335.072,426.835 "/>
<polyline clip-path="url(#clip240)" style="stroke:#000000; stroke-linecap:round; stroke-linejoin:round; stroke-width:4; stroke-opacity:1; fill:none" points="316.175,341.994 335.072,341.994 "/>
<polyline clip-path="url(#clip240)" style="stroke:#000000; stroke-linecap:round; stroke-linejoin:round; stroke-width:4; stroke-opacity:1; fill:none" points="316.175,257.153 335.072,257.153 "/>
<path clip-path="url(#clip240)" d="M229.049 616.309 L236.688 616.309 L236.688 589.943 L228.377 591.61 L228.377 587.35 L236.641 585.684 L241.317 585.684 L241.317 616.309 L248.956 616.309 L248.956 620.244 L229.049 620.244 L229.049 616.309 Z" fill="#000000" fill-rule="nonzero" fill-opacity="1" /><path clip-path="url(#clip240)" d="M268.4 588.762 Q264.789 588.762 262.961 592.327 Q261.155 595.869 261.155 602.998 Q261.155 610.105 262.961 613.67 Q264.789 617.211 268.4 617.211 Q272.035 617.211 273.84 613.67 Q275.669 610.105 275.669 602.998 Q275.669 595.869 273.84 592.327 Q272.035 588.762 268.4 588.762 M268.4 585.059 Q274.211 585.059 277.266 589.665 Q280.345 594.248 280.345 602.998 Q280.345 611.725 277.266 616.332 Q274.211 620.915 268.4 620.915 Q262.59 620.915 259.512 616.332 Q256.456 611.725 256.456 602.998 Q256.456 594.248 259.512 589.665 Q262.59 585.059 268.4 585.059 Z" fill="#000000" fill-rule="nonzero" fill-opacity="1" /><path clip-path="url(#clip240)" d="M284.915 589.636 L298.175 589.636 L298.175 592.833 L280.345 592.833 L280.345 589.636 Q282.508 587.398 286.232 583.636 Q289.974 579.856 290.934 578.765 Q292.758 576.715 293.473 575.304 Q294.206 573.875 294.206 572.502 Q294.206 570.264 292.626 568.853 Q291.065 567.443 288.545 567.443 Q286.758 567.443 284.765 568.063 Q282.79 568.684 280.533 569.944 L280.533 566.107 Q282.827 565.186 284.821 564.716 Q286.815 564.245 288.47 564.245 Q292.833 564.245 295.429 566.427 Q298.024 568.609 298.024 572.258 Q298.024 573.988 297.366 575.549 Q296.726 577.091 295.015 579.198 Q294.545 579.743 292.024 582.357 Q289.504 584.953 284.915 589.636 Z" fill="#000000" fill-rule="nonzero" fill-opacity="1" /><path clip-path="url(#clip240)" d="M228.39 531.468 L236.029 531.468 L236.029 505.102 L227.719 506.769 L227.719 502.51 L235.983 500.843 L240.659 500.843 L240.659 531.468 L248.298 531.468 L248.298 535.403 L228.39 535.403 L228.39 531.468 Z" fill="#000000" fill-rule="nonzero" fill-opacity="1" /><path clip-path="url(#clip240)" d="M267.742 503.922 Q264.131 503.922 262.302 507.486 Q260.497 511.028 260.497 518.158 Q260.497 525.264 262.302 528.829 Q264.131 532.371 267.742 532.371 Q271.376 532.371 273.182 528.829 Q275.011 525.264 275.011 518.158 Q275.011 511.028 273.182 507.486 Q271.376 503.922 267.742 503.922 M267.742 500.218 Q273.552 500.218 276.608 504.824 Q279.687 509.408 279.687 518.158 Q279.687 526.885 276.608 531.491 Q273.552 536.074 267.742 536.074 Q261.932 536.074 258.853 531.491 Q255.798 526.885 255.798 518.158 Q255.798 509.408 258.853 504.824 Q261.932 500.218 267.742 500.218 Z" fill="#000000" fill-rule="nonzero" fill-opacity="1" /><path clip-path="url(#clip240)" d="M292.382 492.852 Q295.109 493.435 296.632 495.279 Q298.175 497.122 298.175 499.83 Q298.175 503.987 295.316 506.262 Q292.457 508.538 287.191 508.538 Q285.423 508.538 283.542 508.181 Q281.68 507.842 279.687 507.146 L279.687 503.479 Q281.266 504.4 283.147 504.87 Q285.028 505.341 287.078 505.341 Q290.651 505.341 292.513 503.93 Q294.394 502.52 294.394 499.83 Q294.394 497.347 292.645 495.956 Q290.915 494.545 287.811 494.545 L284.539 494.545 L284.539 491.423 L287.962 491.423 Q290.764 491.423 292.25 490.313 Q293.736 489.185 293.736 487.078 Q293.736 484.915 292.194 483.768 Q290.67 482.602 287.811 482.602 Q286.25 482.602 284.464 482.941 Q282.677 483.279 280.533 483.994 L280.533 480.608 Q282.696 480.007 284.577 479.706 Q286.476 479.405 288.15 479.405 Q292.476 479.405 294.996 481.38 Q297.516 483.336 297.516 486.683 Q297.516 489.016 296.181 490.633 Q294.846 492.232 292.382 492.852 Z" fill="#000000" fill-rule="nonzero" fill-opacity="1" /><path clip-path="url(#clip240)" d="M226.416 446.627 L234.055 446.627 L234.055 420.262 L225.744 421.928 L225.744 417.669 L234.008 416.002 L238.684 416.002 L238.684 446.627 L246.323 446.627 L246.323 450.562 L226.416 450.562 L226.416 446.627 Z" fill="#000000" fill-rule="nonzero" fill-opacity="1" /><path clip-path="url(#clip240)" d="M265.767 419.081 Q262.156 419.081 260.328 422.646 Q258.522 426.187 258.522 433.317 Q258.522 440.423 260.328 443.988 Q262.156 447.53 265.767 447.53 Q269.402 447.53 271.207 443.988 Q273.036 440.423 273.036 433.317 Q273.036 426.187 271.207 422.646 Q269.402 419.081 265.767 419.081 M265.767 415.377 Q271.577 415.377 274.633 419.984 Q277.712 424.567 277.712 433.317 Q277.712 442.044 274.633 446.65 Q271.577 451.234 265.767 451.234 Q259.957 451.234 256.878 446.65 Q253.823 442.044 253.823 433.317 Q253.823 424.567 256.878 419.984 Q259.957 415.377 265.767 415.377 Z" fill="#000000" fill-rule="nonzero" fill-opacity="1" /><path clip-path="url(#clip240)" d="M290.388 398.382 L280.796 413.372 L290.388 413.372 L290.388 398.382 M289.391 395.072 L294.168 395.072 L294.168 413.372 L298.175 413.372 L298.175 416.532 L294.168 416.532 L294.168 423.152 L290.388 423.152 L290.388 416.532 L277.712 416.532 L277.712 412.864 L289.391 395.072 Z" fill="#000000" fill-rule="nonzero" fill-opacity="1" /><path clip-path="url(#clip240)" d="M228.71 361.786 L236.349 361.786 L236.349 335.421 L228.039 337.087 L228.039 332.828 L236.303 331.162 L240.979 331.162 L240.979 361.786 L248.618 361.786 L248.618 365.722 L228.71 365.722 L228.71 361.786 Z" fill="#000000" fill-rule="nonzero" fill-opacity="1" /><path clip-path="url(#clip240)" d="M268.062 334.24 Q264.451 334.24 262.622 337.805 Q260.817 341.347 260.817 348.476 Q260.817 355.583 262.622 359.148 Q264.451 362.689 268.062 362.689 Q271.696 362.689 273.502 359.148 Q275.33 355.583 275.33 348.476 Q275.33 341.347 273.502 337.805 Q271.696 334.24 268.062 334.24 M268.062 330.537 Q273.872 330.537 276.928 335.143 Q280.006 339.726 280.006 348.476 Q280.006 357.203 276.928 361.81 Q273.872 366.393 268.062 366.393 Q262.252 366.393 259.173 361.81 Q256.117 357.203 256.117 348.476 Q256.117 339.726 259.173 335.143 Q262.252 330.537 268.062 330.537 Z" fill="#000000" fill-rule="nonzero" fill-opacity="1" /><path clip-path="url(#clip240)" d="M281.191 310.231 L296.106 310.231 L296.106 313.428 L284.671 313.428 L284.671 320.312 Q285.498 320.03 286.326 319.898 Q287.153 319.748 287.981 319.748 Q292.683 319.748 295.429 322.325 Q298.175 324.901 298.175 329.302 Q298.175 333.835 295.353 336.355 Q292.532 338.857 287.398 338.857 Q285.63 338.857 283.787 338.556 Q281.962 338.255 280.006 337.653 L280.006 333.835 Q281.699 334.757 283.504 335.208 Q285.31 335.659 287.322 335.659 Q290.576 335.659 292.476 333.948 Q294.375 332.236 294.375 329.302 Q294.375 326.368 292.476 324.657 Q290.576 322.945 287.322 322.945 Q285.799 322.945 284.276 323.284 Q282.771 323.622 281.191 324.337 L281.191 310.231 Z" fill="#000000" fill-rule="nonzero" fill-opacity="1" /><path clip-path="url(#clip240)" d="M227.488 276.946 L235.127 276.946 L235.127 250.58 L226.816 252.247 L226.816 247.988 L235.08 246.321 L239.756 246.321 L239.756 276.946 L247.395 276.946 L247.395 280.881 L227.488 280.881 L227.488 276.946 Z" fill="#000000" fill-rule="nonzero" fill-opacity="1" /><path clip-path="url(#clip240)" d="M266.839 249.4 Q263.228 249.4 261.4 252.964 Q259.594 256.506 259.594 263.636 Q259.594 270.742 261.4 274.307 Q263.228 277.848 266.839 277.848 Q270.474 277.848 272.279 274.307 Q274.108 270.742 274.108 263.636 Q274.108 256.506 272.279 252.964 Q270.474 249.4 266.839 249.4 M266.839 245.696 Q272.65 245.696 275.705 250.302 Q278.784 254.886 278.784 263.636 Q278.784 272.362 275.705 276.969 Q272.65 281.552 266.839 281.552 Q261.029 281.552 257.951 276.969 Q254.895 272.362 254.895 263.636 Q254.895 254.886 257.951 250.302 Q261.029 245.696 266.839 245.696 Z" fill="#000000" fill-rule="nonzero" fill-opacity="1" /><path clip-path="url(#clip240)" d="M288.808 237.916 Q286.25 237.916 284.746 239.666 Q283.26 241.415 283.26 244.462 Q283.26 247.49 284.746 249.258 Q286.25 251.007 288.808 251.007 Q291.366 251.007 292.852 249.258 Q294.357 247.49 294.357 244.462 Q294.357 241.415 292.852 239.666 Q291.366 237.916 288.808 237.916 M296.35 226.011 L296.35 229.472 Q294.921 228.795 293.454 228.437 Q292.006 228.08 290.576 228.08 Q286.815 228.08 284.821 230.619 Q282.846 233.158 282.564 238.293 Q283.674 236.656 285.348 235.791 Q287.022 234.907 289.034 234.907 Q293.266 234.907 295.711 237.484 Q298.175 240.042 298.175 244.462 Q298.175 248.787 295.617 251.402 Q293.059 254.016 288.808 254.016 Q283.937 254.016 281.36 250.292 Q278.784 246.549 278.784 239.459 Q278.784 232.801 281.943 228.851 Q285.103 224.883 290.426 224.883 Q291.855 224.883 293.303 225.165 Q294.77 225.447 296.35 226.011 Z" fill="#000000" fill-rule="nonzero" fill-opacity="1" /><path clip-path="url(#clip240)" d="M160.195 708.254 L165.742 708.254 Q163.268 710.91 162.044 713.931 Q160.82 716.926 160.82 720.311 Q160.82 726.978 164.909 730.52 Q168.971 734.061 176.679 734.061 Q184.362 734.061 188.45 730.52 Q192.513 726.978 192.513 720.311 Q192.513 716.926 191.289 713.931 Q190.065 710.91 187.591 708.254 L193.086 708.254 Q194.961 711.015 195.898 714.114 Q196.836 717.186 196.836 720.624 Q196.836 729.452 191.445 734.53 Q186.028 739.608 176.679 739.608 Q167.304 739.608 161.914 734.53 Q156.497 729.452 156.497 720.624 Q156.497 717.134 157.435 714.061 Q158.346 710.963 160.195 708.254 Z" fill="#000000" fill-rule="nonzero" fill-opacity="1" /><path clip-path="url(#clip240)" d="M170.273 689.036 Q170.273 692.89 173.294 695.129 Q176.289 697.369 181.523 697.369 Q186.758 697.369 189.778 695.155 Q192.773 692.916 192.773 689.036 Q192.773 685.207 189.752 682.968 Q186.731 680.728 181.523 680.728 Q176.341 680.728 173.32 682.968 Q170.273 685.207 170.273 689.036 M166.211 689.036 Q166.211 682.786 170.273 679.218 Q174.336 675.65 181.523 675.65 Q188.685 675.65 192.773 679.218 Q196.836 682.786 196.836 689.036 Q196.836 695.312 192.773 698.879 Q188.685 702.421 181.523 702.421 Q174.336 702.421 170.273 698.879 Q166.211 695.312 166.211 689.036 Z" fill="#000000" fill-rule="nonzero" fill-opacity="1" /><path clip-path="url(#clip240)" d="M178.476 643.463 L196.08 643.463 L196.08 648.255 L178.633 648.255 Q174.492 648.255 172.435 649.869 Q170.377 651.484 170.377 654.713 Q170.377 658.593 172.851 660.833 Q175.325 663.072 179.596 663.072 L196.08 663.072 L196.08 667.89 L166.914 667.89 L166.914 663.072 L171.445 663.072 Q168.815 661.353 167.513 659.036 Q166.211 656.692 166.211 653.645 Q166.211 648.619 169.336 646.041 Q172.435 643.463 178.476 643.463 Z" fill="#000000" fill-rule="nonzero" fill-opacity="1" /><path clip-path="url(#clip240)" d="M171.341 614.713 L155.56 614.713 L155.56 609.921 L196.08 609.921 L196.08 614.713 L191.705 614.713 Q194.31 616.223 195.586 618.541 Q196.836 620.833 196.836 624.062 Q196.836 629.348 192.617 632.682 Q188.398 635.989 181.523 635.989 Q174.648 635.989 170.429 632.682 Q166.211 629.348 166.211 624.062 Q166.211 620.833 167.487 618.541 Q168.737 616.223 171.341 614.713 M181.523 631.041 Q186.81 631.041 189.83 628.88 Q192.825 626.692 192.825 622.89 Q192.825 619.088 189.83 616.901 Q186.81 614.713 181.523 614.713 Q176.237 614.713 173.242 616.901 Q170.221 619.088 170.221 622.89 Q170.221 626.692 173.242 628.88 Q176.237 631.041 181.523 631.041 Z" fill="#000000" fill-rule="nonzero" fill-opacity="1" /><path clip-path="url(#clip240)" d="M166.914 600.052 L166.914 595.26 L196.08 595.26 L196.08 600.052 L166.914 600.052 M155.56 600.052 L155.56 595.26 L161.627 595.26 L161.627 600.052 L155.56 600.052 Z" fill="#000000" fill-rule="nonzero" fill-opacity="1" /><path clip-path="url(#clip240)" d="M158.633 580.494 L166.914 580.494 L166.914 570.625 L170.638 570.625 L170.638 580.494 L186.471 580.494 Q190.039 580.494 191.054 579.531 Q192.07 578.541 192.07 575.547 L192.07 570.625 L196.08 570.625 L196.08 575.547 Q196.08 581.093 194.023 583.203 Q191.94 585.312 186.471 585.312 L170.638 585.312 L170.638 588.828 L166.914 588.828 L166.914 585.312 L158.633 585.312 L158.633 580.494 Z" fill="#000000" fill-rule="nonzero" fill-opacity="1" /><path clip-path="url(#clip240)" d="M166.914 564.323 L166.914 559.531 L196.08 559.531 L196.08 564.323 L166.914 564.323 M155.56 564.323 L155.56 559.531 L161.627 559.531 L161.627 564.323 L155.56 564.323 Z" fill="#000000" fill-rule="nonzero" fill-opacity="1" /><path clip-path="url(#clip240)" d="M170.273 538.203 Q170.273 542.057 173.294 544.297 Q176.289 546.536 181.523 546.536 Q186.758 546.536 189.778 544.323 Q192.773 542.083 192.773 538.203 Q192.773 534.375 189.752 532.135 Q186.731 529.896 181.523 529.896 Q176.341 529.896 173.32 532.135 Q170.273 534.375 170.273 538.203 M166.211 538.203 Q166.211 531.953 170.273 528.385 Q174.336 524.818 181.523 524.818 Q188.685 524.818 192.773 528.385 Q196.836 531.953 196.836 538.203 Q196.836 544.479 192.773 548.047 Q188.685 551.588 181.523 551.588 Q174.336 551.588 170.273 548.047 Q166.211 544.479 166.211 538.203 Z" fill="#000000" fill-rule="nonzero" fill-opacity="1" /><path clip-path="url(#clip240)" d="M178.476 492.63 L196.08 492.63 L196.08 497.422 L178.633 497.422 Q174.492 497.422 172.435 499.037 Q170.377 500.651 170.377 503.88 Q170.377 507.76 172.851 510 Q175.325 512.24 179.596 512.24 L196.08 512.24 L196.08 517.057 L166.914 517.057 L166.914 512.24 L171.445 512.24 Q168.815 510.521 167.513 508.203 Q166.211 505.859 166.211 502.813 Q166.211 497.787 169.336 495.208 Q172.435 492.63 178.476 492.63 Z" fill="#000000" fill-rule="nonzero" fill-opacity="1" /><path clip-path="url(#clip240)" d="M178.476 441.875 L196.08 441.875 L196.08 446.667 L178.633 446.667 Q174.492 446.667 172.435 448.282 Q170.377 449.896 170.377 453.125 Q170.377 457.006 172.851 459.245 Q175.325 461.485 179.596 461.485 L196.08 461.485 L196.08 466.302 L166.914 466.302 L166.914 461.485 L171.445 461.485 Q168.815 459.766 167.513 457.448 Q166.211 455.105 166.211 452.058 Q166.211 447.032 169.336 444.454 Q172.435 441.875 178.476 441.875 Z" fill="#000000" fill-rule="nonzero" fill-opacity="1" /><path clip-path="url(#clip240)" d="M184.57 432.813 L166.914 432.813 L166.914 428.021 L184.388 428.021 Q188.528 428.021 190.612 426.407 Q192.669 424.792 192.669 421.563 Q192.669 417.683 190.195 415.443 Q187.721 413.178 183.45 413.178 L166.914 413.178 L166.914 408.386 L196.08 408.386 L196.08 413.178 L191.601 413.178 Q194.257 414.922 195.56 417.24 Q196.836 419.532 196.836 422.579 Q196.836 427.605 193.711 430.209 Q190.586 432.813 184.57 432.813 M166.211 420.756 L166.211 420.756 Z" fill="#000000" fill-rule="nonzero" fill-opacity="1" /><path clip-path="url(#clip240)" d="M172.513 375.808 Q169.284 374.011 167.747 371.511 Q166.211 369.011 166.211 365.626 Q166.211 361.069 169.414 358.595 Q172.591 356.121 178.476 356.121 L196.08 356.121 L196.08 360.938 L178.633 360.938 Q174.44 360.938 172.409 362.423 Q170.377 363.907 170.377 366.954 Q170.377 370.678 172.851 372.839 Q175.325 375.001 179.596 375.001 L196.08 375.001 L196.08 379.818 L178.633 379.818 Q174.414 379.818 172.409 381.303 Q170.377 382.787 170.377 385.886 Q170.377 389.558 172.877 391.719 Q175.351 393.881 179.596 393.881 L196.08 393.881 L196.08 398.699 L166.914 398.699 L166.914 393.881 L171.445 393.881 Q168.763 392.24 167.487 389.949 Q166.211 387.657 166.211 384.506 Q166.211 381.329 167.825 379.115 Q169.44 376.876 172.513 375.808 Z" fill="#000000" fill-rule="nonzero" fill-opacity="1" /><path clip-path="url(#clip240)" d="M181.523 325.626 Q176.237 325.626 173.242 327.814 Q170.221 329.975 170.221 333.777 Q170.221 337.579 173.242 339.767 Q176.237 341.928 181.523 341.928 Q186.81 341.928 189.83 339.767 Q192.825 337.579 192.825 333.777 Q192.825 329.975 189.83 327.814 Q186.81 325.626 181.523 325.626 M171.341 341.928 Q168.737 340.418 167.487 338.126 Q166.211 335.808 166.211 332.605 Q166.211 327.293 170.429 323.985 Q174.648 320.652 181.523 320.652 Q188.398 320.652 192.617 323.985 Q196.836 327.293 196.836 332.605 Q196.836 335.808 195.586 338.126 Q194.31 340.418 191.705 341.928 L196.08 341.928 L196.08 346.746 L155.56 346.746 L155.56 341.928 L171.341 341.928 Z" fill="#000000" fill-rule="nonzero" fill-opacity="1" /><path clip-path="url(#clip240)" d="M180.299 287.762 L182.643 287.762 L182.643 309.793 Q187.591 309.48 190.195 306.824 Q192.773 304.142 192.773 299.376 Q192.773 296.616 192.096 294.038 Q191.419 291.434 190.065 288.881 L194.596 288.881 Q195.69 291.46 196.263 294.168 Q196.836 296.876 196.836 299.663 Q196.836 306.642 192.773 310.73 Q188.711 314.793 181.784 314.793 Q174.622 314.793 170.429 310.939 Q166.211 307.058 166.211 300.496 Q166.211 294.611 170.013 291.199 Q173.789 287.762 180.299 287.762 M178.893 292.553 Q174.961 292.605 172.617 294.767 Q170.273 296.902 170.273 300.444 Q170.273 304.454 172.539 306.876 Q174.804 309.272 178.919 309.637 L178.893 292.553 Z" fill="#000000" fill-rule="nonzero" fill-opacity="1" /><path clip-path="url(#clip240)" d="M171.393 262.996 Q170.924 263.803 170.716 264.767 Q170.482 265.704 170.482 266.85 Q170.482 270.913 173.138 273.1 Q175.768 275.262 180.716 275.262 L196.08 275.262 L196.08 280.079 L166.914 280.079 L166.914 275.262 L171.445 275.262 Q168.789 273.751 167.513 271.329 Q166.211 268.908 166.211 265.444 Q166.211 264.949 166.289 264.35 Q166.341 263.751 166.471 263.022 L171.393 262.996 Z" fill="#000000" fill-rule="nonzero" fill-opacity="1" /><path clip-path="url(#clip240)" d="M166.914 241.069 L166.914 236.121 L179.023 236.121 L166.914 223.543 L166.914 217.71 L177.903 229.194 L196.08 215.913 L196.08 221.772 L181.028 232.554 L184.388 236.121 L196.08 236.121 L196.08 241.069 L166.914 241.069 Z" fill="#000000" fill-rule="nonzero" fill-opacity="1" /><path clip-path="url(#clip240)" d="M155.612 198.075 Q161.601 201.564 167.461 203.257 Q173.32 204.95 179.336 204.95 Q185.351 204.95 191.263 203.257 Q197.148 201.538 203.112 198.075 L203.112 202.241 Q196.992 206.148 191.08 208.101 Q185.169 210.028 179.336 210.028 Q173.528 210.028 167.643 208.101 Q161.758 206.174 155.612 202.241 L155.612 198.075 Z" fill="#000000" fill-rule="nonzero" fill-opacity="1" /><path clip-path="url(#clip240)" d="M162.383 175.575 L181.731 182.71 L181.731 168.413 L162.383 175.575 M157.2 178.544 L157.2 172.58 L196.08 157.762 L196.08 163.231 L186.106 166.773 L186.106 184.299 L196.08 187.84 L196.08 193.387 L157.2 178.544 Z" fill="#000000" fill-rule="nonzero" fill-opacity="1" /><path clip-path="url(#clip240)" d="M155.612 153.049 L155.612 148.882 Q161.758 144.976 167.643 143.049 Q173.528 141.096 179.336 141.096 Q185.169 141.096 191.08 143.049 Q196.992 144.976 203.112 148.882 L203.112 153.049 Q197.148 149.585 191.263 147.893 Q185.351 146.174 179.336 146.174 Q173.32 146.174 167.461 147.893 Q161.601 149.585 155.612 153.049 Z" fill="#000000" fill-rule="nonzero" fill-opacity="1" /><path clip-path="url(#clip240)" d="M134.819 12.6041 Q128.453 12.6041 124.692 17.3494 Q120.959 22.0948 120.959 30.2834 Q120.959 38.4431 124.692 43.1884 Q128.453 47.9338 134.819 47.9338 Q141.184 47.9338 144.888 43.1884 Q148.621 38.4431 148.621 30.2834 Q148.621 22.0948 144.888 17.3494 Q141.184 12.6041 134.819 12.6041 M134.819 7.85875 Q143.904 7.85875 149.344 13.964 Q154.784 20.0404 154.784 30.2834 Q154.784 40.4975 149.344 46.6028 Q143.904 52.6791 134.819 52.6791 Q125.704 52.6791 120.236 46.6028 Q114.796 40.5264 114.796 30.2834 Q114.796 20.0404 120.236 13.964 Q125.704 7.85875 134.819 7.85875 Z" fill="#000000" fill-rule="nonzero" fill-opacity="1" /><path clip-path="url(#clip240)" d="M168.846 46.9789 L168.846 64.1663 L163.493 64.1663 L163.493 19.4328 L168.846 19.4328 L168.846 24.3517 Q170.525 21.4582 173.071 20.0693 Q175.646 18.6515 179.205 18.6515 Q185.108 18.6515 188.783 23.339 Q192.486 28.0265 192.486 35.6653 Q192.486 43.3042 188.783 47.9916 Q185.108 52.6791 179.205 52.6791 Q175.646 52.6791 173.071 51.2902 Q170.525 49.8724 168.846 46.9789 M186.96 35.6653 Q186.96 29.7915 184.529 26.464 Q182.128 23.1075 177.903 23.1075 Q173.679 23.1075 171.248 26.464 Q168.846 29.7915 168.846 35.6653 Q168.846 41.5391 171.248 44.8956 Q173.679 48.2231 177.903 48.2231 Q182.128 48.2231 184.529 44.8956 Q186.96 41.5391 186.96 35.6653 Z" fill="#000000" fill-rule="nonzero" fill-opacity="1" /><path clip-path="url(#clip240)" d="M229.031 34.3054 L229.031 36.9095 L204.552 36.9095 Q204.899 42.4072 207.851 45.3007 Q210.831 48.1653 216.126 48.1653 Q219.193 48.1653 222.058 47.4129 Q224.951 46.6606 227.787 45.156 L227.787 50.1907 Q224.922 51.406 221.913 52.0425 Q218.904 52.6791 215.808 52.6791 Q208.053 52.6791 203.511 48.1653 Q198.997 43.6514 198.997 35.9547 Q198.997 27.9975 203.279 23.339 Q207.59 18.6515 214.882 18.6515 Q221.421 18.6515 225.212 22.876 Q229.031 27.0716 229.031 34.3054 M223.707 32.7429 Q223.649 28.3737 221.248 25.7695 Q218.875 23.1654 214.94 23.1654 Q210.484 23.1654 207.793 25.6827 Q205.131 28.2001 204.726 32.7718 L223.707 32.7429 Z" fill="#000000" fill-rule="nonzero" fill-opacity="1" /><path clip-path="url(#clip240)" d="M256.548 24.4096 Q255.651 23.8888 254.581 23.6573 Q253.539 23.3969 252.266 23.3969 Q247.752 23.3969 245.322 26.3482 Q242.92 29.2707 242.92 34.7683 L242.92 51.84 L237.567 51.84 L237.567 19.4328 L242.92 19.4328 L242.92 24.4675 Q244.598 21.5161 247.289 20.0983 Q249.98 18.6515 253.829 18.6515 Q254.378 18.6515 255.044 18.7383 Q255.709 18.7962 256.52 18.9409 L256.548 24.4096 Z" fill="#000000" fill-rule="nonzero" fill-opacity="1" /><path clip-path="url(#clip240)" d="M276.861 35.5496 Q270.408 35.5496 267.92 37.0253 Q265.432 38.501 265.432 42.06 Q265.432 44.8956 267.283 46.5738 Q269.164 48.2231 272.376 48.2231 Q276.803 48.2231 279.465 45.0981 Q282.156 41.9442 282.156 36.7359 L282.156 35.5496 L276.861 35.5496 M287.48 33.3505 L287.48 51.84 L282.156 51.84 L282.156 46.921 Q280.333 49.8724 277.613 51.2902 Q274.893 52.6791 270.958 52.6791 Q265.981 52.6791 263.03 49.9014 Q260.107 47.0947 260.107 42.4072 Q260.107 36.9385 263.753 34.1607 Q267.428 31.3829 274.691 31.3829 L282.156 31.3829 L282.156 30.8621 Q282.156 27.1874 279.725 25.1908 Q277.324 23.1654 272.955 23.1654 Q270.177 23.1654 267.544 23.8309 Q264.911 24.4964 262.48 25.8274 L262.48 20.9085 Q265.403 19.78 268.151 19.2302 Q270.9 18.6515 273.504 18.6515 Q280.536 18.6515 284.008 22.2973 Q287.48 25.9431 287.48 33.3505 Z" fill="#000000" fill-rule="nonzero" fill-opacity="1" /><path clip-path="url(#clip240)" d="M303.713 10.2314 L303.713 19.4328 L314.679 19.4328 L314.679 23.5705 L303.713 23.5705 L303.713 41.163 Q303.713 45.1271 304.783 46.2555 Q305.883 47.384 309.21 47.384 L314.679 47.384 L314.679 51.84 L309.21 51.84 Q303.047 51.84 300.703 49.5541 Q298.36 47.2393 298.36 41.163 L298.36 23.5705 L294.453 23.5705 L294.453 19.4328 L298.36 19.4328 L298.36 10.2314 L303.713 10.2314 Z" fill="#000000" fill-rule="nonzero" fill-opacity="1" /><path clip-path="url(#clip240)" d="M334.239 23.1654 Q329.957 23.1654 327.468 26.5218 Q324.98 29.8494 324.98 35.6653 Q324.98 41.4813 327.439 44.8377 Q329.928 48.1653 334.239 48.1653 Q338.492 48.1653 340.981 44.8088 Q343.469 41.4523 343.469 35.6653 Q343.469 29.9072 340.981 26.5508 Q338.492 23.1654 334.239 23.1654 M334.239 18.6515 Q341.183 18.6515 345.148 23.1654 Q349.112 27.6792 349.112 35.6653 Q349.112 43.6225 345.148 48.1653 Q341.183 52.6791 334.239 52.6791 Q327.266 52.6791 323.302 48.1653 Q319.366 43.6225 319.366 35.6653 Q319.366 27.6792 323.302 23.1654 Q327.266 18.6515 334.239 18.6515 Z" fill="#000000" fill-rule="nonzero" fill-opacity="1" /><path clip-path="url(#clip240)" d="M376.716 24.4096 Q375.819 23.8888 374.748 23.6573 Q373.706 23.3969 372.433 23.3969 Q367.919 23.3969 365.489 26.3482 Q363.087 29.2707 363.087 34.7683 L363.087 51.84 L357.734 51.84 L357.734 19.4328 L363.087 19.4328 L363.087 24.4675 Q364.765 21.5161 367.456 20.0983 Q370.147 18.6515 373.996 18.6515 Q374.546 18.6515 375.211 18.7383 Q375.877 18.7962 376.687 18.9409 L376.716 24.4096 Z" fill="#000000" fill-rule="nonzero" fill-opacity="1" /><path clip-path="url(#clip240)" d="M424.458 20.677 L424.458 25.6538 Q422.202 24.4096 419.916 23.802 Q417.659 23.1654 415.344 23.1654 Q410.165 23.1654 407.3 26.464 Q404.435 29.7336 404.435 35.6653 Q404.435 41.597 407.3 44.8956 Q410.165 48.1653 415.344 48.1653 Q417.659 48.1653 419.916 47.5576 Q422.202 46.921 424.458 45.6768 L424.458 50.5958 Q422.23 51.6375 419.829 52.1583 Q417.456 52.6791 414.765 52.6791 Q407.445 52.6791 403.133 48.0784 Q398.822 43.4778 398.822 35.6653 Q398.822 27.7371 403.162 23.1943 Q407.531 18.6515 415.112 18.6515 Q417.572 18.6515 419.916 19.1724 Q422.259 19.6642 424.458 20.677 Z" fill="#000000" fill-rule="nonzero" fill-opacity="1" /><path clip-path="url(#clip240)" d="M446.275 23.1654 Q441.993 23.1654 439.505 26.5218 Q437.016 29.8494 437.016 35.6653 Q437.016 41.4813 439.476 44.8377 Q441.964 48.1653 446.275 48.1653 Q450.529 48.1653 453.017 44.8088 Q455.506 41.4523 455.506 35.6653 Q455.506 29.9072 453.017 26.5508 Q450.529 23.1654 446.275 23.1654 M446.275 18.6515 Q453.22 18.6515 457.184 23.1654 Q461.148 27.6792 461.148 35.6653 Q461.148 43.6225 457.184 48.1653 Q453.22 52.6791 446.275 52.6791 Q439.302 52.6791 435.338 48.1653 Q431.403 43.6225 431.403 35.6653 Q431.403 27.6792 435.338 23.1654 Q439.302 18.6515 446.275 18.6515 Z" fill="#000000" fill-rule="nonzero" fill-opacity="1" /><path clip-path="url(#clip240)" d="M496.912 32.2799 L496.912 51.84 L491.588 51.84 L491.588 32.4535 Q491.588 27.8529 489.794 25.567 Q488 23.2811 484.412 23.2811 Q480.1 23.2811 477.612 26.03 Q475.124 28.7788 475.124 33.5241 L475.124 51.84 L469.771 51.84 L469.771 19.4328 L475.124 19.4328 L475.124 24.4675 Q477.033 21.545 479.609 20.0983 Q482.213 18.6515 485.598 18.6515 Q491.183 18.6515 494.047 22.1237 Q496.912 25.567 496.912 32.2799 Z" fill="#000000" fill-rule="nonzero" fill-opacity="1" /><path clip-path="url(#clip240)" d="M528.856 24.3517 L528.856 6.81709 L534.18 6.81709 L534.18 51.84 L528.856 51.84 L528.856 46.9789 Q527.178 49.8724 524.603 51.2902 Q522.056 52.6791 518.468 52.6791 Q512.595 52.6791 508.891 47.9916 Q505.216 43.3042 505.216 35.6653 Q505.216 28.0265 508.891 23.339 Q512.595 18.6515 518.468 18.6515 Q522.056 18.6515 524.603 20.0693 Q527.178 21.4582 528.856 24.3517 M510.714 35.6653 Q510.714 41.5391 513.115 44.8956 Q515.546 48.2231 519.77 48.2231 Q523.995 48.2231 526.425 44.8956 Q528.856 41.5391 528.856 35.6653 Q528.856 29.7915 526.425 26.464 Q523.995 23.1075 519.77 23.1075 Q515.546 23.1075 513.115 26.464 Q510.714 29.7915 510.714 35.6653 Z" fill="#000000" fill-rule="nonzero" fill-opacity="1" /><path clip-path="url(#clip240)" d="M545.146 19.4328 L550.47 19.4328 L550.47 51.84 L545.146 51.84 L545.146 19.4328 M545.146 6.81709 L550.47 6.81709 L550.47 13.559 L545.146 13.559 L545.146 6.81709 Z" fill="#000000" fill-rule="nonzero" fill-opacity="1" /><path clip-path="url(#clip240)" d="M566.877 10.2314 L566.877 19.4328 L577.843 19.4328 L577.843 23.5705 L566.877 23.5705 L566.877 41.163 Q566.877 45.1271 567.947 46.2555 Q569.047 47.384 572.374 47.384 L577.843 47.384 L577.843 51.84 L572.374 51.84 Q566.211 51.84 563.867 49.5541 Q561.524 47.2393 561.524 41.163 L561.524 23.5705 L557.617 23.5705 L557.617 19.4328 L561.524 19.4328 L561.524 10.2314 L566.877 10.2314 Z" fill="#000000" fill-rule="nonzero" fill-opacity="1" /><path clip-path="url(#clip240)" d="M584.845 19.4328 L590.169 19.4328 L590.169 51.84 L584.845 51.84 L584.845 19.4328 M584.845 6.81709 L590.169 6.81709 L590.169 13.559 L584.845 13.559 L584.845 6.81709 Z" fill="#000000" fill-rule="nonzero" fill-opacity="1" /><path clip-path="url(#clip240)" d="M613.867 23.1654 Q609.585 23.1654 607.096 26.5218 Q604.608 29.8494 604.608 35.6653 Q604.608 41.4813 607.067 44.8377 Q609.556 48.1653 613.867 48.1653 Q618.121 48.1653 620.609 44.8088 Q623.097 41.4523 623.097 35.6653 Q623.097 29.9072 620.609 26.5508 Q618.121 23.1654 613.867 23.1654 M613.867 18.6515 Q620.812 18.6515 624.776 23.1654 Q628.74 27.6792 628.74 35.6653 Q628.74 43.6225 624.776 48.1653 Q620.812 52.6791 613.867 52.6791 Q606.894 52.6791 602.93 48.1653 Q598.995 43.6225 598.995 35.6653 Q598.995 27.6792 602.93 23.1654 Q606.894 18.6515 613.867 18.6515 Z" fill="#000000" fill-rule="nonzero" fill-opacity="1" /><path clip-path="url(#clip240)" d="M664.503 32.2799 L664.503 51.84 L659.179 51.84 L659.179 32.4535 Q659.179 27.8529 657.385 25.567 Q655.591 23.2811 652.004 23.2811 Q647.692 23.2811 645.204 26.03 Q642.715 28.7788 642.715 33.5241 L642.715 51.84 L637.362 51.84 L637.362 19.4328 L642.715 19.4328 L642.715 24.4675 Q644.625 21.545 647.2 20.0983 Q649.804 18.6515 653.19 18.6515 Q658.774 18.6515 661.639 22.1237 Q664.503 25.567 664.503 32.2799 Z" fill="#000000" fill-rule="nonzero" fill-opacity="1" /><path clip-path="url(#clip240)" d="M675.123 19.4328 L680.447 19.4328 L680.447 51.84 L675.123 51.84 L675.123 19.4328 M675.123 6.81709 L680.447 6.81709 L680.447 13.559 L675.123 13.559 L675.123 6.81709 Z" fill="#000000" fill-rule="nonzero" fill-opacity="1" /><path clip-path="url(#clip240)" d="M718.525 32.2799 L718.525 51.84 L713.201 51.84 L713.201 32.4535 Q713.201 27.8529 711.407 25.567 Q709.613 23.2811 706.025 23.2811 Q701.714 23.2811 699.225 26.03 Q696.737 28.7788 696.737 33.5241 L696.737 51.84 L691.384 51.84 L691.384 19.4328 L696.737 19.4328 L696.737 24.4675 Q698.647 21.545 701.222 20.0983 Q703.826 18.6515 707.212 18.6515 Q712.796 18.6515 715.661 22.1237 Q718.525 25.567 718.525 32.2799 Z" fill="#000000" fill-rule="nonzero" fill-opacity="1" /><path clip-path="url(#clip240)" d="M750.469 35.2602 Q750.469 29.4732 748.068 26.2904 Q745.695 23.1075 741.384 23.1075 Q737.101 23.1075 734.7 26.2904 Q732.327 29.4732 732.327 35.2602 Q732.327 41.0183 734.7 44.2012 Q737.101 47.384 741.384 47.384 Q745.695 47.384 748.068 44.2012 Q750.469 41.0183 750.469 35.2602 M755.793 47.818 Q755.793 56.0934 752.119 60.1154 Q748.444 64.1663 740.863 64.1663 Q738.056 64.1663 735.568 63.7323 Q733.079 63.3272 730.736 62.4592 L730.736 57.2798 Q733.079 58.5529 735.365 59.1606 Q737.651 59.7682 740.024 59.7682 Q745.261 59.7682 747.865 57.0194 Q750.469 54.2995 750.469 48.7729 L750.469 46.1398 Q748.82 49.0044 746.245 50.4222 Q743.67 51.84 740.082 51.84 Q734.121 51.84 730.475 47.2972 Q726.829 42.7544 726.829 35.2602 Q726.829 27.7371 730.475 23.1943 Q734.121 18.6515 740.082 18.6515 Q743.67 18.6515 746.245 20.0693 Q748.82 21.4872 750.469 24.3517 L750.469 19.4328 L755.793 19.4328 L755.793 47.818 Z" fill="#000000" fill-rule="nonzero" fill-opacity="1" /><path clip-path="url(#clip240)" d="M817.223 6.87496 Q813.345 13.53 811.464 20.0404 Q809.584 26.5508 809.584 33.2348 Q809.584 39.9188 811.464 46.487 Q813.374 53.0263 817.223 59.6525 L812.593 59.6525 Q808.253 52.8527 806.083 46.2845 Q803.941 39.7162 803.941 33.2348 Q803.941 26.7823 806.083 20.2429 Q808.224 13.7036 812.593 6.87496 L817.223 6.87496 Z" fill="#000000" fill-rule="nonzero" fill-opacity="1" /><path clip-path="url(#clip240)" d="M842.222 14.3981 L834.294 35.8968 L850.18 35.8968 L842.222 14.3981 M838.924 8.64 L845.55 8.64 L862.014 51.84 L855.938 51.84 L852.002 40.7579 L832.529 40.7579 L828.594 51.84 L822.431 51.84 L838.924 8.64 Z" fill="#000000" fill-rule="nonzero" fill-opacity="1" /><path clip-path="url(#clip240)" d="M874.167 31.2093 L874.167 47.0368 L883.542 47.0368 Q888.258 47.0368 890.515 45.0981 Q892.801 43.1306 892.801 39.1086 Q892.801 35.0577 890.515 33.148 Q888.258 31.2093 883.542 31.2093 L874.167 31.2093 M874.167 13.4432 L874.167 26.464 L882.818 26.464 Q887.101 26.464 889.184 24.8726 Q891.296 23.2522 891.296 19.9536 Q891.296 16.6839 889.184 15.0636 Q887.101 13.4432 882.818 13.4432 L874.167 13.4432 M868.322 8.64 L883.252 8.64 Q889.936 8.64 893.553 11.4178 Q897.17 14.1955 897.17 19.317 Q897.17 23.2811 895.318 25.6249 Q893.466 27.9686 889.878 28.5473 Q894.19 29.4732 896.562 32.4246 Q898.964 35.347 898.964 39.7452 Q898.964 45.5322 895.029 48.6861 Q891.094 51.84 883.831 51.84 L868.322 51.84 L868.322 8.64 Z" fill="#000000" fill-rule="nonzero" fill-opacity="1" /><path clip-path="url(#clip240)" d="M965.37 22.442 L937.592 30.457 L965.37 38.3852 L965.37 43.5356 L928.275 32.8876 L928.275 27.9686 L965.37 17.3494 L965.37 22.442 M928.275 46.921 L965.37 46.921 L965.37 51.84 L928.275 51.84 L928.275 46.921 Z" fill="#000000" fill-rule="nonzero" fill-opacity="1" /><path clip-path="url(#clip240)" d="M1010.05 27.9107 Q1006.11 27.9107 1003.8 30.6017 Q1001.51 33.2926 1001.51 37.9801 Q1001.51 42.6387 1003.8 45.3586 Q1006.11 48.0495 1010.05 48.0495 Q1013.98 48.0495 1016.27 45.3586 Q1018.58 42.6387 1018.58 37.9801 Q1018.58 33.2926 1016.27 30.6017 Q1013.98 27.9107 1010.05 27.9107 M1021.65 9.59486 L1021.65 14.9189 Q1019.45 13.8772 1017.19 13.3275 Q1014.96 12.7777 1012.77 12.7777 Q1006.98 12.7777 1003.91 16.6839 Q1000.87 20.5902 1000.44 28.4894 Q1002.15 25.9721 1004.72 24.6411 Q1007.3 23.2811 1010.39 23.2811 Q1016.9 23.2811 1020.66 27.2452 Q1024.46 31.1804 1024.46 37.9801 Q1024.46 44.6352 1020.52 48.6571 Q1016.58 52.6791 1010.05 52.6791 Q1002.55 52.6791 998.587 46.95 Q994.623 41.1919 994.623 30.2834 Q994.623 20.0404 999.484 13.964 Q1004.35 7.85875 1012.53 7.85875 Q1014.73 7.85875 1016.96 8.29278 Q1019.22 8.72681 1021.65 9.59486 Z" fill="#000000" fill-rule="nonzero" fill-opacity="1" /><path clip-path="url(#clip240)" d="M1047.02 12.4884 Q1042.51 12.4884 1040.22 16.9444 Q1037.97 21.3714 1037.97 30.2834 Q1037.97 39.1665 1040.22 43.6225 Q1042.51 48.0495 1047.02 48.0495 Q1051.57 48.0495 1053.82 43.6225 Q1056.11 39.1665 1056.11 30.2834 Q1056.11 21.3714 1053.82 16.9444 Q1051.57 12.4884 1047.02 12.4884 M1047.02 7.85875 Q1054.29 7.85875 1058.11 13.6168 Q1061.96 19.346 1061.96 30.2834 Q1061.96 41.1919 1058.11 46.95 Q1054.29 52.6791 1047.02 52.6791 Q1039.76 52.6791 1035.91 46.95 Q1032.09 41.1919 1032.09 30.2834 Q1032.09 19.346 1035.91 13.6168 Q1039.76 7.85875 1047.02 7.85875 Z" fill="#000000" fill-rule="nonzero" fill-opacity="1" /><path clip-path="url(#clip240)" d="M1113.63 20.677 L1113.63 25.6538 Q1111.38 24.4096 1109.09 23.802 Q1106.83 23.1654 1104.52 23.1654 Q1099.34 23.1654 1096.47 26.464 Q1093.61 29.7336 1093.61 35.6653 Q1093.61 41.597 1096.47 44.8956 Q1099.34 48.1653 1104.52 48.1653 Q1106.83 48.1653 1109.09 47.5576 Q1111.38 46.921 1113.63 45.6768 L1113.63 50.5958 Q1111.4 51.6375 1109 52.1583 Q1106.63 52.6791 1103.94 52.6791 Q1096.62 52.6791 1092.31 48.0784 Q1088 43.4778 1088 35.6653 Q1088 27.7371 1092.34 23.1943 Q1096.71 18.6515 1104.29 18.6515 Q1106.75 18.6515 1109.09 19.1724 Q1111.43 19.6642 1113.63 20.677 Z" fill="#000000" fill-rule="nonzero" fill-opacity="1" /><path clip-path="url(#clip240)" d="M1148.12 25.6538 Q1150.12 22.0659 1152.9 20.3587 Q1155.68 18.6515 1159.44 18.6515 Q1164.5 18.6515 1167.25 22.2105 Q1170 25.7406 1170 32.2799 L1170 51.84 L1164.65 51.84 L1164.65 32.4535 Q1164.65 27.795 1163 25.5381 Q1161.35 23.2811 1157.96 23.2811 Q1153.82 23.2811 1151.42 26.03 Q1149.02 28.7788 1149.02 33.5241 L1149.02 51.84 L1143.67 51.84 L1143.67 32.4535 Q1143.67 27.7661 1142.02 25.5381 Q1140.37 23.2811 1136.93 23.2811 Q1132.85 23.2811 1130.44 26.0589 Q1128.04 28.8077 1128.04 33.5241 L1128.04 51.84 L1122.69 51.84 L1122.69 19.4328 L1128.04 19.4328 L1128.04 24.4675 Q1129.87 21.4872 1132.41 20.0693 Q1134.96 18.6515 1138.46 18.6515 Q1141.99 18.6515 1144.45 20.4455 Q1146.94 22.2395 1148.12 25.6538 Z" fill="#000000" fill-rule="nonzero" fill-opacity="1" /><path clip-path="url(#clip240)" d="M1190.08 8.64 L1195 8.64 L1179.95 57.3377 L1175.03 57.3377 L1190.08 8.64 Z" fill="#000000" fill-rule="nonzero" fill-opacity="1" /><path clip-path="url(#clip240)" d="M1221.24 20.3876 L1221.24 25.4223 Q1218.99 24.2649 1216.55 23.6862 Q1214.12 23.1075 1211.52 23.1075 Q1207.56 23.1075 1205.56 24.3228 Q1203.59 25.5381 1203.59 27.9686 Q1203.59 29.8204 1205.01 30.891 Q1206.43 31.9327 1210.71 32.8876 L1212.53 33.2926 Q1218.2 34.5079 1220.58 36.7359 Q1222.98 38.935 1222.98 42.8991 Q1222.98 47.4129 1219.39 50.046 Q1215.83 52.6791 1209.58 52.6791 Q1206.98 52.6791 1204.14 52.1583 Q1201.34 51.6664 1198.21 50.6537 L1198.21 45.156 Q1201.16 46.6896 1204.03 47.4708 Q1206.89 48.2231 1209.7 48.2231 Q1213.46 48.2231 1215.48 46.95 Q1217.51 45.6479 1217.51 43.3042 Q1217.51 41.134 1216.03 39.9766 Q1214.59 38.8192 1209.64 37.7486 L1207.79 37.3146 Q1202.84 36.273 1200.64 34.1318 Q1198.44 31.9616 1198.44 28.2001 Q1198.44 23.6283 1201.68 21.1399 Q1204.92 18.6515 1210.88 18.6515 Q1213.83 18.6515 1216.44 19.0855 Q1219.04 19.5196 1221.24 20.3876 Z" fill="#000000" fill-rule="nonzero" fill-opacity="1" /><path clip-path="url(#clip240)" d="M1230.62 6.87496 L1235.25 6.87496 Q1239.59 13.7036 1241.73 20.2429 Q1243.9 26.7823 1243.9 33.2348 Q1243.9 39.7162 1241.73 46.2845 Q1239.59 52.8527 1235.25 59.6525 L1230.62 59.6525 Q1234.47 53.0263 1236.35 46.487 Q1238.26 39.9188 1238.26 33.2348 Q1238.26 26.5508 1236.35 20.0404 Q1234.47 13.53 1230.62 6.87496 Z" fill="#000000" fill-rule="nonzero" fill-opacity="1" /><circle clip-path="url(#clip242)" cx="378.647" cy="410.602" r="10.8" fill="#4482b5" fill-rule="evenodd" fill-opacity="0.65" stroke="none"/>
<circle clip-path="url(#clip242)" cx="406.626" cy="411.547" r="10.8" fill="#4482b5" fill-rule="evenodd" fill-opacity="0.65" stroke="none"/>
<circle clip-path="url(#clip242)" cx="424.798" cy="560.661" r="10.8" fill="#4482b5" fill-rule="evenodd" fill-opacity="0.65" stroke="none"/>
<circle clip-path="url(#clip242)" cx="413.268" cy="558.705" r="10.8" fill="#4482b5" fill-rule="evenodd" fill-opacity="0.65" stroke="none"/>
<circle clip-path="url(#clip242)" cx="380.009" cy="384.717" r="10.8" fill="#4482b5" fill-rule="evenodd" fill-opacity="0.65" stroke="none"/>
<circle clip-path="url(#clip242)" cx="368.245" cy="381.009" r="10.8" fill="#4482b5" fill-rule="evenodd" fill-opacity="0.65" stroke="none"/>
<circle clip-path="url(#clip242)" cx="386.474" cy="376.127" r="10.8" fill="#4482b5" fill-rule="evenodd" fill-opacity="0.65" stroke="none"/>
<circle clip-path="url(#clip242)" cx="412.264" cy="349.013" r="10.8" fill="#4482b5" fill-rule="evenodd" fill-opacity="0.65" stroke="none"/>
<circle clip-path="url(#clip242)" cx="406.21" cy="356.636" r="10.8" fill="#4482b5" fill-rule="evenodd" fill-opacity="0.65" stroke="none"/>
<circle clip-path="url(#clip242)" cx="389.649" cy="386.718" r="10.8" fill="#4482b5" fill-rule="evenodd" fill-opacity="0.65" stroke="none"/>
<circle clip-path="url(#clip242)" cx="400.331" cy="350.649" r="10.8" fill="#4482b5" fill-rule="evenodd" fill-opacity="0.65" stroke="none"/>
<circle clip-path="url(#clip242)" cx="394.148" cy="384.326" r="10.8" fill="#4482b5" fill-rule="evenodd" fill-opacity="0.65" stroke="none"/>
<circle clip-path="url(#clip242)" cx="378.931" cy="562.296" r="10.8" fill="#4482b5" fill-rule="evenodd" fill-opacity="0.65" stroke="none"/>
<circle clip-path="url(#clip242)" cx="421.489" cy="566.6" r="10.8" fill="#4482b5" fill-rule="evenodd" fill-opacity="0.65" stroke="none"/>
<circle clip-path="url(#clip242)" cx="420.57" cy="564.751" r="10.8" fill="#4482b5" fill-rule="evenodd" fill-opacity="0.65" stroke="none"/>
<circle clip-path="url(#clip242)" cx="426.064" cy="563.187" r="10.8" fill="#4482b5" fill-rule="evenodd" fill-opacity="0.65" stroke="none"/>
<circle clip-path="url(#clip242)" cx="415.371" cy="565.884" r="10.8" fill="#4482b5" fill-rule="evenodd" fill-opacity="0.65" stroke="none"/>
<circle clip-path="url(#clip242)" cx="419.959" cy="563.906" r="10.8" fill="#4482b5" fill-rule="evenodd" fill-opacity="0.65" stroke="none"/>
<circle clip-path="url(#clip242)" cx="424.752" cy="484.773" r="10.8" fill="#4482b5" fill-rule="evenodd" fill-opacity="0.65" stroke="none"/>
<circle clip-path="url(#clip242)" cx="396.661" cy="564.765" r="10.8" fill="#4482b5" fill-rule="evenodd" fill-opacity="0.65" stroke="none"/>
<circle clip-path="url(#clip242)" cx="406.284" cy="560.465" r="10.8" fill="#4482b5" fill-rule="evenodd" fill-opacity="0.65" stroke="none"/>
<circle clip-path="url(#clip242)" cx="407.093" cy="559.187" r="10.8" fill="#4482b5" fill-rule="evenodd" fill-opacity="0.65" stroke="none"/>
<circle clip-path="url(#clip242)" cx="386.539" cy="558.322" r="10.8" fill="#4482b5" fill-rule="evenodd" fill-opacity="0.65" stroke="none"/>
<circle clip-path="url(#clip242)" cx="376.378" cy="564.696" r="10.8" fill="#4482b5" fill-rule="evenodd" fill-opacity="0.65" stroke="none"/>
<circle clip-path="url(#clip242)" cx="402.225" cy="534.05" r="10.8" fill="#4482b5" fill-rule="evenodd" fill-opacity="0.65" stroke="none"/>
<circle clip-path="url(#clip242)" cx="419.843" cy="559.077" r="10.8" fill="#4482b5" fill-rule="evenodd" fill-opacity="0.65" stroke="none"/>
<circle clip-path="url(#clip242)" cx="404.23" cy="566.518" r="10.8" fill="#4482b5" fill-rule="evenodd" fill-opacity="0.65" stroke="none"/>
<circle clip-path="url(#clip242)" cx="421.825" cy="566.953" r="10.8" fill="#4482b5" fill-rule="evenodd" fill-opacity="0.65" stroke="none"/>
<circle clip-path="url(#clip242)" cx="407.805" cy="561.558" r="10.8" fill="#4482b5" fill-rule="evenodd" fill-opacity="0.65" stroke="none"/>
<circle clip-path="url(#clip242)" cx="380.266" cy="561.822" r="10.8" fill="#4482b5" fill-rule="evenodd" fill-opacity="0.65" stroke="none"/>
<circle clip-path="url(#clip242)" cx="407.473" cy="566.704" r="10.8" fill="#4482b5" fill-rule="evenodd" fill-opacity="0.65" stroke="none"/>
<polyline clip-path="url(#clip242)" style="stroke:#000000; stroke-linecap:round; stroke-linejoin:round; stroke-width:12; stroke-opacity:1; fill:none" points="336.731,559.187 460.298,559.187 "/>
<polyline clip-path="url(#clip242)" style="stroke:#000000; stroke-linecap:round; stroke-linejoin:round; stroke-width:8; stroke-opacity:1; fill:none" points="398.515,564.299 398.515,396.758 "/>
<circle clip-path="url(#clip242)" cx="673.512" cy="304.627" r="10.8" fill="#ff8c00" fill-rule="evenodd" fill-opacity="0.65" stroke="none"/>
<circle clip-path="url(#clip242)" cx="701.621" cy="283.844" r="10.8" fill="#ff8c00" fill-rule="evenodd" fill-opacity="0.65" stroke="none"/>
<circle clip-path="url(#clip242)" cx="699.244" cy="409.339" r="10.8" fill="#ff8c00" fill-rule="evenodd" fill-opacity="0.65" stroke="none"/>
<circle clip-path="url(#clip242)" cx="678.763" cy="318.678" r="10.8" fill="#ff8c00" fill-rule="evenodd" fill-opacity="0.65" stroke="none"/>
<circle clip-path="url(#clip242)" cx="671.104" cy="605.087" r="10.8" fill="#ff8c00" fill-rule="evenodd" fill-opacity="0.65" stroke="none"/>
<circle clip-path="url(#clip242)" cx="652.042" cy="568.868" r="10.8" fill="#ff8c00" fill-rule="evenodd" fill-opacity="0.65" stroke="none"/>
<circle clip-path="url(#clip242)" cx="660.064" cy="362.641" r="10.8" fill="#ff8c00" fill-rule="evenodd" fill-opacity="0.65" stroke="none"/>
<circle clip-path="url(#clip242)" cx="694.388" cy="642.801" r="10.8" fill="#ff8c00" fill-rule="evenodd" fill-opacity="0.65" stroke="none"/>
<circle clip-path="url(#clip242)" cx="695.02" cy="613.452" r="10.8" fill="#ff8c00" fill-rule="evenodd" fill-opacity="0.65" stroke="none"/>
<circle clip-path="url(#clip242)" cx="650.476" cy="356.788" r="10.8" fill="#ff8c00" fill-rule="evenodd" fill-opacity="0.65" stroke="none"/>
<circle clip-path="url(#clip242)" cx="660.745" cy="618.868" r="10.8" fill="#ff8c00" fill-rule="evenodd" fill-opacity="0.65" stroke="none"/>
<circle clip-path="url(#clip242)" cx="650.604" cy="602.343" r="10.8" fill="#ff8c00" fill-rule="evenodd" fill-opacity="0.65" stroke="none"/>
<circle clip-path="url(#clip242)" cx="702.052" cy="499.079" r="10.8" fill="#ff8c00" fill-rule="evenodd" fill-opacity="0.65" stroke="none"/>
<circle clip-path="url(#clip242)" cx="671.287" cy="480.264" r="10.8" fill="#ff8c00" fill-rule="evenodd" fill-opacity="0.65" stroke="none"/>
<circle clip-path="url(#clip242)" cx="681.388" cy="512.128" r="10.8" fill="#ff8c00" fill-rule="evenodd" fill-opacity="0.65" stroke="none"/>
<circle clip-path="url(#clip242)" cx="658.135" cy="290.08" r="10.8" fill="#ff8c00" fill-rule="evenodd" fill-opacity="0.65" stroke="none"/>
<circle clip-path="url(#clip242)" cx="653.681" cy="315.577" r="10.8" fill="#ff8c00" fill-rule="evenodd" fill-opacity="0.65" stroke="none"/>
<circle clip-path="url(#clip242)" cx="700.506" cy="591.895" r="10.8" fill="#ff8c00" fill-rule="evenodd" fill-opacity="0.65" stroke="none"/>
<circle clip-path="url(#clip242)" cx="656.992" cy="538.691" r="10.8" fill="#ff8c00" fill-rule="evenodd" fill-opacity="0.65" stroke="none"/>
<circle clip-path="url(#clip242)" cx="696.164" cy="642.484" r="10.8" fill="#ff8c00" fill-rule="evenodd" fill-opacity="0.65" stroke="none"/>
<circle clip-path="url(#clip242)" cx="691.852" cy="406.359" r="10.8" fill="#ff8c00" fill-rule="evenodd" fill-opacity="0.65" stroke="none"/>
<circle clip-path="url(#clip242)" cx="652.612" cy="348.593" r="10.8" fill="#ff8c00" fill-rule="evenodd" fill-opacity="0.65" stroke="none"/>
<circle clip-path="url(#clip242)" cx="679.267" cy="367.155" r="10.8" fill="#ff8c00" fill-rule="evenodd" fill-opacity="0.65" stroke="none"/>
<circle clip-path="url(#clip242)" cx="661.739" cy="354.383" r="10.8" fill="#ff8c00" fill-rule="evenodd" fill-opacity="0.65" stroke="none"/>
<circle clip-path="url(#clip242)" cx="674.362" cy="392.388" r="10.8" fill="#ff8c00" fill-rule="evenodd" fill-opacity="0.65" stroke="none"/>
<circle clip-path="url(#clip242)" cx="688.934" cy="264.367" r="10.8" fill="#ff8c00" fill-rule="evenodd" fill-opacity="0.65" stroke="none"/>
<circle clip-path="url(#clip242)" cx="708.761" cy="316.768" r="10.8" fill="#ff8c00" fill-rule="evenodd" fill-opacity="0.65" stroke="none"/>
<circle clip-path="url(#clip242)" cx="656.504" cy="293.957" r="10.8" fill="#ff8c00" fill-rule="evenodd" fill-opacity="0.65" stroke="none"/>
<circle clip-path="url(#clip242)" cx="710.021" cy="234.454" r="10.8" fill="#ff8c00" fill-rule="evenodd" fill-opacity="0.65" stroke="none"/>
<circle clip-path="url(#clip242)" cx="655.101" cy="640.395" r="10.8" fill="#ff8c00" fill-rule="evenodd" fill-opacity="0.65" stroke="none"/>
<circle clip-path="url(#clip242)" cx="654.556" cy="602.767" r="10.8" fill="#ff8c00" fill-rule="evenodd" fill-opacity="0.65" stroke="none"/>
<circle clip-path="url(#clip242)" cx="660.541" cy="605.077" r="10.8" fill="#ff8c00" fill-rule="evenodd" fill-opacity="0.65" stroke="none"/>
<circle clip-path="url(#clip242)" cx="650.431" cy="645.213" r="10.8" fill="#ff8c00" fill-rule="evenodd" fill-opacity="0.65" stroke="none"/>
<circle clip-path="url(#clip242)" cx="675.519" cy="604.446" r="10.8" fill="#ff8c00" fill-rule="evenodd" fill-opacity="0.65" stroke="none"/>
<circle clip-path="url(#clip242)" cx="669.865" cy="585.265" r="10.8" fill="#ff8c00" fill-rule="evenodd" fill-opacity="0.65" stroke="none"/>
<circle clip-path="url(#clip242)" cx="694.851" cy="632.372" r="10.8" fill="#ff8c00" fill-rule="evenodd" fill-opacity="0.65" stroke="none"/>
<circle clip-path="url(#clip242)" cx="680.93" cy="641.293" r="10.8" fill="#ff8c00" fill-rule="evenodd" fill-opacity="0.65" stroke="none"/>
<circle clip-path="url(#clip242)" cx="672.835" cy="635.635" r="10.8" fill="#ff8c00" fill-rule="evenodd" fill-opacity="0.65" stroke="none"/>
<circle clip-path="url(#clip242)" cx="673.741" cy="638.328" r="10.8" fill="#ff8c00" fill-rule="evenodd" fill-opacity="0.65" stroke="none"/>
<circle clip-path="url(#clip242)" cx="675.481" cy="414.179" r="10.8" fill="#ff8c00" fill-rule="evenodd" fill-opacity="0.65" stroke="none"/>
<circle clip-path="url(#clip242)" cx="701" cy="546.441" r="10.8" fill="#ff8c00" fill-rule="evenodd" fill-opacity="0.65" stroke="none"/>
<circle clip-path="url(#clip242)" cx="703.192" cy="283.263" r="10.8" fill="#ff8c00" fill-rule="evenodd" fill-opacity="0.65" stroke="none"/>
<circle clip-path="url(#clip242)" cx="690.877" cy="602.853" r="10.8" fill="#ff8c00" fill-rule="evenodd" fill-opacity="0.65" stroke="none"/>
<circle clip-path="url(#clip242)" cx="677.694" cy="383.634" r="10.8" fill="#ff8c00" fill-rule="evenodd" fill-opacity="0.65" stroke="none"/>
<circle clip-path="url(#clip242)" cx="701.993" cy="256.708" r="10.8" fill="#ff8c00" fill-rule="evenodd" fill-opacity="0.65" stroke="none"/>
<circle clip-path="url(#clip242)" cx="681.571" cy="599.865" r="10.8" fill="#ff8c00" fill-rule="evenodd" fill-opacity="0.65" stroke="none"/>
<circle clip-path="url(#clip242)" cx="696.921" cy="402.238" r="10.8" fill="#ff8c00" fill-rule="evenodd" fill-opacity="0.65" stroke="none"/>
<circle clip-path="url(#clip242)" cx="685.239" cy="583.703" r="10.8" fill="#ff8c00" fill-rule="evenodd" fill-opacity="0.65" stroke="none"/>
<circle clip-path="url(#clip242)" cx="689.652" cy="582.9" r="10.8" fill="#ff8c00" fill-rule="evenodd" fill-opacity="0.65" stroke="none"/>
<circle clip-path="url(#clip242)" cx="694.609" cy="497.36" r="10.8" fill="#ff8c00" fill-rule="evenodd" fill-opacity="0.65" stroke="none"/>
<circle clip-path="url(#clip242)" cx="691.395" cy="602.389" r="10.8" fill="#ff8c00" fill-rule="evenodd" fill-opacity="0.65" stroke="none"/>
<circle clip-path="url(#clip242)" cx="668.919" cy="389.186" r="10.8" fill="#ff8c00" fill-rule="evenodd" fill-opacity="0.65" stroke="none"/>
<circle clip-path="url(#clip242)" cx="650.329" cy="587.376" r="10.8" fill="#ff8c00" fill-rule="evenodd" fill-opacity="0.65" stroke="none"/>
<circle clip-path="url(#clip242)" cx="648.672" cy="387.861" r="10.8" fill="#ff8c00" fill-rule="evenodd" fill-opacity="0.65" stroke="none"/>
<circle clip-path="url(#clip242)" cx="660.363" cy="432.513" r="10.8" fill="#ff8c00" fill-rule="evenodd" fill-opacity="0.65" stroke="none"/>
<circle clip-path="url(#clip242)" cx="678.482" cy="481.02" r="10.8" fill="#ff8c00" fill-rule="evenodd" fill-opacity="0.65" stroke="none"/>
<circle clip-path="url(#clip242)" cx="681.248" cy="293.437" r="10.8" fill="#ff8c00" fill-rule="evenodd" fill-opacity="0.65" stroke="none"/>
<circle clip-path="url(#clip242)" cx="685.197" cy="458.017" r="10.8" fill="#ff8c00" fill-rule="evenodd" fill-opacity="0.65" stroke="none"/>
<circle clip-path="url(#clip242)" cx="680.152" cy="279.568" r="10.8" fill="#ff8c00" fill-rule="evenodd" fill-opacity="0.65" stroke="none"/>
<circle clip-path="url(#clip242)" cx="648.693" cy="376.935" r="10.8" fill="#ff8c00" fill-rule="evenodd" fill-opacity="0.65" stroke="none"/>
<circle clip-path="url(#clip242)" cx="655.763" cy="640.175" r="10.8" fill="#ff8c00" fill-rule="evenodd" fill-opacity="0.65" stroke="none"/>
<circle clip-path="url(#clip242)" cx="707.011" cy="572.099" r="10.8" fill="#ff8c00" fill-rule="evenodd" fill-opacity="0.65" stroke="none"/>
<circle clip-path="url(#clip242)" cx="652.638" cy="364.597" r="10.8" fill="#ff8c00" fill-rule="evenodd" fill-opacity="0.65" stroke="none"/>
<circle clip-path="url(#clip242)" cx="650.936" cy="640.333" r="10.8" fill="#ff8c00" fill-rule="evenodd" fill-opacity="0.65" stroke="none"/>
<circle clip-path="url(#clip242)" cx="681.011" cy="529.803" r="10.8" fill="#ff8c00" fill-rule="evenodd" fill-opacity="0.65" stroke="none"/>
<polyline clip-path="url(#clip242)" style="stroke:#000000; stroke-linecap:round; stroke-linejoin:round; stroke-width:12; stroke-opacity:1; fill:none" points="617.564,497.36 741.13,497.36 "/>
<polyline clip-path="url(#clip242)" style="stroke:#000000; stroke-linecap:round; stroke-linejoin:round; stroke-width:8; stroke-opacity:1; fill:none" points="679.347,602.767 679.347,362.641 "/>
<circle clip-path="url(#clip242)" cx="944.237" cy="645.44" r="10.8" fill="#db143d" fill-rule="evenodd" fill-opacity="0.65" stroke="none"/>
<circle clip-path="url(#clip242)" cx="978.403" cy="635.937" r="10.8" fill="#db143d" fill-rule="evenodd" fill-opacity="0.65" stroke="none"/>
<circle clip-path="url(#clip242)" cx="969.397" cy="617.763" r="10.8" fill="#db143d" fill-rule="evenodd" fill-opacity="0.65" stroke="none"/>
<circle clip-path="url(#clip242)" cx="975.659" cy="501.743" r="10.8" fill="#db143d" fill-rule="evenodd" fill-opacity="0.65" stroke="none"/>
<circle clip-path="url(#clip242)" cx="984.509" cy="645.298" r="10.8" fill="#db143d" fill-rule="evenodd" fill-opacity="0.65" stroke="none"/>
<circle clip-path="url(#clip242)" cx="954.781" cy="447.64" r="10.8" fill="#db143d" fill-rule="evenodd" fill-opacity="0.65" stroke="none"/>
<circle clip-path="url(#clip242)" cx="967.354" cy="634.421" r="10.8" fill="#db143d" fill-rule="evenodd" fill-opacity="0.65" stroke="none"/>
<circle clip-path="url(#clip242)" cx="957.714" cy="643.034" r="10.8" fill="#db143d" fill-rule="evenodd" fill-opacity="0.65" stroke="none"/>
<circle clip-path="url(#clip242)" cx="973.493" cy="497.904" r="10.8" fill="#db143d" fill-rule="evenodd" fill-opacity="0.65" stroke="none"/>
<circle clip-path="url(#clip242)" cx="959.844" cy="635.488" r="10.8" fill="#db143d" fill-rule="evenodd" fill-opacity="0.65" stroke="none"/>
<circle clip-path="url(#clip242)" cx="952.057" cy="606.06" r="10.8" fill="#db143d" fill-rule="evenodd" fill-opacity="0.65" stroke="none"/>
<circle clip-path="url(#clip242)" cx="964.849" cy="605.256" r="10.8" fill="#db143d" fill-rule="evenodd" fill-opacity="0.65" stroke="none"/>
<circle clip-path="url(#clip242)" cx="942.623" cy="641.395" r="10.8" fill="#db143d" fill-rule="evenodd" fill-opacity="0.65" stroke="none"/>
<circle clip-path="url(#clip242)" cx="969.492" cy="350.388" r="10.8" fill="#db143d" fill-rule="evenodd" fill-opacity="0.65" stroke="none"/>
<circle clip-path="url(#clip242)" cx="931.484" cy="415.602" r="10.8" fill="#db143d" fill-rule="evenodd" fill-opacity="0.65" stroke="none"/>
<circle clip-path="url(#clip242)" cx="950.921" cy="504.761" r="10.8" fill="#db143d" fill-rule="evenodd" fill-opacity="0.65" stroke="none"/>
<circle clip-path="url(#clip242)" cx="929.798" cy="642.088" r="10.8" fill="#db143d" fill-rule="evenodd" fill-opacity="0.65" stroke="none"/>
<circle clip-path="url(#clip242)" cx="990.267" cy="453.35" r="10.8" fill="#db143d" fill-rule="evenodd" fill-opacity="0.65" stroke="none"/>
<circle clip-path="url(#clip242)" cx="962.098" cy="641.941" r="10.8" fill="#db143d" fill-rule="evenodd" fill-opacity="0.65" stroke="none"/>
<circle clip-path="url(#clip242)" cx="951.862" cy="639.888" r="10.8" fill="#db143d" fill-rule="evenodd" fill-opacity="0.65" stroke="none"/>
<circle clip-path="url(#clip242)" cx="962.359" cy="640.729" r="10.8" fill="#db143d" fill-rule="evenodd" fill-opacity="0.65" stroke="none"/>
<circle clip-path="url(#clip242)" cx="950.616" cy="626.291" r="10.8" fill="#db143d" fill-rule="evenodd" fill-opacity="0.65" stroke="none"/>
<circle clip-path="url(#clip242)" cx="980.427" cy="604.019" r="10.8" fill="#db143d" fill-rule="evenodd" fill-opacity="0.65" stroke="none"/>
<circle clip-path="url(#clip242)" cx="958.946" cy="423.088" r="10.8" fill="#db143d" fill-rule="evenodd" fill-opacity="0.65" stroke="none"/>
<circle clip-path="url(#clip242)" cx="939.01" cy="642.897" r="10.8" fill="#db143d" fill-rule="evenodd" fill-opacity="0.65" stroke="none"/>
<circle clip-path="url(#clip242)" cx="962.958" cy="604.786" r="10.8" fill="#db143d" fill-rule="evenodd" fill-opacity="0.65" stroke="none"/>
<circle clip-path="url(#clip242)" cx="945.725" cy="601.967" r="10.8" fill="#db143d" fill-rule="evenodd" fill-opacity="0.65" stroke="none"/>
<circle clip-path="url(#clip242)" cx="963.003" cy="593.916" r="10.8" fill="#db143d" fill-rule="evenodd" fill-opacity="0.65" stroke="none"/>
<circle clip-path="url(#clip242)" cx="956.199" cy="435.442" r="10.8" fill="#db143d" fill-rule="evenodd" fill-opacity="0.65" stroke="none"/>
<circle clip-path="url(#clip242)" cx="974.447" cy="526.716" r="10.8" fill="#db143d" fill-rule="evenodd" fill-opacity="0.65" stroke="none"/>
<circle clip-path="url(#clip242)" cx="941.665" cy="604.24" r="10.8" fill="#db143d" fill-rule="evenodd" fill-opacity="0.65" stroke="none"/>
<circle clip-path="url(#clip242)" cx="950.419" cy="603.874" r="10.8" fill="#db143d" fill-rule="evenodd" fill-opacity="0.65" stroke="none"/>
<circle clip-path="url(#clip242)" cx="947.919" cy="580.806" r="10.8" fill="#db143d" fill-rule="evenodd" fill-opacity="0.65" stroke="none"/>
<circle clip-path="url(#clip242)" cx="929.857" cy="603.972" r="10.8" fill="#db143d" fill-rule="evenodd" fill-opacity="0.65" stroke="none"/>
<circle clip-path="url(#clip242)" cx="943.948" cy="471.498" r="10.8" fill="#db143d" fill-rule="evenodd" fill-opacity="0.65" stroke="none"/>
<circle clip-path="url(#clip242)" cx="943.453" cy="233.179" r="10.8" fill="#db143d" fill-rule="evenodd" fill-opacity="0.65" stroke="none"/>
<circle clip-path="url(#clip242)" cx="965.002" cy="643.135" r="10.8" fill="#db143d" fill-rule="evenodd" fill-opacity="0.65" stroke="none"/>
<circle clip-path="url(#clip242)" cx="988.324" cy="639.227" r="10.8" fill="#db143d" fill-rule="evenodd" fill-opacity="0.65" stroke="none"/>
<circle clip-path="url(#clip242)" cx="973.6" cy="638.127" r="10.8" fill="#db143d" fill-rule="evenodd" fill-opacity="0.65" stroke="none"/>
<circle clip-path="url(#clip242)" cx="953.945" cy="618.805" r="10.8" fill="#db143d" fill-rule="evenodd" fill-opacity="0.65" stroke="none"/>
<circle clip-path="url(#clip242)" cx="936.496" cy="562.816" r="10.8" fill="#db143d" fill-rule="evenodd" fill-opacity="0.65" stroke="none"/>
<circle clip-path="url(#clip242)" cx="966.203" cy="645.115" r="10.8" fill="#db143d" fill-rule="evenodd" fill-opacity="0.65" stroke="none"/>
<circle clip-path="url(#clip242)" cx="982.384" cy="265.01" r="10.8" fill="#db143d" fill-rule="evenodd" fill-opacity="0.65" stroke="none"/>
<circle clip-path="url(#clip242)" cx="931.016" cy="605.329" r="10.8" fill="#db143d" fill-rule="evenodd" fill-opacity="0.65" stroke="none"/>
<circle clip-path="url(#clip242)" cx="961.643" cy="592.374" r="10.8" fill="#db143d" fill-rule="evenodd" fill-opacity="0.65" stroke="none"/>
<circle clip-path="url(#clip242)" cx="976.101" cy="606.377" r="10.8" fill="#db143d" fill-rule="evenodd" fill-opacity="0.65" stroke="none"/>
<circle clip-path="url(#clip242)" cx="968.099" cy="605.62" r="10.8" fill="#db143d" fill-rule="evenodd" fill-opacity="0.65" stroke="none"/>
<circle clip-path="url(#clip242)" cx="977.964" cy="549.126" r="10.8" fill="#db143d" fill-rule="evenodd" fill-opacity="0.65" stroke="none"/>
<circle clip-path="url(#clip242)" cx="962.624" cy="647.341" r="10.8" fill="#db143d" fill-rule="evenodd" fill-opacity="0.65" stroke="none"/>
<circle clip-path="url(#clip242)" cx="987.207" cy="647.525" r="10.8" fill="#db143d" fill-rule="evenodd" fill-opacity="0.65" stroke="none"/>
<circle clip-path="url(#clip242)" cx="980.596" cy="642.302" r="10.8" fill="#db143d" fill-rule="evenodd" fill-opacity="0.65" stroke="none"/>
<circle clip-path="url(#clip242)" cx="935.898" cy="588.523" r="10.8" fill="#db143d" fill-rule="evenodd" fill-opacity="0.65" stroke="none"/>
<circle clip-path="url(#clip242)" cx="970.832" cy="638.936" r="10.8" fill="#db143d" fill-rule="evenodd" fill-opacity="0.65" stroke="none"/>
<circle clip-path="url(#clip242)" cx="981.672" cy="647.008" r="10.8" fill="#db143d" fill-rule="evenodd" fill-opacity="0.65" stroke="none"/>
<polyline clip-path="url(#clip242)" style="stroke:#000000; stroke-linecap:round; stroke-linejoin:round; stroke-width:12; stroke-opacity:1; fill:none" points="898.396,605.474 1021.96,605.474 "/>
<polyline clip-path="url(#clip242)" style="stroke:#000000; stroke-linecap:round; stroke-linejoin:round; stroke-width:8; stroke-opacity:1; fill:none" points="960.18,640.517 960.18,552.102 "/>
</svg>
