<?xml version="1.0" encoding="utf-8"?>
<svg xmlns="http://www.w3.org/2000/svg" xmlns:xlink="http://www.w3.org/1999/xlink" width="756" height="220" viewBox="0 0 3024 880">
<defs>
  <clipPath id="clip530">
    <rect x="0" y="0" width="3024" height="880"/>
  </clipPath>
</defs>
<path clip-path="url(#clip530)" d="M0 880 L3024 880 L3024 0 L0 0  Z" fill="#ffffff" fill-rule="evenodd" fill-opacity="1"/>
<defs>
  <clipPath id="clip531">
    <rect x="1917" y="19" width="909" height="562"/>
  </clipPath>
</defs>
<path clip-path="url(#clip530)" d="M357.698 642.624 L874.847 642.624 L874.847 195.857 L357.698 195.857  Z" fill="#ffffff" fill-rule="evenodd" fill-opacity="1"/>
<defs>
  <clipPath id="clip532">
    <rect x="357" y="195" width="518" height="448"/>
  </clipPath>
</defs>
<polyline clip-path="url(#clip532)" style="stroke:#000000; stroke-linecap:round; stroke-linejoin:round; stroke-width:2; stroke-opacity:0.1; fill:none" points="372.334,642.624 372.334,195.857 "/>
<polyline clip-path="url(#clip532)" style="stroke:#000000; stroke-linecap:round; stroke-linejoin:round; stroke-width:2; stroke-opacity:0.1; fill:none" points="494.303,642.624 494.303,195.857 "/>
<polyline clip-path="url(#clip532)" style="stroke:#000000; stroke-linecap:round; stroke-linejoin:round; stroke-width:2; stroke-opacity:0.1; fill:none" points="616.272,642.624 616.272,195.857 "/>
<polyline clip-path="url(#clip532)" style="stroke:#000000; stroke-linecap:round; stroke-linejoin:round; stroke-width:2; stroke-opacity:0.1; fill:none" points="738.241,642.624 738.241,195.857 "/>
<polyline clip-path="url(#clip532)" style="stroke:#000000; stroke-linecap:round; stroke-linejoin:round; stroke-width:2; stroke-opacity:0.1; fill:none" points="860.211,642.624 860.211,195.857 "/>
<polyline clip-path="url(#clip532)" style="stroke:#000000; stroke-linecap:round; stroke-linejoin:round; stroke-width:2; stroke-opacity:0.1; fill:none" points="357.698,642.624 874.847,642.624 "/>
<polyline clip-path="url(#clip532)" style="stroke:#000000; stroke-linecap:round; stroke-linejoin:round; stroke-width:2; stroke-opacity:0.1; fill:none" points="357.698,419.24 874.847,419.24 "/>
<polyline clip-path="url(#clip532)" style="stroke:#000000; stroke-linecap:round; stroke-linejoin:round; stroke-width:2; stroke-opacity:0.1; fill:none" points="357.698,195.857 874.847,195.857 "/>
<polyline clip-path="url(#clip530)" style="stroke:#000000; stroke-linecap:round; stroke-linejoin:round; stroke-width:4; stroke-opacity:1; fill:none" points="357.698,642.624 874.847,642.624 "/>
<polyline clip-path="url(#clip530)" style="stroke:#000000; stroke-linecap:round; stroke-linejoin:round; stroke-width:4; stroke-opacity:1; fill:none" points="372.334,642.624 372.334,623.726 "/>
<polyline clip-path="url(#clip530)" style="stroke:#000000; stroke-linecap:round; stroke-linejoin:round; stroke-width:4; stroke-opacity:1; fill:none" points="494.303,642.624 494.303,623.726 "/>
<polyline clip-path="url(#clip530)" style="stroke:#000000; stroke-linecap:round; stroke-linejoin:round; stroke-width:4; stroke-opacity:1; fill:none" points="616.272,642.624 616.272,623.726 "/>
<polyline clip-path="url(#clip530)" style="stroke:#000000; stroke-linecap:round; stroke-linejoin:round; stroke-width:4; stroke-opacity:1; fill:none" points="738.241,642.624 738.241,623.726 "/>
<polyline clip-path="url(#clip530)" style="stroke:#000000; stroke-linecap:round; stroke-linejoin:round; stroke-width:4; stroke-opacity:1; fill:none" points="860.211,642.624 860.211,623.726 "/>
<path clip-path="url(#clip530)" d="M360.311 715.897 L369.86 715.897 L369.86 682.94 L359.472 685.023 L359.472 679.699 L369.802 677.616 L375.647 677.616 L375.647 715.897 L385.196 715.897 L385.196 720.816 L360.311 720.816 L360.311 715.897 Z" fill="#000000" fill-rule="nonzero" fill-opacity="1" /><path clip-path="url(#clip530)" d="M487.619 715.897 L508.018 715.897 L508.018 720.816 L480.588 720.816 L480.588 715.897 Q483.915 712.453 489.645 706.666 Q495.403 700.85 496.878 699.172 Q499.685 696.018 500.785 693.848 Q501.913 691.649 501.913 689.537 Q501.913 686.094 499.483 683.923 Q497.081 681.753 493.204 681.753 Q490.455 681.753 487.388 682.708 Q484.349 683.663 480.877 685.602 L480.877 679.699 Q484.407 678.281 487.474 677.558 Q490.542 676.834 493.088 676.834 Q499.801 676.834 503.794 680.191 Q507.787 683.547 507.787 689.161 Q507.787 691.823 506.774 694.224 Q505.79 696.597 503.157 699.838 Q502.434 700.677 498.557 704.699 Q494.679 708.692 487.619 715.897 Z" fill="#000000" fill-rule="nonzero" fill-opacity="1" /><path clip-path="url(#clip530)" d="M621.582 697.523 Q625.777 698.42 628.121 701.256 Q630.494 704.091 630.494 708.258 Q630.494 714.652 626.096 718.154 Q621.698 721.655 613.596 721.655 Q610.876 721.655 607.982 721.105 Q605.118 720.584 602.051 719.514 L602.051 713.871 Q604.481 715.289 607.375 716.012 Q610.268 716.736 613.422 716.736 Q618.92 716.736 621.784 714.566 Q624.678 712.396 624.678 708.258 Q624.678 704.438 621.987 702.297 Q619.325 700.127 614.551 700.127 L609.516 700.127 L609.516 695.324 L614.782 695.324 Q619.093 695.324 621.379 693.617 Q623.665 691.881 623.665 688.64 Q623.665 685.312 621.293 683.547 Q618.949 681.753 614.551 681.753 Q612.149 681.753 609.4 682.274 Q606.651 682.795 603.353 683.895 L603.353 678.686 Q606.68 677.76 609.574 677.297 Q612.496 676.834 615.072 676.834 Q621.727 676.834 625.604 679.873 Q629.481 682.882 629.481 688.032 Q629.481 691.62 627.427 694.109 Q625.372 696.568 621.582 697.523 Z" fill="#000000" fill-rule="nonzero" fill-opacity="1" /><path clip-path="url(#clip530)" d="M742.003 682.708 L727.246 705.769 L742.003 705.769 L742.003 682.708 M740.469 677.616 L747.819 677.616 L747.819 705.769 L753.982 705.769 L753.982 710.63 L747.819 710.63 L747.819 720.816 L742.003 720.816 L742.003 710.63 L722.501 710.63 L722.501 704.988 L740.469 677.616 Z" fill="#000000" fill-rule="nonzero" fill-opacity="1" /><path clip-path="url(#clip530)" d="M848.058 677.616 L871.003 677.616 L871.003 682.535 L853.411 682.535 L853.411 693.125 Q854.684 692.691 855.957 692.488 Q857.23 692.257 858.503 692.257 Q865.737 692.257 869.962 696.221 Q874.186 700.185 874.186 706.956 Q874.186 713.929 869.846 717.806 Q865.506 721.655 857.606 721.655 Q854.887 721.655 852.051 721.192 Q849.244 720.729 846.235 719.803 L846.235 713.929 Q848.839 715.347 851.617 716.041 Q854.395 716.736 857.491 716.736 Q862.497 716.736 865.419 714.103 Q868.341 711.47 868.341 706.956 Q868.341 702.442 865.419 699.809 Q862.497 697.176 857.491 697.176 Q855.147 697.176 852.803 697.697 Q850.488 698.217 848.058 699.317 L848.058 677.616 Z" fill="#000000" fill-rule="nonzero" fill-opacity="1" /><path clip-path="url(#clip530)" d="M464.864 762.288 L471.293 762.288 L471.293 781.767 L494.655 781.767 L494.655 762.288 L501.085 762.288 L501.085 809.808 L494.655 809.808 L494.655 787.178 L471.293 787.178 L471.293 809.808 L464.864 809.808 L464.864 762.288 Z" fill="#000000" fill-rule="nonzero" fill-opacity="1" /><path clip-path="url(#clip530)" d="M529.826 791.888 Q522.728 791.888 519.991 793.511 Q517.254 795.135 517.254 799.05 Q517.254 802.169 519.291 804.015 Q521.36 805.829 524.893 805.829 Q529.762 805.829 532.691 802.392 Q535.651 798.922 535.651 793.193 L535.651 791.888 L529.826 791.888 M541.507 789.469 L541.507 809.808 L535.651 809.808 L535.651 804.397 Q533.645 807.643 530.654 809.203 Q527.662 810.731 523.333 810.731 Q517.858 810.731 514.612 807.675 Q511.397 804.588 511.397 799.432 Q511.397 793.416 515.408 790.36 Q519.45 787.305 527.439 787.305 L535.651 787.305 L535.651 786.732 Q535.651 782.69 532.977 780.494 Q530.335 778.266 525.529 778.266 Q522.474 778.266 519.577 778.998 Q516.681 779.73 514.007 781.194 L514.007 775.783 Q517.222 774.542 520.246 773.937 Q523.269 773.3 526.134 773.3 Q533.868 773.3 537.688 777.311 Q541.507 781.321 541.507 789.469 Z" fill="#000000" fill-rule="nonzero" fill-opacity="1" /><path clip-path="url(#clip530)" d="M574.227 779.634 Q573.24 779.061 572.062 778.807 Q570.917 778.52 569.516 778.52 Q564.551 778.52 561.877 781.767 Q559.236 784.981 559.236 791.029 L559.236 809.808 L553.347 809.808 L553.347 774.16 L559.236 774.16 L559.236 779.698 Q561.082 776.451 564.042 774.892 Q567.002 773.3 571.235 773.3 Q571.84 773.3 572.572 773.396 Q573.304 773.459 574.195 773.619 L574.227 779.634 Z" fill="#000000" fill-rule="nonzero" fill-opacity="1" /><path clip-path="url(#clip530)" d="M606.978 781.003 Q609.175 777.056 612.23 775.178 Q615.286 773.3 619.423 773.3 Q624.993 773.3 628.017 777.215 Q631.041 781.098 631.041 788.292 L631.041 809.808 L625.152 809.808 L625.152 788.483 Q625.152 783.358 623.338 780.875 Q621.524 778.393 617.8 778.393 Q613.249 778.393 610.607 781.417 Q607.965 784.44 607.965 789.66 L607.965 809.808 L602.077 809.808 L602.077 788.483 Q602.077 783.326 600.263 780.875 Q598.448 778.393 594.661 778.393 Q590.173 778.393 587.531 781.448 Q584.889 784.472 584.889 789.66 L584.889 809.808 L579.001 809.808 L579.001 774.16 L584.889 774.16 L584.889 779.698 Q586.895 776.419 589.695 774.86 Q592.496 773.3 596.348 773.3 Q600.231 773.3 602.936 775.274 Q605.673 777.247 606.978 781.003 Z" fill="#000000" fill-rule="nonzero" fill-opacity="1" /><path clip-path="url(#clip530)" d="M656.535 778.266 Q651.825 778.266 649.088 781.958 Q646.35 785.618 646.35 792.015 Q646.35 798.413 649.056 802.105 Q651.793 805.765 656.535 805.765 Q661.214 805.765 663.951 802.073 Q666.689 798.381 666.689 792.015 Q666.689 785.682 663.951 781.989 Q661.214 778.266 656.535 778.266 M656.535 773.3 Q664.174 773.3 668.535 778.266 Q672.895 783.231 672.895 792.015 Q672.895 800.768 668.535 805.765 Q664.174 810.731 656.535 810.731 Q648.865 810.731 644.504 805.765 Q640.176 800.768 640.176 792.015 Q640.176 783.231 644.504 778.266 Q648.865 773.3 656.535 773.3 Z" fill="#000000" fill-rule="nonzero" fill-opacity="1" /><path clip-path="url(#clip530)" d="M712.235 788.292 L712.235 809.808 L706.379 809.808 L706.379 788.483 Q706.379 783.422 704.406 780.907 Q702.432 778.393 698.485 778.393 Q693.743 778.393 691.006 781.417 Q688.268 784.44 688.268 789.66 L688.268 809.808 L682.38 809.808 L682.38 774.16 L688.268 774.16 L688.268 779.698 Q690.369 776.483 693.202 774.892 Q696.066 773.3 699.79 773.3 Q705.933 773.3 709.084 777.12 Q712.235 780.907 712.235 788.292 Z" fill="#000000" fill-rule="nonzero" fill-opacity="1" /><path clip-path="url(#clip530)" d="M723.916 774.16 L729.773 774.16 L729.773 809.808 L723.916 809.808 L723.916 774.16 M723.916 760.282 L729.773 760.282 L729.773 767.698 L723.916 767.698 L723.916 760.282 Z" fill="#000000" fill-rule="nonzero" fill-opacity="1" /><path clip-path="url(#clip530)" d="M767.681 775.528 L767.681 781.003 Q765.198 779.634 762.684 778.966 Q760.201 778.266 757.655 778.266 Q751.957 778.266 748.806 781.894 Q745.655 785.491 745.655 792.015 Q745.655 798.54 748.806 802.169 Q751.957 805.765 757.655 805.765 Q760.201 805.765 762.684 805.097 Q765.198 804.397 767.681 803.028 L767.681 808.439 Q765.23 809.585 762.588 810.158 Q759.978 810.731 757.018 810.731 Q748.965 810.731 744.223 805.67 Q739.481 800.609 739.481 792.015 Q739.481 783.294 744.255 778.297 Q749.061 773.3 757.4 773.3 Q760.105 773.3 762.684 773.873 Q765.262 774.414 767.681 775.528 Z" fill="#000000" fill-rule="nonzero" fill-opacity="1" /><polyline clip-path="url(#clip530)" style="stroke:#000000; stroke-linecap:round; stroke-linejoin:round; stroke-width:4; stroke-opacity:1; fill:none" points="357.698,642.624 357.698,195.857 "/>
<polyline clip-path="url(#clip530)" style="stroke:#000000; stroke-linecap:round; stroke-linejoin:round; stroke-width:4; stroke-opacity:1; fill:none" points="357.698,642.624 376.595,642.624 "/>
<polyline clip-path="url(#clip530)" style="stroke:#000000; stroke-linecap:round; stroke-linejoin:round; stroke-width:4; stroke-opacity:1; fill:none" points="357.698,419.24 376.595,419.24 "/>
<polyline clip-path="url(#clip530)" style="stroke:#000000; stroke-linecap:round; stroke-linejoin:round; stroke-width:4; stroke-opacity:1; fill:none" points="357.698,195.857 376.595,195.857 "/>
<path clip-path="url(#clip530)" d="M223.956 667.364 L233.504 667.364 L233.504 634.407 L223.117 636.49 L223.117 631.166 L233.446 629.083 L239.291 629.083 L239.291 667.364 L248.84 667.364 L248.84 672.283 L223.956 672.283 L223.956 667.364 Z" fill="#000000" fill-rule="nonzero" fill-opacity="1" /><path clip-path="url(#clip530)" d="M273.145 632.931 Q268.631 632.931 266.345 637.387 Q264.089 641.815 264.089 650.727 Q264.089 659.61 266.345 664.066 Q268.631 668.493 273.145 668.493 Q277.688 668.493 279.945 664.066 Q282.231 659.61 282.231 650.727 Q282.231 641.815 279.945 637.387 Q277.688 632.931 273.145 632.931 M273.145 628.302 Q280.408 628.302 284.227 634.06 Q288.076 639.789 288.076 650.727 Q288.076 661.635 284.227 667.393 Q280.408 673.122 273.145 673.122 Q265.882 673.122 262.034 667.393 Q258.215 661.635 258.215 650.727 Q258.215 639.789 262.034 634.06 Q265.882 628.302 273.145 628.302 Z" fill="#000000" fill-rule="nonzero" fill-opacity="1" /><path clip-path="url(#clip530)" d="M300.207 606.047 Q296.539 606.047 294.682 609.667 Q292.848 613.264 292.848 620.505 Q292.848 627.723 294.682 631.343 Q296.539 634.94 300.207 634.94 Q303.898 634.94 305.731 631.343 Q307.589 627.723 307.589 620.505 Q307.589 613.264 305.731 609.667 Q303.898 606.047 300.207 606.047 M300.207 602.285 Q306.108 602.285 309.211 606.964 Q312.338 611.619 312.338 620.505 Q312.338 629.369 309.211 634.047 Q306.108 638.702 300.207 638.702 Q294.306 638.702 291.179 634.047 Q288.076 629.369 288.076 620.505 Q288.076 611.619 291.179 606.964 Q294.306 602.285 300.207 602.285 Z" fill="#000000" fill-rule="nonzero" fill-opacity="1" /><path clip-path="url(#clip530)" d="M225.507 443.981 L235.056 443.981 L235.056 411.024 L224.668 413.107 L224.668 407.783 L234.998 405.7 L240.843 405.7 L240.843 443.981 L250.391 443.981 L250.391 448.9 L225.507 448.9 L225.507 443.981 Z" fill="#000000" fill-rule="nonzero" fill-opacity="1" /><path clip-path="url(#clip530)" d="M274.697 409.548 Q270.183 409.548 267.897 414.004 Q265.64 418.431 265.64 427.343 Q265.64 436.226 267.897 440.682 Q270.183 445.109 274.697 445.109 Q279.24 445.109 281.497 440.682 Q283.782 436.226 283.782 427.343 Q283.782 418.431 281.497 414.004 Q279.24 409.548 274.697 409.548 M274.697 404.919 Q281.96 404.919 285.779 410.677 Q289.627 416.406 289.627 427.343 Q289.627 438.252 285.779 444.01 Q281.96 449.739 274.697 449.739 Q267.434 449.739 263.586 444.01 Q259.766 438.252 259.766 427.343 Q259.766 416.406 263.586 410.677 Q267.434 404.919 274.697 404.919 Z" fill="#000000" fill-rule="nonzero" fill-opacity="1" /><path clip-path="url(#clip530)" d="M291.108 379.537 L309.752 379.537 L309.752 383.533 L295.458 383.533 L295.458 392.138 Q296.492 391.785 297.527 391.621 Q298.561 391.433 299.595 391.433 Q305.473 391.433 308.905 394.654 Q312.338 397.874 312.338 403.376 Q312.338 409.041 308.811 412.192 Q305.285 415.319 298.867 415.319 Q296.657 415.319 294.353 414.942 Q292.072 414.566 289.627 413.814 L289.627 409.041 Q291.743 410.193 294 410.758 Q296.257 411.322 298.773 411.322 Q302.84 411.322 305.214 409.183 Q307.589 407.043 307.589 403.376 Q307.589 399.708 305.214 397.569 Q302.84 395.429 298.773 395.429 Q296.868 395.429 294.964 395.853 Q293.083 396.276 291.108 397.169 L291.108 379.537 Z" fill="#000000" fill-rule="nonzero" fill-opacity="1" /><path clip-path="url(#clip530)" d="M195.438 220.597 L204.987 220.597 L204.987 187.64 L194.599 189.724 L194.599 184.4 L204.929 182.316 L210.774 182.316 L210.774 220.597 L220.322 220.597 L220.322 225.516 L195.438 225.516 L195.438 220.597 Z" fill="#000000" fill-rule="nonzero" fill-opacity="1" /><path clip-path="url(#clip530)" d="M244.628 186.165 Q240.114 186.165 237.828 190.621 Q235.571 195.048 235.571 203.96 Q235.571 212.843 237.828 217.299 Q240.114 221.726 244.628 221.726 Q249.171 221.726 251.428 217.299 Q253.714 212.843 253.714 203.96 Q253.714 195.048 251.428 190.621 Q249.171 186.165 244.628 186.165 M244.628 181.535 Q251.891 181.535 255.71 187.293 Q259.558 193.022 259.558 203.96 Q259.558 214.868 255.71 220.626 Q251.891 226.356 244.628 226.356 Q237.365 226.356 233.517 220.626 Q229.697 214.868 229.697 203.96 Q229.697 193.022 233.517 187.293 Q237.365 181.535 244.628 181.535 Z" fill="#000000" fill-rule="nonzero" fill-opacity="1" /><path clip-path="url(#clip530)" d="M260.24 187.257 L267.998 187.257 L267.998 160.479 L259.558 162.172 L259.558 157.846 L267.951 156.153 L272.7 156.153 L272.7 187.257 L280.459 187.257 L280.459 191.253 L260.24 191.253 L260.24 187.257 Z" fill="#000000" fill-rule="nonzero" fill-opacity="1" /><path clip-path="url(#clip530)" d="M300.207 159.28 Q296.539 159.28 294.682 162.901 Q292.848 166.498 292.848 173.739 Q292.848 180.956 294.682 184.577 Q296.539 188.174 300.207 188.174 Q303.898 188.174 305.731 184.577 Q307.589 180.956 307.589 173.739 Q307.589 166.498 305.731 162.901 Q303.898 159.28 300.207 159.28 M300.207 155.519 Q306.108 155.519 309.211 160.197 Q312.338 164.852 312.338 173.739 Q312.338 182.602 309.211 187.28 Q306.108 191.935 300.207 191.935 Q294.306 191.935 291.179 187.28 Q288.076 182.602 288.076 173.739 Q288.076 164.852 291.179 160.197 Q294.306 155.519 300.207 155.519 Z" fill="#000000" fill-rule="nonzero" fill-opacity="1" /><path clip-path="url(#clip530)" d="M112.703 631.457 Q113.403 629.388 115.695 627.447 Q117.987 625.473 121.997 623.5 L134.983 616.975 L134.983 623.882 L122.793 629.961 Q118.019 632.316 116.459 634.544 Q114.899 636.741 114.899 640.56 L114.899 647.562 L134.983 647.562 L134.983 653.992 L87.4632 653.992 L87.4632 639.478 Q87.4632 631.33 90.8689 627.319 Q94.2745 623.309 101.15 623.309 Q105.637 623.309 108.597 625.41 Q111.557 627.478 112.703 631.457 M92.7468 647.562 L109.616 647.562 L109.616 639.478 Q109.616 634.831 107.483 632.476 Q105.319 630.088 101.15 630.088 Q96.98 630.088 94.8793 632.476 Q92.7468 634.831 92.7468 639.478 L92.7468 647.562 Z" fill="#000000" fill-rule="nonzero" fill-opacity="1" /><path clip-path="url(#clip530)" d="M115.695 581.391 L118.56 581.391 L118.56 608.318 Q124.607 607.936 127.79 604.689 Q130.941 601.411 130.941 595.586 Q130.941 592.212 130.113 589.061 Q129.286 585.879 127.631 582.759 L133.169 582.759 Q134.506 585.91 135.206 589.221 Q135.906 592.531 135.906 595.936 Q135.906 604.466 130.941 609.463 Q125.976 614.429 117.509 614.429 Q108.757 614.429 103.632 609.718 Q98.4759 604.976 98.4759 596.955 Q98.4759 589.762 103.123 585.592 Q107.738 581.391 115.695 581.391 M113.976 587.247 Q109.17 587.311 106.306 589.953 Q103.441 592.563 103.441 596.891 Q103.441 601.793 106.21 604.753 Q108.979 607.681 114.008 608.127 L113.976 587.247 Z" fill="#000000" fill-rule="nonzero" fill-opacity="1" /><path clip-path="url(#clip530)" d="M100.386 549.053 L105.924 549.053 Q104.651 551.536 104.014 554.209 Q103.378 556.883 103.378 559.747 Q103.378 564.108 104.714 566.304 Q106.051 568.468 108.725 568.468 Q110.762 568.468 111.939 566.909 Q113.085 565.349 114.136 560.639 L114.581 558.633 Q115.918 552.395 118.369 549.785 Q120.788 547.143 125.148 547.143 Q130.113 547.143 133.01 551.09 Q135.906 555.005 135.906 561.88 Q135.906 564.744 135.333 567.864 Q134.792 570.951 133.678 574.388 L127.631 574.388 Q129.318 571.142 130.177 567.991 Q131.005 564.84 131.005 561.753 Q131.005 557.615 129.604 555.387 Q128.172 553.159 125.594 553.159 Q123.207 553.159 121.934 554.782 Q120.66 556.374 119.483 561.816 L119.005 563.853 Q117.859 569.296 115.504 571.715 Q113.117 574.134 108.979 574.134 Q103.95 574.134 101.213 570.569 Q98.4759 567.004 98.4759 560.448 Q98.4759 557.201 98.9533 554.336 Q99.4308 551.472 100.386 549.053 Z" fill="#000000" fill-rule="nonzero" fill-opacity="1" /><path clip-path="url(#clip530)" d="M103.441 524.004 Q103.441 528.715 107.133 531.452 Q110.794 534.189 117.191 534.189 Q123.589 534.189 127.281 531.484 Q130.941 528.746 130.941 524.004 Q130.941 519.325 127.249 516.588 Q123.557 513.851 117.191 513.851 Q110.857 513.851 107.165 516.588 Q103.441 519.325 103.441 524.004 M98.4759 524.004 Q98.4759 516.365 103.441 512.005 Q108.406 507.644 117.191 507.644 Q125.944 507.644 130.941 512.005 Q135.906 516.365 135.906 524.004 Q135.906 531.675 130.941 536.035 Q125.944 540.364 117.191 540.364 Q108.406 540.364 103.441 536.035 Q98.4759 531.675 98.4759 524.004 Z" fill="#000000" fill-rule="nonzero" fill-opacity="1" /><path clip-path="url(#clip530)" d="M85.458 497.936 L85.458 492.08 L134.983 492.08 L134.983 497.936 L85.458 497.936 Z" fill="#000000" fill-rule="nonzero" fill-opacity="1" /><path clip-path="url(#clip530)" d="M99.3353 484.027 L99.3353 477.821 L129.254 466.681 L99.3353 455.541 L99.3353 449.334 L134.983 462.702 L134.983 470.659 L99.3353 484.027 Z" fill="#000000" fill-rule="nonzero" fill-opacity="1" /><path clip-path="url(#clip530)" d="M115.695 410.758 L118.56 410.758 L118.56 437.685 Q124.607 437.303 127.79 434.056 Q130.941 430.778 130.941 424.953 Q130.941 421.58 130.113 418.429 Q129.286 415.246 127.631 412.127 L133.169 412.127 Q134.506 415.278 135.206 418.588 Q135.906 421.898 135.906 425.304 Q135.906 433.834 130.941 438.831 Q125.976 443.796 117.509 443.796 Q108.757 443.796 103.632 439.085 Q98.4759 434.343 98.4759 426.322 Q98.4759 419.129 103.123 414.959 Q107.738 410.758 115.695 410.758 M113.976 416.614 Q109.17 416.678 106.306 419.32 Q103.441 421.93 103.441 426.258 Q103.441 431.16 106.21 434.12 Q108.979 437.048 114.008 437.494 L113.976 416.614 Z" fill="#000000" fill-rule="nonzero" fill-opacity="1" /><path clip-path="url(#clip530)" d="M113.467 371.513 L134.983 371.513 L134.983 377.37 L113.658 377.37 Q108.597 377.37 106.083 379.343 Q103.568 381.317 103.568 385.263 Q103.568 390.006 106.592 392.743 Q109.616 395.48 114.836 395.48 L134.983 395.48 L134.983 401.369 L99.3353 401.369 L99.3353 395.48 L104.873 395.48 Q101.659 393.38 100.067 390.547 Q98.4759 387.682 98.4759 383.958 Q98.4759 377.815 102.295 374.664 Q106.083 371.513 113.467 371.513 Z" fill="#000000" fill-rule="nonzero" fill-opacity="1" /><path clip-path="url(#clip530)" d="M89.2138 354.04 L99.3353 354.04 L99.3353 341.977 L103.887 341.977 L103.887 354.04 L123.239 354.04 Q127.599 354.04 128.84 352.862 Q130.082 351.652 130.082 347.992 L130.082 341.977 L134.983 341.977 L134.983 347.992 Q134.983 354.772 132.469 357.35 Q129.922 359.928 123.239 359.928 L103.887 359.928 L103.887 364.225 L99.3353 364.225 L99.3353 359.928 L89.2138 359.928 L89.2138 354.04 Z" fill="#000000" fill-rule="nonzero" fill-opacity="1" /><path clip-path="url(#clip530)" d="M116.745 290.096 Q110.38 290.096 106.879 292.738 Q103.378 295.348 103.378 300.09 Q103.378 304.801 106.879 307.443 Q110.38 310.052 116.745 310.052 Q123.079 310.052 126.581 307.443 Q130.082 304.801 130.082 300.09 Q130.082 295.348 126.581 292.738 Q123.079 290.096 116.745 290.096 M130.559 284.24 Q139.662 284.24 144.086 288.282 Q148.542 292.324 148.542 300.663 Q148.542 303.75 148.065 306.488 Q147.619 309.225 146.664 311.803 L140.967 311.803 Q142.367 309.225 143.036 306.71 Q143.704 304.196 143.704 301.586 Q143.704 295.825 140.681 292.961 Q137.689 290.096 131.609 290.096 L128.713 290.096 Q131.864 291.91 133.424 294.743 Q134.983 297.576 134.983 301.522 Q134.983 308.079 129.986 312.09 Q124.989 316.1 116.745 316.1 Q108.47 316.1 103.473 312.09 Q98.4759 308.079 98.4759 301.522 Q98.4759 297.576 100.036 294.743 Q101.595 291.91 104.746 290.096 L99.3353 290.096 L99.3353 284.24 L130.559 284.24 Z" fill="#000000" fill-rule="nonzero" fill-opacity="1" /><path clip-path="url(#clip530)" d="M117.064 255.976 Q117.064 263.074 118.687 265.811 Q120.31 268.548 124.225 268.548 Q127.344 268.548 129.19 266.511 Q131.005 264.442 131.005 260.909 Q131.005 256.039 127.567 253.111 Q124.098 250.151 118.369 250.151 L117.064 250.151 L117.064 255.976 M114.645 244.295 L134.983 244.295 L134.983 250.151 L129.572 250.151 Q132.819 252.156 134.378 255.148 Q135.906 258.14 135.906 262.469 Q135.906 267.943 132.851 271.19 Q129.763 274.405 124.607 274.405 Q118.592 274.405 115.536 270.394 Q112.48 266.352 112.48 258.363 L112.48 250.151 L111.908 250.151 Q107.865 250.151 105.669 252.825 Q103.441 255.467 103.441 260.273 Q103.441 263.328 104.173 266.225 Q104.905 269.121 106.369 271.795 L100.959 271.795 Q99.7172 268.58 99.1125 265.556 Q98.4759 262.532 98.4759 259.668 Q98.4759 251.934 102.486 248.114 Q106.497 244.295 114.645 244.295 Z" fill="#000000" fill-rule="nonzero" fill-opacity="1" /><path clip-path="url(#clip530)" d="M99.3353 232.232 L99.3353 226.375 L134.983 226.375 L134.983 232.232 L99.3353 232.232 M85.458 232.232 L85.458 226.375 L92.8741 226.375 L92.8741 232.232 L85.458 232.232 Z" fill="#000000" fill-rule="nonzero" fill-opacity="1" /><path clip-path="url(#clip530)" d="M113.467 184.489 L134.983 184.489 L134.983 190.345 L113.658 190.345 Q108.597 190.345 106.083 192.319 Q103.568 194.292 103.568 198.239 Q103.568 202.981 106.592 205.719 Q109.616 208.456 114.836 208.456 L134.983 208.456 L134.983 214.344 L99.3353 214.344 L99.3353 208.456 L104.873 208.456 Q101.659 206.355 100.067 203.522 Q98.4759 200.658 98.4759 196.934 Q98.4759 190.791 102.295 187.64 Q106.083 184.489 113.467 184.489 Z" fill="#000000" fill-rule="nonzero" fill-opacity="1" /><path clip-path="url(#clip530)" d="M594.102 17.2777 L584.588 43.0762 L603.651 43.0762 L594.102 17.2777 M590.144 10.368 L598.095 10.368 L617.852 62.208 L610.561 62.208 L605.838 48.9095 L582.47 48.9095 L577.748 62.208 L570.352 62.208 L590.144 10.368 Z" fill="#000000" fill-rule="nonzero" fill-opacity="1" /><path clip-path="url(#clip530)" d="M632.435 37.4512 L632.435 56.4441 L643.685 56.4441 Q649.345 56.4441 652.053 54.1178 Q654.796 51.7567 654.796 46.9303 Q654.796 42.0692 652.053 39.7776 Q649.345 37.4512 643.685 37.4512 L632.435 37.4512 M632.435 16.1319 L632.435 31.7568 L642.817 31.7568 Q647.956 31.7568 650.456 29.8471 Q652.991 27.9026 652.991 23.9443 Q652.991 20.0207 650.456 18.0763 Q647.956 16.1319 642.817 16.1319 L632.435 16.1319 M625.422 10.368 L643.338 10.368 Q651.359 10.368 655.699 13.7013 Q660.039 17.0346 660.039 23.1804 Q660.039 27.9374 657.817 30.7498 Q655.595 33.5623 651.289 34.2568 Q656.463 35.3679 659.31 38.9095 Q662.192 42.4164 662.192 47.6942 Q662.192 54.6386 657.47 58.4233 Q652.748 62.208 644.033 62.208 L625.422 62.208 L625.422 10.368 Z" fill="#000000" fill-rule="nonzero" fill-opacity="1" /><polyline clip-path="url(#clip532)" style="stroke:#0000ff; stroke-linecap:round; stroke-linejoin:round; stroke-width:12; stroke-opacity:1; fill:none" points="372.334,348.048 494.303,377.092 616.272,388.565 738.241,413.232 860.211,425.68 "/>
<polyline clip-path="url(#clip532)" style="stroke:#3f00bf; stroke-linecap:round; stroke-linejoin:round; stroke-width:12; stroke-opacity:1; fill:none" points="372.334,340.601 494.303,386.722 616.272,397.658 738.241,423.955 860.211,438.356 "/>
<polyline clip-path="url(#clip532)" style="stroke:#7f007f; stroke-linecap:round; stroke-linejoin:round; stroke-width:12; stroke-opacity:1; fill:none" points="372.334,344.219 494.303,359.741 616.272,372.161 738.241,395.479 860.211,398.691 "/>
<polyline clip-path="url(#clip532)" style="stroke:#bf003f; stroke-linecap:round; stroke-linejoin:round; stroke-width:12; stroke-opacity:1; fill:none" points="372.334,340.76 494.303,383.736 616.272,416.516 738.241,440.337 860.211,472.194 "/>
<polyline clip-path="url(#clip532)" style="stroke:#ff0000; stroke-linecap:round; stroke-linejoin:round; stroke-width:12; stroke-opacity:1; fill:none" points="372.334,341.503 494.303,381.871 616.272,413.565 738.241,439.279 860.211,465.687 "/>
<path clip-path="url(#clip530)" d="M1353.53 642.624 L1870.68 642.624 L1870.68 195.857 L1353.53 195.857  Z" fill="#ffffff" fill-rule="evenodd" fill-opacity="1"/>
<defs>
  <clipPath id="clip533">
    <rect x="1353" y="195" width="518" height="448"/>
  </clipPath>
</defs>
<polyline clip-path="url(#clip533)" style="stroke:#000000; stroke-linecap:round; stroke-linejoin:round; stroke-width:2; stroke-opacity:0.1; fill:none" points="1368.17,642.624 1368.17,195.857 "/>
<polyline clip-path="url(#clip533)" style="stroke:#000000; stroke-linecap:round; stroke-linejoin:round; stroke-width:2; stroke-opacity:0.1; fill:none" points="1490.14,642.624 1490.14,195.857 "/>
<polyline clip-path="url(#clip533)" style="stroke:#000000; stroke-linecap:round; stroke-linejoin:round; stroke-width:2; stroke-opacity:0.1; fill:none" points="1612.11,642.624 1612.11,195.857 "/>
<polyline clip-path="url(#clip533)" style="stroke:#000000; stroke-linecap:round; stroke-linejoin:round; stroke-width:2; stroke-opacity:0.1; fill:none" points="1734.08,642.624 1734.08,195.857 "/>
<polyline clip-path="url(#clip533)" style="stroke:#000000; stroke-linecap:round; stroke-linejoin:round; stroke-width:2; stroke-opacity:0.1; fill:none" points="1856.05,642.624 1856.05,195.857 "/>
<polyline clip-path="url(#clip533)" style="stroke:#000000; stroke-linecap:round; stroke-linejoin:round; stroke-width:2; stroke-opacity:0.1; fill:none" points="1353.53,642.624 1870.68,642.624 "/>
<polyline clip-path="url(#clip533)" style="stroke:#000000; stroke-linecap:round; stroke-linejoin:round; stroke-width:2; stroke-opacity:0.1; fill:none" points="1353.53,419.24 1870.68,419.24 "/>
<polyline clip-path="url(#clip533)" style="stroke:#000000; stroke-linecap:round; stroke-linejoin:round; stroke-width:2; stroke-opacity:0.1; fill:none" points="1353.53,195.857 1870.68,195.857 "/>
<polyline clip-path="url(#clip530)" style="stroke:#000000; stroke-linecap:round; stroke-linejoin:round; stroke-width:4; stroke-opacity:1; fill:none" points="1353.53,642.624 1870.68,642.624 "/>
<polyline clip-path="url(#clip530)" style="stroke:#000000; stroke-linecap:round; stroke-linejoin:round; stroke-width:4; stroke-opacity:1; fill:none" points="1368.17,642.624 1368.17,623.726 "/>
<polyline clip-path="url(#clip530)" style="stroke:#000000; stroke-linecap:round; stroke-linejoin:round; stroke-width:4; stroke-opacity:1; fill:none" points="1490.14,642.624 1490.14,623.726 "/>
<polyline clip-path="url(#clip530)" style="stroke:#000000; stroke-linecap:round; stroke-linejoin:round; stroke-width:4; stroke-opacity:1; fill:none" points="1612.11,642.624 1612.11,623.726 "/>
<polyline clip-path="url(#clip530)" style="stroke:#000000; stroke-linecap:round; stroke-linejoin:round; stroke-width:4; stroke-opacity:1; fill:none" points="1734.08,642.624 1734.08,623.726 "/>
<polyline clip-path="url(#clip530)" style="stroke:#000000; stroke-linecap:round; stroke-linejoin:round; stroke-width:4; stroke-opacity:1; fill:none" points="1856.05,642.624 1856.05,623.726 "/>
<path clip-path="url(#clip530)" d="M1356.15 715.897 L1365.7 715.897 L1365.7 682.94 L1355.31 685.023 L1355.31 679.699 L1365.64 677.616 L1371.48 677.616 L1371.48 715.897 L1381.03 715.897 L1381.03 720.816 L1356.15 720.816 L1356.15 715.897 Z" fill="#000000" fill-rule="nonzero" fill-opacity="1" /><path clip-path="url(#clip530)" d="M1483.46 715.897 L1503.85 715.897 L1503.85 720.816 L1476.42 720.816 L1476.42 715.897 Q1479.75 712.453 1485.48 706.666 Q1491.24 700.85 1492.71 699.172 Q1495.52 696.018 1496.62 693.848 Q1497.75 691.649 1497.75 689.537 Q1497.75 686.094 1495.32 683.923 Q1492.92 681.753 1489.04 681.753 Q1486.29 681.753 1483.22 682.708 Q1480.19 683.663 1476.71 685.602 L1476.71 679.699 Q1480.24 678.281 1483.31 677.558 Q1486.38 676.834 1488.92 676.834 Q1495.64 676.834 1499.63 680.191 Q1503.62 683.547 1503.62 689.161 Q1503.62 691.823 1502.61 694.224 Q1501.63 696.597 1498.99 699.838 Q1498.27 700.677 1494.39 704.699 Q1490.52 708.692 1483.46 715.897 Z" fill="#000000" fill-rule="nonzero" fill-opacity="1" /><path clip-path="url(#clip530)" d="M1617.42 697.523 Q1621.61 698.42 1623.96 701.256 Q1626.33 704.091 1626.33 708.258 Q1626.33 714.652 1621.93 718.154 Q1617.53 721.655 1609.43 721.655 Q1606.71 721.655 1603.82 721.105 Q1600.95 720.584 1597.89 719.514 L1597.89 713.871 Q1600.32 715.289 1603.21 716.012 Q1606.1 716.736 1609.26 716.736 Q1614.76 716.736 1617.62 714.566 Q1620.51 712.396 1620.51 708.258 Q1620.51 704.438 1617.82 702.297 Q1615.16 700.127 1610.39 700.127 L1605.35 700.127 L1605.35 695.324 L1610.62 695.324 Q1614.93 695.324 1617.22 693.617 Q1619.5 691.881 1619.5 688.64 Q1619.5 685.312 1617.13 683.547 Q1614.79 681.753 1610.39 681.753 Q1607.99 681.753 1605.24 682.274 Q1602.49 682.795 1599.19 683.895 L1599.19 678.686 Q1602.52 677.76 1605.41 677.297 Q1608.33 676.834 1610.91 676.834 Q1617.56 676.834 1621.44 679.873 Q1625.32 682.882 1625.32 688.032 Q1625.32 691.62 1623.26 694.109 Q1621.21 696.568 1617.42 697.523 Z" fill="#000000" fill-rule="nonzero" fill-opacity="1" /><path clip-path="url(#clip530)" d="M1737.84 682.708 L1723.08 705.769 L1737.84 705.769 L1737.84 682.708 M1736.31 677.616 L1743.66 677.616 L1743.66 705.769 L1749.82 705.769 L1749.82 710.63 L1743.66 710.63 L1743.66 720.816 L1737.84 720.816 L1737.84 710.63 L1718.34 710.63 L1718.34 704.988 L1736.31 677.616 Z" fill="#000000" fill-rule="nonzero" fill-opacity="1" /><path clip-path="url(#clip530)" d="M1843.89 677.616 L1866.84 677.616 L1866.84 682.535 L1849.25 682.535 L1849.25 693.125 Q1850.52 692.691 1851.79 692.488 Q1853.07 692.257 1854.34 692.257 Q1861.57 692.257 1865.8 696.221 Q1870.02 700.185 1870.02 706.956 Q1870.02 713.929 1865.68 717.806 Q1861.34 721.655 1853.44 721.655 Q1850.72 721.655 1847.89 721.192 Q1845.08 720.729 1842.07 719.803 L1842.07 713.929 Q1844.68 715.347 1847.45 716.041 Q1850.23 716.736 1853.33 716.736 Q1858.33 716.736 1861.26 714.103 Q1864.18 711.47 1864.18 706.956 Q1864.18 702.442 1861.26 699.809 Q1858.33 697.176 1853.33 697.176 Q1850.98 697.176 1848.64 697.697 Q1846.32 698.217 1843.89 699.317 L1843.89 677.616 Z" fill="#000000" fill-rule="nonzero" fill-opacity="1" /><path clip-path="url(#clip530)" d="M1460.7 762.288 L1467.13 762.288 L1467.13 781.767 L1490.49 781.767 L1490.49 762.288 L1496.92 762.288 L1496.92 809.808 L1490.49 809.808 L1490.49 787.178 L1467.13 787.178 L1467.13 809.808 L1460.7 809.808 L1460.7 762.288 Z" fill="#000000" fill-rule="nonzero" fill-opacity="1" /><path clip-path="url(#clip530)" d="M1525.66 791.888 Q1518.56 791.888 1515.83 793.511 Q1513.09 795.135 1513.09 799.05 Q1513.09 802.169 1515.13 804.015 Q1517.2 805.829 1520.73 805.829 Q1525.6 805.829 1528.53 802.392 Q1531.49 798.922 1531.49 793.193 L1531.49 791.888 L1525.66 791.888 M1537.34 789.469 L1537.34 809.808 L1531.49 809.808 L1531.49 804.397 Q1529.48 807.643 1526.49 809.203 Q1523.5 810.731 1519.17 810.731 Q1513.69 810.731 1510.45 807.675 Q1507.23 804.588 1507.23 799.432 Q1507.23 793.416 1511.24 790.36 Q1515.29 787.305 1523.28 787.305 L1531.49 787.305 L1531.49 786.732 Q1531.49 782.69 1528.81 780.494 Q1526.17 778.266 1521.37 778.266 Q1518.31 778.266 1515.41 778.998 Q1512.52 779.73 1509.84 781.194 L1509.84 775.783 Q1513.06 774.542 1516.08 773.937 Q1519.11 773.3 1521.97 773.3 Q1529.7 773.3 1533.52 777.311 Q1537.34 781.321 1537.34 789.469 Z" fill="#000000" fill-rule="nonzero" fill-opacity="1" /><path clip-path="url(#clip530)" d="M1570.06 779.634 Q1569.08 779.061 1567.9 778.807 Q1566.75 778.52 1565.35 778.52 Q1560.39 778.52 1557.71 781.767 Q1555.07 784.981 1555.07 791.029 L1555.07 809.808 L1549.18 809.808 L1549.18 774.16 L1555.07 774.16 L1555.07 779.698 Q1556.92 776.451 1559.88 774.892 Q1562.84 773.3 1567.07 773.3 Q1567.68 773.3 1568.41 773.396 Q1569.14 773.459 1570.03 773.619 L1570.06 779.634 Z" fill="#000000" fill-rule="nonzero" fill-opacity="1" /><path clip-path="url(#clip530)" d="M1602.81 781.003 Q1605.01 777.056 1608.07 775.178 Q1611.12 773.3 1615.26 773.3 Q1620.83 773.3 1623.85 777.215 Q1626.88 781.098 1626.88 788.292 L1626.88 809.808 L1620.99 809.808 L1620.99 788.483 Q1620.99 783.358 1619.17 780.875 Q1617.36 778.393 1613.64 778.393 Q1609.08 778.393 1606.44 781.417 Q1603.8 784.44 1603.8 789.66 L1603.8 809.808 L1597.91 809.808 L1597.91 788.483 Q1597.91 783.326 1596.1 780.875 Q1594.28 778.393 1590.5 778.393 Q1586.01 778.393 1583.37 781.448 Q1580.73 784.472 1580.73 789.66 L1580.73 809.808 L1574.84 809.808 L1574.84 774.16 L1580.73 774.16 L1580.73 779.698 Q1582.73 776.419 1585.53 774.86 Q1588.33 773.3 1592.18 773.3 Q1596.07 773.3 1598.77 775.274 Q1601.51 777.247 1602.81 781.003 Z" fill="#000000" fill-rule="nonzero" fill-opacity="1" /><path clip-path="url(#clip530)" d="M1652.37 778.266 Q1647.66 778.266 1644.92 781.958 Q1642.19 785.618 1642.19 792.015 Q1642.19 798.413 1644.89 802.105 Q1647.63 805.765 1652.37 805.765 Q1657.05 805.765 1659.79 802.073 Q1662.53 798.381 1662.53 792.015 Q1662.53 785.682 1659.79 781.989 Q1657.05 778.266 1652.37 778.266 M1652.37 773.3 Q1660.01 773.3 1664.37 778.266 Q1668.73 783.231 1668.73 792.015 Q1668.73 800.768 1664.37 805.765 Q1660.01 810.731 1652.37 810.731 Q1644.7 810.731 1640.34 805.765 Q1636.01 800.768 1636.01 792.015 Q1636.01 783.231 1640.34 778.266 Q1644.7 773.3 1652.37 773.3 Z" fill="#000000" fill-rule="nonzero" fill-opacity="1" /><path clip-path="url(#clip530)" d="M1708.07 788.292 L1708.07 809.808 L1702.22 809.808 L1702.22 788.483 Q1702.22 783.422 1700.24 780.907 Q1698.27 778.393 1694.32 778.393 Q1689.58 778.393 1686.84 781.417 Q1684.1 784.44 1684.1 789.66 L1684.1 809.808 L1678.22 809.808 L1678.22 774.16 L1684.1 774.16 L1684.1 779.698 Q1686.21 776.483 1689.04 774.892 Q1691.9 773.3 1695.63 773.3 Q1701.77 773.3 1704.92 777.12 Q1708.07 780.907 1708.07 788.292 Z" fill="#000000" fill-rule="nonzero" fill-opacity="1" /><path clip-path="url(#clip530)" d="M1719.75 774.16 L1725.61 774.16 L1725.61 809.808 L1719.75 809.808 L1719.75 774.16 M1719.75 760.282 L1725.61 760.282 L1725.61 767.698 L1719.75 767.698 L1719.75 760.282 Z" fill="#000000" fill-rule="nonzero" fill-opacity="1" /><path clip-path="url(#clip530)" d="M1763.52 775.528 L1763.52 781.003 Q1761.03 779.634 1758.52 778.966 Q1756.04 778.266 1753.49 778.266 Q1747.79 778.266 1744.64 781.894 Q1741.49 785.491 1741.49 792.015 Q1741.49 798.54 1744.64 802.169 Q1747.79 805.765 1753.49 805.765 Q1756.04 805.765 1758.52 805.097 Q1761.03 804.397 1763.52 803.028 L1763.52 808.439 Q1761.07 809.585 1758.42 810.158 Q1755.81 810.731 1752.85 810.731 Q1744.8 810.731 1740.06 805.67 Q1735.32 800.609 1735.32 792.015 Q1735.32 783.294 1740.09 778.297 Q1744.9 773.3 1753.24 773.3 Q1755.94 773.3 1758.52 773.873 Q1761.1 774.414 1763.52 775.528 Z" fill="#000000" fill-rule="nonzero" fill-opacity="1" /><polyline clip-path="url(#clip530)" style="stroke:#000000; stroke-linecap:round; stroke-linejoin:round; stroke-width:4; stroke-opacity:1; fill:none" points="1353.53,642.624 1353.53,195.857 "/>
<polyline clip-path="url(#clip530)" style="stroke:#000000; stroke-linecap:round; stroke-linejoin:round; stroke-width:4; stroke-opacity:1; fill:none" points="1353.53,642.624 1372.43,642.624 "/>
<polyline clip-path="url(#clip530)" style="stroke:#000000; stroke-linecap:round; stroke-linejoin:round; stroke-width:4; stroke-opacity:1; fill:none" points="1353.53,419.24 1372.43,419.24 "/>
<polyline clip-path="url(#clip530)" style="stroke:#000000; stroke-linecap:round; stroke-linejoin:round; stroke-width:4; stroke-opacity:1; fill:none" points="1353.53,195.857 1372.43,195.857 "/>
<path clip-path="url(#clip530)" d="M1219.79 667.364 L1229.34 667.364 L1229.34 634.407 L1218.95 636.49 L1218.95 631.166 L1229.28 629.083 L1235.13 629.083 L1235.13 667.364 L1244.68 667.364 L1244.68 672.283 L1219.79 672.283 L1219.79 667.364 Z" fill="#000000" fill-rule="nonzero" fill-opacity="1" /><path clip-path="url(#clip530)" d="M1268.98 632.931 Q1264.47 632.931 1262.18 637.387 Q1259.92 641.815 1259.92 650.727 Q1259.92 659.61 1262.18 664.066 Q1264.47 668.493 1268.98 668.493 Q1273.52 668.493 1275.78 664.066 Q1278.07 659.61 1278.07 650.727 Q1278.07 641.815 1275.78 637.387 Q1273.52 632.931 1268.98 632.931 M1268.98 628.302 Q1276.24 628.302 1280.06 634.06 Q1283.91 639.789 1283.91 650.727 Q1283.91 661.635 1280.06 667.393 Q1276.24 673.122 1268.98 673.122 Q1261.72 673.122 1257.87 667.393 Q1254.05 661.635 1254.05 650.727 Q1254.05 639.789 1257.87 634.06 Q1261.72 628.302 1268.98 628.302 Z" fill="#000000" fill-rule="nonzero" fill-opacity="1" /><path clip-path="url(#clip530)" d="M1296.04 606.047 Q1292.38 606.047 1290.52 609.667 Q1288.68 613.264 1288.68 620.505 Q1288.68 627.723 1290.52 631.343 Q1292.38 634.94 1296.04 634.94 Q1299.73 634.94 1301.57 631.343 Q1303.43 627.723 1303.43 620.505 Q1303.43 613.264 1301.57 609.667 Q1299.73 606.047 1296.04 606.047 M1296.04 602.285 Q1301.94 602.285 1305.05 606.964 Q1308.17 611.619 1308.17 620.505 Q1308.17 629.369 1305.05 634.047 Q1301.94 638.702 1296.04 638.702 Q1290.14 638.702 1287.02 634.047 Q1283.91 629.369 1283.91 620.505 Q1283.91 611.619 1287.02 606.964 Q1290.14 602.285 1296.04 602.285 Z" fill="#000000" fill-rule="nonzero" fill-opacity="1" /><path clip-path="url(#clip530)" d="M1221.34 443.981 L1230.89 443.981 L1230.89 411.024 L1220.5 413.107 L1220.5 407.783 L1230.83 405.7 L1236.68 405.7 L1236.68 443.981 L1246.23 443.981 L1246.23 448.9 L1221.34 448.9 L1221.34 443.981 Z" fill="#000000" fill-rule="nonzero" fill-opacity="1" /><path clip-path="url(#clip530)" d="M1270.53 409.548 Q1266.02 409.548 1263.73 414.004 Q1261.48 418.431 1261.48 427.343 Q1261.48 436.226 1263.73 440.682 Q1266.02 445.109 1270.53 445.109 Q1275.08 445.109 1277.33 440.682 Q1279.62 436.226 1279.62 427.343 Q1279.62 418.431 1277.33 414.004 Q1275.08 409.548 1270.53 409.548 M1270.53 404.919 Q1277.8 404.919 1281.62 410.677 Q1285.46 416.406 1285.46 427.343 Q1285.46 438.252 1281.62 444.01 Q1277.8 449.739 1270.53 449.739 Q1263.27 449.739 1259.42 444.01 Q1255.6 438.252 1255.6 427.343 Q1255.6 416.406 1259.42 410.677 Q1263.27 404.919 1270.53 404.919 Z" fill="#000000" fill-rule="nonzero" fill-opacity="1" /><path clip-path="url(#clip530)" d="M1286.94 379.537 L1305.59 379.537 L1305.59 383.533 L1291.29 383.533 L1291.29 392.138 Q1292.33 391.785 1293.36 391.621 Q1294.4 391.433 1295.43 391.433 Q1301.31 391.433 1304.74 394.654 Q1308.17 397.874 1308.17 403.376 Q1308.17 409.041 1304.65 412.192 Q1301.12 415.319 1294.7 415.319 Q1292.49 415.319 1290.19 414.942 Q1287.91 414.566 1285.46 413.814 L1285.46 409.041 Q1287.58 410.193 1289.84 410.758 Q1292.09 411.322 1294.61 411.322 Q1298.68 411.322 1301.05 409.183 Q1303.43 407.043 1303.43 403.376 Q1303.43 399.708 1301.05 397.569 Q1298.68 395.429 1294.61 395.429 Q1292.7 395.429 1290.8 395.853 Q1288.92 396.276 1286.94 397.169 L1286.94 379.537 Z" fill="#000000" fill-rule="nonzero" fill-opacity="1" /><path clip-path="url(#clip530)" d="M1191.27 220.597 L1200.82 220.597 L1200.82 187.64 L1190.44 189.724 L1190.44 184.4 L1200.77 182.316 L1206.61 182.316 L1206.61 220.597 L1216.16 220.597 L1216.16 225.516 L1191.27 225.516 L1191.27 220.597 Z" fill="#000000" fill-rule="nonzero" fill-opacity="1" /><path clip-path="url(#clip530)" d="M1240.46 186.165 Q1235.95 186.165 1233.66 190.621 Q1231.41 195.048 1231.41 203.96 Q1231.41 212.843 1233.66 217.299 Q1235.95 221.726 1240.46 221.726 Q1245.01 221.726 1247.26 217.299 Q1249.55 212.843 1249.55 203.96 Q1249.55 195.048 1247.26 190.621 Q1245.01 186.165 1240.46 186.165 M1240.46 181.535 Q1247.73 181.535 1251.55 187.293 Q1255.39 193.022 1255.39 203.96 Q1255.39 214.868 1251.55 220.626 Q1247.73 226.356 1240.46 226.356 Q1233.2 226.356 1229.35 220.626 Q1225.53 214.868 1225.53 203.96 Q1225.53 193.022 1229.35 187.293 Q1233.2 181.535 1240.46 181.535 Z" fill="#000000" fill-rule="nonzero" fill-opacity="1" /><path clip-path="url(#clip530)" d="M1256.08 187.257 L1263.83 187.257 L1263.83 160.479 L1255.39 162.172 L1255.39 157.846 L1263.79 156.153 L1268.54 156.153 L1268.54 187.257 L1276.29 187.257 L1276.29 191.253 L1256.08 191.253 L1256.08 187.257 Z" fill="#000000" fill-rule="nonzero" fill-opacity="1" /><path clip-path="url(#clip530)" d="M1296.04 159.28 Q1292.38 159.28 1290.52 162.901 Q1288.68 166.498 1288.68 173.739 Q1288.68 180.956 1290.52 184.577 Q1292.38 188.174 1296.04 188.174 Q1299.73 188.174 1301.57 184.577 Q1303.43 180.956 1303.43 173.739 Q1303.43 166.498 1301.57 162.901 Q1299.73 159.28 1296.04 159.28 M1296.04 155.519 Q1301.94 155.519 1305.05 160.197 Q1308.17 164.852 1308.17 173.739 Q1308.17 182.602 1305.05 187.28 Q1301.94 191.935 1296.04 191.935 Q1290.14 191.935 1287.02 187.28 Q1283.91 182.602 1283.91 173.739 Q1283.91 164.852 1287.02 160.197 Q1290.14 155.519 1296.04 155.519 Z" fill="#000000" fill-rule="nonzero" fill-opacity="1" /><path clip-path="url(#clip530)" d="M1570.48 10.368 L1577.49 10.368 L1577.49 31.6179 L1602.98 31.6179 L1602.98 10.368 L1609.99 10.368 L1609.99 62.208 L1602.98 62.208 L1602.98 37.5206 L1577.49 37.5206 L1577.49 62.208 L1570.48 62.208 L1570.48 10.368 Z" fill="#000000" fill-rule="nonzero" fill-opacity="1" /><path clip-path="url(#clip530)" d="M1623.95 10.368 L1653.74 10.368 L1653.74 16.2707 L1630.96 16.2707 L1630.96 31.5484 L1651.52 31.5484 L1651.52 37.4512 L1630.96 37.4512 L1630.96 62.208 L1623.95 62.208 L1623.95 10.368 Z" fill="#000000" fill-rule="nonzero" fill-opacity="1" /><polyline clip-path="url(#clip533)" style="stroke:#0000ff; stroke-linecap:round; stroke-linejoin:round; stroke-width:12; stroke-opacity:1; fill:none" points="1368.17,318.977 1490.14,367.3 1612.11,380.061 1734.08,392.205 1856.05,405.509 "/>
<polyline clip-path="url(#clip533)" style="stroke:#7f007f; stroke-linecap:round; stroke-linejoin:round; stroke-width:12; stroke-opacity:1; fill:none" points="1368.17,319.588 1490.14,386.409 1612.11,410.959 1734.08,440.107 1856.05,505.665 "/>
<polyline clip-path="url(#clip533)" style="stroke:#ff0000; stroke-linecap:round; stroke-linejoin:round; stroke-width:12; stroke-opacity:1; fill:none" points="1368.17,300.626 1490.14,368.1 1612.11,405.36 1734.08,452.298 1856.05,498.624 "/>
<path clip-path="url(#clip530)" d="M2349.37 642.624 L2658.68 642.624 L2658.68 195.857 L2349.37 195.857  Z" fill="#ffffff" fill-rule="evenodd" fill-opacity="1"/>
<defs>
  <clipPath id="clip534">
    <rect x="2349" y="195" width="310" height="448"/>
  </clipPath>
</defs>
<polyline clip-path="url(#clip534)" style="stroke:#000000; stroke-linecap:round; stroke-linejoin:round; stroke-width:2; stroke-opacity:0.1; fill:none" points="2358.12,642.624 2358.12,195.857 "/>
<polyline clip-path="url(#clip534)" style="stroke:#000000; stroke-linecap:round; stroke-linejoin:round; stroke-width:2; stroke-opacity:0.1; fill:none" points="2431.07,642.624 2431.07,195.857 "/>
<polyline clip-path="url(#clip534)" style="stroke:#000000; stroke-linecap:round; stroke-linejoin:round; stroke-width:2; stroke-opacity:0.1; fill:none" points="2504.02,642.624 2504.02,195.857 "/>
<polyline clip-path="url(#clip534)" style="stroke:#000000; stroke-linecap:round; stroke-linejoin:round; stroke-width:2; stroke-opacity:0.1; fill:none" points="2576.97,642.624 2576.97,195.857 "/>
<polyline clip-path="url(#clip534)" style="stroke:#000000; stroke-linecap:round; stroke-linejoin:round; stroke-width:2; stroke-opacity:0.1; fill:none" points="2649.92,642.624 2649.92,195.857 "/>
<polyline clip-path="url(#clip534)" style="stroke:#000000; stroke-linecap:round; stroke-linejoin:round; stroke-width:2; stroke-opacity:0.1; fill:none" points="2349.37,642.624 2658.68,642.624 "/>
<polyline clip-path="url(#clip534)" style="stroke:#000000; stroke-linecap:round; stroke-linejoin:round; stroke-width:2; stroke-opacity:0.1; fill:none" points="2349.37,419.24 2658.68,419.24 "/>
<polyline clip-path="url(#clip534)" style="stroke:#000000; stroke-linecap:round; stroke-linejoin:round; stroke-width:2; stroke-opacity:0.1; fill:none" points="2349.37,195.857 2658.68,195.857 "/>
<polyline clip-path="url(#clip530)" style="stroke:#000000; stroke-linecap:round; stroke-linejoin:round; stroke-width:4; stroke-opacity:1; fill:none" points="2349.37,642.624 2658.68,642.624 "/>
<polyline clip-path="url(#clip530)" style="stroke:#000000; stroke-linecap:round; stroke-linejoin:round; stroke-width:4; stroke-opacity:1; fill:none" points="2358.12,642.624 2358.12,623.726 "/>
<polyline clip-path="url(#clip530)" style="stroke:#000000; stroke-linecap:round; stroke-linejoin:round; stroke-width:4; stroke-opacity:1; fill:none" points="2431.07,642.624 2431.07,623.726 "/>
<polyline clip-path="url(#clip530)" style="stroke:#000000; stroke-linecap:round; stroke-linejoin:round; stroke-width:4; stroke-opacity:1; fill:none" points="2504.02,642.624 2504.02,623.726 "/>
<polyline clip-path="url(#clip530)" style="stroke:#000000; stroke-linecap:round; stroke-linejoin:round; stroke-width:4; stroke-opacity:1; fill:none" points="2576.97,642.624 2576.97,623.726 "/>
<polyline clip-path="url(#clip530)" style="stroke:#000000; stroke-linecap:round; stroke-linejoin:round; stroke-width:4; stroke-opacity:1; fill:none" points="2649.92,642.624 2649.92,623.726 "/>
<path clip-path="url(#clip530)" d="M2346.1 715.897 L2355.65 715.897 L2355.65 682.94 L2345.26 685.023 L2345.26 679.699 L2355.59 677.616 L2361.44 677.616 L2361.44 715.897 L2370.99 715.897 L2370.99 720.816 L2346.1 720.816 L2346.1 715.897 Z" fill="#000000" fill-rule="nonzero" fill-opacity="1" /><path clip-path="url(#clip530)" d="M2424.39 715.897 L2444.79 715.897 L2444.79 720.816 L2417.36 720.816 L2417.36 715.897 Q2420.69 712.453 2426.42 706.666 Q2432.17 700.85 2433.65 699.172 Q2436.46 696.018 2437.56 693.848 Q2438.68 691.649 2438.68 689.537 Q2438.68 686.094 2436.25 683.923 Q2433.85 681.753 2429.97 681.753 Q2427.23 681.753 2424.16 682.708 Q2421.12 683.663 2417.65 685.602 L2417.65 679.699 Q2421.18 678.281 2424.25 677.558 Q2427.31 676.834 2429.86 676.834 Q2436.57 676.834 2440.57 680.191 Q2444.56 683.547 2444.56 689.161 Q2444.56 691.823 2443.55 694.224 Q2442.56 696.597 2439.93 699.838 Q2439.21 700.677 2435.33 704.699 Q2431.45 708.692 2424.39 715.897 Z" fill="#000000" fill-rule="nonzero" fill-opacity="1" /><path clip-path="url(#clip530)" d="M2509.33 697.523 Q2513.53 698.42 2515.87 701.256 Q2518.25 704.091 2518.25 708.258 Q2518.25 714.652 2513.85 718.154 Q2509.45 721.655 2501.35 721.655 Q2498.63 721.655 2495.73 721.105 Q2492.87 720.584 2489.8 719.514 L2489.8 713.871 Q2492.23 715.289 2495.13 716.012 Q2498.02 716.736 2501.17 716.736 Q2506.67 716.736 2509.54 714.566 Q2512.43 712.396 2512.43 708.258 Q2512.43 704.438 2509.74 702.297 Q2507.08 700.127 2502.3 700.127 L2497.27 700.127 L2497.27 695.324 L2502.53 695.324 Q2506.85 695.324 2509.13 693.617 Q2511.42 691.881 2511.42 688.64 Q2511.42 685.312 2509.04 683.547 Q2506.7 681.753 2502.3 681.753 Q2499.9 681.753 2497.15 682.274 Q2494.4 682.795 2491.1 683.895 L2491.1 678.686 Q2494.43 677.76 2497.33 677.297 Q2500.25 676.834 2502.82 676.834 Q2509.48 676.834 2513.36 679.873 Q2517.23 682.882 2517.23 688.032 Q2517.23 691.62 2515.18 694.109 Q2513.12 696.568 2509.33 697.523 Z" fill="#000000" fill-rule="nonzero" fill-opacity="1" /><path clip-path="url(#clip530)" d="M2580.74 682.708 L2565.98 705.769 L2580.74 705.769 L2580.74 682.708 M2579.2 677.616 L2586.55 677.616 L2586.55 705.769 L2592.71 705.769 L2592.71 710.63 L2586.55 710.63 L2586.55 720.816 L2580.74 720.816 L2580.74 710.63 L2561.23 710.63 L2561.23 704.988 L2579.2 677.616 Z" fill="#000000" fill-rule="nonzero" fill-opacity="1" /><path clip-path="url(#clip530)" d="M2637.77 677.616 L2660.72 677.616 L2660.72 682.535 L2643.12 682.535 L2643.12 693.125 Q2644.4 692.691 2645.67 692.488 Q2646.94 692.257 2648.22 692.257 Q2655.45 692.257 2659.68 696.221 Q2663.9 700.185 2663.9 706.956 Q2663.9 713.929 2659.56 717.806 Q2655.22 721.655 2647.32 721.655 Q2644.6 721.655 2641.76 721.192 Q2638.96 720.729 2635.95 719.803 L2635.95 713.929 Q2638.55 715.347 2641.33 716.041 Q2644.11 716.736 2647.2 716.736 Q2652.21 716.736 2655.13 714.103 Q2658.06 711.47 2658.06 706.956 Q2658.06 702.442 2655.13 699.809 Q2652.21 697.176 2647.2 697.176 Q2644.86 697.176 2642.52 697.697 Q2640.2 698.217 2637.77 699.317 L2637.77 677.616 Z" fill="#000000" fill-rule="nonzero" fill-opacity="1" /><path clip-path="url(#clip530)" d="M2352.62 762.288 L2359.05 762.288 L2359.05 781.767 L2382.41 781.767 L2382.41 762.288 L2388.84 762.288 L2388.84 809.808 L2382.41 809.808 L2382.41 787.178 L2359.05 787.178 L2359.05 809.808 L2352.62 809.808 L2352.62 762.288 Z" fill="#000000" fill-rule="nonzero" fill-opacity="1" /><path clip-path="url(#clip530)" d="M2417.58 791.888 Q2410.48 791.888 2407.74 793.511 Q2405.01 795.135 2405.01 799.05 Q2405.01 802.169 2407.04 804.015 Q2409.11 805.829 2412.64 805.829 Q2417.51 805.829 2420.44 802.392 Q2423.4 798.922 2423.4 793.193 L2423.4 791.888 L2417.58 791.888 M2429.26 789.469 L2429.26 809.808 L2423.4 809.808 L2423.4 804.397 Q2421.4 807.643 2418.41 809.203 Q2415.41 810.731 2411.09 810.731 Q2405.61 810.731 2402.36 807.675 Q2399.15 804.588 2399.15 799.432 Q2399.15 793.416 2403.16 790.36 Q2407.2 787.305 2415.19 787.305 L2423.4 787.305 L2423.4 786.732 Q2423.4 782.69 2420.73 780.494 Q2418.09 778.266 2413.28 778.266 Q2410.23 778.266 2407.33 778.998 Q2404.43 779.73 2401.76 781.194 L2401.76 775.783 Q2404.97 774.542 2408 773.937 Q2411.02 773.3 2413.89 773.3 Q2421.62 773.3 2425.44 777.311 Q2429.26 781.321 2429.26 789.469 Z" fill="#000000" fill-rule="nonzero" fill-opacity="1" /><path clip-path="url(#clip530)" d="M2461.98 779.634 Q2460.99 779.061 2459.81 778.807 Q2458.67 778.52 2457.27 778.52 Q2452.3 778.52 2449.63 781.767 Q2446.99 784.981 2446.99 791.029 L2446.99 809.808 L2441.1 809.808 L2441.1 774.16 L2446.99 774.16 L2446.99 779.698 Q2448.83 776.451 2451.79 774.892 Q2454.75 773.3 2458.99 773.3 Q2459.59 773.3 2460.32 773.396 Q2461.06 773.459 2461.95 773.619 L2461.98 779.634 Z" fill="#000000" fill-rule="nonzero" fill-opacity="1" /><path clip-path="url(#clip530)" d="M2494.73 781.003 Q2496.93 777.056 2499.98 775.178 Q2503.04 773.3 2507.18 773.3 Q2512.75 773.3 2515.77 777.215 Q2518.79 781.098 2518.79 788.292 L2518.79 809.808 L2512.9 809.808 L2512.9 788.483 Q2512.9 783.358 2511.09 780.875 Q2509.28 778.393 2505.55 778.393 Q2501 778.393 2498.36 781.417 Q2495.72 784.44 2495.72 789.66 L2495.72 809.808 L2489.83 809.808 L2489.83 788.483 Q2489.83 783.326 2488.01 780.875 Q2486.2 778.393 2482.41 778.393 Q2477.92 778.393 2475.28 781.448 Q2472.64 784.472 2472.64 789.66 L2472.64 809.808 L2466.75 809.808 L2466.75 774.16 L2472.64 774.16 L2472.64 779.698 Q2474.65 776.419 2477.45 774.86 Q2480.25 773.3 2484.1 773.3 Q2487.98 773.3 2490.69 775.274 Q2493.43 777.247 2494.73 781.003 Z" fill="#000000" fill-rule="nonzero" fill-opacity="1" /><path clip-path="url(#clip530)" d="M2544.29 778.266 Q2539.58 778.266 2536.84 781.958 Q2534.1 785.618 2534.1 792.015 Q2534.1 798.413 2536.81 802.105 Q2539.55 805.765 2544.29 805.765 Q2548.97 805.765 2551.7 802.073 Q2554.44 798.381 2554.44 792.015 Q2554.44 785.682 2551.7 781.989 Q2548.97 778.266 2544.29 778.266 M2544.29 773.3 Q2551.93 773.3 2556.29 778.266 Q2560.65 783.231 2560.65 792.015 Q2560.65 800.768 2556.29 805.765 Q2551.93 810.731 2544.29 810.731 Q2536.62 810.731 2532.26 805.765 Q2527.93 800.768 2527.93 792.015 Q2527.93 783.231 2532.26 778.266 Q2536.62 773.3 2544.29 773.3 Z" fill="#000000" fill-rule="nonzero" fill-opacity="1" /><path clip-path="url(#clip530)" d="M2599.99 788.292 L2599.99 809.808 L2594.13 809.808 L2594.13 788.483 Q2594.13 783.422 2592.16 780.907 Q2590.18 778.393 2586.24 778.393 Q2581.5 778.393 2578.76 781.417 Q2576.02 784.44 2576.02 789.66 L2576.02 809.808 L2570.13 809.808 L2570.13 774.16 L2576.02 774.16 L2576.02 779.698 Q2578.12 776.483 2580.95 774.892 Q2583.82 773.3 2587.54 773.3 Q2593.69 773.3 2596.84 777.12 Q2599.99 780.907 2599.99 788.292 Z" fill="#000000" fill-rule="nonzero" fill-opacity="1" /><path clip-path="url(#clip530)" d="M2611.67 774.16 L2617.52 774.16 L2617.52 809.808 L2611.67 809.808 L2611.67 774.16 M2611.67 760.282 L2617.52 760.282 L2617.52 767.698 L2611.67 767.698 L2611.67 760.282 Z" fill="#000000" fill-rule="nonzero" fill-opacity="1" /><path clip-path="url(#clip530)" d="M2655.43 775.528 L2655.43 781.003 Q2652.95 779.634 2650.44 778.966 Q2647.95 778.266 2645.41 778.266 Q2639.71 778.266 2636.56 781.894 Q2633.41 785.491 2633.41 792.015 Q2633.41 798.54 2636.56 802.169 Q2639.71 805.765 2645.41 805.765 Q2647.95 805.765 2650.44 805.097 Q2652.95 804.397 2655.43 803.028 L2655.43 808.439 Q2652.98 809.585 2650.34 810.158 Q2647.73 810.731 2644.77 810.731 Q2636.72 810.731 2631.98 805.67 Q2627.23 800.609 2627.23 792.015 Q2627.23 783.294 2632.01 778.297 Q2636.81 773.3 2645.15 773.3 Q2647.86 773.3 2650.44 773.873 Q2653.01 774.414 2655.43 775.528 Z" fill="#000000" fill-rule="nonzero" fill-opacity="1" /><polyline clip-path="url(#clip530)" style="stroke:#000000; stroke-linecap:round; stroke-linejoin:round; stroke-width:4; stroke-opacity:1; fill:none" points="2349.37,642.624 2349.37,195.857 "/>
<polyline clip-path="url(#clip530)" style="stroke:#000000; stroke-linecap:round; stroke-linejoin:round; stroke-width:4; stroke-opacity:1; fill:none" points="2349.37,642.624 2360.67,642.624 "/>
<polyline clip-path="url(#clip530)" style="stroke:#000000; stroke-linecap:round; stroke-linejoin:round; stroke-width:4; stroke-opacity:1; fill:none" points="2349.37,419.24 2360.67,419.24 "/>
<polyline clip-path="url(#clip530)" style="stroke:#000000; stroke-linecap:round; stroke-linejoin:round; stroke-width:4; stroke-opacity:1; fill:none" points="2349.37,195.857 2360.67,195.857 "/>
<path clip-path="url(#clip530)" d="M2215.63 667.364 L2225.18 667.364 L2225.18 634.407 L2214.79 636.49 L2214.79 631.166 L2225.12 629.083 L2230.96 629.083 L2230.96 667.364 L2240.51 667.364 L2240.51 672.283 L2215.63 672.283 L2215.63 667.364 Z" fill="#000000" fill-rule="nonzero" fill-opacity="1" /><path clip-path="url(#clip530)" d="M2264.82 632.931 Q2260.3 632.931 2258.02 637.387 Q2255.76 641.815 2255.76 650.727 Q2255.76 659.61 2258.02 664.066 Q2260.3 668.493 2264.82 668.493 Q2269.36 668.493 2271.62 664.066 Q2273.9 659.61 2273.9 650.727 Q2273.9 641.815 2271.62 637.387 Q2269.36 632.931 2264.82 632.931 M2264.82 628.302 Q2272.08 628.302 2275.9 634.06 Q2279.75 639.789 2279.75 650.727 Q2279.75 661.635 2275.9 667.393 Q2272.08 673.122 2264.82 673.122 Q2257.56 673.122 2253.71 667.393 Q2249.89 661.635 2249.89 650.727 Q2249.89 639.789 2253.71 634.06 Q2257.56 628.302 2264.82 628.302 Z" fill="#000000" fill-rule="nonzero" fill-opacity="1" /><path clip-path="url(#clip530)" d="M2291.88 606.047 Q2288.21 606.047 2286.35 609.667 Q2284.52 613.264 2284.52 620.505 Q2284.52 627.723 2286.35 631.343 Q2288.21 634.94 2291.88 634.94 Q2295.57 634.94 2297.4 631.343 Q2299.26 627.723 2299.26 620.505 Q2299.26 613.264 2297.4 609.667 Q2295.57 606.047 2291.88 606.047 M2291.88 602.285 Q2297.78 602.285 2300.88 606.964 Q2304.01 611.619 2304.01 620.505 Q2304.01 629.369 2300.88 634.047 Q2297.78 638.702 2291.88 638.702 Q2285.98 638.702 2282.85 634.047 Q2279.75 629.369 2279.75 620.505 Q2279.75 611.619 2282.85 606.964 Q2285.98 602.285 2291.88 602.285 Z" fill="#000000" fill-rule="nonzero" fill-opacity="1" /><path clip-path="url(#clip530)" d="M2217.18 443.981 L2226.73 443.981 L2226.73 411.024 L2216.34 413.107 L2216.34 407.783 L2226.67 405.7 L2232.52 405.7 L2232.52 443.981 L2242.06 443.981 L2242.06 448.9 L2217.18 448.9 L2217.18 443.981 Z" fill="#000000" fill-rule="nonzero" fill-opacity="1" /><path clip-path="url(#clip530)" d="M2266.37 409.548 Q2261.86 409.548 2259.57 414.004 Q2257.31 418.431 2257.31 427.343 Q2257.31 436.226 2259.57 440.682 Q2261.86 445.109 2266.37 445.109 Q2270.91 445.109 2273.17 440.682 Q2275.46 436.226 2275.46 427.343 Q2275.46 418.431 2273.17 414.004 Q2270.91 409.548 2266.37 409.548 M2266.37 404.919 Q2273.63 404.919 2277.45 410.677 Q2281.3 416.406 2281.3 427.343 Q2281.3 438.252 2277.45 444.01 Q2273.63 449.739 2266.37 449.739 Q2259.11 449.739 2255.26 444.01 Q2251.44 438.252 2251.44 427.343 Q2251.44 416.406 2255.26 410.677 Q2259.11 404.919 2266.37 404.919 Z" fill="#000000" fill-rule="nonzero" fill-opacity="1" /><path clip-path="url(#clip530)" d="M2282.78 379.537 L2301.42 379.537 L2301.42 383.533 L2287.13 383.533 L2287.13 392.138 Q2288.16 391.785 2289.2 391.621 Q2290.23 391.433 2291.27 391.433 Q2297.15 391.433 2300.58 394.654 Q2304.01 397.874 2304.01 403.376 Q2304.01 409.041 2300.48 412.192 Q2296.96 415.319 2290.54 415.319 Q2288.33 415.319 2286.03 414.942 Q2283.75 414.566 2281.3 413.814 L2281.3 409.041 Q2283.42 410.193 2285.67 410.758 Q2287.93 411.322 2290.45 411.322 Q2294.51 411.322 2296.89 409.183 Q2299.26 407.043 2299.26 403.376 Q2299.26 399.708 2296.89 397.569 Q2294.51 395.429 2290.45 395.429 Q2288.54 395.429 2286.64 395.853 Q2284.76 396.276 2282.78 397.169 L2282.78 379.537 Z" fill="#000000" fill-rule="nonzero" fill-opacity="1" /><path clip-path="url(#clip530)" d="M2187.11 220.597 L2196.66 220.597 L2196.66 187.64 L2186.27 189.724 L2186.27 184.4 L2196.6 182.316 L2202.45 182.316 L2202.45 220.597 L2212 220.597 L2212 225.516 L2187.11 225.516 L2187.11 220.597 Z" fill="#000000" fill-rule="nonzero" fill-opacity="1" /><path clip-path="url(#clip530)" d="M2236.3 186.165 Q2231.79 186.165 2229.5 190.621 Q2227.24 195.048 2227.24 203.96 Q2227.24 212.843 2229.5 217.299 Q2231.79 221.726 2236.3 221.726 Q2240.84 221.726 2243.1 217.299 Q2245.39 212.843 2245.39 203.96 Q2245.39 195.048 2243.1 190.621 Q2240.84 186.165 2236.3 186.165 M2236.3 181.535 Q2243.56 181.535 2247.38 187.293 Q2251.23 193.022 2251.23 203.96 Q2251.23 214.868 2247.38 220.626 Q2243.56 226.356 2236.3 226.356 Q2229.04 226.356 2225.19 220.626 Q2221.37 214.868 2221.37 203.96 Q2221.37 193.022 2225.19 187.293 Q2229.04 181.535 2236.3 181.535 Z" fill="#000000" fill-rule="nonzero" fill-opacity="1" /><path clip-path="url(#clip530)" d="M2251.91 187.257 L2259.67 187.257 L2259.67 160.479 L2251.23 162.172 L2251.23 157.846 L2259.62 156.153 L2264.37 156.153 L2264.37 187.257 L2272.13 187.257 L2272.13 191.253 L2251.91 191.253 L2251.91 187.257 Z" fill="#000000" fill-rule="nonzero" fill-opacity="1" /><path clip-path="url(#clip530)" d="M2291.88 159.28 Q2288.21 159.28 2286.35 162.901 Q2284.52 166.498 2284.52 173.739 Q2284.52 180.956 2286.35 184.577 Q2288.21 188.174 2291.88 188.174 Q2295.57 188.174 2297.4 184.577 Q2299.26 180.956 2299.26 173.739 Q2299.26 166.498 2297.4 162.901 Q2295.57 159.28 2291.88 159.28 M2291.88 155.519 Q2297.78 155.519 2300.88 160.197 Q2304.01 164.852 2304.01 173.739 Q2304.01 182.602 2300.88 187.28 Q2297.78 191.935 2291.88 191.935 Q2285.98 191.935 2282.85 187.28 Q2279.75 182.602 2279.75 173.739 Q2279.75 164.852 2282.85 160.197 Q2285.98 155.519 2291.88 155.519 Z" fill="#000000" fill-rule="nonzero" fill-opacity="1" /><path clip-path="url(#clip530)" d="M2469.32 10.368 L2476.33 10.368 L2476.33 56.3053 L2501.58 56.3053 L2501.58 62.208 L2469.32 62.208 L2469.32 10.368 Z" fill="#000000" fill-rule="nonzero" fill-opacity="1" /><path clip-path="url(#clip530)" d="M2508.94 10.368 L2538.73 10.368 L2538.73 16.2707 L2515.95 16.2707 L2515.95 31.5484 L2536.51 31.5484 L2536.51 37.4512 L2515.95 37.4512 L2515.95 62.208 L2508.94 62.208 L2508.94 10.368 Z" fill="#000000" fill-rule="nonzero" fill-opacity="1" /><polyline clip-path="url(#clip534)" style="stroke:#0000ff; stroke-linecap:round; stroke-linejoin:round; stroke-width:12; stroke-opacity:1; fill:none" points="2358.12,330.577 2431.07,364.076 2504.02,376.956 2576.97,405.256 2649.92,413.067 "/>
<polyline clip-path="url(#clip534)" style="stroke:#7f007f; stroke-linecap:round; stroke-linejoin:round; stroke-width:12; stroke-opacity:1; fill:none" points="2358.12,326.591 2431.07,367.882 2504.02,395.185 2576.97,414.377 2649.92,458.372 "/>
<polyline clip-path="url(#clip534)" style="stroke:#ff0000; stroke-linecap:round; stroke-linejoin:round; stroke-width:12; stroke-opacity:1; fill:none" points="2358.12,317.603 2431.07,401.986 2504.02,435.267 2576.97,500.176 2649.92,537.873 "/>
<path clip-path="url(#clip530)" d="M2675.92 511.892 L2866.52 511.892 L2866.52 304.532 L2675.92 304.532  Z" fill="#ffffff" fill-rule="evenodd" fill-opacity="1"/>
<polyline clip-path="url(#clip530)" style="stroke:#000000; stroke-linecap:round; stroke-linejoin:round; stroke-width:4; stroke-opacity:1; fill:none" points="2675.92,511.892 2866.52,511.892 2866.52,304.532 2675.92,304.532 2675.92,511.892 "/>
<polyline clip-path="url(#clip530)" style="stroke:#0000ff; stroke-linecap:round; stroke-linejoin:round; stroke-width:12; stroke-opacity:1; fill:none" points="2681.66,356.372 2716.14,356.372 "/>
<path clip-path="url(#clip530)" d="M2751.56 350.319 L2727.67 358.815 L2751.56 367.264 L2751.56 371.477 L2721.89 360.713 L2721.89 356.87 L2751.56 346.106 L2751.56 350.319 Z" fill="#000000" fill-rule="nonzero" fill-opacity="1" /><path clip-path="url(#clip530)" d="M2774.5 343.167 L2762.7 361.616 L2774.5 361.616 L2774.5 343.167 M2773.27 339.092 L2779.15 339.092 L2779.15 361.616 L2784.08 361.616 L2784.08 365.504 L2779.15 365.504 L2779.15 373.652 L2774.5 373.652 L2774.5 365.504 L2758.9 365.504 L2758.9 360.991 L2773.27 339.092 Z" fill="#000000" fill-rule="nonzero" fill-opacity="1" /><path clip-path="url(#clip530)" d="M2801.82 342.171 Q2798.2 342.171 2796.38 345.736 Q2794.57 349.278 2794.57 356.407 Q2794.57 363.514 2796.38 367.078 Q2798.2 370.62 2801.82 370.62 Q2805.45 370.62 2807.26 367.078 Q2809.08 363.514 2809.08 356.407 Q2809.08 349.278 2807.26 345.736 Q2805.45 342.171 2801.82 342.171 M2801.82 338.467 Q2807.63 338.467 2810.68 343.074 Q2813.76 347.657 2813.76 356.407 Q2813.76 365.134 2810.68 369.74 Q2807.63 374.324 2801.82 374.324 Q2796.01 374.324 2792.93 369.74 Q2789.87 365.134 2789.87 356.407 Q2789.87 347.657 2792.93 343.074 Q2796.01 338.467 2801.82 338.467 Z" fill="#000000" fill-rule="nonzero" fill-opacity="1" /><polyline clip-path="url(#clip530)" style="stroke:#7f007f; stroke-linecap:round; stroke-linejoin:round; stroke-width:12; stroke-opacity:1; fill:none" points="2681.66,408.212 2716.14,408.212 "/>
<path clip-path="url(#clip530)" d="M2737.49 395.007 L2725.68 413.456 L2737.49 413.456 L2737.49 395.007 M2736.26 390.932 L2742.14 390.932 L2742.14 413.456 L2747.07 413.456 L2747.07 417.344 L2742.14 417.344 L2742.14 425.492 L2737.49 425.492 L2737.49 417.344 L2721.89 417.344 L2721.89 412.831 L2736.26 390.932 Z" fill="#000000" fill-rule="nonzero" fill-opacity="1" /><path clip-path="url(#clip530)" d="M2764.8 394.011 Q2761.19 394.011 2759.36 397.576 Q2757.56 401.118 2757.56 408.247 Q2757.56 415.354 2759.36 418.918 Q2761.19 422.46 2764.8 422.46 Q2768.44 422.46 2770.24 418.918 Q2772.07 415.354 2772.07 408.247 Q2772.07 401.118 2770.24 397.576 Q2768.44 394.011 2764.8 394.011 M2764.8 390.307 Q2770.61 390.307 2773.67 394.914 Q2776.75 399.497 2776.75 408.247 Q2776.75 416.974 2773.67 421.58 Q2770.61 426.164 2764.8 426.164 Q2758.99 426.164 2755.91 421.58 Q2752.86 416.974 2752.86 408.247 Q2752.86 399.497 2755.91 394.914 Q2758.99 390.307 2764.8 390.307 Z" fill="#000000" fill-rule="nonzero" fill-opacity="1" /><path clip-path="url(#clip530)" d="M2782.21 410.84 L2801.28 410.84 L2801.28 414.173 L2782.21 414.173 L2782.21 410.84 Z" fill="#000000" fill-rule="nonzero" fill-opacity="1" /><path clip-path="url(#clip530)" d="M2819.25 406.349 Q2816.1 406.349 2814.25 408.502 Q2812.42 410.655 2812.42 414.405 Q2812.42 418.131 2814.25 420.307 Q2816.1 422.46 2819.25 422.46 Q2822.39 422.46 2824.22 420.307 Q2826.07 418.131 2826.07 414.405 Q2826.07 410.655 2824.22 408.502 Q2822.39 406.349 2819.25 406.349 M2828.53 391.696 L2828.53 395.956 Q2826.77 395.122 2824.96 394.682 Q2823.18 394.243 2821.42 394.243 Q2816.79 394.243 2814.34 397.368 Q2811.91 400.493 2811.56 406.812 Q2812.93 404.798 2814.99 403.733 Q2817.05 402.645 2819.52 402.645 Q2824.73 402.645 2827.74 405.817 Q2830.77 408.965 2830.77 414.405 Q2830.77 419.729 2827.63 422.946 Q2824.48 426.164 2819.25 426.164 Q2813.25 426.164 2810.08 421.58 Q2806.91 416.974 2806.91 408.247 Q2806.91 400.053 2810.8 395.192 Q2814.69 390.307 2821.24 390.307 Q2823 390.307 2824.78 390.655 Q2826.58 391.002 2828.53 391.696 Z" fill="#000000" fill-rule="nonzero" fill-opacity="1" /><path clip-path="url(#clip530)" d="M2848.83 394.011 Q2845.22 394.011 2843.39 397.576 Q2841.58 401.118 2841.58 408.247 Q2841.58 415.354 2843.39 418.918 Q2845.22 422.46 2848.83 422.46 Q2852.46 422.46 2854.27 418.918 Q2856.1 415.354 2856.1 408.247 Q2856.1 401.118 2854.27 397.576 Q2852.46 394.011 2848.83 394.011 M2848.83 390.307 Q2854.64 390.307 2857.69 394.914 Q2860.77 399.497 2860.77 408.247 Q2860.77 416.974 2857.69 421.58 Q2854.64 426.164 2848.83 426.164 Q2843.02 426.164 2839.94 421.58 Q2836.88 416.974 2836.88 408.247 Q2836.88 399.497 2839.94 394.914 Q2843.02 390.307 2848.83 390.307 Z" fill="#000000" fill-rule="nonzero" fill-opacity="1" /><polyline clip-path="url(#clip530)" style="stroke:#ff0000; stroke-linecap:round; stroke-linejoin:round; stroke-width:12; stroke-opacity:1; fill:none" points="2681.66,460.052 2716.14,460.052 "/>
<path clip-path="url(#clip530)" d="M2734.22 458.189 Q2731.08 458.189 2729.22 460.342 Q2727.39 462.495 2727.39 466.245 Q2727.39 469.971 2729.22 472.147 Q2731.08 474.3 2734.22 474.3 Q2737.37 474.3 2739.2 472.147 Q2741.05 469.971 2741.05 466.245 Q2741.05 462.495 2739.2 460.342 Q2737.37 458.189 2734.22 458.189 M2743.51 443.536 L2743.51 447.796 Q2741.75 446.962 2739.94 446.522 Q2738.16 446.083 2736.4 446.083 Q2731.77 446.083 2729.32 449.208 Q2726.89 452.333 2726.54 458.652 Q2727.9 456.638 2729.96 455.573 Q2732.02 454.485 2734.5 454.485 Q2739.71 454.485 2742.72 457.657 Q2745.75 460.805 2745.75 466.245 Q2745.75 471.569 2742.6 474.786 Q2739.45 478.004 2734.22 478.004 Q2728.23 478.004 2725.06 473.42 Q2721.89 468.814 2721.89 460.087 Q2721.89 451.893 2725.77 447.032 Q2729.66 442.147 2736.21 442.147 Q2737.97 442.147 2739.76 442.495 Q2741.56 442.842 2743.51 443.536 Z" fill="#000000" fill-rule="nonzero" fill-opacity="1" /><path clip-path="url(#clip530)" d="M2763.81 445.851 Q2760.2 445.851 2758.37 449.416 Q2756.56 452.958 2756.56 460.087 Q2756.56 467.194 2758.37 470.758 Q2760.2 474.3 2763.81 474.3 Q2767.44 474.3 2769.25 470.758 Q2771.07 467.194 2771.07 460.087 Q2771.07 452.958 2769.25 449.416 Q2767.44 445.851 2763.81 445.851 M2763.81 442.147 Q2769.62 442.147 2772.67 446.754 Q2775.75 451.337 2775.75 460.087 Q2775.75 468.814 2772.67 473.42 Q2769.62 478.004 2763.81 478.004 Q2758 478.004 2754.92 473.42 Q2751.86 468.814 2751.86 460.087 Q2751.86 451.337 2754.92 446.754 Q2758 442.147 2763.81 442.147 Z" fill="#000000" fill-rule="nonzero" fill-opacity="1" /><path clip-path="url(#clip530)" d="M2781.21 462.68 L2800.29 462.68 L2800.29 466.013 L2781.21 466.013 L2781.21 462.68 Z" fill="#000000" fill-rule="nonzero" fill-opacity="1" /><path clip-path="url(#clip530)" d="M2807.81 476.615 L2807.81 472.356 Q2809.57 473.189 2811.38 473.629 Q2813.18 474.069 2814.92 474.069 Q2819.55 474.069 2821.98 470.967 Q2824.43 467.842 2824.78 461.499 Q2823.44 463.49 2821.38 464.555 Q2819.32 465.62 2816.82 465.62 Q2811.63 465.62 2808.6 462.495 Q2805.59 459.346 2805.59 453.907 Q2805.59 448.583 2808.74 445.365 Q2811.88 442.147 2817.12 442.147 Q2823.11 442.147 2826.26 446.754 Q2829.43 451.337 2829.43 460.087 Q2829.43 468.258 2825.54 473.143 Q2821.68 478.004 2815.13 478.004 Q2813.37 478.004 2811.56 477.657 Q2809.76 477.309 2807.81 476.615 M2817.12 461.962 Q2820.26 461.962 2822.09 459.809 Q2823.95 457.657 2823.95 453.907 Q2823.95 450.18 2822.09 448.027 Q2820.26 445.851 2817.12 445.851 Q2813.97 445.851 2812.12 448.027 Q2810.29 450.18 2810.29 453.907 Q2810.29 457.657 2812.12 459.809 Q2813.97 461.962 2817.12 461.962 Z" fill="#000000" fill-rule="nonzero" fill-opacity="1" /><path clip-path="url(#clip530)" d="M2847.83 445.851 Q2844.22 445.851 2842.39 449.416 Q2840.59 452.958 2840.59 460.087 Q2840.59 467.194 2842.39 470.758 Q2844.22 474.3 2847.83 474.3 Q2851.47 474.3 2853.27 470.758 Q2855.1 467.194 2855.1 460.087 Q2855.1 452.958 2853.27 449.416 Q2851.47 445.851 2847.83 445.851 M2847.83 442.147 Q2853.64 442.147 2856.7 446.754 Q2859.78 451.337 2859.78 460.087 Q2859.78 468.814 2856.7 473.42 Q2853.64 478.004 2847.83 478.004 Q2842.02 478.004 2838.94 473.42 Q2835.89 468.814 2835.89 460.087 Q2835.89 451.337 2838.94 446.754 Q2842.02 442.147 2847.83 442.147 Z" fill="#000000" fill-rule="nonzero" fill-opacity="1" /></svg>
