<?xml version="1.0" encoding="utf-8"?>
<svg xmlns="http://www.w3.org/2000/svg" xmlns:xlink="http://www.w3.org/1999/xlink" width="450" height="330" viewBox="0 0 1800 1320">
<defs>
  <clipPath id="clip310">
    <rect x="0" y="0" width="1800" height="1320"/>
  </clipPath>
</defs>
<path clip-path="url(#clip310)" d="M0 1320 L1800 1320 L1800 0 L0 0  Z" fill="#ffffff" fill-rule="evenodd" fill-opacity="1"/>
<defs>
  <clipPath id="clip311">
    <rect x="1435" y="834" width="253" height="311"/>
  </clipPath>
</defs>
<path clip-path="url(#clip310)" d="M352.248 1037.04 L1642.52 1037.04 L1642.52 220.748 L352.248 220.748  Z" fill="#ffffff" fill-rule="evenodd" fill-opacity="1"/>
<defs>
  <clipPath id="clip312">
    <rect x="352" y="220" width="1291" height="817"/>
  </clipPath>
</defs>
<polyline clip-path="url(#clip312)" style="stroke:#000000; stroke-linecap:round; stroke-linejoin:round; stroke-width:2; stroke-opacity:0.1; fill:none" points="388.765,1037.04 388.765,220.748 "/>
<polyline clip-path="url(#clip312)" style="stroke:#000000; stroke-linecap:round; stroke-linejoin:round; stroke-width:2; stroke-opacity:0.1; fill:none" points="693.075,1037.04 693.075,220.748 "/>
<polyline clip-path="url(#clip312)" style="stroke:#000000; stroke-linecap:round; stroke-linejoin:round; stroke-width:2; stroke-opacity:0.1; fill:none" points="997.384,1037.04 997.384,220.748 "/>
<polyline clip-path="url(#clip312)" style="stroke:#000000; stroke-linecap:round; stroke-linejoin:round; stroke-width:2; stroke-opacity:0.1; fill:none" points="1301.69,1037.04 1301.69,220.748 "/>
<polyline clip-path="url(#clip312)" style="stroke:#000000; stroke-linecap:round; stroke-linejoin:round; stroke-width:2; stroke-opacity:0.1; fill:none" points="1606,1037.04 1606,220.748 "/>
<polyline clip-path="url(#clip312)" style="stroke:#000000; stroke-linecap:round; stroke-linejoin:round; stroke-width:2; stroke-opacity:0.1; fill:none" points="352.248,935.217 1642.52,935.217 "/>
<polyline clip-path="url(#clip312)" style="stroke:#000000; stroke-linecap:round; stroke-linejoin:round; stroke-width:2; stroke-opacity:0.1; fill:none" points="352.248,762.376 1642.52,762.376 "/>
<polyline clip-path="url(#clip312)" style="stroke:#000000; stroke-linecap:round; stroke-linejoin:round; stroke-width:2; stroke-opacity:0.1; fill:none" points="352.248,589.534 1642.52,589.534 "/>
<polyline clip-path="url(#clip312)" style="stroke:#000000; stroke-linecap:round; stroke-linejoin:round; stroke-width:2; stroke-opacity:0.1; fill:none" points="352.248,416.693 1642.52,416.693 "/>
<polyline clip-path="url(#clip312)" style="stroke:#000000; stroke-linecap:round; stroke-linejoin:round; stroke-width:2; stroke-opacity:0.1; fill:none" points="352.248,243.851 1642.52,243.851 "/>
<polyline clip-path="url(#clip310)" style="stroke:#000000; stroke-linecap:round; stroke-linejoin:round; stroke-width:4; stroke-opacity:1; fill:none" points="352.248,1037.04 1642.52,1037.04 "/>
<polyline clip-path="url(#clip310)" style="stroke:#000000; stroke-linecap:round; stroke-linejoin:round; stroke-width:4; stroke-opacity:1; fill:none" points="388.765,1037.04 388.765,1018.14 "/>
<polyline clip-path="url(#clip310)" style="stroke:#000000; stroke-linecap:round; stroke-linejoin:round; stroke-width:4; stroke-opacity:1; fill:none" points="693.075,1037.04 693.075,1018.14 "/>
<polyline clip-path="url(#clip310)" style="stroke:#000000; stroke-linecap:round; stroke-linejoin:round; stroke-width:4; stroke-opacity:1; fill:none" points="997.384,1037.04 997.384,1018.14 "/>
<polyline clip-path="url(#clip310)" style="stroke:#000000; stroke-linecap:round; stroke-linejoin:round; stroke-width:4; stroke-opacity:1; fill:none" points="1301.69,1037.04 1301.69,1018.14 "/>
<polyline clip-path="url(#clip310)" style="stroke:#000000; stroke-linecap:round; stroke-linejoin:round; stroke-width:4; stroke-opacity:1; fill:none" points="1606,1037.04 1606,1018.14 "/>
<path clip-path="url(#clip310)" d="M379.147 1090.7 L386.786 1090.7 L386.786 1064.34 L378.476 1066.01 L378.476 1061.75 L386.74 1060.08 L391.416 1060.08 L391.416 1090.7 L399.055 1090.7 L399.055 1094.64 L379.147 1094.64 L379.147 1090.7 Z" fill="#000000" fill-rule="nonzero" fill-opacity="1" /><path clip-path="url(#clip310)" d="M687.727 1090.7 L704.047 1090.7 L704.047 1094.64 L682.102 1094.64 L682.102 1090.7 Q684.764 1087.95 689.348 1083.32 Q693.954 1078.67 695.135 1077.32 Q697.38 1074.8 698.26 1073.07 Q699.163 1071.31 699.163 1069.62 Q699.163 1066.86 697.218 1065.13 Q695.297 1063.39 692.195 1063.39 Q689.996 1063.39 687.542 1064.15 Q685.112 1064.92 682.334 1066.47 L682.334 1061.75 Q685.158 1060.61 687.612 1060.03 Q690.065 1059.45 692.102 1059.45 Q697.473 1059.45 700.667 1062.14 Q703.862 1064.82 703.862 1069.32 Q703.862 1071.45 703.051 1073.37 Q702.264 1075.26 700.158 1077.86 Q699.579 1078.53 696.477 1081.75 Q693.376 1084.94 687.727 1090.7 Z" fill="#000000" fill-rule="nonzero" fill-opacity="1" /><path clip-path="url(#clip310)" d="M1001.63 1076.01 Q1004.99 1076.72 1006.86 1078.99 Q1008.76 1081.26 1008.76 1084.59 Q1008.76 1089.71 1005.24 1092.51 Q1001.72 1095.31 995.243 1095.31 Q993.067 1095.31 990.752 1094.87 Q988.46 1094.45 986.007 1093.6 L986.007 1089.08 Q987.951 1090.22 990.266 1090.8 Q992.581 1091.38 995.104 1091.38 Q999.502 1091.38 1001.79 1089.64 Q1004.11 1087.9 1004.11 1084.59 Q1004.11 1081.54 1001.96 1079.82 Q999.826 1078.09 996.007 1078.09 L991.979 1078.09 L991.979 1074.25 L996.192 1074.25 Q999.641 1074.25 1001.47 1072.88 Q1003.3 1071.49 1003.3 1068.9 Q1003.3 1066.24 1001.4 1064.82 Q999.525 1063.39 996.007 1063.39 Q994.085 1063.39 991.886 1063.81 Q989.687 1064.22 987.048 1065.1 L987.048 1060.94 Q989.71 1060.2 992.025 1059.82 Q994.363 1059.45 996.423 1059.45 Q1001.75 1059.45 1004.85 1061.89 Q1007.95 1064.29 1007.95 1068.41 Q1007.95 1071.28 1006.31 1073.27 Q1004.66 1075.24 1001.63 1076.01 Z" fill="#000000" fill-rule="nonzero" fill-opacity="1" /><path clip-path="url(#clip310)" d="M1304.7 1064.15 L1292.9 1082.6 L1304.7 1082.6 L1304.7 1064.15 M1303.48 1060.08 L1309.36 1060.08 L1309.36 1082.6 L1314.29 1082.6 L1314.29 1086.49 L1309.36 1086.49 L1309.36 1094.64 L1304.7 1094.64 L1304.7 1086.49 L1289.1 1086.49 L1289.1 1081.98 L1303.48 1060.08 Z" fill="#000000" fill-rule="nonzero" fill-opacity="1" /><path clip-path="url(#clip310)" d="M1596.28 1060.08 L1614.64 1060.08 L1614.64 1064.01 L1600.56 1064.01 L1600.56 1072.49 Q1601.58 1072.14 1602.6 1071.98 Q1603.62 1071.79 1604.64 1071.79 Q1610.42 1071.79 1613.8 1074.96 Q1617.18 1078.14 1617.18 1083.55 Q1617.18 1089.13 1613.71 1092.23 Q1610.24 1095.31 1603.92 1095.31 Q1601.74 1095.31 1599.47 1094.94 Q1597.23 1094.57 1594.82 1093.83 L1594.82 1089.13 Q1596.91 1090.26 1599.13 1090.82 Q1601.35 1091.38 1603.83 1091.38 Q1607.83 1091.38 1610.17 1089.27 Q1612.51 1087.16 1612.51 1083.55 Q1612.51 1079.94 1610.17 1077.83 Q1607.83 1075.73 1603.83 1075.73 Q1601.95 1075.73 1600.08 1076.14 Q1598.22 1076.56 1596.28 1077.44 L1596.28 1060.08 Z" fill="#000000" fill-rule="nonzero" fill-opacity="1" /><path clip-path="url(#clip310)" d="M706.787 1123.66 L712.047 1123.66 L712.047 1139.59 L731.161 1139.59 L731.161 1123.66 L736.422 1123.66 L736.422 1162.54 L731.161 1162.54 L731.161 1144.02 L712.047 1144.02 L712.047 1162.54 L706.787 1162.54 L706.787 1123.66 Z" fill="#000000" fill-rule="nonzero" fill-opacity="1" /><path clip-path="url(#clip310)" d="M759.937 1147.87 Q754.13 1147.87 751.89 1149.2 Q749.651 1150.53 749.651 1153.73 Q749.651 1156.29 751.318 1157.8 Q753.01 1159.28 755.901 1159.28 Q759.885 1159.28 762.281 1156.47 Q764.703 1153.63 764.703 1148.94 L764.703 1147.87 L759.937 1147.87 M769.495 1145.9 L769.495 1162.54 L764.703 1162.54 L764.703 1158.11 Q763.062 1160.76 760.614 1162.04 Q758.166 1163.29 754.625 1163.29 Q750.146 1163.29 747.489 1160.79 Q744.859 1158.26 744.859 1154.05 Q744.859 1149.12 748.14 1146.62 Q751.448 1144.12 757.984 1144.12 L764.703 1144.12 L764.703 1143.66 Q764.703 1140.35 762.515 1138.55 Q760.354 1136.73 756.422 1136.73 Q753.922 1136.73 751.552 1137.33 Q749.182 1137.93 746.995 1139.12 L746.995 1134.7 Q749.625 1133.68 752.099 1133.19 Q754.573 1132.67 756.916 1132.67 Q763.245 1132.67 766.37 1135.95 Q769.495 1139.23 769.495 1145.9 Z" fill="#000000" fill-rule="nonzero" fill-opacity="1" /><path clip-path="url(#clip310)" d="M796.265 1137.85 Q795.458 1137.38 794.494 1137.17 Q793.557 1136.94 792.411 1136.94 Q788.349 1136.94 786.161 1139.59 Q784 1142.22 784 1147.17 L784 1162.54 L779.182 1162.54 L779.182 1133.37 L784 1133.37 L784 1137.9 Q785.51 1135.24 787.932 1133.97 Q790.354 1132.67 793.817 1132.67 Q794.312 1132.67 794.911 1132.74 Q795.51 1132.8 796.239 1132.93 L796.265 1137.85 Z" fill="#000000" fill-rule="nonzero" fill-opacity="1" /><path clip-path="url(#clip310)" d="M823.062 1138.97 Q824.859 1135.74 827.359 1134.2 Q829.859 1132.67 833.244 1132.67 Q837.801 1132.67 840.275 1135.87 Q842.749 1139.05 842.749 1144.93 L842.749 1162.54 L837.932 1162.54 L837.932 1145.09 Q837.932 1140.9 836.447 1138.86 Q834.963 1136.83 831.916 1136.83 Q828.192 1136.83 826.031 1139.31 Q823.869 1141.78 823.869 1146.05 L823.869 1162.54 L819.052 1162.54 L819.052 1145.09 Q819.052 1140.87 817.567 1138.86 Q816.083 1136.83 812.984 1136.83 Q809.312 1136.83 807.151 1139.33 Q804.989 1141.81 804.989 1146.05 L804.989 1162.54 L800.171 1162.54 L800.171 1133.37 L804.989 1133.37 L804.989 1137.9 Q806.63 1135.22 808.921 1133.94 Q811.213 1132.67 814.364 1132.67 Q817.541 1132.67 819.755 1134.28 Q821.994 1135.9 823.062 1138.97 Z" fill="#000000" fill-rule="nonzero" fill-opacity="1" /><path clip-path="url(#clip310)" d="M863.609 1136.73 Q859.754 1136.73 857.515 1139.75 Q855.275 1142.74 855.275 1147.98 Q855.275 1153.21 857.489 1156.23 Q859.728 1159.23 863.609 1159.23 Q867.437 1159.23 869.676 1156.21 Q871.916 1153.19 871.916 1147.98 Q871.916 1142.8 869.676 1139.78 Q867.437 1136.73 863.609 1136.73 M863.609 1132.67 Q869.859 1132.67 873.426 1136.73 Q876.994 1140.79 876.994 1147.98 Q876.994 1155.14 873.426 1159.23 Q869.859 1163.29 863.609 1163.29 Q857.333 1163.29 853.765 1159.23 Q850.223 1155.14 850.223 1147.98 Q850.223 1140.79 853.765 1136.73 Q857.333 1132.67 863.609 1132.67 Z" fill="#000000" fill-rule="nonzero" fill-opacity="1" /><path clip-path="url(#clip310)" d="M909.181 1144.93 L909.181 1162.54 L904.39 1162.54 L904.39 1145.09 Q904.39 1140.95 902.775 1138.89 Q901.16 1136.83 897.931 1136.83 Q894.051 1136.83 891.812 1139.31 Q889.572 1141.78 889.572 1146.05 L889.572 1162.54 L884.754 1162.54 L884.754 1133.37 L889.572 1133.37 L889.572 1137.9 Q891.291 1135.27 893.608 1133.97 Q895.952 1132.67 898.999 1132.67 Q904.025 1132.67 906.603 1135.79 Q909.181 1138.89 909.181 1144.93 Z" fill="#000000" fill-rule="nonzero" fill-opacity="1" /><path clip-path="url(#clip310)" d="M918.739 1133.37 L923.53 1133.37 L923.53 1162.54 L918.739 1162.54 L918.739 1133.37 M918.739 1122.02 L923.53 1122.02 L923.53 1128.08 L918.739 1128.08 L918.739 1122.02 Z" fill="#000000" fill-rule="nonzero" fill-opacity="1" /><path clip-path="url(#clip310)" d="M954.546 1134.49 L954.546 1138.97 Q952.514 1137.85 950.457 1137.3 Q948.426 1136.73 946.343 1136.73 Q941.681 1136.73 939.103 1139.7 Q936.525 1142.64 936.525 1147.98 Q936.525 1153.32 939.103 1156.29 Q941.681 1159.23 946.343 1159.23 Q948.426 1159.23 950.457 1158.68 Q952.514 1158.11 954.546 1156.99 L954.546 1161.42 Q952.54 1162.35 950.379 1162.82 Q948.244 1163.29 945.822 1163.29 Q939.233 1163.29 935.353 1159.15 Q931.473 1155.01 931.473 1147.98 Q931.473 1140.84 935.379 1136.75 Q939.311 1132.67 946.134 1132.67 Q948.348 1132.67 950.457 1133.13 Q952.566 1133.58 954.546 1134.49 Z" fill="#000000" fill-rule="nonzero" fill-opacity="1" /><path clip-path="url(#clip310)" d="M1008.3 1122.07 Q1004.81 1128.06 1003.11 1133.92 Q1001.42 1139.78 1001.42 1145.79 Q1001.42 1151.81 1003.11 1157.72 Q1004.83 1163.6 1008.3 1169.57 L1004.13 1169.57 Q1000.22 1163.45 998.269 1157.54 Q996.342 1151.62 996.342 1145.79 Q996.342 1139.98 998.269 1134.1 Q1000.2 1128.21 1004.13 1122.07 L1008.3 1122.07 Z" fill="#000000" fill-rule="nonzero" fill-opacity="1" /><path clip-path="url(#clip310)" d="M1049.96 1133.89 L1038.06 1145.84 L1049.96 1157.74 L1046.86 1160.9 L1034.91 1148.94 L1022.96 1160.9 L1019.88 1157.74 L1031.76 1145.84 L1019.88 1133.89 L1022.96 1130.74 L1034.91 1142.69 L1046.86 1130.74 L1049.96 1133.89 Z" fill="#000000" fill-rule="nonzero" fill-opacity="1" /><path clip-path="url(#clip310)" d="M1094 1122.02 L1094 1126 L1089.41 1126 Q1086.84 1126 1085.82 1127.04 Q1084.83 1128.08 1084.83 1130.79 L1084.83 1133.37 L1092.72 1133.37 L1092.72 1137.09 L1084.83 1137.09 L1084.83 1162.54 L1080.01 1162.54 L1080.01 1137.09 L1075.43 1137.09 L1075.43 1133.37 L1080.01 1133.37 L1080.01 1131.34 Q1080.01 1126.47 1082.28 1124.25 Q1084.54 1122.02 1089.47 1122.02 L1094 1122.02 Z" fill="#000000" fill-rule="nonzero" fill-opacity="1" /><path clip-path="url(#clip310)" d="M1120.17 1171.39 L1120.17 1175.11 L1092.46 1175.11 L1092.46 1171.39 L1120.17 1171.39 Z" fill="#000000" fill-rule="nonzero" fill-opacity="1" /><path clip-path="url(#clip310)" d="M1143.27 1134.23 L1143.27 1138.76 Q1141.24 1137.72 1139.05 1137.2 Q1136.86 1136.68 1134.52 1136.68 Q1130.95 1136.68 1129.15 1137.77 Q1127.38 1138.86 1127.38 1141.05 Q1127.38 1142.72 1128.66 1143.68 Q1129.94 1144.62 1133.79 1145.48 L1135.43 1145.84 Q1140.53 1146.94 1142.67 1148.94 Q1144.83 1150.92 1144.83 1154.49 Q1144.83 1158.55 1141.6 1160.92 Q1138.4 1163.29 1132.77 1163.29 Q1130.43 1163.29 1127.88 1162.82 Q1125.35 1162.38 1122.54 1161.47 L1122.54 1156.52 Q1125.2 1157.9 1127.77 1158.6 Q1130.35 1159.28 1132.88 1159.28 Q1136.26 1159.28 1138.09 1158.13 Q1139.91 1156.96 1139.91 1154.85 Q1139.91 1152.9 1138.58 1151.86 Q1137.28 1150.82 1132.83 1149.85 L1131.16 1149.46 Q1126.71 1148.53 1124.73 1146.6 Q1122.75 1144.65 1122.75 1141.26 Q1122.75 1137.15 1125.66 1134.91 Q1128.58 1132.67 1133.95 1132.67 Q1136.6 1132.67 1138.95 1133.06 Q1141.29 1133.45 1143.27 1134.23 Z" fill="#000000" fill-rule="nonzero" fill-opacity="1" /><path clip-path="url(#clip310)" d="M1157.2 1125.09 L1157.2 1133.37 L1167.07 1133.37 L1167.07 1137.09 L1157.2 1137.09 L1157.2 1152.93 Q1157.2 1156.49 1158.16 1157.51 Q1159.15 1158.53 1162.15 1158.53 L1167.07 1158.53 L1167.07 1162.54 L1162.15 1162.54 Q1156.6 1162.54 1154.49 1160.48 Q1152.38 1158.4 1152.38 1152.93 L1152.38 1137.09 L1148.87 1137.09 L1148.87 1133.37 L1152.38 1133.37 L1152.38 1125.09 L1157.2 1125.09 Z" fill="#000000" fill-rule="nonzero" fill-opacity="1" /><path clip-path="url(#clip310)" d="M1190.27 1137.85 Q1189.47 1137.38 1188.5 1137.17 Q1187.57 1136.94 1186.42 1136.94 Q1182.36 1136.94 1180.17 1139.59 Q1178.01 1142.22 1178.01 1147.17 L1178.01 1162.54 L1173.19 1162.54 L1173.19 1133.37 L1178.01 1133.37 L1178.01 1137.9 Q1179.52 1135.24 1181.94 1133.97 Q1184.36 1132.67 1187.83 1132.67 Q1188.32 1132.67 1188.92 1132.74 Q1189.52 1132.8 1190.25 1132.93 L1190.27 1137.85 Z" fill="#000000" fill-rule="nonzero" fill-opacity="1" /><path clip-path="url(#clip310)" d="M1195.3 1133.37 L1200.09 1133.37 L1200.09 1162.54 L1195.3 1162.54 L1195.3 1133.37 M1195.3 1122.02 L1200.09 1122.02 L1200.09 1128.08 L1195.3 1128.08 L1195.3 1122.02 Z" fill="#000000" fill-rule="nonzero" fill-opacity="1" /><path clip-path="url(#clip310)" d="M1229.31 1137.8 L1229.31 1122.02 L1234.1 1122.02 L1234.1 1162.54 L1229.31 1162.54 L1229.31 1158.16 Q1227.8 1160.76 1225.48 1162.04 Q1223.19 1163.29 1219.96 1163.29 Q1214.67 1163.29 1211.34 1159.07 Q1208.03 1154.85 1208.03 1147.98 Q1208.03 1141.1 1211.34 1136.88 Q1214.67 1132.67 1219.96 1132.67 Q1223.19 1132.67 1225.48 1133.94 Q1227.8 1135.19 1229.31 1137.8 M1212.98 1147.98 Q1212.98 1153.26 1215.14 1156.29 Q1217.33 1159.28 1221.13 1159.28 Q1224.93 1159.28 1227.12 1156.29 Q1229.31 1153.26 1229.31 1147.98 Q1229.31 1142.69 1227.12 1139.7 Q1224.93 1136.68 1221.13 1136.68 Q1217.33 1136.68 1215.14 1139.7 Q1212.98 1142.69 1212.98 1147.98 Z" fill="#000000" fill-rule="nonzero" fill-opacity="1" /><path clip-path="url(#clip310)" d="M1268.92 1146.75 L1268.92 1149.1 L1246.89 1149.1 Q1247.2 1154.05 1249.86 1156.65 Q1252.54 1159.23 1257.3 1159.23 Q1260.06 1159.23 1262.64 1158.55 Q1265.25 1157.87 1267.8 1156.52 L1267.8 1161.05 Q1265.22 1162.14 1262.51 1162.72 Q1259.8 1163.29 1257.02 1163.29 Q1250.04 1163.29 1245.95 1159.23 Q1241.89 1155.17 1241.89 1148.24 Q1241.89 1141.08 1245.74 1136.88 Q1249.62 1132.67 1256.18 1132.67 Q1262.07 1132.67 1265.48 1136.47 Q1268.92 1140.24 1268.92 1146.75 M1264.13 1145.35 Q1264.08 1141.42 1261.91 1139.07 Q1259.78 1136.73 1256.24 1136.73 Q1252.23 1136.73 1249.8 1138.99 Q1247.41 1141.26 1247.04 1145.37 L1264.13 1145.35 Z" fill="#000000" fill-rule="nonzero" fill-opacity="1" /><path clip-path="url(#clip310)" d="M1276.03 1122.07 L1280.19 1122.07 Q1284.1 1128.21 1286.03 1134.1 Q1287.98 1139.98 1287.98 1145.79 Q1287.98 1151.62 1286.03 1157.54 Q1284.1 1163.45 1280.19 1169.57 L1276.03 1169.57 Q1279.49 1163.6 1281.18 1157.72 Q1282.9 1151.81 1282.9 1145.79 Q1282.9 1139.78 1281.18 1133.92 Q1279.49 1128.06 1276.03 1122.07 Z" fill="#000000" fill-rule="nonzero" fill-opacity="1" /><polyline clip-path="url(#clip310)" style="stroke:#000000; stroke-linecap:round; stroke-linejoin:round; stroke-width:4; stroke-opacity:1; fill:none" points="352.248,1037.04 352.248,220.748 "/>
<polyline clip-path="url(#clip310)" style="stroke:#000000; stroke-linecap:round; stroke-linejoin:round; stroke-width:4; stroke-opacity:1; fill:none" points="352.248,935.217 371.146,935.217 "/>
<polyline clip-path="url(#clip310)" style="stroke:#000000; stroke-linecap:round; stroke-linejoin:round; stroke-width:4; stroke-opacity:1; fill:none" points="352.248,762.376 371.146,762.376 "/>
<polyline clip-path="url(#clip310)" style="stroke:#000000; stroke-linecap:round; stroke-linejoin:round; stroke-width:4; stroke-opacity:1; fill:none" points="352.248,589.534 371.146,589.534 "/>
<polyline clip-path="url(#clip310)" style="stroke:#000000; stroke-linecap:round; stroke-linejoin:round; stroke-width:4; stroke-opacity:1; fill:none" points="352.248,416.693 371.146,416.693 "/>
<polyline clip-path="url(#clip310)" style="stroke:#000000; stroke-linecap:round; stroke-linejoin:round; stroke-width:4; stroke-opacity:1; fill:none" points="352.248,243.851 371.146,243.851 "/>
<path clip-path="url(#clip310)" d="M223.416 955.01 L231.055 955.01 L231.055 928.644 L222.744 930.311 L222.744 926.052 L231.008 924.385 L235.684 924.385 L235.684 955.01 L243.323 955.01 L243.323 958.945 L223.416 958.945 L223.416 955.01 Z" fill="#000000" fill-rule="nonzero" fill-opacity="1" /><path clip-path="url(#clip310)" d="M262.767 927.464 Q259.156 927.464 257.328 931.028 Q255.522 934.57 255.522 941.7 Q255.522 948.806 257.328 952.371 Q259.156 955.912 262.767 955.912 Q266.402 955.912 268.207 952.371 Q270.036 948.806 270.036 941.7 Q270.036 934.57 268.207 931.028 Q266.402 927.464 262.767 927.464 M262.767 923.76 Q268.577 923.76 271.633 928.366 Q274.712 932.95 274.712 941.7 Q274.712 950.426 271.633 955.033 Q268.577 959.616 262.767 959.616 Q256.957 959.616 253.878 955.033 Q250.823 950.426 250.823 941.7 Q250.823 932.95 253.878 928.366 Q256.957 923.76 262.767 923.76 Z" fill="#000000" fill-rule="nonzero" fill-opacity="1" /><path clip-path="url(#clip310)" d="M274.712 917.861 L298.823 917.861 L298.823 921.059 L274.712 921.059 L274.712 917.861 Z" fill="#000000" fill-rule="nonzero" fill-opacity="1" /><path clip-path="url(#clip310)" d="M317.462 906.765 L307.87 921.754 L317.462 921.754 L317.462 906.765 M316.465 903.454 L321.242 903.454 L321.242 921.754 L325.248 921.754 L325.248 924.914 L321.242 924.914 L321.242 931.534 L317.462 931.534 L317.462 924.914 L304.785 924.914 L304.785 921.247 L316.465 903.454 Z" fill="#000000" fill-rule="nonzero" fill-opacity="1" /><path clip-path="url(#clip310)" d="M224.337 782.168 L231.976 782.168 L231.976 755.803 L223.666 757.469 L223.666 753.21 L231.93 751.543 L236.606 751.543 L236.606 782.168 L244.245 782.168 L244.245 786.103 L224.337 786.103 L224.337 782.168 Z" fill="#000000" fill-rule="nonzero" fill-opacity="1" /><path clip-path="url(#clip310)" d="M263.689 754.622 Q260.078 754.622 258.249 758.187 Q256.444 761.728 256.444 768.858 Q256.444 775.964 258.249 779.529 Q260.078 783.071 263.689 783.071 Q267.323 783.071 269.129 779.529 Q270.957 775.964 270.957 768.858 Q270.957 761.728 269.129 758.187 Q267.323 754.622 263.689 754.622 M263.689 750.918 Q269.499 750.918 272.555 755.525 Q275.633 760.108 275.633 768.858 Q275.633 777.585 272.555 782.191 Q269.499 786.775 263.689 786.775 Q257.879 786.775 254.8 782.191 Q251.745 777.585 251.745 768.858 Q251.745 760.108 254.8 755.525 Q257.879 750.918 263.689 750.918 Z" fill="#000000" fill-rule="nonzero" fill-opacity="1" /><path clip-path="url(#clip310)" d="M275.633 745.02 L299.745 745.02 L299.745 748.217 L275.633 748.217 L275.633 745.02 Z" fill="#000000" fill-rule="nonzero" fill-opacity="1" /><path clip-path="url(#clip310)" d="M319.455 743.553 Q322.183 744.136 323.706 745.979 Q325.248 747.822 325.248 750.53 Q325.248 754.687 322.389 756.963 Q319.531 759.238 314.264 759.238 Q312.497 759.238 310.616 758.881 Q308.754 758.542 306.76 757.847 L306.76 754.179 Q308.34 755.101 310.221 755.571 Q312.102 756.041 314.152 756.041 Q317.725 756.041 319.587 754.63 Q321.468 753.22 321.468 750.53 Q321.468 748.048 319.719 746.656 Q317.988 745.245 314.885 745.245 L311.613 745.245 L311.613 742.123 L315.036 742.123 Q317.838 742.123 319.324 741.014 Q320.81 739.885 320.81 737.779 Q320.81 735.616 319.267 734.468 Q317.744 733.302 314.885 733.302 Q313.324 733.302 311.537 733.641 Q309.751 733.979 307.606 734.694 L307.606 731.309 Q309.769 730.707 311.65 730.406 Q313.55 730.105 315.224 730.105 Q319.549 730.105 322.07 732.08 Q324.59 734.036 324.59 737.384 Q324.59 739.716 323.255 741.333 Q321.919 742.932 319.455 743.553 Z" fill="#000000" fill-rule="nonzero" fill-opacity="1" /><path clip-path="url(#clip310)" d="M225.108 609.327 L232.747 609.327 L232.747 582.961 L224.437 584.628 L224.437 580.368 L232.701 578.702 L237.377 578.702 L237.377 609.327 L245.016 609.327 L245.016 613.262 L225.108 613.262 L225.108 609.327 Z" fill="#000000" fill-rule="nonzero" fill-opacity="1" /><path clip-path="url(#clip310)" d="M264.46 581.78 Q260.849 581.78 259.02 585.345 Q257.215 588.887 257.215 596.016 Q257.215 603.123 259.02 606.688 Q260.849 610.229 264.46 610.229 Q268.094 610.229 269.9 606.688 Q271.728 603.123 271.728 596.016 Q271.728 588.887 269.9 585.345 Q268.094 581.78 264.46 581.78 M264.46 578.077 Q270.27 578.077 273.326 582.683 Q276.404 587.266 276.404 596.016 Q276.404 604.743 273.326 609.35 Q270.27 613.933 264.46 613.933 Q258.65 613.933 255.571 609.35 Q252.516 604.743 252.516 596.016 Q252.516 587.266 255.571 582.683 Q258.65 578.077 264.46 578.077 Z" fill="#000000" fill-rule="nonzero" fill-opacity="1" /><path clip-path="url(#clip310)" d="M276.404 572.178 L300.516 572.178 L300.516 575.375 L276.404 575.375 L276.404 572.178 Z" fill="#000000" fill-rule="nonzero" fill-opacity="1" /><path clip-path="url(#clip310)" d="M311.989 582.654 L325.248 582.654 L325.248 585.851 L307.418 585.851 L307.418 582.654 Q309.581 580.416 313.305 576.654 Q317.048 572.874 318.007 571.783 Q319.832 569.733 320.546 568.322 Q321.28 566.893 321.28 565.52 Q321.28 563.282 319.7 561.871 Q318.139 560.461 315.619 560.461 Q313.832 560.461 311.838 561.081 Q309.863 561.702 307.606 562.962 L307.606 559.125 Q309.901 558.204 311.895 557.734 Q313.888 557.263 315.543 557.263 Q319.907 557.263 322.502 559.445 Q325.098 561.627 325.098 565.276 Q325.098 567.006 324.439 568.567 Q323.8 570.109 322.088 572.216 Q321.618 572.761 319.098 575.375 Q316.578 577.971 311.989 582.654 Z" fill="#000000" fill-rule="nonzero" fill-opacity="1" /><path clip-path="url(#clip310)" d="M224.807 436.485 L232.446 436.485 L232.446 410.119 L224.136 411.786 L224.136 407.527 L232.4 405.86 L237.076 405.86 L237.076 436.485 L244.715 436.485 L244.715 440.42 L224.807 440.42 L224.807 436.485 Z" fill="#000000" fill-rule="nonzero" fill-opacity="1" /><path clip-path="url(#clip310)" d="M264.159 408.939 Q260.548 408.939 258.719 412.504 Q256.914 416.045 256.914 423.175 Q256.914 430.281 258.719 433.846 Q260.548 437.388 264.159 437.388 Q267.793 437.388 269.599 433.846 Q271.428 430.281 271.428 423.175 Q271.428 416.045 269.599 412.504 Q267.793 408.939 264.159 408.939 M264.159 405.235 Q269.969 405.235 273.025 409.842 Q276.103 414.425 276.103 423.175 Q276.103 431.902 273.025 436.508 Q269.969 441.091 264.159 441.091 Q258.349 441.091 255.27 436.508 Q252.215 431.902 252.215 423.175 Q252.215 414.425 255.27 409.842 Q258.349 405.235 264.159 405.235 Z" fill="#000000" fill-rule="nonzero" fill-opacity="1" /><path clip-path="url(#clip310)" d="M276.103 399.336 L300.215 399.336 L300.215 402.534 L276.103 402.534 L276.103 399.336 Z" fill="#000000" fill-rule="nonzero" fill-opacity="1" /><path clip-path="url(#clip310)" d="M309.073 409.812 L315.28 409.812 L315.28 388.39 L308.528 389.745 L308.528 386.284 L315.242 384.93 L319.042 384.93 L319.042 409.812 L325.248 409.812 L325.248 413.01 L309.073 413.01 L309.073 409.812 Z" fill="#000000" fill-rule="nonzero" fill-opacity="1" /><path clip-path="url(#clip310)" d="M254.543 263.643 L262.181 263.643 L262.181 237.278 L253.871 238.944 L253.871 234.685 L262.135 233.019 L266.811 233.019 L266.811 263.643 L274.45 263.643 L274.45 267.579 L254.543 267.579 L254.543 263.643 Z" fill="#000000" fill-rule="nonzero" fill-opacity="1" /><path clip-path="url(#clip310)" d="M293.894 236.097 Q290.283 236.097 288.454 239.662 Q286.649 243.204 286.649 250.333 Q286.649 257.44 288.454 261.004 Q290.283 264.546 293.894 264.546 Q297.528 264.546 299.334 261.004 Q301.163 257.44 301.163 250.333 Q301.163 243.204 299.334 239.662 Q297.528 236.097 293.894 236.097 M293.894 232.394 Q299.704 232.394 302.76 237 Q305.839 241.583 305.839 250.333 Q305.839 259.06 302.76 263.667 Q299.704 268.25 293.894 268.25 Q288.084 268.25 285.005 263.667 Q281.95 259.06 281.95 250.333 Q281.95 241.583 285.005 237 Q288.084 232.394 293.894 232.394 Z" fill="#000000" fill-rule="nonzero" fill-opacity="1" /><path clip-path="url(#clip310)" d="M315.543 214.59 Q312.609 214.59 311.124 217.486 Q309.657 220.364 309.657 226.156 Q309.657 231.93 311.124 234.827 Q312.609 237.704 315.543 237.704 Q318.496 237.704 319.963 234.827 Q321.449 231.93 321.449 226.156 Q321.449 220.364 319.963 217.486 Q318.496 214.59 315.543 214.59 M315.543 211.58 Q320.264 211.58 322.747 215.323 Q325.248 219.047 325.248 226.156 Q325.248 233.247 322.747 236.99 Q320.264 240.714 315.543 240.714 Q310.823 240.714 308.321 236.99 Q305.839 233.247 305.839 226.156 Q305.839 219.047 308.321 215.323 Q310.823 211.58 315.543 211.58 Z" fill="#000000" fill-rule="nonzero" fill-opacity="1" /><path clip-path="url(#clip310)" d="M178.534 840.976 L168.091 840.976 L168.091 849.57 L163.768 849.57 L163.768 835.768 L180.461 835.768 Q182.622 838.815 183.742 842.487 Q184.836 846.158 184.836 850.325 Q184.836 859.44 179.523 864.596 Q174.185 869.726 164.679 869.726 Q155.148 869.726 149.836 864.596 Q144.497 859.44 144.497 850.325 Q144.497 846.523 145.435 843.112 Q146.372 839.674 148.195 836.783 L153.794 836.783 Q151.32 839.7 150.07 842.981 Q148.82 846.263 148.82 849.882 Q148.82 857.018 152.805 860.611 Q156.789 864.179 164.679 864.179 Q172.544 864.179 176.528 860.611 Q180.513 857.018 180.513 849.882 Q180.513 847.096 180.044 844.908 Q179.549 842.721 178.534 840.976 Z" fill="#000000" fill-rule="nonzero" fill-opacity="1" /><path clip-path="url(#clip310)" d="M169.419 813.112 Q169.419 818.919 170.747 821.159 Q172.075 823.398 175.278 823.398 Q177.83 823.398 179.341 821.731 Q180.825 820.039 180.825 817.148 Q180.825 813.164 178.013 810.768 Q175.174 808.346 170.487 808.346 L169.419 808.346 L169.419 813.112 M167.44 803.555 L184.08 803.555 L184.08 808.346 L179.653 808.346 Q182.31 809.987 183.586 812.435 Q184.836 814.883 184.836 818.424 Q184.836 822.903 182.336 825.56 Q179.81 828.19 175.591 828.19 Q170.669 828.19 168.169 824.909 Q165.669 821.601 165.669 815.065 L165.669 808.346 L165.2 808.346 Q161.893 808.346 160.096 810.534 Q158.273 812.695 158.273 816.627 Q158.273 819.127 158.872 821.497 Q159.471 823.867 160.669 826.054 L156.242 826.054 Q155.226 823.424 154.732 820.95 Q154.211 818.476 154.211 816.133 Q154.211 809.804 157.492 806.679 Q160.773 803.555 167.44 803.555 Z" fill="#000000" fill-rule="nonzero" fill-opacity="1" /><path clip-path="url(#clip310)" d="M154.914 793.685 L154.914 788.893 L184.08 788.893 L184.08 793.685 L154.914 793.685 M143.56 793.685 L143.56 788.893 L149.627 788.893 L149.627 793.685 L143.56 793.685 Z" fill="#000000" fill-rule="nonzero" fill-opacity="1" /><path clip-path="url(#clip310)" d="M166.476 754.622 L184.08 754.622 L184.08 759.414 L166.633 759.414 Q162.492 759.414 160.435 761.029 Q158.377 762.643 158.377 765.872 Q158.377 769.753 160.851 771.992 Q163.325 774.232 167.596 774.232 L184.08 774.232 L184.08 779.049 L154.914 779.049 L154.914 774.232 L159.445 774.232 Q156.815 772.513 155.513 770.195 Q154.211 767.852 154.211 764.805 Q154.211 759.779 157.336 757.201 Q160.435 754.622 166.476 754.622 Z" fill="#000000" fill-rule="nonzero" fill-opacity="1" /><path clip-path="url(#clip310)" d="M145.2 719.597 L145.2 715.17 L189.028 728.711 L189.028 733.138 L145.2 719.597 Z" fill="#000000" fill-rule="nonzero" fill-opacity="1" /><path clip-path="url(#clip310)" d="M169.159 673.998 Q163.95 673.998 161.086 676.159 Q158.221 678.295 158.221 682.175 Q158.221 686.029 161.086 688.191 Q163.95 690.326 169.159 690.326 Q174.341 690.326 177.205 688.191 Q180.07 686.029 180.07 682.175 Q180.07 678.295 177.205 676.159 Q174.341 673.998 169.159 673.998 M180.461 669.206 Q187.908 669.206 191.528 672.514 Q195.174 675.821 195.174 682.644 Q195.174 685.17 194.783 687.409 Q194.419 689.649 193.638 691.758 L188.976 691.758 Q190.122 689.649 190.669 687.592 Q191.216 685.534 191.216 683.399 Q191.216 678.685 188.742 676.342 Q186.294 673.998 181.32 673.998 L178.95 673.998 Q181.528 675.482 182.804 677.8 Q184.08 680.118 184.08 683.347 Q184.08 688.711 179.992 691.993 Q175.903 695.274 169.159 695.274 Q162.388 695.274 158.299 691.993 Q154.211 688.711 154.211 683.347 Q154.211 680.118 155.487 677.8 Q156.763 675.482 159.341 673.998 L154.914 673.998 L154.914 669.206 L180.461 669.206 Z" fill="#000000" fill-rule="nonzero" fill-opacity="1" /><path clip-path="url(#clip310)" d="M169.419 646.081 Q169.419 651.889 170.747 654.128 Q172.075 656.368 175.278 656.368 Q177.83 656.368 179.341 654.701 Q180.825 653.008 180.825 650.118 Q180.825 646.133 178.013 643.738 Q175.174 641.316 170.487 641.316 L169.419 641.316 L169.419 646.081 M167.44 636.524 L184.08 636.524 L184.08 641.316 L179.653 641.316 Q182.31 642.956 183.586 645.404 Q184.836 647.852 184.836 651.394 Q184.836 655.873 182.336 658.529 Q179.81 661.159 175.591 661.159 Q170.669 661.159 168.169 657.878 Q165.669 654.571 165.669 648.035 L165.669 641.316 L165.2 641.316 Q161.893 641.316 160.096 643.503 Q158.273 645.665 158.273 649.597 Q158.273 652.097 158.872 654.467 Q159.471 656.837 160.669 659.024 L156.242 659.024 Q155.226 656.394 154.732 653.92 Q154.211 651.446 154.211 649.102 Q154.211 642.774 157.492 639.649 Q160.773 636.524 167.44 636.524 Z" fill="#000000" fill-rule="nonzero" fill-opacity="1" /><path clip-path="url(#clip310)" d="M154.914 626.654 L154.914 621.863 L184.08 621.863 L184.08 626.654 L154.914 626.654 M143.56 626.654 L143.56 621.863 L149.627 621.863 L149.627 626.654 L143.56 626.654 Z" fill="#000000" fill-rule="nonzero" fill-opacity="1" /><path clip-path="url(#clip310)" d="M166.476 587.592 L184.08 587.592 L184.08 592.384 L166.633 592.384 Q162.492 592.384 160.435 593.998 Q158.377 595.613 158.377 598.842 Q158.377 602.722 160.851 604.962 Q163.325 607.201 167.596 607.201 L184.08 607.201 L184.08 612.019 L154.914 612.019 L154.914 607.201 L159.445 607.201 Q156.815 605.483 155.513 603.165 Q154.211 600.821 154.211 597.774 Q154.211 592.748 157.336 590.17 Q160.435 587.592 166.476 587.592 Z" fill="#000000" fill-rule="nonzero" fill-opacity="1" /><path clip-path="url(#clip310)" d="M169.419 547.827 Q169.419 553.634 170.747 555.874 Q172.075 558.113 175.278 558.113 Q177.83 558.113 179.341 556.446 Q180.825 554.754 180.825 551.863 Q180.825 547.879 178.013 545.483 Q175.174 543.061 170.487 543.061 L169.419 543.061 L169.419 547.827 M167.44 538.269 L184.08 538.269 L184.08 543.061 L179.653 543.061 Q182.31 544.702 183.586 547.15 Q184.836 549.598 184.836 553.139 Q184.836 557.618 182.336 560.275 Q179.81 562.905 175.591 562.905 Q170.669 562.905 168.169 559.624 Q165.669 556.316 165.669 549.78 L165.669 543.061 L165.2 543.061 Q161.893 543.061 160.096 545.249 Q158.273 547.41 158.273 551.342 Q158.273 553.842 158.872 556.212 Q159.471 558.582 160.669 560.769 L156.242 560.769 Q155.226 558.139 154.732 555.665 Q154.211 553.191 154.211 550.848 Q154.211 544.519 157.492 541.394 Q160.773 538.269 167.44 538.269 Z" fill="#000000" fill-rule="nonzero" fill-opacity="1" /><path clip-path="url(#clip310)" d="M146.633 523.66 L154.914 523.66 L154.914 513.79 L158.638 513.79 L158.638 523.66 L174.471 523.66 Q178.039 523.66 179.054 522.697 Q180.07 521.707 180.07 518.712 L180.07 513.79 L184.08 513.79 L184.08 518.712 Q184.08 524.259 182.023 526.368 Q179.94 528.478 174.471 528.478 L158.638 528.478 L158.638 531.993 L154.914 531.993 L154.914 528.478 L146.633 528.478 L146.633 523.66 Z" fill="#000000" fill-rule="nonzero" fill-opacity="1" /><path clip-path="url(#clip310)" d="M166.476 466.291 L184.08 466.291 L184.08 471.082 L166.633 471.082 Q162.492 471.082 160.435 472.697 Q158.377 474.311 158.377 477.541 Q158.377 481.421 160.851 483.66 Q163.325 485.9 167.596 485.9 L184.08 485.9 L184.08 490.718 L143.56 490.718 L143.56 485.9 L159.445 485.9 Q156.815 484.181 155.513 481.864 Q154.211 479.52 154.211 476.473 Q154.211 471.447 157.336 468.869 Q160.435 466.291 166.476 466.291 Z" fill="#000000" fill-rule="nonzero" fill-opacity="1" /><path clip-path="url(#clip310)" d="M159.862 456.108 L159.862 422.723 L164.237 422.723 L164.237 456.108 L159.862 456.108 M170.487 456.108 L170.487 422.723 L174.914 422.723 L174.914 456.108 L170.487 456.108 Z" fill="#000000" fill-rule="nonzero" fill-opacity="1" /><path clip-path="url(#clip310)" d="M179.653 410.458 L179.653 401.864 L149.992 401.864 L151.867 411.213 L147.075 411.213 L145.2 401.916 L145.2 396.656 L179.653 396.656 L179.653 388.062 L184.08 388.062 L184.08 410.458 L179.653 410.458 Z" fill="#000000" fill-rule="nonzero" fill-opacity="1" /><path clip-path="url(#clip310)" d="M453.912 6.87496 Q450.034 13.53 448.154 20.0404 Q446.273 26.5508 446.273 33.2348 Q446.273 39.9188 448.154 46.487 Q450.063 53.0263 453.912 59.6525 L449.282 59.6525 Q444.942 52.8527 442.772 46.2845 Q440.631 39.7162 440.631 33.2348 Q440.631 26.7823 442.772 20.2429 Q444.913 13.7036 449.282 6.87496 L453.912 6.87496 Z" fill="#000000" fill-rule="nonzero" fill-opacity="1" /><path clip-path="url(#clip310)" d="M470.318 13.4432 L470.318 47.0368 L477.378 47.0368 Q486.319 47.0368 490.457 42.9859 Q494.623 38.935 494.623 30.1966 Q494.623 21.5161 490.457 17.4941 Q486.319 13.4432 477.378 13.4432 L470.318 13.4432 M464.473 8.64 L476.481 8.64 Q489.039 8.64 494.913 13.8772 Q500.786 19.0855 500.786 30.1966 Q500.786 41.3655 494.884 46.6028 Q488.981 51.84 476.481 51.84 L464.473 51.84 L464.473 8.64 Z" fill="#000000" fill-rule="nonzero" fill-opacity="1" /><path clip-path="url(#clip310)" d="M509.033 6.87496 L513.663 6.87496 Q518.003 13.7036 520.144 20.2429 Q522.314 26.7823 522.314 33.2348 Q522.314 39.7162 520.144 46.2845 Q518.003 52.8527 513.663 59.6525 L509.033 59.6525 Q512.881 53.0263 514.762 46.487 Q516.672 39.9188 516.672 33.2348 Q516.672 26.5508 514.762 20.0404 Q512.881 13.53 509.033 6.87496 Z" fill="#000000" fill-rule="nonzero" fill-opacity="1" /><path clip-path="url(#clip310)" d="M596.793 10.0578 L596.793 15.758 Q593.465 14.1666 590.514 13.3853 Q587.563 12.6041 584.814 12.6041 Q580.04 12.6041 577.435 14.4559 Q574.86 16.3078 574.86 19.7221 Q574.86 22.5867 576.567 24.0624 Q578.303 25.5091 583.107 26.4061 L586.637 27.1295 Q593.176 28.3737 596.272 31.5276 Q599.397 34.6526 599.397 39.9188 Q599.397 46.1977 595.173 49.4384 Q590.977 52.6791 582.846 52.6791 Q579.779 52.6791 576.307 51.9847 Q572.864 51.2902 569.16 49.9303 L569.16 43.9118 Q572.719 45.9083 576.133 46.921 Q579.548 47.9338 582.846 47.9338 Q587.852 47.9338 590.572 45.9662 Q593.292 43.9986 593.292 40.3528 Q593.292 37.1699 591.324 35.376 Q589.386 33.582 584.93 32.685 L581.371 31.9906 Q574.831 30.6885 571.909 27.9107 Q568.986 25.133 568.986 20.1851 Q568.986 14.4559 573.008 11.1573 Q577.059 7.85875 584.148 7.85875 Q587.186 7.85875 590.34 8.40852 Q593.494 8.95829 596.793 10.0578 Z" fill="#000000" fill-rule="nonzero" fill-opacity="1" /><path clip-path="url(#clip310)" d="M613.431 46.9789 L613.431 64.1663 L608.078 64.1663 L608.078 19.4328 L613.431 19.4328 L613.431 24.3517 Q615.109 21.4582 617.655 20.0693 Q620.23 18.6515 623.789 18.6515 Q629.692 18.6515 633.367 23.339 Q637.07 28.0265 637.07 35.6653 Q637.07 43.3042 633.367 47.9916 Q629.692 52.6791 623.789 52.6791 Q620.23 52.6791 617.655 51.2902 Q615.109 49.8724 613.431 46.9789 M631.544 35.6653 Q631.544 29.7915 629.113 26.464 Q626.712 23.1075 622.487 23.1075 Q618.263 23.1075 615.832 26.464 Q613.431 29.7915 613.431 35.6653 Q613.431 41.5391 615.832 44.8956 Q618.263 48.2231 622.487 48.2231 Q626.712 48.2231 629.113 44.8956 Q631.544 41.5391 631.544 35.6653 Z" fill="#000000" fill-rule="nonzero" fill-opacity="1" /><path clip-path="url(#clip310)" d="M673.615 34.3054 L673.615 36.9095 L649.136 36.9095 Q649.484 42.4072 652.435 45.3007 Q655.415 48.1653 660.71 48.1653 Q663.777 48.1653 666.642 47.4129 Q669.536 46.6606 672.371 45.156 L672.371 50.1907 Q669.507 51.406 666.497 52.0425 Q663.488 52.6791 660.392 52.6791 Q652.638 52.6791 648.095 48.1653 Q643.581 43.6514 643.581 35.9547 Q643.581 27.9975 647.863 23.339 Q652.175 18.6515 659.466 18.6515 Q666.005 18.6515 669.796 22.876 Q673.615 27.0716 673.615 34.3054 M668.291 32.7429 Q668.233 28.3737 665.832 25.7695 Q663.459 23.1654 659.524 23.1654 Q655.068 23.1654 652.377 25.6827 Q649.715 28.2001 649.31 32.7718 L668.291 32.7429 Z" fill="#000000" fill-rule="nonzero" fill-opacity="1" /><path clip-path="url(#clip310)" d="M710.074 34.3054 L710.074 36.9095 L685.595 36.9095 Q685.942 42.4072 688.893 45.3007 Q691.873 48.1653 697.169 48.1653 Q700.236 48.1653 703.1 47.4129 Q705.994 46.6606 708.829 45.156 L708.829 50.1907 Q705.965 51.406 702.956 52.0425 Q699.946 52.6791 696.85 52.6791 Q689.096 52.6791 684.553 48.1653 Q680.039 43.6514 680.039 35.9547 Q680.039 27.9975 684.321 23.339 Q688.633 18.6515 695.924 18.6515 Q702.464 18.6515 706.254 22.876 Q710.074 27.0716 710.074 34.3054 M704.749 32.7429 Q704.692 28.3737 702.29 25.7695 Q699.917 23.1654 695.982 23.1654 Q691.526 23.1654 688.835 25.6827 Q686.173 28.2001 685.768 32.7718 L704.749 32.7429 Z" fill="#000000" fill-rule="nonzero" fill-opacity="1" /><path clip-path="url(#clip310)" d="M740.137 24.3517 L740.137 6.81709 L745.461 6.81709 L745.461 51.84 L740.137 51.84 L740.137 46.9789 Q738.459 49.8724 735.884 51.2902 Q733.337 52.6791 729.749 52.6791 Q723.876 52.6791 720.172 47.9916 Q716.497 43.3042 716.497 35.6653 Q716.497 28.0265 720.172 23.339 Q723.876 18.6515 729.749 18.6515 Q733.337 18.6515 735.884 20.0693 Q738.459 21.4582 740.137 24.3517 M721.995 35.6653 Q721.995 41.5391 724.396 44.8956 Q726.827 48.2231 731.051 48.2231 Q735.276 48.2231 737.706 44.8956 Q740.137 41.5391 740.137 35.6653 Q740.137 29.7915 737.706 26.464 Q735.276 23.1075 731.051 23.1075 Q726.827 23.1075 724.396 26.464 Q721.995 29.7915 721.995 35.6653 Z" fill="#000000" fill-rule="nonzero" fill-opacity="1" /><path clip-path="url(#clip310)" d="M753.737 33.2348 L769.332 33.2348 L769.332 37.9801 L753.737 37.9801 L753.737 33.2348 Z" fill="#000000" fill-rule="nonzero" fill-opacity="1" /><path clip-path="url(#clip310)" d="M803.042 25.6538 Q805.038 22.0659 807.816 20.3587 Q810.594 18.6515 814.355 18.6515 Q819.419 18.6515 822.168 22.2105 Q824.917 25.7406 824.917 32.2799 L824.917 51.84 L819.564 51.84 L819.564 32.4535 Q819.564 27.795 817.914 25.5381 Q816.265 23.2811 812.88 23.2811 Q808.742 23.2811 806.34 26.03 Q803.939 28.7788 803.939 33.5241 L803.939 51.84 L798.586 51.84 L798.586 32.4535 Q798.586 27.7661 796.937 25.5381 Q795.287 23.2811 791.844 23.2811 Q787.764 23.2811 785.362 26.0589 Q782.961 28.8077 782.961 33.5241 L782.961 51.84 L777.608 51.84 L777.608 19.4328 L782.961 19.4328 L782.961 24.4675 Q784.784 21.4872 787.33 20.0693 Q789.876 18.6515 793.377 18.6515 Q796.908 18.6515 799.367 20.4455 Q801.855 22.2395 803.042 25.6538 Z" fill="#000000" fill-rule="nonzero" fill-opacity="1" /><path clip-path="url(#clip310)" d="M850.264 35.5496 Q843.811 35.5496 841.323 37.0253 Q838.834 38.501 838.834 42.06 Q838.834 44.8956 840.686 46.5738 Q842.567 48.2231 845.779 48.2231 Q850.206 48.2231 852.868 45.0981 Q855.559 41.9442 855.559 36.7359 L855.559 35.5496 L850.264 35.5496 M860.883 33.3505 L860.883 51.84 L855.559 51.84 L855.559 46.921 Q853.736 49.8724 851.016 51.2902 Q848.296 52.6791 844.361 52.6791 Q839.384 52.6791 836.433 49.9014 Q833.51 47.0947 833.51 42.4072 Q833.51 36.9385 837.156 34.1607 Q840.831 31.3829 848.094 31.3829 L855.559 31.3829 L855.559 30.8621 Q855.559 27.1874 853.128 25.1908 Q850.727 23.1654 846.358 23.1654 Q843.58 23.1654 840.947 23.8309 Q838.314 24.4964 835.883 25.8274 L835.883 20.9085 Q838.805 19.78 841.554 19.2302 Q844.303 18.6515 846.907 18.6515 Q853.939 18.6515 857.411 22.2973 Q860.883 25.9431 860.883 33.3505 Z" fill="#000000" fill-rule="nonzero" fill-opacity="1" /><path clip-path="url(#clip310)" d="M877.115 10.2314 L877.115 19.4328 L888.082 19.4328 L888.082 23.5705 L877.115 23.5705 L877.115 41.163 Q877.115 45.1271 878.186 46.2555 Q879.286 47.384 882.613 47.384 L888.082 47.384 L888.082 51.84 L882.613 51.84 Q876.45 51.84 874.106 49.5541 Q871.762 47.2393 871.762 41.163 L871.762 23.5705 L867.856 23.5705 L867.856 19.4328 L871.762 19.4328 L871.762 10.2314 L877.115 10.2314 Z" fill="#000000" fill-rule="nonzero" fill-opacity="1" /><path clip-path="url(#clip310)" d="M918.406 20.677 L918.406 25.6538 Q916.149 24.4096 913.863 23.802 Q911.606 23.1654 909.291 23.1654 Q904.112 23.1654 901.247 26.464 Q898.383 29.7336 898.383 35.6653 Q898.383 41.597 901.247 44.8956 Q904.112 48.1653 909.291 48.1653 Q911.606 48.1653 913.863 47.5576 Q916.149 46.921 918.406 45.6768 L918.406 50.5958 Q916.178 51.6375 913.776 52.1583 Q911.403 52.6791 908.713 52.6791 Q901.392 52.6791 897.081 48.0784 Q892.769 43.4778 892.769 35.6653 Q892.769 27.7371 897.11 23.1943 Q901.479 18.6515 909.06 18.6515 Q911.519 18.6515 913.863 19.1724 Q916.207 19.6642 918.406 20.677 Z" fill="#000000" fill-rule="nonzero" fill-opacity="1" /><path clip-path="url(#clip310)" d="M954.603 32.2799 L954.603 51.84 L949.279 51.84 L949.279 32.4535 Q949.279 27.8529 947.485 25.567 Q945.691 23.2811 942.104 23.2811 Q937.792 23.2811 935.304 26.03 Q932.815 28.7788 932.815 33.5241 L932.815 51.84 L927.462 51.84 L927.462 6.81709 L932.815 6.81709 L932.815 24.4675 Q934.725 21.545 937.3 20.0983 Q939.904 18.6515 943.29 18.6515 Q948.874 18.6515 951.739 22.1237 Q954.603 25.567 954.603 32.2799 Z" fill="#000000" fill-rule="nonzero" fill-opacity="1" /><path clip-path="url(#clip310)" d="M992.942 34.3054 L992.942 36.9095 L968.463 36.9095 Q968.811 42.4072 971.762 45.3007 Q974.742 48.1653 980.037 48.1653 Q983.104 48.1653 985.969 47.4129 Q988.863 46.6606 991.698 45.156 L991.698 50.1907 Q988.834 51.406 985.824 52.0425 Q982.815 52.6791 979.719 52.6791 Q971.965 52.6791 967.422 48.1653 Q962.908 43.6514 962.908 35.9547 Q962.908 27.9975 967.19 23.339 Q971.502 18.6515 978.793 18.6515 Q985.332 18.6515 989.123 22.876 Q992.942 27.0716 992.942 34.3054 M987.618 32.7429 Q987.56 28.3737 985.159 25.7695 Q982.786 23.1654 978.851 23.1654 Q974.395 23.1654 971.704 25.6827 Q969.042 28.2001 968.637 32.7718 L987.618 32.7429 Z" fill="#000000" fill-rule="nonzero" fill-opacity="1" /><path clip-path="url(#clip310)" d="M1023.01 24.3517 L1023.01 6.81709 L1028.33 6.81709 L1028.33 51.84 L1023.01 51.84 L1023.01 46.9789 Q1021.33 49.8724 1018.75 51.2902 Q1016.21 52.6791 1012.62 52.6791 Q1006.74 52.6791 1003.04 47.9916 Q999.366 43.3042 999.366 35.6653 Q999.366 28.0265 1003.04 23.339 Q1006.74 18.6515 1012.62 18.6515 Q1016.21 18.6515 1018.75 20.0693 Q1021.33 21.4582 1023.01 24.3517 M1004.86 35.6653 Q1004.86 41.5391 1007.27 44.8956 Q1009.7 48.2231 1013.92 48.2231 Q1018.14 48.2231 1020.58 44.8956 Q1023.01 41.5391 1023.01 35.6653 Q1023.01 29.7915 1020.58 26.464 Q1018.14 23.1075 1013.92 23.1075 Q1009.7 23.1075 1007.27 26.464 Q1004.86 29.7915 1004.86 35.6653 Z" fill="#000000" fill-rule="nonzero" fill-opacity="1" /><path clip-path="url(#clip310)" d="M1089.76 6.87496 Q1085.88 13.53 1084 20.0404 Q1082.12 26.5508 1082.12 33.2348 Q1082.12 39.9188 1084 46.487 Q1085.91 53.0263 1089.76 59.6525 L1085.13 59.6525 Q1080.79 52.8527 1078.62 46.2845 Q1076.48 39.7162 1076.48 33.2348 Q1076.48 26.7823 1078.62 20.2429 Q1080.76 13.7036 1085.13 6.87496 L1089.76 6.87496 Z" fill="#000000" fill-rule="nonzero" fill-opacity="1" /><path clip-path="url(#clip310)" d="M1114.76 14.3981 L1106.83 35.8968 L1122.72 35.8968 L1114.76 14.3981 M1111.46 8.64 L1118.09 8.64 L1134.55 51.84 L1128.47 51.84 L1124.54 40.7579 L1105.07 40.7579 L1101.13 51.84 L1094.97 51.84 L1111.46 8.64 Z" fill="#000000" fill-rule="nonzero" fill-opacity="1" /><path clip-path="url(#clip310)" d="M1146.7 31.2093 L1146.7 47.0368 L1156.08 47.0368 Q1160.79 47.0368 1163.05 45.0981 Q1165.34 43.1306 1165.34 39.1086 Q1165.34 35.0577 1163.05 33.148 Q1160.79 31.2093 1156.08 31.2093 L1146.7 31.2093 M1146.7 13.4432 L1146.7 26.464 L1155.35 26.464 Q1159.64 26.464 1161.72 24.8726 Q1163.83 23.2522 1163.83 19.9536 Q1163.83 16.6839 1161.72 15.0636 Q1159.64 13.4432 1155.35 13.4432 L1146.7 13.4432 M1140.86 8.64 L1155.79 8.64 Q1162.47 8.64 1166.09 11.4178 Q1169.71 14.1955 1169.71 19.317 Q1169.71 23.2811 1167.85 25.6249 Q1166 27.9686 1162.41 28.5473 Q1166.73 29.4732 1169.1 32.4246 Q1171.5 35.347 1171.5 39.7452 Q1171.5 45.5322 1167.57 48.6861 Q1163.63 51.84 1156.37 51.84 L1140.86 51.84 L1140.86 8.64 Z" fill="#000000" fill-rule="nonzero" fill-opacity="1" /><path clip-path="url(#clip310)" d="M1237.91 22.442 L1210.13 30.457 L1237.91 38.3852 L1237.91 43.5356 L1200.81 32.8876 L1200.81 27.9686 L1237.91 17.3494 L1237.91 22.442 M1200.81 46.921 L1237.91 46.921 L1237.91 51.84 L1200.81 51.84 L1200.81 46.921 Z" fill="#000000" fill-rule="nonzero" fill-opacity="1" /><path clip-path="url(#clip310)" d="M1270.37 46.921 L1279.92 46.921 L1279.92 13.964 L1269.53 16.0474 L1269.53 10.7233 L1279.86 8.64 L1285.71 8.64 L1285.71 46.921 L1295.26 46.921 L1295.26 51.84 L1270.37 51.84 L1270.37 46.921 Z" fill="#000000" fill-rule="nonzero" fill-opacity="1" /><path clip-path="url(#clip310)" d="M1312.1 46.921 L1332.49 46.921 L1332.49 51.84 L1305.06 51.84 L1305.06 46.921 Q1308.39 43.4778 1314.12 37.6908 Q1319.88 31.8748 1321.35 30.1966 Q1324.16 27.0427 1325.26 24.8726 Q1326.39 22.6735 1326.39 20.5612 Q1326.39 17.118 1323.96 14.9478 Q1321.56 12.7777 1317.68 12.7777 Q1314.93 12.7777 1311.86 13.7326 Q1308.83 14.6874 1305.35 16.6261 L1305.35 10.7233 Q1308.88 9.30551 1311.95 8.58213 Q1315.02 7.85875 1317.56 7.85875 Q1324.28 7.85875 1328.27 11.2152 Q1332.26 14.5717 1332.26 20.1851 Q1332.26 22.8471 1331.25 25.2487 Q1330.27 27.6214 1327.63 30.8621 Q1326.91 31.7012 1323.03 35.7232 Q1319.16 39.7162 1312.1 46.921 Z" fill="#000000" fill-rule="nonzero" fill-opacity="1" /><path clip-path="url(#clip310)" d="M1343.29 8.64 L1371.07 8.64 L1371.07 11.1284 L1355.38 51.84 L1349.28 51.84 L1364.03 13.559 L1343.29 13.559 L1343.29 8.64 Z" fill="#000000" fill-rule="nonzero" fill-opacity="1" /><path clip-path="url(#clip310)" d="M1423.87 20.677 L1423.87 25.6538 Q1421.61 24.4096 1419.33 23.802 Q1417.07 23.1654 1414.76 23.1654 Q1409.58 23.1654 1406.71 26.464 Q1403.85 29.7336 1403.85 35.6653 Q1403.85 41.597 1406.71 44.8956 Q1409.58 48.1653 1414.76 48.1653 Q1417.07 48.1653 1419.33 47.5576 Q1421.61 46.921 1423.87 45.6768 L1423.87 50.5958 Q1421.64 51.6375 1419.24 52.1583 Q1416.87 52.6791 1414.18 52.6791 Q1406.86 52.6791 1402.55 48.0784 Q1398.24 43.4778 1398.24 35.6653 Q1398.24 27.7371 1402.58 23.1943 Q1406.94 18.6515 1414.53 18.6515 Q1416.99 18.6515 1419.33 19.1724 Q1421.67 19.6642 1423.87 20.677 Z" fill="#000000" fill-rule="nonzero" fill-opacity="1" /><path clip-path="url(#clip310)" d="M1458.36 25.6538 Q1460.36 22.0659 1463.14 20.3587 Q1465.91 18.6515 1469.68 18.6515 Q1474.74 18.6515 1477.49 22.2105 Q1480.24 25.7406 1480.24 32.2799 L1480.24 51.84 L1474.88 51.84 L1474.88 32.4535 Q1474.88 27.795 1473.23 25.5381 Q1471.59 23.2811 1468.2 23.2811 Q1464.06 23.2811 1461.66 26.03 Q1459.26 28.7788 1459.26 33.5241 L1459.26 51.84 L1453.91 51.84 L1453.91 32.4535 Q1453.91 27.7661 1452.26 25.5381 Q1450.61 23.2811 1447.16 23.2811 Q1443.08 23.2811 1440.68 26.0589 Q1438.28 28.8077 1438.28 33.5241 L1438.28 51.84 L1432.93 51.84 L1432.93 19.4328 L1438.28 19.4328 L1438.28 24.4675 Q1440.1 21.4872 1442.65 20.0693 Q1445.2 18.6515 1448.7 18.6515 Q1452.23 18.6515 1454.69 20.4455 Q1457.18 22.2395 1458.36 25.6538 Z" fill="#000000" fill-rule="nonzero" fill-opacity="1" /><path clip-path="url(#clip310)" d="M1500.32 8.64 L1505.24 8.64 L1490.19 57.3377 L1485.27 57.3377 L1500.32 8.64 Z" fill="#000000" fill-rule="nonzero" fill-opacity="1" /><path clip-path="url(#clip310)" d="M1531.48 20.3876 L1531.48 25.4223 Q1529.22 24.2649 1526.79 23.6862 Q1524.36 23.1075 1521.76 23.1075 Q1517.79 23.1075 1515.8 24.3228 Q1513.83 25.5381 1513.83 27.9686 Q1513.83 29.8204 1515.25 30.891 Q1516.67 31.9327 1520.95 32.8876 L1522.77 33.2926 Q1528.44 34.5079 1530.82 36.7359 Q1533.22 38.935 1533.22 42.8991 Q1533.22 47.4129 1529.63 50.046 Q1526.07 52.6791 1519.82 52.6791 Q1517.22 52.6791 1514.38 52.1583 Q1511.57 51.6664 1508.45 50.6537 L1508.45 45.156 Q1511.4 46.6896 1514.26 47.4708 Q1517.13 48.2231 1519.94 48.2231 Q1523.7 48.2231 1525.72 46.95 Q1527.75 45.6479 1527.75 43.3042 Q1527.75 41.134 1526.27 39.9766 Q1524.83 38.8192 1519.88 37.7486 L1518.03 37.3146 Q1513.08 36.273 1510.88 34.1318 Q1508.68 31.9616 1508.68 28.2001 Q1508.68 23.6283 1511.92 21.1399 Q1515.16 18.6515 1521.12 18.6515 Q1524.07 18.6515 1526.68 19.0855 Q1529.28 19.5196 1531.48 20.3876 Z" fill="#000000" fill-rule="nonzero" fill-opacity="1" /><path clip-path="url(#clip310)" d="M1540.86 6.87496 L1545.49 6.87496 Q1549.83 13.7036 1551.97 20.2429 Q1554.14 26.7823 1554.14 33.2348 Q1554.14 39.7162 1551.97 46.2845 Q1549.83 52.8527 1545.49 59.6525 L1540.86 59.6525 Q1544.7 53.0263 1546.59 46.487 Q1548.49 39.9188 1548.49 33.2348 Q1548.49 26.5508 1546.59 20.0404 Q1544.7 13.53 1540.86 6.87496 Z" fill="#000000" fill-rule="nonzero" fill-opacity="1" /><path clip-path="url(#clip312)" d="M388.765 243.851 L693.075 309.994 L997.384 362.035 L1301.69 467.251 L1606 500.782 L1606 703.978 L1301.69 619.65 L997.384 540.806 L693.075 425.504 L388.765 243.851  Z" fill="#4482b5" fill-rule="evenodd" fill-opacity="0.18"/>
<polyline clip-path="url(#clip312)" style="stroke:#009af9; stroke-linecap:round; stroke-linejoin:round; stroke-width:0; stroke-opacity:1; fill:none" points="388.765,243.851 693.075,309.994 997.384,362.035 1301.69,467.251 1606,500.782 "/>
<polyline clip-path="url(#clip312)" style="stroke:#4482b5; stroke-linecap:round; stroke-linejoin:round; stroke-width:8; stroke-opacity:1; fill:none" points="388.765,243.851 693.075,375.689 997.384,440.484 1301.69,529.012 1606,568.979 "/>
<path clip-path="url(#clip312)" d="M388.765 243.851 L693.075 405.105 L997.384 466.835 L1301.69 548.286 L1606 603.026 L1606 1013.94 L1301.69 939.728 L997.384 698.849 L693.075 556.507 L388.765 243.851  Z" fill="#ff8c00" fill-rule="evenodd" fill-opacity="0.18"/>
<polyline clip-path="url(#clip312)" style="stroke:#3da44d; stroke-linecap:round; stroke-linejoin:round; stroke-width:0; stroke-opacity:1; fill:none" points="388.765,243.851 693.075,405.105 997.384,466.835 1301.69,548.286 1606,603.026 "/>
<polyline clip-path="url(#clip312)" style="stroke:#ff8c00; stroke-linecap:round; stroke-linejoin:round; stroke-width:8; stroke-opacity:1; fill:none" points="388.765,243.851 693.075,464.367 997.384,541.536 1301.69,673.367 1606,867.475 "/>
<path clip-path="url(#clip312)" d="M388.765 243.851 L693.075 320.094 L997.384 375.046 L1301.69 440.026 L1606 474.153 L1606 878.269 L1301.69 732.009 L997.384 578.804 L693.075 500.304 L388.765 243.851  Z" fill="#db143d" fill-rule="evenodd" fill-opacity="0.18"/>
<polyline clip-path="url(#clip312)" style="stroke:#ac8d18; stroke-linecap:round; stroke-linejoin:round; stroke-width:0; stroke-opacity:1; fill:none" points="388.765,243.851 693.075,320.094 997.384,375.046 1301.69,440.026 1606,474.153 "/>
<polyline clip-path="url(#clip312)" style="stroke:#db143d; stroke-linecap:round; stroke-linejoin:round; stroke-width:8; stroke-opacity:1; fill:none" points="388.765,243.851 693.075,385.139 997.384,459.882 1301.69,577.162 1606,594.56 "/>
<polyline clip-path="url(#clip312)" style="stroke:#999999; stroke-linecap:round; stroke-linejoin:round; stroke-width:4; stroke-opacity:1; fill:none" stroke-dasharray="16, 10" points="-938.023,243.851 2932.79,243.851 "/>
<path clip-path="url(#clip310)" d="M395.257 1009.83 L766.945 1009.83 L766.945 802.47 L395.257 802.47  Z" fill="#ffffff" fill-rule="evenodd" fill-opacity="1"/>
<polyline clip-path="url(#clip310)" style="stroke:#000000; stroke-linecap:round; stroke-linejoin:round; stroke-width:4; stroke-opacity:1; fill:none" points="395.257,1009.83 766.945,1009.83 766.945,802.47 395.257,802.47 395.257,1009.83 "/>
<polyline clip-path="url(#clip310)" style="stroke:#4482b5; stroke-linecap:round; stroke-linejoin:round; stroke-width:8; stroke-opacity:1; fill:none" points="409.594,854.31 495.612,854.31 "/>
<path clip-path="url(#clip310)" d="M525.781 841.636 L519.439 858.835 L532.147 858.835 L525.781 841.636 M523.142 837.03 L528.443 837.03 L541.615 871.59 L536.753 871.59 L533.605 862.724 L518.027 862.724 L514.879 871.59 L509.948 871.59 L523.142 837.03 Z" fill="#000000" fill-rule="nonzero" fill-opacity="1" /><path clip-path="url(#clip310)" d="M551.337 855.085 L551.337 867.747 L558.837 867.747 Q562.61 867.747 564.415 866.196 Q566.244 864.622 566.244 861.405 Q566.244 858.164 564.415 856.636 Q562.61 855.085 558.837 855.085 L551.337 855.085 M551.337 840.872 L551.337 851.289 L558.258 851.289 Q561.684 851.289 563.351 850.016 Q565.04 848.72 565.04 846.081 Q565.04 843.465 563.351 842.169 Q561.684 840.872 558.258 840.872 L551.337 840.872 M546.661 837.03 L558.605 837.03 Q563.952 837.03 566.846 839.252 Q569.739 841.474 569.739 845.572 Q569.739 848.743 568.258 850.618 Q566.776 852.493 563.906 852.956 Q567.355 853.696 569.253 856.058 Q571.175 858.396 571.175 861.914 Q571.175 866.544 568.026 869.067 Q564.878 871.59 559.068 871.59 L546.661 871.59 L546.661 837.03 Z" fill="#000000" fill-rule="nonzero" fill-opacity="1" /><path clip-path="url(#clip310)" d="M604.299 835.618 Q601.198 840.942 599.693 846.15 Q598.188 851.359 598.188 856.706 Q598.188 862.053 599.693 867.308 Q601.221 872.539 604.299 877.84 L600.596 877.84 Q597.123 872.4 595.387 867.145 Q593.674 861.891 593.674 856.706 Q593.674 851.544 595.387 846.312 Q597.1 841.081 600.596 835.618 L604.299 835.618 Z" fill="#000000" fill-rule="nonzero" fill-opacity="1" /><path clip-path="url(#clip310)" d="M634.114 855.942 L634.114 871.59 L629.855 871.59 L629.855 856.081 Q629.855 852.4 628.42 850.572 Q626.984 848.743 624.114 848.743 Q620.665 848.743 618.674 850.942 Q616.684 853.141 616.684 856.937 L616.684 871.59 L612.401 871.59 L612.401 845.664 L616.684 845.664 L616.684 849.692 Q618.211 847.354 620.272 846.197 Q622.355 845.039 625.063 845.039 Q629.531 845.039 631.822 847.817 Q634.114 850.572 634.114 855.942 Z" fill="#000000" fill-rule="nonzero" fill-opacity="1" /><path clip-path="url(#clip310)" d="M643.165 850.062 L672.841 850.062 L672.841 853.951 L643.165 853.951 L643.165 850.062 M643.165 859.507 L672.841 859.507 L672.841 863.442 L643.165 863.442 L643.165 859.507 Z" fill="#000000" fill-rule="nonzero" fill-opacity="1" /><path clip-path="url(#clip310)" d="M683.072 870.872 L683.072 866.613 Q684.831 867.446 686.637 867.886 Q688.442 868.326 690.179 868.326 Q694.808 868.326 697.239 865.224 Q699.692 862.099 700.04 855.757 Q698.697 857.747 696.637 858.812 Q694.577 859.877 692.077 859.877 Q686.892 859.877 683.859 856.752 Q680.85 853.604 680.85 848.164 Q680.85 842.84 683.998 839.622 Q687.146 836.405 692.378 836.405 Q698.373 836.405 701.521 841.011 Q704.692 845.595 704.692 854.345 Q704.692 862.516 700.803 867.4 Q696.938 872.261 690.387 872.261 Q688.628 872.261 686.822 871.914 Q685.017 871.567 683.072 870.872 M692.378 856.22 Q695.526 856.22 697.354 854.067 Q699.206 851.914 699.206 848.164 Q699.206 844.437 697.354 842.285 Q695.526 840.109 692.378 840.109 Q689.229 840.109 687.378 842.285 Q685.549 844.437 685.549 848.164 Q685.549 851.914 687.378 854.067 Q689.229 856.22 692.378 856.22 Z" fill="#000000" fill-rule="nonzero" fill-opacity="1" /><path clip-path="url(#clip310)" d="M725.942 841.104 L714.137 859.553 L725.942 859.553 L725.942 841.104 M724.715 837.03 L730.595 837.03 L730.595 859.553 L735.526 859.553 L735.526 863.442 L730.595 863.442 L730.595 871.59 L725.942 871.59 L725.942 863.442 L710.34 863.442 L710.34 858.928 L724.715 837.03 Z" fill="#000000" fill-rule="nonzero" fill-opacity="1" /><path clip-path="url(#clip310)" d="M741.984 835.618 L745.687 835.618 Q749.16 841.081 750.873 846.312 Q752.609 851.544 752.609 856.706 Q752.609 861.891 750.873 867.145 Q749.16 872.4 745.687 877.84 L741.984 877.84 Q745.063 872.539 746.567 867.308 Q748.095 862.053 748.095 856.706 Q748.095 851.359 746.567 846.15 Q745.063 840.942 741.984 835.618 Z" fill="#000000" fill-rule="nonzero" fill-opacity="1" /><polyline clip-path="url(#clip310)" style="stroke:#ff8c00; stroke-linecap:round; stroke-linejoin:round; stroke-width:8; stroke-opacity:1; fill:none" points="409.594,906.15 495.612,906.15 "/>
<path clip-path="url(#clip310)" d="M509.948 888.87 L514.624 888.87 L514.624 903.037 L531.615 903.037 L531.615 888.87 L536.29 888.87 L536.29 923.43 L531.615 923.43 L531.615 906.972 L514.624 906.972 L514.624 923.43 L509.948 923.43 L509.948 888.87 Z" fill="#000000" fill-rule="nonzero" fill-opacity="1" /><path clip-path="url(#clip310)" d="M545.596 888.87 L565.457 888.87 L565.457 892.805 L550.272 892.805 L550.272 902.99 L563.976 902.99 L563.976 906.925 L550.272 906.925 L550.272 923.43 L545.596 923.43 L545.596 888.87 Z" fill="#000000" fill-rule="nonzero" fill-opacity="1" /><path clip-path="url(#clip310)" d="M597.98 887.458 Q594.878 892.782 593.373 897.99 Q591.869 903.199 591.869 908.546 Q591.869 913.893 593.373 919.148 Q594.901 924.379 597.98 929.68 L594.276 929.68 Q590.804 924.24 589.068 918.985 Q587.355 913.731 587.355 908.546 Q587.355 903.384 589.068 898.152 Q590.781 892.921 594.276 887.458 L597.98 887.458 Z" fill="#000000" fill-rule="nonzero" fill-opacity="1" /><path clip-path="url(#clip310)" d="M627.795 907.782 L627.795 923.43 L623.535 923.43 L623.535 907.921 Q623.535 904.24 622.1 902.412 Q620.665 900.583 617.795 900.583 Q614.346 900.583 612.355 902.782 Q610.364 904.981 610.364 908.777 L610.364 923.43 L606.082 923.43 L606.082 897.504 L610.364 897.504 L610.364 901.532 Q611.892 899.194 613.952 898.037 Q616.035 896.879 618.744 896.879 Q623.211 896.879 625.503 899.657 Q627.795 902.412 627.795 907.782 Z" fill="#000000" fill-rule="nonzero" fill-opacity="1" /><path clip-path="url(#clip310)" d="M636.845 901.902 L666.521 901.902 L666.521 905.791 L636.845 905.791 L636.845 901.902 M636.845 911.347 L666.521 911.347 L666.521 915.282 L636.845 915.282 L636.845 911.347 Z" fill="#000000" fill-rule="nonzero" fill-opacity="1" /><path clip-path="url(#clip310)" d="M687.192 904.286 Q684.044 904.286 682.192 906.439 Q680.364 908.592 680.364 912.342 Q680.364 916.069 682.192 918.245 Q684.044 920.398 687.192 920.398 Q690.341 920.398 692.169 918.245 Q694.021 916.069 694.021 912.342 Q694.021 908.592 692.169 906.439 Q690.341 904.286 687.192 904.286 M696.475 889.634 L696.475 893.893 Q694.716 893.06 692.91 892.62 Q691.128 892.18 689.368 892.18 Q684.739 892.18 682.285 895.305 Q679.855 898.43 679.507 904.749 Q680.873 902.736 682.933 901.671 Q684.993 900.583 687.47 900.583 Q692.679 900.583 695.688 903.754 Q698.72 906.902 698.72 912.342 Q698.72 917.666 695.572 920.884 Q692.424 924.101 687.192 924.101 Q681.197 924.101 678.026 919.518 Q674.855 914.911 674.855 906.185 Q674.855 897.99 678.743 893.129 Q682.632 888.245 689.183 888.245 Q690.942 888.245 692.725 888.592 Q694.53 888.939 696.475 889.634 Z" fill="#000000" fill-rule="nonzero" fill-opacity="1" /><path clip-path="url(#clip310)" d="M706.822 888.87 L725.178 888.87 L725.178 892.805 L711.104 892.805 L711.104 901.277 Q712.123 900.93 713.141 900.768 Q714.16 900.583 715.178 900.583 Q720.965 900.583 724.345 903.754 Q727.725 906.925 727.725 912.342 Q727.725 917.921 724.252 921.023 Q720.78 924.101 714.461 924.101 Q712.285 924.101 710.016 923.731 Q707.771 923.36 705.364 922.62 L705.364 917.921 Q707.447 919.055 709.669 919.61 Q711.891 920.166 714.368 920.166 Q718.373 920.166 720.711 918.06 Q723.049 915.953 723.049 912.342 Q723.049 908.731 720.711 906.624 Q718.373 904.518 714.368 904.518 Q712.493 904.518 710.618 904.935 Q708.766 905.351 706.822 906.231 L706.822 888.87 Z" fill="#000000" fill-rule="nonzero" fill-opacity="1" /><path clip-path="url(#clip310)" d="M735.664 887.458 L739.368 887.458 Q742.84 892.921 744.553 898.152 Q746.289 903.384 746.289 908.546 Q746.289 913.731 744.553 918.985 Q742.84 924.24 739.368 929.68 L735.664 929.68 Q738.743 924.379 740.248 919.148 Q741.775 913.893 741.775 908.546 Q741.775 903.199 740.248 897.99 Q738.743 892.782 735.664 887.458 Z" fill="#000000" fill-rule="nonzero" fill-opacity="1" /><polyline clip-path="url(#clip310)" style="stroke:#db143d; stroke-linecap:round; stroke-linejoin:round; stroke-width:8; stroke-opacity:1; fill:none" points="409.594,957.99 495.612,957.99 "/>
<path clip-path="url(#clip310)" d="M509.948 940.71 L514.624 940.71 L514.624 971.335 L531.453 971.335 L531.453 975.27 L509.948 975.27 L509.948 940.71 Z" fill="#000000" fill-rule="nonzero" fill-opacity="1" /><path clip-path="url(#clip310)" d="M536.36 940.71 L556.221 940.71 L556.221 944.645 L541.036 944.645 L541.036 954.83 L554.739 954.83 L554.739 958.765 L541.036 958.765 L541.036 975.27 L536.36 975.27 L536.36 940.71 Z" fill="#000000" fill-rule="nonzero" fill-opacity="1" /><path clip-path="url(#clip310)" d="M588.744 939.298 Q585.642 944.622 584.137 949.83 Q582.633 955.039 582.633 960.386 Q582.633 965.733 584.137 970.988 Q585.665 976.219 588.744 981.52 L585.04 981.52 Q581.568 976.08 579.832 970.825 Q578.119 965.571 578.119 960.386 Q578.119 955.224 579.832 949.992 Q581.545 944.761 585.04 939.298 L588.744 939.298 Z" fill="#000000" fill-rule="nonzero" fill-opacity="1" /><path clip-path="url(#clip310)" d="M618.559 959.622 L618.559 975.27 L614.299 975.27 L614.299 959.761 Q614.299 956.08 612.864 954.252 Q611.429 952.423 608.559 952.423 Q605.11 952.423 603.119 954.622 Q601.128 956.821 601.128 960.617 L601.128 975.27 L596.846 975.27 L596.846 949.344 L601.128 949.344 L601.128 953.372 Q602.656 951.034 604.716 949.877 Q606.799 948.719 609.508 948.719 Q613.975 948.719 616.267 951.497 Q618.559 954.252 618.559 959.622 Z" fill="#000000" fill-rule="nonzero" fill-opacity="1" /><path clip-path="url(#clip310)" d="M627.609 953.742 L657.285 953.742 L657.285 957.631 L627.609 957.631 L627.609 953.742 M627.609 963.187 L657.285 963.187 L657.285 967.122 L627.609 967.122 L627.609 963.187 Z" fill="#000000" fill-rule="nonzero" fill-opacity="1" /><path clip-path="url(#clip310)" d="M667.424 940.71 L685.78 940.71 L685.78 944.645 L671.706 944.645 L671.706 953.117 Q672.725 952.77 673.743 952.608 Q674.762 952.423 675.78 952.423 Q681.567 952.423 684.947 955.594 Q688.327 958.765 688.327 964.182 Q688.327 969.761 684.854 972.863 Q681.382 975.941 675.063 975.941 Q672.887 975.941 670.618 975.571 Q668.373 975.2 665.966 974.46 L665.966 969.761 Q668.049 970.895 670.271 971.45 Q672.493 972.006 674.97 972.006 Q678.975 972.006 681.313 969.9 Q683.651 967.793 683.651 964.182 Q683.651 960.571 681.313 958.464 Q678.975 956.358 674.97 956.358 Q673.095 956.358 671.22 956.775 Q669.368 957.191 667.424 958.071 L667.424 940.71 Z" fill="#000000" fill-rule="nonzero" fill-opacity="1" /><path clip-path="url(#clip310)" d="M710.387 944.784 L698.581 963.233 L710.387 963.233 L710.387 944.784 M709.16 940.71 L715.04 940.71 L715.04 963.233 L719.97 963.233 L719.97 967.122 L715.04 967.122 L715.04 975.27 L710.387 975.27 L710.387 967.122 L694.785 967.122 L694.785 962.608 L709.16 940.71 Z" fill="#000000" fill-rule="nonzero" fill-opacity="1" /><path clip-path="url(#clip310)" d="M726.428 939.298 L730.132 939.298 Q733.604 944.761 735.317 949.992 Q737.053 955.224 737.053 960.386 Q737.053 965.571 735.317 970.825 Q733.604 976.08 730.132 981.52 L726.428 981.52 Q729.507 976.219 731.012 970.988 Q732.539 965.733 732.539 960.386 Q732.539 955.039 731.012 949.83 Q729.507 944.622 726.428 939.298 Z" fill="#000000" fill-rule="nonzero" fill-opacity="1" /></svg>
