<?xml version="1.0" encoding="utf-8"?>
<svg xmlns="http://www.w3.org/2000/svg" xmlns:xlink="http://www.w3.org/1999/xlink" width="900" height="220" viewBox="0 0 3600 880">
<defs>
  <clipPath id="clip130">
    <rect x="0" y="0" width="3600" height="880"/>
  </clipPath>
</defs>
<path clip-path="url(#clip130)" d="M0 880 L3600 880 L3600 0 L0 0  Z" fill="#ffffff" fill-rule="evenodd" fill-opacity="1"/>
<defs>
  <clipPath id="clip131">
    <rect x="720" y="0" width="2521" height="880"/>
  </clipPath>
</defs>
<path clip-path="url(#clip130)" d="M278.834 685.3 L1042.52 685.3 L1042.52 157.48 L278.834 157.48  Z" fill="#ffffff" fill-rule="evenodd" fill-opacity="1"/>
<defs>
  <clipPath id="clip132">
    <rect x="278" y="157" width="765" height="529"/>
  </clipPath>
</defs>
<polyline clip-path="url(#clip132)" style="stroke:#000000; stroke-linecap:round; stroke-linejoin:round; stroke-width:2; stroke-opacity:0.1; fill:none" points="278.834,685.3 278.834,157.48 "/>
<polyline clip-path="url(#clip132)" style="stroke:#000000; stroke-linecap:round; stroke-linejoin:round; stroke-width:2; stroke-opacity:0.1; fill:none" points="431.572,685.3 431.572,157.48 "/>
<polyline clip-path="url(#clip132)" style="stroke:#000000; stroke-linecap:round; stroke-linejoin:round; stroke-width:2; stroke-opacity:0.1; fill:none" points="584.309,685.3 584.309,157.48 "/>
<polyline clip-path="url(#clip132)" style="stroke:#000000; stroke-linecap:round; stroke-linejoin:round; stroke-width:2; stroke-opacity:0.1; fill:none" points="737.046,685.3 737.046,157.48 "/>
<polyline clip-path="url(#clip132)" style="stroke:#000000; stroke-linecap:round; stroke-linejoin:round; stroke-width:2; stroke-opacity:0.1; fill:none" points="889.783,685.3 889.783,157.48 "/>
<polyline clip-path="url(#clip132)" style="stroke:#000000; stroke-linecap:round; stroke-linejoin:round; stroke-width:2; stroke-opacity:0.1; fill:none" points="1042.52,685.3 1042.52,157.48 "/>
<polyline clip-path="url(#clip132)" style="stroke:#000000; stroke-linecap:round; stroke-linejoin:round; stroke-width:2; stroke-opacity:0.1; fill:none" points="278.834,685.3 1042.52,685.3 "/>
<polyline clip-path="url(#clip132)" style="stroke:#000000; stroke-linecap:round; stroke-linejoin:round; stroke-width:2; stroke-opacity:0.1; fill:none" points="278.834,579.736 1042.52,579.736 "/>
<polyline clip-path="url(#clip132)" style="stroke:#000000; stroke-linecap:round; stroke-linejoin:round; stroke-width:2; stroke-opacity:0.1; fill:none" points="278.834,474.172 1042.52,474.172 "/>
<polyline clip-path="url(#clip132)" style="stroke:#000000; stroke-linecap:round; stroke-linejoin:round; stroke-width:2; stroke-opacity:0.1; fill:none" points="278.834,368.608 1042.52,368.608 "/>
<polyline clip-path="url(#clip132)" style="stroke:#000000; stroke-linecap:round; stroke-linejoin:round; stroke-width:2; stroke-opacity:0.1; fill:none" points="278.834,263.044 1042.52,263.044 "/>
<polyline clip-path="url(#clip132)" style="stroke:#000000; stroke-linecap:round; stroke-linejoin:round; stroke-width:2; stroke-opacity:0.1; fill:none" points="278.834,157.48 1042.52,157.48 "/>
<polyline clip-path="url(#clip130)" style="stroke:#000000; stroke-linecap:round; stroke-linejoin:round; stroke-width:4; stroke-opacity:1; fill:none" points="278.834,685.3 1042.52,685.3 "/>
<polyline clip-path="url(#clip130)" style="stroke:#000000; stroke-linecap:round; stroke-linejoin:round; stroke-width:4; stroke-opacity:1; fill:none" points="278.834,685.3 278.834,666.402 "/>
<polyline clip-path="url(#clip130)" style="stroke:#000000; stroke-linecap:round; stroke-linejoin:round; stroke-width:4; stroke-opacity:1; fill:none" points="431.572,685.3 431.572,666.402 "/>
<polyline clip-path="url(#clip130)" style="stroke:#000000; stroke-linecap:round; stroke-linejoin:round; stroke-width:4; stroke-opacity:1; fill:none" points="584.309,685.3 584.309,666.402 "/>
<polyline clip-path="url(#clip130)" style="stroke:#000000; stroke-linecap:round; stroke-linejoin:round; stroke-width:4; stroke-opacity:1; fill:none" points="737.046,685.3 737.046,666.402 "/>
<polyline clip-path="url(#clip130)" style="stroke:#000000; stroke-linecap:round; stroke-linejoin:round; stroke-width:4; stroke-opacity:1; fill:none" points="889.783,685.3 889.783,666.402 "/>
<polyline clip-path="url(#clip130)" style="stroke:#000000; stroke-linecap:round; stroke-linejoin:round; stroke-width:4; stroke-opacity:1; fill:none" points="1042.52,685.3 1042.52,666.402 "/>
<path clip-path="url(#clip130)" d="M256.219 725.818 Q252.608 725.818 250.779 729.383 Q248.974 732.925 248.974 740.054 Q248.974 747.161 250.779 750.726 Q252.608 754.267 256.219 754.267 Q259.853 754.267 261.659 750.726 Q263.487 747.161 263.487 740.054 Q263.487 732.925 261.659 729.383 Q259.853 725.818 256.219 725.818 M256.219 722.115 Q262.029 722.115 265.085 726.721 Q268.163 731.304 268.163 740.054 Q268.163 748.781 265.085 753.388 Q262.029 757.971 256.219 757.971 Q250.409 757.971 247.33 753.388 Q244.274 748.781 244.274 740.054 Q244.274 731.304 247.33 726.721 Q250.409 722.115 256.219 722.115 Z" fill="#000000" fill-rule="nonzero" fill-opacity="1" /><path clip-path="url(#clip130)" d="M276.381 751.42 L281.265 751.42 L281.265 757.3 L276.381 757.3 L276.381 751.42 Z" fill="#000000" fill-rule="nonzero" fill-opacity="1" /><path clip-path="url(#clip130)" d="M301.45 725.818 Q297.839 725.818 296.01 729.383 Q294.205 732.925 294.205 740.054 Q294.205 747.161 296.01 750.726 Q297.839 754.267 301.45 754.267 Q305.084 754.267 306.89 750.726 Q308.719 747.161 308.719 740.054 Q308.719 732.925 306.89 729.383 Q305.084 725.818 301.45 725.818 M301.45 722.115 Q307.26 722.115 310.316 726.721 Q313.394 731.304 313.394 740.054 Q313.394 748.781 310.316 753.388 Q307.26 757.971 301.45 757.971 Q295.64 757.971 292.561 753.388 Q289.506 748.781 289.506 740.054 Q289.506 731.304 292.561 726.721 Q295.64 722.115 301.45 722.115 Z" fill="#000000" fill-rule="nonzero" fill-opacity="1" /><path clip-path="url(#clip130)" d="M409.754 725.818 Q406.143 725.818 404.315 729.383 Q402.509 732.925 402.509 740.054 Q402.509 747.161 404.315 750.726 Q406.143 754.267 409.754 754.267 Q413.389 754.267 415.194 750.726 Q417.023 747.161 417.023 740.054 Q417.023 732.925 415.194 729.383 Q413.389 725.818 409.754 725.818 M409.754 722.115 Q415.565 722.115 418.62 726.721 Q421.699 731.304 421.699 740.054 Q421.699 748.781 418.62 753.388 Q415.565 757.971 409.754 757.971 Q403.944 757.971 400.866 753.388 Q397.81 748.781 397.81 740.054 Q397.81 731.304 400.866 726.721 Q403.944 722.115 409.754 722.115 Z" fill="#000000" fill-rule="nonzero" fill-opacity="1" /><path clip-path="url(#clip130)" d="M429.916 751.42 L434.801 751.42 L434.801 757.3 L429.916 757.3 L429.916 751.42 Z" fill="#000000" fill-rule="nonzero" fill-opacity="1" /><path clip-path="url(#clip130)" d="M449.014 753.364 L465.333 753.364 L465.333 757.3 L443.389 757.3 L443.389 753.364 Q446.051 750.61 450.634 745.98 Q455.24 741.328 456.421 739.985 Q458.666 737.462 459.546 735.726 Q460.449 733.966 460.449 732.277 Q460.449 729.522 458.504 727.786 Q456.583 726.05 453.481 726.05 Q451.282 726.05 448.828 726.814 Q446.398 727.578 443.62 729.129 L443.62 724.406 Q446.444 723.272 448.898 722.693 Q451.351 722.115 453.389 722.115 Q458.759 722.115 461.953 724.8 Q465.148 727.485 465.148 731.976 Q465.148 734.105 464.338 736.027 Q463.55 737.925 461.444 740.517 Q460.865 741.189 457.763 744.406 Q454.662 747.601 449.014 753.364 Z" fill="#000000" fill-rule="nonzero" fill-opacity="1" /><path clip-path="url(#clip130)" d="M561.45 725.818 Q557.839 725.818 556.01 729.383 Q554.205 732.925 554.205 740.054 Q554.205 747.161 556.01 750.726 Q557.839 754.267 561.45 754.267 Q565.084 754.267 566.89 750.726 Q568.718 747.161 568.718 740.054 Q568.718 732.925 566.89 729.383 Q565.084 725.818 561.45 725.818 M561.45 722.115 Q567.26 722.115 570.316 726.721 Q573.394 731.304 573.394 740.054 Q573.394 748.781 570.316 753.388 Q567.26 757.971 561.45 757.971 Q555.64 757.971 552.561 753.388 Q549.505 748.781 549.505 740.054 Q549.505 731.304 552.561 726.721 Q555.64 722.115 561.45 722.115 Z" fill="#000000" fill-rule="nonzero" fill-opacity="1" /><path clip-path="url(#clip130)" d="M581.612 751.42 L586.496 751.42 L586.496 757.3 L581.612 757.3 L581.612 751.42 Z" fill="#000000" fill-rule="nonzero" fill-opacity="1" /><path clip-path="url(#clip130)" d="M609.528 726.814 L597.723 745.263 L609.528 745.263 L609.528 726.814 M608.301 722.74 L614.181 722.74 L614.181 745.263 L619.112 745.263 L619.112 749.152 L614.181 749.152 L614.181 757.3 L609.528 757.3 L609.528 749.152 L593.927 749.152 L593.927 744.638 L608.301 722.74 Z" fill="#000000" fill-rule="nonzero" fill-opacity="1" /><path clip-path="url(#clip130)" d="M714.349 725.818 Q710.738 725.818 708.909 729.383 Q707.104 732.925 707.104 740.054 Q707.104 747.161 708.909 750.726 Q710.738 754.267 714.349 754.267 Q717.983 754.267 719.789 750.726 Q721.617 747.161 721.617 740.054 Q721.617 732.925 719.789 729.383 Q717.983 725.818 714.349 725.818 M714.349 722.115 Q720.159 722.115 723.215 726.721 Q726.293 731.304 726.293 740.054 Q726.293 748.781 723.215 753.388 Q720.159 757.971 714.349 757.971 Q708.539 757.971 705.46 753.388 Q702.405 748.781 702.405 740.054 Q702.405 731.304 705.46 726.721 Q708.539 722.115 714.349 722.115 Z" fill="#000000" fill-rule="nonzero" fill-opacity="1" /><path clip-path="url(#clip130)" d="M734.511 751.42 L739.395 751.42 L739.395 757.3 L734.511 757.3 L734.511 751.42 Z" fill="#000000" fill-rule="nonzero" fill-opacity="1" /><path clip-path="url(#clip130)" d="M760.159 738.156 Q757.011 738.156 755.159 740.309 Q753.33 742.462 753.33 746.212 Q753.33 749.939 755.159 752.114 Q757.011 754.267 760.159 754.267 Q763.307 754.267 765.136 752.114 Q766.988 749.939 766.988 746.212 Q766.988 742.462 765.136 740.309 Q763.307 738.156 760.159 738.156 M769.441 723.504 L769.441 727.763 Q767.682 726.929 765.876 726.49 Q764.094 726.05 762.335 726.05 Q757.705 726.05 755.252 729.175 Q752.821 732.3 752.474 738.619 Q753.839 736.605 755.9 735.541 Q757.96 734.453 760.437 734.453 Q765.645 734.453 768.654 737.624 Q771.687 740.772 771.687 746.212 Q771.687 751.536 768.538 754.753 Q765.39 757.971 760.159 757.971 Q754.164 757.971 750.992 753.388 Q747.821 748.781 747.821 740.054 Q747.821 731.86 751.71 726.999 Q755.599 722.115 762.15 722.115 Q763.909 722.115 765.691 722.462 Q767.497 722.809 769.441 723.504 Z" fill="#000000" fill-rule="nonzero" fill-opacity="1" /><path clip-path="url(#clip130)" d="M867.213 725.818 Q863.602 725.818 861.774 729.383 Q859.968 732.925 859.968 740.054 Q859.968 747.161 861.774 750.726 Q863.602 754.267 867.213 754.267 Q870.848 754.267 872.653 750.726 Q874.482 747.161 874.482 740.054 Q874.482 732.925 872.653 729.383 Q870.848 725.818 867.213 725.818 M867.213 722.115 Q873.023 722.115 876.079 726.721 Q879.158 731.304 879.158 740.054 Q879.158 748.781 876.079 753.388 Q873.023 757.971 867.213 757.971 Q861.403 757.971 858.324 753.388 Q855.269 748.781 855.269 740.054 Q855.269 731.304 858.324 726.721 Q861.403 722.115 867.213 722.115 Z" fill="#000000" fill-rule="nonzero" fill-opacity="1" /><path clip-path="url(#clip130)" d="M887.375 751.42 L892.259 751.42 L892.259 757.3 L887.375 757.3 L887.375 751.42 Z" fill="#000000" fill-rule="nonzero" fill-opacity="1" /><path clip-path="url(#clip130)" d="M912.445 740.888 Q909.111 740.888 907.19 742.67 Q905.292 744.453 905.292 747.577 Q905.292 750.702 907.19 752.485 Q909.111 754.267 912.445 754.267 Q915.778 754.267 917.699 752.485 Q919.62 750.679 919.62 747.577 Q919.62 744.453 917.699 742.67 Q915.801 740.888 912.445 740.888 M907.769 738.897 Q904.759 738.156 903.07 736.096 Q901.403 734.036 901.403 731.073 Q901.403 726.929 904.343 724.522 Q907.306 722.115 912.445 722.115 Q917.607 722.115 920.546 724.522 Q923.486 726.929 923.486 731.073 Q923.486 734.036 921.796 736.096 Q920.13 738.156 917.144 738.897 Q920.523 739.684 922.398 741.976 Q924.296 744.267 924.296 747.577 Q924.296 752.601 921.218 755.286 Q918.162 757.971 912.445 757.971 Q906.727 757.971 903.648 755.286 Q900.593 752.601 900.593 747.577 Q900.593 744.267 902.491 741.976 Q904.389 739.684 907.769 738.897 M906.056 731.513 Q906.056 734.198 907.722 735.703 Q909.412 737.207 912.445 737.207 Q915.454 737.207 917.144 735.703 Q918.857 734.198 918.857 731.513 Q918.857 728.828 917.144 727.323 Q915.454 725.818 912.445 725.818 Q909.412 725.818 907.722 727.323 Q906.056 728.828 906.056 731.513 Z" fill="#000000" fill-rule="nonzero" fill-opacity="1" /><path clip-path="url(#clip130)" d="M1009.67 753.364 L1017.31 753.364 L1017.31 726.999 L1009 728.666 L1009 724.406 L1017.27 722.74 L1021.94 722.74 L1021.94 753.364 L1029.58 753.364 L1029.58 757.3 L1009.67 757.3 L1009.67 753.364 Z" fill="#000000" fill-rule="nonzero" fill-opacity="1" /><path clip-path="url(#clip130)" d="M1039.02 751.42 L1043.91 751.42 L1043.91 757.3 L1039.02 757.3 L1039.02 751.42 Z" fill="#000000" fill-rule="nonzero" fill-opacity="1" /><path clip-path="url(#clip130)" d="M1064.09 725.818 Q1060.48 725.818 1058.65 729.383 Q1056.85 732.925 1056.85 740.054 Q1056.85 747.161 1058.65 750.726 Q1060.48 754.267 1064.09 754.267 Q1067.73 754.267 1069.53 750.726 Q1071.36 747.161 1071.36 740.054 Q1071.36 732.925 1069.53 729.383 Q1067.73 725.818 1064.09 725.818 M1064.09 722.115 Q1069.9 722.115 1072.96 726.721 Q1076.04 731.304 1076.04 740.054 Q1076.04 748.781 1072.96 753.388 Q1069.9 757.971 1064.09 757.971 Q1058.28 757.971 1055.2 753.388 Q1052.15 748.781 1052.15 740.054 Q1052.15 731.304 1055.2 726.721 Q1058.28 722.115 1064.09 722.115 Z" fill="#000000" fill-rule="nonzero" fill-opacity="1" /><polyline clip-path="url(#clip130)" style="stroke:#000000; stroke-linecap:round; stroke-linejoin:round; stroke-width:4; stroke-opacity:1; fill:none" points="278.834,685.3 278.834,157.48 "/>
<polyline clip-path="url(#clip130)" style="stroke:#000000; stroke-linecap:round; stroke-linejoin:round; stroke-width:4; stroke-opacity:1; fill:none" points="278.834,685.3 297.732,685.3 "/>
<polyline clip-path="url(#clip130)" style="stroke:#000000; stroke-linecap:round; stroke-linejoin:round; stroke-width:4; stroke-opacity:1; fill:none" points="278.834,579.736 297.732,579.736 "/>
<polyline clip-path="url(#clip130)" style="stroke:#000000; stroke-linecap:round; stroke-linejoin:round; stroke-width:4; stroke-opacity:1; fill:none" points="278.834,474.172 297.732,474.172 "/>
<polyline clip-path="url(#clip130)" style="stroke:#000000; stroke-linecap:round; stroke-linejoin:round; stroke-width:4; stroke-opacity:1; fill:none" points="278.834,368.608 297.732,368.608 "/>
<polyline clip-path="url(#clip130)" style="stroke:#000000; stroke-linecap:round; stroke-linejoin:round; stroke-width:4; stroke-opacity:1; fill:none" points="278.834,263.044 297.732,263.044 "/>
<polyline clip-path="url(#clip130)" style="stroke:#000000; stroke-linecap:round; stroke-linejoin:round; stroke-width:4; stroke-opacity:1; fill:none" points="278.834,157.48 297.732,157.48 "/>
<path clip-path="url(#clip130)" d="M167.659 671.098 Q164.048 671.098 162.219 674.663 Q160.414 678.205 160.414 685.334 Q160.414 692.441 162.219 696.006 Q164.048 699.547 167.659 699.547 Q171.293 699.547 173.099 696.006 Q174.927 692.441 174.927 685.334 Q174.927 678.205 173.099 674.663 Q171.293 671.098 167.659 671.098 M167.659 667.395 Q173.469 667.395 176.525 672.001 Q179.603 676.584 179.603 685.334 Q179.603 694.061 176.525 698.668 Q173.469 703.251 167.659 703.251 Q161.849 703.251 158.77 698.668 Q155.714 694.061 155.714 685.334 Q155.714 676.584 158.77 672.001 Q161.849 667.395 167.659 667.395 Z" fill="#000000" fill-rule="nonzero" fill-opacity="1" /><path clip-path="url(#clip130)" d="M187.821 696.7 L192.705 696.7 L192.705 702.58 L187.821 702.58 L187.821 696.7 Z" fill="#000000" fill-rule="nonzero" fill-opacity="1" /><path clip-path="url(#clip130)" d="M212.89 671.098 Q209.279 671.098 207.45 674.663 Q205.645 678.205 205.645 685.334 Q205.645 692.441 207.45 696.006 Q209.279 699.547 212.89 699.547 Q216.524 699.547 218.33 696.006 Q220.159 692.441 220.159 685.334 Q220.159 678.205 218.33 674.663 Q216.524 671.098 212.89 671.098 M212.89 667.395 Q218.7 667.395 221.756 672.001 Q224.834 676.584 224.834 685.334 Q224.834 694.061 221.756 698.668 Q218.7 703.251 212.89 703.251 Q207.08 703.251 204.001 698.668 Q200.946 694.061 200.946 685.334 Q200.946 676.584 204.001 672.001 Q207.08 667.395 212.89 667.395 Z" fill="#000000" fill-rule="nonzero" fill-opacity="1" /><path clip-path="url(#clip130)" d="M169.256 565.534 Q165.645 565.534 163.816 569.099 Q162.011 572.641 162.011 579.771 Q162.011 586.877 163.816 590.442 Q165.645 593.983 169.256 593.983 Q172.89 593.983 174.696 590.442 Q176.525 586.877 176.525 579.771 Q176.525 572.641 174.696 569.099 Q172.89 565.534 169.256 565.534 M169.256 561.831 Q175.066 561.831 178.122 566.437 Q181.2 571.021 181.2 579.771 Q181.2 588.497 178.122 593.104 Q175.066 597.687 169.256 597.687 Q163.446 597.687 160.367 593.104 Q157.312 588.497 157.312 579.771 Q157.312 571.021 160.367 566.437 Q163.446 561.831 169.256 561.831 Z" fill="#000000" fill-rule="nonzero" fill-opacity="1" /><path clip-path="url(#clip130)" d="M189.418 591.136 L194.302 591.136 L194.302 597.016 L189.418 597.016 L189.418 591.136 Z" fill="#000000" fill-rule="nonzero" fill-opacity="1" /><path clip-path="url(#clip130)" d="M208.515 593.081 L224.834 593.081 L224.834 597.016 L202.89 597.016 L202.89 593.081 Q205.552 590.326 210.135 585.696 Q214.742 581.044 215.922 579.701 Q218.168 577.178 219.047 575.442 Q219.95 573.683 219.95 571.993 Q219.95 569.238 218.006 567.502 Q216.085 565.766 212.983 565.766 Q210.784 565.766 208.33 566.53 Q205.899 567.294 203.122 568.845 L203.122 564.122 Q205.946 562.988 208.399 562.409 Q210.853 561.831 212.89 561.831 Q218.26 561.831 221.455 564.516 Q224.649 567.201 224.649 571.692 Q224.649 573.821 223.839 575.743 Q223.052 577.641 220.946 580.233 Q220.367 580.905 217.265 584.122 Q214.163 587.317 208.515 593.081 Z" fill="#000000" fill-rule="nonzero" fill-opacity="1" /><path clip-path="url(#clip130)" d="M167.173 459.971 Q163.562 459.971 161.733 463.535 Q159.927 467.077 159.927 474.207 Q159.927 481.313 161.733 484.878 Q163.562 488.42 167.173 488.42 Q170.807 488.42 172.613 484.878 Q174.441 481.313 174.441 474.207 Q174.441 467.077 172.613 463.535 Q170.807 459.971 167.173 459.971 M167.173 456.267 Q172.983 456.267 176.038 460.873 Q179.117 465.457 179.117 474.207 Q179.117 482.933 176.038 487.54 Q172.983 492.123 167.173 492.123 Q161.363 492.123 158.284 487.54 Q155.228 482.933 155.228 474.207 Q155.228 465.457 158.284 460.873 Q161.363 456.267 167.173 456.267 Z" fill="#000000" fill-rule="nonzero" fill-opacity="1" /><path clip-path="url(#clip130)" d="M187.335 485.572 L192.219 485.572 L192.219 491.452 L187.335 491.452 L187.335 485.572 Z" fill="#000000" fill-rule="nonzero" fill-opacity="1" /><path clip-path="url(#clip130)" d="M215.251 460.966 L203.446 479.415 L215.251 479.415 L215.251 460.966 M214.024 456.892 L219.904 456.892 L219.904 479.415 L224.834 479.415 L224.834 483.304 L219.904 483.304 L219.904 491.452 L215.251 491.452 L215.251 483.304 L199.649 483.304 L199.649 478.79 L214.024 456.892 Z" fill="#000000" fill-rule="nonzero" fill-opacity="1" /><path clip-path="url(#clip130)" d="M167.497 354.407 Q163.886 354.407 162.057 357.972 Q160.251 361.513 160.251 368.643 Q160.251 375.749 162.057 379.314 Q163.886 382.856 167.497 382.856 Q171.131 382.856 172.937 379.314 Q174.765 375.749 174.765 368.643 Q174.765 361.513 172.937 357.972 Q171.131 354.407 167.497 354.407 M167.497 350.703 Q173.307 350.703 176.362 355.31 Q179.441 359.893 179.441 368.643 Q179.441 377.37 176.362 381.976 Q173.307 386.559 167.497 386.559 Q161.687 386.559 158.608 381.976 Q155.552 377.37 155.552 368.643 Q155.552 359.893 158.608 355.31 Q161.687 350.703 167.497 350.703 Z" fill="#000000" fill-rule="nonzero" fill-opacity="1" /><path clip-path="url(#clip130)" d="M187.659 380.008 L192.543 380.008 L192.543 385.888 L187.659 385.888 L187.659 380.008 Z" fill="#000000" fill-rule="nonzero" fill-opacity="1" /><path clip-path="url(#clip130)" d="M213.307 366.745 Q210.159 366.745 208.307 368.897 Q206.478 371.05 206.478 374.8 Q206.478 378.527 208.307 380.703 Q210.159 382.856 213.307 382.856 Q216.455 382.856 218.284 380.703 Q220.135 378.527 220.135 374.8 Q220.135 371.05 218.284 368.897 Q216.455 366.745 213.307 366.745 M222.589 352.092 L222.589 356.351 Q220.83 355.518 219.024 355.078 Q217.242 354.638 215.483 354.638 Q210.853 354.638 208.399 357.763 Q205.969 360.888 205.622 367.208 Q206.987 365.194 209.048 364.129 Q211.108 363.041 213.585 363.041 Q218.793 363.041 221.802 366.212 Q224.834 369.36 224.834 374.8 Q224.834 380.124 221.686 383.342 Q218.538 386.559 213.307 386.559 Q207.311 386.559 204.14 381.976 Q200.969 377.37 200.969 368.643 Q200.969 360.448 204.858 355.587 Q208.747 350.703 215.297 350.703 Q217.057 350.703 218.839 351.05 Q220.645 351.397 222.589 352.092 Z" fill="#000000" fill-rule="nonzero" fill-opacity="1" /><path clip-path="url(#clip130)" d="M167.751 248.843 Q164.14 248.843 162.312 252.408 Q160.506 255.949 160.506 263.079 Q160.506 270.185 162.312 273.75 Q164.14 277.292 167.751 277.292 Q171.386 277.292 173.191 273.75 Q175.02 270.185 175.02 263.079 Q175.02 255.949 173.191 252.408 Q171.386 248.843 167.751 248.843 M167.751 245.139 Q173.562 245.139 176.617 249.746 Q179.696 254.329 179.696 263.079 Q179.696 271.806 176.617 276.412 Q173.562 280.995 167.751 280.995 Q161.941 280.995 158.863 276.412 Q155.807 271.806 155.807 263.079 Q155.807 254.329 158.863 249.746 Q161.941 245.139 167.751 245.139 Z" fill="#000000" fill-rule="nonzero" fill-opacity="1" /><path clip-path="url(#clip130)" d="M187.913 274.445 L192.798 274.445 L192.798 280.324 L187.913 280.324 L187.913 274.445 Z" fill="#000000" fill-rule="nonzero" fill-opacity="1" /><path clip-path="url(#clip130)" d="M212.983 263.912 Q209.649 263.912 207.728 265.695 Q205.83 267.477 205.83 270.602 Q205.83 273.727 207.728 275.509 Q209.649 277.292 212.983 277.292 Q216.316 277.292 218.237 275.509 Q220.159 273.704 220.159 270.602 Q220.159 267.477 218.237 265.695 Q216.339 263.912 212.983 263.912 M208.307 261.922 Q205.298 261.181 203.608 259.121 Q201.941 257.06 201.941 254.097 Q201.941 249.954 204.881 247.547 Q207.844 245.139 212.983 245.139 Q218.145 245.139 221.084 247.547 Q224.024 249.954 224.024 254.097 Q224.024 257.06 222.334 259.121 Q220.668 261.181 217.682 261.922 Q221.061 262.709 222.936 265 Q224.834 267.292 224.834 270.602 Q224.834 275.625 221.756 278.31 Q218.7 280.995 212.983 280.995 Q207.265 280.995 204.186 278.31 Q201.131 275.625 201.131 270.602 Q201.131 267.292 203.029 265 Q204.927 262.709 208.307 261.922 M206.594 254.537 Q206.594 257.222 208.26 258.727 Q209.95 260.232 212.983 260.232 Q215.992 260.232 217.682 258.727 Q219.395 257.222 219.395 254.537 Q219.395 251.852 217.682 250.347 Q215.992 248.843 212.983 248.843 Q209.95 248.843 208.26 250.347 Q206.594 251.852 206.594 254.537 Z" fill="#000000" fill-rule="nonzero" fill-opacity="1" /><path clip-path="url(#clip130)" d="M158.469 170.825 L166.108 170.825 L166.108 144.46 L157.798 146.126 L157.798 141.867 L166.062 140.2 L170.738 140.2 L170.738 170.825 L178.376 170.825 L178.376 174.76 L158.469 174.76 L158.469 170.825 Z" fill="#000000" fill-rule="nonzero" fill-opacity="1" /><path clip-path="url(#clip130)" d="M187.821 168.881 L192.705 168.881 L192.705 174.76 L187.821 174.76 L187.821 168.881 Z" fill="#000000" fill-rule="nonzero" fill-opacity="1" /><path clip-path="url(#clip130)" d="M212.89 143.279 Q209.279 143.279 207.45 146.844 Q205.645 150.385 205.645 157.515 Q205.645 164.621 207.45 168.186 Q209.279 171.728 212.89 171.728 Q216.524 171.728 218.33 168.186 Q220.159 164.621 220.159 157.515 Q220.159 150.385 218.33 146.844 Q216.524 143.279 212.89 143.279 M212.89 139.575 Q218.7 139.575 221.756 144.182 Q224.834 148.765 224.834 157.515 Q224.834 166.242 221.756 170.848 Q218.7 175.432 212.89 175.432 Q207.08 175.432 204.001 170.848 Q200.946 166.242 200.946 157.515 Q200.946 148.765 204.001 144.182 Q207.08 139.575 212.89 139.575 Z" fill="#000000" fill-rule="nonzero" fill-opacity="1" /><path clip-path="url(#clip130)" d="M1478.83 685.3 L2242.52 685.3 L2242.52 157.48 L1478.83 157.48  Z" fill="#ffffff" fill-rule="evenodd" fill-opacity="1"/>
<defs>
  <clipPath id="clip133">
    <rect x="1478" y="157" width="765" height="529"/>
  </clipPath>
</defs>
<polyline clip-path="url(#clip133)" style="stroke:#000000; stroke-linecap:round; stroke-linejoin:round; stroke-width:2; stroke-opacity:0.1; fill:none" points="1478.83,685.3 1478.83,157.48 "/>
<polyline clip-path="url(#clip133)" style="stroke:#000000; stroke-linecap:round; stroke-linejoin:round; stroke-width:2; stroke-opacity:0.1; fill:none" points="1631.57,685.3 1631.57,157.48 "/>
<polyline clip-path="url(#clip133)" style="stroke:#000000; stroke-linecap:round; stroke-linejoin:round; stroke-width:2; stroke-opacity:0.1; fill:none" points="1784.31,685.3 1784.31,157.48 "/>
<polyline clip-path="url(#clip133)" style="stroke:#000000; stroke-linecap:round; stroke-linejoin:round; stroke-width:2; stroke-opacity:0.1; fill:none" points="1937.05,685.3 1937.05,157.48 "/>
<polyline clip-path="url(#clip133)" style="stroke:#000000; stroke-linecap:round; stroke-linejoin:round; stroke-width:2; stroke-opacity:0.1; fill:none" points="2089.78,685.3 2089.78,157.48 "/>
<polyline clip-path="url(#clip133)" style="stroke:#000000; stroke-linecap:round; stroke-linejoin:round; stroke-width:2; stroke-opacity:0.1; fill:none" points="2242.52,685.3 2242.52,157.48 "/>
<polyline clip-path="url(#clip133)" style="stroke:#000000; stroke-linecap:round; stroke-linejoin:round; stroke-width:2; stroke-opacity:0.1; fill:none" points="1478.83,685.3 2242.52,685.3 "/>
<polyline clip-path="url(#clip133)" style="stroke:#000000; stroke-linecap:round; stroke-linejoin:round; stroke-width:2; stroke-opacity:0.1; fill:none" points="1478.83,579.736 2242.52,579.736 "/>
<polyline clip-path="url(#clip133)" style="stroke:#000000; stroke-linecap:round; stroke-linejoin:round; stroke-width:2; stroke-opacity:0.1; fill:none" points="1478.83,474.172 2242.52,474.172 "/>
<polyline clip-path="url(#clip133)" style="stroke:#000000; stroke-linecap:round; stroke-linejoin:round; stroke-width:2; stroke-opacity:0.1; fill:none" points="1478.83,368.608 2242.52,368.608 "/>
<polyline clip-path="url(#clip133)" style="stroke:#000000; stroke-linecap:round; stroke-linejoin:round; stroke-width:2; stroke-opacity:0.1; fill:none" points="1478.83,263.044 2242.52,263.044 "/>
<polyline clip-path="url(#clip133)" style="stroke:#000000; stroke-linecap:round; stroke-linejoin:round; stroke-width:2; stroke-opacity:0.1; fill:none" points="1478.83,157.48 2242.52,157.48 "/>
<polyline clip-path="url(#clip130)" style="stroke:#000000; stroke-linecap:round; stroke-linejoin:round; stroke-width:4; stroke-opacity:1; fill:none" points="1478.83,685.3 2242.52,685.3 "/>
<polyline clip-path="url(#clip130)" style="stroke:#000000; stroke-linecap:round; stroke-linejoin:round; stroke-width:4; stroke-opacity:1; fill:none" points="1478.83,685.3 1478.83,666.402 "/>
<polyline clip-path="url(#clip130)" style="stroke:#000000; stroke-linecap:round; stroke-linejoin:round; stroke-width:4; stroke-opacity:1; fill:none" points="1631.57,685.3 1631.57,666.402 "/>
<polyline clip-path="url(#clip130)" style="stroke:#000000; stroke-linecap:round; stroke-linejoin:round; stroke-width:4; stroke-opacity:1; fill:none" points="1784.31,685.3 1784.31,666.402 "/>
<polyline clip-path="url(#clip130)" style="stroke:#000000; stroke-linecap:round; stroke-linejoin:round; stroke-width:4; stroke-opacity:1; fill:none" points="1937.05,685.3 1937.05,666.402 "/>
<polyline clip-path="url(#clip130)" style="stroke:#000000; stroke-linecap:round; stroke-linejoin:round; stroke-width:4; stroke-opacity:1; fill:none" points="2089.78,685.3 2089.78,666.402 "/>
<polyline clip-path="url(#clip130)" style="stroke:#000000; stroke-linecap:round; stroke-linejoin:round; stroke-width:4; stroke-opacity:1; fill:none" points="2242.52,685.3 2242.52,666.402 "/>
<path clip-path="url(#clip130)" d="M1456.22 725.818 Q1452.61 725.818 1450.78 729.383 Q1448.97 732.925 1448.97 740.054 Q1448.97 747.161 1450.78 750.726 Q1452.61 754.267 1456.22 754.267 Q1459.85 754.267 1461.66 750.726 Q1463.49 747.161 1463.49 740.054 Q1463.49 732.925 1461.66 729.383 Q1459.85 725.818 1456.22 725.818 M1456.22 722.115 Q1462.03 722.115 1465.08 726.721 Q1468.16 731.304 1468.16 740.054 Q1468.16 748.781 1465.08 753.388 Q1462.03 757.971 1456.22 757.971 Q1450.41 757.971 1447.33 753.388 Q1444.27 748.781 1444.27 740.054 Q1444.27 731.304 1447.33 726.721 Q1450.41 722.115 1456.22 722.115 Z" fill="#000000" fill-rule="nonzero" fill-opacity="1" /><path clip-path="url(#clip130)" d="M1476.38 751.42 L1481.26 751.42 L1481.26 757.3 L1476.38 757.3 L1476.38 751.42 Z" fill="#000000" fill-rule="nonzero" fill-opacity="1" /><path clip-path="url(#clip130)" d="M1501.45 725.818 Q1497.84 725.818 1496.01 729.383 Q1494.2 732.925 1494.2 740.054 Q1494.2 747.161 1496.01 750.726 Q1497.84 754.267 1501.45 754.267 Q1505.08 754.267 1506.89 750.726 Q1508.72 747.161 1508.72 740.054 Q1508.72 732.925 1506.89 729.383 Q1505.08 725.818 1501.45 725.818 M1501.45 722.115 Q1507.26 722.115 1510.32 726.721 Q1513.39 731.304 1513.39 740.054 Q1513.39 748.781 1510.32 753.388 Q1507.26 757.971 1501.45 757.971 Q1495.64 757.971 1492.56 753.388 Q1489.51 748.781 1489.51 740.054 Q1489.51 731.304 1492.56 726.721 Q1495.64 722.115 1501.45 722.115 Z" fill="#000000" fill-rule="nonzero" fill-opacity="1" /><path clip-path="url(#clip130)" d="M1609.75 725.818 Q1606.14 725.818 1604.31 729.383 Q1602.51 732.925 1602.51 740.054 Q1602.51 747.161 1604.31 750.726 Q1606.14 754.267 1609.75 754.267 Q1613.39 754.267 1615.19 750.726 Q1617.02 747.161 1617.02 740.054 Q1617.02 732.925 1615.19 729.383 Q1613.39 725.818 1609.75 725.818 M1609.75 722.115 Q1615.56 722.115 1618.62 726.721 Q1621.7 731.304 1621.7 740.054 Q1621.7 748.781 1618.62 753.388 Q1615.56 757.971 1609.75 757.971 Q1603.94 757.971 1600.87 753.388 Q1597.81 748.781 1597.81 740.054 Q1597.81 731.304 1600.87 726.721 Q1603.94 722.115 1609.75 722.115 Z" fill="#000000" fill-rule="nonzero" fill-opacity="1" /><path clip-path="url(#clip130)" d="M1629.92 751.42 L1634.8 751.42 L1634.8 757.3 L1629.92 757.3 L1629.92 751.42 Z" fill="#000000" fill-rule="nonzero" fill-opacity="1" /><path clip-path="url(#clip130)" d="M1649.01 753.364 L1665.33 753.364 L1665.33 757.3 L1643.39 757.3 L1643.39 753.364 Q1646.05 750.61 1650.63 745.98 Q1655.24 741.328 1656.42 739.985 Q1658.67 737.462 1659.55 735.726 Q1660.45 733.966 1660.45 732.277 Q1660.45 729.522 1658.5 727.786 Q1656.58 726.05 1653.48 726.05 Q1651.28 726.05 1648.83 726.814 Q1646.4 727.578 1643.62 729.129 L1643.62 724.406 Q1646.44 723.272 1648.9 722.693 Q1651.35 722.115 1653.39 722.115 Q1658.76 722.115 1661.95 724.8 Q1665.15 727.485 1665.15 731.976 Q1665.15 734.105 1664.34 736.027 Q1663.55 737.925 1661.44 740.517 Q1660.87 741.189 1657.76 744.406 Q1654.66 747.601 1649.01 753.364 Z" fill="#000000" fill-rule="nonzero" fill-opacity="1" /><path clip-path="url(#clip130)" d="M1761.45 725.818 Q1757.84 725.818 1756.01 729.383 Q1754.2 732.925 1754.2 740.054 Q1754.2 747.161 1756.01 750.726 Q1757.84 754.267 1761.45 754.267 Q1765.08 754.267 1766.89 750.726 Q1768.72 747.161 1768.72 740.054 Q1768.72 732.925 1766.89 729.383 Q1765.08 725.818 1761.45 725.818 M1761.45 722.115 Q1767.26 722.115 1770.32 726.721 Q1773.39 731.304 1773.39 740.054 Q1773.39 748.781 1770.32 753.388 Q1767.26 757.971 1761.45 757.971 Q1755.64 757.971 1752.56 753.388 Q1749.51 748.781 1749.51 740.054 Q1749.51 731.304 1752.56 726.721 Q1755.64 722.115 1761.45 722.115 Z" fill="#000000" fill-rule="nonzero" fill-opacity="1" /><path clip-path="url(#clip130)" d="M1781.61 751.42 L1786.5 751.42 L1786.5 757.3 L1781.61 757.3 L1781.61 751.42 Z" fill="#000000" fill-rule="nonzero" fill-opacity="1" /><path clip-path="url(#clip130)" d="M1809.53 726.814 L1797.72 745.263 L1809.53 745.263 L1809.53 726.814 M1808.3 722.74 L1814.18 722.74 L1814.18 745.263 L1819.11 745.263 L1819.11 749.152 L1814.18 749.152 L1814.18 757.3 L1809.53 757.3 L1809.53 749.152 L1793.93 749.152 L1793.93 744.638 L1808.3 722.74 Z" fill="#000000" fill-rule="nonzero" fill-opacity="1" /><path clip-path="url(#clip130)" d="M1914.35 725.818 Q1910.74 725.818 1908.91 729.383 Q1907.1 732.925 1907.1 740.054 Q1907.1 747.161 1908.91 750.726 Q1910.74 754.267 1914.35 754.267 Q1917.98 754.267 1919.79 750.726 Q1921.62 747.161 1921.62 740.054 Q1921.62 732.925 1919.79 729.383 Q1917.98 725.818 1914.35 725.818 M1914.35 722.115 Q1920.16 722.115 1923.21 726.721 Q1926.29 731.304 1926.29 740.054 Q1926.29 748.781 1923.21 753.388 Q1920.16 757.971 1914.35 757.971 Q1908.54 757.971 1905.46 753.388 Q1902.4 748.781 1902.4 740.054 Q1902.4 731.304 1905.46 726.721 Q1908.54 722.115 1914.35 722.115 Z" fill="#000000" fill-rule="nonzero" fill-opacity="1" /><path clip-path="url(#clip130)" d="M1934.51 751.42 L1939.4 751.42 L1939.4 757.3 L1934.51 757.3 L1934.51 751.42 Z" fill="#000000" fill-rule="nonzero" fill-opacity="1" /><path clip-path="url(#clip130)" d="M1960.16 738.156 Q1957.01 738.156 1955.16 740.309 Q1953.33 742.462 1953.33 746.212 Q1953.33 749.939 1955.16 752.114 Q1957.01 754.267 1960.16 754.267 Q1963.31 754.267 1965.14 752.114 Q1966.99 749.939 1966.99 746.212 Q1966.99 742.462 1965.14 740.309 Q1963.31 738.156 1960.16 738.156 M1969.44 723.504 L1969.44 727.763 Q1967.68 726.929 1965.88 726.49 Q1964.09 726.05 1962.33 726.05 Q1957.71 726.05 1955.25 729.175 Q1952.82 732.3 1952.47 738.619 Q1953.84 736.605 1955.9 735.541 Q1957.96 734.453 1960.44 734.453 Q1965.64 734.453 1968.65 737.624 Q1971.69 740.772 1971.69 746.212 Q1971.69 751.536 1968.54 754.753 Q1965.39 757.971 1960.16 757.971 Q1954.16 757.971 1950.99 753.388 Q1947.82 748.781 1947.82 740.054 Q1947.82 731.86 1951.71 726.999 Q1955.6 722.115 1962.15 722.115 Q1963.91 722.115 1965.69 722.462 Q1967.5 722.809 1969.44 723.504 Z" fill="#000000" fill-rule="nonzero" fill-opacity="1" /><path clip-path="url(#clip130)" d="M2067.21 725.818 Q2063.6 725.818 2061.77 729.383 Q2059.97 732.925 2059.97 740.054 Q2059.97 747.161 2061.77 750.726 Q2063.6 754.267 2067.21 754.267 Q2070.85 754.267 2072.65 750.726 Q2074.48 747.161 2074.48 740.054 Q2074.48 732.925 2072.65 729.383 Q2070.85 725.818 2067.21 725.818 M2067.21 722.115 Q2073.02 722.115 2076.08 726.721 Q2079.16 731.304 2079.16 740.054 Q2079.16 748.781 2076.08 753.388 Q2073.02 757.971 2067.21 757.971 Q2061.4 757.971 2058.32 753.388 Q2055.27 748.781 2055.27 740.054 Q2055.27 731.304 2058.32 726.721 Q2061.4 722.115 2067.21 722.115 Z" fill="#000000" fill-rule="nonzero" fill-opacity="1" /><path clip-path="url(#clip130)" d="M2087.38 751.42 L2092.26 751.42 L2092.26 757.3 L2087.38 757.3 L2087.38 751.42 Z" fill="#000000" fill-rule="nonzero" fill-opacity="1" /><path clip-path="url(#clip130)" d="M2112.44 740.888 Q2109.11 740.888 2107.19 742.67 Q2105.29 744.453 2105.29 747.577 Q2105.29 750.702 2107.19 752.485 Q2109.11 754.267 2112.44 754.267 Q2115.78 754.267 2117.7 752.485 Q2119.62 750.679 2119.62 747.577 Q2119.62 744.453 2117.7 742.67 Q2115.8 740.888 2112.44 740.888 M2107.77 738.897 Q2104.76 738.156 2103.07 736.096 Q2101.4 734.036 2101.4 731.073 Q2101.4 726.929 2104.34 724.522 Q2107.31 722.115 2112.44 722.115 Q2117.61 722.115 2120.55 724.522 Q2123.49 726.929 2123.49 731.073 Q2123.49 734.036 2121.8 736.096 Q2120.13 738.156 2117.14 738.897 Q2120.52 739.684 2122.4 741.976 Q2124.3 744.267 2124.3 747.577 Q2124.3 752.601 2121.22 755.286 Q2118.16 757.971 2112.44 757.971 Q2106.73 757.971 2103.65 755.286 Q2100.59 752.601 2100.59 747.577 Q2100.59 744.267 2102.49 741.976 Q2104.39 739.684 2107.77 738.897 M2106.06 731.513 Q2106.06 734.198 2107.72 735.703 Q2109.41 737.207 2112.44 737.207 Q2115.45 737.207 2117.14 735.703 Q2118.86 734.198 2118.86 731.513 Q2118.86 728.828 2117.14 727.323 Q2115.45 725.818 2112.44 725.818 Q2109.41 725.818 2107.72 727.323 Q2106.06 728.828 2106.06 731.513 Z" fill="#000000" fill-rule="nonzero" fill-opacity="1" /><path clip-path="url(#clip130)" d="M2209.67 753.364 L2217.31 753.364 L2217.31 726.999 L2209 728.666 L2209 724.406 L2217.27 722.74 L2221.94 722.74 L2221.94 753.364 L2229.58 753.364 L2229.58 757.3 L2209.67 757.3 L2209.67 753.364 Z" fill="#000000" fill-rule="nonzero" fill-opacity="1" /><path clip-path="url(#clip130)" d="M2239.02 751.42 L2243.91 751.42 L2243.91 757.3 L2239.02 757.3 L2239.02 751.42 Z" fill="#000000" fill-rule="nonzero" fill-opacity="1" /><path clip-path="url(#clip130)" d="M2264.09 725.818 Q2260.48 725.818 2258.65 729.383 Q2256.85 732.925 2256.85 740.054 Q2256.85 747.161 2258.65 750.726 Q2260.48 754.267 2264.09 754.267 Q2267.73 754.267 2269.53 750.726 Q2271.36 747.161 2271.36 740.054 Q2271.36 732.925 2269.53 729.383 Q2267.73 725.818 2264.09 725.818 M2264.09 722.115 Q2269.9 722.115 2272.96 726.721 Q2276.04 731.304 2276.04 740.054 Q2276.04 748.781 2272.96 753.388 Q2269.9 757.971 2264.09 757.971 Q2258.28 757.971 2255.2 753.388 Q2252.15 748.781 2252.15 740.054 Q2252.15 731.304 2255.2 726.721 Q2258.28 722.115 2264.09 722.115 Z" fill="#000000" fill-rule="nonzero" fill-opacity="1" /><polyline clip-path="url(#clip130)" style="stroke:#000000; stroke-linecap:round; stroke-linejoin:round; stroke-width:4; stroke-opacity:1; fill:none" points="1478.83,685.3 1478.83,157.48 "/>
<polyline clip-path="url(#clip130)" style="stroke:#000000; stroke-linecap:round; stroke-linejoin:round; stroke-width:4; stroke-opacity:1; fill:none" points="1478.83,685.3 1497.73,685.3 "/>
<polyline clip-path="url(#clip130)" style="stroke:#000000; stroke-linecap:round; stroke-linejoin:round; stroke-width:4; stroke-opacity:1; fill:none" points="1478.83,579.736 1497.73,579.736 "/>
<polyline clip-path="url(#clip130)" style="stroke:#000000; stroke-linecap:round; stroke-linejoin:round; stroke-width:4; stroke-opacity:1; fill:none" points="1478.83,474.172 1497.73,474.172 "/>
<polyline clip-path="url(#clip130)" style="stroke:#000000; stroke-linecap:round; stroke-linejoin:round; stroke-width:4; stroke-opacity:1; fill:none" points="1478.83,368.608 1497.73,368.608 "/>
<polyline clip-path="url(#clip130)" style="stroke:#000000; stroke-linecap:round; stroke-linejoin:round; stroke-width:4; stroke-opacity:1; fill:none" points="1478.83,263.044 1497.73,263.044 "/>
<polyline clip-path="url(#clip130)" style="stroke:#000000; stroke-linecap:round; stroke-linejoin:round; stroke-width:4; stroke-opacity:1; fill:none" points="1478.83,157.48 1497.73,157.48 "/>
<path clip-path="url(#clip130)" d="M1367.66 671.098 Q1364.05 671.098 1362.22 674.663 Q1360.41 678.205 1360.41 685.334 Q1360.41 692.441 1362.22 696.006 Q1364.05 699.547 1367.66 699.547 Q1371.29 699.547 1373.1 696.006 Q1374.93 692.441 1374.93 685.334 Q1374.93 678.205 1373.1 674.663 Q1371.29 671.098 1367.66 671.098 M1367.66 667.395 Q1373.47 667.395 1376.52 672.001 Q1379.6 676.584 1379.6 685.334 Q1379.6 694.061 1376.52 698.668 Q1373.47 703.251 1367.66 703.251 Q1361.85 703.251 1358.77 698.668 Q1355.71 694.061 1355.71 685.334 Q1355.71 676.584 1358.77 672.001 Q1361.85 667.395 1367.66 667.395 Z" fill="#000000" fill-rule="nonzero" fill-opacity="1" /><path clip-path="url(#clip130)" d="M1387.82 696.7 L1392.7 696.7 L1392.7 702.58 L1387.82 702.58 L1387.82 696.7 Z" fill="#000000" fill-rule="nonzero" fill-opacity="1" /><path clip-path="url(#clip130)" d="M1412.89 671.098 Q1409.28 671.098 1407.45 674.663 Q1405.64 678.205 1405.64 685.334 Q1405.64 692.441 1407.45 696.006 Q1409.28 699.547 1412.89 699.547 Q1416.52 699.547 1418.33 696.006 Q1420.16 692.441 1420.16 685.334 Q1420.16 678.205 1418.33 674.663 Q1416.52 671.098 1412.89 671.098 M1412.89 667.395 Q1418.7 667.395 1421.76 672.001 Q1424.83 676.584 1424.83 685.334 Q1424.83 694.061 1421.76 698.668 Q1418.7 703.251 1412.89 703.251 Q1407.08 703.251 1404 698.668 Q1400.95 694.061 1400.95 685.334 Q1400.95 676.584 1404 672.001 Q1407.08 667.395 1412.89 667.395 Z" fill="#000000" fill-rule="nonzero" fill-opacity="1" /><path clip-path="url(#clip130)" d="M1369.26 565.534 Q1365.64 565.534 1363.82 569.099 Q1362.01 572.641 1362.01 579.771 Q1362.01 586.877 1363.82 590.442 Q1365.64 593.983 1369.26 593.983 Q1372.89 593.983 1374.7 590.442 Q1376.52 586.877 1376.52 579.771 Q1376.52 572.641 1374.7 569.099 Q1372.89 565.534 1369.26 565.534 M1369.26 561.831 Q1375.07 561.831 1378.12 566.437 Q1381.2 571.021 1381.2 579.771 Q1381.2 588.497 1378.12 593.104 Q1375.07 597.687 1369.26 597.687 Q1363.45 597.687 1360.37 593.104 Q1357.31 588.497 1357.31 579.771 Q1357.31 571.021 1360.37 566.437 Q1363.45 561.831 1369.26 561.831 Z" fill="#000000" fill-rule="nonzero" fill-opacity="1" /><path clip-path="url(#clip130)" d="M1389.42 591.136 L1394.3 591.136 L1394.3 597.016 L1389.42 597.016 L1389.42 591.136 Z" fill="#000000" fill-rule="nonzero" fill-opacity="1" /><path clip-path="url(#clip130)" d="M1408.52 593.081 L1424.83 593.081 L1424.83 597.016 L1402.89 597.016 L1402.89 593.081 Q1405.55 590.326 1410.14 585.696 Q1414.74 581.044 1415.92 579.701 Q1418.17 577.178 1419.05 575.442 Q1419.95 573.683 1419.95 571.993 Q1419.95 569.238 1418.01 567.502 Q1416.08 565.766 1412.98 565.766 Q1410.78 565.766 1408.33 566.53 Q1405.9 567.294 1403.12 568.845 L1403.12 564.122 Q1405.95 562.988 1408.4 562.409 Q1410.85 561.831 1412.89 561.831 Q1418.26 561.831 1421.45 564.516 Q1424.65 567.201 1424.65 571.692 Q1424.65 573.821 1423.84 575.743 Q1423.05 577.641 1420.95 580.233 Q1420.37 580.905 1417.27 584.122 Q1414.16 587.317 1408.52 593.081 Z" fill="#000000" fill-rule="nonzero" fill-opacity="1" /><path clip-path="url(#clip130)" d="M1367.17 459.971 Q1363.56 459.971 1361.73 463.535 Q1359.93 467.077 1359.93 474.207 Q1359.93 481.313 1361.73 484.878 Q1363.56 488.42 1367.17 488.42 Q1370.81 488.42 1372.61 484.878 Q1374.44 481.313 1374.44 474.207 Q1374.44 467.077 1372.61 463.535 Q1370.81 459.971 1367.17 459.971 M1367.17 456.267 Q1372.98 456.267 1376.04 460.873 Q1379.12 465.457 1379.12 474.207 Q1379.12 482.933 1376.04 487.54 Q1372.98 492.123 1367.17 492.123 Q1361.36 492.123 1358.28 487.54 Q1355.23 482.933 1355.23 474.207 Q1355.23 465.457 1358.28 460.873 Q1361.36 456.267 1367.17 456.267 Z" fill="#000000" fill-rule="nonzero" fill-opacity="1" /><path clip-path="url(#clip130)" d="M1387.33 485.572 L1392.22 485.572 L1392.22 491.452 L1387.33 491.452 L1387.33 485.572 Z" fill="#000000" fill-rule="nonzero" fill-opacity="1" /><path clip-path="url(#clip130)" d="M1415.25 460.966 L1403.45 479.415 L1415.25 479.415 L1415.25 460.966 M1414.02 456.892 L1419.9 456.892 L1419.9 479.415 L1424.83 479.415 L1424.83 483.304 L1419.9 483.304 L1419.9 491.452 L1415.25 491.452 L1415.25 483.304 L1399.65 483.304 L1399.65 478.79 L1414.02 456.892 Z" fill="#000000" fill-rule="nonzero" fill-opacity="1" /><path clip-path="url(#clip130)" d="M1367.5 354.407 Q1363.89 354.407 1362.06 357.972 Q1360.25 361.513 1360.25 368.643 Q1360.25 375.749 1362.06 379.314 Q1363.89 382.856 1367.5 382.856 Q1371.13 382.856 1372.94 379.314 Q1374.77 375.749 1374.77 368.643 Q1374.77 361.513 1372.94 357.972 Q1371.13 354.407 1367.5 354.407 M1367.5 350.703 Q1373.31 350.703 1376.36 355.31 Q1379.44 359.893 1379.44 368.643 Q1379.44 377.37 1376.36 381.976 Q1373.31 386.559 1367.5 386.559 Q1361.69 386.559 1358.61 381.976 Q1355.55 377.37 1355.55 368.643 Q1355.55 359.893 1358.61 355.31 Q1361.69 350.703 1367.5 350.703 Z" fill="#000000" fill-rule="nonzero" fill-opacity="1" /><path clip-path="url(#clip130)" d="M1387.66 380.008 L1392.54 380.008 L1392.54 385.888 L1387.66 385.888 L1387.66 380.008 Z" fill="#000000" fill-rule="nonzero" fill-opacity="1" /><path clip-path="url(#clip130)" d="M1413.31 366.745 Q1410.16 366.745 1408.31 368.897 Q1406.48 371.05 1406.48 374.8 Q1406.48 378.527 1408.31 380.703 Q1410.16 382.856 1413.31 382.856 Q1416.45 382.856 1418.28 380.703 Q1420.14 378.527 1420.14 374.8 Q1420.14 371.05 1418.28 368.897 Q1416.45 366.745 1413.31 366.745 M1422.59 352.092 L1422.59 356.351 Q1420.83 355.518 1419.02 355.078 Q1417.24 354.638 1415.48 354.638 Q1410.85 354.638 1408.4 357.763 Q1405.97 360.888 1405.62 367.208 Q1406.99 365.194 1409.05 364.129 Q1411.11 363.041 1413.58 363.041 Q1418.79 363.041 1421.8 366.212 Q1424.83 369.36 1424.83 374.8 Q1424.83 380.124 1421.69 383.342 Q1418.54 386.559 1413.31 386.559 Q1407.31 386.559 1404.14 381.976 Q1400.97 377.37 1400.97 368.643 Q1400.97 360.448 1404.86 355.587 Q1408.75 350.703 1415.3 350.703 Q1417.06 350.703 1418.84 351.05 Q1420.64 351.397 1422.59 352.092 Z" fill="#000000" fill-rule="nonzero" fill-opacity="1" /><path clip-path="url(#clip130)" d="M1367.75 248.843 Q1364.14 248.843 1362.31 252.408 Q1360.51 255.949 1360.51 263.079 Q1360.51 270.185 1362.31 273.75 Q1364.14 277.292 1367.75 277.292 Q1371.39 277.292 1373.19 273.75 Q1375.02 270.185 1375.02 263.079 Q1375.02 255.949 1373.19 252.408 Q1371.39 248.843 1367.75 248.843 M1367.75 245.139 Q1373.56 245.139 1376.62 249.746 Q1379.7 254.329 1379.7 263.079 Q1379.7 271.806 1376.62 276.412 Q1373.56 280.995 1367.75 280.995 Q1361.94 280.995 1358.86 276.412 Q1355.81 271.806 1355.81 263.079 Q1355.81 254.329 1358.86 249.746 Q1361.94 245.139 1367.75 245.139 Z" fill="#000000" fill-rule="nonzero" fill-opacity="1" /><path clip-path="url(#clip130)" d="M1387.91 274.445 L1392.8 274.445 L1392.8 280.324 L1387.91 280.324 L1387.91 274.445 Z" fill="#000000" fill-rule="nonzero" fill-opacity="1" /><path clip-path="url(#clip130)" d="M1412.98 263.912 Q1409.65 263.912 1407.73 265.695 Q1405.83 267.477 1405.83 270.602 Q1405.83 273.727 1407.73 275.509 Q1409.65 277.292 1412.98 277.292 Q1416.32 277.292 1418.24 275.509 Q1420.16 273.704 1420.16 270.602 Q1420.16 267.477 1418.24 265.695 Q1416.34 263.912 1412.98 263.912 M1408.31 261.922 Q1405.3 261.181 1403.61 259.121 Q1401.94 257.06 1401.94 254.097 Q1401.94 249.954 1404.88 247.547 Q1407.84 245.139 1412.98 245.139 Q1418.14 245.139 1421.08 247.547 Q1424.02 249.954 1424.02 254.097 Q1424.02 257.06 1422.33 259.121 Q1420.67 261.181 1417.68 261.922 Q1421.06 262.709 1422.94 265 Q1424.83 267.292 1424.83 270.602 Q1424.83 275.625 1421.76 278.31 Q1418.7 280.995 1412.98 280.995 Q1407.27 280.995 1404.19 278.31 Q1401.13 275.625 1401.13 270.602 Q1401.13 267.292 1403.03 265 Q1404.93 262.709 1408.31 261.922 M1406.59 254.537 Q1406.59 257.222 1408.26 258.727 Q1409.95 260.232 1412.98 260.232 Q1415.99 260.232 1417.68 258.727 Q1419.39 257.222 1419.39 254.537 Q1419.39 251.852 1417.68 250.347 Q1415.99 248.843 1412.98 248.843 Q1409.95 248.843 1408.26 250.347 Q1406.59 251.852 1406.59 254.537 Z" fill="#000000" fill-rule="nonzero" fill-opacity="1" /><path clip-path="url(#clip130)" d="M1358.47 170.825 L1366.11 170.825 L1366.11 144.46 L1357.8 146.126 L1357.8 141.867 L1366.06 140.2 L1370.74 140.2 L1370.74 170.825 L1378.38 170.825 L1378.38 174.76 L1358.47 174.76 L1358.47 170.825 Z" fill="#000000" fill-rule="nonzero" fill-opacity="1" /><path clip-path="url(#clip130)" d="M1387.82 168.881 L1392.7 168.881 L1392.7 174.76 L1387.82 174.76 L1387.82 168.881 Z" fill="#000000" fill-rule="nonzero" fill-opacity="1" /><path clip-path="url(#clip130)" d="M1412.89 143.279 Q1409.28 143.279 1407.45 146.844 Q1405.64 150.385 1405.64 157.515 Q1405.64 164.621 1407.45 168.186 Q1409.28 171.728 1412.89 171.728 Q1416.52 171.728 1418.33 168.186 Q1420.16 164.621 1420.16 157.515 Q1420.16 150.385 1418.33 146.844 Q1416.52 143.279 1412.89 143.279 M1412.89 139.575 Q1418.7 139.575 1421.76 144.182 Q1424.83 148.765 1424.83 157.515 Q1424.83 166.242 1421.76 170.848 Q1418.7 175.432 1412.89 175.432 Q1407.08 175.432 1404 170.848 Q1400.95 166.242 1400.95 157.515 Q1400.95 148.765 1404 144.182 Q1407.08 139.575 1412.89 139.575 Z" fill="#000000" fill-rule="nonzero" fill-opacity="1" /><path clip-path="url(#clip130)" d="M2678.83 685.3 L3442.52 685.3 L3442.52 157.48 L2678.83 157.48  Z" fill="#ffffff" fill-rule="evenodd" fill-opacity="1"/>
<defs>
  <clipPath id="clip134">
    <rect x="2678" y="157" width="765" height="529"/>
  </clipPath>
</defs>
<polyline clip-path="url(#clip134)" style="stroke:#000000; stroke-linecap:round; stroke-linejoin:round; stroke-width:2; stroke-opacity:0.1; fill:none" points="2678.83,685.3 2678.83,157.48 "/>
<polyline clip-path="url(#clip134)" style="stroke:#000000; stroke-linecap:round; stroke-linejoin:round; stroke-width:2; stroke-opacity:0.1; fill:none" points="2831.57,685.3 2831.57,157.48 "/>
<polyline clip-path="url(#clip134)" style="stroke:#000000; stroke-linecap:round; stroke-linejoin:round; stroke-width:2; stroke-opacity:0.1; fill:none" points="2984.31,685.3 2984.31,157.48 "/>
<polyline clip-path="url(#clip134)" style="stroke:#000000; stroke-linecap:round; stroke-linejoin:round; stroke-width:2; stroke-opacity:0.1; fill:none" points="3137.05,685.3 3137.05,157.48 "/>
<polyline clip-path="url(#clip134)" style="stroke:#000000; stroke-linecap:round; stroke-linejoin:round; stroke-width:2; stroke-opacity:0.1; fill:none" points="3289.78,685.3 3289.78,157.48 "/>
<polyline clip-path="url(#clip134)" style="stroke:#000000; stroke-linecap:round; stroke-linejoin:round; stroke-width:2; stroke-opacity:0.1; fill:none" points="3442.52,685.3 3442.52,157.48 "/>
<polyline clip-path="url(#clip134)" style="stroke:#000000; stroke-linecap:round; stroke-linejoin:round; stroke-width:2; stroke-opacity:0.1; fill:none" points="2678.83,685.3 3442.52,685.3 "/>
<polyline clip-path="url(#clip134)" style="stroke:#000000; stroke-linecap:round; stroke-linejoin:round; stroke-width:2; stroke-opacity:0.1; fill:none" points="2678.83,579.736 3442.52,579.736 "/>
<polyline clip-path="url(#clip134)" style="stroke:#000000; stroke-linecap:round; stroke-linejoin:round; stroke-width:2; stroke-opacity:0.1; fill:none" points="2678.83,474.172 3442.52,474.172 "/>
<polyline clip-path="url(#clip134)" style="stroke:#000000; stroke-linecap:round; stroke-linejoin:round; stroke-width:2; stroke-opacity:0.1; fill:none" points="2678.83,368.608 3442.52,368.608 "/>
<polyline clip-path="url(#clip134)" style="stroke:#000000; stroke-linecap:round; stroke-linejoin:round; stroke-width:2; stroke-opacity:0.1; fill:none" points="2678.83,263.044 3442.52,263.044 "/>
<polyline clip-path="url(#clip134)" style="stroke:#000000; stroke-linecap:round; stroke-linejoin:round; stroke-width:2; stroke-opacity:0.1; fill:none" points="2678.83,157.48 3442.52,157.48 "/>
<polyline clip-path="url(#clip130)" style="stroke:#000000; stroke-linecap:round; stroke-linejoin:round; stroke-width:4; stroke-opacity:1; fill:none" points="2678.83,685.3 3442.52,685.3 "/>
<polyline clip-path="url(#clip130)" style="stroke:#000000; stroke-linecap:round; stroke-linejoin:round; stroke-width:4; stroke-opacity:1; fill:none" points="2678.83,685.3 2678.83,666.402 "/>
<polyline clip-path="url(#clip130)" style="stroke:#000000; stroke-linecap:round; stroke-linejoin:round; stroke-width:4; stroke-opacity:1; fill:none" points="2831.57,685.3 2831.57,666.402 "/>
<polyline clip-path="url(#clip130)" style="stroke:#000000; stroke-linecap:round; stroke-linejoin:round; stroke-width:4; stroke-opacity:1; fill:none" points="2984.31,685.3 2984.31,666.402 "/>
<polyline clip-path="url(#clip130)" style="stroke:#000000; stroke-linecap:round; stroke-linejoin:round; stroke-width:4; stroke-opacity:1; fill:none" points="3137.05,685.3 3137.05,666.402 "/>
<polyline clip-path="url(#clip130)" style="stroke:#000000; stroke-linecap:round; stroke-linejoin:round; stroke-width:4; stroke-opacity:1; fill:none" points="3289.78,685.3 3289.78,666.402 "/>
<polyline clip-path="url(#clip130)" style="stroke:#000000; stroke-linecap:round; stroke-linejoin:round; stroke-width:4; stroke-opacity:1; fill:none" points="3442.52,685.3 3442.52,666.402 "/>
<path clip-path="url(#clip130)" d="M2656.22 725.818 Q2652.61 725.818 2650.78 729.383 Q2648.97 732.925 2648.97 740.054 Q2648.97 747.161 2650.78 750.726 Q2652.61 754.267 2656.22 754.267 Q2659.85 754.267 2661.66 750.726 Q2663.49 747.161 2663.49 740.054 Q2663.49 732.925 2661.66 729.383 Q2659.85 725.818 2656.22 725.818 M2656.22 722.115 Q2662.03 722.115 2665.08 726.721 Q2668.16 731.304 2668.16 740.054 Q2668.16 748.781 2665.08 753.388 Q2662.03 757.971 2656.22 757.971 Q2650.41 757.971 2647.33 753.388 Q2644.27 748.781 2644.27 740.054 Q2644.27 731.304 2647.33 726.721 Q2650.41 722.115 2656.22 722.115 Z" fill="#000000" fill-rule="nonzero" fill-opacity="1" /><path clip-path="url(#clip130)" d="M2676.38 751.42 L2681.26 751.42 L2681.26 757.3 L2676.38 757.3 L2676.38 751.42 Z" fill="#000000" fill-rule="nonzero" fill-opacity="1" /><path clip-path="url(#clip130)" d="M2701.45 725.818 Q2697.84 725.818 2696.01 729.383 Q2694.2 732.925 2694.2 740.054 Q2694.2 747.161 2696.01 750.726 Q2697.84 754.267 2701.45 754.267 Q2705.08 754.267 2706.89 750.726 Q2708.72 747.161 2708.72 740.054 Q2708.72 732.925 2706.89 729.383 Q2705.08 725.818 2701.45 725.818 M2701.45 722.115 Q2707.26 722.115 2710.32 726.721 Q2713.39 731.304 2713.39 740.054 Q2713.39 748.781 2710.32 753.388 Q2707.26 757.971 2701.45 757.971 Q2695.64 757.971 2692.56 753.388 Q2689.51 748.781 2689.51 740.054 Q2689.51 731.304 2692.56 726.721 Q2695.64 722.115 2701.45 722.115 Z" fill="#000000" fill-rule="nonzero" fill-opacity="1" /><path clip-path="url(#clip130)" d="M2809.75 725.818 Q2806.14 725.818 2804.31 729.383 Q2802.51 732.925 2802.51 740.054 Q2802.51 747.161 2804.31 750.726 Q2806.14 754.267 2809.75 754.267 Q2813.39 754.267 2815.19 750.726 Q2817.02 747.161 2817.02 740.054 Q2817.02 732.925 2815.19 729.383 Q2813.39 725.818 2809.75 725.818 M2809.75 722.115 Q2815.56 722.115 2818.62 726.721 Q2821.7 731.304 2821.7 740.054 Q2821.7 748.781 2818.62 753.388 Q2815.56 757.971 2809.75 757.971 Q2803.94 757.971 2800.87 753.388 Q2797.81 748.781 2797.81 740.054 Q2797.81 731.304 2800.87 726.721 Q2803.94 722.115 2809.75 722.115 Z" fill="#000000" fill-rule="nonzero" fill-opacity="1" /><path clip-path="url(#clip130)" d="M2829.92 751.42 L2834.8 751.42 L2834.8 757.3 L2829.92 757.3 L2829.92 751.42 Z" fill="#000000" fill-rule="nonzero" fill-opacity="1" /><path clip-path="url(#clip130)" d="M2849.01 753.364 L2865.33 753.364 L2865.33 757.3 L2843.39 757.3 L2843.39 753.364 Q2846.05 750.61 2850.63 745.98 Q2855.24 741.328 2856.42 739.985 Q2858.67 737.462 2859.55 735.726 Q2860.45 733.966 2860.45 732.277 Q2860.45 729.522 2858.5 727.786 Q2856.58 726.05 2853.48 726.05 Q2851.28 726.05 2848.83 726.814 Q2846.4 727.578 2843.62 729.129 L2843.62 724.406 Q2846.44 723.272 2848.9 722.693 Q2851.35 722.115 2853.39 722.115 Q2858.76 722.115 2861.95 724.8 Q2865.15 727.485 2865.15 731.976 Q2865.15 734.105 2864.34 736.027 Q2863.55 737.925 2861.44 740.517 Q2860.87 741.189 2857.76 744.406 Q2854.66 747.601 2849.01 753.364 Z" fill="#000000" fill-rule="nonzero" fill-opacity="1" /><path clip-path="url(#clip130)" d="M2961.45 725.818 Q2957.84 725.818 2956.01 729.383 Q2954.2 732.925 2954.2 740.054 Q2954.2 747.161 2956.01 750.726 Q2957.84 754.267 2961.45 754.267 Q2965.08 754.267 2966.89 750.726 Q2968.72 747.161 2968.72 740.054 Q2968.72 732.925 2966.89 729.383 Q2965.08 725.818 2961.45 725.818 M2961.45 722.115 Q2967.26 722.115 2970.32 726.721 Q2973.39 731.304 2973.39 740.054 Q2973.39 748.781 2970.32 753.388 Q2967.26 757.971 2961.45 757.971 Q2955.64 757.971 2952.56 753.388 Q2949.51 748.781 2949.51 740.054 Q2949.51 731.304 2952.56 726.721 Q2955.64 722.115 2961.45 722.115 Z" fill="#000000" fill-rule="nonzero" fill-opacity="1" /><path clip-path="url(#clip130)" d="M2981.61 751.42 L2986.5 751.42 L2986.5 757.3 L2981.61 757.3 L2981.61 751.42 Z" fill="#000000" fill-rule="nonzero" fill-opacity="1" /><path clip-path="url(#clip130)" d="M3009.53 726.814 L2997.72 745.263 L3009.53 745.263 L3009.53 726.814 M3008.3 722.74 L3014.18 722.74 L3014.18 745.263 L3019.11 745.263 L3019.11 749.152 L3014.18 749.152 L3014.18 757.3 L3009.53 757.3 L3009.53 749.152 L2993.93 749.152 L2993.93 744.638 L3008.3 722.74 Z" fill="#000000" fill-rule="nonzero" fill-opacity="1" /><path clip-path="url(#clip130)" d="M3114.35 725.818 Q3110.74 725.818 3108.91 729.383 Q3107.1 732.925 3107.1 740.054 Q3107.1 747.161 3108.91 750.726 Q3110.74 754.267 3114.35 754.267 Q3117.98 754.267 3119.79 750.726 Q3121.62 747.161 3121.62 740.054 Q3121.62 732.925 3119.79 729.383 Q3117.98 725.818 3114.35 725.818 M3114.35 722.115 Q3120.16 722.115 3123.21 726.721 Q3126.29 731.304 3126.29 740.054 Q3126.29 748.781 3123.21 753.388 Q3120.16 757.971 3114.35 757.971 Q3108.54 757.971 3105.46 753.388 Q3102.4 748.781 3102.4 740.054 Q3102.4 731.304 3105.46 726.721 Q3108.54 722.115 3114.35 722.115 Z" fill="#000000" fill-rule="nonzero" fill-opacity="1" /><path clip-path="url(#clip130)" d="M3134.51 751.42 L3139.4 751.42 L3139.4 757.3 L3134.51 757.3 L3134.51 751.42 Z" fill="#000000" fill-rule="nonzero" fill-opacity="1" /><path clip-path="url(#clip130)" d="M3160.16 738.156 Q3157.01 738.156 3155.16 740.309 Q3153.33 742.462 3153.33 746.212 Q3153.33 749.939 3155.16 752.114 Q3157.01 754.267 3160.16 754.267 Q3163.31 754.267 3165.14 752.114 Q3166.99 749.939 3166.99 746.212 Q3166.99 742.462 3165.14 740.309 Q3163.31 738.156 3160.16 738.156 M3169.44 723.504 L3169.44 727.763 Q3167.68 726.929 3165.88 726.49 Q3164.09 726.05 3162.33 726.05 Q3157.71 726.05 3155.25 729.175 Q3152.82 732.3 3152.47 738.619 Q3153.84 736.605 3155.9 735.541 Q3157.96 734.453 3160.44 734.453 Q3165.64 734.453 3168.65 737.624 Q3171.69 740.772 3171.69 746.212 Q3171.69 751.536 3168.54 754.753 Q3165.39 757.971 3160.16 757.971 Q3154.16 757.971 3150.99 753.388 Q3147.82 748.781 3147.82 740.054 Q3147.82 731.86 3151.71 726.999 Q3155.6 722.115 3162.15 722.115 Q3163.91 722.115 3165.69 722.462 Q3167.5 722.809 3169.44 723.504 Z" fill="#000000" fill-rule="nonzero" fill-opacity="1" /><path clip-path="url(#clip130)" d="M3267.21 725.818 Q3263.6 725.818 3261.77 729.383 Q3259.97 732.925 3259.97 740.054 Q3259.97 747.161 3261.77 750.726 Q3263.6 754.267 3267.21 754.267 Q3270.85 754.267 3272.65 750.726 Q3274.48 747.161 3274.48 740.054 Q3274.48 732.925 3272.65 729.383 Q3270.85 725.818 3267.21 725.818 M3267.21 722.115 Q3273.02 722.115 3276.08 726.721 Q3279.16 731.304 3279.16 740.054 Q3279.16 748.781 3276.08 753.388 Q3273.02 757.971 3267.21 757.971 Q3261.4 757.971 3258.32 753.388 Q3255.27 748.781 3255.27 740.054 Q3255.27 731.304 3258.32 726.721 Q3261.4 722.115 3267.21 722.115 Z" fill="#000000" fill-rule="nonzero" fill-opacity="1" /><path clip-path="url(#clip130)" d="M3287.38 751.42 L3292.26 751.42 L3292.26 757.3 L3287.38 757.3 L3287.38 751.42 Z" fill="#000000" fill-rule="nonzero" fill-opacity="1" /><path clip-path="url(#clip130)" d="M3312.44 740.888 Q3309.11 740.888 3307.19 742.67 Q3305.29 744.453 3305.29 747.577 Q3305.29 750.702 3307.19 752.485 Q3309.11 754.267 3312.44 754.267 Q3315.78 754.267 3317.7 752.485 Q3319.62 750.679 3319.62 747.577 Q3319.62 744.453 3317.7 742.67 Q3315.8 740.888 3312.44 740.888 M3307.77 738.897 Q3304.76 738.156 3303.07 736.096 Q3301.4 734.036 3301.4 731.073 Q3301.4 726.929 3304.34 724.522 Q3307.31 722.115 3312.44 722.115 Q3317.61 722.115 3320.55 724.522 Q3323.49 726.929 3323.49 731.073 Q3323.49 734.036 3321.8 736.096 Q3320.13 738.156 3317.14 738.897 Q3320.52 739.684 3322.4 741.976 Q3324.3 744.267 3324.3 747.577 Q3324.3 752.601 3321.22 755.286 Q3318.16 757.971 3312.44 757.971 Q3306.73 757.971 3303.65 755.286 Q3300.59 752.601 3300.59 747.577 Q3300.59 744.267 3302.49 741.976 Q3304.39 739.684 3307.77 738.897 M3306.06 731.513 Q3306.06 734.198 3307.72 735.703 Q3309.41 737.207 3312.44 737.207 Q3315.45 737.207 3317.14 735.703 Q3318.86 734.198 3318.86 731.513 Q3318.86 728.828 3317.14 727.323 Q3315.45 725.818 3312.44 725.818 Q3309.41 725.818 3307.72 727.323 Q3306.06 728.828 3306.06 731.513 Z" fill="#000000" fill-rule="nonzero" fill-opacity="1" /><path clip-path="url(#clip130)" d="M3409.67 753.364 L3417.31 753.364 L3417.31 726.999 L3409 728.666 L3409 724.406 L3417.27 722.74 L3421.94 722.74 L3421.94 753.364 L3429.58 753.364 L3429.58 757.3 L3409.67 757.3 L3409.67 753.364 Z" fill="#000000" fill-rule="nonzero" fill-opacity="1" /><path clip-path="url(#clip130)" d="M3439.02 751.42 L3443.91 751.42 L3443.91 757.3 L3439.02 757.3 L3439.02 751.42 Z" fill="#000000" fill-rule="nonzero" fill-opacity="1" /><path clip-path="url(#clip130)" d="M3464.09 725.818 Q3460.48 725.818 3458.65 729.383 Q3456.85 732.925 3456.85 740.054 Q3456.85 747.161 3458.65 750.726 Q3460.48 754.267 3464.09 754.267 Q3467.73 754.267 3469.53 750.726 Q3471.36 747.161 3471.36 740.054 Q3471.36 732.925 3469.53 729.383 Q3467.73 725.818 3464.09 725.818 M3464.09 722.115 Q3469.9 722.115 3472.96 726.721 Q3476.04 731.304 3476.04 740.054 Q3476.04 748.781 3472.96 753.388 Q3469.9 757.971 3464.09 757.971 Q3458.28 757.971 3455.2 753.388 Q3452.15 748.781 3452.15 740.054 Q3452.15 731.304 3455.2 726.721 Q3458.28 722.115 3464.09 722.115 Z" fill="#000000" fill-rule="nonzero" fill-opacity="1" /><polyline clip-path="url(#clip130)" style="stroke:#000000; stroke-linecap:round; stroke-linejoin:round; stroke-width:4; stroke-opacity:1; fill:none" points="2678.83,685.3 2678.83,157.48 "/>
<polyline clip-path="url(#clip130)" style="stroke:#000000; stroke-linecap:round; stroke-linejoin:round; stroke-width:4; stroke-opacity:1; fill:none" points="2678.83,685.3 2697.73,685.3 "/>
<polyline clip-path="url(#clip130)" style="stroke:#000000; stroke-linecap:round; stroke-linejoin:round; stroke-width:4; stroke-opacity:1; fill:none" points="2678.83,579.736 2697.73,579.736 "/>
<polyline clip-path="url(#clip130)" style="stroke:#000000; stroke-linecap:round; stroke-linejoin:round; stroke-width:4; stroke-opacity:1; fill:none" points="2678.83,474.172 2697.73,474.172 "/>
<polyline clip-path="url(#clip130)" style="stroke:#000000; stroke-linecap:round; stroke-linejoin:round; stroke-width:4; stroke-opacity:1; fill:none" points="2678.83,368.608 2697.73,368.608 "/>
<polyline clip-path="url(#clip130)" style="stroke:#000000; stroke-linecap:round; stroke-linejoin:round; stroke-width:4; stroke-opacity:1; fill:none" points="2678.83,263.044 2697.73,263.044 "/>
<polyline clip-path="url(#clip130)" style="stroke:#000000; stroke-linecap:round; stroke-linejoin:round; stroke-width:4; stroke-opacity:1; fill:none" points="2678.83,157.48 2697.73,157.48 "/>
<path clip-path="url(#clip130)" d="M2567.66 671.098 Q2564.05 671.098 2562.22 674.663 Q2560.41 678.205 2560.41 685.334 Q2560.41 692.441 2562.22 696.006 Q2564.05 699.547 2567.66 699.547 Q2571.29 699.547 2573.1 696.006 Q2574.93 692.441 2574.93 685.334 Q2574.93 678.205 2573.1 674.663 Q2571.29 671.098 2567.66 671.098 M2567.66 667.395 Q2573.47 667.395 2576.52 672.001 Q2579.6 676.584 2579.6 685.334 Q2579.6 694.061 2576.52 698.668 Q2573.47 703.251 2567.66 703.251 Q2561.85 703.251 2558.77 698.668 Q2555.71 694.061 2555.71 685.334 Q2555.71 676.584 2558.77 672.001 Q2561.85 667.395 2567.66 667.395 Z" fill="#000000" fill-rule="nonzero" fill-opacity="1" /><path clip-path="url(#clip130)" d="M2587.82 696.7 L2592.7 696.7 L2592.7 702.58 L2587.82 702.58 L2587.82 696.7 Z" fill="#000000" fill-rule="nonzero" fill-opacity="1" /><path clip-path="url(#clip130)" d="M2612.89 671.098 Q2609.28 671.098 2607.45 674.663 Q2605.64 678.205 2605.64 685.334 Q2605.64 692.441 2607.45 696.006 Q2609.28 699.547 2612.89 699.547 Q2616.52 699.547 2618.33 696.006 Q2620.16 692.441 2620.16 685.334 Q2620.16 678.205 2618.33 674.663 Q2616.52 671.098 2612.89 671.098 M2612.89 667.395 Q2618.7 667.395 2621.76 672.001 Q2624.83 676.584 2624.83 685.334 Q2624.83 694.061 2621.76 698.668 Q2618.7 703.251 2612.89 703.251 Q2607.08 703.251 2604 698.668 Q2600.95 694.061 2600.95 685.334 Q2600.95 676.584 2604 672.001 Q2607.08 667.395 2612.89 667.395 Z" fill="#000000" fill-rule="nonzero" fill-opacity="1" /><path clip-path="url(#clip130)" d="M2569.26 565.534 Q2565.64 565.534 2563.82 569.099 Q2562.01 572.641 2562.01 579.771 Q2562.01 586.877 2563.82 590.442 Q2565.64 593.983 2569.26 593.983 Q2572.89 593.983 2574.7 590.442 Q2576.52 586.877 2576.52 579.771 Q2576.52 572.641 2574.7 569.099 Q2572.89 565.534 2569.26 565.534 M2569.26 561.831 Q2575.07 561.831 2578.12 566.437 Q2581.2 571.021 2581.2 579.771 Q2581.2 588.497 2578.12 593.104 Q2575.07 597.687 2569.26 597.687 Q2563.45 597.687 2560.37 593.104 Q2557.31 588.497 2557.31 579.771 Q2557.31 571.021 2560.37 566.437 Q2563.45 561.831 2569.26 561.831 Z" fill="#000000" fill-rule="nonzero" fill-opacity="1" /><path clip-path="url(#clip130)" d="M2589.42 591.136 L2594.3 591.136 L2594.3 597.016 L2589.42 597.016 L2589.42 591.136 Z" fill="#000000" fill-rule="nonzero" fill-opacity="1" /><path clip-path="url(#clip130)" d="M2608.52 593.081 L2624.83 593.081 L2624.83 597.016 L2602.89 597.016 L2602.89 593.081 Q2605.55 590.326 2610.14 585.696 Q2614.74 581.044 2615.92 579.701 Q2618.17 577.178 2619.05 575.442 Q2619.95 573.683 2619.95 571.993 Q2619.95 569.238 2618.01 567.502 Q2616.08 565.766 2612.98 565.766 Q2610.78 565.766 2608.33 566.53 Q2605.9 567.294 2603.12 568.845 L2603.12 564.122 Q2605.95 562.988 2608.4 562.409 Q2610.85 561.831 2612.89 561.831 Q2618.26 561.831 2621.45 564.516 Q2624.65 567.201 2624.65 571.692 Q2624.65 573.821 2623.84 575.743 Q2623.05 577.641 2620.95 580.233 Q2620.37 580.905 2617.27 584.122 Q2614.16 587.317 2608.52 593.081 Z" fill="#000000" fill-rule="nonzero" fill-opacity="1" /><path clip-path="url(#clip130)" d="M2567.17 459.971 Q2563.56 459.971 2561.73 463.535 Q2559.93 467.077 2559.93 474.207 Q2559.93 481.313 2561.73 484.878 Q2563.56 488.42 2567.17 488.42 Q2570.81 488.42 2572.61 484.878 Q2574.44 481.313 2574.44 474.207 Q2574.44 467.077 2572.61 463.535 Q2570.81 459.971 2567.17 459.971 M2567.17 456.267 Q2572.98 456.267 2576.04 460.873 Q2579.12 465.457 2579.12 474.207 Q2579.12 482.933 2576.04 487.54 Q2572.98 492.123 2567.17 492.123 Q2561.36 492.123 2558.28 487.54 Q2555.23 482.933 2555.23 474.207 Q2555.23 465.457 2558.28 460.873 Q2561.36 456.267 2567.17 456.267 Z" fill="#000000" fill-rule="nonzero" fill-opacity="1" /><path clip-path="url(#clip130)" d="M2587.33 485.572 L2592.22 485.572 L2592.22 491.452 L2587.33 491.452 L2587.33 485.572 Z" fill="#000000" fill-rule="nonzero" fill-opacity="1" /><path clip-path="url(#clip130)" d="M2615.25 460.966 L2603.45 479.415 L2615.25 479.415 L2615.25 460.966 M2614.02 456.892 L2619.9 456.892 L2619.9 479.415 L2624.83 479.415 L2624.83 483.304 L2619.9 483.304 L2619.9 491.452 L2615.25 491.452 L2615.25 483.304 L2599.65 483.304 L2599.65 478.79 L2614.02 456.892 Z" fill="#000000" fill-rule="nonzero" fill-opacity="1" /><path clip-path="url(#clip130)" d="M2567.5 354.407 Q2563.89 354.407 2562.06 357.972 Q2560.25 361.513 2560.25 368.643 Q2560.25 375.749 2562.06 379.314 Q2563.89 382.856 2567.5 382.856 Q2571.13 382.856 2572.94 379.314 Q2574.77 375.749 2574.77 368.643 Q2574.77 361.513 2572.94 357.972 Q2571.13 354.407 2567.5 354.407 M2567.5 350.703 Q2573.31 350.703 2576.36 355.31 Q2579.44 359.893 2579.44 368.643 Q2579.44 377.37 2576.36 381.976 Q2573.31 386.559 2567.5 386.559 Q2561.69 386.559 2558.61 381.976 Q2555.55 377.37 2555.55 368.643 Q2555.55 359.893 2558.61 355.31 Q2561.69 350.703 2567.5 350.703 Z" fill="#000000" fill-rule="nonzero" fill-opacity="1" /><path clip-path="url(#clip130)" d="M2587.66 380.008 L2592.54 380.008 L2592.54 385.888 L2587.66 385.888 L2587.66 380.008 Z" fill="#000000" fill-rule="nonzero" fill-opacity="1" /><path clip-path="url(#clip130)" d="M2613.31 366.745 Q2610.16 366.745 2608.31 368.897 Q2606.48 371.05 2606.48 374.8 Q2606.48 378.527 2608.31 380.703 Q2610.16 382.856 2613.31 382.856 Q2616.45 382.856 2618.28 380.703 Q2620.14 378.527 2620.14 374.8 Q2620.14 371.05 2618.28 368.897 Q2616.45 366.745 2613.31 366.745 M2622.59 352.092 L2622.59 356.351 Q2620.83 355.518 2619.02 355.078 Q2617.24 354.638 2615.48 354.638 Q2610.85 354.638 2608.4 357.763 Q2605.97 360.888 2605.62 367.208 Q2606.99 365.194 2609.05 364.129 Q2611.11 363.041 2613.58 363.041 Q2618.79 363.041 2621.8 366.212 Q2624.83 369.36 2624.83 374.8 Q2624.83 380.124 2621.69 383.342 Q2618.54 386.559 2613.31 386.559 Q2607.31 386.559 2604.14 381.976 Q2600.97 377.37 2600.97 368.643 Q2600.97 360.448 2604.86 355.587 Q2608.75 350.703 2615.3 350.703 Q2617.06 350.703 2618.84 351.05 Q2620.64 351.397 2622.59 352.092 Z" fill="#000000" fill-rule="nonzero" fill-opacity="1" /><path clip-path="url(#clip130)" d="M2567.75 248.843 Q2564.14 248.843 2562.31 252.408 Q2560.51 255.949 2560.51 263.079 Q2560.51 270.185 2562.31 273.75 Q2564.14 277.292 2567.75 277.292 Q2571.39 277.292 2573.19 273.75 Q2575.02 270.185 2575.02 263.079 Q2575.02 255.949 2573.19 252.408 Q2571.39 248.843 2567.75 248.843 M2567.75 245.139 Q2573.56 245.139 2576.62 249.746 Q2579.7 254.329 2579.7 263.079 Q2579.7 271.806 2576.62 276.412 Q2573.56 280.995 2567.75 280.995 Q2561.94 280.995 2558.86 276.412 Q2555.81 271.806 2555.81 263.079 Q2555.81 254.329 2558.86 249.746 Q2561.94 245.139 2567.75 245.139 Z" fill="#000000" fill-rule="nonzero" fill-opacity="1" /><path clip-path="url(#clip130)" d="M2587.91 274.445 L2592.8 274.445 L2592.8 280.324 L2587.91 280.324 L2587.91 274.445 Z" fill="#000000" fill-rule="nonzero" fill-opacity="1" /><path clip-path="url(#clip130)" d="M2612.98 263.912 Q2609.65 263.912 2607.73 265.695 Q2605.83 267.477 2605.83 270.602 Q2605.83 273.727 2607.73 275.509 Q2609.65 277.292 2612.98 277.292 Q2616.32 277.292 2618.24 275.509 Q2620.16 273.704 2620.16 270.602 Q2620.16 267.477 2618.24 265.695 Q2616.34 263.912 2612.98 263.912 M2608.31 261.922 Q2605.3 261.181 2603.61 259.121 Q2601.94 257.06 2601.94 254.097 Q2601.94 249.954 2604.88 247.547 Q2607.84 245.139 2612.98 245.139 Q2618.14 245.139 2621.08 247.547 Q2624.02 249.954 2624.02 254.097 Q2624.02 257.06 2622.33 259.121 Q2620.67 261.181 2617.68 261.922 Q2621.06 262.709 2622.94 265 Q2624.83 267.292 2624.83 270.602 Q2624.83 275.625 2621.76 278.31 Q2618.7 280.995 2612.98 280.995 Q2607.27 280.995 2604.19 278.31 Q2601.13 275.625 2601.13 270.602 Q2601.13 267.292 2603.03 265 Q2604.93 262.709 2608.31 261.922 M2606.59 254.537 Q2606.59 257.222 2608.26 258.727 Q2609.95 260.232 2612.98 260.232 Q2615.99 260.232 2617.68 258.727 Q2619.39 257.222 2619.39 254.537 Q2619.39 251.852 2617.68 250.347 Q2615.99 248.843 2612.98 248.843 Q2609.95 248.843 2608.26 250.347 Q2606.59 251.852 2606.59 254.537 Z" fill="#000000" fill-rule="nonzero" fill-opacity="1" /><path clip-path="url(#clip130)" d="M2558.47 170.825 L2566.11 170.825 L2566.11 144.46 L2557.8 146.126 L2557.8 141.867 L2566.06 140.2 L2570.74 140.2 L2570.74 170.825 L2578.38 170.825 L2578.38 174.76 L2558.47 174.76 L2558.47 170.825 Z" fill="#000000" fill-rule="nonzero" fill-opacity="1" /><path clip-path="url(#clip130)" d="M2587.82 168.881 L2592.7 168.881 L2592.7 174.76 L2587.82 174.76 L2587.82 168.881 Z" fill="#000000" fill-rule="nonzero" fill-opacity="1" /><path clip-path="url(#clip130)" d="M2612.89 143.279 Q2609.28 143.279 2607.45 146.844 Q2605.64 150.385 2605.64 157.515 Q2605.64 164.621 2607.45 168.186 Q2609.28 171.728 2612.89 171.728 Q2616.52 171.728 2618.33 168.186 Q2620.16 164.621 2620.16 157.515 Q2620.16 150.385 2618.33 146.844 Q2616.52 143.279 2612.89 143.279 M2612.89 139.575 Q2618.7 139.575 2621.76 144.182 Q2624.83 148.765 2624.83 157.515 Q2624.83 166.242 2621.76 170.848 Q2618.7 175.432 2612.89 175.432 Q2607.08 175.432 2604 170.848 Q2600.95 166.242 2600.95 157.515 Q2600.95 148.765 2604 144.182 Q2607.08 139.575 2612.89 139.575 Z" fill="#000000" fill-rule="nonzero" fill-opacity="1" /></svg>
