<?xml version="1.0" encoding="utf-8"?>
<svg xmlns="http://www.w3.org/2000/svg" xmlns:xlink="http://www.w3.org/1999/xlink" width="300" height="220" viewBox="0 0 1200 880">
<defs>
  <clipPath id="clip710">
    <rect x="0" y="0" width="1200" height="880"/>
  </clipPath>
</defs>
<path clip-path="url(#clip710)" d="M0 880 L1200 880 L1200 1.13687e-13 L0 1.13687e-13  Z" fill="#ffffff" fill-rule="evenodd" fill-opacity="1"/>
<defs>
  <clipPath id="clip711">
    <rect x="340" y="253" width="729" height="446"/>
  </clipPath>
</defs>
<path clip-path="url(#clip710)" d="M350.688 532.211 L1042.52 532.211 L1042.52 220.748 L350.688 220.748  Z" fill="#ffffff" fill-rule="evenodd" fill-opacity="1"/>
<defs>
  <clipPath id="clip712">
    <rect x="350" y="220" width="693" height="312"/>
  </clipPath>
</defs>
<polyline clip-path="url(#clip712)" style="stroke:#000000; stroke-linecap:round; stroke-linejoin:round; stroke-width:2; stroke-opacity:0.1; fill:none" points="370.268,532.211 370.268,220.748 "/>
<polyline clip-path="url(#clip712)" style="stroke:#000000; stroke-linecap:round; stroke-linejoin:round; stroke-width:2; stroke-opacity:0.1; fill:none" points="587.825,532.211 587.825,220.748 "/>
<polyline clip-path="url(#clip712)" style="stroke:#000000; stroke-linecap:round; stroke-linejoin:round; stroke-width:2; stroke-opacity:0.1; fill:none" points="805.382,532.211 805.382,220.748 "/>
<polyline clip-path="url(#clip712)" style="stroke:#000000; stroke-linecap:round; stroke-linejoin:round; stroke-width:2; stroke-opacity:0.1; fill:none" points="1022.94,532.211 1022.94,220.748 "/>
<polyline clip-path="url(#clip712)" style="stroke:#000000; stroke-linecap:round; stroke-linejoin:round; stroke-width:2; stroke-opacity:0.1; fill:none" points="350.688,531.402 1042.52,531.402 "/>
<polyline clip-path="url(#clip712)" style="stroke:#000000; stroke-linecap:round; stroke-linejoin:round; stroke-width:2; stroke-opacity:0.1; fill:none" points="350.688,459.364 1042.52,459.364 "/>
<polyline clip-path="url(#clip712)" style="stroke:#000000; stroke-linecap:round; stroke-linejoin:round; stroke-width:2; stroke-opacity:0.1; fill:none" points="350.688,387.325 1042.52,387.325 "/>
<polyline clip-path="url(#clip712)" style="stroke:#000000; stroke-linecap:round; stroke-linejoin:round; stroke-width:2; stroke-opacity:0.1; fill:none" points="350.688,315.287 1042.52,315.287 "/>
<polyline clip-path="url(#clip712)" style="stroke:#000000; stroke-linecap:round; stroke-linejoin:round; stroke-width:2; stroke-opacity:0.1; fill:none" points="350.688,243.249 1042.52,243.249 "/>
<polyline clip-path="url(#clip710)" style="stroke:#000000; stroke-linecap:round; stroke-linejoin:round; stroke-width:4; stroke-opacity:1; fill:none" points="350.688,532.211 1042.52,532.211 "/>
<polyline clip-path="url(#clip710)" style="stroke:#000000; stroke-linecap:round; stroke-linejoin:round; stroke-width:4; stroke-opacity:1; fill:none" points="370.268,532.211 370.268,513.314 "/>
<polyline clip-path="url(#clip710)" style="stroke:#000000; stroke-linecap:round; stroke-linejoin:round; stroke-width:4; stroke-opacity:1; fill:none" points="587.825,532.211 587.825,513.314 "/>
<polyline clip-path="url(#clip710)" style="stroke:#000000; stroke-linecap:round; stroke-linejoin:round; stroke-width:4; stroke-opacity:1; fill:none" points="805.382,532.211 805.382,513.314 "/>
<polyline clip-path="url(#clip710)" style="stroke:#000000; stroke-linecap:round; stroke-linejoin:round; stroke-width:4; stroke-opacity:1; fill:none" points="1022.94,532.211 1022.94,513.314 "/>
<path clip-path="url(#clip710)" d="M91.1474 661.378 Q89.7168 656.975 87.1027 655.147 Q84.5106 653.312 81.2304 654.377 Q77.9721 655.436 76.9317 658.451 Q75.9133 661.46 77.344 665.863 Q78.7674 670.244 81.3595 672.079 Q83.9736 673.907 87.2318 672.848 Q90.5121 671.782 91.5305 668.774 Q92.5709 665.759 91.1474 661.378 M98.3027 669.616 Q100.348 675.912 98.5468 679.881 Q96.7523 683.871 90.9844 685.746 Q88.8489 686.439 86.8483 686.724 Q84.8549 687.031 82.8571 686.95 L81.5767 683.01 Q83.6746 683.399 85.564 683.296 Q87.4534 683.193 89.2587 682.607 Q93.2434 681.312 94.5452 678.577 Q95.8542 675.864 94.4879 671.659 L93.837 669.655 Q93.2903 672.243 91.6815 673.958 Q90.0726 675.673 87.3428 676.56 Q82.8076 678.034 78.9107 675.479 Q75.0138 672.924 73.1611 667.222 Q71.3013 661.498 72.9521 657.14 Q74.603 652.782 79.1381 651.309 Q81.868 650.422 84.1778 650.864 Q86.4877 651.306 88.4507 653.078 L87.2347 649.335 L91.2854 648.019 L98.3027 669.616 Z" fill="#000000" fill-rule="nonzero" fill-opacity="1" /><path clip-path="url(#clip710)" d="M115.147 644.452 Q114.336 644.278 113.464 644.366 Q112.607 644.426 111.639 644.741 Q108.204 645.856 107.085 648.703 Q105.98 651.52 107.339 655.703 L111.559 668.692 L107.487 670.015 L99.475 645.358 L103.548 644.035 L104.792 647.866 Q105.34 645.205 107.037 643.461 Q108.726 641.695 111.654 640.744 Q112.073 640.608 112.6 640.509 Q113.121 640.389 113.773 640.299 L115.147 644.452 Z" fill="#000000" fill-rule="nonzero" fill-opacity="1" /><path clip-path="url(#clip710)" d="M127.652 639.343 Q124.394 640.401 123.331 643.57 Q122.26 646.717 123.698 651.142 Q125.136 655.567 127.837 657.513 Q130.553 659.429 133.833 658.364 Q137.069 657.312 138.133 654.143 Q139.196 650.974 137.765 646.571 Q136.342 642.19 133.619 640.252 Q130.889 638.291 127.652 639.343 M126.537 635.908 Q131.82 634.191 135.952 636.646 Q140.084 639.1 142.058 645.176 Q144.025 651.231 142.132 655.667 Q140.232 660.081 134.949 661.798 Q129.643 663.522 125.511 661.068 Q121.394 658.584 119.427 652.53 Q117.453 646.454 119.331 642.046 Q121.231 637.632 126.537 635.908 Z" fill="#000000" fill-rule="nonzero" fill-opacity="1" /><path clip-path="url(#clip710)" d="M149.192 645.706 L144.342 630.78 L148.393 629.464 L153.192 644.236 Q154.33 647.736 156.267 649.054 Q158.197 650.35 160.927 649.463 Q164.207 648.397 165.421 645.69 Q166.656 642.977 165.483 639.366 L160.941 625.387 L164.992 624.071 L173.003 648.727 L168.953 650.044 L167.722 646.257 Q166.977 648.982 165.375 650.719 Q163.788 652.427 161.213 653.264 Q156.964 654.645 153.904 652.718 Q150.844 650.792 149.192 645.706 M154.342 626.874 L154.342 626.874 Z" fill="#000000" fill-rule="nonzero" fill-opacity="1" /><path clip-path="url(#clip710)" d="M184.064 641.045 L188.313 654.122 L184.24 655.445 L173.182 621.41 L177.254 620.086 L178.47 623.829 Q179.032 621.212 180.626 619.526 Q182.235 617.811 184.943 616.931 Q189.434 615.472 193.388 618.13 Q197.365 620.781 199.254 626.593 Q201.142 632.405 199.483 636.887 Q197.846 641.361 193.355 642.821 Q190.647 643.701 188.344 643.28 Q186.056 642.831 184.064 641.045 M195.049 627.959 Q193.597 623.49 190.925 621.559 Q188.268 619.599 185.053 620.643 Q181.839 621.688 180.82 624.842 Q179.815 627.968 181.267 632.437 Q182.719 636.906 185.376 638.866 Q188.048 640.797 191.262 639.752 Q194.477 638.708 195.481 635.582 Q196.501 632.428 195.049 627.959 Z" fill="#000000" fill-rule="nonzero" fill-opacity="1" /><path clip-path="url(#clip710)" d="M217.271 603.092 L221.256 615.355 L233.518 611.37 L234.734 615.113 L222.472 619.097 L226.456 631.36 L222.758 632.561 L218.773 620.299 L206.511 624.283 L205.295 620.541 L217.557 616.556 L213.573 604.294 L217.271 603.092 Z" fill="#000000" fill-rule="nonzero" fill-opacity="1" /><path clip-path="url(#clip710)" d="M255.688 595.405 L256.933 599.235 Q254.929 598.913 252.937 599.073 Q250.945 599.234 248.963 599.878 Q245.947 600.858 244.729 602.276 Q243.532 603.687 244.133 605.536 Q244.591 606.945 245.934 607.409 Q247.27 607.851 250.765 607.519 L252.252 607.377 Q256.867 606.899 259.223 608.008 Q261.594 609.087 262.574 612.103 Q263.69 615.538 261.611 618.428 Q259.554 621.311 254.799 622.856 Q252.817 623.5 250.531 623.805 Q248.274 624.124 245.646 624.126 L244.287 619.944 Q246.912 620.381 249.284 620.267 Q251.65 620.131 253.785 619.437 Q256.647 618.507 257.874 617.038 Q259.093 615.547 258.513 613.763 Q257.977 612.112 256.568 611.597 Q255.181 611.074 251.152 611.482 L249.636 611.61 Q245.613 612.04 243.411 610.955 Q241.201 609.847 240.271 606.986 Q239.141 603.507 240.992 600.813 Q242.842 598.118 247.377 596.645 Q249.623 595.915 251.712 595.602 Q253.8 595.288 255.688 595.405 Z" fill="#000000" fill-rule="nonzero" fill-opacity="1" /><path clip-path="url(#clip710)" d="M273.952 611.838 L278.201 624.915 L274.128 626.239 L263.069 592.203 L267.142 590.88 L268.358 594.623 Q268.919 592.006 270.513 590.32 Q272.122 588.605 274.83 587.725 Q279.321 586.265 283.276 588.923 Q287.253 591.574 289.141 597.386 Q291.03 603.198 289.37 607.68 Q287.733 612.155 283.242 613.614 Q280.534 614.494 278.232 614.074 Q275.944 613.625 273.952 611.838 M284.936 598.753 Q283.484 594.284 280.812 592.353 Q278.155 590.393 274.941 591.437 Q271.727 592.481 270.707 595.636 Q269.703 598.761 271.155 603.23 Q272.607 607.699 275.264 609.66 Q277.936 611.59 281.15 610.546 Q284.364 609.502 285.369 606.376 Q286.388 603.222 284.936 598.753 Z" fill="#000000" fill-rule="nonzero" fill-opacity="1" /><path clip-path="url(#clip710)" d="M316.61 587.317 L317.254 589.299 L298.629 595.35 Q300.252 599.447 303.213 600.919 Q306.189 602.362 310.218 601.053 Q312.551 600.294 314.545 599.014 Q316.56 597.726 318.346 595.88 L319.59 599.711 Q317.711 601.344 315.579 602.572 Q313.447 603.8 311.091 604.566 Q305.191 606.483 300.619 604.171 Q296.069 601.853 294.166 595.997 Q292.199 589.943 294.306 585.34 Q296.427 580.708 301.975 578.905 Q306.95 577.288 310.878 579.565 Q314.822 581.813 316.61 587.317 M312.173 587.445 Q311.049 584.135 308.578 582.747 Q306.129 581.352 303.135 582.325 Q299.744 583.427 298.319 586.007 Q296.916 588.581 297.738 592.159 L312.173 587.445 Z" fill="#000000" fill-rule="nonzero" fill-opacity="1" /><path clip-path="url(#clip710)" d="M344.349 578.304 L344.993 580.286 L326.368 586.337 Q327.991 590.434 330.952 591.906 Q333.928 593.349 337.957 592.04 Q340.29 591.282 342.284 590.001 Q344.299 588.713 346.085 586.867 L347.329 590.698 Q345.45 592.331 343.318 593.559 Q341.186 594.787 338.83 595.553 Q332.93 597.47 328.358 595.159 Q323.808 592.84 321.905 586.984 Q319.938 580.93 322.044 576.327 Q324.166 571.695 329.714 569.892 Q334.689 568.275 338.617 570.553 Q342.561 572.8 344.349 578.304 M339.912 578.432 Q338.788 575.122 336.317 573.734 Q333.868 572.339 330.874 573.312 Q327.483 574.414 326.058 576.994 Q324.655 579.568 325.477 583.146 L339.912 578.432 Z" fill="#000000" fill-rule="nonzero" fill-opacity="1" /><path clip-path="url(#clip710)" d="M364.762 563.299 L360.427 549.958 L364.478 548.642 L375.608 582.897 L371.557 584.213 L370.356 580.515 Q369.794 583.131 368.185 584.847 Q366.591 586.533 363.861 587.42 Q359.392 588.872 355.416 586.221 Q351.461 583.563 349.573 577.751 Q347.684 571.939 349.321 567.464 Q350.98 562.982 355.449 561.53 Q358.179 560.643 360.467 561.092 Q362.77 561.512 364.762 563.299 M353.755 576.392 Q355.207 580.861 357.864 582.821 Q360.536 584.752 363.751 583.707 Q366.965 582.663 367.991 579.531 Q369.011 576.376 367.559 571.907 Q366.107 567.438 363.435 565.507 Q360.756 563.554 357.542 564.598 Q354.327 565.643 353.308 568.797 Q352.303 571.923 353.755 576.392 Z" fill="#000000" fill-rule="nonzero" fill-opacity="1" /><path clip-path="url(#clip710)" d="M466.222 592.892 L470.206 605.154 L482.469 601.17 L483.685 604.913 L471.422 608.897 L475.407 621.159 L471.708 622.361 L467.724 610.099 L455.461 614.083 L454.245 610.34 L466.508 606.356 L462.523 594.094 L466.222 592.892 Z" fill="#000000" fill-rule="nonzero" fill-opacity="1" /><path clip-path="url(#clip710)" d="M504.202 588.729 Q503.391 588.555 502.519 588.643 Q501.662 588.703 500.693 589.018 Q497.259 590.133 496.139 592.98 Q495.034 595.797 496.394 599.98 L500.614 612.969 L496.541 614.292 L488.53 589.635 L492.602 588.312 L493.847 592.143 Q494.394 589.482 496.091 587.738 Q497.781 585.972 500.709 585.021 Q501.127 584.885 501.655 584.786 Q502.176 584.666 502.828 584.576 L504.202 588.729 Z" fill="#000000" fill-rule="nonzero" fill-opacity="1" /><path clip-path="url(#clip710)" d="M522.41 592.184 Q517.501 593.779 515.972 595.517 Q514.444 597.255 515.324 599.963 Q516.025 602.12 517.849 602.939 Q519.687 603.729 522.131 602.935 Q525.499 601.841 526.752 598.805 Q528.02 595.74 526.732 591.777 L526.439 590.875 L522.41 592.184 M529.946 587.885 L534.517 601.953 L530.466 603.269 L529.25 599.527 Q528.593 602.223 526.874 603.974 Q525.148 605.703 522.154 606.676 Q518.367 607.906 515.435 606.522 Q512.518 605.109 511.359 601.543 Q510.007 597.382 512.094 594.367 Q514.203 591.346 519.729 589.55 L525.409 587.705 L525.28 587.308 Q524.372 584.512 522.029 583.594 Q519.701 582.647 516.377 583.727 Q514.263 584.414 512.424 585.571 Q510.586 586.728 509.065 588.342 L507.849 584.599 Q509.794 583.018 511.749 581.92 Q513.698 580.801 515.679 580.157 Q521.029 578.419 524.572 580.334 Q528.115 582.25 529.946 587.885 Z" fill="#000000" fill-rule="nonzero" fill-opacity="1" /><path clip-path="url(#clip710)" d="M558.521 577.7 L563.357 592.582 L559.306 593.899 L554.513 579.149 Q553.376 575.648 551.446 574.352 Q549.516 573.057 546.786 573.944 Q543.506 575.01 542.292 577.716 Q541.078 580.423 542.252 584.033 L546.779 597.969 L542.707 599.292 L534.695 574.635 L538.768 573.312 L540.013 577.142 Q540.743 574.447 542.345 572.709 Q543.969 570.965 546.544 570.128 Q550.793 568.747 553.831 570.681 Q556.862 572.593 558.521 577.7 Z" fill="#000000" fill-rule="nonzero" fill-opacity="1" /><path clip-path="url(#clip710)" d="M560.152 555.752 L564.225 554.429 L570.799 574.66 L579.43 560.1 L584.603 558.419 L575.275 574.204 L593.165 582.897 L587.882 584.614 L571.442 576.642 L575.355 588.684 L571.282 590.007 L560.152 555.752 Z" fill="#000000" fill-rule="nonzero" fill-opacity="1" /><path clip-path="url(#clip710)" d="M634.377 608.943 L638.361 621.206 L650.624 617.222 L651.84 620.964 L639.578 624.948 L643.562 637.211 L639.863 638.413 L635.879 626.15 L623.617 630.134 L622.401 626.392 L634.663 622.408 L630.679 610.145 L634.377 608.943 Z" fill="#000000" fill-rule="nonzero" fill-opacity="1" /><path clip-path="url(#clip710)" d="M681.606 610.1 L682.25 612.081 L663.625 618.133 Q665.248 622.23 668.209 623.702 Q671.185 625.144 675.214 623.835 Q677.547 623.077 679.541 621.797 Q681.556 620.509 683.342 618.663 L684.586 622.494 Q682.707 624.127 680.575 625.355 Q678.443 626.583 676.087 627.348 Q670.187 629.266 665.615 626.954 Q661.065 624.636 659.162 618.78 Q657.195 612.726 659.302 608.123 Q661.423 603.49 666.971 601.688 Q671.946 600.071 675.875 602.348 Q679.818 604.596 681.606 610.1 M677.169 610.227 Q676.045 606.917 673.574 605.53 Q671.125 604.135 668.131 605.108 Q664.74 606.209 663.315 608.79 Q661.912 611.363 662.734 614.942 L677.169 610.227 Z" fill="#000000" fill-rule="nonzero" fill-opacity="1" /><path clip-path="url(#clip710)" d="M684.578 596.624 L688.629 595.308 L696.64 619.965 L692.589 621.281 L684.578 596.624 M681.459 587.025 L685.51 585.709 L687.177 590.839 L683.126 592.155 L681.459 587.025 Z" fill="#000000" fill-rule="nonzero" fill-opacity="1" /><path clip-path="url(#clip710)" d="M717.242 599.324 Q715.812 594.921 713.198 593.093 Q710.606 591.258 707.325 592.324 Q704.067 593.383 703.027 596.398 Q702.008 599.406 703.439 603.809 Q704.862 608.19 707.454 610.025 Q710.069 611.853 713.327 610.795 Q716.607 609.729 717.625 606.721 Q718.666 603.705 717.242 599.324 M724.398 607.563 Q726.443 613.859 724.642 617.827 Q722.847 621.818 717.079 623.692 Q714.944 624.386 712.943 624.671 Q710.95 624.978 708.952 624.897 L707.672 620.956 Q709.77 621.345 711.659 621.243 Q713.548 621.14 715.354 620.553 Q719.338 619.259 720.64 616.523 Q721.949 613.81 720.583 609.605 L719.932 607.602 Q719.385 610.189 717.776 611.904 Q716.168 613.62 713.438 614.507 Q708.903 615.98 705.006 613.425 Q701.109 610.87 699.256 605.168 Q697.396 599.444 699.047 595.087 Q700.698 590.729 705.233 589.256 Q707.963 588.369 710.273 588.811 Q712.583 589.253 714.546 591.025 L713.33 587.282 L717.38 585.966 L724.398 607.563 Z" fill="#000000" fill-rule="nonzero" fill-opacity="1" /><path clip-path="url(#clip710)" d="M743.165 581.725 L738.83 568.384 L742.881 567.068 L754.011 601.324 L749.961 602.64 L748.759 598.941 Q748.197 601.558 746.589 603.273 Q744.995 604.959 742.265 605.846 Q737.796 607.298 733.819 604.647 Q729.864 601.989 727.976 596.177 Q726.087 590.365 727.724 585.891 Q729.384 581.409 733.853 579.956 Q736.583 579.069 738.87 579.519 Q741.173 579.939 743.165 581.725 M732.159 594.818 Q733.611 599.287 736.268 601.247 Q738.94 603.178 742.154 602.134 Q745.368 601.09 746.395 597.957 Q747.414 594.802 745.962 590.333 Q744.51 585.864 741.838 583.933 Q739.159 581.981 735.945 583.025 Q732.731 584.069 731.711 587.224 Q730.707 590.349 732.159 594.818 Z" fill="#000000" fill-rule="nonzero" fill-opacity="1" /><path clip-path="url(#clip710)" d="M754.344 573.956 L758.394 572.639 L766.406 597.296 L762.355 598.613 L754.344 573.956 M751.225 564.357 L755.276 563.041 L756.942 568.17 L752.892 569.487 L751.225 564.357 Z" fill="#000000" fill-rule="nonzero" fill-opacity="1" /><path clip-path="url(#clip710)" d="M782.825 565.505 L784.07 569.335 Q782.066 569.013 780.074 569.173 Q778.082 569.334 776.1 569.978 Q773.084 570.958 771.866 572.376 Q770.669 573.787 771.27 575.636 Q771.728 577.045 773.071 577.509 Q774.407 577.951 777.902 577.619 L779.389 577.477 Q784.004 576.999 786.36 578.108 Q788.731 579.187 789.711 582.203 Q790.827 585.638 788.748 588.528 Q786.691 591.411 781.936 592.956 Q779.955 593.6 777.668 593.905 Q775.411 594.224 772.783 594.226 L771.424 590.043 Q774.049 590.481 776.421 590.367 Q778.787 590.231 780.922 589.537 Q783.784 588.607 785.011 587.138 Q786.23 585.647 785.65 583.863 Q785.114 582.212 783.705 581.696 Q782.318 581.174 778.289 581.582 L776.773 581.71 Q772.751 582.14 770.548 581.055 Q768.338 579.947 767.409 577.085 Q766.278 573.607 768.129 570.913 Q769.979 568.218 774.514 566.745 Q776.76 566.015 778.849 565.701 Q780.937 565.388 782.825 565.505 Z" fill="#000000" fill-rule="nonzero" fill-opacity="1" /><path clip-path="url(#clip710)" d="M792.092 553.95 L794.367 560.951 L802.711 558.24 L803.734 561.388 L795.39 564.099 L799.739 577.485 Q800.719 580.501 801.813 581.095 Q802.928 581.681 805.46 580.859 L809.621 579.507 L810.722 582.897 L806.561 584.249 Q801.872 585.773 799.524 584.613 Q797.168 583.431 795.666 578.808 L791.317 565.423 L788.345 566.388 L787.322 563.24 L790.294 562.275 L788.02 555.274 L792.092 553.95 Z" fill="#000000" fill-rule="nonzero" fill-opacity="1" /><path clip-path="url(#clip710)" d="M933.104 582.57 L937.088 594.832 L949.351 590.848 L950.567 594.591 L938.304 598.575 L942.288 610.837 L938.59 612.039 L934.606 599.777 L922.343 603.761 L921.127 600.018 L933.39 596.034 L929.405 583.772 L933.104 582.57 Z" fill="#000000" fill-rule="nonzero" fill-opacity="1" /><path clip-path="url(#clip710)" d="M980.333 583.726 L980.976 585.708 L962.352 591.759 Q963.975 595.856 966.936 597.328 Q969.912 598.771 973.94 597.462 Q976.274 596.704 978.267 595.423 Q980.283 594.135 982.068 592.29 L983.313 596.12 Q981.434 597.753 979.302 598.981 Q977.17 600.21 974.814 600.975 Q968.914 602.892 964.342 600.581 Q959.792 598.262 957.889 592.406 Q955.922 586.352 958.028 581.749 Q960.15 577.117 965.697 575.314 Q970.673 573.697 974.601 575.975 Q978.544 578.223 980.333 583.726 M975.896 583.854 Q974.771 580.544 972.3 579.156 Q969.851 577.761 966.857 578.734 Q963.467 579.836 962.042 582.416 Q960.639 584.99 961.461 588.568 L975.896 583.854 Z" fill="#000000" fill-rule="nonzero" fill-opacity="1" /><path clip-path="url(#clip710)" d="M985.037 561.948 L987.311 568.948 L995.655 566.237 L996.678 569.386 L988.334 572.097 L992.683 585.482 Q993.663 588.498 994.757 589.092 Q995.872 589.679 998.404 588.856 L1002.56 587.504 L1003.67 590.894 L999.506 592.246 Q994.816 593.77 992.468 592.61 Q990.113 591.428 988.61 586.805 L984.261 573.42 L981.289 574.386 L980.266 571.237 L983.238 570.272 L980.964 563.271 L985.037 561.948 Z" fill="#000000" fill-rule="nonzero" fill-opacity="1" /><path clip-path="url(#clip710)" d="M1016.17 573.128 Q1011.26 574.723 1009.73 576.461 Q1008.21 578.199 1009.09 580.907 Q1009.79 583.064 1011.61 583.883 Q1013.45 584.673 1015.89 583.879 Q1019.26 582.785 1020.51 579.749 Q1021.78 576.684 1020.49 572.721 L1020.2 571.819 L1016.17 573.128 M1023.71 568.829 L1028.28 582.897 L1024.23 584.213 L1023.01 580.471 Q1022.36 583.167 1020.64 584.918 Q1018.91 586.647 1015.92 587.62 Q1012.13 588.85 1009.2 587.466 Q1006.28 586.054 1005.12 582.487 Q1003.77 578.326 1005.86 575.311 Q1007.97 572.29 1013.49 570.494 L1019.17 568.649 L1019.04 568.252 Q1018.13 565.456 1015.79 564.538 Q1013.46 563.591 1010.14 564.671 Q1008.03 565.358 1006.19 566.515 Q1004.35 567.672 1002.83 569.286 L1001.61 565.543 Q1003.56 563.962 1005.51 562.864 Q1007.46 561.745 1009.44 561.101 Q1014.79 559.363 1018.33 561.278 Q1021.88 563.194 1023.71 568.829 Z" fill="#000000" fill-rule="nonzero" fill-opacity="1" /><path clip-path="url(#clip710)" d="M470.967 709.412 L463.832 728.761 L478.129 728.761 L470.967 709.412 M467.998 704.229 L473.962 704.229 L488.78 743.109 L483.311 743.109 L479.769 733.136 L462.243 733.136 L458.702 743.109 L453.155 743.109 L467.998 704.229 Z" fill="#000000" fill-rule="nonzero" fill-opacity="1" /><path clip-path="url(#clip710)" d="M512.503 718.37 L512.503 702.589 L517.295 702.589 L517.295 743.109 L512.503 743.109 L512.503 738.735 Q510.993 741.339 508.675 742.615 Q506.384 743.865 503.154 743.865 Q497.868 743.865 494.535 739.646 Q491.227 735.427 491.227 728.552 Q491.227 721.677 494.535 717.459 Q497.868 713.24 503.154 713.24 Q506.384 713.24 508.675 714.516 Q510.993 715.766 512.503 718.37 M496.175 728.552 Q496.175 733.839 498.337 736.86 Q500.524 739.854 504.326 739.854 Q508.128 739.854 510.316 736.86 Q512.503 733.839 512.503 728.552 Q512.503 723.266 510.316 720.271 Q508.128 717.25 504.326 717.25 Q500.524 717.25 498.337 720.271 Q496.175 723.266 496.175 728.552 Z" fill="#000000" fill-rule="nonzero" fill-opacity="1" /><path clip-path="url(#clip710)" d="M546.357 718.37 L546.357 702.589 L551.149 702.589 L551.149 743.109 L546.357 743.109 L546.357 738.735 Q544.847 741.339 542.529 742.615 Q540.238 743.865 537.008 743.865 Q531.722 743.865 528.389 739.646 Q525.081 735.427 525.081 728.552 Q525.081 721.677 528.389 717.459 Q531.722 713.24 537.008 713.24 Q540.238 713.24 542.529 714.516 Q544.847 715.766 546.357 718.37 M530.029 728.552 Q530.029 733.839 532.191 736.86 Q534.378 739.854 538.18 739.854 Q541.982 739.854 544.17 736.86 Q546.357 733.839 546.357 728.552 Q546.357 723.266 544.17 720.271 Q541.982 717.25 538.18 717.25 Q534.378 717.25 532.191 720.271 Q530.029 723.266 530.029 728.552 Z" fill="#000000" fill-rule="nonzero" fill-opacity="1" /><path clip-path="url(#clip710)" d="M585.967 727.328 L585.967 729.672 L563.935 729.672 Q564.248 734.62 566.904 737.224 Q569.586 739.802 574.352 739.802 Q577.112 739.802 579.691 739.125 Q582.295 738.448 584.847 737.094 L584.847 741.625 Q582.269 742.719 579.56 743.292 Q576.852 743.865 574.066 743.865 Q567.086 743.865 562.998 739.802 Q558.935 735.74 558.935 728.813 Q558.935 721.651 562.79 717.459 Q566.67 713.24 573.232 713.24 Q579.118 713.24 582.529 717.042 Q585.967 720.818 585.967 727.328 M581.175 725.922 Q581.123 721.99 578.961 719.646 Q576.826 717.302 573.284 717.302 Q569.274 717.302 566.852 719.568 Q564.456 721.834 564.092 725.948 L581.175 725.922 Z" fill="#000000" fill-rule="nonzero" fill-opacity="1" /><path clip-path="url(#clip710)" d="M613.024 718.37 L613.024 702.589 L617.815 702.589 L617.815 743.109 L613.024 743.109 L613.024 738.735 Q611.513 741.339 609.196 742.615 Q606.904 743.865 603.675 743.865 Q598.388 743.865 595.055 739.646 Q591.748 735.427 591.748 728.552 Q591.748 721.677 595.055 717.459 Q598.388 713.24 603.675 713.24 Q606.904 713.24 609.196 714.516 Q611.513 715.766 613.024 718.37 M596.696 728.552 Q596.696 733.839 598.857 736.86 Q601.045 739.854 604.847 739.854 Q608.649 739.854 610.836 736.86 Q613.024 733.839 613.024 728.552 Q613.024 723.266 610.836 720.271 Q608.649 717.25 604.847 717.25 Q601.045 717.25 598.857 720.271 Q596.696 723.266 596.696 728.552 Z" fill="#000000" fill-rule="nonzero" fill-opacity="1" /><path clip-path="url(#clip710)" d="M665.628 715.063 L665.628 719.542 Q663.596 718.422 661.539 717.875 Q659.508 717.302 657.424 717.302 Q652.763 717.302 650.185 720.271 Q647.607 723.214 647.607 728.552 Q647.607 733.891 650.185 736.86 Q652.763 739.802 657.424 739.802 Q659.508 739.802 661.539 739.255 Q663.596 738.682 665.628 737.563 L665.628 741.99 Q663.622 742.927 661.461 743.396 Q659.326 743.865 656.904 743.865 Q650.315 743.865 646.435 739.724 Q642.555 735.583 642.555 728.552 Q642.555 721.417 646.461 717.328 Q650.393 713.24 657.216 713.24 Q659.43 713.24 661.539 713.709 Q663.648 714.151 665.628 715.063 Z" fill="#000000" fill-rule="nonzero" fill-opacity="1" /><path clip-path="url(#clip710)" d="M685.263 717.302 Q681.409 717.302 679.169 720.323 Q676.93 723.318 676.93 728.552 Q676.93 733.787 679.143 736.807 Q681.383 739.802 685.263 739.802 Q689.091 739.802 691.331 736.781 Q693.57 733.761 693.57 728.552 Q693.57 723.37 691.331 720.349 Q689.091 717.302 685.263 717.302 M685.263 713.24 Q691.513 713.24 695.081 717.302 Q698.648 721.365 698.648 728.552 Q698.648 735.714 695.081 739.802 Q691.513 743.865 685.263 743.865 Q678.987 743.865 675.419 739.802 Q671.878 735.714 671.878 728.552 Q671.878 721.365 675.419 717.302 Q678.987 713.24 685.263 713.24 Z" fill="#000000" fill-rule="nonzero" fill-opacity="1" /><path clip-path="url(#clip710)" d="M729.299 719.542 Q731.096 716.313 733.596 714.776 Q736.096 713.24 739.481 713.24 Q744.039 713.24 746.513 716.443 Q748.986 719.62 748.986 725.505 L748.986 743.109 L744.169 743.109 L744.169 725.662 Q744.169 721.469 742.684 719.438 Q741.2 717.407 738.153 717.407 Q734.429 717.407 732.268 719.88 Q730.106 722.354 730.106 726.625 L730.106 743.109 L725.289 743.109 L725.289 725.662 Q725.289 721.443 723.804 719.438 Q722.32 717.407 719.221 717.407 Q715.549 717.407 713.388 719.906 Q711.226 722.38 711.226 726.625 L711.226 743.109 L706.409 743.109 L706.409 713.943 L711.226 713.943 L711.226 718.474 Q712.867 715.792 715.159 714.516 Q717.45 713.24 720.601 713.24 Q723.778 713.24 725.992 714.854 Q728.231 716.469 729.299 719.542 Z" fill="#000000" fill-rule="nonzero" fill-opacity="1" /><path clip-path="url(#clip710)" d="M763.179 738.735 L763.179 754.203 L758.361 754.203 L758.361 713.943 L763.179 713.943 L763.179 718.37 Q764.69 715.766 766.981 714.516 Q769.299 713.24 772.502 713.24 Q777.814 713.24 781.122 717.459 Q784.455 721.677 784.455 728.552 Q784.455 735.427 781.122 739.646 Q777.814 743.865 772.502 743.865 Q769.299 743.865 766.981 742.615 Q764.69 741.339 763.179 738.735 M779.481 728.552 Q779.481 723.266 777.294 720.271 Q775.132 717.25 771.33 717.25 Q767.528 717.25 765.341 720.271 Q763.179 723.266 763.179 728.552 Q763.179 733.839 765.341 736.86 Q767.528 739.854 771.33 739.854 Q775.132 739.854 777.294 736.86 Q779.481 733.839 779.481 728.552 Z" fill="#000000" fill-rule="nonzero" fill-opacity="1" /><path clip-path="url(#clip710)" d="M803.7 717.302 Q799.846 717.302 797.606 720.323 Q795.366 723.318 795.366 728.552 Q795.366 733.787 797.58 736.807 Q799.82 739.802 803.7 739.802 Q807.528 739.802 809.767 736.781 Q812.007 733.761 812.007 728.552 Q812.007 723.37 809.767 720.349 Q807.528 717.302 803.7 717.302 M803.7 713.24 Q809.95 713.24 813.517 717.302 Q817.085 721.365 817.085 728.552 Q817.085 735.714 813.517 739.802 Q809.95 743.865 803.7 743.865 Q797.424 743.865 793.856 739.802 Q790.314 735.714 790.314 728.552 Q790.314 721.365 793.856 717.302 Q797.424 713.24 803.7 713.24 Z" fill="#000000" fill-rule="nonzero" fill-opacity="1" /><path clip-path="url(#clip710)" d="M849.272 725.505 L849.272 743.109 L844.481 743.109 L844.481 725.662 Q844.481 721.521 842.866 719.464 Q841.252 717.407 838.022 717.407 Q834.142 717.407 831.903 719.88 Q829.663 722.354 829.663 726.625 L829.663 743.109 L824.845 743.109 L824.845 713.943 L829.663 713.943 L829.663 718.474 Q831.382 715.844 833.7 714.542 Q836.043 713.24 839.09 713.24 Q844.116 713.24 846.694 716.365 Q849.272 719.464 849.272 725.505 Z" fill="#000000" fill-rule="nonzero" fill-opacity="1" /><path clip-path="url(#clip710)" d="M883.777 727.328 L883.777 729.672 L861.746 729.672 Q862.059 734.62 864.715 737.224 Q867.397 739.802 872.163 739.802 Q874.923 739.802 877.501 739.125 Q880.106 738.448 882.658 737.094 L882.658 741.625 Q880.08 742.719 877.371 743.292 Q874.663 743.865 871.876 743.865 Q864.897 743.865 860.809 739.802 Q856.746 735.74 856.746 728.813 Q856.746 721.651 860.6 717.459 Q864.481 713.24 871.043 713.24 Q876.929 713.24 880.34 717.042 Q883.777 720.818 883.777 727.328 M878.986 725.922 Q878.934 721.99 876.772 719.646 Q874.637 717.302 871.095 717.302 Q867.085 717.302 864.663 719.568 Q862.267 721.834 861.903 725.948 L878.986 725.922 Z" fill="#000000" fill-rule="nonzero" fill-opacity="1" /><path clip-path="url(#clip710)" d="M915.887 725.505 L915.887 743.109 L911.095 743.109 L911.095 725.662 Q911.095 721.521 909.48 719.464 Q907.866 717.407 904.637 717.407 Q900.757 717.407 898.517 719.88 Q896.277 722.354 896.277 726.625 L896.277 743.109 L891.46 743.109 L891.46 713.943 L896.277 713.943 L896.277 718.474 Q897.996 715.844 900.314 714.542 Q902.658 713.24 905.704 713.24 Q910.73 713.24 913.309 716.365 Q915.887 719.464 915.887 725.505 Z" fill="#000000" fill-rule="nonzero" fill-opacity="1" /><path clip-path="url(#clip710)" d="M930.183 705.662 L930.183 713.943 L940.053 713.943 L940.053 717.667 L930.183 717.667 L930.183 733.5 Q930.183 737.068 931.147 738.083 Q932.137 739.099 935.131 739.099 L940.053 739.099 L940.053 743.109 L935.131 743.109 Q929.584 743.109 927.475 741.052 Q925.366 738.969 925.366 733.5 L925.366 717.667 L921.85 717.667 L921.85 713.943 L925.366 713.943 L925.366 705.662 L930.183 705.662 Z" fill="#000000" fill-rule="nonzero" fill-opacity="1" /><polyline clip-path="url(#clip710)" style="stroke:#000000; stroke-linecap:round; stroke-linejoin:round; stroke-width:4; stroke-opacity:1; fill:none" points="350.688,532.211 350.688,220.748 "/>
<polyline clip-path="url(#clip710)" style="stroke:#000000; stroke-linecap:round; stroke-linejoin:round; stroke-width:4; stroke-opacity:1; fill:none" points="350.688,531.402 369.586,531.402 "/>
<polyline clip-path="url(#clip710)" style="stroke:#000000; stroke-linecap:round; stroke-linejoin:round; stroke-width:4; stroke-opacity:1; fill:none" points="350.688,459.364 369.586,459.364 "/>
<polyline clip-path="url(#clip710)" style="stroke:#000000; stroke-linecap:round; stroke-linejoin:round; stroke-width:4; stroke-opacity:1; fill:none" points="350.688,387.325 369.586,387.325 "/>
<polyline clip-path="url(#clip710)" style="stroke:#000000; stroke-linecap:round; stroke-linejoin:round; stroke-width:4; stroke-opacity:1; fill:none" points="350.688,315.287 369.586,315.287 "/>
<polyline clip-path="url(#clip710)" style="stroke:#000000; stroke-linecap:round; stroke-linejoin:round; stroke-width:4; stroke-opacity:1; fill:none" points="350.688,243.249 369.586,243.249 "/>
<path clip-path="url(#clip710)" d="M225.744 531.853 L255.42 531.853 L255.42 535.788 L225.744 535.788 L225.744 531.853 Z" fill="#000000" fill-rule="nonzero" fill-opacity="1" /><path clip-path="url(#clip710)" d="M266.323 544.747 L273.962 544.747 L273.962 518.381 L265.652 520.048 L265.652 515.788 L273.915 514.122 L278.591 514.122 L278.591 544.747 L286.23 544.747 L286.23 548.682 L266.323 548.682 L266.323 544.747 Z" fill="#000000" fill-rule="nonzero" fill-opacity="1" /><path clip-path="url(#clip710)" d="M295.675 542.802 L300.559 542.802 L300.559 548.682 L295.675 548.682 L295.675 542.802 Z" fill="#000000" fill-rule="nonzero" fill-opacity="1" /><path clip-path="url(#clip710)" d="M320.744 517.201 Q317.133 517.201 315.304 520.765 Q313.499 524.307 313.499 531.437 Q313.499 538.543 315.304 542.108 Q317.133 545.649 320.744 545.649 Q324.378 545.649 326.184 542.108 Q328.012 538.543 328.012 531.437 Q328.012 524.307 326.184 520.765 Q324.378 517.201 320.744 517.201 M320.744 513.497 Q326.554 513.497 329.61 518.103 Q332.688 522.687 332.688 531.437 Q332.688 540.163 329.61 544.77 Q326.554 549.353 320.744 549.353 Q314.934 549.353 311.855 544.77 Q308.799 540.163 308.799 531.437 Q308.799 522.687 311.855 518.103 Q314.934 513.497 320.744 513.497 Z" fill="#000000" fill-rule="nonzero" fill-opacity="1" /><path clip-path="url(#clip710)" d="M226.74 459.815 L256.416 459.815 L256.416 463.75 L226.74 463.75 L226.74 459.815 Z" fill="#000000" fill-rule="nonzero" fill-opacity="1" /><path clip-path="url(#clip710)" d="M276.508 445.162 Q272.897 445.162 271.068 448.727 Q269.263 452.269 269.263 459.398 Q269.263 466.505 271.068 470.07 Q272.897 473.611 276.508 473.611 Q280.142 473.611 281.948 470.07 Q283.776 466.505 283.776 459.398 Q283.776 452.269 281.948 448.727 Q280.142 445.162 276.508 445.162 M276.508 441.459 Q282.318 441.459 285.374 446.065 Q288.452 450.648 288.452 459.398 Q288.452 468.125 285.374 472.732 Q282.318 477.315 276.508 477.315 Q270.698 477.315 267.619 472.732 Q264.564 468.125 264.564 459.398 Q264.564 450.648 267.619 446.065 Q270.698 441.459 276.508 441.459 Z" fill="#000000" fill-rule="nonzero" fill-opacity="1" /><path clip-path="url(#clip710)" d="M296.67 470.764 L301.554 470.764 L301.554 476.644 L296.67 476.644 L296.67 470.764 Z" fill="#000000" fill-rule="nonzero" fill-opacity="1" /><path clip-path="url(#clip710)" d="M311.786 442.084 L330.142 442.084 L330.142 446.019 L316.068 446.019 L316.068 454.491 Q317.086 454.144 318.105 453.982 Q319.124 453.796 320.142 453.796 Q325.929 453.796 329.309 456.968 Q332.688 460.139 332.688 465.556 Q332.688 471.134 329.216 474.236 Q325.744 477.315 319.424 477.315 Q317.249 477.315 314.98 476.944 Q312.735 476.574 310.327 475.833 L310.327 471.134 Q312.411 472.269 314.633 472.824 Q316.855 473.38 319.332 473.38 Q323.336 473.38 325.674 471.273 Q328.012 469.167 328.012 465.556 Q328.012 461.945 325.674 459.838 Q323.336 457.732 319.332 457.732 Q317.457 457.732 315.582 458.148 Q313.73 458.565 311.786 459.445 L311.786 442.084 Z" fill="#000000" fill-rule="nonzero" fill-opacity="1" /><path clip-path="url(#clip710)" d="M275.513 373.124 Q271.902 373.124 270.073 376.689 Q268.267 380.23 268.267 387.36 Q268.267 394.466 270.073 398.031 Q271.902 401.573 275.513 401.573 Q279.147 401.573 280.952 398.031 Q282.781 394.466 282.781 387.36 Q282.781 380.23 280.952 376.689 Q279.147 373.124 275.513 373.124 M275.513 369.42 Q281.323 369.42 284.378 374.027 Q287.457 378.61 287.457 387.36 Q287.457 396.087 284.378 400.693 Q281.323 405.277 275.513 405.277 Q269.702 405.277 266.624 400.693 Q263.568 396.087 263.568 387.36 Q263.568 378.61 266.624 374.027 Q269.702 369.42 275.513 369.42 Z" fill="#000000" fill-rule="nonzero" fill-opacity="1" /><path clip-path="url(#clip710)" d="M295.675 398.726 L300.559 398.726 L300.559 404.605 L295.675 404.605 L295.675 398.726 Z" fill="#000000" fill-rule="nonzero" fill-opacity="1" /><path clip-path="url(#clip710)" d="M320.744 373.124 Q317.133 373.124 315.304 376.689 Q313.499 380.23 313.499 387.36 Q313.499 394.466 315.304 398.031 Q317.133 401.573 320.744 401.573 Q324.378 401.573 326.184 398.031 Q328.012 394.466 328.012 387.36 Q328.012 380.23 326.184 376.689 Q324.378 373.124 320.744 373.124 M320.744 369.42 Q326.554 369.42 329.61 374.027 Q332.688 378.61 332.688 387.36 Q332.688 396.087 329.61 400.693 Q326.554 405.277 320.744 405.277 Q314.934 405.277 311.855 400.693 Q308.799 396.087 308.799 387.36 Q308.799 378.61 311.855 374.027 Q314.934 369.42 320.744 369.42 Z" fill="#000000" fill-rule="nonzero" fill-opacity="1" /><path clip-path="url(#clip710)" d="M276.508 301.086 Q272.897 301.086 271.068 304.65 Q269.263 308.192 269.263 315.322 Q269.263 322.428 271.068 325.993 Q272.897 329.535 276.508 329.535 Q280.142 329.535 281.948 325.993 Q283.776 322.428 283.776 315.322 Q283.776 308.192 281.948 304.65 Q280.142 301.086 276.508 301.086 M276.508 297.382 Q282.318 297.382 285.374 301.988 Q288.452 306.572 288.452 315.322 Q288.452 324.049 285.374 328.655 Q282.318 333.238 276.508 333.238 Q270.698 333.238 267.619 328.655 Q264.564 324.049 264.564 315.322 Q264.564 306.572 267.619 301.988 Q270.698 297.382 276.508 297.382 Z" fill="#000000" fill-rule="nonzero" fill-opacity="1" /><path clip-path="url(#clip710)" d="M296.67 326.687 L301.554 326.687 L301.554 332.567 L296.67 332.567 L296.67 326.687 Z" fill="#000000" fill-rule="nonzero" fill-opacity="1" /><path clip-path="url(#clip710)" d="M311.786 298.007 L330.142 298.007 L330.142 301.942 L316.068 301.942 L316.068 310.414 Q317.086 310.067 318.105 309.905 Q319.124 309.72 320.142 309.72 Q325.929 309.72 329.309 312.891 Q332.688 316.062 332.688 321.479 Q332.688 327.058 329.216 330.16 Q325.744 333.238 319.424 333.238 Q317.249 333.238 314.98 332.868 Q312.735 332.498 310.327 331.757 L310.327 327.058 Q312.411 328.192 314.633 328.748 Q316.855 329.303 319.332 329.303 Q323.336 329.303 325.674 327.197 Q328.012 325.09 328.012 321.479 Q328.012 317.868 325.674 315.762 Q323.336 313.655 319.332 313.655 Q317.457 313.655 315.582 314.072 Q313.73 314.488 311.786 315.368 L311.786 298.007 Z" fill="#000000" fill-rule="nonzero" fill-opacity="1" /><path clip-path="url(#clip710)" d="M266.323 256.594 L273.962 256.594 L273.962 230.228 L265.652 231.895 L265.652 227.635 L273.915 225.969 L278.591 225.969 L278.591 256.594 L286.23 256.594 L286.23 260.529 L266.323 260.529 L266.323 256.594 Z" fill="#000000" fill-rule="nonzero" fill-opacity="1" /><path clip-path="url(#clip710)" d="M295.675 254.649 L300.559 254.649 L300.559 260.529 L295.675 260.529 L295.675 254.649 Z" fill="#000000" fill-rule="nonzero" fill-opacity="1" /><path clip-path="url(#clip710)" d="M320.744 229.047 Q317.133 229.047 315.304 232.612 Q313.499 236.154 313.499 243.283 Q313.499 250.39 315.304 253.955 Q317.133 257.496 320.744 257.496 Q324.378 257.496 326.184 253.955 Q328.012 250.39 328.012 243.283 Q328.012 236.154 326.184 232.612 Q324.378 229.047 320.744 229.047 M320.744 225.344 Q326.554 225.344 329.61 229.95 Q332.688 234.534 332.688 243.283 Q332.688 252.01 329.61 256.617 Q326.554 261.2 320.744 261.2 Q314.934 261.2 311.855 256.617 Q308.799 252.01 308.799 243.283 Q308.799 234.534 311.855 229.95 Q314.934 225.344 320.744 225.344 Z" fill="#000000" fill-rule="nonzero" fill-opacity="1" /><path clip-path="url(#clip710)" d="M157.2 641.739 L157.2 636.479 L173.138 636.479 L173.138 617.364 L157.2 617.364 L157.2 612.104 L196.08 612.104 L196.08 617.364 L177.565 617.364 L177.565 636.479 L196.08 636.479 L196.08 641.739 L157.2 641.739 Z" fill="#000000" fill-rule="nonzero" fill-opacity="1" /><path clip-path="url(#clip710)" d="M157.2 601.635 L157.2 579.291 L161.627 579.291 L161.627 596.375 L173.086 596.375 L173.086 580.958 L177.513 580.958 L177.513 596.375 L196.08 596.375 L196.08 601.635 L157.2 601.635 Z" fill="#000000" fill-rule="nonzero" fill-opacity="1" /><path clip-path="url(#clip710)" d="M180.299 529.266 L182.643 529.266 L182.643 551.297 Q187.591 550.984 190.195 548.328 Q192.773 545.646 192.773 540.88 Q192.773 538.12 192.096 535.542 Q191.419 532.937 190.065 530.385 L194.596 530.385 Q195.69 532.963 196.263 535.672 Q196.836 538.38 196.836 541.167 Q196.836 548.146 192.773 552.234 Q188.711 556.297 181.784 556.297 Q174.622 556.297 170.429 552.443 Q166.211 548.562 166.211 542 Q166.211 536.114 170.013 532.703 Q173.789 529.266 180.299 529.266 M178.893 534.057 Q174.961 534.109 172.617 536.271 Q170.273 538.406 170.273 541.948 Q170.273 545.958 172.539 548.38 Q174.804 550.776 178.919 551.14 L178.893 534.057 Z" fill="#000000" fill-rule="nonzero" fill-opacity="1" /><path clip-path="url(#clip710)" d="M155.56 506.635 L159.544 506.635 L159.544 511.219 Q159.544 513.797 160.586 514.813 Q161.627 515.802 164.336 515.802 L166.914 515.802 L166.914 507.911 L170.638 507.911 L170.638 515.802 L196.08 515.802 L196.08 520.62 L170.638 520.62 L170.638 525.203 L166.914 525.203 L166.914 520.62 L164.883 520.62 Q160.013 520.62 157.799 518.354 Q155.56 516.089 155.56 511.167 L155.56 506.635 Z" fill="#000000" fill-rule="nonzero" fill-opacity="1" /><path clip-path="url(#clip710)" d="M155.56 487.86 L159.544 487.86 L159.544 492.443 Q159.544 495.021 160.586 496.037 Q161.627 497.026 164.336 497.026 L166.914 497.026 L166.914 489.136 L170.638 489.136 L170.638 497.026 L196.08 497.026 L196.08 501.844 L170.638 501.844 L170.638 506.427 L166.914 506.427 L166.914 501.844 L164.883 501.844 Q160.013 501.844 157.799 499.578 Q155.56 497.313 155.56 492.391 L155.56 487.86 Z" fill="#000000" fill-rule="nonzero" fill-opacity="1" /><path clip-path="url(#clip710)" d="M180.299 458.901 L182.643 458.901 L182.643 480.932 Q187.591 480.62 190.195 477.964 Q192.773 475.281 192.773 470.516 Q192.773 467.755 192.096 465.177 Q191.419 462.573 190.065 460.021 L194.596 460.021 Q195.69 462.599 196.263 465.308 Q196.836 468.016 196.836 470.802 Q196.836 477.781 192.773 481.87 Q188.711 485.932 181.784 485.932 Q174.622 485.932 170.429 482.078 Q166.211 478.198 166.211 471.636 Q166.211 465.75 170.013 462.339 Q173.789 458.901 180.299 458.901 M178.893 463.693 Q174.961 463.745 172.617 465.907 Q170.273 468.042 170.273 471.584 Q170.273 475.594 172.539 478.016 Q174.804 480.412 178.919 480.776 L178.893 463.693 Z" fill="#000000" fill-rule="nonzero" fill-opacity="1" /><path clip-path="url(#clip710)" d="M168.034 430.047 L172.513 430.047 Q171.393 432.079 170.846 434.136 Q170.273 436.167 170.273 438.25 Q170.273 442.912 173.242 445.49 Q176.185 448.068 181.523 448.068 Q186.862 448.068 189.83 445.49 Q192.773 442.912 192.773 438.25 Q192.773 436.167 192.226 434.136 Q191.653 432.079 190.534 430.047 L194.961 430.047 Q195.898 432.053 196.367 434.214 Q196.836 436.349 196.836 438.771 Q196.836 445.36 192.695 449.24 Q188.554 453.12 181.523 453.12 Q174.388 453.12 170.299 449.214 Q166.211 445.282 166.211 438.459 Q166.211 436.245 166.679 434.136 Q167.122 432.026 168.034 430.047 Z" fill="#000000" fill-rule="nonzero" fill-opacity="1" /><path clip-path="url(#clip710)" d="M158.633 416.974 L166.914 416.974 L166.914 407.105 L170.638 407.105 L170.638 416.974 L186.471 416.974 Q190.039 416.974 191.054 416.011 Q192.07 415.021 192.07 412.027 L192.07 407.105 L196.08 407.105 L196.08 412.027 Q196.08 417.573 194.023 419.683 Q191.94 421.792 186.471 421.792 L170.638 421.792 L170.638 425.308 L166.914 425.308 L166.914 421.792 L158.633 421.792 L158.633 416.974 Z" fill="#000000" fill-rule="nonzero" fill-opacity="1" /><path clip-path="url(#clip710)" d="M167.773 365.256 L172.304 365.256 Q171.263 367.287 170.742 369.475 Q170.221 371.662 170.221 374.006 Q170.221 377.574 171.315 379.371 Q172.409 381.141 174.596 381.141 Q176.263 381.141 177.226 379.865 Q178.164 378.589 179.023 374.735 L179.388 373.095 Q180.482 367.99 182.487 365.855 Q184.466 363.694 188.034 363.694 Q192.096 363.694 194.466 366.923 Q196.836 370.126 196.836 375.751 Q196.836 378.094 196.367 380.647 Q195.924 383.173 195.013 385.985 L190.065 385.985 Q191.445 383.329 192.148 380.751 Q192.825 378.173 192.825 375.647 Q192.825 372.261 191.679 370.438 Q190.507 368.615 188.398 368.615 Q186.445 368.615 185.403 369.943 Q184.362 371.246 183.398 375.699 L183.008 377.365 Q182.07 381.818 180.143 383.798 Q178.19 385.777 174.804 385.777 Q170.69 385.777 168.45 382.86 Q166.211 379.943 166.211 374.579 Q166.211 371.923 166.601 369.579 Q166.992 367.235 167.773 365.256 Z" fill="#000000" fill-rule="nonzero" fill-opacity="1" /><path clip-path="url(#clip710)" d="M166.914 356.063 L166.914 351.272 L196.08 351.272 L196.08 356.063 L166.914 356.063 M155.56 356.063 L155.56 351.272 L161.627 351.272 L161.627 356.063 L155.56 356.063 Z" fill="#000000" fill-rule="nonzero" fill-opacity="1" /><path clip-path="url(#clip710)" d="M166.914 343.329 L166.914 320.569 L171.289 320.569 L192.252 338.589 L192.252 320.569 L196.08 320.569 L196.08 343.98 L191.705 343.98 L170.742 325.959 L170.742 343.329 L166.914 343.329 Z" fill="#000000" fill-rule="nonzero" fill-opacity="1" /><path clip-path="url(#clip710)" d="M180.299 288.303 L182.643 288.303 L182.643 310.334 Q187.591 310.022 190.195 307.366 Q192.773 304.683 192.773 299.918 Q192.773 297.157 192.096 294.579 Q191.419 291.975 190.065 289.423 L194.596 289.423 Q195.69 292.001 196.263 294.71 Q196.836 297.418 196.836 300.204 Q196.836 307.183 192.773 311.272 Q188.711 315.334 181.784 315.334 Q174.622 315.334 170.429 311.48 Q166.211 307.6 166.211 301.038 Q166.211 295.152 170.013 291.741 Q173.789 288.303 180.299 288.303 M178.893 293.095 Q174.961 293.147 172.617 295.308 Q170.273 297.444 170.273 300.986 Q170.273 304.996 172.539 307.418 Q174.804 309.814 178.919 310.178 L178.893 293.095 Z" fill="#000000" fill-rule="nonzero" fill-opacity="1" /><path clip-path="url(#clip710)" d="M155.612 251.975 Q161.601 255.465 167.461 257.158 Q173.32 258.85 179.336 258.85 Q185.351 258.85 191.263 257.158 Q197.148 255.439 203.112 251.975 L203.112 256.142 Q196.992 260.048 191.08 262.001 Q185.169 263.928 179.336 263.928 Q173.528 263.928 167.643 262.001 Q161.758 260.074 155.612 256.142 L155.612 251.975 Z" fill="#000000" fill-rule="nonzero" fill-opacity="1" /><path clip-path="url(#clip710)" d="M181.523 221.741 Q176.237 221.741 173.242 223.929 Q170.221 226.09 170.221 229.892 Q170.221 233.694 173.242 235.882 Q176.237 238.043 181.523 238.043 Q186.81 238.043 189.83 235.882 Q192.825 233.694 192.825 229.892 Q192.825 226.09 189.83 223.929 Q186.81 221.741 181.523 221.741 M171.341 238.043 Q168.737 236.533 167.487 234.241 Q166.211 231.923 166.211 228.72 Q166.211 223.408 170.429 220.101 Q174.648 216.767 181.523 216.767 Q188.398 216.767 192.617 220.101 Q196.836 223.408 196.836 228.72 Q196.836 231.923 195.586 234.241 Q194.31 236.533 191.705 238.043 L196.08 238.043 L196.08 242.861 L155.56 242.861 L155.56 238.043 L171.341 238.043 Z" fill="#000000" fill-rule="nonzero" fill-opacity="1" /><path clip-path="url(#clip710)" d="M180.299 183.877 L182.643 183.877 L182.643 205.908 Q187.591 205.595 190.195 202.939 Q192.773 200.257 192.773 195.491 Q192.773 192.731 192.096 190.153 Q191.419 187.549 190.065 184.997 L194.596 184.997 Q195.69 187.575 196.263 190.283 Q196.836 192.991 196.836 195.778 Q196.836 202.757 192.773 206.845 Q188.711 210.908 181.784 210.908 Q174.622 210.908 170.429 207.054 Q166.211 203.174 166.211 196.611 Q166.211 190.726 170.013 187.314 Q173.789 183.877 180.299 183.877 M178.893 188.668 Q174.961 188.72 172.617 190.882 Q170.273 193.017 170.273 196.559 Q170.273 200.569 172.539 202.991 Q174.804 205.387 178.919 205.752 L178.893 188.668 Z" fill="#000000" fill-rule="nonzero" fill-opacity="1" /><path clip-path="url(#clip710)" d="M158.633 171.273 L166.914 171.273 L166.914 161.403 L170.638 161.403 L170.638 171.273 L186.471 171.273 Q190.039 171.273 191.054 170.309 Q192.07 169.32 192.07 166.325 L192.07 161.403 L196.08 161.403 L196.08 166.325 Q196.08 171.872 194.023 173.981 Q191.94 176.09 186.471 176.09 L170.638 176.09 L170.638 179.606 L166.914 179.606 L166.914 176.09 L158.633 176.09 L158.633 171.273 Z" fill="#000000" fill-rule="nonzero" fill-opacity="1" /><path clip-path="url(#clip710)" d="M181.419 141.846 Q181.419 147.653 182.747 149.893 Q184.075 152.132 187.278 152.132 Q189.83 152.132 191.341 150.465 Q192.825 148.773 192.825 145.882 Q192.825 141.898 190.013 139.502 Q187.174 137.08 182.487 137.08 L181.419 137.08 L181.419 141.846 M179.44 132.289 L196.08 132.289 L196.08 137.08 L191.653 137.08 Q194.31 138.721 195.586 141.169 Q196.836 143.617 196.836 147.158 Q196.836 151.637 194.336 154.294 Q191.81 156.924 187.591 156.924 Q182.669 156.924 180.169 153.643 Q177.669 150.335 177.669 143.799 L177.669 137.08 L177.2 137.08 Q173.893 137.08 172.096 139.268 Q170.273 141.429 170.273 145.361 Q170.273 147.861 170.872 150.231 Q171.471 152.601 172.669 154.788 L168.242 154.788 Q167.226 152.158 166.732 149.684 Q166.211 147.21 166.211 144.867 Q166.211 138.538 169.492 135.413 Q172.773 132.289 179.44 132.289 Z" fill="#000000" fill-rule="nonzero" fill-opacity="1" /><path clip-path="url(#clip710)" d="M155.612 123.174 L155.612 119.007 Q161.758 115.101 167.643 113.174 Q173.528 111.221 179.336 111.221 Q185.169 111.221 191.08 113.174 Q196.992 115.101 203.112 119.007 L203.112 123.174 Q197.148 119.71 191.263 118.018 Q185.351 116.299 179.336 116.299 Q173.32 116.299 167.461 118.018 Q161.601 119.71 155.612 123.174 Z" fill="#000000" fill-rule="nonzero" fill-opacity="1" /><path clip-path="url(#clip710)" d="M-75.0788 6.87496 Q-78.9561 13.53 -80.8369 20.0404 Q-82.7177 26.5508 -82.7177 33.2348 Q-82.7177 39.9188 -80.8369 46.487 Q-78.9272 53.0263 -75.0788 59.6525 L-79.7084 59.6525 Q-84.0487 52.8527 -86.2188 46.2845 Q-88.36 39.7162 -88.36 33.2348 Q-88.36 26.7823 -86.2188 20.2429 Q-84.0776 13.7036 -79.7084 6.87496 L-75.0788 6.87496 Z" fill="#000000" fill-rule="nonzero" fill-opacity="1" /><path clip-path="url(#clip710)" d="M-32.1682 11.9675 L-32.1682 18.1307 Q-35.1195 15.3819 -38.476 14.0219 Q-41.8035 12.662 -45.5651 12.662 Q-52.9725 12.662 -56.9076 17.2048 Q-60.8428 21.7186 -60.8428 30.2834 Q-60.8428 38.8192 -56.9076 43.362 Q-52.9725 47.8759 -45.5651 47.8759 Q-41.8035 47.8759 -38.476 46.516 Q-35.1195 45.156 -32.1682 42.4072 L-32.1682 48.5125 Q-35.2353 50.5958 -38.6786 51.6375 Q-42.0929 52.6791 -45.9123 52.6791 Q-55.7213 52.6791 -61.3636 46.6896 Q-67.0059 40.6711 -67.0059 30.2834 Q-67.0059 19.8668 -61.3636 13.8772 Q-55.7213 7.85875 -45.9123 7.85875 Q-42.035 7.85875 -38.6207 8.90042 Q-35.1774 9.91314 -32.1682 11.9675 Z" fill="#000000" fill-rule="nonzero" fill-opacity="1" /><path clip-path="url(#clip710)" d="M-24.211 6.87496 L-19.5814 6.87496 Q-15.2412 13.7036 -13.1 20.2429 Q-10.9299 26.7823 -10.9299 33.2348 Q-10.9299 39.7162 -13.1 46.2845 Q-15.2412 52.8527 -19.5814 59.6525 L-24.211 59.6525 Q-20.3627 53.0263 -18.4819 46.487 Q-16.5722 39.9188 -16.5722 33.2348 Q-16.5722 26.5508 -18.4819 20.0404 Q-20.3627 13.53 -24.211 6.87496 Z" fill="#000000" fill-rule="nonzero" fill-opacity="1" /><path clip-path="url(#clip710)" d="M18.8154 8.64 L24.6602 8.64 L24.6602 26.3482 L45.8985 26.3482 L45.8985 8.64 L51.7434 8.64 L51.7434 51.84 L45.8985 51.84 L45.8985 31.2672 L24.6602 31.2672 L24.6602 51.84 L18.8154 51.84 L18.8154 8.64 Z" fill="#000000" fill-rule="nonzero" fill-opacity="1" /><path clip-path="url(#clip710)" d="M75.7016 23.1654 Q71.4192 23.1654 68.9308 26.5218 Q66.4424 29.8494 66.4424 35.6653 Q66.4424 41.4813 68.9019 44.8377 Q71.3903 48.1653 75.7016 48.1653 Q79.9551 48.1653 82.4435 44.8088 Q84.9319 41.4523 84.9319 35.6653 Q84.9319 29.9072 82.4435 26.5508 Q79.9551 23.1654 75.7016 23.1654 M75.7016 18.6515 Q82.646 18.6515 86.6101 23.1654 Q90.5742 27.6792 90.5742 35.6653 Q90.5742 43.6225 86.6101 48.1653 Q82.646 52.6791 75.7016 52.6791 Q68.7283 52.6791 64.7642 48.1653 Q60.829 43.6225 60.829 35.6653 Q60.829 27.6792 64.7642 23.1654 Q68.7283 18.6515 75.7016 18.6515 Z" fill="#000000" fill-rule="nonzero" fill-opacity="1" /><path clip-path="url(#clip710)" d="M96.3034 19.4328 L101.627 19.4328 L108.282 44.722 L114.909 19.4328 L121.187 19.4328 L127.843 44.722 L134.469 19.4328 L139.793 19.4328 L131.315 51.84 L125.036 51.84 L118.063 25.2776 L111.06 51.84 L104.781 51.84 L96.3034 19.4328 Z" fill="#000000" fill-rule="nonzero" fill-opacity="1" /><path clip-path="url(#clip710)" d="M166.934 8.64 L172.779 8.64 L172.779 26.3482 L194.017 26.3482 L194.017 8.64 L199.862 8.64 L199.862 51.84 L194.017 51.84 L194.017 31.2672 L172.779 31.2672 L172.779 51.84 L166.934 51.84 L166.934 8.64 Z" fill="#000000" fill-rule="nonzero" fill-opacity="1" /><path clip-path="url(#clip710)" d="M211.494 8.64 L236.32 8.64 L236.32 13.559 L217.339 13.559 L217.339 26.2904 L234.468 26.2904 L234.468 31.2093 L217.339 31.2093 L217.339 51.84 L211.494 51.84 L211.494 8.64 Z" fill="#000000" fill-rule="nonzero" fill-opacity="1" /><path clip-path="url(#clip710)" d="M291.904 34.3054 L291.904 36.9095 L267.425 36.9095 Q267.772 42.4072 270.724 45.3007 Q273.704 48.1653 278.999 48.1653 Q282.066 48.1653 284.931 47.4129 Q287.824 46.6606 290.66 45.156 L290.66 50.1907 Q287.795 51.406 284.786 52.0425 Q281.777 52.6791 278.681 52.6791 Q270.926 52.6791 266.383 48.1653 Q261.87 43.6514 261.87 35.9547 Q261.87 27.9975 266.152 23.339 Q270.463 18.6515 277.755 18.6515 Q284.294 18.6515 288.085 22.876 Q291.904 27.0716 291.904 34.3054 M286.58 32.7429 Q286.522 28.3737 284.121 25.7695 Q281.748 23.1654 277.813 23.1654 Q273.357 23.1654 270.666 25.6827 Q268.004 28.2001 267.599 32.7718 L286.58 32.7429 Z" fill="#000000" fill-rule="nonzero" fill-opacity="1" /><path clip-path="url(#clip710)" d="M317.049 6.81709 L317.049 11.2442 L311.956 11.2442 Q309.092 11.2442 307.963 12.4016 Q306.864 13.559 306.864 16.5682 L306.864 19.4328 L315.631 19.4328 L315.631 23.5705 L306.864 23.5705 L306.864 51.84 L301.511 51.84 L301.511 23.5705 L296.418 23.5705 L296.418 19.4328 L301.511 19.4328 L301.511 17.1758 Q301.511 11.765 304.028 9.30551 Q306.545 6.81709 312.014 6.81709 L317.049 6.81709 Z" fill="#000000" fill-rule="nonzero" fill-opacity="1" /><path clip-path="url(#clip710)" d="M337.911 6.81709 L337.911 11.2442 L332.818 11.2442 Q329.954 11.2442 328.825 12.4016 Q327.726 13.559 327.726 16.5682 L327.726 19.4328 L336.493 19.4328 L336.493 23.5705 L327.726 23.5705 L327.726 51.84 L322.373 51.84 L322.373 23.5705 L317.28 23.5705 L317.28 19.4328 L322.373 19.4328 L322.373 17.1758 Q322.373 11.765 324.89 9.30551 Q327.407 6.81709 332.876 6.81709 L337.911 6.81709 Z" fill="#000000" fill-rule="nonzero" fill-opacity="1" /><path clip-path="url(#clip710)" d="M370.087 34.3054 L370.087 36.9095 L345.608 36.9095 Q345.955 42.4072 348.906 45.3007 Q351.886 48.1653 357.182 48.1653 Q360.249 48.1653 363.113 47.4129 Q366.007 46.6606 368.842 45.156 L368.842 50.1907 Q365.978 51.406 362.969 52.0425 Q359.959 52.6791 356.863 52.6791 Q349.109 52.6791 344.566 48.1653 Q340.052 43.6514 340.052 35.9547 Q340.052 27.9975 344.334 23.339 Q348.646 18.6515 355.937 18.6515 Q362.477 18.6515 366.267 22.876 Q370.087 27.0716 370.087 34.3054 M364.763 32.7429 Q364.705 28.3737 362.303 25.7695 Q359.93 23.1654 355.995 23.1654 Q351.539 23.1654 348.848 25.6827 Q346.186 28.2001 345.781 32.7718 L364.763 32.7429 Z" fill="#000000" fill-rule="nonzero" fill-opacity="1" /><path clip-path="url(#clip710)" d="M402.147 20.677 L402.147 25.6538 Q399.89 24.4096 397.604 23.802 Q395.347 23.1654 393.032 23.1654 Q387.853 23.1654 384.988 26.464 Q382.124 29.7336 382.124 35.6653 Q382.124 41.597 384.988 44.8956 Q387.853 48.1653 393.032 48.1653 Q395.347 48.1653 397.604 47.5576 Q399.89 46.921 402.147 45.6768 L402.147 50.5958 Q399.919 51.6375 397.517 52.1583 Q395.144 52.6791 392.453 52.6791 Q385.133 52.6791 380.822 48.0784 Q376.51 43.4778 376.51 35.6653 Q376.51 27.7371 380.85 23.1943 Q385.22 18.6515 392.801 18.6515 Q395.26 18.6515 397.604 19.1724 Q399.948 19.6642 402.147 20.677 Z" fill="#000000" fill-rule="nonzero" fill-opacity="1" /><path clip-path="url(#clip710)" d="M416.672 10.2314 L416.672 19.4328 L427.638 19.4328 L427.638 23.5705 L416.672 23.5705 L416.672 41.163 Q416.672 45.1271 417.743 46.2555 Q418.842 47.384 422.17 47.384 L427.638 47.384 L427.638 51.84 L422.17 51.84 Q416.007 51.84 413.663 49.5541 Q411.319 47.2393 411.319 41.163 L411.319 23.5705 L407.413 23.5705 L407.413 19.4328 L411.319 19.4328 L411.319 10.2314 L416.672 10.2314 Z" fill="#000000" fill-rule="nonzero" fill-opacity="1" /><path clip-path="url(#clip710)" d="M476.799 20.677 L476.799 25.6538 Q474.542 24.4096 472.256 23.802 Q469.999 23.1654 467.684 23.1654 Q462.505 23.1654 459.641 26.464 Q456.776 29.7336 456.776 35.6653 Q456.776 41.597 459.641 44.8956 Q462.505 48.1653 467.684 48.1653 Q469.999 48.1653 472.256 47.5576 Q474.542 46.921 476.799 45.6768 L476.799 50.5958 Q474.571 51.6375 472.169 52.1583 Q469.797 52.6791 467.106 52.6791 Q459.785 52.6791 455.474 48.0784 Q451.163 43.4778 451.163 35.6653 Q451.163 27.7371 455.503 23.1943 Q459.872 18.6515 467.453 18.6515 Q469.912 18.6515 472.256 19.1724 Q474.6 19.6642 476.799 20.677 Z" fill="#000000" fill-rule="nonzero" fill-opacity="1" /><path clip-path="url(#clip710)" d="M512.997 32.2799 L512.997 51.84 L507.673 51.84 L507.673 32.4535 Q507.673 27.8529 505.879 25.567 Q504.085 23.2811 500.497 23.2811 Q496.185 23.2811 493.697 26.03 Q491.209 28.7788 491.209 33.5241 L491.209 51.84 L485.856 51.84 L485.856 6.81709 L491.209 6.81709 L491.209 24.4675 Q493.118 21.545 495.694 20.0983 Q498.298 18.6515 501.683 18.6515 Q507.268 18.6515 510.132 22.1237 Q512.997 25.567 512.997 32.2799 Z" fill="#000000" fill-rule="nonzero" fill-opacity="1" /><path clip-path="url(#clip710)" d="M538.344 35.5496 Q531.891 35.5496 529.403 37.0253 Q526.914 38.501 526.914 42.06 Q526.914 44.8956 528.766 46.5738 Q530.647 48.2231 533.859 48.2231 Q538.286 48.2231 540.948 45.0981 Q543.639 41.9442 543.639 36.7359 L543.639 35.5496 L538.344 35.5496 M548.963 33.3505 L548.963 51.84 L543.639 51.84 L543.639 46.921 Q541.816 49.8724 539.096 51.2902 Q536.376 52.6791 532.441 52.6791 Q527.464 52.6791 524.513 49.9014 Q521.59 47.0947 521.59 42.4072 Q521.59 36.9385 525.236 34.1607 Q528.911 31.3829 536.174 31.3829 L543.639 31.3829 L543.639 30.8621 Q543.639 27.1874 541.208 25.1908 Q538.807 23.1654 534.438 23.1654 Q531.66 23.1654 529.027 23.8309 Q526.394 24.4964 523.963 25.8274 L523.963 20.9085 Q526.886 19.78 529.634 19.2302 Q532.383 18.6515 534.987 18.6515 Q542.019 18.6515 545.491 22.2973 Q548.963 25.9431 548.963 33.3505 Z" fill="#000000" fill-rule="nonzero" fill-opacity="1" /><path clip-path="url(#clip710)" d="M586.868 32.2799 L586.868 51.84 L581.544 51.84 L581.544 32.4535 Q581.544 27.8529 579.75 25.567 Q577.956 23.2811 574.368 23.2811 Q570.057 23.2811 567.568 26.03 Q565.08 28.7788 565.08 33.5241 L565.08 51.84 L559.727 51.84 L559.727 19.4328 L565.08 19.4328 L565.08 24.4675 Q566.989 21.545 569.565 20.0983 Q572.169 18.6515 575.554 18.6515 Q581.139 18.6515 584.003 22.1237 Q586.868 25.567 586.868 32.2799 Z" fill="#000000" fill-rule="nonzero" fill-opacity="1" /><path clip-path="url(#clip710)" d="M618.812 35.2602 Q618.812 29.4732 616.411 26.2904 Q614.038 23.1075 609.727 23.1075 Q605.444 23.1075 603.043 26.2904 Q600.67 29.4732 600.67 35.2602 Q600.67 41.0183 603.043 44.2012 Q605.444 47.384 609.727 47.384 Q614.038 47.384 616.411 44.2012 Q618.812 41.0183 618.812 35.2602 M624.136 47.818 Q624.136 56.0934 620.461 60.1154 Q616.787 64.1663 609.206 64.1663 Q606.399 64.1663 603.911 63.7323 Q601.422 63.3272 599.078 62.4592 L599.078 57.2798 Q601.422 58.5529 603.708 59.1606 Q605.994 59.7682 608.367 59.7682 Q613.604 59.7682 616.208 57.0194 Q618.812 54.2995 618.812 48.7729 L618.812 46.1398 Q617.163 49.0044 614.588 50.4222 Q612.012 51.84 608.424 51.84 Q602.464 51.84 598.818 47.2972 Q595.172 42.7544 595.172 35.2602 Q595.172 27.7371 598.818 23.1943 Q602.464 18.6515 608.424 18.6515 Q612.012 18.6515 614.588 20.0693 Q617.163 21.4872 618.812 24.3517 L618.812 19.4328 L624.136 19.4328 L624.136 47.818 Z" fill="#000000" fill-rule="nonzero" fill-opacity="1" /><path clip-path="url(#clip710)" d="M662.822 34.3054 L662.822 36.9095 L638.343 36.9095 Q638.691 42.4072 641.642 45.3007 Q644.622 48.1653 649.917 48.1653 Q652.984 48.1653 655.849 47.4129 Q658.742 46.6606 661.578 45.156 L661.578 50.1907 Q658.714 51.406 655.704 52.0425 Q652.695 52.6791 649.599 52.6791 Q641.844 52.6791 637.302 48.1653 Q632.788 43.6514 632.788 35.9547 Q632.788 27.9975 637.07 23.339 Q641.381 18.6515 648.673 18.6515 Q655.212 18.6515 659.003 22.876 Q662.822 27.0716 662.822 34.3054 M657.498 32.7429 Q657.44 28.3737 655.039 25.7695 Q652.666 23.1654 648.731 23.1654 Q644.275 23.1654 641.584 25.6827 Q638.922 28.2001 638.517 32.7718 L657.498 32.7429 Z" fill="#000000" fill-rule="nonzero" fill-opacity="1" /><path clip-path="url(#clip710)" d="M692.22 20.3876 L692.22 25.4223 Q689.963 24.2649 687.533 23.6862 Q685.102 23.1075 682.498 23.1075 Q678.534 23.1075 676.538 24.3228 Q674.57 25.5381 674.57 27.9686 Q674.57 29.8204 675.988 30.891 Q677.406 31.9327 681.688 32.8876 L683.511 33.2926 Q689.182 34.5079 691.555 36.7359 Q693.956 38.935 693.956 42.8991 Q693.956 47.4129 690.368 50.046 Q686.809 52.6791 680.559 52.6791 Q677.955 52.6791 675.12 52.1583 Q672.313 51.6664 669.188 50.6537 L669.188 45.156 Q672.139 46.6896 675.004 47.4708 Q677.869 48.2231 680.675 48.2231 Q684.437 48.2231 686.462 46.95 Q688.488 45.6479 688.488 43.3042 Q688.488 41.134 687.012 39.9766 Q685.565 38.8192 680.617 37.7486 L678.766 37.3146 Q673.818 36.273 671.619 34.1318 Q669.42 31.9616 669.42 28.2001 Q669.42 23.6283 672.66 21.1399 Q675.901 18.6515 681.862 18.6515 Q684.813 18.6515 687.417 19.0855 Q690.021 19.5196 692.22 20.3876 Z" fill="#000000" fill-rule="nonzero" fill-opacity="1" /><path clip-path="url(#clip710)" d="M735.999 35.5496 Q729.546 35.5496 727.058 37.0253 Q724.57 38.501 724.57 42.06 Q724.57 44.8956 726.422 46.5738 Q728.302 48.2231 731.514 48.2231 Q735.941 48.2231 738.603 45.0981 Q741.294 41.9442 741.294 36.7359 L741.294 35.5496 L735.999 35.5496 M746.618 33.3505 L746.618 51.84 L741.294 51.84 L741.294 46.921 Q739.471 49.8724 736.751 51.2902 Q734.031 52.6791 730.096 52.6791 Q725.119 52.6791 722.168 49.9014 Q719.246 47.0947 719.246 42.4072 Q719.246 36.9385 722.891 34.1607 Q726.566 31.3829 733.829 31.3829 L741.294 31.3829 L741.294 30.8621 Q741.294 27.1874 738.864 25.1908 Q736.462 23.1654 732.093 23.1654 Q729.315 23.1654 726.682 23.8309 Q724.049 24.4964 721.618 25.8274 L721.618 20.9085 Q724.541 19.78 727.29 19.2302 Q730.038 18.6515 732.643 18.6515 Q739.674 18.6515 743.146 22.2973 Q746.618 25.9431 746.618 33.3505 Z" fill="#000000" fill-rule="nonzero" fill-opacity="1" /><path clip-path="url(#clip710)" d="M778.244 20.3876 L778.244 25.4223 Q775.987 24.2649 773.557 23.6862 Q771.126 23.1075 768.522 23.1075 Q764.558 23.1075 762.561 24.3228 Q760.594 25.5381 760.594 27.9686 Q760.594 29.8204 762.012 30.891 Q763.429 31.9327 767.712 32.8876 L769.535 33.2926 Q775.206 34.5079 777.579 36.7359 Q779.98 38.935 779.98 42.8991 Q779.98 47.4129 776.392 50.046 Q772.833 52.6791 766.583 52.6791 Q763.979 52.6791 761.144 52.1583 Q758.337 51.6664 755.212 50.6537 L755.212 45.156 Q758.163 46.6896 761.028 47.4708 Q763.892 48.2231 766.699 48.2231 Q770.461 48.2231 772.486 46.95 Q774.512 45.6479 774.512 43.3042 Q774.512 41.134 773.036 39.9766 Q771.589 38.8192 766.641 37.7486 L764.789 37.3146 Q759.841 36.273 757.642 34.1318 Q755.443 31.9616 755.443 28.2001 Q755.443 23.6283 758.684 21.1399 Q761.925 18.6515 767.885 18.6515 Q770.837 18.6515 773.441 19.0855 Q776.045 19.5196 778.244 20.3876 Z" fill="#000000" fill-rule="nonzero" fill-opacity="1" /><path clip-path="url(#clip710)" d="M830.617 20.677 L830.617 25.6538 Q828.36 24.4096 826.074 23.802 Q823.817 23.1654 821.502 23.1654 Q816.323 23.1654 813.458 26.464 Q810.594 29.7336 810.594 35.6653 Q810.594 41.597 813.458 44.8956 Q816.323 48.1653 821.502 48.1653 Q823.817 48.1653 826.074 47.5576 Q828.36 46.921 830.617 45.6768 L830.617 50.5958 Q828.389 51.6375 825.987 52.1583 Q823.614 52.6791 820.923 52.6791 Q813.603 52.6791 809.291 48.0784 Q804.98 43.4778 804.98 35.6653 Q804.98 27.7371 809.32 23.1943 Q813.69 18.6515 821.271 18.6515 Q823.73 18.6515 826.074 19.1724 Q828.417 19.6642 830.617 20.677 Z" fill="#000000" fill-rule="nonzero" fill-opacity="1" /><path clip-path="url(#clip710)" d="M852.434 23.1654 Q848.151 23.1654 845.663 26.5218 Q843.174 29.8494 843.174 35.6653 Q843.174 41.4813 845.634 44.8377 Q848.122 48.1653 852.434 48.1653 Q856.687 48.1653 859.175 44.8088 Q861.664 41.4523 861.664 35.6653 Q861.664 29.9072 859.175 26.5508 Q856.687 23.1654 852.434 23.1654 M852.434 18.6515 Q859.378 18.6515 863.342 23.1654 Q867.306 27.6792 867.306 35.6653 Q867.306 43.6225 863.342 48.1653 Q859.378 52.6791 852.434 52.6791 Q845.46 52.6791 841.496 48.1653 Q837.561 43.6225 837.561 35.6653 Q837.561 27.6792 841.496 23.1654 Q845.46 18.6515 852.434 18.6515 Z" fill="#000000" fill-rule="nonzero" fill-opacity="1" /><path clip-path="url(#clip710)" d="M901.363 25.6538 Q903.359 22.0659 906.137 20.3587 Q908.915 18.6515 912.676 18.6515 Q917.74 18.6515 920.489 22.2105 Q923.238 25.7406 923.238 32.2799 L923.238 51.84 L917.885 51.84 L917.885 32.4535 Q917.885 27.795 916.235 25.5381 Q914.586 23.2811 911.201 23.2811 Q907.063 23.2811 904.661 26.03 Q902.26 28.7788 902.26 33.5241 L902.26 51.84 L896.907 51.84 L896.907 32.4535 Q896.907 27.7661 895.257 25.5381 Q893.608 23.2811 890.165 23.2811 Q886.085 23.2811 883.683 26.0589 Q881.282 28.8077 881.282 33.5241 L881.282 51.84 L875.929 51.84 L875.929 19.4328 L881.282 19.4328 L881.282 24.4675 Q883.105 21.4872 885.651 20.0693 Q888.197 18.6515 891.698 18.6515 Q895.228 18.6515 897.688 20.4455 Q900.176 22.2395 901.363 25.6538 Z" fill="#000000" fill-rule="nonzero" fill-opacity="1" /><path clip-path="url(#clip710)" d="M939.007 46.9789 L939.007 64.1663 L933.654 64.1663 L933.654 19.4328 L939.007 19.4328 L939.007 24.3517 Q940.685 21.4582 943.232 20.0693 Q945.807 18.6515 949.366 18.6515 Q955.269 18.6515 958.943 23.339 Q962.647 28.0265 962.647 35.6653 Q962.647 43.3042 958.943 47.9916 Q955.269 52.6791 949.366 52.6791 Q945.807 52.6791 943.232 51.2902 Q940.685 49.8724 939.007 46.9789 M957.121 35.6653 Q957.121 29.7915 954.69 26.464 Q952.288 23.1075 948.064 23.1075 Q943.839 23.1075 941.409 26.464 Q939.007 29.7915 939.007 35.6653 Q939.007 41.5391 941.409 44.8956 Q943.839 48.2231 948.064 48.2231 Q952.288 48.2231 954.69 44.8956 Q957.121 41.5391 957.121 35.6653 Z" fill="#000000" fill-rule="nonzero" fill-opacity="1" /><path clip-path="url(#clip710)" d="M984.03 23.1654 Q979.748 23.1654 977.259 26.5218 Q974.771 29.8494 974.771 35.6653 Q974.771 41.4813 977.23 44.8377 Q979.719 48.1653 984.03 48.1653 Q988.284 48.1653 990.772 44.8088 Q993.26 41.4523 993.26 35.6653 Q993.26 29.9072 990.772 26.5508 Q988.284 23.1654 984.03 23.1654 M984.03 18.6515 Q990.974 18.6515 994.939 23.1654 Q998.903 27.6792 998.903 35.6653 Q998.903 43.6225 994.939 48.1653 Q990.974 52.6791 984.03 52.6791 Q977.057 52.6791 973.093 48.1653 Q969.157 43.6225 969.157 35.6653 Q969.157 27.6792 973.093 23.1654 Q977.057 18.6515 984.03 18.6515 Z" fill="#000000" fill-rule="nonzero" fill-opacity="1" /><path clip-path="url(#clip710)" d="M1034.67 32.2799 L1034.67 51.84 L1029.34 51.84 L1029.34 32.4535 Q1029.34 27.8529 1027.55 25.567 Q1025.75 23.2811 1022.17 23.2811 Q1017.86 23.2811 1015.37 26.03 Q1012.88 28.7788 1012.88 33.5241 L1012.88 51.84 L1007.53 51.84 L1007.53 19.4328 L1012.88 19.4328 L1012.88 24.4675 Q1014.79 21.545 1017.36 20.0983 Q1019.97 18.6515 1023.35 18.6515 Q1028.94 18.6515 1031.8 22.1237 Q1034.67 25.567 1034.67 32.2799 Z" fill="#000000" fill-rule="nonzero" fill-opacity="1" /><path clip-path="url(#clip710)" d="M1073.01 34.3054 L1073.01 36.9095 L1048.53 36.9095 Q1048.87 42.4072 1051.82 45.3007 Q1054.81 48.1653 1060.1 48.1653 Q1063.17 48.1653 1066.03 47.4129 Q1068.93 46.6606 1071.76 45.156 L1071.76 50.1907 Q1068.9 51.406 1065.89 52.0425 Q1062.88 52.6791 1059.78 52.6791 Q1052.03 52.6791 1047.48 48.1653 Q1042.97 43.6514 1042.97 35.9547 Q1042.97 27.9975 1047.25 23.339 Q1051.56 18.6515 1058.86 18.6515 Q1065.4 18.6515 1069.19 22.876 Q1073.01 27.0716 1073.01 34.3054 M1067.68 32.7429 Q1067.62 28.3737 1065.22 25.7695 Q1062.85 23.1654 1058.91 23.1654 Q1054.46 23.1654 1051.77 25.6827 Q1049.1 28.2001 1048.7 32.7718 L1067.68 32.7429 Z" fill="#000000" fill-rule="nonzero" fill-opacity="1" /><path clip-path="url(#clip710)" d="M1108.68 32.2799 L1108.68 51.84 L1103.36 51.84 L1103.36 32.4535 Q1103.36 27.8529 1101.56 25.567 Q1099.77 23.2811 1096.18 23.2811 Q1091.87 23.2811 1089.38 26.03 Q1086.89 28.7788 1086.89 33.5241 L1086.89 51.84 L1081.54 51.84 L1081.54 19.4328 L1086.89 19.4328 L1086.89 24.4675 Q1088.8 21.545 1091.38 20.0983 Q1093.98 18.6515 1097.37 18.6515 Q1102.95 18.6515 1105.82 22.1237 Q1108.68 25.567 1108.68 32.2799 Z" fill="#000000" fill-rule="nonzero" fill-opacity="1" /><path clip-path="url(#clip710)" d="M1124.57 10.2314 L1124.57 19.4328 L1135.53 19.4328 L1135.53 23.5705 L1124.57 23.5705 L1124.57 41.163 Q1124.57 45.1271 1125.64 46.2555 Q1126.74 47.384 1130.07 47.384 L1135.53 47.384 L1135.53 51.84 L1130.07 51.84 Q1123.9 51.84 1121.56 49.5541 Q1119.21 47.2393 1119.21 41.163 L1119.21 23.5705 L1115.31 23.5705 L1115.31 19.4328 L1119.21 19.4328 L1119.21 10.2314 L1124.57 10.2314 Z" fill="#000000" fill-rule="nonzero" fill-opacity="1" /><path clip-path="url(#clip710)" d="M1163.2 20.3876 L1163.2 25.4223 Q1160.94 24.2649 1158.51 23.6862 Q1156.08 23.1075 1153.47 23.1075 Q1149.51 23.1075 1147.51 24.3228 Q1145.55 25.5381 1145.55 27.9686 Q1145.55 29.8204 1146.96 30.891 Q1148.38 31.9327 1152.66 32.8876 L1154.49 33.2926 Q1160.16 34.5079 1162.53 36.7359 Q1164.93 38.935 1164.93 42.8991 Q1164.93 47.4129 1161.34 50.046 Q1157.78 52.6791 1151.53 52.6791 Q1148.93 52.6791 1146.1 52.1583 Q1143.29 51.6664 1140.16 50.6537 L1140.16 45.156 Q1143.11 46.6896 1145.98 47.4708 Q1148.84 48.2231 1151.65 48.2231 Q1155.41 48.2231 1157.44 46.95 Q1159.46 45.6479 1159.46 43.3042 Q1159.46 41.134 1157.99 39.9766 Q1156.54 38.8192 1151.59 37.7486 L1149.74 37.3146 Q1144.79 36.273 1142.59 34.1318 Q1140.39 31.9616 1140.39 28.2001 Q1140.39 23.6283 1143.64 21.1399 Q1146.88 18.6515 1152.84 18.6515 Q1155.79 18.6515 1158.39 19.0855 Q1161 19.5196 1163.2 20.3876 Z" fill="#000000" fill-rule="nonzero" fill-opacity="1" /><path clip-path="url(#clip710)" d="M1206.97 35.5496 Q1200.52 35.5496 1198.03 37.0253 Q1195.55 38.501 1195.55 42.06 Q1195.55 44.8956 1197.4 46.5738 Q1199.28 48.2231 1202.49 48.2231 Q1206.92 48.2231 1209.58 45.0981 Q1212.27 41.9442 1212.27 36.7359 L1212.27 35.5496 L1206.97 35.5496 M1217.59 33.3505 L1217.59 51.84 L1212.27 51.84 L1212.27 46.921 Q1210.45 49.8724 1207.73 51.2902 Q1205.01 52.6791 1201.07 52.6791 Q1196.09 52.6791 1193.14 49.9014 Q1190.22 47.0947 1190.22 42.4072 Q1190.22 36.9385 1193.87 34.1607 Q1197.54 31.3829 1204.8 31.3829 L1212.27 31.3829 L1212.27 30.8621 Q1212.27 27.1874 1209.84 25.1908 Q1207.44 23.1654 1203.07 23.1654 Q1200.29 23.1654 1197.66 23.8309 Q1195.02 24.4964 1192.59 25.8274 L1192.59 20.9085 Q1195.52 19.78 1198.27 19.2302 Q1201.01 18.6515 1203.62 18.6515 Q1210.65 18.6515 1214.12 22.2973 Q1217.59 25.9431 1217.59 33.3505 Z" fill="#000000" fill-rule="nonzero" fill-opacity="1" /><path clip-path="url(#clip710)" d="M1247.34 24.4096 Q1246.44 23.8888 1245.37 23.6573 Q1244.33 23.3969 1243.06 23.3969 Q1238.54 23.3969 1236.11 26.3482 Q1233.71 29.2707 1233.71 34.7683 L1233.71 51.84 L1228.36 51.84 L1228.36 19.4328 L1233.71 19.4328 L1233.71 24.4675 Q1235.39 21.5161 1238.08 20.0983 Q1240.77 18.6515 1244.62 18.6515 Q1245.17 18.6515 1245.83 18.7383 Q1246.5 18.7962 1247.31 18.9409 L1247.34 24.4096 Z" fill="#000000" fill-rule="nonzero" fill-opacity="1" /><path clip-path="url(#clip710)" d="M1279.34 34.3054 L1279.34 36.9095 L1254.86 36.9095 Q1255.21 42.4072 1258.16 45.3007 Q1261.14 48.1653 1266.44 48.1653 Q1269.5 48.1653 1272.37 47.4129 Q1275.26 46.6606 1278.1 45.156 L1278.1 50.1907 Q1275.23 51.406 1272.22 52.0425 Q1269.21 52.6791 1266.12 52.6791 Q1258.36 52.6791 1253.82 48.1653 Q1249.31 43.6514 1249.31 35.9547 Q1249.31 27.9975 1253.59 23.339 Q1257.9 18.6515 1265.19 18.6515 Q1271.73 18.6515 1275.52 22.876 Q1279.34 27.0716 1279.34 34.3054 M1274.02 32.7429 Q1273.96 28.3737 1271.56 25.7695 Q1269.18 23.1654 1265.25 23.1654 Q1260.79 23.1654 1258.1 25.6827 Q1255.44 28.2001 1255.04 32.7718 L1274.02 32.7429 Z" fill="#000000" fill-rule="nonzero" fill-opacity="1" /><path clip-path="url(#clip710)" d="M1321.64 35.5496 Q1315.19 35.5496 1312.7 37.0253 Q1310.21 38.501 1310.21 42.06 Q1310.21 44.8956 1312.07 46.5738 Q1313.95 48.2231 1317.16 48.2231 Q1321.59 48.2231 1324.25 45.0981 Q1326.94 41.9442 1326.94 36.7359 L1326.94 35.5496 L1321.64 35.5496 M1332.26 33.3505 L1332.26 51.84 L1326.94 51.84 L1326.94 46.921 Q1325.12 49.8724 1322.4 51.2902 Q1319.68 52.6791 1315.74 52.6791 Q1310.76 52.6791 1307.81 49.9014 Q1304.89 47.0947 1304.89 42.4072 Q1304.89 36.9385 1308.54 34.1607 Q1312.21 31.3829 1319.47 31.3829 L1326.94 31.3829 L1326.94 30.8621 Q1326.94 27.1874 1324.51 25.1908 Q1322.11 23.1654 1317.74 23.1654 Q1314.96 23.1654 1312.33 23.8309 Q1309.69 24.4964 1307.26 25.8274 L1307.26 20.9085 Q1310.19 19.78 1312.93 19.2302 Q1315.68 18.6515 1318.29 18.6515 Q1325.32 18.6515 1328.79 22.2973 Q1332.26 25.9431 1332.26 33.3505 Z" fill="#000000" fill-rule="nonzero" fill-opacity="1" /><path clip-path="url(#clip710)" d="M1364.55 24.3517 L1364.55 6.81709 L1369.88 6.81709 L1369.88 51.84 L1364.55 51.84 L1364.55 46.9789 Q1362.88 49.8724 1360.3 51.2902 Q1357.75 52.6791 1354.17 52.6791 Q1348.29 52.6791 1344.59 47.9916 Q1340.91 43.3042 1340.91 35.6653 Q1340.91 28.0265 1344.59 23.339 Q1348.29 18.6515 1354.17 18.6515 Q1357.75 18.6515 1360.3 20.0693 Q1362.88 21.4582 1364.55 24.3517 M1346.41 35.6653 Q1346.41 41.5391 1348.81 44.8956 Q1351.24 48.2231 1355.47 48.2231 Q1359.69 48.2231 1362.12 44.8956 Q1364.55 41.5391 1364.55 35.6653 Q1364.55 29.7915 1362.12 26.464 Q1359.69 23.1075 1355.47 23.1075 Q1351.24 23.1075 1348.81 26.464 Q1346.41 29.7915 1346.41 35.6653 Z" fill="#000000" fill-rule="nonzero" fill-opacity="1" /><path clip-path="url(#clip710)" d="M1402.17 24.3517 L1402.17 6.81709 L1407.49 6.81709 L1407.49 51.84 L1402.17 51.84 L1402.17 46.9789 Q1400.49 49.8724 1397.92 51.2902 Q1395.37 52.6791 1391.78 52.6791 Q1385.91 52.6791 1382.21 47.9916 Q1378.53 43.3042 1378.53 35.6653 Q1378.53 28.0265 1382.21 23.339 Q1385.91 18.6515 1391.78 18.6515 Q1395.37 18.6515 1397.92 20.0693 Q1400.49 21.4582 1402.17 24.3517 M1384.03 35.6653 Q1384.03 41.5391 1386.43 44.8956 Q1388.86 48.2231 1393.08 48.2231 Q1397.31 48.2231 1399.74 44.8956 Q1402.17 41.5391 1402.17 35.6653 Q1402.17 29.7915 1399.74 26.464 Q1397.31 23.1075 1393.08 23.1075 Q1388.86 23.1075 1386.43 26.464 Q1384.03 29.7915 1384.03 35.6653 Z" fill="#000000" fill-rule="nonzero" fill-opacity="1" /><path clip-path="url(#clip710)" d="M1446.18 34.3054 L1446.18 36.9095 L1421.7 36.9095 Q1422.05 42.4072 1425 45.3007 Q1427.98 48.1653 1433.28 48.1653 Q1436.34 48.1653 1439.21 47.4129 Q1442.1 46.6606 1444.94 45.156 L1444.94 50.1907 Q1442.07 51.406 1439.06 52.0425 Q1436.05 52.6791 1432.96 52.6791 Q1425.2 52.6791 1420.66 48.1653 Q1416.15 43.6514 1416.15 35.9547 Q1416.15 27.9975 1420.43 23.339 Q1424.74 18.6515 1432.03 18.6515 Q1438.57 18.6515 1442.36 22.876 Q1446.18 27.0716 1446.18 34.3054 M1440.86 32.7429 Q1440.8 28.3737 1438.4 25.7695 Q1436.02 23.1654 1432.09 23.1654 Q1427.63 23.1654 1424.94 25.6827 Q1422.28 28.2001 1421.87 32.7718 L1440.86 32.7429 Z" fill="#000000" fill-rule="nonzero" fill-opacity="1" /><path clip-path="url(#clip710)" d="M1476.24 24.3517 L1476.24 6.81709 L1481.57 6.81709 L1481.57 51.84 L1476.24 51.84 L1476.24 46.9789 Q1474.57 49.8724 1471.99 51.2902 Q1469.44 52.6791 1465.86 52.6791 Q1459.98 52.6791 1456.28 47.9916 Q1452.6 43.3042 1452.6 35.6653 Q1452.6 28.0265 1456.28 23.339 Q1459.98 18.6515 1465.86 18.6515 Q1469.44 18.6515 1471.99 20.0693 Q1474.57 21.4582 1476.24 24.3517 M1458.1 35.6653 Q1458.1 41.5391 1460.5 44.8956 Q1462.93 48.2231 1467.16 48.2231 Q1471.38 48.2231 1473.81 44.8956 Q1476.24 41.5391 1476.24 35.6653 Q1476.24 29.7915 1473.81 26.464 Q1471.38 23.1075 1467.16 23.1075 Q1462.93 23.1075 1460.5 26.464 Q1458.1 29.7915 1458.1 35.6653 Z" fill="#000000" fill-rule="nonzero" fill-opacity="1" /><polyline clip-path="url(#clip712)" style="stroke:#4682b4; stroke-linecap:round; stroke-linejoin:round; stroke-width:10; stroke-opacity:1; fill:none" points="370.268,483.296 587.825,445.867 805.382,431.641 1022.94,432.505 "/>
<circle clip-path="url(#clip712)" cx="370.268" cy="483.296" r="14.4" fill="#4682b4" fill-rule="evenodd" fill-opacity="1" stroke="#000000" stroke-opacity="1" stroke-width="1.76"/>
<circle clip-path="url(#clip712)" cx="587.825" cy="445.867" r="14.4" fill="#4682b4" fill-rule="evenodd" fill-opacity="1" stroke="#000000" stroke-opacity="1" stroke-width="1.76"/>
<circle clip-path="url(#clip712)" cx="805.382" cy="431.641" r="14.4" fill="#4682b4" fill-rule="evenodd" fill-opacity="1" stroke="#000000" stroke-opacity="1" stroke-width="1.76"/>
<circle clip-path="url(#clip712)" cx="1022.94" cy="432.505" r="14.4" fill="#4682b4" fill-rule="evenodd" fill-opacity="1" stroke="#000000" stroke-opacity="1" stroke-width="1.76"/>
<polyline clip-path="url(#clip712)" style="stroke:#4682b4; stroke-linecap:round; stroke-linejoin:round; stroke-width:6; stroke-opacity:1; fill:none" points="370.268,523.396 370.268,435.795 "/>
<polyline clip-path="url(#clip712)" style="stroke:#4682b4; stroke-linecap:round; stroke-linejoin:round; stroke-width:6; stroke-opacity:1; fill:none" points="587.825,498.71 587.825,395.079 "/>
<polyline clip-path="url(#clip712)" style="stroke:#4682b4; stroke-linecap:round; stroke-linejoin:round; stroke-width:6; stroke-opacity:1; fill:none" points="805.382,476.609 805.382,388.924 "/>
<polyline clip-path="url(#clip712)" style="stroke:#4682b4; stroke-linecap:round; stroke-linejoin:round; stroke-width:6; stroke-opacity:1; fill:none" points="1022.94,479.036 1022.94,387.901 "/>
<polyline clip-path="url(#clip712)" style="stroke:#ff8c00; stroke-linecap:round; stroke-linejoin:round; stroke-width:10; stroke-opacity:1; fill:none" points="370.268,281.641 587.825,313.235 805.382,343.342 1022.94,342.419 "/>
<circle clip-path="url(#clip712)" cx="370.268" cy="281.641" r="14.4" fill="#ff8c00" fill-rule="evenodd" fill-opacity="1" stroke="#000000" stroke-opacity="1" stroke-width="1.76"/>
<circle clip-path="url(#clip712)" cx="587.825" cy="313.235" r="14.4" fill="#ff8c00" fill-rule="evenodd" fill-opacity="1" stroke="#000000" stroke-opacity="1" stroke-width="1.76"/>
<circle clip-path="url(#clip712)" cx="805.382" cy="343.342" r="14.4" fill="#ff8c00" fill-rule="evenodd" fill-opacity="1" stroke="#000000" stroke-opacity="1" stroke-width="1.76"/>
<circle clip-path="url(#clip712)" cx="1022.94" cy="342.419" r="14.4" fill="#ff8c00" fill-rule="evenodd" fill-opacity="1" stroke="#000000" stroke-opacity="1" stroke-width="1.76"/>
<polyline clip-path="url(#clip712)" style="stroke:#ff8c00; stroke-linecap:round; stroke-linejoin:round; stroke-width:6; stroke-opacity:1; fill:none" points="370.268,337.388 370.268,229.563 "/>
<polyline clip-path="url(#clip712)" style="stroke:#ff8c00; stroke-linecap:round; stroke-linejoin:round; stroke-width:6; stroke-opacity:1; fill:none" points="587.825,371.771 587.825,256.106 "/>
<polyline clip-path="url(#clip712)" style="stroke:#ff8c00; stroke-linecap:round; stroke-linejoin:round; stroke-width:6; stroke-opacity:1; fill:none" points="805.382,384.222 805.382,302.026 "/>
<polyline clip-path="url(#clip712)" style="stroke:#ff8c00; stroke-linecap:round; stroke-linejoin:round; stroke-width:6; stroke-opacity:1; fill:none" points="1022.94,385.248 1022.94,299.925 "/>
<polyline clip-path="url(#clip712)" style="stroke:#999999; stroke-linecap:round; stroke-linejoin:round; stroke-width:4; stroke-opacity:1; fill:none" stroke-dasharray="16, 10" points="-341.143,387.325 1734.35,387.325 "/>
<path clip-path="url(#clip710)" d="M692.985 386.65 L1019.46 386.65 L1019.46 231.13 L692.985 231.13  Z" fill="#ffffff" fill-rule="evenodd" fill-opacity="1"/>
<polyline clip-path="url(#clip710)" style="stroke:#000000; stroke-linecap:round; stroke-linejoin:round; stroke-width:4; stroke-opacity:1; fill:none" points="692.985,386.65 1019.46,386.65 1019.46,231.13 692.985,231.13 692.985,386.65 "/>
<polyline clip-path="url(#clip710)" style="stroke:#4682b4; stroke-linecap:round; stroke-linejoin:round; stroke-width:10; stroke-opacity:1; fill:none" points="700.672,282.97 746.794,282.97 "/>
<circle clip-path="url(#clip710)" cx="723.733" cy="282.97" r="6.40585" fill="#4682b4" fill-rule="evenodd" fill-opacity="1" stroke="#000000" stroke-opacity="1" stroke-width="2.50311"/>
<path clip-path="url(#clip710)" d="M773.393 278.26 L773.393 264.232 L777.653 264.232 L777.653 300.25 L773.393 300.25 L773.393 296.362 Q772.051 298.676 769.991 299.811 Q767.953 300.922 765.083 300.922 Q760.384 300.922 757.421 297.172 Q754.481 293.422 754.481 287.311 Q754.481 281.2 757.421 277.45 Q760.384 273.7 765.083 273.7 Q767.953 273.7 769.991 274.834 Q772.051 275.945 773.393 278.26 M758.879 287.311 Q758.879 292.01 760.801 294.695 Q762.745 297.357 766.125 297.357 Q769.504 297.357 771.449 294.695 Q773.393 292.01 773.393 287.311 Q773.393 282.612 771.449 279.95 Q769.504 277.264 766.125 277.264 Q762.745 277.264 760.801 279.95 Q758.879 282.612 758.879 287.311 Z" fill="#000000" fill-rule="nonzero" fill-opacity="1" /><path clip-path="url(#clip710)" d="M808.601 286.223 L808.601 288.306 L789.018 288.306 Q789.296 292.704 791.657 295.019 Q794.041 297.311 798.277 297.311 Q800.731 297.311 803.023 296.709 Q805.338 296.107 807.606 294.903 L807.606 298.931 Q805.314 299.903 802.907 300.412 Q800.5 300.922 798.023 300.922 Q791.819 300.922 788.185 297.311 Q784.574 293.7 784.574 287.542 Q784.574 281.176 788 277.45 Q791.449 273.7 797.282 273.7 Q802.513 273.7 805.546 277.079 Q808.601 280.436 808.601 286.223 M804.342 284.973 Q804.296 281.477 802.375 279.394 Q800.476 277.311 797.328 277.311 Q793.764 277.311 791.611 279.325 Q789.481 281.339 789.157 284.996 L804.342 284.973 Z" fill="#000000" fill-rule="nonzero" fill-opacity="1" /><path clip-path="url(#clip710)" d="M834.249 275.32 L834.249 279.301 Q832.444 278.306 830.615 277.82 Q828.81 277.311 826.958 277.311 Q822.814 277.311 820.523 279.95 Q818.231 282.565 818.231 287.311 Q818.231 292.056 820.523 294.695 Q822.814 297.311 826.958 297.311 Q828.81 297.311 830.615 296.825 Q832.444 296.315 834.249 295.32 L834.249 299.255 Q832.467 300.088 830.546 300.505 Q828.648 300.922 826.495 300.922 Q820.638 300.922 817.189 297.241 Q813.74 293.561 813.74 287.311 Q813.74 280.968 817.212 277.334 Q820.708 273.7 826.773 273.7 Q828.74 273.7 830.615 274.116 Q832.49 274.51 834.249 275.32 Z" fill="#000000" fill-rule="nonzero" fill-opacity="1" /><path clip-path="url(#clip710)" d="M853.439 287.218 Q848.277 287.218 846.286 288.399 Q844.296 289.579 844.296 292.426 Q844.296 294.695 845.777 296.038 Q847.282 297.357 849.851 297.357 Q853.393 297.357 855.522 294.857 Q857.675 292.334 857.675 288.167 L857.675 287.218 L853.439 287.218 M861.934 285.459 L861.934 300.25 L857.675 300.25 L857.675 296.315 Q856.217 298.676 854.041 299.811 Q851.865 300.922 848.717 300.922 Q844.735 300.922 842.374 298.7 Q840.036 296.454 840.036 292.704 Q840.036 288.329 842.953 286.107 Q845.893 283.885 851.703 283.885 L857.675 283.885 L857.675 283.468 Q857.675 280.528 855.731 278.931 Q853.81 277.311 850.314 277.311 Q848.092 277.311 845.985 277.843 Q843.879 278.376 841.935 279.44 L841.935 275.505 Q844.273 274.602 846.472 274.163 Q848.671 273.7 850.754 273.7 Q856.379 273.7 859.157 276.616 Q861.934 279.533 861.934 285.459 Z" fill="#000000" fill-rule="nonzero" fill-opacity="1" /><path clip-path="url(#clip710)" d="M881.495 302.658 Q879.689 307.287 877.976 308.699 Q876.263 310.112 873.393 310.112 L869.99 310.112 L869.99 306.547 L872.49 306.547 Q874.249 306.547 875.221 305.713 Q876.194 304.88 877.374 301.778 L878.138 299.834 L867.652 274.325 L872.166 274.325 L880.268 294.602 L888.37 274.325 L892.883 274.325 L881.495 302.658 Z" fill="#000000" fill-rule="nonzero" fill-opacity="1" /><path clip-path="url(#clip710)" d="M918.462 308.121 L918.462 311.431 L893.832 311.431 L893.832 308.121 L918.462 308.121 Z" fill="#000000" fill-rule="nonzero" fill-opacity="1" /><path clip-path="url(#clip710)" d="M937.49 278.306 Q936.772 277.889 935.916 277.704 Q935.082 277.496 934.064 277.496 Q930.453 277.496 928.508 279.857 Q926.587 282.195 926.587 286.593 L926.587 300.25 L922.305 300.25 L922.305 274.325 L926.587 274.325 L926.587 278.352 Q927.929 275.991 930.082 274.857 Q932.235 273.7 935.314 273.7 Q935.754 273.7 936.286 273.769 Q936.818 273.815 937.466 273.931 L937.49 278.306 Z" fill="#000000" fill-rule="nonzero" fill-opacity="1" /><path clip-path="url(#clip710)" d="M953.74 287.218 Q948.578 287.218 946.587 288.399 Q944.596 289.579 944.596 292.426 Q944.596 294.695 946.078 296.038 Q947.582 297.357 950.152 297.357 Q953.693 297.357 955.823 294.857 Q957.976 292.334 957.976 288.167 L957.976 287.218 L953.74 287.218 M962.235 285.459 L962.235 300.25 L957.976 300.25 L957.976 296.315 Q956.517 298.676 954.341 299.811 Q952.165 300.922 949.017 300.922 Q945.036 300.922 942.675 298.7 Q940.337 296.454 940.337 292.704 Q940.337 288.329 943.253 286.107 Q946.193 283.885 952.003 283.885 L957.976 283.885 L957.976 283.468 Q957.976 280.528 956.031 278.931 Q954.11 277.311 950.615 277.311 Q948.392 277.311 946.286 277.843 Q944.179 278.376 942.235 279.44 L942.235 275.505 Q944.573 274.602 946.772 274.163 Q948.971 273.7 951.054 273.7 Q956.679 273.7 959.457 276.616 Q962.235 279.533 962.235 285.459 Z" fill="#000000" fill-rule="nonzero" fill-opacity="1" /><path clip-path="url(#clip710)" d="M975.221 266.964 L975.221 274.325 L983.994 274.325 L983.994 277.635 L975.221 277.635 L975.221 291.709 Q975.221 294.88 976.077 295.783 Q976.957 296.686 979.619 296.686 L983.994 296.686 L983.994 300.25 L979.619 300.25 Q974.688 300.25 972.813 298.422 Q970.939 296.57 970.939 291.709 L970.939 277.635 L967.814 277.635 L967.814 274.325 L970.939 274.325 L970.939 266.964 L975.221 266.964 Z" fill="#000000" fill-rule="nonzero" fill-opacity="1" /><path clip-path="url(#clip710)" d="M1011.77 286.223 L1011.77 288.306 L992.188 288.306 Q992.466 292.704 994.827 295.019 Q997.212 297.311 1001.45 297.311 Q1003.9 297.311 1006.19 296.709 Q1008.51 296.107 1010.78 294.903 L1010.78 298.931 Q1008.48 299.903 1006.08 300.412 Q1003.67 300.922 1001.19 300.922 Q994.989 300.922 991.355 297.311 Q987.744 293.7 987.744 287.542 Q987.744 281.176 991.17 277.45 Q994.619 273.7 1000.45 273.7 Q1005.68 273.7 1008.72 277.079 Q1011.77 280.436 1011.77 286.223 M1007.51 284.973 Q1007.47 281.477 1005.54 279.394 Q1003.65 277.311 1000.5 277.311 Q996.934 277.311 994.781 279.325 Q992.651 281.339 992.327 284.996 L1007.51 284.973 Z" fill="#000000" fill-rule="nonzero" fill-opacity="1" /><polyline clip-path="url(#clip710)" style="stroke:#ff8c00; stroke-linecap:round; stroke-linejoin:round; stroke-width:10; stroke-opacity:1; fill:none" points="700.672,334.81 746.794,334.81 "/>
<circle clip-path="url(#clip710)" cx="723.733" cy="334.81" r="6.40585" fill="#ff8c00" fill-rule="evenodd" fill-opacity="1" stroke="#000000" stroke-opacity="1" stroke-width="2.50311"/>
<path clip-path="url(#clip710)" d="M754.481 316.072 L758.741 316.072 L758.741 352.09 L754.481 352.09 L754.481 316.072 Z" fill="#000000" fill-rule="nonzero" fill-opacity="1" /><path clip-path="url(#clip710)" d="M777.699 329.151 Q774.273 329.151 772.282 331.836 Q770.291 334.498 770.291 339.151 Q770.291 343.803 772.259 346.489 Q774.25 349.151 777.699 349.151 Q781.102 349.151 783.092 346.465 Q785.083 343.78 785.083 339.151 Q785.083 334.544 783.092 331.859 Q781.102 329.151 777.699 329.151 M777.699 325.54 Q783.254 325.54 786.426 329.151 Q789.597 332.762 789.597 339.151 Q789.597 345.516 786.426 349.151 Q783.254 352.762 777.699 352.762 Q772.12 352.762 768.949 349.151 Q765.801 345.516 765.801 339.151 Q765.801 332.762 768.949 329.151 Q772.12 325.54 777.699 325.54 Z" fill="#000000" fill-rule="nonzero" fill-opacity="1" /><path clip-path="url(#clip710)" d="M813.717 338.827 Q813.717 334.197 811.796 331.651 Q809.898 329.104 806.449 329.104 Q803.023 329.104 801.101 331.651 Q799.203 334.197 799.203 338.827 Q799.203 343.433 801.101 345.979 Q803.023 348.526 806.449 348.526 Q809.898 348.526 811.796 345.979 Q813.717 343.433 813.717 338.827 M817.976 348.873 Q817.976 355.493 815.037 358.711 Q812.097 361.952 806.032 361.952 Q803.787 361.952 801.796 361.604 Q799.805 361.28 797.93 360.586 L797.93 356.442 Q799.805 357.461 801.634 357.947 Q803.463 358.433 805.361 358.433 Q809.55 358.433 811.634 356.234 Q813.717 354.058 813.717 349.637 L813.717 347.53 Q812.398 349.822 810.338 350.956 Q808.277 352.09 805.407 352.09 Q800.638 352.09 797.722 348.456 Q794.805 344.822 794.805 338.827 Q794.805 332.808 797.722 329.174 Q800.638 325.54 805.407 325.54 Q808.277 325.54 810.338 326.674 Q812.398 327.808 813.717 330.1 L813.717 326.165 L817.976 326.165 L817.976 348.873 Z" fill="#000000" fill-rule="nonzero" fill-opacity="1" /><path clip-path="url(#clip710)" d="M828.161 348.155 L835.8 348.155 L835.8 321.79 L827.49 323.456 L827.49 319.197 L835.754 317.53 L840.43 317.53 L840.43 348.155 L848.069 348.155 L848.069 352.09 L828.161 352.09 L828.161 348.155 Z" fill="#000000" fill-rule="nonzero" fill-opacity="1" /><path clip-path="url(#clip710)" d="M867.513 320.609 Q863.902 320.609 862.073 324.174 Q860.268 327.716 860.268 334.845 Q860.268 341.952 862.073 345.516 Q863.902 349.058 867.513 349.058 Q871.147 349.058 872.953 345.516 Q874.782 341.952 874.782 334.845 Q874.782 327.716 872.953 324.174 Q871.147 320.609 867.513 320.609 M867.513 316.905 Q873.323 316.905 876.379 321.512 Q879.458 326.095 879.458 334.845 Q879.458 343.572 876.379 348.178 Q873.323 352.762 867.513 352.762 Q861.703 352.762 858.624 348.178 Q855.569 343.572 855.569 334.845 Q855.569 326.095 858.624 321.512 Q861.703 316.905 867.513 316.905 Z" fill="#000000" fill-rule="nonzero" fill-opacity="1" /><path clip-path="url(#clip710)" d="M897.305 316.118 Q894.203 321.442 892.698 326.651 Q891.194 331.859 891.194 337.206 Q891.194 342.553 892.698 347.808 Q894.226 353.04 897.305 358.34 L893.601 358.34 Q890.129 352.901 888.393 347.646 Q886.68 342.391 886.68 337.206 Q886.68 332.044 888.393 326.813 Q890.106 321.581 893.601 316.118 L897.305 316.118 Z" fill="#000000" fill-rule="nonzero" fill-opacity="1" /><path clip-path="url(#clip710)" d="M931.633 320.192 L931.633 325.123 Q929.272 322.924 926.587 321.836 Q923.925 320.748 920.916 320.748 Q914.99 320.748 911.842 324.382 Q908.693 327.993 908.693 334.845 Q908.693 341.674 911.842 345.308 Q914.99 348.919 920.916 348.919 Q923.925 348.919 926.587 347.831 Q929.272 346.743 931.633 344.544 L931.633 349.428 Q929.179 351.095 926.425 351.928 Q923.693 352.762 920.638 352.762 Q912.791 352.762 908.277 347.97 Q903.763 343.155 903.763 334.845 Q903.763 326.512 908.277 321.72 Q912.791 316.905 920.638 316.905 Q923.74 316.905 926.471 317.739 Q929.226 318.549 931.633 320.192 Z" fill="#000000" fill-rule="nonzero" fill-opacity="1" /><path clip-path="url(#clip710)" d="M940.082 348.155 L947.721 348.155 L947.721 321.79 L939.411 323.456 L939.411 319.197 L947.675 317.53 L952.351 317.53 L952.351 348.155 L959.989 348.155 L959.989 352.09 L940.082 352.09 L940.082 348.155 Z" fill="#000000" fill-rule="nonzero" fill-opacity="1" /><path clip-path="url(#clip710)" d="M968.161 316.118 L971.864 316.118 Q975.337 321.581 977.05 326.813 Q978.786 332.044 978.786 337.206 Q978.786 342.391 977.05 347.646 Q975.337 352.901 971.864 358.34 L968.161 358.34 Q971.239 353.04 972.744 347.808 Q974.272 342.553 974.272 337.206 Q974.272 331.859 972.744 326.651 Q971.239 321.442 968.161 316.118 Z" fill="#000000" fill-rule="nonzero" fill-opacity="1" /></svg>
