<?xml version="1.0" encoding="utf-8"?>
<svg xmlns="http://www.w3.org/2000/svg" xmlns:xlink="http://www.w3.org/1999/xlink" width="600" height="220" viewBox="0 0 2400 880">
<defs>
  <clipPath id="clip010">
    <rect x="0" y="0" width="2400" height="880"/>
  </clipPath>
</defs>
<path clip-path="url(#clip010)" d="M0 880 L2400 880 L2400 1.13687e-13 L0 1.13687e-13  Z" fill="#ffffff" fill-rule="evenodd" fill-opacity="1"/>
<defs>
  <clipPath id="clip011">
    <rect x="1830" y="419" width="465" height="312"/>
  </clipPath>
</defs>
<path clip-path="url(#clip010)" d="M400.633 678.964 L1057.6 678.964 L1057.6 196.988 L400.633 196.988  Z" fill="#ffffff" fill-rule="evenodd" fill-opacity="1"/>
<defs>
  <clipPath id="clip012">
    <rect x="400" y="196" width="658" height="483"/>
  </clipPath>
</defs>
<polyline clip-path="url(#clip012)" style="stroke:#000000; stroke-linecap:round; stroke-linejoin:round; stroke-width:2; stroke-opacity:0.1; fill:none" points="475.108,678.964 475.108,196.988 "/>
<polyline clip-path="url(#clip012)" style="stroke:#000000; stroke-linecap:round; stroke-linejoin:round; stroke-width:2; stroke-opacity:0.1; fill:none" points="729.117,678.964 729.117,196.988 "/>
<polyline clip-path="url(#clip012)" style="stroke:#000000; stroke-linecap:round; stroke-linejoin:round; stroke-width:2; stroke-opacity:0.1; fill:none" points="983.125,678.964 983.125,196.988 "/>
<polyline clip-path="url(#clip012)" style="stroke:#000000; stroke-linecap:round; stroke-linejoin:round; stroke-width:2; stroke-opacity:0.1; fill:none" points="400.633,676.174 1057.6,676.174 "/>
<polyline clip-path="url(#clip012)" style="stroke:#000000; stroke-linecap:round; stroke-linejoin:round; stroke-width:2; stroke-opacity:0.1; fill:none" points="400.633,591.341 1057.6,591.341 "/>
<polyline clip-path="url(#clip012)" style="stroke:#000000; stroke-linecap:round; stroke-linejoin:round; stroke-width:2; stroke-opacity:0.1; fill:none" points="400.633,506.507 1057.6,506.507 "/>
<polyline clip-path="url(#clip012)" style="stroke:#000000; stroke-linecap:round; stroke-linejoin:round; stroke-width:2; stroke-opacity:0.1; fill:none" points="400.633,421.674 1057.6,421.674 "/>
<polyline clip-path="url(#clip012)" style="stroke:#000000; stroke-linecap:round; stroke-linejoin:round; stroke-width:2; stroke-opacity:0.1; fill:none" points="400.633,336.841 1057.6,336.841 "/>
<polyline clip-path="url(#clip012)" style="stroke:#000000; stroke-linecap:round; stroke-linejoin:round; stroke-width:2; stroke-opacity:0.1; fill:none" points="400.633,252.007 1057.6,252.007 "/>
<polyline clip-path="url(#clip010)" style="stroke:#000000; stroke-linecap:round; stroke-linejoin:round; stroke-width:4; stroke-opacity:1; fill:none" points="400.633,678.964 1057.6,678.964 "/>
<polyline clip-path="url(#clip010)" style="stroke:#000000; stroke-linecap:round; stroke-linejoin:round; stroke-width:4; stroke-opacity:1; fill:none" points="475.108,678.964 475.108,660.066 "/>
<polyline clip-path="url(#clip010)" style="stroke:#000000; stroke-linecap:round; stroke-linejoin:round; stroke-width:4; stroke-opacity:1; fill:none" points="729.117,678.964 729.117,660.066 "/>
<polyline clip-path="url(#clip010)" style="stroke:#000000; stroke-linecap:round; stroke-linejoin:round; stroke-width:4; stroke-opacity:1; fill:none" points="983.125,678.964 983.125,660.066 "/>
<path clip-path="url(#clip010)" d="M460.328 711.41 L453.985 728.609 L466.694 728.609 L460.328 711.41 M457.689 706.804 L462.99 706.804 L476.161 741.364 L471.3 741.364 L468.152 732.498 L452.573 732.498 L449.425 741.364 L444.495 741.364 L457.689 706.804 Z" fill="#000000" fill-rule="nonzero" fill-opacity="1" /><path clip-path="url(#clip010)" d="M485.883 724.859 L485.883 737.521 L493.383 737.521 Q497.156 737.521 498.962 735.97 Q500.791 734.396 500.791 731.179 Q500.791 727.938 498.962 726.41 Q497.156 724.859 493.383 724.859 L485.883 724.859 M485.883 710.646 L485.883 721.063 L492.805 721.063 Q496.231 721.063 497.897 719.79 Q499.587 718.493 499.587 715.855 Q499.587 713.239 497.897 711.943 Q496.231 710.646 492.805 710.646 L485.883 710.646 M481.207 706.804 L493.152 706.804 Q498.499 706.804 501.393 709.026 Q504.286 711.248 504.286 715.345 Q504.286 718.517 502.805 720.392 Q501.323 722.267 498.453 722.729 Q501.902 723.47 503.8 725.831 Q505.721 728.169 505.721 731.688 Q505.721 736.317 502.573 738.841 Q499.425 741.364 493.615 741.364 L481.207 741.364 L481.207 706.804 Z" fill="#000000" fill-rule="nonzero" fill-opacity="1" /><path clip-path="url(#clip010)" d="M701.362 706.804 L706.038 706.804 L706.038 720.97 L723.029 720.97 L723.029 706.804 L727.705 706.804 L727.705 741.364 L723.029 741.364 L723.029 724.905 L706.038 724.905 L706.038 741.364 L701.362 741.364 L701.362 706.804 Z" fill="#000000" fill-rule="nonzero" fill-opacity="1" /><path clip-path="url(#clip010)" d="M737.01 706.804 L756.871 706.804 L756.871 710.739 L741.686 710.739 L741.686 720.924 L755.39 720.924 L755.39 724.859 L741.686 724.859 L741.686 741.364 L737.01 741.364 L737.01 706.804 Z" fill="#000000" fill-rule="nonzero" fill-opacity="1" /><path clip-path="url(#clip010)" d="M959.989 706.804 L964.665 706.804 L964.665 737.428 L981.493 737.428 L981.493 741.364 L959.989 741.364 L959.989 706.804 Z" fill="#000000" fill-rule="nonzero" fill-opacity="1" /><path clip-path="url(#clip010)" d="M986.401 706.804 L1006.26 706.804 L1006.26 710.739 L991.077 710.739 L991.077 720.924 L1004.78 720.924 L1004.78 724.859 L991.077 724.859 L991.077 741.364 L986.401 741.364 L986.401 706.804 Z" fill="#000000" fill-rule="nonzero" fill-opacity="1" /><polyline clip-path="url(#clip010)" style="stroke:#000000; stroke-linecap:round; stroke-linejoin:round; stroke-width:4; stroke-opacity:1; fill:none" points="400.633,678.964 400.633,196.988 "/>
<polyline clip-path="url(#clip010)" style="stroke:#000000; stroke-linecap:round; stroke-linejoin:round; stroke-width:4; stroke-opacity:1; fill:none" points="400.633,676.174 419.53,676.174 "/>
<polyline clip-path="url(#clip010)" style="stroke:#000000; stroke-linecap:round; stroke-linejoin:round; stroke-width:4; stroke-opacity:1; fill:none" points="400.633,591.341 419.53,591.341 "/>
<polyline clip-path="url(#clip010)" style="stroke:#000000; stroke-linecap:round; stroke-linejoin:round; stroke-width:4; stroke-opacity:1; fill:none" points="400.633,506.507 419.53,506.507 "/>
<polyline clip-path="url(#clip010)" style="stroke:#000000; stroke-linecap:round; stroke-linejoin:round; stroke-width:4; stroke-opacity:1; fill:none" points="400.633,421.674 419.53,421.674 "/>
<polyline clip-path="url(#clip010)" style="stroke:#000000; stroke-linecap:round; stroke-linejoin:round; stroke-width:4; stroke-opacity:1; fill:none" points="400.633,336.841 419.53,336.841 "/>
<polyline clip-path="url(#clip010)" style="stroke:#000000; stroke-linecap:round; stroke-linejoin:round; stroke-width:4; stroke-opacity:1; fill:none" points="400.633,252.007 419.53,252.007 "/>
<path clip-path="url(#clip010)" d="M198.36 676.626 L228.036 676.626 L228.036 680.561 L198.36 680.561 L198.36 676.626 Z" fill="#000000" fill-rule="nonzero" fill-opacity="1" /><path clip-path="url(#clip010)" d="M248.129 661.973 Q244.518 661.973 242.689 665.538 Q240.883 669.079 240.883 676.209 Q240.883 683.315 242.689 686.88 Q244.518 690.422 248.129 690.422 Q251.763 690.422 253.568 686.88 Q255.397 683.315 255.397 676.209 Q255.397 669.079 253.568 665.538 Q251.763 661.973 248.129 661.973 M248.129 658.269 Q253.939 658.269 256.994 662.876 Q260.073 667.459 260.073 676.209 Q260.073 684.936 256.994 689.542 Q253.939 694.125 248.129 694.125 Q242.318 694.125 239.24 689.542 Q236.184 684.936 236.184 676.209 Q236.184 667.459 239.24 662.876 Q242.318 658.269 248.129 658.269 Z" fill="#000000" fill-rule="nonzero" fill-opacity="1" /><path clip-path="url(#clip010)" d="M268.291 687.575 L273.175 687.575 L273.175 693.454 L268.291 693.454 L268.291 687.575 Z" fill="#000000" fill-rule="nonzero" fill-opacity="1" /><path clip-path="url(#clip010)" d="M293.36 661.973 Q289.749 661.973 287.92 665.538 Q286.115 669.079 286.115 676.209 Q286.115 683.315 287.92 686.88 Q289.749 690.422 293.36 690.422 Q296.994 690.422 298.8 686.88 Q300.628 683.315 300.628 676.209 Q300.628 669.079 298.8 665.538 Q296.994 661.973 293.36 661.973 M293.36 658.269 Q299.17 658.269 302.226 662.876 Q305.304 667.459 305.304 676.209 Q305.304 684.936 302.226 689.542 Q299.17 694.125 293.36 694.125 Q287.55 694.125 284.471 689.542 Q281.415 684.936 281.415 676.209 Q281.415 667.459 284.471 662.876 Q287.55 658.269 293.36 658.269 Z" fill="#000000" fill-rule="nonzero" fill-opacity="1" /><path clip-path="url(#clip010)" d="M323.522 661.973 Q319.911 661.973 318.082 665.538 Q316.276 669.079 316.276 676.209 Q316.276 683.315 318.082 686.88 Q319.911 690.422 323.522 690.422 Q327.156 690.422 328.962 686.88 Q330.79 683.315 330.79 676.209 Q330.79 669.079 328.962 665.538 Q327.156 661.973 323.522 661.973 M323.522 658.269 Q329.332 658.269 332.387 662.876 Q335.466 667.459 335.466 676.209 Q335.466 684.936 332.387 689.542 Q329.332 694.125 323.522 694.125 Q317.712 694.125 314.633 689.542 Q311.577 684.936 311.577 676.209 Q311.577 667.459 314.633 662.876 Q317.712 658.269 323.522 658.269 Z" fill="#000000" fill-rule="nonzero" fill-opacity="1" /><path clip-path="url(#clip010)" d="M343.73 658.894 L362.086 658.894 L362.086 662.829 L348.012 662.829 L348.012 671.301 Q349.031 670.954 350.049 670.792 Q351.068 670.607 352.086 670.607 Q357.873 670.607 361.253 673.778 Q364.633 676.95 364.633 682.366 Q364.633 687.945 361.16 691.047 Q357.688 694.125 351.369 694.125 Q349.193 694.125 346.924 693.755 Q344.679 693.385 342.272 692.644 L342.272 687.945 Q344.355 689.079 346.577 689.635 Q348.799 690.19 351.276 690.19 Q355.281 690.19 357.619 688.084 Q359.957 685.977 359.957 682.366 Q359.957 678.755 357.619 676.649 Q355.281 674.542 351.276 674.542 Q349.401 674.542 347.526 674.959 Q345.674 675.376 343.73 676.255 L343.73 658.894 Z" fill="#000000" fill-rule="nonzero" fill-opacity="1" /><path clip-path="url(#clip010)" d="M247.133 577.139 Q243.522 577.139 241.693 580.704 Q239.888 584.246 239.888 591.376 Q239.888 598.482 241.693 602.047 Q243.522 605.588 247.133 605.588 Q250.768 605.588 252.573 602.047 Q254.402 598.482 254.402 591.376 Q254.402 584.246 252.573 580.704 Q250.768 577.139 247.133 577.139 M247.133 573.436 Q252.943 573.436 255.999 578.042 Q259.078 582.626 259.078 591.376 Q259.078 600.102 255.999 604.709 Q252.943 609.292 247.133 609.292 Q241.323 609.292 238.244 604.709 Q235.189 600.102 235.189 591.376 Q235.189 582.626 238.244 578.042 Q241.323 573.436 247.133 573.436 Z" fill="#000000" fill-rule="nonzero" fill-opacity="1" /><path clip-path="url(#clip010)" d="M267.295 602.741 L272.179 602.741 L272.179 608.621 L267.295 608.621 L267.295 602.741 Z" fill="#000000" fill-rule="nonzero" fill-opacity="1" /><path clip-path="url(#clip010)" d="M292.365 577.139 Q288.753 577.139 286.925 580.704 Q285.119 584.246 285.119 591.376 Q285.119 598.482 286.925 602.047 Q288.753 605.588 292.365 605.588 Q295.999 605.588 297.804 602.047 Q299.633 598.482 299.633 591.376 Q299.633 584.246 297.804 580.704 Q295.999 577.139 292.365 577.139 M292.365 573.436 Q298.175 573.436 301.23 578.042 Q304.309 582.626 304.309 591.376 Q304.309 600.102 301.23 604.709 Q298.175 609.292 292.365 609.292 Q286.554 609.292 283.476 604.709 Q280.42 600.102 280.42 591.376 Q280.42 582.626 283.476 578.042 Q286.554 573.436 292.365 573.436 Z" fill="#000000" fill-rule="nonzero" fill-opacity="1" /><path clip-path="url(#clip010)" d="M322.526 577.139 Q318.915 577.139 317.087 580.704 Q315.281 584.246 315.281 591.376 Q315.281 598.482 317.087 602.047 Q318.915 605.588 322.526 605.588 Q326.161 605.588 327.966 602.047 Q329.795 598.482 329.795 591.376 Q329.795 584.246 327.966 580.704 Q326.161 577.139 322.526 577.139 M322.526 573.436 Q328.337 573.436 331.392 578.042 Q334.471 582.626 334.471 591.376 Q334.471 600.102 331.392 604.709 Q328.337 609.292 322.526 609.292 Q316.716 609.292 313.638 604.709 Q310.582 600.102 310.582 591.376 Q310.582 582.626 313.638 578.042 Q316.716 573.436 322.526 573.436 Z" fill="#000000" fill-rule="nonzero" fill-opacity="1" /><path clip-path="url(#clip010)" d="M352.688 577.139 Q349.077 577.139 347.248 580.704 Q345.443 584.246 345.443 591.376 Q345.443 598.482 347.248 602.047 Q349.077 605.588 352.688 605.588 Q356.322 605.588 358.128 602.047 Q359.957 598.482 359.957 591.376 Q359.957 584.246 358.128 580.704 Q356.322 577.139 352.688 577.139 M352.688 573.436 Q358.498 573.436 361.554 578.042 Q364.633 582.626 364.633 591.376 Q364.633 600.102 361.554 604.709 Q358.498 609.292 352.688 609.292 Q346.878 609.292 343.799 604.709 Q340.744 600.102 340.744 591.376 Q340.744 582.626 343.799 578.042 Q346.878 573.436 352.688 573.436 Z" fill="#000000" fill-rule="nonzero" fill-opacity="1" /><path clip-path="url(#clip010)" d="M248.129 492.306 Q244.518 492.306 242.689 495.871 Q240.883 499.413 240.883 506.542 Q240.883 513.649 242.689 517.213 Q244.518 520.755 248.129 520.755 Q251.763 520.755 253.568 517.213 Q255.397 513.649 255.397 506.542 Q255.397 499.413 253.568 495.871 Q251.763 492.306 248.129 492.306 M248.129 488.602 Q253.939 488.602 256.994 493.209 Q260.073 497.792 260.073 506.542 Q260.073 515.269 256.994 519.875 Q253.939 524.459 248.129 524.459 Q242.318 524.459 239.24 519.875 Q236.184 515.269 236.184 506.542 Q236.184 497.792 239.24 493.209 Q242.318 488.602 248.129 488.602 Z" fill="#000000" fill-rule="nonzero" fill-opacity="1" /><path clip-path="url(#clip010)" d="M268.291 517.908 L273.175 517.908 L273.175 523.787 L268.291 523.787 L268.291 517.908 Z" fill="#000000" fill-rule="nonzero" fill-opacity="1" /><path clip-path="url(#clip010)" d="M293.36 492.306 Q289.749 492.306 287.92 495.871 Q286.115 499.413 286.115 506.542 Q286.115 513.649 287.92 517.213 Q289.749 520.755 293.36 520.755 Q296.994 520.755 298.8 517.213 Q300.628 513.649 300.628 506.542 Q300.628 499.413 298.8 495.871 Q296.994 492.306 293.36 492.306 M293.36 488.602 Q299.17 488.602 302.226 493.209 Q305.304 497.792 305.304 506.542 Q305.304 515.269 302.226 519.875 Q299.17 524.459 293.36 524.459 Q287.55 524.459 284.471 519.875 Q281.415 515.269 281.415 506.542 Q281.415 497.792 284.471 493.209 Q287.55 488.602 293.36 488.602 Z" fill="#000000" fill-rule="nonzero" fill-opacity="1" /><path clip-path="url(#clip010)" d="M323.522 492.306 Q319.911 492.306 318.082 495.871 Q316.276 499.413 316.276 506.542 Q316.276 513.649 318.082 517.213 Q319.911 520.755 323.522 520.755 Q327.156 520.755 328.962 517.213 Q330.79 513.649 330.79 506.542 Q330.79 499.413 328.962 495.871 Q327.156 492.306 323.522 492.306 M323.522 488.602 Q329.332 488.602 332.387 493.209 Q335.466 497.792 335.466 506.542 Q335.466 515.269 332.387 519.875 Q329.332 524.459 323.522 524.459 Q317.712 524.459 314.633 519.875 Q311.577 515.269 311.577 506.542 Q311.577 497.792 314.633 493.209 Q317.712 488.602 323.522 488.602 Z" fill="#000000" fill-rule="nonzero" fill-opacity="1" /><path clip-path="url(#clip010)" d="M343.73 489.227 L362.086 489.227 L362.086 493.163 L348.012 493.163 L348.012 501.635 Q349.031 501.288 350.049 501.126 Q351.068 500.94 352.086 500.94 Q357.873 500.94 361.253 504.112 Q364.633 507.283 364.633 512.7 Q364.633 518.278 361.16 521.38 Q357.688 524.459 351.369 524.459 Q349.193 524.459 346.924 524.088 Q344.679 523.718 342.272 522.977 L342.272 518.278 Q344.355 519.412 346.577 519.968 Q348.799 520.524 351.276 520.524 Q355.281 520.524 357.619 518.417 Q359.957 516.311 359.957 512.7 Q359.957 509.088 357.619 506.982 Q355.281 504.876 351.276 504.876 Q349.401 504.876 347.526 505.292 Q345.674 505.709 343.73 506.588 L343.73 489.227 Z" fill="#000000" fill-rule="nonzero" fill-opacity="1" /><path clip-path="url(#clip010)" d="M247.133 407.473 Q243.522 407.473 241.693 411.038 Q239.888 414.579 239.888 421.709 Q239.888 428.815 241.693 432.38 Q243.522 435.922 247.133 435.922 Q250.768 435.922 252.573 432.38 Q254.402 428.815 254.402 421.709 Q254.402 414.579 252.573 411.038 Q250.768 407.473 247.133 407.473 M247.133 403.769 Q252.943 403.769 255.999 408.376 Q259.078 412.959 259.078 421.709 Q259.078 430.436 255.999 435.042 Q252.943 439.625 247.133 439.625 Q241.323 439.625 238.244 435.042 Q235.189 430.436 235.189 421.709 Q235.189 412.959 238.244 408.376 Q241.323 403.769 247.133 403.769 Z" fill="#000000" fill-rule="nonzero" fill-opacity="1" /><path clip-path="url(#clip010)" d="M267.295 433.075 L272.179 433.075 L272.179 438.954 L267.295 438.954 L267.295 433.075 Z" fill="#000000" fill-rule="nonzero" fill-opacity="1" /><path clip-path="url(#clip010)" d="M292.365 407.473 Q288.753 407.473 286.925 411.038 Q285.119 414.579 285.119 421.709 Q285.119 428.815 286.925 432.38 Q288.753 435.922 292.365 435.922 Q295.999 435.922 297.804 432.38 Q299.633 428.815 299.633 421.709 Q299.633 414.579 297.804 411.038 Q295.999 407.473 292.365 407.473 M292.365 403.769 Q298.175 403.769 301.23 408.376 Q304.309 412.959 304.309 421.709 Q304.309 430.436 301.23 435.042 Q298.175 439.625 292.365 439.625 Q286.554 439.625 283.476 435.042 Q280.42 430.436 280.42 421.709 Q280.42 412.959 283.476 408.376 Q286.554 403.769 292.365 403.769 Z" fill="#000000" fill-rule="nonzero" fill-opacity="1" /><path clip-path="url(#clip010)" d="M313.337 435.019 L320.975 435.019 L320.975 408.653 L312.665 410.32 L312.665 406.061 L320.929 404.394 L325.605 404.394 L325.605 435.019 L333.244 435.019 L333.244 438.954 L313.337 438.954 L313.337 435.019 Z" fill="#000000" fill-rule="nonzero" fill-opacity="1" /><path clip-path="url(#clip010)" d="M352.688 407.473 Q349.077 407.473 347.248 411.038 Q345.443 414.579 345.443 421.709 Q345.443 428.815 347.248 432.38 Q349.077 435.922 352.688 435.922 Q356.322 435.922 358.128 432.38 Q359.957 428.815 359.957 421.709 Q359.957 414.579 358.128 411.038 Q356.322 407.473 352.688 407.473 M352.688 403.769 Q358.498 403.769 361.554 408.376 Q364.633 412.959 364.633 421.709 Q364.633 430.436 361.554 435.042 Q358.498 439.625 352.688 439.625 Q346.878 439.625 343.799 435.042 Q340.744 430.436 340.744 421.709 Q340.744 412.959 343.799 408.376 Q346.878 403.769 352.688 403.769 Z" fill="#000000" fill-rule="nonzero" fill-opacity="1" /><path clip-path="url(#clip010)" d="M248.129 322.639 Q244.518 322.639 242.689 326.204 Q240.883 329.746 240.883 336.876 Q240.883 343.982 242.689 347.547 Q244.518 351.088 248.129 351.088 Q251.763 351.088 253.568 347.547 Q255.397 343.982 255.397 336.876 Q255.397 329.746 253.568 326.204 Q251.763 322.639 248.129 322.639 M248.129 318.936 Q253.939 318.936 256.994 323.542 Q260.073 328.126 260.073 336.876 Q260.073 345.602 256.994 350.209 Q253.939 354.792 248.129 354.792 Q242.318 354.792 239.24 350.209 Q236.184 345.602 236.184 336.876 Q236.184 328.126 239.24 323.542 Q242.318 318.936 248.129 318.936 Z" fill="#000000" fill-rule="nonzero" fill-opacity="1" /><path clip-path="url(#clip010)" d="M268.291 348.241 L273.175 348.241 L273.175 354.121 L268.291 354.121 L268.291 348.241 Z" fill="#000000" fill-rule="nonzero" fill-opacity="1" /><path clip-path="url(#clip010)" d="M293.36 322.639 Q289.749 322.639 287.92 326.204 Q286.115 329.746 286.115 336.876 Q286.115 343.982 287.92 347.547 Q289.749 351.088 293.36 351.088 Q296.994 351.088 298.8 347.547 Q300.628 343.982 300.628 336.876 Q300.628 329.746 298.8 326.204 Q296.994 322.639 293.36 322.639 M293.36 318.936 Q299.17 318.936 302.226 323.542 Q305.304 328.126 305.304 336.876 Q305.304 345.602 302.226 350.209 Q299.17 354.792 293.36 354.792 Q287.55 354.792 284.471 350.209 Q281.415 345.602 281.415 336.876 Q281.415 328.126 284.471 323.542 Q287.55 318.936 293.36 318.936 Z" fill="#000000" fill-rule="nonzero" fill-opacity="1" /><path clip-path="url(#clip010)" d="M314.332 350.186 L321.971 350.186 L321.971 323.82 L313.661 325.487 L313.661 321.227 L321.925 319.561 L326.6 319.561 L326.6 350.186 L334.239 350.186 L334.239 354.121 L314.332 354.121 L314.332 350.186 Z" fill="#000000" fill-rule="nonzero" fill-opacity="1" /><path clip-path="url(#clip010)" d="M343.73 319.561 L362.086 319.561 L362.086 323.496 L348.012 323.496 L348.012 331.968 Q349.031 331.621 350.049 331.459 Q351.068 331.274 352.086 331.274 Q357.873 331.274 361.253 334.445 Q364.633 337.616 364.633 343.033 Q364.633 348.612 361.16 351.713 Q357.688 354.792 351.369 354.792 Q349.193 354.792 346.924 354.422 Q344.679 354.051 342.272 353.311 L342.272 348.612 Q344.355 349.746 346.577 350.301 Q348.799 350.857 351.276 350.857 Q355.281 350.857 357.619 348.75 Q359.957 346.644 359.957 343.033 Q359.957 339.422 357.619 337.315 Q355.281 335.209 351.276 335.209 Q349.401 335.209 347.526 335.626 Q345.674 336.042 343.73 336.922 L343.73 319.561 Z" fill="#000000" fill-rule="nonzero" fill-opacity="1" /><path clip-path="url(#clip010)" d="M247.133 237.806 Q243.522 237.806 241.693 241.371 Q239.888 244.913 239.888 252.042 Q239.888 259.149 241.693 262.713 Q243.522 266.255 247.133 266.255 Q250.768 266.255 252.573 262.713 Q254.402 259.149 254.402 252.042 Q254.402 244.913 252.573 241.371 Q250.768 237.806 247.133 237.806 M247.133 234.102 Q252.943 234.102 255.999 238.709 Q259.078 243.292 259.078 252.042 Q259.078 260.769 255.999 265.375 Q252.943 269.959 247.133 269.959 Q241.323 269.959 238.244 265.375 Q235.189 260.769 235.189 252.042 Q235.189 243.292 238.244 238.709 Q241.323 234.102 247.133 234.102 Z" fill="#000000" fill-rule="nonzero" fill-opacity="1" /><path clip-path="url(#clip010)" d="M267.295 263.408 L272.179 263.408 L272.179 269.287 L267.295 269.287 L267.295 263.408 Z" fill="#000000" fill-rule="nonzero" fill-opacity="1" /><path clip-path="url(#clip010)" d="M292.365 237.806 Q288.753 237.806 286.925 241.371 Q285.119 244.913 285.119 252.042 Q285.119 259.149 286.925 262.713 Q288.753 266.255 292.365 266.255 Q295.999 266.255 297.804 262.713 Q299.633 259.149 299.633 252.042 Q299.633 244.913 297.804 241.371 Q295.999 237.806 292.365 237.806 M292.365 234.102 Q298.175 234.102 301.23 238.709 Q304.309 243.292 304.309 252.042 Q304.309 260.769 301.23 265.375 Q298.175 269.959 292.365 269.959 Q286.554 269.959 283.476 265.375 Q280.42 260.769 280.42 252.042 Q280.42 243.292 283.476 238.709 Q286.554 234.102 292.365 234.102 Z" fill="#000000" fill-rule="nonzero" fill-opacity="1" /><path clip-path="url(#clip010)" d="M316.554 265.352 L332.874 265.352 L332.874 269.287 L310.929 269.287 L310.929 265.352 Q313.591 262.598 318.175 257.968 Q322.781 253.315 323.962 251.973 Q326.207 249.45 327.087 247.714 Q327.989 245.954 327.989 244.264 Q327.989 241.51 326.045 239.774 Q324.124 238.038 321.022 238.038 Q318.823 238.038 316.369 238.802 Q313.938 239.565 311.161 241.116 L311.161 236.394 Q313.985 235.26 316.438 234.681 Q318.892 234.102 320.929 234.102 Q326.3 234.102 329.494 236.788 Q332.688 239.473 332.688 243.964 Q332.688 246.093 331.878 248.014 Q331.091 249.913 328.985 252.505 Q328.406 253.176 325.304 256.394 Q322.202 259.588 316.554 265.352 Z" fill="#000000" fill-rule="nonzero" fill-opacity="1" /><path clip-path="url(#clip010)" d="M352.688 237.806 Q349.077 237.806 347.248 241.371 Q345.443 244.913 345.443 252.042 Q345.443 259.149 347.248 262.713 Q349.077 266.255 352.688 266.255 Q356.322 266.255 358.128 262.713 Q359.957 259.149 359.957 252.042 Q359.957 244.913 358.128 241.371 Q356.322 237.806 352.688 237.806 M352.688 234.102 Q358.498 234.102 361.554 238.709 Q364.633 243.292 364.633 252.042 Q364.633 260.769 361.554 265.375 Q358.498 269.959 352.688 269.959 Q346.878 269.959 343.799 265.375 Q340.744 260.769 340.744 252.042 Q340.744 243.292 343.799 238.709 Q346.878 234.102 352.688 234.102 Z" fill="#000000" fill-rule="nonzero" fill-opacity="1" /><path clip-path="url(#clip010)" d="M125.957 613.314 L110.176 613.314 L110.176 608.522 L150.696 608.522 L150.696 613.314 L146.321 613.314 Q148.926 614.824 150.202 617.142 Q151.452 619.433 151.452 622.663 Q151.452 627.949 147.233 631.282 Q143.014 634.59 136.139 634.59 Q129.264 634.59 125.045 631.282 Q120.827 627.949 120.827 622.663 Q120.827 619.433 122.103 617.142 Q123.353 614.824 125.957 613.314 M136.139 629.642 Q141.426 629.642 144.446 627.48 Q147.441 625.293 147.441 621.491 Q147.441 617.689 144.446 615.501 Q141.426 613.314 136.139 613.314 Q130.853 613.314 127.858 615.501 Q124.837 617.689 124.837 621.491 Q124.837 625.293 127.858 627.48 Q130.853 629.642 136.139 629.642 Z" fill="#000000" fill-rule="nonzero" fill-opacity="1" /><path clip-path="url(#clip010)" d="M134.915 556.751 L137.259 556.751 L137.259 578.783 Q142.207 578.47 144.811 575.814 Q147.389 573.132 147.389 568.366 Q147.389 565.606 146.712 563.027 Q146.035 560.423 144.681 557.871 L149.212 557.871 Q150.306 560.449 150.879 563.158 Q151.452 565.866 151.452 568.652 Q151.452 575.632 147.389 579.72 Q143.327 583.783 136.4 583.783 Q129.238 583.783 125.045 579.928 Q120.827 576.048 120.827 569.486 Q120.827 563.6 124.629 560.189 Q128.405 556.751 134.915 556.751 M133.509 561.543 Q129.577 561.595 127.233 563.757 Q124.889 565.892 124.889 569.434 Q124.889 573.444 127.155 575.866 Q129.42 578.262 133.535 578.626 L133.509 561.543 Z" fill="#000000" fill-rule="nonzero" fill-opacity="1" /><path clip-path="url(#clip010)" d="M113.249 544.147 L121.53 544.147 L121.53 534.278 L125.254 534.278 L125.254 544.147 L141.087 544.147 Q144.655 544.147 145.67 543.184 Q146.686 542.194 146.686 539.199 L146.686 534.278 L150.696 534.278 L150.696 539.199 Q150.696 544.746 148.639 546.856 Q146.556 548.965 141.087 548.965 L125.254 548.965 L125.254 552.481 L121.53 552.481 L121.53 548.965 L113.249 548.965 L113.249 544.147 Z" fill="#000000" fill-rule="nonzero" fill-opacity="1" /><path clip-path="url(#clip010)" d="M136.035 514.72 Q136.035 520.528 137.363 522.767 Q138.691 525.007 141.894 525.007 Q144.446 525.007 145.957 523.34 Q147.441 521.647 147.441 518.757 Q147.441 514.772 144.629 512.377 Q141.79 509.955 137.103 509.955 L136.035 509.955 L136.035 514.72 M134.056 505.163 L150.696 505.163 L150.696 509.955 L146.269 509.955 Q148.926 511.595 150.202 514.043 Q151.452 516.491 151.452 520.033 Q151.452 524.512 148.952 527.168 Q146.426 529.798 142.207 529.798 Q137.285 529.798 134.785 526.517 Q132.285 523.21 132.285 516.673 L132.285 509.955 L131.816 509.955 Q128.509 509.955 126.712 512.142 Q124.889 514.304 124.889 518.236 Q124.889 520.736 125.488 523.106 Q126.087 525.476 127.285 527.663 L122.858 527.663 Q121.842 525.033 121.348 522.559 Q120.827 520.085 120.827 517.741 Q120.827 511.413 124.108 508.288 Q127.389 505.163 134.056 505.163 Z" fill="#000000" fill-rule="nonzero" fill-opacity="1" /><path clip-path="url(#clip010)" d="M111.816 469.825 L111.816 465.398 L155.644 478.939 L155.644 483.366 L111.816 469.825 Z" fill="#000000" fill-rule="nonzero" fill-opacity="1" /><path clip-path="url(#clip010)" d="M125.957 424.226 L110.176 424.226 L110.176 419.434 L150.696 419.434 L150.696 424.226 L146.321 424.226 Q148.926 425.736 150.202 428.054 Q151.452 430.346 151.452 433.575 Q151.452 438.861 147.233 442.195 Q143.014 445.502 136.139 445.502 Q129.264 445.502 125.045 442.195 Q120.827 438.861 120.827 433.575 Q120.827 430.346 122.103 428.054 Q123.353 425.736 125.957 424.226 M136.139 440.554 Q141.426 440.554 144.446 438.393 Q147.441 436.205 147.441 432.403 Q147.441 428.601 144.446 426.414 Q141.426 424.226 136.139 424.226 Q130.853 424.226 127.858 426.414 Q124.837 428.601 124.837 432.403 Q124.837 436.205 127.858 438.393 Q130.853 440.554 136.139 440.554 Z" fill="#000000" fill-rule="nonzero" fill-opacity="1" /><path clip-path="url(#clip010)" d="M122.389 374.018 L126.92 374.018 Q125.879 376.049 125.358 378.237 Q124.837 380.424 124.837 382.768 Q124.837 386.336 125.931 388.133 Q127.025 389.903 129.212 389.903 Q130.879 389.903 131.842 388.627 Q132.78 387.351 133.639 383.497 L134.004 381.857 Q135.098 376.752 137.103 374.617 Q139.082 372.456 142.65 372.456 Q146.712 372.456 149.082 375.685 Q151.452 378.888 151.452 384.513 Q151.452 386.856 150.983 389.409 Q150.54 391.935 149.629 394.747 L144.681 394.747 Q146.061 392.091 146.764 389.513 Q147.441 386.935 147.441 384.409 Q147.441 381.023 146.295 379.2 Q145.123 377.377 143.014 377.377 Q141.061 377.377 140.019 378.705 Q138.978 380.008 138.014 384.461 L137.624 386.127 Q136.686 390.58 134.759 392.56 Q132.806 394.539 129.42 394.539 Q125.306 394.539 123.066 391.622 Q120.827 388.705 120.827 383.341 Q120.827 380.685 121.217 378.341 Q121.608 375.997 122.389 374.018 Z" fill="#000000" fill-rule="nonzero" fill-opacity="1" /><path clip-path="url(#clip010)" d="M146.321 360.19 L161.79 360.19 L161.79 365.008 L121.53 365.008 L121.53 360.19 L125.957 360.19 Q123.353 358.68 122.103 356.388 Q120.827 354.07 120.827 350.867 Q120.827 345.555 125.045 342.247 Q129.264 338.914 136.139 338.914 Q143.014 338.914 147.233 342.247 Q151.452 345.555 151.452 350.867 Q151.452 354.07 150.202 356.388 Q148.926 358.68 146.321 360.19 M136.139 343.888 Q130.853 343.888 127.858 346.075 Q124.837 348.237 124.837 352.039 Q124.837 355.841 127.858 358.029 Q130.853 360.19 136.139 360.19 Q141.426 360.19 144.446 358.029 Q147.441 355.841 147.441 352.039 Q147.441 348.237 144.446 346.075 Q141.426 343.888 136.139 343.888 Z" fill="#000000" fill-rule="nonzero" fill-opacity="1" /><path clip-path="url(#clip010)" d="M134.915 306.024 L137.259 306.024 L137.259 328.055 Q142.207 327.742 144.811 325.086 Q147.389 322.404 147.389 317.638 Q147.389 314.878 146.712 312.3 Q146.035 309.695 144.681 307.143 L149.212 307.143 Q150.306 309.721 150.879 312.43 Q151.452 315.138 151.452 317.925 Q151.452 324.904 147.389 328.992 Q143.327 333.055 136.4 333.055 Q129.238 333.055 125.045 329.201 Q120.827 325.32 120.827 318.758 Q120.827 312.873 124.629 309.461 Q128.405 306.024 134.915 306.024 M133.509 310.815 Q129.577 310.867 127.233 313.029 Q124.889 315.164 124.889 318.706 Q124.889 322.716 127.155 325.138 Q129.42 327.534 133.535 327.898 L133.509 310.815 Z" fill="#000000" fill-rule="nonzero" fill-opacity="1" /><path clip-path="url(#clip010)" d="M134.915 273.211 L137.259 273.211 L137.259 295.242 Q142.207 294.93 144.811 292.274 Q147.389 289.591 147.389 284.826 Q147.389 282.065 146.712 279.487 Q146.035 276.883 144.681 274.331 L149.212 274.331 Q150.306 276.909 150.879 279.617 Q151.452 282.326 151.452 285.112 Q151.452 292.091 147.389 296.18 Q143.327 300.242 136.4 300.242 Q129.238 300.242 125.045 296.388 Q120.827 292.508 120.827 285.946 Q120.827 280.06 124.629 276.649 Q128.405 273.211 134.915 273.211 M133.509 278.003 Q129.577 278.055 127.233 280.216 Q124.889 282.352 124.889 285.893 Q124.889 289.904 127.155 292.326 Q129.42 294.722 133.535 295.086 L133.509 278.003 Z" fill="#000000" fill-rule="nonzero" fill-opacity="1" /><path clip-path="url(#clip010)" d="M125.957 246.154 L110.176 246.154 L110.176 241.362 L150.696 241.362 L150.696 246.154 L146.321 246.154 Q148.926 247.665 150.202 249.982 Q151.452 252.274 151.452 255.503 Q151.452 260.789 147.233 264.123 Q143.014 267.43 136.139 267.43 Q129.264 267.43 125.045 264.123 Q120.827 260.789 120.827 255.503 Q120.827 252.274 122.103 249.982 Q123.353 247.665 125.957 246.154 M136.139 262.482 Q141.426 262.482 144.446 260.321 Q147.441 258.133 147.441 254.331 Q147.441 250.529 144.446 248.342 Q141.426 246.154 136.139 246.154 Q130.853 246.154 127.858 248.342 Q124.837 250.529 124.837 254.331 Q124.837 258.133 127.858 260.321 Q130.853 262.482 136.139 262.482 Z" fill="#000000" fill-rule="nonzero" fill-opacity="1" /><path clip-path="url(#clip010)" d="M327.339 6.87496 Q323.462 13.53 321.581 20.0404 Q319.7 26.5508 319.7 33.2348 Q319.7 39.9188 321.581 46.487 Q323.491 53.0263 327.339 59.6525 L322.71 59.6525 Q318.369 52.8527 316.199 46.2845 Q314.058 39.7162 314.058 33.2348 Q314.058 26.7823 316.199 20.2429 Q318.34 13.7036 322.71 6.87496 L327.339 6.87496 Z" fill="#000000" fill-rule="nonzero" fill-opacity="1" /><path clip-path="url(#clip010)" d="M343.745 31.2093 L343.745 47.0368 L353.12 47.0368 Q357.837 47.0368 360.094 45.0981 Q362.38 43.1306 362.38 39.1086 Q362.38 35.0577 360.094 33.148 Q357.837 31.2093 353.12 31.2093 L343.745 31.2093 M343.745 13.4432 L343.745 26.464 L352.397 26.464 Q356.679 26.464 358.763 24.8726 Q360.875 23.2522 360.875 19.9536 Q360.875 16.6839 358.763 15.0636 Q356.679 13.4432 352.397 13.4432 L343.745 13.4432 M337.901 8.64 L352.831 8.64 Q359.515 8.64 363.132 11.4178 Q366.749 14.1955 366.749 19.317 Q366.749 23.2811 364.897 25.6249 Q363.045 27.9686 359.457 28.5473 Q363.768 29.4732 366.141 32.4246 Q368.543 35.347 368.543 39.7452 Q368.543 45.5322 364.608 48.6861 Q360.672 51.84 353.41 51.84 L337.901 51.84 L337.901 8.64 Z" fill="#000000" fill-rule="nonzero" fill-opacity="1" /><path clip-path="url(#clip010)" d="M380.088 46.921 L389.636 46.921 L389.636 13.964 L379.249 16.0474 L379.249 10.7233 L389.579 8.64 L395.423 8.64 L395.423 46.921 L404.972 46.921 L404.972 51.84 L380.088 51.84 L380.088 46.921 Z" fill="#000000" fill-rule="nonzero" fill-opacity="1" /><path clip-path="url(#clip010)" d="M415.186 6.87496 L419.816 6.87496 Q424.156 13.7036 426.297 20.2429 Q428.467 26.7823 428.467 33.2348 Q428.467 39.7162 426.297 46.2845 Q424.156 52.8527 419.816 59.6525 L415.186 59.6525 Q419.034 53.0263 420.915 46.487 Q422.825 39.9188 422.825 33.2348 Q422.825 26.5508 420.915 20.0404 Q419.034 13.53 415.186 6.87496 Z" fill="#000000" fill-rule="nonzero" fill-opacity="1" /><path clip-path="url(#clip010)" d="M484.109 10.0578 L484.109 15.758 Q480.782 14.1666 477.83 13.3853 Q474.879 12.6041 472.13 12.6041 Q467.356 12.6041 464.752 14.4559 Q462.177 16.3078 462.177 19.7221 Q462.177 22.5867 463.884 24.0624 Q465.62 25.5091 470.423 26.4061 L473.953 27.1295 Q480.492 28.3737 483.588 31.5276 Q486.713 34.6526 486.713 39.9188 Q486.713 46.1977 482.489 49.4384 Q478.293 52.6791 470.163 52.6791 Q467.095 52.6791 463.623 51.9847 Q460.18 51.2902 456.476 49.9303 L456.476 43.9118 Q460.035 45.9083 463.45 46.921 Q466.864 47.9338 470.163 47.9338 Q475.168 47.9338 477.888 45.9662 Q480.608 43.9986 480.608 40.3528 Q480.608 37.1699 478.641 35.376 Q476.702 33.582 472.246 32.685 L468.687 31.9906 Q462.148 30.6885 459.225 27.9107 Q456.303 25.133 456.303 20.1851 Q456.303 14.4559 460.325 11.1573 Q464.376 7.85875 471.465 7.85875 Q474.503 7.85875 477.657 8.40852 Q480.811 8.95829 484.109 10.0578 Z" fill="#000000" fill-rule="nonzero" fill-opacity="1" /><path clip-path="url(#clip010)" d="M500.747 46.9789 L500.747 64.1663 L495.394 64.1663 L495.394 19.4328 L500.747 19.4328 L500.747 24.3517 Q502.425 21.4582 504.971 20.0693 Q507.547 18.6515 511.106 18.6515 Q517.008 18.6515 520.683 23.339 Q524.387 28.0265 524.387 35.6653 Q524.387 43.3042 520.683 47.9916 Q517.008 52.6791 511.106 52.6791 Q507.547 52.6791 504.971 51.2902 Q502.425 49.8724 500.747 46.9789 M518.86 35.6653 Q518.86 29.7915 516.43 26.464 Q514.028 23.1075 509.804 23.1075 Q505.579 23.1075 503.149 26.464 Q500.747 29.7915 500.747 35.6653 Q500.747 41.5391 503.149 44.8956 Q505.579 48.2231 509.804 48.2231 Q514.028 48.2231 516.43 44.8956 Q518.86 41.5391 518.86 35.6653 Z" fill="#000000" fill-rule="nonzero" fill-opacity="1" /><path clip-path="url(#clip010)" d="M560.932 34.3054 L560.932 36.9095 L536.453 36.9095 Q536.8 42.4072 539.751 45.3007 Q542.732 48.1653 548.027 48.1653 Q551.094 48.1653 553.958 47.4129 Q556.852 46.6606 559.688 45.156 L559.688 50.1907 Q556.823 51.406 553.814 52.0425 Q550.805 52.6791 547.708 52.6791 Q539.954 52.6791 535.411 48.1653 Q530.897 43.6514 530.897 35.9547 Q530.897 27.9975 535.18 23.339 Q539.491 18.6515 546.783 18.6515 Q553.322 18.6515 557.112 22.876 Q560.932 27.0716 560.932 34.3054 M555.608 32.7429 Q555.55 28.3737 553.148 25.7695 Q550.776 23.1654 546.84 23.1654 Q542.384 23.1654 539.693 25.6827 Q537.031 28.2001 536.626 32.7718 L555.608 32.7429 Z" fill="#000000" fill-rule="nonzero" fill-opacity="1" /><path clip-path="url(#clip010)" d="M597.39 34.3054 L597.39 36.9095 L572.911 36.9095 Q573.258 42.4072 576.209 45.3007 Q579.19 48.1653 584.485 48.1653 Q587.552 48.1653 590.417 47.4129 Q593.31 46.6606 596.146 45.156 L596.146 50.1907 Q593.281 51.406 590.272 52.0425 Q587.263 52.6791 584.167 52.6791 Q576.412 52.6791 571.869 48.1653 Q567.355 43.6514 567.355 35.9547 Q567.355 27.9975 571.638 23.339 Q575.949 18.6515 583.241 18.6515 Q589.78 18.6515 593.57 22.876 Q597.39 27.0716 597.39 34.3054 M592.066 32.7429 Q592.008 28.3737 589.606 25.7695 Q587.234 23.1654 583.299 23.1654 Q578.843 23.1654 576.152 25.6827 Q573.49 28.2001 573.084 32.7718 L592.066 32.7429 Z" fill="#000000" fill-rule="nonzero" fill-opacity="1" /><path clip-path="url(#clip010)" d="M627.453 24.3517 L627.453 6.81709 L632.777 6.81709 L632.777 51.84 L627.453 51.84 L627.453 46.9789 Q625.775 49.8724 623.2 51.2902 Q620.654 52.6791 617.066 52.6791 Q611.192 52.6791 607.488 47.9916 Q603.813 43.3042 603.813 35.6653 Q603.813 28.0265 607.488 23.339 Q611.192 18.6515 617.066 18.6515 Q620.654 18.6515 623.2 20.0693 Q625.775 21.4582 627.453 24.3517 M609.311 35.6653 Q609.311 41.5391 611.713 44.8956 Q614.143 48.2231 618.368 48.2231 Q622.592 48.2231 625.023 44.8956 Q627.453 41.5391 627.453 35.6653 Q627.453 29.7915 625.023 26.464 Q622.592 23.1075 618.368 23.1075 Q614.143 23.1075 611.713 26.464 Q609.311 29.7915 609.311 35.6653 Z" fill="#000000" fill-rule="nonzero" fill-opacity="1" /><path clip-path="url(#clip010)" d="M683.24 20.3876 L683.24 25.4223 Q680.983 24.2649 678.553 23.6862 Q676.122 23.1075 673.518 23.1075 Q669.554 23.1075 667.557 24.3228 Q665.59 25.5381 665.59 27.9686 Q665.59 29.8204 667.008 30.891 Q668.425 31.9327 672.708 32.8876 L674.531 33.2926 Q680.202 34.5079 682.575 36.7359 Q684.976 38.935 684.976 42.8991 Q684.976 47.4129 681.388 50.046 Q677.829 52.6791 671.579 52.6791 Q668.975 52.6791 666.14 52.1583 Q663.333 51.6664 660.208 50.6537 L660.208 45.156 Q663.159 46.6896 666.024 47.4708 Q668.888 48.2231 671.695 48.2231 Q675.457 48.2231 677.482 46.95 Q679.508 45.6479 679.508 43.3042 Q679.508 41.134 678.032 39.9766 Q676.585 38.8192 671.637 37.7486 L669.785 37.3146 Q664.837 36.273 662.638 34.1318 Q660.439 31.9616 660.439 28.2001 Q660.439 23.6283 663.68 21.1399 Q666.921 18.6515 672.881 18.6515 Q675.833 18.6515 678.437 19.0855 Q681.041 19.5196 683.24 20.3876 Z" fill="#000000" fill-rule="nonzero" fill-opacity="1" /><path clip-path="url(#clip010)" d="M721.174 34.3054 L721.174 36.9095 L696.695 36.9095 Q697.042 42.4072 699.994 45.3007 Q702.974 48.1653 708.269 48.1653 Q711.336 48.1653 714.201 47.4129 Q717.094 46.6606 719.93 45.156 L719.93 50.1907 Q717.065 51.406 714.056 52.0425 Q711.047 52.6791 707.951 52.6791 Q700.196 52.6791 695.653 48.1653 Q691.139 43.6514 691.139 35.9547 Q691.139 27.9975 695.422 23.339 Q699.733 18.6515 707.025 18.6515 Q713.564 18.6515 717.355 22.876 Q721.174 27.0716 721.174 34.3054 M715.85 32.7429 Q715.792 28.3737 713.39 25.7695 Q711.018 23.1654 707.083 23.1654 Q702.627 23.1654 699.936 25.6827 Q697.274 28.2001 696.869 32.7718 L715.85 32.7429 Z" fill="#000000" fill-rule="nonzero" fill-opacity="1" /><path clip-path="url(#clip010)" d="M756.851 32.2799 L756.851 51.84 L751.527 51.84 L751.527 32.4535 Q751.527 27.8529 749.733 25.567 Q747.939 23.2811 744.351 23.2811 Q740.04 23.2811 737.551 26.03 Q735.063 28.7788 735.063 33.5241 L735.063 51.84 L729.71 51.84 L729.71 19.4328 L735.063 19.4328 L735.063 24.4675 Q736.972 21.545 739.548 20.0983 Q742.152 18.6515 745.537 18.6515 Q751.122 18.6515 753.986 22.1237 Q756.851 25.567 756.851 32.2799 Z" fill="#000000" fill-rule="nonzero" fill-opacity="1" /><path clip-path="url(#clip010)" d="M788.13 20.3876 L788.13 25.4223 Q785.873 24.2649 783.442 23.6862 Q781.012 23.1075 778.407 23.1075 Q774.443 23.1075 772.447 24.3228 Q770.479 25.5381 770.479 27.9686 Q770.479 29.8204 771.897 30.891 Q773.315 31.9327 777.597 32.8876 L779.42 33.2926 Q785.091 34.5079 787.464 36.7359 Q789.866 38.935 789.866 42.8991 Q789.866 47.4129 786.278 50.046 Q782.719 52.6791 776.469 52.6791 Q773.865 52.6791 771.029 52.1583 Q768.222 51.6664 765.097 50.6537 L765.097 45.156 Q768.049 46.6896 770.913 47.4708 Q773.778 48.2231 776.585 48.2231 Q780.346 48.2231 782.372 46.95 Q784.397 45.6479 784.397 43.3042 Q784.397 41.134 782.921 39.9766 Q781.475 38.8192 776.527 37.7486 L774.675 37.3146 Q769.727 36.273 767.528 34.1318 Q765.329 31.9616 765.329 28.2001 Q765.329 23.6283 768.57 21.1399 Q771.81 18.6515 777.771 18.6515 Q780.722 18.6515 783.326 19.0855 Q785.931 19.5196 788.13 20.3876 Z" fill="#000000" fill-rule="nonzero" fill-opacity="1" /><path clip-path="url(#clip010)" d="M798.344 19.4328 L803.668 19.4328 L803.668 51.84 L798.344 51.84 L798.344 19.4328 M798.344 6.81709 L803.668 6.81709 L803.668 13.559 L798.344 13.559 L798.344 6.81709 Z" fill="#000000" fill-rule="nonzero" fill-opacity="1" /><path clip-path="url(#clip010)" d="M820.074 10.2314 L820.074 19.4328 L831.04 19.4328 L831.04 23.5705 L820.074 23.5705 L820.074 41.163 Q820.074 45.1271 821.144 46.2555 Q822.244 47.384 825.572 47.384 L831.04 47.384 L831.04 51.84 L825.572 51.84 Q819.408 51.84 817.065 49.5541 Q814.721 47.2393 814.721 41.163 L814.721 23.5705 L810.815 23.5705 L810.815 19.4328 L814.721 19.4328 L814.721 10.2314 L820.074 10.2314 Z" fill="#000000" fill-rule="nonzero" fill-opacity="1" /><path clip-path="url(#clip010)" d="M838.043 19.4328 L843.367 19.4328 L843.367 51.84 L838.043 51.84 L838.043 19.4328 M838.043 6.81709 L843.367 6.81709 L843.367 13.559 L838.043 13.559 L838.043 6.81709 Z" fill="#000000" fill-rule="nonzero" fill-opacity="1" /><path clip-path="url(#clip010)" d="M850.687 19.4328 L856.329 19.4328 L866.457 46.6317 L876.584 19.4328 L882.226 19.4328 L870.074 51.84 L862.84 51.84 L850.687 19.4328 Z" fill="#000000" fill-rule="nonzero" fill-opacity="1" /><path clip-path="url(#clip010)" d="M889.576 19.4328 L894.9 19.4328 L894.9 51.84 L889.576 51.84 L889.576 19.4328 M889.576 6.81709 L894.9 6.81709 L894.9 13.559 L889.576 13.559 L889.576 6.81709 Z" fill="#000000" fill-rule="nonzero" fill-opacity="1" /><path clip-path="url(#clip010)" d="M911.306 10.2314 L911.306 19.4328 L922.272 19.4328 L922.272 23.5705 L911.306 23.5705 L911.306 41.163 Q911.306 45.1271 912.377 46.2555 Q913.476 47.384 916.804 47.384 L922.272 47.384 L922.272 51.84 L916.804 51.84 Q910.641 51.84 908.297 49.5541 Q905.953 47.2393 905.953 41.163 L905.953 23.5705 L902.047 23.5705 L902.047 19.4328 L905.953 19.4328 L905.953 10.2314 L911.306 10.2314 Z" fill="#000000" fill-rule="nonzero" fill-opacity="1" /><path clip-path="url(#clip010)" d="M942.758 54.8492 Q940.501 60.6362 938.36 62.4013 Q936.219 64.1663 932.631 64.1663 L928.378 64.1663 L928.378 59.7103 L931.503 59.7103 Q933.702 59.7103 934.917 58.6687 Q936.132 57.627 937.608 53.7497 L938.563 51.3192 L925.455 19.4328 L931.098 19.4328 L941.225 44.7799 L951.352 19.4328 L956.994 19.4328 L942.758 54.8492 Z" fill="#000000" fill-rule="nonzero" fill-opacity="1" /><path clip-path="url(#clip010)" d="M995.738 23.1654 Q991.456 23.1654 988.968 26.5218 Q986.479 29.8494 986.479 35.6653 Q986.479 41.4813 988.939 44.8377 Q991.427 48.1653 995.738 48.1653 Q999.992 48.1653 1002.48 44.8088 Q1004.97 41.4523 1004.97 35.6653 Q1004.97 29.9072 1002.48 26.5508 Q999.992 23.1654 995.738 23.1654 M995.738 18.6515 Q1002.68 18.6515 1006.65 23.1654 Q1010.61 27.6792 1010.61 35.6653 Q1010.61 43.6225 1006.65 48.1653 Q1002.68 52.6791 995.738 52.6791 Q988.765 52.6791 984.801 48.1653 Q980.866 43.6225 980.866 35.6653 Q980.866 27.6792 984.801 23.1654 Q988.765 18.6515 995.738 18.6515 Z" fill="#000000" fill-rule="nonzero" fill-opacity="1" /><path clip-path="url(#clip010)" d="M1035.84 6.81709 L1035.84 11.2442 L1030.75 11.2442 Q1027.89 11.2442 1026.76 12.4016 Q1025.66 13.559 1025.66 16.5682 L1025.66 19.4328 L1034.42 19.4328 L1034.42 23.5705 L1025.66 23.5705 L1025.66 51.84 L1020.3 51.84 L1020.3 23.5705 L1015.21 23.5705 L1015.21 19.4328 L1020.3 19.4328 L1020.3 17.1758 Q1020.3 11.765 1022.82 9.30551 Q1025.34 6.81709 1030.81 6.81709 L1035.84 6.81709 Z" fill="#000000" fill-rule="nonzero" fill-opacity="1" /><path clip-path="url(#clip010)" d="M1086.85 34.3054 L1086.85 36.9095 L1062.38 36.9095 Q1062.72 42.4072 1065.67 45.3007 Q1068.65 48.1653 1073.95 48.1653 Q1077.02 48.1653 1079.88 47.4129 Q1082.78 46.6606 1085.61 45.156 L1085.61 50.1907 Q1082.75 51.406 1079.74 52.0425 Q1076.73 52.6791 1073.63 52.6791 Q1065.88 52.6791 1061.33 48.1653 Q1056.82 43.6514 1056.82 35.9547 Q1056.82 27.9975 1061.1 23.339 Q1065.41 18.6515 1072.71 18.6515 Q1079.24 18.6515 1083.04 22.876 Q1086.85 27.0716 1086.85 34.3054 M1081.53 32.7429 Q1081.47 28.3737 1079.07 25.7695 Q1076.7 23.1654 1072.76 23.1654 Q1068.31 23.1654 1065.62 25.6827 Q1062.95 28.2001 1062.55 32.7718 L1081.53 32.7429 Z" fill="#000000" fill-rule="nonzero" fill-opacity="1" /><path clip-path="url(#clip010)" d="M1100.86 10.2314 L1100.86 19.4328 L1111.83 19.4328 L1111.83 23.5705 L1100.86 23.5705 L1100.86 41.163 Q1100.86 45.1271 1101.93 46.2555 Q1103.03 47.384 1106.36 47.384 L1111.83 47.384 L1111.83 51.84 L1106.36 51.84 Q1100.19 51.84 1097.85 49.5541 Q1095.51 47.2393 1095.51 41.163 L1095.51 23.5705 L1091.6 23.5705 L1091.6 19.4328 L1095.51 19.4328 L1095.51 10.2314 L1100.86 10.2314 Z" fill="#000000" fill-rule="nonzero" fill-opacity="1" /><path clip-path="url(#clip010)" d="M1133.56 35.5496 Q1127.1 35.5496 1124.62 37.0253 Q1122.13 38.501 1122.13 42.06 Q1122.13 44.8956 1123.98 46.5738 Q1125.86 48.2231 1129.07 48.2231 Q1133.5 48.2231 1136.16 45.0981 Q1138.85 41.9442 1138.85 36.7359 L1138.85 35.5496 L1133.56 35.5496 M1144.18 33.3505 L1144.18 51.84 L1138.85 51.84 L1138.85 46.921 Q1137.03 49.8724 1134.31 51.2902 Q1131.59 52.6791 1127.65 52.6791 Q1122.68 52.6791 1119.73 49.9014 Q1116.8 47.0947 1116.8 42.4072 Q1116.8 36.9385 1120.45 34.1607 Q1124.12 31.3829 1131.39 31.3829 L1138.85 31.3829 L1138.85 30.8621 Q1138.85 27.1874 1136.42 25.1908 Q1134.02 23.1654 1129.65 23.1654 Q1126.87 23.1654 1124.24 23.8309 Q1121.61 24.4964 1119.18 25.8274 L1119.18 20.9085 Q1122.1 19.78 1124.85 19.2302 Q1127.6 18.6515 1130.2 18.6515 Q1137.23 18.6515 1140.7 22.2973 Q1144.18 25.9431 1144.18 33.3505 Z" fill="#000000" fill-rule="nonzero" fill-opacity="1" /><circle clip-path="url(#clip012)" cx="501.669" cy="589.543" r="10.8" fill="#4482b5" fill-rule="evenodd" fill-opacity="0.7" stroke="none"/>
<circle clip-path="url(#clip012)" cx="460.889" cy="591.167" r="10.8" fill="#4482b5" fill-rule="evenodd" fill-opacity="0.7" stroke="none"/>
<circle clip-path="url(#clip012)" cx="489.358" cy="592.294" r="10.8" fill="#4482b5" fill-rule="evenodd" fill-opacity="0.7" stroke="none"/>
<circle clip-path="url(#clip012)" cx="484.068" cy="590.641" r="10.8" fill="#4482b5" fill-rule="evenodd" fill-opacity="0.7" stroke="none"/>
<circle clip-path="url(#clip012)" cx="461.207" cy="589.232" r="10.8" fill="#4482b5" fill-rule="evenodd" fill-opacity="0.7" stroke="none"/>
<circle clip-path="url(#clip012)" cx="463.623" cy="590.053" r="10.8" fill="#4482b5" fill-rule="evenodd" fill-opacity="0.7" stroke="none"/>
<circle clip-path="url(#clip012)" cx="488.509" cy="590.157" r="10.8" fill="#4482b5" fill-rule="evenodd" fill-opacity="0.7" stroke="none"/>
<circle clip-path="url(#clip012)" cx="475.702" cy="589.573" r="10.8" fill="#4482b5" fill-rule="evenodd" fill-opacity="0.7" stroke="none"/>
<circle clip-path="url(#clip012)" cx="460.533" cy="589.551" r="10.8" fill="#4482b5" fill-rule="evenodd" fill-opacity="0.7" stroke="none"/>
<circle clip-path="url(#clip012)" cx="472.251" cy="592.982" r="10.8" fill="#4482b5" fill-rule="evenodd" fill-opacity="0.7" stroke="none"/>
<circle clip-path="url(#clip012)" cx="494.791" cy="590.713" r="10.8" fill="#4482b5" fill-rule="evenodd" fill-opacity="0.7" stroke="none"/>
<circle clip-path="url(#clip012)" cx="468.37" cy="590.711" r="10.8" fill="#4482b5" fill-rule="evenodd" fill-opacity="0.7" stroke="none"/>
<circle clip-path="url(#clip012)" cx="457.766" cy="587.715" r="10.8" fill="#4482b5" fill-rule="evenodd" fill-opacity="0.7" stroke="none"/>
<circle clip-path="url(#clip012)" cx="456.148" cy="590.359" r="10.8" fill="#4482b5" fill-rule="evenodd" fill-opacity="0.7" stroke="none"/>
<circle clip-path="url(#clip012)" cx="486.436" cy="590.851" r="10.8" fill="#4482b5" fill-rule="evenodd" fill-opacity="0.7" stroke="none"/>
<circle clip-path="url(#clip012)" cx="454.795" cy="591.215" r="10.8" fill="#4482b5" fill-rule="evenodd" fill-opacity="0.7" stroke="none"/>
<circle clip-path="url(#clip012)" cx="453.742" cy="588.277" r="10.8" fill="#4482b5" fill-rule="evenodd" fill-opacity="0.7" stroke="none"/>
<circle clip-path="url(#clip012)" cx="487.909" cy="591.335" r="10.8" fill="#4482b5" fill-rule="evenodd" fill-opacity="0.7" stroke="none"/>
<circle clip-path="url(#clip012)" cx="462.713" cy="591.11" r="10.8" fill="#4482b5" fill-rule="evenodd" fill-opacity="0.7" stroke="none"/>
<circle clip-path="url(#clip012)" cx="467.429" cy="573.791" r="10.8" fill="#4482b5" fill-rule="evenodd" fill-opacity="0.7" stroke="none"/>
<circle clip-path="url(#clip012)" cx="488.769" cy="591.33" r="10.8" fill="#4482b5" fill-rule="evenodd" fill-opacity="0.7" stroke="none"/>
<circle clip-path="url(#clip012)" cx="495.108" cy="591.333" r="10.8" fill="#4482b5" fill-rule="evenodd" fill-opacity="0.7" stroke="none"/>
<polyline clip-path="url(#clip012)" style="stroke:#000000; stroke-linecap:round; stroke-linejoin:round; stroke-width:12; stroke-opacity:1; fill:none" points="419.226,590.676 530.99,590.676 "/>
<polyline clip-path="url(#clip012)" style="stroke:#000000; stroke-linecap:round; stroke-linejoin:round; stroke-width:8; stroke-opacity:1; fill:none" points="475.108,591.203 475.108,589.556 "/>
<circle clip-path="url(#clip012)" cx="748.277" cy="665.323" r="10.8" fill="#ff8c00" fill-rule="evenodd" fill-opacity="0.7" stroke="none"/>
<circle clip-path="url(#clip012)" cx="727.573" cy="599.47" r="10.8" fill="#ff8c00" fill-rule="evenodd" fill-opacity="0.7" stroke="none"/>
<circle clip-path="url(#clip012)" cx="728.81" cy="547.721" r="10.8" fill="#ff8c00" fill-rule="evenodd" fill-opacity="0.7" stroke="none"/>
<circle clip-path="url(#clip012)" cx="721.81" cy="564.415" r="10.8" fill="#ff8c00" fill-rule="evenodd" fill-opacity="0.7" stroke="none"/>
<circle clip-path="url(#clip012)" cx="710.929" cy="591.323" r="10.8" fill="#ff8c00" fill-rule="evenodd" fill-opacity="0.7" stroke="none"/>
<circle clip-path="url(#clip012)" cx="719.946" cy="496.014" r="10.8" fill="#ff8c00" fill-rule="evenodd" fill-opacity="0.7" stroke="none"/>
<circle clip-path="url(#clip012)" cx="733.003" cy="514.241" r="10.8" fill="#ff8c00" fill-rule="evenodd" fill-opacity="0.7" stroke="none"/>
<circle clip-path="url(#clip012)" cx="707.658" cy="581.224" r="10.8" fill="#ff8c00" fill-rule="evenodd" fill-opacity="0.7" stroke="none"/>
<circle clip-path="url(#clip012)" cx="741.883" cy="604.376" r="10.8" fill="#ff8c00" fill-rule="evenodd" fill-opacity="0.7" stroke="none"/>
<circle clip-path="url(#clip012)" cx="716.9" cy="591.32" r="10.8" fill="#ff8c00" fill-rule="evenodd" fill-opacity="0.7" stroke="none"/>
<circle clip-path="url(#clip012)" cx="756.283" cy="637.274" r="10.8" fill="#ff8c00" fill-rule="evenodd" fill-opacity="0.7" stroke="none"/>
<polyline clip-path="url(#clip012)" style="stroke:#000000; stroke-linecap:round; stroke-linejoin:round; stroke-width:12; stroke-opacity:1; fill:none" points="673.235,591.32 784.999,591.32 "/>
<polyline clip-path="url(#clip012)" style="stroke:#000000; stroke-linecap:round; stroke-linejoin:round; stroke-width:8; stroke-opacity:1; fill:none" points="729.117,601.923 729.117,556.068 "/>
<circle clip-path="url(#clip012)" cx="1000.81" cy="488.078" r="10.8" fill="#db143d" fill-rule="evenodd" fill-opacity="0.7" stroke="none"/>
<circle clip-path="url(#clip012)" cx="985.97" cy="563.87" r="10.8" fill="#db143d" fill-rule="evenodd" fill-opacity="0.7" stroke="none"/>
<circle clip-path="url(#clip012)" cx="1006.46" cy="523.235" r="10.8" fill="#db143d" fill-rule="evenodd" fill-opacity="0.7" stroke="none"/>
<circle clip-path="url(#clip012)" cx="993.729" cy="210.629" r="10.8" fill="#db143d" fill-rule="evenodd" fill-opacity="0.7" stroke="none"/>
<circle clip-path="url(#clip012)" cx="994.757" cy="479.509" r="10.8" fill="#db143d" fill-rule="evenodd" fill-opacity="0.7" stroke="none"/>
<circle clip-path="url(#clip012)" cx="993.246" cy="463.53" r="10.8" fill="#db143d" fill-rule="evenodd" fill-opacity="0.7" stroke="none"/>
<circle clip-path="url(#clip012)" cx="996.354" cy="486.746" r="10.8" fill="#db143d" fill-rule="evenodd" fill-opacity="0.7" stroke="none"/>
<circle clip-path="url(#clip012)" cx="1003.37" cy="607.02" r="10.8" fill="#db143d" fill-rule="evenodd" fill-opacity="0.7" stroke="none"/>
<circle clip-path="url(#clip012)" cx="981.38" cy="502.801" r="10.8" fill="#db143d" fill-rule="evenodd" fill-opacity="0.7" stroke="none"/>
<polyline clip-path="url(#clip012)" style="stroke:#000000; stroke-linecap:round; stroke-linejoin:round; stroke-width:12; stroke-opacity:1; fill:none" points="927.243,488.078 1039.01,488.078 "/>
<polyline clip-path="url(#clip012)" style="stroke:#000000; stroke-linecap:round; stroke-linejoin:round; stroke-width:8; stroke-opacity:1; fill:none" points="983.125,523.235 983.125,479.509 "/>
<path clip-path="url(#clip010)" d="M1585.55 678.964 L2242.52 678.964 L2242.52 196.988 L1585.55 196.988  Z" fill="#ffffff" fill-rule="evenodd" fill-opacity="1"/>
<defs>
  <clipPath id="clip013">
    <rect x="1585" y="196" width="658" height="483"/>
  </clipPath>
</defs>
<polyline clip-path="url(#clip013)" style="stroke:#000000; stroke-linecap:round; stroke-linejoin:round; stroke-width:2; stroke-opacity:0.1; fill:none" points="1660.03,678.964 1660.03,196.988 "/>
<polyline clip-path="url(#clip013)" style="stroke:#000000; stroke-linecap:round; stroke-linejoin:round; stroke-width:2; stroke-opacity:0.1; fill:none" points="1914.04,678.964 1914.04,196.988 "/>
<polyline clip-path="url(#clip013)" style="stroke:#000000; stroke-linecap:round; stroke-linejoin:round; stroke-width:2; stroke-opacity:0.1; fill:none" points="2168.04,678.964 2168.04,196.988 "/>
<polyline clip-path="url(#clip013)" style="stroke:#000000; stroke-linecap:round; stroke-linejoin:round; stroke-width:2; stroke-opacity:0.1; fill:none" points="1585.55,590.725 2242.52,590.725 "/>
<polyline clip-path="url(#clip013)" style="stroke:#000000; stroke-linecap:round; stroke-linejoin:round; stroke-width:2; stroke-opacity:0.1; fill:none" points="1585.55,481.382 2242.52,481.382 "/>
<polyline clip-path="url(#clip013)" style="stroke:#000000; stroke-linecap:round; stroke-linejoin:round; stroke-width:2; stroke-opacity:0.1; fill:none" points="1585.55,372.04 2242.52,372.04 "/>
<polyline clip-path="url(#clip013)" style="stroke:#000000; stroke-linecap:round; stroke-linejoin:round; stroke-width:2; stroke-opacity:0.1; fill:none" points="1585.55,262.697 2242.52,262.697 "/>
<polyline clip-path="url(#clip010)" style="stroke:#000000; stroke-linecap:round; stroke-linejoin:round; stroke-width:4; stroke-opacity:1; fill:none" points="1585.55,678.964 2242.52,678.964 "/>
<polyline clip-path="url(#clip010)" style="stroke:#000000; stroke-linecap:round; stroke-linejoin:round; stroke-width:4; stroke-opacity:1; fill:none" points="1660.03,678.964 1660.03,660.066 "/>
<polyline clip-path="url(#clip010)" style="stroke:#000000; stroke-linecap:round; stroke-linejoin:round; stroke-width:4; stroke-opacity:1; fill:none" points="1914.04,678.964 1914.04,660.066 "/>
<polyline clip-path="url(#clip010)" style="stroke:#000000; stroke-linecap:round; stroke-linejoin:round; stroke-width:4; stroke-opacity:1; fill:none" points="2168.04,678.964 2168.04,660.066 "/>
<path clip-path="url(#clip010)" d="M1645.25 711.41 L1638.9 728.609 L1651.61 728.609 L1645.25 711.41 M1642.61 706.804 L1647.91 706.804 L1661.08 741.364 L1656.22 741.364 L1653.07 732.498 L1637.49 732.498 L1634.34 741.364 L1629.41 741.364 L1642.61 706.804 Z" fill="#000000" fill-rule="nonzero" fill-opacity="1" /><path clip-path="url(#clip010)" d="M1670.8 724.859 L1670.8 737.521 L1678.3 737.521 Q1682.08 737.521 1683.88 735.97 Q1685.71 734.396 1685.71 731.179 Q1685.71 727.938 1683.88 726.41 Q1682.08 724.859 1678.3 724.859 L1670.8 724.859 M1670.8 710.646 L1670.8 721.063 L1677.72 721.063 Q1681.15 721.063 1682.82 719.79 Q1684.51 718.493 1684.51 715.855 Q1684.51 713.239 1682.82 711.943 Q1681.15 710.646 1677.72 710.646 L1670.8 710.646 M1666.13 706.804 L1678.07 706.804 Q1683.42 706.804 1686.31 709.026 Q1689.21 711.248 1689.21 715.345 Q1689.21 718.517 1687.72 720.392 Q1686.24 722.267 1683.37 722.729 Q1686.82 723.47 1688.72 725.831 Q1690.64 728.169 1690.64 731.688 Q1690.64 736.317 1687.49 738.841 Q1684.34 741.364 1678.53 741.364 L1666.13 741.364 L1666.13 706.804 Z" fill="#000000" fill-rule="nonzero" fill-opacity="1" /><path clip-path="url(#clip010)" d="M1886.28 706.804 L1890.96 706.804 L1890.96 720.97 L1907.95 720.97 L1907.95 706.804 L1912.62 706.804 L1912.62 741.364 L1907.95 741.364 L1907.95 724.905 L1890.96 724.905 L1890.96 741.364 L1886.28 741.364 L1886.28 706.804 Z" fill="#000000" fill-rule="nonzero" fill-opacity="1" /><path clip-path="url(#clip010)" d="M1921.93 706.804 L1941.79 706.804 L1941.79 710.739 L1926.61 710.739 L1926.61 720.924 L1940.31 720.924 L1940.31 724.859 L1926.61 724.859 L1926.61 741.364 L1921.93 741.364 L1921.93 706.804 Z" fill="#000000" fill-rule="nonzero" fill-opacity="1" /><path clip-path="url(#clip010)" d="M2144.91 706.804 L2149.58 706.804 L2149.58 737.428 L2166.41 737.428 L2166.41 741.364 L2144.91 741.364 L2144.91 706.804 Z" fill="#000000" fill-rule="nonzero" fill-opacity="1" /><path clip-path="url(#clip010)" d="M2171.32 706.804 L2191.18 706.804 L2191.18 710.739 L2176 710.739 L2176 720.924 L2189.7 720.924 L2189.7 724.859 L2176 724.859 L2176 741.364 L2171.32 741.364 L2171.32 706.804 Z" fill="#000000" fill-rule="nonzero" fill-opacity="1" /><polyline clip-path="url(#clip010)" style="stroke:#000000; stroke-linecap:round; stroke-linejoin:round; stroke-width:4; stroke-opacity:1; fill:none" points="1585.55,678.964 1585.55,196.988 "/>
<polyline clip-path="url(#clip010)" style="stroke:#000000; stroke-linecap:round; stroke-linejoin:round; stroke-width:4; stroke-opacity:1; fill:none" points="1585.55,590.725 1604.45,590.725 "/>
<polyline clip-path="url(#clip010)" style="stroke:#000000; stroke-linecap:round; stroke-linejoin:round; stroke-width:4; stroke-opacity:1; fill:none" points="1585.55,481.382 1604.45,481.382 "/>
<polyline clip-path="url(#clip010)" style="stroke:#000000; stroke-linecap:round; stroke-linejoin:round; stroke-width:4; stroke-opacity:1; fill:none" points="1585.55,372.04 1604.45,372.04 "/>
<polyline clip-path="url(#clip010)" style="stroke:#000000; stroke-linecap:round; stroke-linejoin:round; stroke-width:4; stroke-opacity:1; fill:none" points="1585.55,262.697 1604.45,262.697 "/>
<path clip-path="url(#clip010)" d="M1413.44 591.176 L1443.12 591.176 L1443.12 595.111 L1413.44 595.111 L1413.44 591.176 Z" fill="#000000" fill-rule="nonzero" fill-opacity="1" /><path clip-path="url(#clip010)" d="M1463.21 576.523 Q1459.6 576.523 1457.77 580.088 Q1455.96 583.63 1455.96 590.759 Q1455.96 597.866 1457.77 601.431 Q1459.6 604.972 1463.21 604.972 Q1466.84 604.972 1468.65 601.431 Q1470.48 597.866 1470.48 590.759 Q1470.48 583.63 1468.65 580.088 Q1466.84 576.523 1463.21 576.523 M1463.21 572.82 Q1469.02 572.82 1472.08 577.426 Q1475.15 582.009 1475.15 590.759 Q1475.15 599.486 1472.08 604.093 Q1469.02 608.676 1463.21 608.676 Q1457.4 608.676 1454.32 604.093 Q1451.27 599.486 1451.27 590.759 Q1451.27 582.009 1454.32 577.426 Q1457.4 572.82 1463.21 572.82 Z" fill="#000000" fill-rule="nonzero" fill-opacity="1" /><path clip-path="url(#clip010)" d="M1483.37 602.125 L1488.26 602.125 L1488.26 608.005 L1483.37 608.005 L1483.37 602.125 Z" fill="#000000" fill-rule="nonzero" fill-opacity="1" /><path clip-path="url(#clip010)" d="M1508.44 576.523 Q1504.83 576.523 1503 580.088 Q1501.2 583.63 1501.2 590.759 Q1501.2 597.866 1503 601.431 Q1504.83 604.972 1508.44 604.972 Q1512.08 604.972 1513.88 601.431 Q1515.71 597.866 1515.71 590.759 Q1515.71 583.63 1513.88 580.088 Q1512.08 576.523 1508.44 576.523 M1508.44 572.82 Q1514.25 572.82 1517.31 577.426 Q1520.39 582.009 1520.39 590.759 Q1520.39 599.486 1517.31 604.093 Q1514.25 608.676 1508.44 608.676 Q1502.63 608.676 1499.55 604.093 Q1496.5 599.486 1496.5 590.759 Q1496.5 582.009 1499.55 577.426 Q1502.63 572.82 1508.44 572.82 Z" fill="#000000" fill-rule="nonzero" fill-opacity="1" /><path clip-path="url(#clip010)" d="M1528.65 573.445 L1547.01 573.445 L1547.01 577.38 L1532.93 577.38 L1532.93 585.852 Q1533.95 585.505 1534.97 585.343 Q1535.99 585.158 1537.01 585.158 Q1542.79 585.158 1546.17 588.329 Q1549.55 591.5 1549.55 596.917 Q1549.55 602.495 1546.08 605.597 Q1542.61 608.676 1536.29 608.676 Q1534.11 608.676 1531.84 608.306 Q1529.6 607.935 1527.19 607.194 L1527.19 602.495 Q1529.27 603.63 1531.5 604.185 Q1533.72 604.741 1536.2 604.741 Q1540.2 604.741 1542.54 602.634 Q1544.88 600.528 1544.88 596.917 Q1544.88 593.306 1542.54 591.199 Q1540.2 589.093 1536.2 589.093 Q1534.32 589.093 1532.45 589.509 Q1530.59 589.926 1528.65 590.806 L1528.65 573.445 Z" fill="#000000" fill-rule="nonzero" fill-opacity="1" /><path clip-path="url(#clip010)" d="M1462.21 467.181 Q1458.6 467.181 1456.77 470.746 Q1454.97 474.287 1454.97 481.417 Q1454.97 488.523 1456.77 492.088 Q1458.6 495.63 1462.21 495.63 Q1465.85 495.63 1467.65 492.088 Q1469.48 488.523 1469.48 481.417 Q1469.48 474.287 1467.65 470.746 Q1465.85 467.181 1462.21 467.181 M1462.21 463.477 Q1468.02 463.477 1471.08 468.084 Q1474.16 472.667 1474.16 481.417 Q1474.16 490.144 1471.08 494.75 Q1468.02 499.333 1462.21 499.333 Q1456.4 499.333 1453.33 494.75 Q1450.27 490.144 1450.27 481.417 Q1450.27 472.667 1453.33 468.084 Q1456.4 463.477 1462.21 463.477 Z" fill="#000000" fill-rule="nonzero" fill-opacity="1" /><path clip-path="url(#clip010)" d="M1482.38 492.783 L1487.26 492.783 L1487.26 498.662 L1482.38 498.662 L1482.38 492.783 Z" fill="#000000" fill-rule="nonzero" fill-opacity="1" /><path clip-path="url(#clip010)" d="M1507.45 467.181 Q1503.83 467.181 1502.01 470.746 Q1500.2 474.287 1500.2 481.417 Q1500.2 488.523 1502.01 492.088 Q1503.83 495.63 1507.45 495.63 Q1511.08 495.63 1512.89 492.088 Q1514.71 488.523 1514.71 481.417 Q1514.71 474.287 1512.89 470.746 Q1511.08 467.181 1507.45 467.181 M1507.45 463.477 Q1513.26 463.477 1516.31 468.084 Q1519.39 472.667 1519.39 481.417 Q1519.39 490.144 1516.31 494.75 Q1513.26 499.333 1507.45 499.333 Q1501.64 499.333 1498.56 494.75 Q1495.5 490.144 1495.5 481.417 Q1495.5 472.667 1498.56 468.084 Q1501.64 463.477 1507.45 463.477 Z" fill="#000000" fill-rule="nonzero" fill-opacity="1" /><path clip-path="url(#clip010)" d="M1537.61 467.181 Q1534 467.181 1532.17 470.746 Q1530.36 474.287 1530.36 481.417 Q1530.36 488.523 1532.17 492.088 Q1534 495.63 1537.61 495.63 Q1541.24 495.63 1543.05 492.088 Q1544.88 488.523 1544.88 481.417 Q1544.88 474.287 1543.05 470.746 Q1541.24 467.181 1537.61 467.181 M1537.61 463.477 Q1543.42 463.477 1546.47 468.084 Q1549.55 472.667 1549.55 481.417 Q1549.55 490.144 1546.47 494.75 Q1543.42 499.333 1537.61 499.333 Q1531.8 499.333 1528.72 494.75 Q1525.66 490.144 1525.66 481.417 Q1525.66 472.667 1528.72 468.084 Q1531.8 463.477 1537.61 463.477 Z" fill="#000000" fill-rule="nonzero" fill-opacity="1" /><path clip-path="url(#clip010)" d="M1463.21 357.838 Q1459.6 357.838 1457.77 361.403 Q1455.96 364.945 1455.96 372.074 Q1455.96 379.181 1457.77 382.746 Q1459.6 386.287 1463.21 386.287 Q1466.84 386.287 1468.65 382.746 Q1470.48 379.181 1470.48 372.074 Q1470.48 364.945 1468.65 361.403 Q1466.84 357.838 1463.21 357.838 M1463.21 354.135 Q1469.02 354.135 1472.08 358.741 Q1475.15 363.324 1475.15 372.074 Q1475.15 380.801 1472.08 385.408 Q1469.02 389.991 1463.21 389.991 Q1457.4 389.991 1454.32 385.408 Q1451.27 380.801 1451.27 372.074 Q1451.27 363.324 1454.32 358.741 Q1457.4 354.135 1463.21 354.135 Z" fill="#000000" fill-rule="nonzero" fill-opacity="1" /><path clip-path="url(#clip010)" d="M1483.37 383.44 L1488.26 383.44 L1488.26 389.32 L1483.37 389.32 L1483.37 383.44 Z" fill="#000000" fill-rule="nonzero" fill-opacity="1" /><path clip-path="url(#clip010)" d="M1508.44 357.838 Q1504.83 357.838 1503 361.403 Q1501.2 364.945 1501.2 372.074 Q1501.2 379.181 1503 382.746 Q1504.83 386.287 1508.44 386.287 Q1512.08 386.287 1513.88 382.746 Q1515.71 379.181 1515.71 372.074 Q1515.71 364.945 1513.88 361.403 Q1512.08 357.838 1508.44 357.838 M1508.44 354.135 Q1514.25 354.135 1517.31 358.741 Q1520.39 363.324 1520.39 372.074 Q1520.39 380.801 1517.31 385.408 Q1514.25 389.991 1508.44 389.991 Q1502.63 389.991 1499.55 385.408 Q1496.5 380.801 1496.5 372.074 Q1496.5 363.324 1499.55 358.741 Q1502.63 354.135 1508.44 354.135 Z" fill="#000000" fill-rule="nonzero" fill-opacity="1" /><path clip-path="url(#clip010)" d="M1528.65 354.76 L1547.01 354.76 L1547.01 358.695 L1532.93 358.695 L1532.93 367.167 Q1533.95 366.82 1534.97 366.658 Q1535.99 366.472 1537.01 366.472 Q1542.79 366.472 1546.17 369.644 Q1549.55 372.815 1549.55 378.232 Q1549.55 383.81 1546.08 386.912 Q1542.61 389.991 1536.29 389.991 Q1534.11 389.991 1531.84 389.621 Q1529.6 389.25 1527.19 388.509 L1527.19 383.81 Q1529.27 384.945 1531.5 385.5 Q1533.72 386.056 1536.2 386.056 Q1540.2 386.056 1542.54 383.949 Q1544.88 381.843 1544.88 378.232 Q1544.88 374.621 1542.54 372.514 Q1540.2 370.408 1536.2 370.408 Q1534.32 370.408 1532.45 370.824 Q1530.59 371.241 1528.65 372.121 L1528.65 354.76 Z" fill="#000000" fill-rule="nonzero" fill-opacity="1" /><path clip-path="url(#clip010)" d="M1462.21 248.496 Q1458.6 248.496 1456.77 252.061 Q1454.97 255.602 1454.97 262.732 Q1454.97 269.838 1456.77 273.403 Q1458.6 276.945 1462.21 276.945 Q1465.85 276.945 1467.65 273.403 Q1469.48 269.838 1469.48 262.732 Q1469.48 255.602 1467.65 252.061 Q1465.85 248.496 1462.21 248.496 M1462.21 244.792 Q1468.02 244.792 1471.08 249.398 Q1474.16 253.982 1474.16 262.732 Q1474.16 271.459 1471.08 276.065 Q1468.02 280.648 1462.21 280.648 Q1456.4 280.648 1453.33 276.065 Q1450.27 271.459 1450.27 262.732 Q1450.27 253.982 1453.33 249.398 Q1456.4 244.792 1462.21 244.792 Z" fill="#000000" fill-rule="nonzero" fill-opacity="1" /><path clip-path="url(#clip010)" d="M1482.38 274.097 L1487.26 274.097 L1487.26 279.977 L1482.38 279.977 L1482.38 274.097 Z" fill="#000000" fill-rule="nonzero" fill-opacity="1" /><path clip-path="url(#clip010)" d="M1498.26 276.042 L1505.89 276.042 L1505.89 249.676 L1497.58 251.343 L1497.58 247.084 L1505.85 245.417 L1510.52 245.417 L1510.52 276.042 L1518.16 276.042 L1518.16 279.977 L1498.26 279.977 L1498.26 276.042 Z" fill="#000000" fill-rule="nonzero" fill-opacity="1" /><path clip-path="url(#clip010)" d="M1537.61 248.496 Q1534 248.496 1532.17 252.061 Q1530.36 255.602 1530.36 262.732 Q1530.36 269.838 1532.17 273.403 Q1534 276.945 1537.61 276.945 Q1541.24 276.945 1543.05 273.403 Q1544.88 269.838 1544.88 262.732 Q1544.88 255.602 1543.05 252.061 Q1541.24 248.496 1537.61 248.496 M1537.61 244.792 Q1543.42 244.792 1546.47 249.398 Q1549.55 253.982 1549.55 262.732 Q1549.55 271.459 1546.47 276.065 Q1543.42 280.648 1537.61 280.648 Q1531.8 280.648 1528.72 276.065 Q1525.66 271.459 1525.66 262.732 Q1525.66 253.982 1528.72 249.398 Q1531.8 244.792 1537.61 244.792 Z" fill="#000000" fill-rule="nonzero" fill-opacity="1" /><path clip-path="url(#clip010)" d="M1341.04 629.759 L1325.26 629.759 L1325.26 624.967 L1365.78 624.967 L1365.78 629.759 L1361.4 629.759 Q1364.01 631.269 1365.28 633.587 Q1366.53 635.879 1366.53 639.108 Q1366.53 644.394 1362.31 647.727 Q1358.1 651.035 1351.22 651.035 Q1344.35 651.035 1340.13 647.727 Q1335.91 644.394 1335.91 639.108 Q1335.91 635.879 1337.18 633.587 Q1338.43 631.269 1341.04 629.759 M1351.22 646.087 Q1356.51 646.087 1359.53 643.925 Q1362.52 641.738 1362.52 637.936 Q1362.52 634.134 1359.53 631.946 Q1356.51 629.759 1351.22 629.759 Q1345.93 629.759 1342.94 631.946 Q1339.92 634.134 1339.92 637.936 Q1339.92 641.738 1342.94 643.925 Q1345.93 646.087 1351.22 646.087 Z" fill="#000000" fill-rule="nonzero" fill-opacity="1" /><path clip-path="url(#clip010)" d="M1341.09 581.243 Q1340.62 582.051 1340.41 583.014 Q1340.18 583.952 1340.18 585.098 Q1340.18 589.16 1342.83 591.348 Q1345.46 593.509 1350.41 593.509 L1365.78 593.509 L1365.78 598.327 L1336.61 598.327 L1336.61 593.509 L1341.14 593.509 Q1338.49 591.999 1337.21 589.577 Q1335.91 587.155 1335.91 583.691 Q1335.91 583.197 1335.99 582.598 Q1336.04 581.999 1336.17 581.27 L1341.09 581.243 Z" fill="#000000" fill-rule="nonzero" fill-opacity="1" /><path clip-path="url(#clip010)" d="M1351.12 562.962 Q1351.12 568.77 1352.44 571.009 Q1353.77 573.249 1356.98 573.249 Q1359.53 573.249 1361.04 571.582 Q1362.52 569.889 1362.52 566.999 Q1362.52 563.014 1359.71 560.619 Q1356.87 558.197 1352.18 558.197 L1351.12 558.197 L1351.12 562.962 M1349.14 553.405 L1365.78 553.405 L1365.78 558.197 L1361.35 558.197 Q1364.01 559.837 1365.28 562.285 Q1366.53 564.733 1366.53 568.275 Q1366.53 572.754 1364.03 575.41 Q1361.51 578.04 1357.29 578.04 Q1352.37 578.04 1349.87 574.759 Q1347.37 571.452 1347.37 564.915 L1347.37 558.197 L1346.9 558.197 Q1343.59 558.197 1341.79 560.384 Q1339.97 562.546 1339.97 566.478 Q1339.97 568.978 1340.57 571.348 Q1341.17 573.717 1342.37 575.905 L1337.94 575.905 Q1336.92 573.275 1336.43 570.801 Q1335.91 568.327 1335.91 565.983 Q1335.91 559.655 1339.19 556.53 Q1342.47 553.405 1349.14 553.405 Z" fill="#000000" fill-rule="nonzero" fill-opacity="1" /><path clip-path="url(#clip010)" d="M1348.17 519.291 L1365.78 519.291 L1365.78 524.082 L1348.33 524.082 Q1344.19 524.082 1342.13 525.697 Q1340.07 527.311 1340.07 530.541 Q1340.07 534.421 1342.55 536.66 Q1345.02 538.9 1349.29 538.9 L1365.78 538.9 L1365.78 543.718 L1336.61 543.718 L1336.61 538.9 L1341.14 538.9 Q1338.51 537.181 1337.21 534.864 Q1335.91 532.52 1335.91 529.473 Q1335.91 524.447 1339.03 521.869 Q1342.13 519.291 1348.17 519.291 Z" fill="#000000" fill-rule="nonzero" fill-opacity="1" /><path clip-path="url(#clip010)" d="M1325.26 509.916 L1325.26 505.098 L1349.19 505.098 L1336.61 490.801 L1336.61 484.681 L1350.26 500.15 L1365.78 484.03 L1365.78 490.28 L1351.53 505.098 L1365.78 505.098 L1365.78 509.916 L1325.26 509.916 Z" fill="#000000" fill-rule="nonzero" fill-opacity="1" /><path clip-path="url(#clip010)" d="M1326.9 453.38 L1326.9 448.953 L1370.73 462.494 L1370.73 466.921 L1326.9 453.38 Z" fill="#000000" fill-rule="nonzero" fill-opacity="1" /><path clip-path="url(#clip010)" d="M1341.04 407.781 L1325.26 407.781 L1325.26 402.989 L1365.78 402.989 L1365.78 407.781 L1361.4 407.781 Q1364.01 409.291 1365.28 411.609 Q1366.53 413.901 1366.53 417.13 Q1366.53 422.416 1362.31 425.75 Q1358.1 429.057 1351.22 429.057 Q1344.35 429.057 1340.13 425.75 Q1335.91 422.416 1335.91 417.13 Q1335.91 413.901 1337.18 411.609 Q1338.43 409.291 1341.04 407.781 M1351.22 424.109 Q1356.51 424.109 1359.53 421.947 Q1362.52 419.76 1362.52 415.958 Q1362.52 412.156 1359.53 409.968 Q1356.51 407.781 1351.22 407.781 Q1345.93 407.781 1342.94 409.968 Q1339.92 412.156 1339.92 415.958 Q1339.92 419.76 1342.94 421.947 Q1345.93 424.109 1351.22 424.109 Z" fill="#000000" fill-rule="nonzero" fill-opacity="1" /><path clip-path="url(#clip010)" d="M1337.47 357.573 L1342 357.573 Q1340.96 359.604 1340.44 361.792 Q1339.92 363.979 1339.92 366.323 Q1339.92 369.89 1341.01 371.687 Q1342.11 373.458 1344.29 373.458 Q1345.96 373.458 1346.92 372.182 Q1347.86 370.906 1348.72 367.052 L1349.08 365.411 Q1350.18 360.307 1352.18 358.172 Q1354.16 356.01 1357.73 356.01 Q1361.79 356.01 1364.16 359.239 Q1366.53 362.443 1366.53 368.068 Q1366.53 370.411 1366.06 372.963 Q1365.62 375.489 1364.71 378.302 L1359.76 378.302 Q1361.14 375.646 1361.85 373.067 Q1362.52 370.489 1362.52 367.963 Q1362.52 364.578 1361.38 362.755 Q1360.2 360.932 1358.1 360.932 Q1356.14 360.932 1355.1 362.26 Q1354.06 363.562 1353.1 368.015 L1352.7 369.682 Q1351.77 374.135 1349.84 376.114 Q1347.89 378.094 1344.5 378.094 Q1340.39 378.094 1338.15 375.177 Q1335.91 372.26 1335.91 366.896 Q1335.91 364.239 1336.3 361.896 Q1336.69 359.552 1337.47 357.573 Z" fill="#000000" fill-rule="nonzero" fill-opacity="1" /><path clip-path="url(#clip010)" d="M1361.4 343.745 L1376.87 343.745 L1376.87 348.562 L1336.61 348.562 L1336.61 343.745 L1341.04 343.745 Q1338.43 342.234 1337.18 339.943 Q1335.91 337.625 1335.91 334.422 Q1335.91 329.109 1340.13 325.802 Q1344.35 322.469 1351.22 322.469 Q1358.1 322.469 1362.31 325.802 Q1366.53 329.109 1366.53 334.422 Q1366.53 337.625 1365.28 339.943 Q1364.01 342.234 1361.4 343.745 M1351.22 327.443 Q1345.93 327.443 1342.94 329.63 Q1339.92 331.792 1339.92 335.594 Q1339.92 339.396 1342.94 341.583 Q1345.93 343.745 1351.22 343.745 Q1356.51 343.745 1359.53 341.583 Q1362.52 339.396 1362.52 335.594 Q1362.52 331.792 1359.53 329.63 Q1356.51 327.443 1351.22 327.443 Z" fill="#000000" fill-rule="nonzero" fill-opacity="1" /><path clip-path="url(#clip010)" d="M1350 289.578 L1352.34 289.578 L1352.34 311.609 Q1357.29 311.297 1359.89 308.641 Q1362.47 305.958 1362.47 301.193 Q1362.47 298.432 1361.79 295.854 Q1361.12 293.25 1359.76 290.698 L1364.29 290.698 Q1365.39 293.276 1365.96 295.985 Q1366.53 298.693 1366.53 301.479 Q1366.53 308.458 1362.47 312.547 Q1358.41 316.609 1351.48 316.609 Q1344.32 316.609 1340.13 312.755 Q1335.91 308.875 1335.91 302.313 Q1335.91 296.427 1339.71 293.016 Q1343.49 289.578 1350 289.578 M1348.59 294.37 Q1344.66 294.422 1342.31 296.584 Q1339.97 298.719 1339.97 302.261 Q1339.97 306.271 1342.24 308.693 Q1344.5 311.089 1348.62 311.453 L1348.59 294.37 Z" fill="#000000" fill-rule="nonzero" fill-opacity="1" /><path clip-path="url(#clip010)" d="M1350 256.766 L1352.34 256.766 L1352.34 278.797 Q1357.29 278.485 1359.89 275.828 Q1362.47 273.146 1362.47 268.381 Q1362.47 265.62 1361.79 263.042 Q1361.12 260.438 1359.76 257.886 L1364.29 257.886 Q1365.39 260.464 1365.96 263.172 Q1366.53 265.881 1366.53 268.667 Q1366.53 275.646 1362.47 279.735 Q1358.41 283.797 1351.48 283.797 Q1344.32 283.797 1340.13 279.943 Q1335.91 276.063 1335.91 269.5 Q1335.91 263.615 1339.71 260.204 Q1343.49 256.766 1350 256.766 M1348.59 261.558 Q1344.66 261.61 1342.31 263.771 Q1339.97 265.907 1339.97 269.448 Q1339.97 273.459 1342.24 275.881 Q1344.5 278.276 1348.62 278.641 L1348.59 261.558 Z" fill="#000000" fill-rule="nonzero" fill-opacity="1" /><path clip-path="url(#clip010)" d="M1341.04 229.709 L1325.26 229.709 L1325.26 224.917 L1365.78 224.917 L1365.78 229.709 L1361.4 229.709 Q1364.01 231.219 1365.28 233.537 Q1366.53 235.829 1366.53 239.058 Q1366.53 244.344 1362.31 247.678 Q1358.1 250.985 1351.22 250.985 Q1344.35 250.985 1340.13 247.678 Q1335.91 244.344 1335.91 239.058 Q1335.91 235.829 1337.18 233.537 Q1338.43 231.219 1341.04 229.709 M1351.22 246.037 Q1356.51 246.037 1359.53 243.875 Q1362.52 241.688 1362.52 237.886 Q1362.52 234.084 1359.53 231.896 Q1356.51 229.709 1351.22 229.709 Q1345.93 229.709 1342.94 231.896 Q1339.92 234.084 1339.92 237.886 Q1339.92 241.688 1342.94 243.875 Q1345.93 246.037 1351.22 246.037 Z" fill="#000000" fill-rule="nonzero" fill-opacity="1" /><path clip-path="url(#clip010)" d="M1491.38 6.87496 Q1487.5 13.53 1485.62 20.0404 Q1483.74 26.5508 1483.74 33.2348 Q1483.74 39.9188 1485.62 46.487 Q1487.53 53.0263 1491.38 59.6525 L1486.75 59.6525 Q1482.41 52.8527 1480.24 46.2845 Q1478.1 39.7162 1478.1 33.2348 Q1478.1 26.7823 1480.24 20.2429 Q1482.38 13.7036 1486.75 6.87496 L1491.38 6.87496 Z" fill="#000000" fill-rule="nonzero" fill-opacity="1" /><path clip-path="url(#clip010)" d="M1507.79 31.2093 L1507.79 47.0368 L1517.16 47.0368 Q1521.88 47.0368 1524.14 45.0981 Q1526.42 43.1306 1526.42 39.1086 Q1526.42 35.0577 1524.14 33.148 Q1521.88 31.2093 1517.16 31.2093 L1507.79 31.2093 M1507.79 13.4432 L1507.79 26.464 L1516.44 26.464 Q1520.72 26.464 1522.81 24.8726 Q1524.92 23.2522 1524.92 19.9536 Q1524.92 16.6839 1522.81 15.0636 Q1520.72 13.4432 1516.44 13.4432 L1507.79 13.4432 M1501.94 8.64 L1516.87 8.64 Q1523.56 8.64 1527.17 11.4178 Q1530.79 14.1955 1530.79 19.317 Q1530.79 23.2811 1528.94 25.6249 Q1527.09 27.9686 1523.5 28.5473 Q1527.81 29.4732 1530.18 32.4246 Q1532.59 35.347 1532.59 39.7452 Q1532.59 45.5322 1528.65 48.6861 Q1524.71 51.84 1517.45 51.84 L1501.94 51.84 L1501.94 8.64 Z" fill="#000000" fill-rule="nonzero" fill-opacity="1" /><path clip-path="url(#clip010)" d="M1548.15 46.921 L1568.55 46.921 L1568.55 51.84 L1541.12 51.84 L1541.12 46.921 Q1544.45 43.4778 1550.18 37.6908 Q1555.94 31.8748 1557.41 30.1966 Q1560.22 27.0427 1561.32 24.8726 Q1562.45 22.6735 1562.45 20.5612 Q1562.45 17.118 1560.02 14.9478 Q1557.61 12.7777 1553.74 12.7777 Q1550.99 12.7777 1547.92 13.7326 Q1544.88 14.6874 1541.41 16.6261 L1541.41 10.7233 Q1544.94 9.30551 1548.01 8.58213 Q1551.07 7.85875 1553.62 7.85875 Q1560.33 7.85875 1564.33 11.2152 Q1568.32 14.5717 1568.32 20.1851 Q1568.32 22.8471 1567.31 25.2487 Q1566.32 27.6214 1563.69 30.8621 Q1562.97 31.7012 1559.09 35.7232 Q1555.21 39.7162 1548.15 46.921 Z" fill="#000000" fill-rule="nonzero" fill-opacity="1" /><path clip-path="url(#clip010)" d="M1579.23 6.87496 L1583.86 6.87496 Q1588.2 13.7036 1590.34 20.2429 Q1592.51 26.7823 1592.51 33.2348 Q1592.51 39.7162 1590.34 46.2845 Q1588.2 52.8527 1583.86 59.6525 L1579.23 59.6525 Q1583.08 53.0263 1584.96 46.487 Q1586.87 39.9188 1586.87 33.2348 Q1586.87 26.5508 1584.96 20.0404 Q1583.08 13.53 1579.23 6.87496 Z" fill="#000000" fill-rule="nonzero" fill-opacity="1" /><path clip-path="url(#clip010)" d="M1648.15 10.0578 L1648.15 15.758 Q1644.82 14.1666 1641.87 13.3853 Q1638.92 12.6041 1636.17 12.6041 Q1631.4 12.6041 1628.79 14.4559 Q1626.22 16.3078 1626.22 19.7221 Q1626.22 22.5867 1627.93 24.0624 Q1629.66 25.5091 1634.47 26.4061 L1638 27.1295 Q1644.53 28.3737 1647.63 31.5276 Q1650.76 34.6526 1650.76 39.9188 Q1650.76 46.1977 1646.53 49.4384 Q1642.34 52.6791 1634.21 52.6791 Q1631.14 52.6791 1627.67 51.9847 Q1624.22 51.2902 1620.52 49.9303 L1620.52 43.9118 Q1624.08 45.9083 1627.49 46.921 Q1630.91 47.9338 1634.21 47.9338 Q1639.21 47.9338 1641.93 45.9662 Q1644.65 43.9986 1644.65 40.3528 Q1644.65 37.1699 1642.68 35.376 Q1640.74 33.582 1636.29 32.685 L1632.73 31.9906 Q1626.19 30.6885 1623.27 27.9107 Q1620.35 25.133 1620.35 20.1851 Q1620.35 14.4559 1624.37 11.1573 Q1628.42 7.85875 1635.51 7.85875 Q1638.55 7.85875 1641.7 8.40852 Q1644.85 8.95829 1648.15 10.0578 Z" fill="#000000" fill-rule="nonzero" fill-opacity="1" /><path clip-path="url(#clip010)" d="M1664.79 46.9789 L1664.79 64.1663 L1659.44 64.1663 L1659.44 19.4328 L1664.79 19.4328 L1664.79 24.3517 Q1666.47 21.4582 1669.01 20.0693 Q1671.59 18.6515 1675.15 18.6515 Q1681.05 18.6515 1684.73 23.339 Q1688.43 28.0265 1688.43 35.6653 Q1688.43 43.3042 1684.73 47.9916 Q1681.05 52.6791 1675.15 52.6791 Q1671.59 52.6791 1669.01 51.2902 Q1666.47 49.8724 1664.79 46.9789 M1682.9 35.6653 Q1682.9 29.7915 1680.47 26.464 Q1678.07 23.1075 1673.85 23.1075 Q1669.62 23.1075 1667.19 26.464 Q1664.79 29.7915 1664.79 35.6653 Q1664.79 41.5391 1667.19 44.8956 Q1669.62 48.2231 1673.85 48.2231 Q1678.07 48.2231 1680.47 44.8956 Q1682.9 41.5391 1682.9 35.6653 Z" fill="#000000" fill-rule="nonzero" fill-opacity="1" /><path clip-path="url(#clip010)" d="M1724.97 34.3054 L1724.97 36.9095 L1700.5 36.9095 Q1700.84 42.4072 1703.79 45.3007 Q1706.77 48.1653 1712.07 48.1653 Q1715.14 48.1653 1718 47.4129 Q1720.89 46.6606 1723.73 45.156 L1723.73 50.1907 Q1720.87 51.406 1717.86 52.0425 Q1714.85 52.6791 1711.75 52.6791 Q1704 52.6791 1699.45 48.1653 Q1694.94 43.6514 1694.94 35.9547 Q1694.94 27.9975 1699.22 23.339 Q1703.53 18.6515 1710.82 18.6515 Q1717.36 18.6515 1721.15 22.876 Q1724.97 27.0716 1724.97 34.3054 M1719.65 32.7429 Q1719.59 28.3737 1717.19 25.7695 Q1714.82 23.1654 1710.88 23.1654 Q1706.43 23.1654 1703.74 25.6827 Q1701.07 28.2001 1700.67 32.7718 L1719.65 32.7429 Z" fill="#000000" fill-rule="nonzero" fill-opacity="1" /><path clip-path="url(#clip010)" d="M1761.43 34.3054 L1761.43 36.9095 L1736.95 36.9095 Q1737.3 42.4072 1740.25 45.3007 Q1743.23 48.1653 1748.53 48.1653 Q1751.59 48.1653 1754.46 47.4129 Q1757.35 46.6606 1760.19 45.156 L1760.19 50.1907 Q1757.32 51.406 1754.31 52.0425 Q1751.31 52.6791 1748.21 52.6791 Q1740.45 52.6791 1735.91 48.1653 Q1731.4 43.6514 1731.4 35.9547 Q1731.4 27.9975 1735.68 23.339 Q1739.99 18.6515 1747.28 18.6515 Q1753.82 18.6515 1757.61 22.876 Q1761.43 27.0716 1761.43 34.3054 M1756.11 32.7429 Q1756.05 28.3737 1753.65 25.7695 Q1751.28 23.1654 1747.34 23.1654 Q1742.88 23.1654 1740.19 25.6827 Q1737.53 28.2001 1737.13 32.7718 L1756.11 32.7429 Z" fill="#000000" fill-rule="nonzero" fill-opacity="1" /><path clip-path="url(#clip010)" d="M1791.5 24.3517 L1791.5 6.81709 L1796.82 6.81709 L1796.82 51.84 L1791.5 51.84 L1791.5 46.9789 Q1789.82 49.8724 1787.24 51.2902 Q1784.7 52.6791 1781.11 52.6791 Q1775.23 52.6791 1771.53 47.9916 Q1767.86 43.3042 1767.86 35.6653 Q1767.86 28.0265 1771.53 23.339 Q1775.23 18.6515 1781.11 18.6515 Q1784.7 18.6515 1787.24 20.0693 Q1789.82 21.4582 1791.5 24.3517 M1773.35 35.6653 Q1773.35 41.5391 1775.76 44.8956 Q1778.19 48.2231 1782.41 48.2231 Q1786.63 48.2231 1789.07 44.8956 Q1791.5 41.5391 1791.5 35.6653 Q1791.5 29.7915 1789.07 26.464 Q1786.63 23.1075 1782.41 23.1075 Q1778.19 23.1075 1775.76 26.464 Q1773.35 29.7915 1773.35 35.6653 Z" fill="#000000" fill-rule="nonzero" fill-opacity="1" /><path clip-path="url(#clip010)" d="M1847.28 20.3876 L1847.28 25.4223 Q1845.03 24.2649 1842.6 23.6862 Q1840.16 23.1075 1837.56 23.1075 Q1833.6 23.1075 1831.6 24.3228 Q1829.63 25.5381 1829.63 27.9686 Q1829.63 29.8204 1831.05 30.891 Q1832.47 31.9327 1836.75 32.8876 L1838.57 33.2926 Q1844.24 34.5079 1846.62 36.7359 Q1849.02 38.935 1849.02 42.8991 Q1849.02 47.4129 1845.43 50.046 Q1841.87 52.6791 1835.62 52.6791 Q1833.02 52.6791 1830.18 52.1583 Q1827.38 51.6664 1824.25 50.6537 L1824.25 45.156 Q1827.2 46.6896 1830.07 47.4708 Q1832.93 48.2231 1835.74 48.2231 Q1839.5 48.2231 1841.52 46.95 Q1843.55 45.6479 1843.55 43.3042 Q1843.55 41.134 1842.07 39.9766 Q1840.63 38.8192 1835.68 37.7486 L1833.83 37.3146 Q1828.88 36.273 1826.68 34.1318 Q1824.48 31.9616 1824.48 28.2001 Q1824.48 23.6283 1827.72 21.1399 Q1830.96 18.6515 1836.92 18.6515 Q1839.88 18.6515 1842.48 19.0855 Q1845.08 19.5196 1847.28 20.3876 Z" fill="#000000" fill-rule="nonzero" fill-opacity="1" /><path clip-path="url(#clip010)" d="M1885.22 34.3054 L1885.22 36.9095 L1860.74 36.9095 Q1861.08 42.4072 1864.04 45.3007 Q1867.02 48.1653 1872.31 48.1653 Q1875.38 48.1653 1878.24 47.4129 Q1881.14 46.6606 1883.97 45.156 L1883.97 50.1907 Q1881.11 51.406 1878.1 52.0425 Q1875.09 52.6791 1871.99 52.6791 Q1864.24 52.6791 1859.7 48.1653 Q1855.18 43.6514 1855.18 35.9547 Q1855.18 27.9975 1859.46 23.339 Q1863.78 18.6515 1871.07 18.6515 Q1877.61 18.6515 1881.4 22.876 Q1885.22 27.0716 1885.22 34.3054 M1879.89 32.7429 Q1879.83 28.3737 1877.43 25.7695 Q1875.06 23.1654 1871.13 23.1654 Q1866.67 23.1654 1863.98 25.6827 Q1861.32 28.2001 1860.91 32.7718 L1879.89 32.7429 Z" fill="#000000" fill-rule="nonzero" fill-opacity="1" /><path clip-path="url(#clip010)" d="M1920.89 32.2799 L1920.89 51.84 L1915.57 51.84 L1915.57 32.4535 Q1915.57 27.8529 1913.78 25.567 Q1911.98 23.2811 1908.39 23.2811 Q1904.08 23.2811 1901.59 26.03 Q1899.11 28.7788 1899.11 33.5241 L1899.11 51.84 L1893.75 51.84 L1893.75 19.4328 L1899.11 19.4328 L1899.11 24.4675 Q1901.01 21.545 1903.59 20.0983 Q1906.19 18.6515 1909.58 18.6515 Q1915.16 18.6515 1918.03 22.1237 Q1920.89 25.567 1920.89 32.2799 Z" fill="#000000" fill-rule="nonzero" fill-opacity="1" /><path clip-path="url(#clip010)" d="M1952.17 20.3876 L1952.17 25.4223 Q1949.92 24.2649 1947.48 23.6862 Q1945.05 23.1075 1942.45 23.1075 Q1938.49 23.1075 1936.49 24.3228 Q1934.52 25.5381 1934.52 27.9686 Q1934.52 29.8204 1935.94 30.891 Q1937.36 31.9327 1941.64 32.8876 L1943.46 33.2926 Q1949.13 34.5079 1951.51 36.7359 Q1953.91 38.935 1953.91 42.8991 Q1953.91 47.4129 1950.32 50.046 Q1946.76 52.6791 1940.51 52.6791 Q1937.91 52.6791 1935.07 52.1583 Q1932.26 51.6664 1929.14 50.6537 L1929.14 45.156 Q1932.09 46.6896 1934.96 47.4708 Q1937.82 48.2231 1940.63 48.2231 Q1944.39 48.2231 1946.41 46.95 Q1948.44 45.6479 1948.44 43.3042 Q1948.44 41.134 1946.96 39.9766 Q1945.52 38.8192 1940.57 37.7486 L1938.72 37.3146 Q1933.77 36.273 1931.57 34.1318 Q1929.37 31.9616 1929.37 28.2001 Q1929.37 23.6283 1932.61 21.1399 Q1935.85 18.6515 1941.81 18.6515 Q1944.76 18.6515 1947.37 19.0855 Q1949.97 19.5196 1952.17 20.3876 Z" fill="#000000" fill-rule="nonzero" fill-opacity="1" /><path clip-path="url(#clip010)" d="M1962.39 19.4328 L1967.71 19.4328 L1967.71 51.84 L1962.39 51.84 L1962.39 19.4328 M1962.39 6.81709 L1967.71 6.81709 L1967.71 13.559 L1962.39 13.559 L1962.39 6.81709 Z" fill="#000000" fill-rule="nonzero" fill-opacity="1" /><path clip-path="url(#clip010)" d="M1984.12 10.2314 L1984.12 19.4328 L1995.08 19.4328 L1995.08 23.5705 L1984.12 23.5705 L1984.12 41.163 Q1984.12 45.1271 1985.19 46.2555 Q1986.29 47.384 1989.61 47.384 L1995.08 47.384 L1995.08 51.84 L1989.61 51.84 Q1983.45 51.84 1981.11 49.5541 Q1978.76 47.2393 1978.76 41.163 L1978.76 23.5705 L1974.86 23.5705 L1974.86 19.4328 L1978.76 19.4328 L1978.76 10.2314 L1984.12 10.2314 Z" fill="#000000" fill-rule="nonzero" fill-opacity="1" /><path clip-path="url(#clip010)" d="M2002.08 19.4328 L2007.41 19.4328 L2007.41 51.84 L2002.08 51.84 L2002.08 19.4328 M2002.08 6.81709 L2007.41 6.81709 L2007.41 13.559 L2002.08 13.559 L2002.08 6.81709 Z" fill="#000000" fill-rule="nonzero" fill-opacity="1" /><path clip-path="url(#clip010)" d="M2014.73 19.4328 L2020.37 19.4328 L2030.5 46.6317 L2040.63 19.4328 L2046.27 19.4328 L2034.12 51.84 L2026.88 51.84 L2014.73 19.4328 Z" fill="#000000" fill-rule="nonzero" fill-opacity="1" /><path clip-path="url(#clip010)" d="M2053.62 19.4328 L2058.94 19.4328 L2058.94 51.84 L2053.62 51.84 L2053.62 19.4328 M2053.62 6.81709 L2058.94 6.81709 L2058.94 13.559 L2053.62 13.559 L2053.62 6.81709 Z" fill="#000000" fill-rule="nonzero" fill-opacity="1" /><path clip-path="url(#clip010)" d="M2075.35 10.2314 L2075.35 19.4328 L2086.31 19.4328 L2086.31 23.5705 L2075.35 23.5705 L2075.35 41.163 Q2075.35 45.1271 2076.42 46.2555 Q2077.52 47.384 2080.85 47.384 L2086.31 47.384 L2086.31 51.84 L2080.85 51.84 Q2074.68 51.84 2072.34 49.5541 Q2070 47.2393 2070 41.163 L2070 23.5705 L2066.09 23.5705 L2066.09 19.4328 L2070 19.4328 L2070 10.2314 L2075.35 10.2314 Z" fill="#000000" fill-rule="nonzero" fill-opacity="1" /><path clip-path="url(#clip010)" d="M2106.8 54.8492 Q2104.54 60.6362 2102.4 62.4013 Q2100.26 64.1663 2096.67 64.1663 L2092.42 64.1663 L2092.42 59.7103 L2095.55 59.7103 Q2097.74 59.7103 2098.96 58.6687 Q2100.17 57.627 2101.65 53.7497 L2102.61 51.3192 L2089.5 19.4328 L2095.14 19.4328 L2105.27 44.7799 L2115.39 19.4328 L2121.04 19.4328 L2106.8 54.8492 Z" fill="#000000" fill-rule="nonzero" fill-opacity="1" /><path clip-path="url(#clip010)" d="M2159.78 23.1654 Q2155.5 23.1654 2153.01 26.5218 Q2150.52 29.8494 2150.52 35.6653 Q2150.52 41.4813 2152.98 44.8377 Q2155.47 48.1653 2159.78 48.1653 Q2164.03 48.1653 2166.52 44.8088 Q2169.01 41.4523 2169.01 35.6653 Q2169.01 29.9072 2166.52 26.5508 Q2164.03 23.1654 2159.78 23.1654 M2159.78 18.6515 Q2166.73 18.6515 2170.69 23.1654 Q2174.65 27.6792 2174.65 35.6653 Q2174.65 43.6225 2170.69 48.1653 Q2166.73 52.6791 2159.78 52.6791 Q2152.81 52.6791 2148.84 48.1653 Q2144.91 43.6225 2144.91 35.6653 Q2144.91 27.6792 2148.84 23.1654 Q2152.81 18.6515 2159.78 18.6515 Z" fill="#000000" fill-rule="nonzero" fill-opacity="1" /><path clip-path="url(#clip010)" d="M2199.88 6.81709 L2199.88 11.2442 L2194.79 11.2442 Q2191.93 11.2442 2190.8 12.4016 Q2189.7 13.559 2189.7 16.5682 L2189.7 19.4328 L2198.47 19.4328 L2198.47 23.5705 L2189.7 23.5705 L2189.7 51.84 L2184.35 51.84 L2184.35 23.5705 L2179.25 23.5705 L2179.25 19.4328 L2184.35 19.4328 L2184.35 17.1758 Q2184.35 11.765 2186.86 9.30551 Q2189.38 6.81709 2194.85 6.81709 L2199.88 6.81709 Z" fill="#000000" fill-rule="nonzero" fill-opacity="1" /><path clip-path="url(#clip010)" d="M2241.96 24.4096 Q2241.06 23.8888 2239.99 23.6573 Q2238.95 23.3969 2237.67 23.3969 Q2233.16 23.3969 2230.73 26.3482 Q2228.33 29.2707 2228.33 34.7683 L2228.33 51.84 L2222.98 51.84 L2222.98 19.4328 L2228.33 19.4328 L2228.33 24.4675 Q2230.01 21.5161 2232.7 20.0983 Q2235.39 18.6515 2239.24 18.6515 Q2239.79 18.6515 2240.45 18.7383 Q2241.12 18.7962 2241.93 18.9409 L2241.96 24.4096 Z" fill="#000000" fill-rule="nonzero" fill-opacity="1" /><path clip-path="url(#clip010)" d="M2262.27 35.5496 Q2255.82 35.5496 2253.33 37.0253 Q2250.84 38.501 2250.84 42.06 Q2250.84 44.8956 2252.69 46.5738 Q2254.57 48.2231 2257.78 48.2231 Q2262.21 48.2231 2264.87 45.0981 Q2267.56 41.9442 2267.56 36.7359 L2267.56 35.5496 L2262.27 35.5496 M2272.89 33.3505 L2272.89 51.84 L2267.56 51.84 L2267.56 46.921 Q2265.74 49.8724 2263.02 51.2902 Q2260.3 52.6791 2256.37 52.6791 Q2251.39 52.6791 2248.44 49.9014 Q2245.52 47.0947 2245.52 42.4072 Q2245.52 36.9385 2249.16 34.1607 Q2252.84 31.3829 2260.1 31.3829 L2267.56 31.3829 L2267.56 30.8621 Q2267.56 27.1874 2265.13 25.1908 Q2262.73 23.1654 2258.36 23.1654 Q2255.58 23.1654 2252.95 23.8309 Q2250.32 24.4964 2247.89 25.8274 L2247.89 20.9085 Q2250.81 19.78 2253.56 19.2302 Q2256.31 18.6515 2258.91 18.6515 Q2265.94 18.6515 2269.42 22.2973 Q2272.89 25.9431 2272.89 33.3505 Z" fill="#000000" fill-rule="nonzero" fill-opacity="1" /><path clip-path="url(#clip010)" d="M2310.79 32.2799 L2310.79 51.84 L2305.47 51.84 L2305.47 32.4535 Q2305.47 27.8529 2303.67 25.567 Q2301.88 23.2811 2298.29 23.2811 Q2293.98 23.2811 2291.49 26.03 Q2289 28.7788 2289 33.5241 L2289 51.84 L2283.65 51.84 L2283.65 19.4328 L2289 19.4328 L2289 24.4675 Q2290.91 21.545 2293.49 20.0983 Q2296.09 18.6515 2299.48 18.6515 Q2305.06 18.6515 2307.93 22.1237 Q2310.79 25.567 2310.79 32.2799 Z" fill="#000000" fill-rule="nonzero" fill-opacity="1" /><path clip-path="url(#clip010)" d="M2321.21 6.81709 L2326.56 6.81709 L2326.56 33.4084 L2342.45 19.4328 L2349.25 19.4328 L2332.06 34.5947 L2349.97 51.84 L2343.03 51.84 L2326.56 36.0125 L2326.56 51.84 L2321.21 51.84 L2321.21 6.81709 Z" fill="#000000" fill-rule="nonzero" fill-opacity="1" /><circle clip-path="url(#clip013)" cx="1663.98" cy="438.7" r="10.8" fill="#4482b5" fill-rule="evenodd" fill-opacity="0.7" stroke="none"/>
<circle clip-path="url(#clip013)" cx="1681.74" cy="480.301" r="10.8" fill="#4482b5" fill-rule="evenodd" fill-opacity="0.7" stroke="none"/>
<circle clip-path="url(#clip013)" cx="1663.56" cy="481.382" r="10.8" fill="#4482b5" fill-rule="evenodd" fill-opacity="0.7" stroke="none"/>
<circle clip-path="url(#clip013)" cx="1642.26" cy="481.382" r="10.8" fill="#4482b5" fill-rule="evenodd" fill-opacity="0.7" stroke="none"/>
<circle clip-path="url(#clip013)" cx="1665.16" cy="463.839" r="10.8" fill="#4482b5" fill-rule="evenodd" fill-opacity="0.7" stroke="none"/>
<circle clip-path="url(#clip013)" cx="1649.34" cy="466.224" r="10.8" fill="#4482b5" fill-rule="evenodd" fill-opacity="0.7" stroke="none"/>
<circle clip-path="url(#clip013)" cx="1680.6" cy="396.821" r="10.8" fill="#4482b5" fill-rule="evenodd" fill-opacity="0.7" stroke="none"/>
<circle clip-path="url(#clip013)" cx="1649.36" cy="346.053" r="10.8" fill="#4482b5" fill-rule="evenodd" fill-opacity="0.7" stroke="none"/>
<circle clip-path="url(#clip013)" cx="1668.85" cy="469.535" r="10.8" fill="#4482b5" fill-rule="evenodd" fill-opacity="0.7" stroke="none"/>
<circle clip-path="url(#clip013)" cx="1668.46" cy="301.476" r="10.8" fill="#4482b5" fill-rule="evenodd" fill-opacity="0.7" stroke="none"/>
<circle clip-path="url(#clip013)" cx="1632.98" cy="481.382" r="10.8" fill="#4482b5" fill-rule="evenodd" fill-opacity="0.7" stroke="none"/>
<circle clip-path="url(#clip013)" cx="1642.62" cy="422.382" r="10.8" fill="#4482b5" fill-rule="evenodd" fill-opacity="0.7" stroke="none"/>
<circle clip-path="url(#clip013)" cx="1653.24" cy="449.57" r="10.8" fill="#4482b5" fill-rule="evenodd" fill-opacity="0.7" stroke="none"/>
<circle clip-path="url(#clip013)" cx="1674.99" cy="457.097" r="10.8" fill="#4482b5" fill-rule="evenodd" fill-opacity="0.7" stroke="none"/>
<circle clip-path="url(#clip013)" cx="1636.62" cy="454.259" r="10.8" fill="#4482b5" fill-rule="evenodd" fill-opacity="0.7" stroke="none"/>
<circle clip-path="url(#clip013)" cx="1648.13" cy="449.595" r="10.8" fill="#4482b5" fill-rule="evenodd" fill-opacity="0.7" stroke="none"/>
<circle clip-path="url(#clip013)" cx="1687.05" cy="492.835" r="10.8" fill="#4482b5" fill-rule="evenodd" fill-opacity="0.7" stroke="none"/>
<circle clip-path="url(#clip013)" cx="1678.97" cy="450.141" r="10.8" fill="#4482b5" fill-rule="evenodd" fill-opacity="0.7" stroke="none"/>
<circle clip-path="url(#clip013)" cx="1683.2" cy="467.993" r="10.8" fill="#4482b5" fill-rule="evenodd" fill-opacity="0.7" stroke="none"/>
<circle clip-path="url(#clip013)" cx="1666.26" cy="456.39" r="10.8" fill="#4482b5" fill-rule="evenodd" fill-opacity="0.7" stroke="none"/>
<circle clip-path="url(#clip013)" cx="1668.79" cy="434.521" r="10.8" fill="#4482b5" fill-rule="evenodd" fill-opacity="0.7" stroke="none"/>
<circle clip-path="url(#clip013)" cx="1651.59" cy="434.521" r="10.8" fill="#4482b5" fill-rule="evenodd" fill-opacity="0.7" stroke="none"/>
<polyline clip-path="url(#clip013)" style="stroke:#000000; stroke-linecap:round; stroke-linejoin:round; stroke-width:12; stroke-opacity:1; fill:none" points="1604.15,455.324 1715.91,455.324 "/>
<polyline clip-path="url(#clip013)" style="stroke:#000000; stroke-linecap:round; stroke-linejoin:round; stroke-width:8; stroke-opacity:1; fill:none" points="1660.03,469.15 1660.03,435.566 "/>
<circle clip-path="url(#clip013)" cx="1906.12" cy="437.645" r="10.8" fill="#ff8c00" fill-rule="evenodd" fill-opacity="0.7" stroke="none"/>
<circle clip-path="url(#clip013)" cx="1898.44" cy="481.382" r="10.8" fill="#ff8c00" fill-rule="evenodd" fill-opacity="0.7" stroke="none"/>
<circle clip-path="url(#clip013)" cx="1904.33" cy="543.864" r="10.8" fill="#ff8c00" fill-rule="evenodd" fill-opacity="0.7" stroke="none"/>
<circle clip-path="url(#clip013)" cx="1888.68" cy="481.382" r="10.8" fill="#ff8c00" fill-rule="evenodd" fill-opacity="0.7" stroke="none"/>
<circle clip-path="url(#clip013)" cx="1898.14" cy="523.036" r="10.8" fill="#ff8c00" fill-rule="evenodd" fill-opacity="0.7" stroke="none"/>
<circle clip-path="url(#clip013)" cx="1940.93" cy="468.886" r="10.8" fill="#ff8c00" fill-rule="evenodd" fill-opacity="0.7" stroke="none"/>
<circle clip-path="url(#clip013)" cx="1930.92" cy="409.975" r="10.8" fill="#ff8c00" fill-rule="evenodd" fill-opacity="0.7" stroke="none"/>
<circle clip-path="url(#clip013)" cx="1891.72" cy="481.382" r="10.8" fill="#ff8c00" fill-rule="evenodd" fill-opacity="0.7" stroke="none"/>
<circle clip-path="url(#clip013)" cx="1916.21" cy="322.338" r="10.8" fill="#ff8c00" fill-rule="evenodd" fill-opacity="0.7" stroke="none"/>
<circle clip-path="url(#clip013)" cx="1933.9" cy="481.382" r="10.8" fill="#ff8c00" fill-rule="evenodd" fill-opacity="0.7" stroke="none"/>
<circle clip-path="url(#clip013)" cx="1935.29" cy="665.323" r="10.8" fill="#ff8c00" fill-rule="evenodd" fill-opacity="0.7" stroke="none"/>
<polyline clip-path="url(#clip013)" style="stroke:#000000; stroke-linecap:round; stroke-linejoin:round; stroke-width:12; stroke-opacity:1; fill:none" points="1858.15,481.382 1969.92,481.382 "/>
<polyline clip-path="url(#clip013)" style="stroke:#000000; stroke-linecap:round; stroke-linejoin:round; stroke-width:8; stroke-opacity:1; fill:none" points="1914.04,502.209 1914.04,453.265 "/>
<circle clip-path="url(#clip013)" cx="2161.6" cy="465.762" r="10.8" fill="#db143d" fill-rule="evenodd" fill-opacity="0.7" stroke="none"/>
<circle clip-path="url(#clip013)" cx="2195.14" cy="278.317" r="10.8" fill="#db143d" fill-rule="evenodd" fill-opacity="0.7" stroke="none"/>
<circle clip-path="url(#clip013)" cx="2169.78" cy="481.382" r="10.8" fill="#db143d" fill-rule="evenodd" fill-opacity="0.7" stroke="none"/>
<circle clip-path="url(#clip013)" cx="2159.21" cy="575.104" r="10.8" fill="#db143d" fill-rule="evenodd" fill-opacity="0.7" stroke="none"/>
<circle clip-path="url(#clip013)" cx="2147.54" cy="429.314" r="10.8" fill="#db143d" fill-rule="evenodd" fill-opacity="0.7" stroke="none"/>
<circle clip-path="url(#clip013)" cx="2155.07" cy="210.629" r="10.8" fill="#db143d" fill-rule="evenodd" fill-opacity="0.7" stroke="none"/>
<circle clip-path="url(#clip013)" cx="2170.59" cy="481.382" r="10.8" fill="#db143d" fill-rule="evenodd" fill-opacity="0.7" stroke="none"/>
<circle clip-path="url(#clip013)" cx="2141.93" cy="506.712" r="10.8" fill="#db143d" fill-rule="evenodd" fill-opacity="0.7" stroke="none"/>
<circle clip-path="url(#clip013)" cx="2151.79" cy="481.382" r="10.8" fill="#db143d" fill-rule="evenodd" fill-opacity="0.7" stroke="none"/>
<polyline clip-path="url(#clip013)" style="stroke:#000000; stroke-linecap:round; stroke-linejoin:round; stroke-width:12; stroke-opacity:1; fill:none" points="2112.16,481.382 2223.93,481.382 "/>
<polyline clip-path="url(#clip013)" style="stroke:#000000; stroke-linecap:round; stroke-linejoin:round; stroke-width:8; stroke-opacity:1; fill:none" points="2168.04,481.382 2168.04,429.314 "/>
</svg>
