<?xml version="1.0" encoding="utf-8"?>
<svg xmlns="http://www.w3.org/2000/svg" xmlns:xlink="http://www.w3.org/1999/xlink" width="360" height="242" viewBox="0 0 1440 968">
<defs>
  <clipPath id="clip880">
    <rect x="0" y="0" width="1440" height="968"/>
  </clipPath>
</defs>
<path clip-path="url(#clip880)" d="M0 968 L1440 968 L1440 1.13687e-13 L0 1.13687e-13  Z" fill="#ffffff" fill-rule="evenodd" fill-opacity="1"/>
<defs>
  <clipPath id="clip881">
    <rect x="420" y="176" width="831" height="375"/>
  </clipPath>
</defs>
<path clip-path="url(#clip880)" d="M341.515 695.292 L1282.52 695.292 L1282.52 216.788 L341.515 216.788  Z" fill="#ffffff" fill-rule="evenodd" fill-opacity="1"/>
<defs>
  <clipPath id="clip882">
    <rect x="341" y="216" width="942" height="480"/>
  </clipPath>
</defs>
<polyline clip-path="url(#clip882)" style="stroke:#000000; stroke-linecap:round; stroke-linejoin:round; stroke-width:2; stroke-opacity:0.1; fill:none" points="463.262,695.292 463.262,216.788 "/>
<polyline clip-path="url(#clip882)" style="stroke:#000000; stroke-linecap:round; stroke-linejoin:round; stroke-width:2; stroke-opacity:0.1; fill:none" points="596.423,695.292 596.423,216.788 "/>
<polyline clip-path="url(#clip882)" style="stroke:#000000; stroke-linecap:round; stroke-linejoin:round; stroke-width:2; stroke-opacity:0.1; fill:none" points="729.584,695.292 729.584,216.788 "/>
<polyline clip-path="url(#clip882)" style="stroke:#000000; stroke-linecap:round; stroke-linejoin:round; stroke-width:2; stroke-opacity:0.1; fill:none" points="862.745,695.292 862.745,216.788 "/>
<polyline clip-path="url(#clip882)" style="stroke:#000000; stroke-linecap:round; stroke-linejoin:round; stroke-width:2; stroke-opacity:0.1; fill:none" points="995.906,695.292 995.906,216.788 "/>
<polyline clip-path="url(#clip882)" style="stroke:#000000; stroke-linecap:round; stroke-linejoin:round; stroke-width:2; stroke-opacity:0.1; fill:none" points="1129.07,695.292 1129.07,216.788 "/>
<polyline clip-path="url(#clip882)" style="stroke:#000000; stroke-linecap:round; stroke-linejoin:round; stroke-width:2; stroke-opacity:0.1; fill:none" points="1262.23,695.292 1262.23,216.788 "/>
<polyline clip-path="url(#clip882)" style="stroke:#000000; stroke-linecap:round; stroke-linejoin:round; stroke-width:2; stroke-opacity:0.1; fill:none" points="341.515,630.628 1282.52,630.628 "/>
<polyline clip-path="url(#clip882)" style="stroke:#000000; stroke-linecap:round; stroke-linejoin:round; stroke-width:2; stroke-opacity:0.1; fill:none" points="341.515,547.233 1282.52,547.233 "/>
<polyline clip-path="url(#clip882)" style="stroke:#000000; stroke-linecap:round; stroke-linejoin:round; stroke-width:2; stroke-opacity:0.1; fill:none" points="341.515,463.837 1282.52,463.837 "/>
<polyline clip-path="url(#clip882)" style="stroke:#000000; stroke-linecap:round; stroke-linejoin:round; stroke-width:2; stroke-opacity:0.1; fill:none" points="341.515,380.442 1282.52,380.442 "/>
<polyline clip-path="url(#clip882)" style="stroke:#000000; stroke-linecap:round; stroke-linejoin:round; stroke-width:2; stroke-opacity:0.1; fill:none" points="341.515,297.047 1282.52,297.047 "/>
<polyline clip-path="url(#clip880)" style="stroke:#000000; stroke-linecap:round; stroke-linejoin:round; stroke-width:4; stroke-opacity:1; fill:none" points="341.515,695.292 1282.52,695.292 "/>
<polyline clip-path="url(#clip880)" style="stroke:#000000; stroke-linecap:round; stroke-linejoin:round; stroke-width:4; stroke-opacity:1; fill:none" points="463.262,695.292 463.262,676.394 "/>
<polyline clip-path="url(#clip880)" style="stroke:#000000; stroke-linecap:round; stroke-linejoin:round; stroke-width:4; stroke-opacity:1; fill:none" points="596.423,695.292 596.423,676.394 "/>
<polyline clip-path="url(#clip880)" style="stroke:#000000; stroke-linecap:round; stroke-linejoin:round; stroke-width:4; stroke-opacity:1; fill:none" points="729.584,695.292 729.584,676.394 "/>
<polyline clip-path="url(#clip880)" style="stroke:#000000; stroke-linecap:round; stroke-linejoin:round; stroke-width:4; stroke-opacity:1; fill:none" points="862.745,695.292 862.745,676.394 "/>
<polyline clip-path="url(#clip880)" style="stroke:#000000; stroke-linecap:round; stroke-linejoin:round; stroke-width:4; stroke-opacity:1; fill:none" points="995.906,695.292 995.906,676.394 "/>
<polyline clip-path="url(#clip880)" style="stroke:#000000; stroke-linecap:round; stroke-linejoin:round; stroke-width:4; stroke-opacity:1; fill:none" points="1129.07,695.292 1129.07,676.394 "/>
<polyline clip-path="url(#clip880)" style="stroke:#000000; stroke-linecap:round; stroke-linejoin:round; stroke-width:4; stroke-opacity:1; fill:none" points="1262.23,695.292 1262.23,676.394 "/>
<path clip-path="url(#clip880)" d="M380.126 733.183 L409.802 733.183 L409.802 737.118 L380.126 737.118 L380.126 733.183 Z" fill="#000000" fill-rule="nonzero" fill-opacity="1" /><path clip-path="url(#clip880)" d="M429.894 718.53 Q426.283 718.53 424.455 722.095 Q422.649 725.637 422.649 732.766 Q422.649 739.873 424.455 743.438 Q426.283 746.979 429.894 746.979 Q433.529 746.979 435.334 743.438 Q437.163 739.873 437.163 732.766 Q437.163 725.637 435.334 722.095 Q433.529 718.53 429.894 718.53 M429.894 714.827 Q435.705 714.827 438.76 719.433 Q441.839 724.016 441.839 732.766 Q441.839 741.493 438.76 746.1 Q435.705 750.683 429.894 750.683 Q424.084 750.683 421.006 746.1 Q417.95 741.493 417.95 732.766 Q417.95 724.016 421.006 719.433 Q424.084 714.827 429.894 714.827 Z" fill="#000000" fill-rule="nonzero" fill-opacity="1" /><path clip-path="url(#clip880)" d="M450.056 744.132 L454.941 744.132 L454.941 750.012 L450.056 750.012 L450.056 744.132 Z" fill="#000000" fill-rule="nonzero" fill-opacity="1" /><path clip-path="url(#clip880)" d="M475.126 718.53 Q471.515 718.53 469.686 722.095 Q467.88 725.637 467.88 732.766 Q467.88 739.873 469.686 743.438 Q471.515 746.979 475.126 746.979 Q478.76 746.979 480.565 743.438 Q482.394 739.873 482.394 732.766 Q482.394 725.637 480.565 722.095 Q478.76 718.53 475.126 718.53 M475.126 714.827 Q480.936 714.827 483.991 719.433 Q487.07 724.016 487.07 732.766 Q487.07 741.493 483.991 746.1 Q480.936 750.683 475.126 750.683 Q469.315 750.683 466.237 746.1 Q463.181 741.493 463.181 732.766 Q463.181 724.016 466.237 719.433 Q469.315 714.827 475.126 714.827 Z" fill="#000000" fill-rule="nonzero" fill-opacity="1" /><path clip-path="url(#clip880)" d="M499.315 746.076 L515.635 746.076 L515.635 750.012 L493.69 750.012 L493.69 746.076 Q496.352 743.322 500.936 738.692 Q505.542 734.039 506.723 732.697 Q508.968 730.174 509.848 728.438 Q510.75 726.678 510.75 724.989 Q510.75 722.234 508.806 720.498 Q506.885 718.762 503.783 718.762 Q501.584 718.762 499.13 719.526 Q496.7 720.29 493.922 721.84 L493.922 717.118 Q496.746 715.984 499.2 715.405 Q501.653 714.827 503.69 714.827 Q509.061 714.827 512.255 717.512 Q515.449 720.197 515.449 724.688 Q515.449 726.817 514.639 728.739 Q513.852 730.637 511.746 733.229 Q511.167 733.901 508.065 737.118 Q504.963 740.313 499.315 746.076 Z" fill="#000000" fill-rule="nonzero" fill-opacity="1" /><path clip-path="url(#clip880)" d="M525.496 715.452 L543.852 715.452 L543.852 719.387 L529.778 719.387 L529.778 727.859 Q530.797 727.512 531.815 727.35 Q532.834 727.165 533.852 727.165 Q539.639 727.165 543.019 730.336 Q546.398 733.507 546.398 738.924 Q546.398 744.502 542.926 747.604 Q539.454 750.683 533.135 750.683 Q530.959 750.683 528.69 750.313 Q526.445 749.942 524.037 749.201 L524.037 744.502 Q526.121 745.637 528.343 746.192 Q530.565 746.748 533.042 746.748 Q537.047 746.748 539.385 744.641 Q541.722 742.535 541.722 738.924 Q541.722 735.313 539.385 733.206 Q537.047 731.1 533.042 731.1 Q531.167 731.1 529.292 731.516 Q527.44 731.933 525.496 732.813 L525.496 715.452 Z" fill="#000000" fill-rule="nonzero" fill-opacity="1" /><path clip-path="url(#clip880)" d="M543.646 718.53 Q540.035 718.53 538.206 722.095 Q536.4 725.637 536.4 732.766 Q536.4 739.873 538.206 743.438 Q540.035 746.979 543.646 746.979 Q547.28 746.979 549.086 743.438 Q550.914 739.873 550.914 732.766 Q550.914 725.637 549.086 722.095 Q547.28 718.53 543.646 718.53 M543.646 714.827 Q549.456 714.827 552.511 719.433 Q555.59 724.016 555.59 732.766 Q555.59 741.493 552.511 746.1 Q549.456 750.683 543.646 750.683 Q537.836 750.683 534.757 746.1 Q531.701 741.493 531.701 732.766 Q531.701 724.016 534.757 719.433 Q537.836 714.827 543.646 714.827 Z" fill="#000000" fill-rule="nonzero" fill-opacity="1" /><path clip-path="url(#clip880)" d="M563.808 744.132 L568.692 744.132 L568.692 750.012 L563.808 750.012 L563.808 744.132 Z" fill="#000000" fill-rule="nonzero" fill-opacity="1" /><path clip-path="url(#clip880)" d="M588.877 718.53 Q585.266 718.53 583.437 722.095 Q581.632 725.637 581.632 732.766 Q581.632 739.873 583.437 743.438 Q585.266 746.979 588.877 746.979 Q592.511 746.979 594.317 743.438 Q596.146 739.873 596.146 732.766 Q596.146 725.637 594.317 722.095 Q592.511 718.53 588.877 718.53 M588.877 714.827 Q594.687 714.827 597.743 719.433 Q600.821 724.016 600.821 732.766 Q600.821 741.493 597.743 746.1 Q594.687 750.683 588.877 750.683 Q583.067 750.683 579.988 746.1 Q576.933 741.493 576.933 732.766 Q576.933 724.016 579.988 719.433 Q583.067 714.827 588.877 714.827 Z" fill="#000000" fill-rule="nonzero" fill-opacity="1" /><path clip-path="url(#clip880)" d="M619.039 718.53 Q615.428 718.53 613.599 722.095 Q611.794 725.637 611.794 732.766 Q611.794 739.873 613.599 743.438 Q615.428 746.979 619.039 746.979 Q622.673 746.979 624.479 743.438 Q626.307 739.873 626.307 732.766 Q626.307 725.637 624.479 722.095 Q622.673 718.53 619.039 718.53 M619.039 714.827 Q624.849 714.827 627.905 719.433 Q630.983 724.016 630.983 732.766 Q630.983 741.493 627.905 746.1 Q624.849 750.683 619.039 750.683 Q613.229 750.683 610.15 746.1 Q607.095 741.493 607.095 732.766 Q607.095 724.016 610.15 719.433 Q613.229 714.827 619.039 714.827 Z" fill="#000000" fill-rule="nonzero" fill-opacity="1" /><path clip-path="url(#clip880)" d="M649.201 718.53 Q645.59 718.53 643.761 722.095 Q641.955 725.637 641.955 732.766 Q641.955 739.873 643.761 743.438 Q645.59 746.979 649.201 746.979 Q652.835 746.979 654.641 743.438 Q656.469 739.873 656.469 732.766 Q656.469 725.637 654.641 722.095 Q652.835 718.53 649.201 718.53 M649.201 714.827 Q655.011 714.827 658.066 719.433 Q661.145 724.016 661.145 732.766 Q661.145 741.493 658.066 746.1 Q655.011 750.683 649.201 750.683 Q643.391 750.683 640.312 746.1 Q637.256 741.493 637.256 732.766 Q637.256 724.016 640.312 719.433 Q643.391 714.827 649.201 714.827 Z" fill="#000000" fill-rule="nonzero" fill-opacity="1" /><path clip-path="url(#clip880)" d="M677.305 718.53 Q673.693 718.53 671.865 722.095 Q670.059 725.637 670.059 732.766 Q670.059 739.873 671.865 743.438 Q673.693 746.979 677.305 746.979 Q680.939 746.979 682.744 743.438 Q684.573 739.873 684.573 732.766 Q684.573 725.637 682.744 722.095 Q680.939 718.53 677.305 718.53 M677.305 714.827 Q683.115 714.827 686.17 719.433 Q689.249 724.016 689.249 732.766 Q689.249 741.493 686.17 746.1 Q683.115 750.683 677.305 750.683 Q671.494 750.683 668.416 746.1 Q665.36 741.493 665.36 732.766 Q665.36 724.016 668.416 719.433 Q671.494 714.827 677.305 714.827 Z" fill="#000000" fill-rule="nonzero" fill-opacity="1" /><path clip-path="url(#clip880)" d="M697.466 744.132 L702.351 744.132 L702.351 750.012 L697.466 750.012 L697.466 744.132 Z" fill="#000000" fill-rule="nonzero" fill-opacity="1" /><path clip-path="url(#clip880)" d="M722.536 718.53 Q718.925 718.53 717.096 722.095 Q715.29 725.637 715.29 732.766 Q715.29 739.873 717.096 743.438 Q718.925 746.979 722.536 746.979 Q726.17 746.979 727.976 743.438 Q729.804 739.873 729.804 732.766 Q729.804 725.637 727.976 722.095 Q726.17 718.53 722.536 718.53 M722.536 714.827 Q728.346 714.827 731.401 719.433 Q734.48 724.016 734.48 732.766 Q734.48 741.493 731.401 746.1 Q728.346 750.683 722.536 750.683 Q716.726 750.683 713.647 746.1 Q710.591 741.493 710.591 732.766 Q710.591 724.016 713.647 719.433 Q716.726 714.827 722.536 714.827 Z" fill="#000000" fill-rule="nonzero" fill-opacity="1" /><path clip-path="url(#clip880)" d="M746.725 746.076 L763.045 746.076 L763.045 750.012 L741.1 750.012 L741.1 746.076 Q743.763 743.322 748.346 738.692 Q752.952 734.039 754.133 732.697 Q756.378 730.174 757.258 728.438 Q758.161 726.678 758.161 724.989 Q758.161 722.234 756.216 720.498 Q754.295 718.762 751.193 718.762 Q748.994 718.762 746.54 719.526 Q744.11 720.29 741.332 721.84 L741.332 717.118 Q744.156 715.984 746.61 715.405 Q749.063 714.827 751.1 714.827 Q756.471 714.827 759.665 717.512 Q762.86 720.197 762.86 724.688 Q762.86 726.817 762.049 728.739 Q761.262 730.637 759.156 733.229 Q758.577 733.901 755.475 737.118 Q752.374 740.313 746.725 746.076 Z" fill="#000000" fill-rule="nonzero" fill-opacity="1" /><path clip-path="url(#clip880)" d="M772.906 715.452 L791.262 715.452 L791.262 719.387 L777.188 719.387 L777.188 727.859 Q778.207 727.512 779.225 727.35 Q780.244 727.165 781.262 727.165 Q787.049 727.165 790.429 730.336 Q793.809 733.507 793.809 738.924 Q793.809 744.502 790.336 747.604 Q786.864 750.683 780.545 750.683 Q778.369 750.683 776.1 750.313 Q773.855 749.942 771.448 749.201 L771.448 744.502 Q773.531 745.637 775.753 746.192 Q777.975 746.748 780.452 746.748 Q784.457 746.748 786.795 744.641 Q789.133 742.535 789.133 738.924 Q789.133 735.313 786.795 733.206 Q784.457 731.1 780.452 731.1 Q778.577 731.1 776.702 731.516 Q774.85 731.933 772.906 732.813 L772.906 715.452 Z" fill="#000000" fill-rule="nonzero" fill-opacity="1" /><path clip-path="url(#clip880)" d="M809.968 718.53 Q806.357 718.53 804.528 722.095 Q802.723 725.637 802.723 732.766 Q802.723 739.873 804.528 743.438 Q806.357 746.979 809.968 746.979 Q813.602 746.979 815.408 743.438 Q817.236 739.873 817.236 732.766 Q817.236 725.637 815.408 722.095 Q813.602 718.53 809.968 718.53 M809.968 714.827 Q815.778 714.827 818.834 719.433 Q821.912 724.016 821.912 732.766 Q821.912 741.493 818.834 746.1 Q815.778 750.683 809.968 750.683 Q804.158 750.683 801.079 746.1 Q798.023 741.493 798.023 732.766 Q798.023 724.016 801.079 719.433 Q804.158 714.827 809.968 714.827 Z" fill="#000000" fill-rule="nonzero" fill-opacity="1" /><path clip-path="url(#clip880)" d="M830.13 744.132 L835.014 744.132 L835.014 750.012 L830.13 750.012 L830.13 744.132 Z" fill="#000000" fill-rule="nonzero" fill-opacity="1" /><path clip-path="url(#clip880)" d="M855.199 718.53 Q851.588 718.53 849.759 722.095 Q847.954 725.637 847.954 732.766 Q847.954 739.873 849.759 743.438 Q851.588 746.979 855.199 746.979 Q858.833 746.979 860.639 743.438 Q862.468 739.873 862.468 732.766 Q862.468 725.637 860.639 722.095 Q858.833 718.53 855.199 718.53 M855.199 714.827 Q861.009 714.827 864.065 719.433 Q867.143 724.016 867.143 732.766 Q867.143 741.493 864.065 746.1 Q861.009 750.683 855.199 750.683 Q849.389 750.683 846.31 746.1 Q843.255 741.493 843.255 732.766 Q843.255 724.016 846.31 719.433 Q849.389 714.827 855.199 714.827 Z" fill="#000000" fill-rule="nonzero" fill-opacity="1" /><path clip-path="url(#clip880)" d="M875.407 715.452 L893.764 715.452 L893.764 719.387 L879.69 719.387 L879.69 727.859 Q880.708 727.512 881.727 727.35 Q882.745 727.165 883.764 727.165 Q889.551 727.165 892.93 730.336 Q896.31 733.507 896.31 738.924 Q896.31 744.502 892.838 747.604 Q889.366 750.683 883.046 750.683 Q880.87 750.683 878.602 750.313 Q876.356 749.942 873.949 749.201 L873.949 744.502 Q876.032 745.637 878.255 746.192 Q880.477 746.748 882.954 746.748 Q886.958 746.748 889.296 744.641 Q891.634 742.535 891.634 738.924 Q891.634 735.313 889.296 733.206 Q886.958 731.1 882.954 731.1 Q881.079 731.1 879.204 731.516 Q877.352 731.933 875.407 732.813 L875.407 715.452 Z" fill="#000000" fill-rule="nonzero" fill-opacity="1" /><path clip-path="url(#clip880)" d="M915.523 718.53 Q911.912 718.53 910.083 722.095 Q908.278 725.637 908.278 732.766 Q908.278 739.873 910.083 743.438 Q911.912 746.979 915.523 746.979 Q919.157 746.979 920.963 743.438 Q922.791 739.873 922.791 732.766 Q922.791 725.637 920.963 722.095 Q919.157 718.53 915.523 718.53 M915.523 714.827 Q921.333 714.827 924.389 719.433 Q927.467 724.016 927.467 732.766 Q927.467 741.493 924.389 746.1 Q921.333 750.683 915.523 750.683 Q909.713 750.683 906.634 746.1 Q903.578 741.493 903.578 732.766 Q903.578 724.016 906.634 719.433 Q909.713 714.827 915.523 714.827 Z" fill="#000000" fill-rule="nonzero" fill-opacity="1" /><path clip-path="url(#clip880)" d="M943.627 718.53 Q940.016 718.53 938.187 722.095 Q936.381 725.637 936.381 732.766 Q936.381 739.873 938.187 743.438 Q940.016 746.979 943.627 746.979 Q947.261 746.979 949.066 743.438 Q950.895 739.873 950.895 732.766 Q950.895 725.637 949.066 722.095 Q947.261 718.53 943.627 718.53 M943.627 714.827 Q949.437 714.827 952.492 719.433 Q955.571 724.016 955.571 732.766 Q955.571 741.493 952.492 746.1 Q949.437 750.683 943.627 750.683 Q937.816 750.683 934.738 746.1 Q931.682 741.493 931.682 732.766 Q931.682 724.016 934.738 719.433 Q937.816 714.827 943.627 714.827 Z" fill="#000000" fill-rule="nonzero" fill-opacity="1" /><path clip-path="url(#clip880)" d="M963.789 744.132 L968.673 744.132 L968.673 750.012 L963.789 750.012 L963.789 744.132 Z" fill="#000000" fill-rule="nonzero" fill-opacity="1" /><path clip-path="url(#clip880)" d="M988.858 718.53 Q985.247 718.53 983.418 722.095 Q981.613 725.637 981.613 732.766 Q981.613 739.873 983.418 743.438 Q985.247 746.979 988.858 746.979 Q992.492 746.979 994.298 743.438 Q996.126 739.873 996.126 732.766 Q996.126 725.637 994.298 722.095 Q992.492 718.53 988.858 718.53 M988.858 714.827 Q994.668 714.827 997.724 719.433 Q1000.8 724.016 1000.8 732.766 Q1000.8 741.493 997.724 746.1 Q994.668 750.683 988.858 750.683 Q983.048 750.683 979.969 746.1 Q976.913 741.493 976.913 732.766 Q976.913 724.016 979.969 719.433 Q983.048 714.827 988.858 714.827 Z" fill="#000000" fill-rule="nonzero" fill-opacity="1" /><path clip-path="url(#clip880)" d="M1007.84 715.452 L1030.06 715.452 L1030.06 717.442 L1017.52 750.012 L1012.63 750.012 L1024.44 719.387 L1007.84 719.387 L1007.84 715.452 Z" fill="#000000" fill-rule="nonzero" fill-opacity="1" /><path clip-path="url(#clip880)" d="M1039.23 715.452 L1057.58 715.452 L1057.58 719.387 L1043.51 719.387 L1043.51 727.859 Q1044.53 727.512 1045.55 727.35 Q1046.57 727.165 1047.58 727.165 Q1053.37 727.165 1056.75 730.336 Q1060.13 733.507 1060.13 738.924 Q1060.13 744.502 1056.66 747.604 Q1053.19 750.683 1046.87 750.683 Q1044.69 750.683 1042.42 750.313 Q1040.18 749.942 1037.77 749.201 L1037.77 744.502 Q1039.85 745.637 1042.08 746.192 Q1044.3 746.748 1046.77 746.748 Q1050.78 746.748 1053.12 744.641 Q1055.45 742.535 1055.45 738.924 Q1055.45 735.313 1053.12 733.206 Q1050.78 731.1 1046.77 731.1 Q1044.9 731.1 1043.02 731.516 Q1041.17 731.933 1039.23 732.813 L1039.23 715.452 Z" fill="#000000" fill-rule="nonzero" fill-opacity="1" /><path clip-path="url(#clip880)" d="M1076.29 718.53 Q1072.68 718.53 1070.85 722.095 Q1069.04 725.637 1069.04 732.766 Q1069.04 739.873 1070.85 743.438 Q1072.68 746.979 1076.29 746.979 Q1079.92 746.979 1081.73 743.438 Q1083.56 739.873 1083.56 732.766 Q1083.56 725.637 1081.73 722.095 Q1079.92 718.53 1076.29 718.53 M1076.29 714.827 Q1082.1 714.827 1085.16 719.433 Q1088.23 724.016 1088.23 732.766 Q1088.23 741.493 1085.16 746.1 Q1082.1 750.683 1076.29 750.683 Q1070.48 750.683 1067.4 746.1 Q1064.35 741.493 1064.35 732.766 Q1064.35 724.016 1067.4 719.433 Q1070.48 714.827 1076.29 714.827 Z" fill="#000000" fill-rule="nonzero" fill-opacity="1" /><path clip-path="url(#clip880)" d="M1096.45 744.132 L1101.34 744.132 L1101.34 750.012 L1096.45 750.012 L1096.45 744.132 Z" fill="#000000" fill-rule="nonzero" fill-opacity="1" /><path clip-path="url(#clip880)" d="M1112.33 746.076 L1119.97 746.076 L1119.97 719.711 L1111.66 721.378 L1111.66 717.118 L1119.92 715.452 L1124.6 715.452 L1124.6 746.076 L1132.24 746.076 L1132.24 750.012 L1112.33 750.012 L1112.33 746.076 Z" fill="#000000" fill-rule="nonzero" fill-opacity="1" /><path clip-path="url(#clip880)" d="M1151.68 718.53 Q1148.07 718.53 1146.24 722.095 Q1144.44 725.637 1144.44 732.766 Q1144.44 739.873 1146.24 743.438 Q1148.07 746.979 1151.68 746.979 Q1155.32 746.979 1157.12 743.438 Q1158.95 739.873 1158.95 732.766 Q1158.95 725.637 1157.12 722.095 Q1155.32 718.53 1151.68 718.53 M1151.68 714.827 Q1157.49 714.827 1160.55 719.433 Q1163.63 724.016 1163.63 732.766 Q1163.63 741.493 1160.55 746.1 Q1157.49 750.683 1151.68 750.683 Q1145.87 750.683 1142.79 746.1 Q1139.74 741.493 1139.74 732.766 Q1139.74 724.016 1142.79 719.433 Q1145.87 714.827 1151.68 714.827 Z" fill="#000000" fill-rule="nonzero" fill-opacity="1" /><path clip-path="url(#clip880)" d="M1181.84 718.53 Q1178.23 718.53 1176.41 722.095 Q1174.6 725.637 1174.6 732.766 Q1174.6 739.873 1176.41 743.438 Q1178.23 746.979 1181.84 746.979 Q1185.48 746.979 1187.28 743.438 Q1189.11 739.873 1189.11 732.766 Q1189.11 725.637 1187.28 722.095 Q1185.48 718.53 1181.84 718.53 M1181.84 714.827 Q1187.66 714.827 1190.71 719.433 Q1193.79 724.016 1193.79 732.766 Q1193.79 741.493 1190.71 746.1 Q1187.66 750.683 1181.84 750.683 Q1176.03 750.683 1172.96 746.1 Q1169.9 741.493 1169.9 732.766 Q1169.9 724.016 1172.96 719.433 Q1176.03 714.827 1181.84 714.827 Z" fill="#000000" fill-rule="nonzero" fill-opacity="1" /><path clip-path="url(#clip880)" d="M1209.95 718.53 Q1206.34 718.53 1204.51 722.095 Q1202.7 725.637 1202.7 732.766 Q1202.7 739.873 1204.51 743.438 Q1206.34 746.979 1209.95 746.979 Q1213.58 746.979 1215.39 743.438 Q1217.22 739.873 1217.22 732.766 Q1217.22 725.637 1215.39 722.095 Q1213.58 718.53 1209.95 718.53 M1209.95 714.827 Q1215.76 714.827 1218.81 719.433 Q1221.89 724.016 1221.89 732.766 Q1221.89 741.493 1218.81 746.1 Q1215.76 750.683 1209.95 750.683 Q1204.14 750.683 1201.06 746.1 Q1198 741.493 1198 732.766 Q1198 724.016 1201.06 719.433 Q1204.14 714.827 1209.95 714.827 Z" fill="#000000" fill-rule="nonzero" fill-opacity="1" /><path clip-path="url(#clip880)" d="M1230.11 744.132 L1234.99 744.132 L1234.99 750.012 L1230.11 750.012 L1230.11 744.132 Z" fill="#000000" fill-rule="nonzero" fill-opacity="1" /><path clip-path="url(#clip880)" d="M1245.99 746.076 L1253.63 746.076 L1253.63 719.711 L1245.32 721.378 L1245.32 717.118 L1253.58 715.452 L1258.26 715.452 L1258.26 746.076 L1265.9 746.076 L1265.9 750.012 L1245.99 750.012 L1245.99 746.076 Z" fill="#000000" fill-rule="nonzero" fill-opacity="1" /><path clip-path="url(#clip880)" d="M1279.37 746.076 L1295.69 746.076 L1295.69 750.012 L1273.74 750.012 L1273.74 746.076 Q1276.41 743.322 1280.99 738.692 Q1285.6 734.039 1286.78 732.697 Q1289.02 730.174 1289.9 728.438 Q1290.8 726.678 1290.8 724.989 Q1290.8 722.234 1288.86 720.498 Q1286.94 718.762 1283.84 718.762 Q1281.64 718.762 1279.18 719.526 Q1276.75 720.29 1273.98 721.84 L1273.98 717.118 Q1276.8 715.984 1279.25 715.405 Q1281.71 714.827 1283.74 714.827 Q1289.11 714.827 1292.31 717.512 Q1295.5 720.197 1295.5 724.688 Q1295.5 726.817 1294.69 728.739 Q1293.91 730.637 1291.8 733.229 Q1291.22 733.901 1288.12 737.118 Q1285.02 740.313 1279.37 746.076 Z" fill="#000000" fill-rule="nonzero" fill-opacity="1" /><path clip-path="url(#clip880)" d="M1305.55 715.452 L1323.91 715.452 L1323.91 719.387 L1309.83 719.387 L1309.83 727.859 Q1310.85 727.512 1311.87 727.35 Q1312.89 727.165 1313.91 727.165 Q1319.69 727.165 1323.07 730.336 Q1326.45 733.507 1326.45 738.924 Q1326.45 744.502 1322.98 747.604 Q1319.51 750.683 1313.19 750.683 Q1311.01 750.683 1308.74 750.313 Q1306.5 749.942 1304.09 749.201 L1304.09 744.502 Q1306.18 745.637 1308.4 746.192 Q1310.62 746.748 1313.1 746.748 Q1317.1 746.748 1319.44 744.641 Q1321.78 742.535 1321.78 738.924 Q1321.78 735.313 1319.44 733.206 Q1317.1 731.1 1313.1 731.1 Q1311.22 731.1 1309.35 731.516 Q1307.49 731.933 1305.55 732.813 L1305.55 715.452 Z" fill="#000000" fill-rule="nonzero" fill-opacity="1" /><path clip-path="url(#clip880)" d="M399.598 797.159 Q401.29 797.731 402.879 799.606 Q404.494 801.481 406.108 804.763 L411.447 815.388 L405.796 815.388 L400.822 805.414 Q398.895 801.507 397.072 800.231 Q395.275 798.955 392.15 798.955 L386.421 798.955 L386.421 815.388 L381.16 815.388 L381.16 776.508 L393.035 776.508 Q399.702 776.508 402.983 779.294 Q406.264 782.081 406.264 787.705 Q406.264 791.377 404.546 793.799 Q402.853 796.221 399.598 797.159 M386.421 780.831 L386.421 794.633 L393.035 794.633 Q396.837 794.633 398.764 792.888 Q400.717 791.117 400.717 787.705 Q400.717 784.294 398.764 782.575 Q396.837 780.831 393.035 780.831 L386.421 780.831 Z" fill="#000000" fill-rule="nonzero" fill-opacity="1" /><path clip-path="url(#clip880)" d="M430.092 800.726 Q424.285 800.726 422.045 802.054 Q419.806 803.382 419.806 806.586 Q419.806 809.138 421.473 810.648 Q423.165 812.132 426.056 812.132 Q430.04 812.132 432.436 809.32 Q434.858 806.481 434.858 801.794 L434.858 800.726 L430.092 800.726 M439.65 798.747 L439.65 815.388 L434.858 815.388 L434.858 810.961 Q433.217 813.617 430.769 814.893 Q428.321 816.143 424.78 816.143 Q420.301 816.143 417.644 813.643 Q415.014 811.117 415.014 806.898 Q415.014 801.976 418.296 799.476 Q421.603 796.976 428.139 796.976 L434.858 796.976 L434.858 796.508 Q434.858 793.2 432.67 791.403 Q430.509 789.58 426.577 789.58 Q424.077 789.58 421.707 790.179 Q419.337 790.778 417.15 791.976 L417.15 787.549 Q419.78 786.534 422.254 786.039 Q424.728 785.518 427.072 785.518 Q433.4 785.518 436.525 788.799 Q439.65 792.08 439.65 798.747 Z" fill="#000000" fill-rule="nonzero" fill-opacity="1" /><path clip-path="url(#clip880)" d="M473.764 797.784 L473.764 815.388 L468.972 815.388 L468.972 797.94 Q468.972 793.799 467.358 791.742 Q465.743 789.685 462.514 789.685 Q458.634 789.685 456.394 792.159 Q454.155 794.633 454.155 798.903 L454.155 815.388 L449.337 815.388 L449.337 786.221 L454.155 786.221 L454.155 790.752 Q455.873 788.122 458.191 786.82 Q460.535 785.518 463.582 785.518 Q468.608 785.518 471.186 788.643 Q473.764 791.742 473.764 797.784 Z" fill="#000000" fill-rule="nonzero" fill-opacity="1" /><path clip-path="url(#clip880)" d="M483.139 774.867 L487.957 774.867 L487.957 798.799 L502.253 786.221 L508.373 786.221 L492.904 799.867 L509.024 815.388 L502.774 815.388 L487.957 801.143 L487.957 815.388 L483.139 815.388 L483.139 774.867 Z" fill="#000000" fill-rule="nonzero" fill-opacity="1" /><path clip-path="url(#clip880)" d="M549.753 787.08 L549.753 791.612 Q547.722 790.57 545.534 790.049 Q543.347 789.528 541.003 789.528 Q537.435 789.528 535.639 790.622 Q533.868 791.716 533.868 793.903 Q533.868 795.57 535.144 796.534 Q536.42 797.471 540.274 798.33 L541.915 798.695 Q547.019 799.789 549.154 801.794 Q551.316 803.773 551.316 807.341 Q551.316 811.403 548.086 813.773 Q544.883 816.143 539.258 816.143 Q536.915 816.143 534.363 815.674 Q531.837 815.231 529.024 814.32 L529.024 809.372 Q531.68 810.752 534.258 811.455 Q536.837 812.132 539.363 812.132 Q542.748 812.132 544.571 810.987 Q546.394 809.815 546.394 807.705 Q546.394 805.752 545.066 804.711 Q543.764 803.669 539.31 802.705 L537.644 802.315 Q533.191 801.377 531.212 799.45 Q529.232 797.497 529.232 794.112 Q529.232 789.997 532.149 787.758 Q535.066 785.518 540.43 785.518 Q543.087 785.518 545.43 785.909 Q547.774 786.299 549.753 787.08 Z" fill="#000000" fill-rule="nonzero" fill-opacity="1" /><path clip-path="url(#clip880)" d="M558.946 774.867 L563.737 774.867 L563.737 815.388 L558.946 815.388 L558.946 774.867 Z" fill="#000000" fill-rule="nonzero" fill-opacity="1" /><path clip-path="url(#clip880)" d="M585.065 789.58 Q581.211 789.58 578.972 792.601 Q576.732 795.596 576.732 800.83 Q576.732 806.065 578.946 809.086 Q581.185 812.08 585.065 812.08 Q588.894 812.08 591.133 809.06 Q593.373 806.039 593.373 800.83 Q593.373 795.648 591.133 792.627 Q588.894 789.58 585.065 789.58 M585.065 785.518 Q591.315 785.518 594.883 789.58 Q598.451 793.643 598.451 800.83 Q598.451 807.992 594.883 812.08 Q591.315 816.143 585.065 816.143 Q578.789 816.143 575.222 812.08 Q571.68 807.992 571.68 800.83 Q571.68 793.643 575.222 789.58 Q578.789 785.518 585.065 785.518 Z" fill="#000000" fill-rule="nonzero" fill-opacity="1" /><path clip-path="url(#clip880)" d="M611.029 811.013 L611.029 826.481 L606.211 826.481 L606.211 786.221 L611.029 786.221 L611.029 790.648 Q612.539 788.044 614.831 786.794 Q617.149 785.518 620.352 785.518 Q625.664 785.518 628.971 789.737 Q632.305 793.955 632.305 800.83 Q632.305 807.705 628.971 811.924 Q625.664 816.143 620.352 816.143 Q617.149 816.143 614.831 814.893 Q612.539 813.617 611.029 811.013 M627.331 800.83 Q627.331 795.544 625.143 792.549 Q622.982 789.528 619.18 789.528 Q615.378 789.528 613.19 792.549 Q611.029 795.544 611.029 800.83 Q611.029 806.117 613.19 809.138 Q615.378 812.132 619.18 812.132 Q622.982 812.132 625.143 809.138 Q627.331 806.117 627.331 800.83 Z" fill="#000000" fill-rule="nonzero" fill-opacity="1" /><path clip-path="url(#clip880)" d="M665.195 799.606 L665.195 801.95 L643.164 801.95 Q643.477 806.898 646.133 809.502 Q648.815 812.08 653.581 812.08 Q656.341 812.08 658.919 811.403 Q661.523 810.726 664.075 809.372 L664.075 813.903 Q661.497 814.997 658.789 815.57 Q656.081 816.143 653.294 816.143 Q646.315 816.143 642.227 812.08 Q638.164 808.018 638.164 801.091 Q638.164 793.929 642.018 789.737 Q645.898 785.518 652.461 785.518 Q658.346 785.518 661.758 789.32 Q665.195 793.096 665.195 799.606 M660.404 798.2 Q660.352 794.268 658.19 791.924 Q656.055 789.58 652.513 789.58 Q648.503 789.58 646.081 791.846 Q643.685 794.112 643.32 798.226 L660.404 798.2 Z" fill="#000000" fill-rule="nonzero" fill-opacity="1" /><path clip-path="url(#clip880)" d="M701.523 774.919 Q698.034 780.909 696.341 786.768 Q694.648 792.627 694.648 798.643 Q694.648 804.659 696.341 810.57 Q698.06 816.455 701.523 822.419 L697.357 822.419 Q693.45 816.299 691.497 810.388 Q689.57 804.476 689.57 798.643 Q689.57 792.836 691.497 786.95 Q693.424 781.065 697.357 774.919 L701.523 774.919 Z" fill="#000000" fill-rule="nonzero" fill-opacity="1" /><path clip-path="url(#clip880)" d="M730.013 790.648 L730.013 774.867 L734.804 774.867 L734.804 815.388 L730.013 815.388 L730.013 811.013 Q728.502 813.617 726.184 814.893 Q723.893 816.143 720.664 816.143 Q715.377 816.143 712.044 811.924 Q708.737 807.705 708.737 800.83 Q708.737 793.955 712.044 789.737 Q715.377 785.518 720.664 785.518 Q723.893 785.518 726.184 786.794 Q728.502 788.044 730.013 790.648 M713.685 800.83 Q713.685 806.117 715.846 809.138 Q718.033 812.132 721.836 812.132 Q725.638 812.132 727.825 809.138 Q730.013 806.117 730.013 800.83 Q730.013 795.544 727.825 792.549 Q725.638 789.528 721.836 789.528 Q718.033 789.528 715.846 792.549 Q713.685 795.544 713.685 800.83 Z" fill="#000000" fill-rule="nonzero" fill-opacity="1" /><path clip-path="url(#clip880)" d="M769.622 799.606 L769.622 801.95 L747.591 801.95 Q747.903 806.898 750.559 809.502 Q753.242 812.08 758.007 812.08 Q760.768 812.08 763.346 811.403 Q765.95 810.726 768.502 809.372 L768.502 813.903 Q765.924 814.997 763.216 815.57 Q760.507 816.143 757.721 816.143 Q750.742 816.143 746.653 812.08 Q742.591 808.018 742.591 801.091 Q742.591 793.929 746.445 789.737 Q750.325 785.518 756.887 785.518 Q762.773 785.518 766.184 789.32 Q769.622 793.096 769.622 799.606 M764.83 798.2 Q764.778 794.268 762.617 791.924 Q760.481 789.58 756.94 789.58 Q752.929 789.58 750.507 791.846 Q748.111 794.112 747.747 798.226 L764.83 798.2 Z" fill="#000000" fill-rule="nonzero" fill-opacity="1" /><path clip-path="url(#clip880)" d="M777.486 774.867 L782.278 774.867 L782.278 815.388 L777.486 815.388 L777.486 774.867 Z" fill="#000000" fill-rule="nonzero" fill-opacity="1" /><path clip-path="url(#clip880)" d="M797.043 777.94 L797.043 786.221 L806.913 786.221 L806.913 789.945 L797.043 789.945 L797.043 805.778 Q797.043 809.346 798.007 810.362 Q798.997 811.377 801.991 811.377 L806.913 811.377 L806.913 815.388 L801.991 815.388 Q796.445 815.388 794.335 813.33 Q792.226 811.247 792.226 805.778 L792.226 789.945 L788.71 789.945 L788.71 786.221 L792.226 786.221 L792.226 777.94 L797.043 777.94 Z" fill="#000000" fill-rule="nonzero" fill-opacity="1" /><path clip-path="url(#clip880)" d="M826.47 800.726 Q820.663 800.726 818.424 802.054 Q816.184 803.382 816.184 806.586 Q816.184 809.138 817.851 810.648 Q819.543 812.132 822.434 812.132 Q826.418 812.132 828.814 809.32 Q831.236 806.481 831.236 801.794 L831.236 800.726 L826.47 800.726 M836.028 798.747 L836.028 815.388 L831.236 815.388 L831.236 810.961 Q829.595 813.617 827.147 814.893 Q824.7 816.143 821.158 816.143 Q816.679 816.143 814.023 813.643 Q811.392 811.117 811.392 806.898 Q811.392 801.976 814.674 799.476 Q817.981 796.976 824.517 796.976 L831.236 796.976 L831.236 796.508 Q831.236 793.2 829.049 791.403 Q826.887 789.58 822.955 789.58 Q820.455 789.58 818.085 790.179 Q815.715 790.778 813.528 791.976 L813.528 787.549 Q816.158 786.534 818.632 786.039 Q821.106 785.518 823.45 785.518 Q829.778 785.518 832.903 788.799 Q836.028 792.08 836.028 798.747 Z" fill="#000000" fill-rule="nonzero" fill-opacity="1" /><path clip-path="url(#clip880)" d="M879.751 790.7 Q878.944 790.232 877.981 790.023 Q877.043 789.789 875.897 789.789 Q871.835 789.789 869.647 792.445 Q867.486 795.075 867.486 800.023 L867.486 815.388 L862.668 815.388 L862.668 786.221 L867.486 786.221 L867.486 790.752 Q868.996 788.096 871.418 786.82 Q873.84 785.518 877.303 785.518 Q877.798 785.518 878.397 785.596 Q878.996 785.648 879.725 785.778 L879.751 790.7 Z" fill="#000000" fill-rule="nonzero" fill-opacity="1" /><path clip-path="url(#clip880)" d="M898.033 800.726 Q892.225 800.726 889.986 802.054 Q887.746 803.382 887.746 806.586 Q887.746 809.138 889.413 810.648 Q891.105 812.132 893.996 812.132 Q897.98 812.132 900.376 809.32 Q902.798 806.481 902.798 801.794 L902.798 800.726 L898.033 800.726 M907.59 798.747 L907.59 815.388 L902.798 815.388 L902.798 810.961 Q901.158 813.617 898.71 814.893 Q896.262 816.143 892.72 816.143 Q888.241 816.143 885.585 813.643 Q882.954 811.117 882.954 806.898 Q882.954 801.976 886.236 799.476 Q889.543 796.976 896.079 796.976 L902.798 796.976 L902.798 796.508 Q902.798 793.2 900.611 791.403 Q898.449 789.58 894.517 789.58 Q892.017 789.58 889.647 790.179 Q887.277 790.778 885.09 791.976 L885.09 787.549 Q887.72 786.534 890.194 786.039 Q892.668 785.518 895.012 785.518 Q901.34 785.518 904.465 788.799 Q907.59 792.08 907.59 798.747 Z" fill="#000000" fill-rule="nonzero" fill-opacity="1" /><path clip-path="url(#clip880)" d="M941.704 797.784 L941.704 815.388 L936.913 815.388 L936.913 797.94 Q936.913 793.799 935.298 791.742 Q933.683 789.685 930.454 789.685 Q926.574 789.685 924.334 792.159 Q922.095 794.633 922.095 798.903 L922.095 815.388 L917.277 815.388 L917.277 786.221 L922.095 786.221 L922.095 790.752 Q923.814 788.122 926.131 786.82 Q928.475 785.518 931.522 785.518 Q936.548 785.518 939.126 788.643 Q941.704 791.742 941.704 797.784 Z" fill="#000000" fill-rule="nonzero" fill-opacity="1" /><path clip-path="url(#clip880)" d="M951.079 774.867 L955.897 774.867 L955.897 798.799 L970.194 786.221 L976.313 786.221 L960.845 799.867 L976.964 815.388 L970.714 815.388 L955.897 801.143 L955.897 815.388 L951.079 815.388 L951.079 774.867 Z" fill="#000000" fill-rule="nonzero" fill-opacity="1" /><path clip-path="url(#clip880)" d="M1003.74 811.013 L1003.74 826.481 L998.917 826.481 L998.917 786.221 L1003.74 786.221 L1003.74 790.648 Q1005.25 788.044 1007.54 786.794 Q1009.85 785.518 1013.06 785.518 Q1018.37 785.518 1021.68 789.737 Q1025.01 793.955 1025.01 800.83 Q1025.01 807.705 1021.68 811.924 Q1018.37 816.143 1013.06 816.143 Q1009.85 816.143 1007.54 814.893 Q1005.25 813.617 1003.74 811.013 M1020.04 800.83 Q1020.04 795.544 1017.85 792.549 Q1015.69 789.528 1011.89 789.528 Q1008.08 789.528 1005.9 792.549 Q1003.74 795.544 1003.74 800.83 Q1003.74 806.117 1005.9 809.138 Q1008.08 812.132 1011.89 812.132 Q1015.69 812.132 1017.85 809.138 Q1020.04 806.117 1020.04 800.83 Z" fill="#000000" fill-rule="nonzero" fill-opacity="1" /><path clip-path="url(#clip880)" d="M1057.9 799.606 L1057.9 801.95 L1035.87 801.95 Q1036.18 806.898 1038.84 809.502 Q1041.52 812.08 1046.29 812.08 Q1049.05 812.08 1051.63 811.403 Q1054.23 810.726 1056.78 809.372 L1056.78 813.903 Q1054.2 814.997 1051.5 815.57 Q1048.79 816.143 1046 816.143 Q1039.02 816.143 1034.93 812.08 Q1030.87 808.018 1030.87 801.091 Q1030.87 793.929 1034.72 789.737 Q1038.6 785.518 1045.17 785.518 Q1051.05 785.518 1054.46 789.32 Q1057.9 793.096 1057.9 799.606 M1053.11 798.2 Q1053.06 794.268 1050.9 791.924 Q1048.76 789.58 1045.22 789.58 Q1041.21 789.58 1038.79 791.846 Q1036.39 794.112 1036.03 798.226 L1053.11 798.2 Z" fill="#000000" fill-rule="nonzero" fill-opacity="1" /><path clip-path="url(#clip880)" d="M1082.67 790.7 Q1081.86 790.232 1080.9 790.023 Q1079.96 789.789 1078.81 789.789 Q1074.75 789.789 1072.56 792.445 Q1070.4 795.075 1070.4 800.023 L1070.4 815.388 L1065.58 815.388 L1065.58 786.221 L1070.4 786.221 L1070.4 790.752 Q1071.91 788.096 1074.33 786.82 Q1076.76 785.518 1080.22 785.518 Q1080.71 785.518 1081.31 785.596 Q1081.91 785.648 1082.64 785.778 L1082.67 790.7 Z" fill="#000000" fill-rule="nonzero" fill-opacity="1" /><path clip-path="url(#clip880)" d="M1125.64 787.341 L1125.64 791.82 Q1123.6 790.7 1121.55 790.153 Q1119.52 789.58 1117.43 789.58 Q1112.77 789.58 1110.19 792.549 Q1107.61 795.492 1107.61 800.83 Q1107.61 806.169 1110.19 809.138 Q1112.77 812.08 1117.43 812.08 Q1119.52 812.08 1121.55 811.533 Q1123.6 810.961 1125.64 809.841 L1125.64 814.268 Q1123.63 815.205 1121.47 815.674 Q1119.33 816.143 1116.91 816.143 Q1110.32 816.143 1106.44 812.002 Q1102.56 807.862 1102.56 800.83 Q1102.56 793.695 1106.47 789.607 Q1110.4 785.518 1117.22 785.518 Q1119.44 785.518 1121.55 785.987 Q1123.66 786.429 1125.64 787.341 Z" fill="#000000" fill-rule="nonzero" fill-opacity="1" /><path clip-path="url(#clip880)" d="M1156.68 791.82 Q1158.47 788.591 1160.97 787.054 Q1163.47 785.518 1166.86 785.518 Q1171.42 785.518 1173.89 788.721 Q1176.36 791.898 1176.36 797.784 L1176.36 815.388 L1171.55 815.388 L1171.55 797.94 Q1171.55 793.747 1170.06 791.716 Q1168.58 789.685 1165.53 789.685 Q1161.81 789.685 1159.65 792.159 Q1157.48 794.633 1157.48 798.903 L1157.48 815.388 L1152.67 815.388 L1152.67 797.94 Q1152.67 793.721 1151.18 791.716 Q1149.7 789.685 1146.6 789.685 Q1142.93 789.685 1140.77 792.185 Q1138.6 794.659 1138.6 798.903 L1138.6 815.388 L1133.79 815.388 L1133.79 786.221 L1138.6 786.221 L1138.6 790.752 Q1140.24 788.07 1142.54 786.794 Q1144.83 785.518 1147.98 785.518 Q1151.16 785.518 1153.37 787.133 Q1155.61 788.747 1156.68 791.82 Z" fill="#000000" fill-rule="nonzero" fill-opacity="1" /><path clip-path="url(#clip880)" d="M1194.44 776.508 L1198.86 776.508 L1185.32 820.336 L1180.9 820.336 L1194.44 776.508 Z" fill="#000000" fill-rule="nonzero" fill-opacity="1" /><path clip-path="url(#clip880)" d="M1222.48 787.08 L1222.48 791.612 Q1220.45 790.57 1218.27 790.049 Q1216.08 789.528 1213.73 789.528 Q1210.17 789.528 1208.37 790.622 Q1206.6 791.716 1206.6 793.903 Q1206.6 795.57 1207.87 796.534 Q1209.15 797.471 1213 798.33 L1214.65 798.695 Q1219.75 799.789 1221.88 801.794 Q1224.05 803.773 1224.05 807.341 Q1224.05 811.403 1220.82 813.773 Q1217.61 816.143 1211.99 816.143 Q1209.65 816.143 1207.09 815.674 Q1204.57 815.231 1201.75 814.32 L1201.75 809.372 Q1204.41 810.752 1206.99 811.455 Q1209.57 812.132 1212.09 812.132 Q1215.48 812.132 1217.3 810.987 Q1219.12 809.815 1219.12 807.705 Q1219.12 805.752 1217.8 804.711 Q1216.49 803.669 1212.04 802.705 L1210.37 802.315 Q1205.92 801.377 1203.94 799.45 Q1201.96 797.497 1201.96 794.112 Q1201.96 789.997 1204.88 787.758 Q1207.8 785.518 1213.16 785.518 Q1215.82 785.518 1218.16 785.909 Q1220.5 786.299 1222.48 787.08 Z" fill="#000000" fill-rule="nonzero" fill-opacity="1" /><path clip-path="url(#clip880)" d="M1230.92 774.919 L1235.09 774.919 Q1238.99 781.065 1240.92 786.95 Q1242.87 792.836 1242.87 798.643 Q1242.87 804.476 1240.92 810.388 Q1238.99 816.299 1235.09 822.419 L1230.92 822.419 Q1234.38 816.455 1236.08 810.57 Q1237.8 804.659 1237.8 798.643 Q1237.8 792.627 1236.08 786.768 Q1234.38 780.909 1230.92 774.919 Z" fill="#000000" fill-rule="nonzero" fill-opacity="1" /><polyline clip-path="url(#clip880)" style="stroke:#000000; stroke-linecap:round; stroke-linejoin:round; stroke-width:4; stroke-opacity:1; fill:none" points="341.515,695.292 341.515,216.788 "/>
<polyline clip-path="url(#clip880)" style="stroke:#000000; stroke-linecap:round; stroke-linejoin:round; stroke-width:4; stroke-opacity:1; fill:none" points="341.515,630.628 360.413,630.628 "/>
<polyline clip-path="url(#clip880)" style="stroke:#000000; stroke-linecap:round; stroke-linejoin:round; stroke-width:4; stroke-opacity:1; fill:none" points="341.515,547.233 360.413,547.233 "/>
<polyline clip-path="url(#clip880)" style="stroke:#000000; stroke-linecap:round; stroke-linejoin:round; stroke-width:4; stroke-opacity:1; fill:none" points="341.515,463.837 360.413,463.837 "/>
<polyline clip-path="url(#clip880)" style="stroke:#000000; stroke-linecap:round; stroke-linejoin:round; stroke-width:4; stroke-opacity:1; fill:none" points="341.515,380.442 360.413,380.442 "/>
<polyline clip-path="url(#clip880)" style="stroke:#000000; stroke-linecap:round; stroke-linejoin:round; stroke-width:4; stroke-opacity:1; fill:none" points="341.515,297.047 360.413,297.047 "/>
<path clip-path="url(#clip880)" d="M223.388 643.973 L231.027 643.973 L231.027 617.607 L222.716 619.274 L222.716 615.014 L230.98 613.348 L235.656 613.348 L235.656 643.973 L243.295 643.973 L243.295 647.908 L223.388 647.908 L223.388 643.973 Z" fill="#000000" fill-rule="nonzero" fill-opacity="1" /><path clip-path="url(#clip880)" d="M252.786 613.348 L271.142 613.348 L271.142 617.283 L257.068 617.283 L257.068 625.755 Q258.087 625.408 259.105 625.246 Q260.124 625.061 261.142 625.061 Q266.929 625.061 270.309 628.232 Q273.688 631.403 273.688 636.82 Q273.688 642.399 270.216 645.5 Q266.744 648.579 260.425 648.579 Q258.249 648.579 255.98 648.209 Q253.735 647.838 251.327 647.098 L251.327 642.399 Q253.411 643.533 255.633 644.088 Q257.855 644.644 260.332 644.644 Q264.337 644.644 266.675 642.537 Q269.013 640.431 269.013 636.82 Q269.013 633.209 266.675 631.102 Q264.337 628.996 260.332 628.996 Q258.457 628.996 256.582 629.412 Q254.73 629.829 252.786 630.709 L252.786 613.348 Z" fill="#000000" fill-rule="nonzero" fill-opacity="1" /><path clip-path="url(#clip880)" d="M282.901 642.028 L287.786 642.028 L287.786 647.908 L282.901 647.908 L282.901 642.028 Z" fill="#000000" fill-rule="nonzero" fill-opacity="1" /><path clip-path="url(#clip880)" d="M307.971 616.426 Q304.36 616.426 302.531 619.991 Q300.725 623.533 300.725 630.662 Q300.725 637.769 302.531 641.334 Q304.36 644.875 307.971 644.875 Q311.605 644.875 313.41 641.334 Q315.239 637.769 315.239 630.662 Q315.239 623.533 313.41 619.991 Q311.605 616.426 307.971 616.426 M307.971 612.723 Q313.781 612.723 316.836 617.329 Q319.915 621.913 319.915 630.662 Q319.915 639.389 316.836 643.996 Q313.781 648.579 307.971 648.579 Q302.16 648.579 299.082 643.996 Q296.026 639.389 296.026 630.662 Q296.026 621.913 299.082 617.329 Q302.16 612.723 307.971 612.723 Z" fill="#000000" fill-rule="nonzero" fill-opacity="1" /><path clip-path="url(#clip880)" d="M224.383 560.577 L232.022 560.577 L232.022 534.212 L223.712 535.878 L223.712 531.619 L231.976 529.953 L236.652 529.953 L236.652 560.577 L244.29 560.577 L244.29 564.513 L224.383 564.513 L224.383 560.577 Z" fill="#000000" fill-rule="nonzero" fill-opacity="1" /><path clip-path="url(#clip880)" d="M252.554 529.953 L274.776 529.953 L274.776 531.943 L262.23 564.513 L257.346 564.513 L269.151 533.888 L252.554 533.888 L252.554 529.953 Z" fill="#000000" fill-rule="nonzero" fill-opacity="1" /><path clip-path="url(#clip880)" d="M283.897 558.633 L288.781 558.633 L288.781 564.513 L283.897 564.513 L283.897 558.633 Z" fill="#000000" fill-rule="nonzero" fill-opacity="1" /><path clip-path="url(#clip880)" d="M299.012 529.953 L317.369 529.953 L317.369 533.888 L303.295 533.888 L303.295 542.36 Q304.313 542.013 305.332 541.851 Q306.35 541.665 307.369 541.665 Q313.156 541.665 316.535 544.837 Q319.915 548.008 319.915 553.425 Q319.915 559.003 316.443 562.105 Q312.971 565.184 306.651 565.184 Q304.475 565.184 302.207 564.813 Q299.961 564.443 297.554 563.702 L297.554 559.003 Q299.637 560.138 301.86 560.693 Q304.082 561.249 306.559 561.249 Q310.563 561.249 312.901 559.142 Q315.239 557.036 315.239 553.425 Q315.239 549.814 312.901 547.707 Q310.563 545.601 306.559 545.601 Q304.684 545.601 302.809 546.017 Q300.957 546.434 299.012 547.314 L299.012 529.953 Z" fill="#000000" fill-rule="nonzero" fill-opacity="1" /><path clip-path="url(#clip880)" d="M226.605 477.182 L242.925 477.182 L242.925 481.117 L220.98 481.117 L220.98 477.182 Q223.642 474.428 228.226 469.798 Q232.832 465.145 234.013 463.803 Q236.258 461.28 237.138 459.543 Q238.04 457.784 238.04 456.094 Q238.04 453.34 236.096 451.604 Q234.175 449.868 231.073 449.868 Q228.874 449.868 226.42 450.631 Q223.99 451.395 221.212 452.946 L221.212 448.224 Q224.036 447.09 226.49 446.511 Q228.943 445.932 230.98 445.932 Q236.351 445.932 239.545 448.618 Q242.74 451.303 242.74 455.793 Q242.74 457.923 241.929 459.844 Q241.142 461.742 239.036 464.335 Q238.457 465.006 235.355 468.224 Q232.253 471.418 226.605 477.182 Z" fill="#000000" fill-rule="nonzero" fill-opacity="1" /><path clip-path="url(#clip880)" d="M262.739 449.636 Q259.128 449.636 257.3 453.201 Q255.494 456.743 255.494 463.872 Q255.494 470.979 257.3 474.543 Q259.128 478.085 262.739 478.085 Q266.374 478.085 268.179 474.543 Q270.008 470.979 270.008 463.872 Q270.008 456.743 268.179 453.201 Q266.374 449.636 262.739 449.636 M262.739 445.932 Q268.55 445.932 271.605 450.539 Q274.684 455.122 274.684 463.872 Q274.684 472.599 271.605 477.205 Q268.55 481.789 262.739 481.789 Q256.929 481.789 253.851 477.205 Q250.795 472.599 250.795 463.872 Q250.795 455.122 253.851 450.539 Q256.929 445.932 262.739 445.932 Z" fill="#000000" fill-rule="nonzero" fill-opacity="1" /><path clip-path="url(#clip880)" d="M282.901 475.238 L287.786 475.238 L287.786 481.117 L282.901 481.117 L282.901 475.238 Z" fill="#000000" fill-rule="nonzero" fill-opacity="1" /><path clip-path="url(#clip880)" d="M307.971 449.636 Q304.36 449.636 302.531 453.201 Q300.725 456.743 300.725 463.872 Q300.725 470.979 302.531 474.543 Q304.36 478.085 307.971 478.085 Q311.605 478.085 313.41 474.543 Q315.239 470.979 315.239 463.872 Q315.239 456.743 313.41 453.201 Q311.605 449.636 307.971 449.636 M307.971 445.932 Q313.781 445.932 316.836 450.539 Q319.915 455.122 319.915 463.872 Q319.915 472.599 316.836 477.205 Q313.781 481.789 307.971 481.789 Q302.16 481.789 299.082 477.205 Q296.026 472.599 296.026 463.872 Q296.026 455.122 299.082 450.539 Q302.16 445.932 307.971 445.932 Z" fill="#000000" fill-rule="nonzero" fill-opacity="1" /><path clip-path="url(#clip880)" d="M227.601 393.787 L243.92 393.787 L243.92 397.722 L221.976 397.722 L221.976 393.787 Q224.638 391.032 229.221 386.403 Q233.828 381.75 235.008 380.407 Q237.253 377.884 238.133 376.148 Q239.036 374.389 239.036 372.699 Q239.036 369.945 237.091 368.208 Q235.17 366.472 232.068 366.472 Q229.869 366.472 227.416 367.236 Q224.985 368 222.207 369.551 L222.207 364.829 Q225.031 363.695 227.485 363.116 Q229.939 362.537 231.976 362.537 Q237.346 362.537 240.54 365.222 Q243.735 367.908 243.735 372.398 Q243.735 374.528 242.925 376.449 Q242.138 378.347 240.031 380.94 Q239.453 381.611 236.351 384.829 Q233.249 388.023 227.601 393.787 Z" fill="#000000" fill-rule="nonzero" fill-opacity="1" /><path clip-path="url(#clip880)" d="M257.763 393.787 L274.082 393.787 L274.082 397.722 L252.138 397.722 L252.138 393.787 Q254.8 391.032 259.383 386.403 Q263.989 381.75 265.17 380.407 Q267.415 377.884 268.295 376.148 Q269.198 374.389 269.198 372.699 Q269.198 369.945 267.253 368.208 Q265.332 366.472 262.23 366.472 Q260.031 366.472 257.577 367.236 Q255.147 368 252.369 369.551 L252.369 364.829 Q255.193 363.695 257.647 363.116 Q260.101 362.537 262.138 362.537 Q267.508 362.537 270.702 365.222 Q273.897 367.908 273.897 372.398 Q273.897 374.528 273.087 376.449 Q272.3 378.347 270.193 380.94 Q269.614 381.611 266.513 384.829 Q263.411 388.023 257.763 393.787 Z" fill="#000000" fill-rule="nonzero" fill-opacity="1" /><path clip-path="url(#clip880)" d="M283.897 391.843 L288.781 391.843 L288.781 397.722 L283.897 397.722 L283.897 391.843 Z" fill="#000000" fill-rule="nonzero" fill-opacity="1" /><path clip-path="url(#clip880)" d="M299.012 363.162 L317.369 363.162 L317.369 367.097 L303.295 367.097 L303.295 375.57 Q304.313 375.222 305.332 375.06 Q306.35 374.875 307.369 374.875 Q313.156 374.875 316.535 378.046 Q319.915 381.218 319.915 386.634 Q319.915 392.213 316.443 395.315 Q312.971 398.394 306.651 398.394 Q304.475 398.394 302.207 398.023 Q299.961 397.653 297.554 396.912 L297.554 392.213 Q299.637 393.347 301.86 393.903 Q304.082 394.458 306.559 394.458 Q310.563 394.458 312.901 392.352 Q315.239 390.245 315.239 386.634 Q315.239 383.023 312.901 380.917 Q310.563 378.81 306.559 378.81 Q304.684 378.81 302.809 379.227 Q300.957 379.644 299.012 380.523 L299.012 363.162 Z" fill="#000000" fill-rule="nonzero" fill-opacity="1" /><path clip-path="url(#clip880)" d="M226.605 310.392 L242.925 310.392 L242.925 314.327 L220.98 314.327 L220.98 310.392 Q223.642 307.637 228.226 303.008 Q232.832 298.355 234.013 297.012 Q236.258 294.489 237.138 292.753 Q238.04 290.994 238.04 289.304 Q238.04 286.549 236.096 284.813 Q234.175 283.077 231.073 283.077 Q228.874 283.077 226.42 283.841 Q223.99 284.605 221.212 286.156 L221.212 281.434 Q224.036 280.299 226.49 279.721 Q228.943 279.142 230.98 279.142 Q236.351 279.142 239.545 281.827 Q242.74 284.512 242.74 289.003 Q242.74 291.133 241.929 293.054 Q241.142 294.952 239.036 297.545 Q238.457 298.216 235.355 301.434 Q232.253 304.628 226.605 310.392 Z" fill="#000000" fill-rule="nonzero" fill-opacity="1" /><path clip-path="url(#clip880)" d="M252.786 279.767 L271.142 279.767 L271.142 283.702 L257.068 283.702 L257.068 292.174 Q258.087 291.827 259.105 291.665 Q260.124 291.48 261.142 291.48 Q266.929 291.48 270.309 294.651 Q273.688 297.822 273.688 303.239 Q273.688 308.818 270.216 311.92 Q266.744 314.998 260.425 314.998 Q258.249 314.998 255.98 314.628 Q253.735 314.258 251.327 313.517 L251.327 308.818 Q253.411 309.952 255.633 310.508 Q257.855 311.063 260.332 311.063 Q264.337 311.063 266.675 308.957 Q269.013 306.85 269.013 303.239 Q269.013 299.628 266.675 297.522 Q264.337 295.415 260.332 295.415 Q258.457 295.415 256.582 295.832 Q254.73 296.248 252.786 297.128 L252.786 279.767 Z" fill="#000000" fill-rule="nonzero" fill-opacity="1" /><path clip-path="url(#clip880)" d="M282.901 308.447 L287.786 308.447 L287.786 314.327 L282.901 314.327 L282.901 308.447 Z" fill="#000000" fill-rule="nonzero" fill-opacity="1" /><path clip-path="url(#clip880)" d="M307.971 282.846 Q304.36 282.846 302.531 286.411 Q300.725 289.952 300.725 297.082 Q300.725 304.188 302.531 307.753 Q304.36 311.295 307.971 311.295 Q311.605 311.295 313.41 307.753 Q315.239 304.188 315.239 297.082 Q315.239 289.952 313.41 286.411 Q311.605 282.846 307.971 282.846 M307.971 279.142 Q313.781 279.142 316.836 283.748 Q319.915 288.332 319.915 297.082 Q319.915 305.809 316.836 310.415 Q313.781 314.998 307.971 314.998 Q302.16 314.998 299.082 310.415 Q296.026 305.809 296.026 297.082 Q296.026 288.332 299.082 283.748 Q302.16 279.142 307.971 279.142 Z" fill="#000000" fill-rule="nonzero" fill-opacity="1" /><path clip-path="url(#clip880)" d="M169.149 588.995 L183.393 588.995 L183.393 580.558 Q183.393 576.313 181.649 574.282 Q179.878 572.224 176.258 572.224 Q172.612 572.224 170.894 574.282 Q169.149 576.313 169.149 580.558 L169.149 588.995 M153.159 588.995 L164.878 588.995 L164.878 581.209 Q164.878 577.354 163.446 575.479 Q161.987 573.578 159.019 573.578 Q156.076 573.578 154.618 575.479 Q153.159 577.354 153.159 581.209 L153.159 588.995 M148.836 594.255 L148.836 580.818 Q148.836 574.802 151.336 571.547 Q153.836 568.292 158.446 568.292 Q162.013 568.292 164.123 569.959 Q166.232 571.625 166.753 574.854 Q167.586 570.974 170.243 568.839 Q172.873 566.677 176.831 566.677 Q182.039 566.677 184.878 570.219 Q187.716 573.761 187.716 580.297 L187.716 594.255 L148.836 594.255 Z" fill="#000000" fill-rule="nonzero" fill-opacity="1" /><path clip-path="url(#clip880)" d="M171.935 532.928 L174.279 532.928 L174.279 554.959 Q179.227 554.646 181.831 551.99 Q184.409 549.308 184.409 544.542 Q184.409 541.782 183.732 539.204 Q183.055 536.599 181.701 534.047 L186.232 534.047 Q187.326 536.625 187.899 539.334 Q188.472 542.042 188.472 544.829 Q188.472 551.808 184.409 555.896 Q180.347 559.959 173.42 559.959 Q166.258 559.959 162.065 556.105 Q157.847 552.224 157.847 545.662 Q157.847 539.777 161.649 536.365 Q165.425 532.928 171.935 532.928 M170.529 537.719 Q166.597 537.771 164.253 539.933 Q161.909 542.068 161.909 545.61 Q161.909 549.62 164.175 552.042 Q166.44 554.438 170.555 554.802 L170.529 537.719 Z" fill="#000000" fill-rule="nonzero" fill-opacity="1" /><path clip-path="url(#clip880)" d="M163.029 508.162 Q162.56 508.969 162.352 509.933 Q162.118 510.87 162.118 512.016 Q162.118 516.079 164.774 518.266 Q167.404 520.428 172.352 520.428 L187.716 520.428 L187.716 525.245 L158.55 525.245 L158.55 520.428 L163.081 520.428 Q160.425 518.917 159.149 516.495 Q157.847 514.074 157.847 510.61 Q157.847 510.115 157.925 509.516 Q157.977 508.917 158.107 508.188 L163.029 508.162 Z" fill="#000000" fill-rule="nonzero" fill-opacity="1" /><path clip-path="url(#clip880)" d="M172.795 484.881 Q167.586 484.881 164.722 487.042 Q161.857 489.178 161.857 493.058 Q161.857 496.912 164.722 499.074 Q167.586 501.209 172.795 501.209 Q177.977 501.209 180.841 499.074 Q183.706 496.912 183.706 493.058 Q183.706 489.178 180.841 487.042 Q177.977 484.881 172.795 484.881 M184.097 480.089 Q191.544 480.089 195.164 483.397 Q198.81 486.704 198.81 493.527 Q198.81 496.053 198.419 498.292 Q198.055 500.532 197.274 502.641 L192.612 502.641 Q193.758 500.532 194.305 498.475 Q194.852 496.417 194.852 494.282 Q194.852 489.568 192.378 487.225 Q189.93 484.881 184.956 484.881 L182.586 484.881 Q185.164 486.365 186.44 488.683 Q187.716 491.001 187.716 494.23 Q187.716 499.594 183.628 502.876 Q179.539 506.157 172.795 506.157 Q166.024 506.157 161.935 502.876 Q157.847 499.594 157.847 494.23 Q157.847 491.001 159.123 488.683 Q160.399 486.365 162.977 484.881 L158.55 484.881 L158.55 480.089 L184.097 480.089 Z" fill="#000000" fill-rule="nonzero" fill-opacity="1" /><path clip-path="url(#clip880)" d="M159.409 434.673 L163.94 434.673 Q162.899 436.704 162.378 438.892 Q161.857 441.079 161.857 443.423 Q161.857 446.991 162.951 448.787 Q164.045 450.558 166.232 450.558 Q167.899 450.558 168.862 449.282 Q169.8 448.006 170.659 444.152 L171.024 442.511 Q172.118 437.407 174.123 435.272 Q176.102 433.11 179.67 433.11 Q183.732 433.11 186.102 436.34 Q188.472 439.543 188.472 445.168 Q188.472 447.511 188.003 450.063 Q187.56 452.589 186.649 455.402 L181.701 455.402 Q183.081 452.746 183.784 450.168 Q184.461 447.59 184.461 445.063 Q184.461 441.678 183.315 439.855 Q182.143 438.032 180.034 438.032 Q178.081 438.032 177.039 439.36 Q175.998 440.662 175.034 445.116 L174.644 446.782 Q173.706 451.235 171.779 453.214 Q169.826 455.194 166.44 455.194 Q162.326 455.194 160.086 452.277 Q157.847 449.36 157.847 443.996 Q157.847 441.34 158.237 438.996 Q158.628 436.652 159.409 434.673 Z" fill="#000000" fill-rule="nonzero" fill-opacity="1" /><path clip-path="url(#clip880)" d="M159.67 404.491 L164.149 404.491 Q163.029 406.522 162.482 408.579 Q161.909 410.611 161.909 412.694 Q161.909 417.355 164.878 419.933 Q167.821 422.512 173.159 422.512 Q178.498 422.512 181.466 419.933 Q184.409 417.355 184.409 412.694 Q184.409 410.611 183.862 408.579 Q183.289 406.522 182.17 404.491 L186.597 404.491 Q187.534 406.496 188.003 408.657 Q188.472 410.793 188.472 413.215 Q188.472 419.803 184.331 423.683 Q180.19 427.564 173.159 427.564 Q166.024 427.564 161.935 423.657 Q157.847 419.725 157.847 412.902 Q157.847 410.689 158.315 408.579 Q158.758 406.47 159.67 404.491 Z" fill="#000000" fill-rule="nonzero" fill-opacity="1" /><path clip-path="url(#clip880)" d="M161.909 384.855 Q161.909 388.71 164.93 390.949 Q167.925 393.189 173.159 393.189 Q178.394 393.189 181.414 390.975 Q184.409 388.736 184.409 384.855 Q184.409 381.027 181.388 378.788 Q178.367 376.548 173.159 376.548 Q167.977 376.548 164.956 378.788 Q161.909 381.027 161.909 384.855 M157.847 384.855 Q157.847 378.606 161.909 375.038 Q165.972 371.47 173.159 371.47 Q180.321 371.47 184.409 375.038 Q188.472 378.606 188.472 384.855 Q188.472 391.131 184.409 394.699 Q180.321 398.241 173.159 398.241 Q165.972 398.241 161.909 394.699 Q157.847 391.131 157.847 384.855 Z" fill="#000000" fill-rule="nonzero" fill-opacity="1" /><path clip-path="url(#clip880)" d="M163.029 346.627 Q162.56 347.434 162.352 348.397 Q162.118 349.335 162.118 350.481 Q162.118 354.543 164.774 356.731 Q167.404 358.892 172.352 358.892 L187.716 358.892 L187.716 363.71 L158.55 363.71 L158.55 358.892 L163.081 358.892 Q160.425 357.382 159.149 354.96 Q157.847 352.538 157.847 349.074 Q157.847 348.58 157.925 347.981 Q157.977 347.382 158.107 346.653 L163.029 346.627 Z" fill="#000000" fill-rule="nonzero" fill-opacity="1" /><path clip-path="url(#clip880)" d="M171.935 317.825 L174.279 317.825 L174.279 339.856 Q179.227 339.543 181.831 336.887 Q184.409 334.205 184.409 329.439 Q184.409 326.679 183.732 324.101 Q183.055 321.496 181.701 318.944 L186.232 318.944 Q187.326 321.522 187.899 324.231 Q188.472 326.939 188.472 329.726 Q188.472 336.705 184.409 340.793 Q180.347 344.856 173.42 344.856 Q166.258 344.856 162.065 341.002 Q157.847 337.121 157.847 330.559 Q157.847 324.674 161.649 321.262 Q165.425 317.825 171.935 317.825 M170.529 322.616 Q166.597 322.668 164.253 324.83 Q161.909 326.965 161.909 330.507 Q161.909 334.517 164.175 336.939 Q166.44 339.335 170.555 339.699 L170.529 322.616 Z" fill="#000000" fill-rule="nonzero" fill-opacity="1" /><path clip-path="url(#clip880)" d="M302.24 6.87496 Q298.363 13.53 296.482 20.0404 Q294.601 26.5508 294.601 33.2348 Q294.601 39.9188 296.482 46.487 Q298.392 53.0263 302.24 59.6525 L297.61 59.6525 Q293.27 52.8527 291.1 46.2845 Q288.959 39.7162 288.959 33.2348 Q288.959 26.7823 291.1 20.2429 Q293.241 13.7036 297.61 6.87496 L302.24 6.87496 Z" fill="#000000" fill-rule="nonzero" fill-opacity="1" /><path clip-path="url(#clip880)" d="M318.646 13.4432 L318.646 47.0368 L325.706 47.0368 Q334.647 47.0368 338.785 42.9859 Q342.952 38.935 342.952 30.1966 Q342.952 21.5161 338.785 17.4941 Q334.647 13.4432 325.706 13.4432 L318.646 13.4432 M312.801 8.64 L324.809 8.64 Q337.367 8.64 343.241 13.8772 Q349.115 19.0855 349.115 30.1966 Q349.115 41.3655 343.212 46.6028 Q337.309 51.84 324.809 51.84 L312.801 51.84 L312.801 8.64 Z" fill="#000000" fill-rule="nonzero" fill-opacity="1" /><path clip-path="url(#clip880)" d="M363.987 46.921 L384.387 46.921 L384.387 51.84 L356.956 51.84 L356.956 46.921 Q360.284 43.4778 366.013 37.6908 Q371.771 31.8748 373.247 30.1966 Q376.053 27.0427 377.153 24.8726 Q378.281 22.6735 378.281 20.5612 Q378.281 17.118 375.851 14.9478 Q373.449 12.7777 369.572 12.7777 Q366.823 12.7777 363.756 13.7326 Q360.718 14.6874 357.245 16.6261 L357.245 10.7233 Q360.776 9.30551 363.843 8.58213 Q366.91 7.85875 369.456 7.85875 Q376.169 7.85875 380.162 11.2152 Q384.155 14.5717 384.155 20.1851 Q384.155 22.8471 383.142 25.2487 Q382.159 27.6214 379.525 30.8621 Q378.802 31.7012 374.925 35.7232 Q371.047 39.7162 363.987 46.921 Z" fill="#000000" fill-rule="nonzero" fill-opacity="1" /><path clip-path="url(#clip880)" d="M395.064 6.87496 L399.693 6.87496 Q404.033 13.7036 406.175 20.2429 Q408.345 26.7823 408.345 33.2348 Q408.345 39.7162 406.175 46.2845 Q404.033 52.8527 399.693 59.6525 L395.064 59.6525 Q398.912 53.0263 400.793 46.487 Q402.702 39.9188 402.702 33.2348 Q402.702 26.5508 400.793 20.0404 Q398.912 13.53 395.064 6.87496 Z" fill="#000000" fill-rule="nonzero" fill-opacity="1" /><path clip-path="url(#clip880)" d="M458.576 31.5855 Q460.457 32.222 462.222 34.3054 Q464.016 36.3887 465.81 40.0345 L471.741 51.84 L465.463 51.84 L459.936 40.7579 Q457.795 36.4176 455.769 34.9998 Q453.773 33.582 450.301 33.582 L443.935 33.582 L443.935 51.84 L438.09 51.84 L438.09 8.64 L451.284 8.64 Q458.692 8.64 462.338 11.736 Q465.983 14.8321 465.983 21.0821 Q465.983 25.1619 464.074 27.8529 Q462.193 30.5438 458.576 31.5855 M443.935 13.4432 L443.935 28.7788 L451.284 28.7788 Q455.509 28.7788 457.65 26.8401 Q459.82 24.8726 459.82 21.0821 Q459.82 17.2916 457.65 15.3819 Q455.509 13.4432 451.284 13.4432 L443.935 13.4432 Z" fill="#000000" fill-rule="nonzero" fill-opacity="1" /><path clip-path="url(#clip880)" d="M492.459 35.5496 Q486.006 35.5496 483.518 37.0253 Q481.03 38.501 481.03 42.06 Q481.03 44.8956 482.881 46.5738 Q484.762 48.2231 487.974 48.2231 Q492.401 48.2231 495.063 45.0981 Q497.754 41.9442 497.754 36.7359 L497.754 35.5496 L492.459 35.5496 M503.078 33.3505 L503.078 51.84 L497.754 51.84 L497.754 46.921 Q495.931 49.8724 493.211 51.2902 Q490.491 52.6791 486.556 52.6791 Q481.579 52.6791 478.628 49.9014 Q475.706 47.0947 475.706 42.4072 Q475.706 36.9385 479.351 34.1607 Q483.026 31.3829 490.289 31.3829 L497.754 31.3829 L497.754 30.8621 Q497.754 27.1874 495.323 25.1908 Q492.922 23.1654 488.553 23.1654 Q485.775 23.1654 483.142 23.8309 Q480.509 24.4964 478.078 25.8274 L478.078 20.9085 Q481.001 19.78 483.749 19.2302 Q486.498 18.6515 489.102 18.6515 Q496.134 18.6515 499.606 22.2973 Q503.078 25.9431 503.078 33.3505 Z" fill="#000000" fill-rule="nonzero" fill-opacity="1" /><path clip-path="url(#clip880)" d="M540.983 32.2799 L540.983 51.84 L535.659 51.84 L535.659 32.4535 Q535.659 27.8529 533.865 25.567 Q532.071 23.2811 528.483 23.2811 Q524.172 23.2811 521.683 26.03 Q519.195 28.7788 519.195 33.5241 L519.195 51.84 L513.842 51.84 L513.842 19.4328 L519.195 19.4328 L519.195 24.4675 Q521.105 21.545 523.68 20.0983 Q526.284 18.6515 529.669 18.6515 Q535.254 18.6515 538.118 22.1237 Q540.983 25.567 540.983 32.2799 Z" fill="#000000" fill-rule="nonzero" fill-opacity="1" /><path clip-path="url(#clip880)" d="M551.4 6.81709 L556.753 6.81709 L556.753 33.4084 L572.638 19.4328 L579.438 19.4328 L562.25 34.5947 L580.161 51.84 L573.217 51.84 L556.753 36.0125 L556.753 51.84 L551.4 51.84 L551.4 6.81709 Z" fill="#000000" fill-rule="nonzero" fill-opacity="1" /><path clip-path="url(#clip880)" d="M625.415 20.3876 L625.415 25.4223 Q623.158 24.2649 620.728 23.6862 Q618.297 23.1075 615.693 23.1075 Q611.729 23.1075 609.733 24.3228 Q607.765 25.5381 607.765 27.9686 Q607.765 29.8204 609.183 30.891 Q610.601 31.9327 614.883 32.8876 L616.706 33.2926 Q622.377 34.5079 624.75 36.7359 Q627.151 38.935 627.151 42.8991 Q627.151 47.4129 623.564 50.046 Q620.004 52.6791 613.755 52.6791 Q611.15 52.6791 608.315 52.1583 Q605.508 51.6664 602.383 50.6537 L602.383 45.156 Q605.334 46.6896 608.199 47.4708 Q611.064 48.2231 613.87 48.2231 Q617.632 48.2231 619.657 46.95 Q621.683 45.6479 621.683 43.3042 Q621.683 41.134 620.207 39.9766 Q618.76 38.8192 613.812 37.7486 L611.961 37.3146 Q607.013 36.273 604.814 34.1318 Q602.615 31.9616 602.615 28.2001 Q602.615 23.6283 605.855 21.1399 Q609.096 18.6515 615.057 18.6515 Q618.008 18.6515 620.612 19.0855 Q623.216 19.5196 625.415 20.3876 Z" fill="#000000" fill-rule="nonzero" fill-opacity="1" /><path clip-path="url(#clip880)" d="M640.78 46.9789 L640.78 64.1663 L635.427 64.1663 L635.427 19.4328 L640.78 19.4328 L640.78 24.3517 Q642.458 21.4582 645.004 20.0693 Q647.58 18.6515 651.139 18.6515 Q657.041 18.6515 660.716 23.339 Q664.42 28.0265 664.42 35.6653 Q664.42 43.3042 660.716 47.9916 Q657.041 52.6791 651.139 52.6791 Q647.58 52.6791 645.004 51.2902 Q642.458 49.8724 640.78 46.9789 M658.893 35.6653 Q658.893 29.7915 656.463 26.464 Q654.061 23.1075 649.837 23.1075 Q645.612 23.1075 643.181 26.464 Q640.78 29.7915 640.78 35.6653 Q640.78 41.5391 643.181 44.8956 Q645.612 48.2231 649.837 48.2231 Q654.061 48.2231 656.463 44.8956 Q658.893 41.5391 658.893 35.6653 Z" fill="#000000" fill-rule="nonzero" fill-opacity="1" /><path clip-path="url(#clip880)" d="M700.965 34.3054 L700.965 36.9095 L676.486 36.9095 Q676.833 42.4072 679.784 45.3007 Q682.765 48.1653 688.06 48.1653 Q691.127 48.1653 693.991 47.4129 Q696.885 46.6606 699.721 45.156 L699.721 50.1907 Q696.856 51.406 693.847 52.0425 Q690.837 52.6791 687.741 52.6791 Q679.987 52.6791 675.444 48.1653 Q670.93 43.6514 670.93 35.9547 Q670.93 27.9975 675.213 23.339 Q679.524 18.6515 686.815 18.6515 Q693.355 18.6515 697.145 22.876 Q700.965 27.0716 700.965 34.3054 M695.641 32.7429 Q695.583 28.3737 693.181 25.7695 Q690.809 23.1654 686.873 23.1654 Q682.417 23.1654 679.726 25.6827 Q677.064 28.2001 676.659 32.7718 L695.641 32.7429 Z" fill="#000000" fill-rule="nonzero" fill-opacity="1" /><path clip-path="url(#clip880)" d="M737.423 34.3054 L737.423 36.9095 L712.944 36.9095 Q713.291 42.4072 716.242 45.3007 Q719.223 48.1653 724.518 48.1653 Q727.585 48.1653 730.45 47.4129 Q733.343 46.6606 736.179 45.156 L736.179 50.1907 Q733.314 51.406 730.305 52.0425 Q727.296 52.6791 724.2 52.6791 Q716.445 52.6791 711.902 48.1653 Q707.388 43.6514 707.388 35.9547 Q707.388 27.9975 711.671 23.339 Q715.982 18.6515 723.274 18.6515 Q729.813 18.6515 733.603 22.876 Q737.423 27.0716 737.423 34.3054 M732.099 32.7429 Q732.041 28.3737 729.639 25.7695 Q727.267 23.1654 723.331 23.1654 Q718.875 23.1654 716.185 25.6827 Q713.523 28.2001 713.117 32.7718 L732.099 32.7429 Z" fill="#000000" fill-rule="nonzero" fill-opacity="1" /><path clip-path="url(#clip880)" d="M767.486 24.3517 L767.486 6.81709 L772.81 6.81709 L772.81 51.84 L767.486 51.84 L767.486 46.9789 Q765.808 49.8724 763.233 51.2902 Q760.687 52.6791 757.099 52.6791 Q751.225 52.6791 747.521 47.9916 Q743.846 43.3042 743.846 35.6653 Q743.846 28.0265 747.521 23.339 Q751.225 18.6515 757.099 18.6515 Q760.687 18.6515 763.233 20.0693 Q765.808 21.4582 767.486 24.3517 M749.344 35.6653 Q749.344 41.5391 751.746 44.8956 Q754.176 48.2231 758.401 48.2231 Q762.625 48.2231 765.056 44.8956 Q767.486 41.5391 767.486 35.6653 Q767.486 29.7915 765.056 26.464 Q762.625 23.1075 758.401 23.1075 Q754.176 23.1075 751.746 26.464 Q749.344 29.7915 749.344 35.6653 Z" fill="#000000" fill-rule="nonzero" fill-opacity="1" /><path clip-path="url(#clip880)" d="M823.273 20.3876 L823.273 25.4223 Q821.016 24.2649 818.586 23.6862 Q816.155 23.1075 813.551 23.1075 Q809.587 23.1075 807.59 24.3228 Q805.623 25.5381 805.623 27.9686 Q805.623 29.8204 807.041 30.891 Q808.458 31.9327 812.741 32.8876 L814.564 33.2926 Q820.235 34.5079 822.608 36.7359 Q825.009 38.935 825.009 42.8991 Q825.009 47.4129 821.421 50.046 Q817.862 52.6791 811.612 52.6791 Q809.008 52.6791 806.172 52.1583 Q803.366 51.6664 800.241 50.6537 L800.241 45.156 Q803.192 46.6896 806.057 47.4708 Q808.921 48.2231 811.728 48.2231 Q815.49 48.2231 817.515 46.95 Q819.54 45.6479 819.54 43.3042 Q819.54 41.134 818.065 39.9766 Q816.618 38.8192 811.67 37.7486 L809.818 37.3146 Q804.87 36.273 802.671 34.1318 Q800.472 31.9616 800.472 28.2001 Q800.472 23.6283 803.713 21.1399 Q806.954 18.6515 812.914 18.6515 Q815.866 18.6515 818.47 19.0855 Q821.074 19.5196 823.273 20.3876 Z" fill="#000000" fill-rule="nonzero" fill-opacity="1" /><path clip-path="url(#clip880)" d="M861.207 34.3054 L861.207 36.9095 L836.728 36.9095 Q837.075 42.4072 840.026 45.3007 Q843.007 48.1653 848.302 48.1653 Q851.369 48.1653 854.234 47.4129 Q857.127 46.6606 859.963 45.156 L859.963 50.1907 Q857.098 51.406 854.089 52.0425 Q851.08 52.6791 847.984 52.6791 Q840.229 52.6791 835.686 48.1653 Q831.172 43.6514 831.172 35.9547 Q831.172 27.9975 835.455 23.339 Q839.766 18.6515 847.058 18.6515 Q853.597 18.6515 857.387 22.876 Q861.207 27.0716 861.207 34.3054 M855.883 32.7429 Q855.825 28.3737 853.423 25.7695 Q851.051 23.1654 847.116 23.1654 Q842.66 23.1654 839.969 25.6827 Q837.307 28.2001 836.901 32.7718 L855.883 32.7429 Z" fill="#000000" fill-rule="nonzero" fill-opacity="1" /><path clip-path="url(#clip880)" d="M896.884 32.2799 L896.884 51.84 L891.56 51.84 L891.56 32.4535 Q891.56 27.8529 889.766 25.567 Q887.972 23.2811 884.384 23.2811 Q880.073 23.2811 877.584 26.03 Q875.096 28.7788 875.096 33.5241 L875.096 51.84 L869.743 51.84 L869.743 19.4328 L875.096 19.4328 L875.096 24.4675 Q877.005 21.545 879.581 20.0983 Q882.185 18.6515 885.57 18.6515 Q891.155 18.6515 894.019 22.1237 Q896.884 25.567 896.884 32.2799 Z" fill="#000000" fill-rule="nonzero" fill-opacity="1" /><path clip-path="url(#clip880)" d="M928.163 20.3876 L928.163 25.4223 Q925.906 24.2649 923.475 23.6862 Q921.045 23.1075 918.44 23.1075 Q914.476 23.1075 912.48 24.3228 Q910.512 25.5381 910.512 27.9686 Q910.512 29.8204 911.93 30.891 Q913.348 31.9327 917.63 32.8876 L919.453 33.2926 Q925.124 34.5079 927.497 36.7359 Q929.899 38.935 929.899 42.8991 Q929.899 47.4129 926.311 50.046 Q922.752 52.6791 916.502 52.6791 Q913.898 52.6791 911.062 52.1583 Q908.255 51.6664 905.13 50.6537 L905.13 45.156 Q908.082 46.6896 910.946 47.4708 Q913.811 48.2231 916.617 48.2231 Q920.379 48.2231 922.404 46.95 Q924.43 45.6479 924.43 43.3042 Q924.43 41.134 922.954 39.9766 Q921.508 38.8192 916.56 37.7486 L914.708 37.3146 Q909.76 36.273 907.561 34.1318 Q905.362 31.9616 905.362 28.2001 Q905.362 23.6283 908.602 21.1399 Q911.843 18.6515 917.804 18.6515 Q920.755 18.6515 923.359 19.0855 Q925.964 19.5196 928.163 20.3876 Z" fill="#000000" fill-rule="nonzero" fill-opacity="1" /><path clip-path="url(#clip880)" d="M938.377 19.4328 L943.701 19.4328 L943.701 51.84 L938.377 51.84 L938.377 19.4328 M938.377 6.81709 L943.701 6.81709 L943.701 13.559 L938.377 13.559 L938.377 6.81709 Z" fill="#000000" fill-rule="nonzero" fill-opacity="1" /><path clip-path="url(#clip880)" d="M960.107 10.2314 L960.107 19.4328 L971.073 19.4328 L971.073 23.5705 L960.107 23.5705 L960.107 41.163 Q960.107 45.1271 961.177 46.2555 Q962.277 47.384 965.604 47.384 L971.073 47.384 L971.073 51.84 L965.604 51.84 Q959.441 51.84 957.098 49.5541 Q954.754 47.2393 954.754 41.163 L954.754 23.5705 L950.848 23.5705 L950.848 19.4328 L954.754 19.4328 L954.754 10.2314 L960.107 10.2314 Z" fill="#000000" fill-rule="nonzero" fill-opacity="1" /><path clip-path="url(#clip880)" d="M978.075 19.4328 L983.4 19.4328 L983.4 51.84 L978.075 51.84 L978.075 19.4328 M978.075 6.81709 L983.4 6.81709 L983.4 13.559 L978.075 13.559 L978.075 6.81709 Z" fill="#000000" fill-rule="nonzero" fill-opacity="1" /><path clip-path="url(#clip880)" d="M990.72 19.4328 L996.362 19.4328 L1006.49 46.6317 L1016.62 19.4328 L1022.26 19.4328 L1010.11 51.84 L1002.87 51.84 L990.72 19.4328 Z" fill="#000000" fill-rule="nonzero" fill-opacity="1" /><path clip-path="url(#clip880)" d="M1029.61 19.4328 L1034.93 19.4328 L1034.93 51.84 L1029.61 51.84 L1029.61 19.4328 M1029.61 6.81709 L1034.93 6.81709 L1034.93 13.559 L1029.61 13.559 L1029.61 6.81709 Z" fill="#000000" fill-rule="nonzero" fill-opacity="1" /><path clip-path="url(#clip880)" d="M1051.34 10.2314 L1051.34 19.4328 L1062.31 19.4328 L1062.31 23.5705 L1051.34 23.5705 L1051.34 41.163 Q1051.34 45.1271 1052.41 46.2555 Q1053.51 47.384 1056.84 47.384 L1062.31 47.384 L1062.31 51.84 L1056.84 51.84 Q1050.67 51.84 1048.33 49.5541 Q1045.99 47.2393 1045.99 41.163 L1045.99 23.5705 L1042.08 23.5705 L1042.08 19.4328 L1045.99 19.4328 L1045.99 10.2314 L1051.34 10.2314 Z" fill="#000000" fill-rule="nonzero" fill-opacity="1" /><path clip-path="url(#clip880)" d="M1082.79 54.8492 Q1080.53 60.6362 1078.39 62.4013 Q1076.25 64.1663 1072.66 64.1663 L1068.41 64.1663 L1068.41 59.7103 L1071.54 59.7103 Q1073.73 59.7103 1074.95 58.6687 Q1076.17 57.627 1077.64 53.7497 L1078.6 51.3192 L1065.49 19.4328 L1071.13 19.4328 L1081.26 44.7799 L1091.39 19.4328 L1097.03 19.4328 L1082.79 54.8492 Z" fill="#000000" fill-rule="nonzero" fill-opacity="1" /><path clip-path="url(#clip880)" d="M1119.39 19.4328 L1125.04 19.4328 L1135.16 46.6317 L1145.29 19.4328 L1150.93 19.4328 L1138.78 51.84 L1131.55 51.84 L1119.39 19.4328 Z" fill="#000000" fill-rule="nonzero" fill-opacity="1" /><path clip-path="url(#clip880)" d="M1178.94 20.3876 L1178.94 25.4223 Q1176.69 24.2649 1174.26 23.6862 Q1171.82 23.1075 1169.22 23.1075 Q1165.26 23.1075 1163.26 24.3228 Q1161.29 25.5381 1161.29 27.9686 Q1161.29 29.8204 1162.71 30.891 Q1164.13 31.9327 1168.41 32.8876 L1170.23 33.2926 Q1175.9 34.5079 1178.28 36.7359 Q1180.68 38.935 1180.68 42.8991 Q1180.68 47.4129 1177.09 50.046 Q1173.53 52.6791 1167.28 52.6791 Q1164.68 52.6791 1161.84 52.1583 Q1159.04 51.6664 1155.91 50.6537 L1155.91 45.156 Q1158.86 46.6896 1161.73 47.4708 Q1164.59 48.2231 1167.4 48.2231 Q1171.16 48.2231 1173.18 46.95 Q1175.21 45.6479 1175.21 43.3042 Q1175.21 41.134 1173.73 39.9766 Q1172.29 38.8192 1167.34 37.7486 L1165.49 37.3146 Q1160.54 36.273 1158.34 34.1318 Q1156.14 31.9616 1156.14 28.2001 Q1156.14 23.6283 1159.38 21.1399 Q1162.62 18.6515 1168.58 18.6515 Q1171.54 18.6515 1174.14 19.0855 Q1176.74 19.5196 1178.94 20.3876 Z" fill="#000000" fill-rule="nonzero" fill-opacity="1" /><path clip-path="url(#clip880)" d="M1214.07 31.2093 L1214.07 47.0368 L1223.44 47.0368 Q1228.16 47.0368 1230.42 45.0981 Q1232.7 43.1306 1232.7 39.1086 Q1232.7 35.0577 1230.42 33.148 Q1228.16 31.2093 1223.44 31.2093 L1214.07 31.2093 M1214.07 13.4432 L1214.07 26.464 L1222.72 26.464 Q1227 26.464 1229.09 24.8726 Q1231.2 23.2522 1231.2 19.9536 Q1231.2 16.6839 1229.09 15.0636 Q1227 13.4432 1222.72 13.4432 L1214.07 13.4432 M1208.22 8.64 L1223.16 8.64 Q1229.84 8.64 1233.46 11.4178 Q1237.07 14.1955 1237.07 19.317 Q1237.07 23.2811 1235.22 25.6249 Q1233.37 27.9686 1229.78 28.5473 Q1234.09 29.4732 1236.47 32.4246 Q1238.87 35.347 1238.87 39.7452 Q1238.87 45.5322 1234.93 48.6861 Q1231 51.84 1223.73 51.84 L1208.22 51.84 L1208.22 8.64 Z" fill="#000000" fill-rule="nonzero" fill-opacity="1" /><path clip-path="url(#clip880)" d="M1276.37 34.3054 L1276.37 36.9095 L1251.89 36.9095 Q1252.23 42.4072 1255.19 45.3007 Q1258.17 48.1653 1263.46 48.1653 Q1266.53 48.1653 1269.39 47.4129 Q1272.29 46.6606 1275.12 45.156 L1275.12 50.1907 Q1272.26 51.406 1269.25 52.0425 Q1266.24 52.6791 1263.14 52.6791 Q1255.39 52.6791 1250.85 48.1653 Q1246.33 43.6514 1246.33 35.9547 Q1246.33 27.9975 1250.61 23.339 Q1254.93 18.6515 1262.22 18.6515 Q1268.76 18.6515 1272.55 22.876 Q1276.37 27.0716 1276.37 34.3054 M1271.04 32.7429 Q1270.98 28.3737 1268.58 25.7695 Q1266.21 23.1654 1262.28 23.1654 Q1257.82 23.1654 1255.13 25.6827 Q1252.47 28.2001 1252.06 32.7718 L1271.04 32.7429 Z" fill="#000000" fill-rule="nonzero" fill-opacity="1" /><path clip-path="url(#clip880)" d="M1303.88 24.4096 Q1302.99 23.8888 1301.92 23.6573 Q1300.87 23.3969 1299.6 23.3969 Q1295.09 23.3969 1292.66 26.3482 Q1290.26 29.2707 1290.26 34.7683 L1290.26 51.84 L1284.9 51.84 L1284.9 19.4328 L1290.26 19.4328 L1290.26 24.4675 Q1291.93 21.5161 1294.62 20.0983 Q1297.32 18.6515 1301.16 18.6515 Q1301.71 18.6515 1302.38 18.7383 Q1303.04 18.7962 1303.86 18.9409 L1303.88 24.4096 Z" fill="#000000" fill-rule="nonzero" fill-opacity="1" /><path clip-path="url(#clip880)" d="M1329.75 35.2602 Q1329.75 29.4732 1327.35 26.2904 Q1324.98 23.1075 1320.67 23.1075 Q1316.38 23.1075 1313.98 26.2904 Q1311.61 29.4732 1311.61 35.2602 Q1311.61 41.0183 1313.98 44.2012 Q1316.38 47.384 1320.67 47.384 Q1324.98 47.384 1327.35 44.2012 Q1329.75 41.0183 1329.75 35.2602 M1335.08 47.818 Q1335.08 56.0934 1331.4 60.1154 Q1327.73 64.1663 1320.15 64.1663 Q1317.34 64.1663 1314.85 63.7323 Q1312.36 63.3272 1310.02 62.4592 L1310.02 57.2798 Q1312.36 58.5529 1314.65 59.1606 Q1316.93 59.7682 1319.31 59.7682 Q1324.54 59.7682 1327.15 57.0194 Q1329.75 54.2995 1329.75 48.7729 L1329.75 46.1398 Q1328.1 49.0044 1325.53 50.4222 Q1322.95 51.84 1319.36 51.84 Q1313.4 51.84 1309.76 47.2972 Q1306.11 42.7544 1306.11 35.2602 Q1306.11 27.7371 1309.76 23.1943 Q1313.4 18.6515 1319.36 18.6515 Q1322.95 18.6515 1325.53 20.0693 Q1328.1 21.4872 1329.75 24.3517 L1329.75 19.4328 L1335.08 19.4328 L1335.08 47.818 Z" fill="#000000" fill-rule="nonzero" fill-opacity="1" /><circle clip-path="url(#clip882)" cx="702.952" cy="463.837" r="14.4" fill="#ff8c00" fill-rule="evenodd" fill-opacity="0.8" stroke="none"/>
<circle clip-path="url(#clip882)" cx="596.423" cy="263.689" r="14.4" fill="#ff8c00" fill-rule="evenodd" fill-opacity="0.8" stroke="none"/>
<circle clip-path="url(#clip882)" cx="444.239" cy="263.689" r="14.4" fill="#ff8c00" fill-rule="evenodd" fill-opacity="0.8" stroke="none"/>
<circle clip-path="url(#clip882)" cx="596.423" cy="397.121" r="14.4" fill="#ff8c00" fill-rule="evenodd" fill-opacity="0.8" stroke="none"/>
<circle clip-path="url(#clip882)" cx="494.967" cy="230.331" r="14.4" fill="#ff8c00" fill-rule="evenodd" fill-opacity="0.8" stroke="none"/>
<circle clip-path="url(#clip882)" cx="626.86" cy="363.763" r="14.4" fill="#ff8c00" fill-rule="evenodd" fill-opacity="0.8" stroke="none"/>
<circle clip-path="url(#clip882)" cx="596.423" cy="463.837" r="14.4" fill="#ff8c00" fill-rule="evenodd" fill-opacity="0.8" stroke="none"/>
<polyline clip-path="url(#clip882)" style="stroke:#ff8c00; stroke-linecap:round; stroke-linejoin:round; stroke-width:8; stroke-opacity:1; fill:none" points="444.239,232.594 449.519,237.147 454.799,241.701 460.079,246.254 465.359,250.808 470.639,255.361 475.918,259.915 481.198,264.468 486.478,269.022 491.758,273.575 497.038,278.129 502.318,282.682 507.598,287.236 512.877,291.789 518.157,296.343 523.437,300.896 528.717,305.45 533.997,310.003 539.277,314.557 544.556,319.11 549.836,323.664 555.116,328.217 560.396,332.771 565.676,337.324 570.956,341.878 576.236,346.431 581.515,350.985 586.795,355.538 592.075,360.092 597.355,364.645 602.635,369.199 607.915,373.752 613.195,378.306 618.474,382.859 623.754,387.413 629.034,391.966 634.314,396.52 639.594,401.073 644.874,405.627 650.154,410.18 655.433,414.734 660.713,419.287 665.993,423.841 671.273,428.394 676.553,432.947 681.833,437.501 687.113,442.054 692.392,446.608 697.672,451.161 702.952,455.715 "/>
<circle clip-path="url(#clip882)" cx="634.469" cy="397.121" r="14.4" fill="#db143d" fill-rule="evenodd" fill-opacity="0.8" stroke="none"/>
<circle clip-path="url(#clip882)" cx="1091.02" cy="630.628" r="14.4" fill="#db143d" fill-rule="evenodd" fill-opacity="0.8" stroke="none"/>
<circle clip-path="url(#clip882)" cx="596.423" cy="530.554" r="14.4" fill="#db143d" fill-rule="evenodd" fill-opacity="0.8" stroke="none"/>
<circle clip-path="url(#clip882)" cx="368.147" cy="363.763" r="14.4" fill="#db143d" fill-rule="evenodd" fill-opacity="0.8" stroke="none"/>
<circle clip-path="url(#clip882)" cx="723.243" cy="563.912" r="14.4" fill="#db143d" fill-rule="evenodd" fill-opacity="0.8" stroke="none"/>
<circle clip-path="url(#clip882)" cx="1255.89" cy="663.986" r="14.4" fill="#db143d" fill-rule="evenodd" fill-opacity="0.8" stroke="none"/>
<polyline clip-path="url(#clip882)" style="stroke:#db143d; stroke-linecap:round; stroke-linejoin:round; stroke-width:8; stroke-opacity:1; fill:none" points="368.147,390.434 386.264,396.379 404.382,402.324 422.499,408.27 440.616,414.215 458.733,420.16 476.85,426.105 494.967,432.05 513.084,437.996 531.202,443.941 549.319,449.886 567.436,455.831 585.553,461.777 603.67,467.722 621.787,473.667 639.904,479.612 658.022,485.557 676.139,491.503 694.256,497.448 712.373,503.393 730.49,509.338 748.607,515.283 766.724,521.229 784.842,527.174 802.959,533.119 821.076,539.064 839.193,545.009 857.31,550.955 875.427,556.9 893.545,562.845 911.662,568.79 929.779,574.735 947.896,580.681 966.013,586.626 984.13,592.571 1002.25,598.516 1020.36,604.461 1038.48,610.407 1056.6,616.352 1074.72,622.297 1092.83,628.242 1110.95,634.187 1129.07,640.133 1147.18,646.078 1165.3,652.023 1183.42,657.968 1201.54,663.913 1219.65,669.859 1237.77,675.804 1255.89,681.749 "/>
<path clip-path="url(#clip880)" d="M950.873 679.342 L1251.15 679.342 L1251.15 523.822 L950.873 523.822  Z" fill="#ffffff" fill-rule="evenodd" fill-opacity="1"/>
<polyline clip-path="url(#clip880)" style="stroke:#000000; stroke-linecap:round; stroke-linejoin:round; stroke-width:4; stroke-opacity:1; fill:none" points="950.873,679.342 1251.15,679.342 1251.15,523.822 950.873,523.822 950.873,679.342 "/>
<circle clip-path="url(#clip880)" cx="992.695" cy="575.662" r="23.04" fill="#ff8c00" fill-rule="evenodd" fill-opacity="0.8" stroke="none"/>
<path clip-path="url(#clip880)" d="M1034.52 558.382 L1039.19 558.382 L1039.19 572.548 L1056.18 572.548 L1056.18 558.382 L1060.86 558.382 L1060.86 592.942 L1056.18 592.942 L1056.18 576.483 L1039.19 576.483 L1039.19 592.942 L1034.52 592.942 L1034.52 558.382 Z" fill="#000000" fill-rule="nonzero" fill-opacity="1" /><path clip-path="url(#clip880)" d="M1070.17 558.382 L1090.03 558.382 L1090.03 562.317 L1074.84 562.317 L1074.84 572.502 L1088.55 572.502 L1088.55 576.437 L1074.84 576.437 L1074.84 592.942 L1070.17 592.942 L1070.17 558.382 Z" fill="#000000" fill-rule="nonzero" fill-opacity="1" /><path clip-path="url(#clip880)" d="M1122.55 556.969 Q1119.45 562.294 1117.94 567.502 Q1116.44 572.71 1116.44 578.057 Q1116.44 583.405 1117.94 588.659 Q1119.47 593.891 1122.55 599.191 L1118.85 599.191 Q1115.37 593.752 1113.64 588.497 Q1111.92 583.242 1111.92 578.057 Q1111.92 572.895 1113.64 567.664 Q1115.35 562.432 1118.85 556.969 L1122.55 556.969 Z" fill="#000000" fill-rule="nonzero" fill-opacity="1" /><path clip-path="url(#clip880)" d="M1152.36 577.293 L1152.36 592.942 L1148.11 592.942 L1148.11 577.432 Q1148.11 573.752 1146.67 571.923 Q1145.23 570.094 1142.36 570.094 Q1138.92 570.094 1136.92 572.293 Q1134.93 574.493 1134.93 578.289 L1134.93 592.942 L1130.65 592.942 L1130.65 567.016 L1134.93 567.016 L1134.93 571.043 Q1136.46 568.706 1138.52 567.548 Q1140.61 566.391 1143.31 566.391 Q1147.78 566.391 1150.07 569.168 Q1152.36 571.923 1152.36 577.293 Z" fill="#000000" fill-rule="nonzero" fill-opacity="1" /><path clip-path="url(#clip880)" d="M1161.42 571.414 L1191.09 571.414 L1191.09 575.303 L1161.42 575.303 L1161.42 571.414 M1161.42 580.858 L1191.09 580.858 L1191.09 584.793 L1161.42 584.793 L1161.42 580.858 Z" fill="#000000" fill-rule="nonzero" fill-opacity="1" /><path clip-path="url(#clip880)" d="M1200 558.382 L1222.23 558.382 L1222.23 560.372 L1209.68 592.942 L1204.79 592.942 L1216.6 562.317 L1200 562.317 L1200 558.382 Z" fill="#000000" fill-rule="nonzero" fill-opacity="1" /><path clip-path="url(#clip880)" d="M1230.07 556.969 L1233.78 556.969 Q1237.25 562.432 1238.96 567.664 Q1240.7 572.895 1240.7 578.057 Q1240.7 583.242 1238.96 588.497 Q1237.25 593.752 1233.78 599.191 L1230.07 599.191 Q1233.15 593.891 1234.66 588.659 Q1236.18 583.405 1236.18 578.057 Q1236.18 572.71 1234.66 567.502 Q1233.15 562.294 1230.07 556.969 Z" fill="#000000" fill-rule="nonzero" fill-opacity="1" /><circle clip-path="url(#clip880)" cx="992.695" cy="627.502" r="23.04" fill="#db143d" fill-rule="evenodd" fill-opacity="0.8" stroke="none"/>
<path clip-path="url(#clip880)" d="M1034.52 610.222 L1039.19 610.222 L1039.19 640.846 L1056.02 640.846 L1056.02 644.782 L1034.52 644.782 L1034.52 610.222 Z" fill="#000000" fill-rule="nonzero" fill-opacity="1" /><path clip-path="url(#clip880)" d="M1060.93 610.222 L1080.79 610.222 L1080.79 614.157 L1065.61 614.157 L1065.61 624.342 L1079.31 624.342 L1079.31 628.277 L1065.61 628.277 L1065.61 644.782 L1060.93 644.782 L1060.93 610.222 Z" fill="#000000" fill-rule="nonzero" fill-opacity="1" /><path clip-path="url(#clip880)" d="M1113.31 608.809 Q1110.21 614.134 1108.71 619.342 Q1107.2 624.55 1107.2 629.897 Q1107.2 635.245 1108.71 640.499 Q1110.23 645.731 1113.31 651.031 L1109.61 651.031 Q1106.14 645.592 1104.4 640.337 Q1102.69 635.082 1102.69 629.897 Q1102.69 624.735 1104.4 619.504 Q1106.11 614.272 1109.61 608.809 L1113.31 608.809 Z" fill="#000000" fill-rule="nonzero" fill-opacity="1" /><path clip-path="url(#clip880)" d="M1143.13 629.133 L1143.13 644.782 L1138.87 644.782 L1138.87 629.272 Q1138.87 625.592 1137.43 623.763 Q1136 621.934 1133.13 621.934 Q1129.68 621.934 1127.69 624.133 Q1125.7 626.333 1125.7 630.129 L1125.7 644.782 L1121.42 644.782 L1121.42 618.856 L1125.7 618.856 L1125.7 622.883 Q1127.23 620.546 1129.29 619.388 Q1131.37 618.231 1134.08 618.231 Q1138.55 618.231 1140.84 621.008 Q1143.13 623.763 1143.13 629.133 Z" fill="#000000" fill-rule="nonzero" fill-opacity="1" /><path clip-path="url(#clip880)" d="M1152.18 623.254 L1181.85 623.254 L1181.85 627.143 L1152.18 627.143 L1152.18 623.254 M1152.18 632.698 L1181.85 632.698 L1181.85 636.633 L1152.18 636.633 L1152.18 632.698 Z" fill="#000000" fill-rule="nonzero" fill-opacity="1" /><path clip-path="url(#clip880)" d="M1202.53 625.638 Q1199.38 625.638 1197.53 627.791 Q1195.7 629.944 1195.7 633.694 Q1195.7 637.42 1197.53 639.596 Q1199.38 641.749 1202.53 641.749 Q1205.67 641.749 1207.5 639.596 Q1209.35 637.42 1209.35 633.694 Q1209.35 629.944 1207.5 627.791 Q1205.67 625.638 1202.53 625.638 M1211.81 610.985 L1211.81 615.245 Q1210.05 614.411 1208.24 613.971 Q1206.46 613.532 1204.7 613.532 Q1200.07 613.532 1197.62 616.657 Q1195.19 619.782 1194.84 626.101 Q1196.21 624.087 1198.27 623.022 Q1200.33 621.934 1202.8 621.934 Q1208.01 621.934 1211.02 625.106 Q1214.05 628.254 1214.05 633.694 Q1214.05 639.018 1210.91 642.235 Q1207.76 645.453 1202.53 645.453 Q1196.53 645.453 1193.36 640.869 Q1190.19 636.263 1190.19 627.536 Q1190.19 619.342 1194.08 614.481 Q1197.97 609.597 1204.52 609.597 Q1206.28 609.597 1208.06 609.944 Q1209.86 610.291 1211.81 610.985 Z" fill="#000000" fill-rule="nonzero" fill-opacity="1" /><path clip-path="url(#clip880)" d="M1220.84 608.809 L1224.54 608.809 Q1228.01 614.272 1229.73 619.504 Q1231.46 624.735 1231.46 629.897 Q1231.46 635.082 1229.73 640.337 Q1228.01 645.592 1224.54 651.031 L1220.84 651.031 Q1223.91 645.731 1225.42 640.499 Q1226.95 635.245 1226.95 629.897 Q1226.95 624.55 1225.42 619.342 Q1223.91 614.134 1220.84 608.809 Z" fill="#000000" fill-rule="nonzero" fill-opacity="1" /><path clip-path="url(#clip880)" d="M383.332 225.667 Q382.615 225.25 381.758 225.065 Q380.925 224.856 379.906 224.856 Q376.295 224.856 374.351 227.217 Q372.43 229.555 372.43 233.954 L372.43 247.611 L368.147 247.611 L368.147 221.685 L372.43 221.685 L372.43 225.713 Q373.772 223.352 375.925 222.218 Q378.078 221.06 381.156 221.06 Q381.596 221.06 382.129 221.13 Q382.661 221.176 383.309 221.292 L383.332 225.667 Z" fill="#000000" fill-rule="nonzero" fill-opacity="1" /><path clip-path="url(#clip880)" d="M388.355 226.083 L418.031 226.083 L418.031 229.972 L388.355 229.972 L388.355 226.083 M388.355 235.528 L418.031 235.528 L418.031 239.463 L388.355 239.463 L388.355 235.528 Z" fill="#000000" fill-rule="nonzero" fill-opacity="1" /><path clip-path="url(#clip880)" d="M425.369 232.727 L437.846 232.727 L437.846 236.523 L425.369 236.523 L425.369 232.727 Z" fill="#000000" fill-rule="nonzero" fill-opacity="1" /><path clip-path="url(#clip880)" d="M455.23 216.13 Q451.619 216.13 449.79 219.694 Q447.985 223.236 447.985 230.366 Q447.985 237.472 449.79 241.037 Q451.619 244.579 455.23 244.579 Q458.864 244.579 460.67 241.037 Q462.499 237.472 462.499 230.366 Q462.499 223.236 460.67 219.694 Q458.864 216.13 455.23 216.13 M455.23 212.426 Q461.04 212.426 464.096 217.032 Q467.174 221.616 467.174 230.366 Q467.174 239.092 464.096 243.699 Q461.04 248.282 455.23 248.282 Q449.42 248.282 446.341 243.699 Q443.286 239.092 443.286 230.366 Q443.286 221.616 446.341 217.032 Q449.42 212.426 455.23 212.426 Z" fill="#000000" fill-rule="nonzero" fill-opacity="1" /><path clip-path="url(#clip880)" d="M475.392 241.731 L480.276 241.731 L480.276 247.611 L475.392 247.611 L475.392 241.731 Z" fill="#000000" fill-rule="nonzero" fill-opacity="1" /><path clip-path="url(#clip880)" d="M500.461 231.199 Q497.128 231.199 495.207 232.981 Q493.309 234.764 493.309 237.889 Q493.309 241.014 495.207 242.796 Q497.128 244.579 500.461 244.579 Q503.795 244.579 505.716 242.796 Q507.637 240.991 507.637 237.889 Q507.637 234.764 505.716 232.981 Q503.818 231.199 500.461 231.199 M495.785 229.208 Q492.776 228.467 491.086 226.407 Q489.42 224.347 489.42 221.384 Q489.42 217.241 492.36 214.833 Q495.322 212.426 500.461 212.426 Q505.623 212.426 508.563 214.833 Q511.503 217.241 511.503 221.384 Q511.503 224.347 509.813 226.407 Q508.146 228.467 505.16 229.208 Q508.54 229.995 510.415 232.287 Q512.313 234.579 512.313 237.889 Q512.313 242.912 509.234 245.597 Q506.179 248.282 500.461 248.282 Q494.744 248.282 491.665 245.597 Q488.61 242.912 488.61 237.889 Q488.61 234.579 490.508 232.287 Q492.406 229.995 495.785 229.208 M494.072 221.824 Q494.072 224.509 495.739 226.014 Q497.429 227.518 500.461 227.518 Q503.471 227.518 505.16 226.014 Q506.873 224.509 506.873 221.824 Q506.873 219.139 505.16 217.634 Q503.471 216.13 500.461 216.13 Q497.429 216.13 495.739 217.634 Q494.072 219.139 494.072 221.824 Z" fill="#000000" fill-rule="nonzero" fill-opacity="1" /><path clip-path="url(#clip880)" d="M521.433 243.676 L529.072 243.676 L529.072 217.31 L520.762 218.977 L520.762 214.718 L529.026 213.051 L533.702 213.051 L533.702 243.676 L541.341 243.676 L541.341 247.611 L521.433 247.611 L521.433 243.676 Z" fill="#000000" fill-rule="nonzero" fill-opacity="1" /></svg>
