<?xml version="1.0" encoding="utf-8"?>
<svg xmlns="http://www.w3.org/2000/svg" xmlns:xlink="http://www.w3.org/1999/xlink" width="300" height="220" viewBox="0 0 1200 880">
<defs>
  <clipPath id="clip660">
    <rect x="0" y="0" width="1200" height="880"/>
  </clipPath>
</defs>
<path clip-path="url(#clip660)" d="M0 880 L1200 880 L1200 1.13687e-13 L0 1.13687e-13  Z" fill="#ffffff" fill-rule="evenodd" fill-opacity="1"/>
<defs>
  <clipPath id="clip661">
    <rect x="340" y="253" width="729" height="446"/>
  </clipPath>
</defs>
<path clip-path="url(#clip660)" d="M350.688 532.211 L1042.52 532.211 L1042.52 220.748 L350.688 220.748  Z" fill="#ffffff" fill-rule="evenodd" fill-opacity="1"/>
<defs>
  <clipPath id="clip662">
    <rect x="350" y="220" width="693" height="312"/>
  </clipPath>
</defs>
<polyline clip-path="url(#clip662)" style="stroke:#000000; stroke-linecap:round; stroke-linejoin:round; stroke-width:2; stroke-opacity:0.1; fill:none" points="370.268,532.211 370.268,220.748 "/>
<polyline clip-path="url(#clip662)" style="stroke:#000000; stroke-linecap:round; stroke-linejoin:round; stroke-width:2; stroke-opacity:0.1; fill:none" points="587.825,532.211 587.825,220.748 "/>
<polyline clip-path="url(#clip662)" style="stroke:#000000; stroke-linecap:round; stroke-linejoin:round; stroke-width:2; stroke-opacity:0.1; fill:none" points="805.382,532.211 805.382,220.748 "/>
<polyline clip-path="url(#clip662)" style="stroke:#000000; stroke-linecap:round; stroke-linejoin:round; stroke-width:2; stroke-opacity:0.1; fill:none" points="1022.94,532.211 1022.94,220.748 "/>
<polyline clip-path="url(#clip662)" style="stroke:#000000; stroke-linecap:round; stroke-linejoin:round; stroke-width:2; stroke-opacity:0.1; fill:none" points="350.688,531.402 1042.52,531.402 "/>
<polyline clip-path="url(#clip662)" style="stroke:#000000; stroke-linecap:round; stroke-linejoin:round; stroke-width:2; stroke-opacity:0.1; fill:none" points="350.688,459.364 1042.52,459.364 "/>
<polyline clip-path="url(#clip662)" style="stroke:#000000; stroke-linecap:round; stroke-linejoin:round; stroke-width:2; stroke-opacity:0.1; fill:none" points="350.688,387.325 1042.52,387.325 "/>
<polyline clip-path="url(#clip662)" style="stroke:#000000; stroke-linecap:round; stroke-linejoin:round; stroke-width:2; stroke-opacity:0.1; fill:none" points="350.688,315.287 1042.52,315.287 "/>
<polyline clip-path="url(#clip662)" style="stroke:#000000; stroke-linecap:round; stroke-linejoin:round; stroke-width:2; stroke-opacity:0.1; fill:none" points="350.688,243.249 1042.52,243.249 "/>
<polyline clip-path="url(#clip660)" style="stroke:#000000; stroke-linecap:round; stroke-linejoin:round; stroke-width:4; stroke-opacity:1; fill:none" points="350.688,532.211 1042.52,532.211 "/>
<polyline clip-path="url(#clip660)" style="stroke:#000000; stroke-linecap:round; stroke-linejoin:round; stroke-width:4; stroke-opacity:1; fill:none" points="370.268,532.211 370.268,513.314 "/>
<polyline clip-path="url(#clip660)" style="stroke:#000000; stroke-linecap:round; stroke-linejoin:round; stroke-width:4; stroke-opacity:1; fill:none" points="587.825,532.211 587.825,513.314 "/>
<polyline clip-path="url(#clip660)" style="stroke:#000000; stroke-linecap:round; stroke-linejoin:round; stroke-width:4; stroke-opacity:1; fill:none" points="805.382,532.211 805.382,513.314 "/>
<polyline clip-path="url(#clip660)" style="stroke:#000000; stroke-linecap:round; stroke-linejoin:round; stroke-width:4; stroke-opacity:1; fill:none" points="1022.94,532.211 1022.94,513.314 "/>
<path clip-path="url(#clip660)" d="M91.1474 661.378 Q89.7168 656.975 87.1027 655.147 Q84.5106 653.312 81.2304 654.377 Q77.9721 655.436 76.9317 658.451 Q75.9133 661.46 77.344 665.863 Q78.7674 670.244 81.3595 672.079 Q83.9736 673.907 87.2318 672.848 Q90.5121 671.782 91.5305 668.774 Q92.5709 665.759 91.1474 661.378 M98.3027 669.616 Q100.348 675.912 98.5468 679.881 Q96.7523 683.871 90.9844 685.746 Q88.8489 686.439 86.8483 686.724 Q84.8549 687.031 82.8571 686.95 L81.5767 683.01 Q83.6746 683.399 85.564 683.296 Q87.4534 683.193 89.2587 682.607 Q93.2434 681.312 94.5452 678.577 Q95.8542 675.864 94.4879 671.659 L93.837 669.655 Q93.2903 672.243 91.6815 673.958 Q90.0726 675.673 87.3428 676.56 Q82.8076 678.034 78.9107 675.479 Q75.0138 672.924 73.1611 667.222 Q71.3013 661.498 72.9521 657.14 Q74.603 652.782 79.1381 651.309 Q81.868 650.422 84.1778 650.864 Q86.4877 651.306 88.4507 653.078 L87.2347 649.335 L91.2854 648.019 L98.3027 669.616 Z" fill="#000000" fill-rule="nonzero" fill-opacity="1" /><path clip-path="url(#clip660)" d="M115.147 644.452 Q114.336 644.278 113.464 644.366 Q112.607 644.426 111.639 644.741 Q108.204 645.856 107.085 648.703 Q105.98 651.52 107.339 655.703 L111.559 668.692 L107.487 670.015 L99.475 645.358 L103.548 644.035 L104.792 647.866 Q105.34 645.205 107.037 643.461 Q108.726 641.695 111.654 640.744 Q112.073 640.608 112.6 640.509 Q113.121 640.389 113.773 640.299 L115.147 644.452 Z" fill="#000000" fill-rule="nonzero" fill-opacity="1" /><path clip-path="url(#clip660)" d="M127.652 639.343 Q124.394 640.401 123.331 643.57 Q122.26 646.717 123.698 651.142 Q125.136 655.567 127.837 657.513 Q130.553 659.429 133.833 658.364 Q137.069 657.312 138.133 654.143 Q139.196 650.974 137.765 646.571 Q136.342 642.19 133.619 640.252 Q130.889 638.291 127.652 639.343 M126.537 635.908 Q131.82 634.191 135.952 636.646 Q140.084 639.1 142.058 645.176 Q144.025 651.231 142.132 655.667 Q140.232 660.081 134.949 661.798 Q129.643 663.522 125.511 661.068 Q121.394 658.584 119.427 652.53 Q117.453 646.454 119.331 642.046 Q121.231 637.632 126.537 635.908 Z" fill="#000000" fill-rule="nonzero" fill-opacity="1" /><path clip-path="url(#clip660)" d="M149.192 645.706 L144.342 630.78 L148.393 629.464 L153.192 644.236 Q154.33 647.736 156.267 649.054 Q158.197 650.35 160.927 649.463 Q164.207 648.397 165.421 645.69 Q166.656 642.977 165.483 639.366 L160.941 625.387 L164.992 624.071 L173.003 648.727 L168.953 650.044 L167.722 646.257 Q166.977 648.982 165.375 650.719 Q163.788 652.427 161.213 653.264 Q156.964 654.645 153.904 652.718 Q150.844 650.792 149.192 645.706 M154.342 626.874 L154.342 626.874 Z" fill="#000000" fill-rule="nonzero" fill-opacity="1" /><path clip-path="url(#clip660)" d="M184.064 641.045 L188.313 654.122 L184.24 655.445 L173.182 621.41 L177.254 620.086 L178.47 623.829 Q179.032 621.212 180.626 619.526 Q182.235 617.811 184.943 616.931 Q189.434 615.472 193.388 618.13 Q197.365 620.781 199.254 626.593 Q201.142 632.405 199.483 636.887 Q197.846 641.361 193.355 642.821 Q190.647 643.701 188.344 643.28 Q186.056 642.831 184.064 641.045 M195.049 627.959 Q193.597 623.49 190.925 621.559 Q188.268 619.599 185.053 620.643 Q181.839 621.688 180.82 624.842 Q179.815 627.968 181.267 632.437 Q182.719 636.906 185.376 638.866 Q188.048 640.797 191.262 639.752 Q194.477 638.708 195.481 635.582 Q196.501 632.428 195.049 627.959 Z" fill="#000000" fill-rule="nonzero" fill-opacity="1" /><path clip-path="url(#clip660)" d="M217.271 603.092 L221.256 615.355 L233.518 611.37 L234.734 615.113 L222.472 619.097 L226.456 631.36 L222.758 632.561 L218.773 620.299 L206.511 624.283 L205.295 620.541 L217.557 616.556 L213.573 604.294 L217.271 603.092 Z" fill="#000000" fill-rule="nonzero" fill-opacity="1" /><path clip-path="url(#clip660)" d="M255.688 595.405 L256.933 599.235 Q254.929 598.913 252.937 599.073 Q250.945 599.234 248.963 599.878 Q245.947 600.858 244.729 602.276 Q243.532 603.687 244.133 605.536 Q244.591 606.945 245.934 607.409 Q247.27 607.851 250.765 607.519 L252.252 607.377 Q256.867 606.899 259.223 608.008 Q261.594 609.087 262.574 612.103 Q263.69 615.538 261.611 618.428 Q259.554 621.311 254.799 622.856 Q252.817 623.5 250.531 623.805 Q248.274 624.124 245.646 624.126 L244.287 619.944 Q246.912 620.381 249.284 620.267 Q251.65 620.131 253.785 619.437 Q256.647 618.507 257.874 617.038 Q259.093 615.547 258.513 613.763 Q257.977 612.112 256.568 611.597 Q255.181 611.074 251.152 611.482 L249.636 611.61 Q245.613 612.04 243.411 610.955 Q241.201 609.847 240.271 606.986 Q239.141 603.507 240.992 600.813 Q242.842 598.118 247.377 596.645 Q249.623 595.915 251.712 595.602 Q253.8 595.288 255.688 595.405 Z" fill="#000000" fill-rule="nonzero" fill-opacity="1" /><path clip-path="url(#clip660)" d="M273.952 611.838 L278.201 624.915 L274.128 626.239 L263.069 592.203 L267.142 590.88 L268.358 594.623 Q268.919 592.006 270.513 590.32 Q272.122 588.605 274.83 587.725 Q279.321 586.265 283.276 588.923 Q287.253 591.574 289.141 597.386 Q291.03 603.198 289.37 607.68 Q287.733 612.155 283.242 613.614 Q280.534 614.494 278.232 614.074 Q275.944 613.625 273.952 611.838 M284.936 598.753 Q283.484 594.284 280.812 592.353 Q278.155 590.393 274.941 591.437 Q271.727 592.481 270.707 595.636 Q269.703 598.761 271.155 603.23 Q272.607 607.699 275.264 609.66 Q277.936 611.59 281.15 610.546 Q284.364 609.502 285.369 606.376 Q286.388 603.222 284.936 598.753 Z" fill="#000000" fill-rule="nonzero" fill-opacity="1" /><path clip-path="url(#clip660)" d="M316.61 587.317 L317.254 589.299 L298.629 595.35 Q300.252 599.447 303.213 600.919 Q306.189 602.362 310.218 601.053 Q312.551 600.294 314.545 599.014 Q316.56 597.726 318.346 595.88 L319.59 599.711 Q317.711 601.344 315.579 602.572 Q313.447 603.8 311.091 604.566 Q305.191 606.483 300.619 604.171 Q296.069 601.853 294.166 595.997 Q292.199 589.943 294.306 585.34 Q296.427 580.708 301.975 578.905 Q306.95 577.288 310.878 579.565 Q314.822 581.813 316.61 587.317 M312.173 587.445 Q311.049 584.135 308.578 582.747 Q306.129 581.352 303.135 582.325 Q299.744 583.427 298.319 586.007 Q296.916 588.581 297.738 592.159 L312.173 587.445 Z" fill="#000000" fill-rule="nonzero" fill-opacity="1" /><path clip-path="url(#clip660)" d="M344.349 578.304 L344.993 580.286 L326.368 586.337 Q327.991 590.434 330.952 591.906 Q333.928 593.349 337.957 592.04 Q340.29 591.282 342.284 590.001 Q344.299 588.713 346.085 586.867 L347.329 590.698 Q345.45 592.331 343.318 593.559 Q341.186 594.787 338.83 595.553 Q332.93 597.47 328.358 595.159 Q323.808 592.84 321.905 586.984 Q319.938 580.93 322.044 576.327 Q324.166 571.695 329.714 569.892 Q334.689 568.275 338.617 570.553 Q342.561 572.8 344.349 578.304 M339.912 578.432 Q338.788 575.122 336.317 573.734 Q333.868 572.339 330.874 573.312 Q327.483 574.414 326.058 576.994 Q324.655 579.568 325.477 583.146 L339.912 578.432 Z" fill="#000000" fill-rule="nonzero" fill-opacity="1" /><path clip-path="url(#clip660)" d="M364.762 563.299 L360.427 549.958 L364.478 548.642 L375.608 582.897 L371.557 584.213 L370.356 580.515 Q369.794 583.131 368.185 584.847 Q366.591 586.533 363.861 587.42 Q359.392 588.872 355.416 586.221 Q351.461 583.563 349.573 577.751 Q347.684 571.939 349.321 567.464 Q350.98 562.982 355.449 561.53 Q358.179 560.643 360.467 561.092 Q362.77 561.512 364.762 563.299 M353.755 576.392 Q355.207 580.861 357.864 582.821 Q360.536 584.752 363.751 583.707 Q366.965 582.663 367.991 579.531 Q369.011 576.376 367.559 571.907 Q366.107 567.438 363.435 565.507 Q360.756 563.554 357.542 564.598 Q354.327 565.643 353.308 568.797 Q352.303 571.923 353.755 576.392 Z" fill="#000000" fill-rule="nonzero" fill-opacity="1" /><path clip-path="url(#clip660)" d="M466.222 592.892 L470.206 605.154 L482.469 601.17 L483.685 604.913 L471.422 608.897 L475.407 621.159 L471.708 622.361 L467.724 610.099 L455.461 614.083 L454.245 610.34 L466.508 606.356 L462.523 594.094 L466.222 592.892 Z" fill="#000000" fill-rule="nonzero" fill-opacity="1" /><path clip-path="url(#clip660)" d="M504.202 588.729 Q503.391 588.555 502.519 588.643 Q501.662 588.703 500.693 589.018 Q497.259 590.133 496.139 592.98 Q495.034 595.797 496.394 599.98 L500.614 612.969 L496.541 614.292 L488.53 589.635 L492.602 588.312 L493.847 592.143 Q494.394 589.482 496.091 587.738 Q497.781 585.972 500.709 585.021 Q501.127 584.885 501.655 584.786 Q502.176 584.666 502.828 584.576 L504.202 588.729 Z" fill="#000000" fill-rule="nonzero" fill-opacity="1" /><path clip-path="url(#clip660)" d="M522.41 592.184 Q517.501 593.779 515.972 595.517 Q514.444 597.255 515.324 599.963 Q516.025 602.12 517.849 602.939 Q519.687 603.729 522.131 602.935 Q525.499 601.841 526.752 598.805 Q528.02 595.74 526.732 591.777 L526.439 590.875 L522.41 592.184 M529.946 587.885 L534.517 601.953 L530.466 603.269 L529.25 599.527 Q528.593 602.223 526.874 603.974 Q525.148 605.703 522.154 606.676 Q518.367 607.906 515.435 606.522 Q512.518 605.109 511.359 601.543 Q510.007 597.382 512.094 594.367 Q514.203 591.346 519.729 589.55 L525.409 587.705 L525.28 587.308 Q524.372 584.512 522.029 583.594 Q519.701 582.647 516.377 583.727 Q514.263 584.414 512.424 585.571 Q510.586 586.728 509.065 588.342 L507.849 584.599 Q509.794 583.018 511.749 581.92 Q513.698 580.801 515.679 580.157 Q521.029 578.419 524.572 580.334 Q528.115 582.25 529.946 587.885 Z" fill="#000000" fill-rule="nonzero" fill-opacity="1" /><path clip-path="url(#clip660)" d="M558.521 577.7 L563.357 592.582 L559.306 593.899 L554.513 579.149 Q553.376 575.648 551.446 574.352 Q549.516 573.057 546.786 573.944 Q543.506 575.01 542.292 577.716 Q541.078 580.423 542.252 584.033 L546.779 597.969 L542.707 599.292 L534.695 574.635 L538.768 573.312 L540.013 577.142 Q540.743 574.447 542.345 572.709 Q543.969 570.965 546.544 570.128 Q550.793 568.747 553.831 570.681 Q556.862 572.593 558.521 577.7 Z" fill="#000000" fill-rule="nonzero" fill-opacity="1" /><path clip-path="url(#clip660)" d="M560.152 555.752 L564.225 554.429 L570.799 574.66 L579.43 560.1 L584.603 558.419 L575.275 574.204 L593.165 582.897 L587.882 584.614 L571.442 576.642 L575.355 588.684 L571.282 590.007 L560.152 555.752 Z" fill="#000000" fill-rule="nonzero" fill-opacity="1" /><path clip-path="url(#clip660)" d="M634.377 608.943 L638.361 621.206 L650.624 617.222 L651.84 620.964 L639.578 624.948 L643.562 637.211 L639.863 638.413 L635.879 626.15 L623.617 630.134 L622.401 626.392 L634.663 622.408 L630.679 610.145 L634.377 608.943 Z" fill="#000000" fill-rule="nonzero" fill-opacity="1" /><path clip-path="url(#clip660)" d="M681.606 610.1 L682.25 612.081 L663.625 618.133 Q665.248 622.23 668.209 623.702 Q671.185 625.144 675.214 623.835 Q677.547 623.077 679.541 621.797 Q681.556 620.509 683.342 618.663 L684.586 622.494 Q682.707 624.127 680.575 625.355 Q678.443 626.583 676.087 627.348 Q670.187 629.266 665.615 626.954 Q661.065 624.636 659.162 618.78 Q657.195 612.726 659.302 608.123 Q661.423 603.49 666.971 601.688 Q671.946 600.071 675.875 602.348 Q679.818 604.596 681.606 610.1 M677.169 610.227 Q676.045 606.917 673.574 605.53 Q671.125 604.135 668.131 605.108 Q664.74 606.209 663.315 608.79 Q661.912 611.363 662.734 614.942 L677.169 610.227 Z" fill="#000000" fill-rule="nonzero" fill-opacity="1" /><path clip-path="url(#clip660)" d="M684.578 596.624 L688.629 595.308 L696.64 619.965 L692.589 621.281 L684.578 596.624 M681.459 587.025 L685.51 585.709 L687.177 590.839 L683.126 592.155 L681.459 587.025 Z" fill="#000000" fill-rule="nonzero" fill-opacity="1" /><path clip-path="url(#clip660)" d="M717.242 599.324 Q715.812 594.921 713.198 593.093 Q710.606 591.258 707.325 592.324 Q704.067 593.383 703.027 596.398 Q702.008 599.406 703.439 603.809 Q704.862 608.19 707.454 610.025 Q710.069 611.853 713.327 610.795 Q716.607 609.729 717.625 606.721 Q718.666 603.705 717.242 599.324 M724.398 607.563 Q726.443 613.859 724.642 617.827 Q722.847 621.818 717.079 623.692 Q714.944 624.386 712.943 624.671 Q710.95 624.978 708.952 624.897 L707.672 620.956 Q709.77 621.345 711.659 621.243 Q713.548 621.14 715.354 620.553 Q719.338 619.259 720.64 616.523 Q721.949 613.81 720.583 609.605 L719.932 607.602 Q719.385 610.189 717.776 611.904 Q716.168 613.62 713.438 614.507 Q708.903 615.98 705.006 613.425 Q701.109 610.87 699.256 605.168 Q697.396 599.444 699.047 595.087 Q700.698 590.729 705.233 589.256 Q707.963 588.369 710.273 588.811 Q712.583 589.253 714.546 591.025 L713.33 587.282 L717.38 585.966 L724.398 607.563 Z" fill="#000000" fill-rule="nonzero" fill-opacity="1" /><path clip-path="url(#clip660)" d="M743.165 581.725 L738.83 568.384 L742.881 567.068 L754.011 601.324 L749.961 602.64 L748.759 598.941 Q748.197 601.558 746.589 603.273 Q744.995 604.959 742.265 605.846 Q737.796 607.298 733.819 604.647 Q729.864 601.989 727.976 596.177 Q726.087 590.365 727.724 585.891 Q729.384 581.409 733.853 579.956 Q736.583 579.069 738.87 579.519 Q741.173 579.939 743.165 581.725 M732.159 594.818 Q733.611 599.287 736.268 601.247 Q738.94 603.178 742.154 602.134 Q745.368 601.09 746.395 597.957 Q747.414 594.802 745.962 590.333 Q744.51 585.864 741.838 583.933 Q739.159 581.981 735.945 583.025 Q732.731 584.069 731.711 587.224 Q730.707 590.349 732.159 594.818 Z" fill="#000000" fill-rule="nonzero" fill-opacity="1" /><path clip-path="url(#clip660)" d="M754.344 573.956 L758.394 572.639 L766.406 597.296 L762.355 598.613 L754.344 573.956 M751.225 564.357 L755.276 563.041 L756.942 568.17 L752.892 569.487 L751.225 564.357 Z" fill="#000000" fill-rule="nonzero" fill-opacity="1" /><path clip-path="url(#clip660)" d="M782.825 565.505 L784.07 569.335 Q782.066 569.013 780.074 569.173 Q778.082 569.334 776.1 569.978 Q773.084 570.958 771.866 572.376 Q770.669 573.787 771.27 575.636 Q771.728 577.045 773.071 577.509 Q774.407 577.951 777.902 577.619 L779.389 577.477 Q784.004 576.999 786.36 578.108 Q788.731 579.187 789.711 582.203 Q790.827 585.638 788.748 588.528 Q786.691 591.411 781.936 592.956 Q779.955 593.6 777.668 593.905 Q775.411 594.224 772.783 594.226 L771.424 590.043 Q774.049 590.481 776.421 590.367 Q778.787 590.231 780.922 589.537 Q783.784 588.607 785.011 587.138 Q786.23 585.647 785.65 583.863 Q785.114 582.212 783.705 581.696 Q782.318 581.174 778.289 581.582 L776.773 581.71 Q772.751 582.14 770.548 581.055 Q768.338 579.947 767.409 577.085 Q766.278 573.607 768.129 570.913 Q769.979 568.218 774.514 566.745 Q776.76 566.015 778.849 565.701 Q780.937 565.388 782.825 565.505 Z" fill="#000000" fill-rule="nonzero" fill-opacity="1" /><path clip-path="url(#clip660)" d="M792.092 553.95 L794.367 560.951 L802.711 558.24 L803.734 561.388 L795.39 564.099 L799.739 577.485 Q800.719 580.501 801.813 581.095 Q802.928 581.681 805.46 580.859 L809.621 579.507 L810.722 582.897 L806.561 584.249 Q801.872 585.773 799.524 584.613 Q797.168 583.431 795.666 578.808 L791.317 565.423 L788.345 566.388 L787.322 563.24 L790.294 562.275 L788.02 555.274 L792.092 553.95 Z" fill="#000000" fill-rule="nonzero" fill-opacity="1" /><path clip-path="url(#clip660)" d="M933.104 582.57 L937.088 594.832 L949.351 590.848 L950.567 594.591 L938.304 598.575 L942.288 610.837 L938.59 612.039 L934.606 599.777 L922.343 603.761 L921.127 600.018 L933.39 596.034 L929.405 583.772 L933.104 582.57 Z" fill="#000000" fill-rule="nonzero" fill-opacity="1" /><path clip-path="url(#clip660)" d="M980.333 583.726 L980.976 585.708 L962.352 591.759 Q963.975 595.856 966.936 597.328 Q969.912 598.771 973.94 597.462 Q976.274 596.704 978.267 595.423 Q980.283 594.135 982.068 592.29 L983.313 596.12 Q981.434 597.753 979.302 598.981 Q977.17 600.21 974.814 600.975 Q968.914 602.892 964.342 600.581 Q959.792 598.262 957.889 592.406 Q955.922 586.352 958.028 581.749 Q960.15 577.117 965.697 575.314 Q970.673 573.697 974.601 575.975 Q978.544 578.223 980.333 583.726 M975.896 583.854 Q974.771 580.544 972.3 579.156 Q969.851 577.761 966.857 578.734 Q963.467 579.836 962.042 582.416 Q960.639 584.99 961.461 588.568 L975.896 583.854 Z" fill="#000000" fill-rule="nonzero" fill-opacity="1" /><path clip-path="url(#clip660)" d="M985.037 561.948 L987.311 568.948 L995.655 566.237 L996.678 569.386 L988.334 572.097 L992.683 585.482 Q993.663 588.498 994.757 589.092 Q995.872 589.679 998.404 588.856 L1002.56 587.504 L1003.67 590.894 L999.506 592.246 Q994.816 593.77 992.468 592.61 Q990.113 591.428 988.61 586.805 L984.261 573.42 L981.289 574.386 L980.266 571.237 L983.238 570.272 L980.964 563.271 L985.037 561.948 Z" fill="#000000" fill-rule="nonzero" fill-opacity="1" /><path clip-path="url(#clip660)" d="M1016.17 573.128 Q1011.26 574.723 1009.73 576.461 Q1008.21 578.199 1009.09 580.907 Q1009.79 583.064 1011.61 583.883 Q1013.45 584.673 1015.89 583.879 Q1019.26 582.785 1020.51 579.749 Q1021.78 576.684 1020.49 572.721 L1020.2 571.819 L1016.17 573.128 M1023.71 568.829 L1028.28 582.897 L1024.23 584.213 L1023.01 580.471 Q1022.36 583.167 1020.64 584.918 Q1018.91 586.647 1015.92 587.62 Q1012.13 588.85 1009.2 587.466 Q1006.28 586.054 1005.12 582.487 Q1003.77 578.326 1005.86 575.311 Q1007.97 572.29 1013.49 570.494 L1019.17 568.649 L1019.04 568.252 Q1018.13 565.456 1015.79 564.538 Q1013.46 563.591 1010.14 564.671 Q1008.03 565.358 1006.19 566.515 Q1004.35 567.672 1002.83 569.286 L1001.61 565.543 Q1003.56 563.962 1005.51 562.864 Q1007.46 561.745 1009.44 561.101 Q1014.79 559.363 1018.33 561.278 Q1021.88 563.194 1023.71 568.829 Z" fill="#000000" fill-rule="nonzero" fill-opacity="1" /><path clip-path="url(#clip660)" d="M470.967 709.412 L463.832 728.761 L478.129 728.761 L470.967 709.412 M467.998 704.229 L473.962 704.229 L488.78 743.109 L483.311 743.109 L479.769 733.136 L462.243 733.136 L458.702 743.109 L453.155 743.109 L467.998 704.229 Z" fill="#000000" fill-rule="nonzero" fill-opacity="1" /><path clip-path="url(#clip660)" d="M512.503 718.37 L512.503 702.589 L517.295 702.589 L517.295 743.109 L512.503 743.109 L512.503 738.735 Q510.993 741.339 508.675 742.615 Q506.384 743.865 503.154 743.865 Q497.868 743.865 494.535 739.646 Q491.227 735.427 491.227 728.552 Q491.227 721.677 494.535 717.459 Q497.868 713.24 503.154 713.24 Q506.384 713.24 508.675 714.516 Q510.993 715.766 512.503 718.37 M496.175 728.552 Q496.175 733.839 498.337 736.86 Q500.524 739.854 504.326 739.854 Q508.128 739.854 510.316 736.86 Q512.503 733.839 512.503 728.552 Q512.503 723.266 510.316 720.271 Q508.128 717.25 504.326 717.25 Q500.524 717.25 498.337 720.271 Q496.175 723.266 496.175 728.552 Z" fill="#000000" fill-rule="nonzero" fill-opacity="1" /><path clip-path="url(#clip660)" d="M546.357 718.37 L546.357 702.589 L551.149 702.589 L551.149 743.109 L546.357 743.109 L546.357 738.735 Q544.847 741.339 542.529 742.615 Q540.238 743.865 537.008 743.865 Q531.722 743.865 528.389 739.646 Q525.081 735.427 525.081 728.552 Q525.081 721.677 528.389 717.459 Q531.722 713.24 537.008 713.24 Q540.238 713.24 542.529 714.516 Q544.847 715.766 546.357 718.37 M530.029 728.552 Q530.029 733.839 532.191 736.86 Q534.378 739.854 538.18 739.854 Q541.982 739.854 544.17 736.86 Q546.357 733.839 546.357 728.552 Q546.357 723.266 544.17 720.271 Q541.982 717.25 538.18 717.25 Q534.378 717.25 532.191 720.271 Q530.029 723.266 530.029 728.552 Z" fill="#000000" fill-rule="nonzero" fill-opacity="1" /><path clip-path="url(#clip660)" d="M585.967 727.328 L585.967 729.672 L563.935 729.672 Q564.248 734.62 566.904 737.224 Q569.586 739.802 574.352 739.802 Q577.112 739.802 579.691 739.125 Q582.295 738.448 584.847 737.094 L584.847 741.625 Q582.269 742.719 579.56 743.292 Q576.852 743.865 574.066 743.865 Q567.086 743.865 562.998 739.802 Q558.935 735.74 558.935 728.813 Q558.935 721.651 562.79 717.459 Q566.67 713.24 573.232 713.24 Q579.118 713.24 582.529 717.042 Q585.967 720.818 585.967 727.328 M581.175 725.922 Q581.123 721.99 578.961 719.646 Q576.826 717.302 573.284 717.302 Q569.274 717.302 566.852 719.568 Q564.456 721.834 564.092 725.948 L581.175 725.922 Z" fill="#000000" fill-rule="nonzero" fill-opacity="1" /><path clip-path="url(#clip660)" d="M613.024 718.37 L613.024 702.589 L617.815 702.589 L617.815 743.109 L613.024 743.109 L613.024 738.735 Q611.513 741.339 609.196 742.615 Q606.904 743.865 603.675 743.865 Q598.388 743.865 595.055 739.646 Q591.748 735.427 591.748 728.552 Q591.748 721.677 595.055 717.459 Q598.388 713.24 603.675 713.24 Q606.904 713.24 609.196 714.516 Q611.513 715.766 613.024 718.37 M596.696 728.552 Q596.696 733.839 598.857 736.86 Q601.045 739.854 604.847 739.854 Q608.649 739.854 610.836 736.86 Q613.024 733.839 613.024 728.552 Q613.024 723.266 610.836 720.271 Q608.649 717.25 604.847 717.25 Q601.045 717.25 598.857 720.271 Q596.696 723.266 596.696 728.552 Z" fill="#000000" fill-rule="nonzero" fill-opacity="1" /><path clip-path="url(#clip660)" d="M665.628 715.063 L665.628 719.542 Q663.596 718.422 661.539 717.875 Q659.508 717.302 657.424 717.302 Q652.763 717.302 650.185 720.271 Q647.607 723.214 647.607 728.552 Q647.607 733.891 650.185 736.86 Q652.763 739.802 657.424 739.802 Q659.508 739.802 661.539 739.255 Q663.596 738.682 665.628 737.563 L665.628 741.99 Q663.622 742.927 661.461 743.396 Q659.326 743.865 656.904 743.865 Q650.315 743.865 646.435 739.724 Q642.555 735.583 642.555 728.552 Q642.555 721.417 646.461 717.328 Q650.393 713.24 657.216 713.24 Q659.43 713.24 661.539 713.709 Q663.648 714.151 665.628 715.063 Z" fill="#000000" fill-rule="nonzero" fill-opacity="1" /><path clip-path="url(#clip660)" d="M685.263 717.302 Q681.409 717.302 679.169 720.323 Q676.93 723.318 676.93 728.552 Q676.93 733.787 679.143 736.807 Q681.383 739.802 685.263 739.802 Q689.091 739.802 691.331 736.781 Q693.57 733.761 693.57 728.552 Q693.57 723.37 691.331 720.349 Q689.091 717.302 685.263 717.302 M685.263 713.24 Q691.513 713.24 695.081 717.302 Q698.648 721.365 698.648 728.552 Q698.648 735.714 695.081 739.802 Q691.513 743.865 685.263 743.865 Q678.987 743.865 675.419 739.802 Q671.878 735.714 671.878 728.552 Q671.878 721.365 675.419 717.302 Q678.987 713.24 685.263 713.24 Z" fill="#000000" fill-rule="nonzero" fill-opacity="1" /><path clip-path="url(#clip660)" d="M729.299 719.542 Q731.096 716.313 733.596 714.776 Q736.096 713.24 739.481 713.24 Q744.039 713.24 746.513 716.443 Q748.986 719.62 748.986 725.505 L748.986 743.109 L744.169 743.109 L744.169 725.662 Q744.169 721.469 742.684 719.438 Q741.2 717.407 738.153 717.407 Q734.429 717.407 732.268 719.88 Q730.106 722.354 730.106 726.625 L730.106 743.109 L725.289 743.109 L725.289 725.662 Q725.289 721.443 723.804 719.438 Q722.32 717.407 719.221 717.407 Q715.549 717.407 713.388 719.906 Q711.226 722.38 711.226 726.625 L711.226 743.109 L706.409 743.109 L706.409 713.943 L711.226 713.943 L711.226 718.474 Q712.867 715.792 715.159 714.516 Q717.45 713.24 720.601 713.24 Q723.778 713.24 725.992 714.854 Q728.231 716.469 729.299 719.542 Z" fill="#000000" fill-rule="nonzero" fill-opacity="1" /><path clip-path="url(#clip660)" d="M763.179 738.735 L763.179 754.203 L758.361 754.203 L758.361 713.943 L763.179 713.943 L763.179 718.37 Q764.69 715.766 766.981 714.516 Q769.299 713.24 772.502 713.24 Q777.814 713.24 781.122 717.459 Q784.455 721.677 784.455 728.552 Q784.455 735.427 781.122 739.646 Q777.814 743.865 772.502 743.865 Q769.299 743.865 766.981 742.615 Q764.69 741.339 763.179 738.735 M779.481 728.552 Q779.481 723.266 777.294 720.271 Q775.132 717.25 771.33 717.25 Q767.528 717.25 765.341 720.271 Q763.179 723.266 763.179 728.552 Q763.179 733.839 765.341 736.86 Q767.528 739.854 771.33 739.854 Q775.132 739.854 777.294 736.86 Q779.481 733.839 779.481 728.552 Z" fill="#000000" fill-rule="nonzero" fill-opacity="1" /><path clip-path="url(#clip660)" d="M803.7 717.302 Q799.846 717.302 797.606 720.323 Q795.366 723.318 795.366 728.552 Q795.366 733.787 797.58 736.807 Q799.82 739.802 803.7 739.802 Q807.528 739.802 809.767 736.781 Q812.007 733.761 812.007 728.552 Q812.007 723.37 809.767 720.349 Q807.528 717.302 803.7 717.302 M803.7 713.24 Q809.95 713.24 813.517 717.302 Q817.085 721.365 817.085 728.552 Q817.085 735.714 813.517 739.802 Q809.95 743.865 803.7 743.865 Q797.424 743.865 793.856 739.802 Q790.314 735.714 790.314 728.552 Q790.314 721.365 793.856 717.302 Q797.424 713.24 803.7 713.24 Z" fill="#000000" fill-rule="nonzero" fill-opacity="1" /><path clip-path="url(#clip660)" d="M849.272 725.505 L849.272 743.109 L844.481 743.109 L844.481 725.662 Q844.481 721.521 842.866 719.464 Q841.252 717.407 838.022 717.407 Q834.142 717.407 831.903 719.88 Q829.663 722.354 829.663 726.625 L829.663 743.109 L824.845 743.109 L824.845 713.943 L829.663 713.943 L829.663 718.474 Q831.382 715.844 833.7 714.542 Q836.043 713.24 839.09 713.24 Q844.116 713.24 846.694 716.365 Q849.272 719.464 849.272 725.505 Z" fill="#000000" fill-rule="nonzero" fill-opacity="1" /><path clip-path="url(#clip660)" d="M883.777 727.328 L883.777 729.672 L861.746 729.672 Q862.059 734.62 864.715 737.224 Q867.397 739.802 872.163 739.802 Q874.923 739.802 877.501 739.125 Q880.106 738.448 882.658 737.094 L882.658 741.625 Q880.08 742.719 877.371 743.292 Q874.663 743.865 871.876 743.865 Q864.897 743.865 860.809 739.802 Q856.746 735.74 856.746 728.813 Q856.746 721.651 860.6 717.459 Q864.481 713.24 871.043 713.24 Q876.929 713.24 880.34 717.042 Q883.777 720.818 883.777 727.328 M878.986 725.922 Q878.934 721.99 876.772 719.646 Q874.637 717.302 871.095 717.302 Q867.085 717.302 864.663 719.568 Q862.267 721.834 861.903 725.948 L878.986 725.922 Z" fill="#000000" fill-rule="nonzero" fill-opacity="1" /><path clip-path="url(#clip660)" d="M915.887 725.505 L915.887 743.109 L911.095 743.109 L911.095 725.662 Q911.095 721.521 909.48 719.464 Q907.866 717.407 904.637 717.407 Q900.757 717.407 898.517 719.88 Q896.277 722.354 896.277 726.625 L896.277 743.109 L891.46 743.109 L891.46 713.943 L896.277 713.943 L896.277 718.474 Q897.996 715.844 900.314 714.542 Q902.658 713.24 905.704 713.24 Q910.73 713.24 913.309 716.365 Q915.887 719.464 915.887 725.505 Z" fill="#000000" fill-rule="nonzero" fill-opacity="1" /><path clip-path="url(#clip660)" d="M930.183 705.662 L930.183 713.943 L940.053 713.943 L940.053 717.667 L930.183 717.667 L930.183 733.5 Q930.183 737.068 931.147 738.083 Q932.137 739.099 935.131 739.099 L940.053 739.099 L940.053 743.109 L935.131 743.109 Q929.584 743.109 927.475 741.052 Q925.366 738.969 925.366 733.5 L925.366 717.667 L921.85 717.667 L921.85 713.943 L925.366 713.943 L925.366 705.662 L930.183 705.662 Z" fill="#000000" fill-rule="nonzero" fill-opacity="1" /><polyline clip-path="url(#clip660)" style="stroke:#000000; stroke-linecap:round; stroke-linejoin:round; stroke-width:4; stroke-opacity:1; fill:none" points="350.688,532.211 350.688,220.748 "/>
<polyline clip-path="url(#clip660)" style="stroke:#000000; stroke-linecap:round; stroke-linejoin:round; stroke-width:4; stroke-opacity:1; fill:none" points="350.688,531.402 369.586,531.402 "/>
<polyline clip-path="url(#clip660)" style="stroke:#000000; stroke-linecap:round; stroke-linejoin:round; stroke-width:4; stroke-opacity:1; fill:none" points="350.688,459.364 369.586,459.364 "/>
<polyline clip-path="url(#clip660)" style="stroke:#000000; stroke-linecap:round; stroke-linejoin:round; stroke-width:4; stroke-opacity:1; fill:none" points="350.688,387.325 369.586,387.325 "/>
<polyline clip-path="url(#clip660)" style="stroke:#000000; stroke-linecap:round; stroke-linejoin:round; stroke-width:4; stroke-opacity:1; fill:none" points="350.688,315.287 369.586,315.287 "/>
<polyline clip-path="url(#clip660)" style="stroke:#000000; stroke-linecap:round; stroke-linejoin:round; stroke-width:4; stroke-opacity:1; fill:none" points="350.688,243.249 369.586,243.249 "/>
<path clip-path="url(#clip660)" d="M225.744 531.853 L255.42 531.853 L255.42 535.788 L225.744 535.788 L225.744 531.853 Z" fill="#000000" fill-rule="nonzero" fill-opacity="1" /><path clip-path="url(#clip660)" d="M266.323 544.747 L273.962 544.747 L273.962 518.381 L265.652 520.048 L265.652 515.788 L273.915 514.122 L278.591 514.122 L278.591 544.747 L286.23 544.747 L286.23 548.682 L266.323 548.682 L266.323 544.747 Z" fill="#000000" fill-rule="nonzero" fill-opacity="1" /><path clip-path="url(#clip660)" d="M295.675 542.802 L300.559 542.802 L300.559 548.682 L295.675 548.682 L295.675 542.802 Z" fill="#000000" fill-rule="nonzero" fill-opacity="1" /><path clip-path="url(#clip660)" d="M320.744 517.201 Q317.133 517.201 315.304 520.765 Q313.499 524.307 313.499 531.437 Q313.499 538.543 315.304 542.108 Q317.133 545.649 320.744 545.649 Q324.378 545.649 326.184 542.108 Q328.012 538.543 328.012 531.437 Q328.012 524.307 326.184 520.765 Q324.378 517.201 320.744 517.201 M320.744 513.497 Q326.554 513.497 329.61 518.103 Q332.688 522.687 332.688 531.437 Q332.688 540.163 329.61 544.77 Q326.554 549.353 320.744 549.353 Q314.934 549.353 311.855 544.77 Q308.799 540.163 308.799 531.437 Q308.799 522.687 311.855 518.103 Q314.934 513.497 320.744 513.497 Z" fill="#000000" fill-rule="nonzero" fill-opacity="1" /><path clip-path="url(#clip660)" d="M226.74 459.815 L256.416 459.815 L256.416 463.75 L226.74 463.75 L226.74 459.815 Z" fill="#000000" fill-rule="nonzero" fill-opacity="1" /><path clip-path="url(#clip660)" d="M276.508 445.162 Q272.897 445.162 271.068 448.727 Q269.263 452.269 269.263 459.398 Q269.263 466.505 271.068 470.07 Q272.897 473.611 276.508 473.611 Q280.142 473.611 281.948 470.07 Q283.776 466.505 283.776 459.398 Q283.776 452.269 281.948 448.727 Q280.142 445.162 276.508 445.162 M276.508 441.459 Q282.318 441.459 285.374 446.065 Q288.452 450.648 288.452 459.398 Q288.452 468.125 285.374 472.732 Q282.318 477.315 276.508 477.315 Q270.698 477.315 267.619 472.732 Q264.564 468.125 264.564 459.398 Q264.564 450.648 267.619 446.065 Q270.698 441.459 276.508 441.459 Z" fill="#000000" fill-rule="nonzero" fill-opacity="1" /><path clip-path="url(#clip660)" d="M296.67 470.764 L301.554 470.764 L301.554 476.644 L296.67 476.644 L296.67 470.764 Z" fill="#000000" fill-rule="nonzero" fill-opacity="1" /><path clip-path="url(#clip660)" d="M311.786 442.084 L330.142 442.084 L330.142 446.019 L316.068 446.019 L316.068 454.491 Q317.086 454.144 318.105 453.982 Q319.124 453.796 320.142 453.796 Q325.929 453.796 329.309 456.968 Q332.688 460.139 332.688 465.556 Q332.688 471.134 329.216 474.236 Q325.744 477.315 319.424 477.315 Q317.249 477.315 314.98 476.944 Q312.735 476.574 310.327 475.833 L310.327 471.134 Q312.411 472.269 314.633 472.824 Q316.855 473.38 319.332 473.38 Q323.336 473.38 325.674 471.273 Q328.012 469.167 328.012 465.556 Q328.012 461.945 325.674 459.838 Q323.336 457.732 319.332 457.732 Q317.457 457.732 315.582 458.148 Q313.73 458.565 311.786 459.445 L311.786 442.084 Z" fill="#000000" fill-rule="nonzero" fill-opacity="1" /><path clip-path="url(#clip660)" d="M275.513 373.124 Q271.902 373.124 270.073 376.689 Q268.267 380.23 268.267 387.36 Q268.267 394.466 270.073 398.031 Q271.902 401.573 275.513 401.573 Q279.147 401.573 280.952 398.031 Q282.781 394.466 282.781 387.36 Q282.781 380.23 280.952 376.689 Q279.147 373.124 275.513 373.124 M275.513 369.42 Q281.323 369.42 284.378 374.027 Q287.457 378.61 287.457 387.36 Q287.457 396.087 284.378 400.693 Q281.323 405.277 275.513 405.277 Q269.702 405.277 266.624 400.693 Q263.568 396.087 263.568 387.36 Q263.568 378.61 266.624 374.027 Q269.702 369.42 275.513 369.42 Z" fill="#000000" fill-rule="nonzero" fill-opacity="1" /><path clip-path="url(#clip660)" d="M295.675 398.726 L300.559 398.726 L300.559 404.605 L295.675 404.605 L295.675 398.726 Z" fill="#000000" fill-rule="nonzero" fill-opacity="1" /><path clip-path="url(#clip660)" d="M320.744 373.124 Q317.133 373.124 315.304 376.689 Q313.499 380.23 313.499 387.36 Q313.499 394.466 315.304 398.031 Q317.133 401.573 320.744 401.573 Q324.378 401.573 326.184 398.031 Q328.012 394.466 328.012 387.36 Q328.012 380.23 326.184 376.689 Q324.378 373.124 320.744 373.124 M320.744 369.42 Q326.554 369.42 329.61 374.027 Q332.688 378.61 332.688 387.36 Q332.688 396.087 329.61 400.693 Q326.554 405.277 320.744 405.277 Q314.934 405.277 311.855 400.693 Q308.799 396.087 308.799 387.36 Q308.799 378.61 311.855 374.027 Q314.934 369.42 320.744 369.42 Z" fill="#000000" fill-rule="nonzero" fill-opacity="1" /><path clip-path="url(#clip660)" d="M276.508 301.086 Q272.897 301.086 271.068 304.65 Q269.263 308.192 269.263 315.322 Q269.263 322.428 271.068 325.993 Q272.897 329.535 276.508 329.535 Q280.142 329.535 281.948 325.993 Q283.776 322.428 283.776 315.322 Q283.776 308.192 281.948 304.65 Q280.142 301.086 276.508 301.086 M276.508 297.382 Q282.318 297.382 285.374 301.988 Q288.452 306.572 288.452 315.322 Q288.452 324.049 285.374 328.655 Q282.318 333.238 276.508 333.238 Q270.698 333.238 267.619 328.655 Q264.564 324.049 264.564 315.322 Q264.564 306.572 267.619 301.988 Q270.698 297.382 276.508 297.382 Z" fill="#000000" fill-rule="nonzero" fill-opacity="1" /><path clip-path="url(#clip660)" d="M296.67 326.687 L301.554 326.687 L301.554 332.567 L296.67 332.567 L296.67 326.687 Z" fill="#000000" fill-rule="nonzero" fill-opacity="1" /><path clip-path="url(#clip660)" d="M311.786 298.007 L330.142 298.007 L330.142 301.942 L316.068 301.942 L316.068 310.414 Q317.086 310.067 318.105 309.905 Q319.124 309.72 320.142 309.72 Q325.929 309.72 329.309 312.891 Q332.688 316.062 332.688 321.479 Q332.688 327.058 329.216 330.16 Q325.744 333.238 319.424 333.238 Q317.249 333.238 314.98 332.868 Q312.735 332.498 310.327 331.757 L310.327 327.058 Q312.411 328.192 314.633 328.748 Q316.855 329.303 319.332 329.303 Q323.336 329.303 325.674 327.197 Q328.012 325.09 328.012 321.479 Q328.012 317.868 325.674 315.762 Q323.336 313.655 319.332 313.655 Q317.457 313.655 315.582 314.072 Q313.73 314.488 311.786 315.368 L311.786 298.007 Z" fill="#000000" fill-rule="nonzero" fill-opacity="1" /><path clip-path="url(#clip660)" d="M266.323 256.594 L273.962 256.594 L273.962 230.228 L265.652 231.895 L265.652 227.635 L273.915 225.969 L278.591 225.969 L278.591 256.594 L286.23 256.594 L286.23 260.529 L266.323 260.529 L266.323 256.594 Z" fill="#000000" fill-rule="nonzero" fill-opacity="1" /><path clip-path="url(#clip660)" d="M295.675 254.649 L300.559 254.649 L300.559 260.529 L295.675 260.529 L295.675 254.649 Z" fill="#000000" fill-rule="nonzero" fill-opacity="1" /><path clip-path="url(#clip660)" d="M320.744 229.047 Q317.133 229.047 315.304 232.612 Q313.499 236.154 313.499 243.283 Q313.499 250.39 315.304 253.955 Q317.133 257.496 320.744 257.496 Q324.378 257.496 326.184 253.955 Q328.012 250.39 328.012 243.283 Q328.012 236.154 326.184 232.612 Q324.378 229.047 320.744 229.047 M320.744 225.344 Q326.554 225.344 329.61 229.95 Q332.688 234.534 332.688 243.283 Q332.688 252.01 329.61 256.617 Q326.554 261.2 320.744 261.2 Q314.934 261.2 311.855 256.617 Q308.799 252.01 308.799 243.283 Q308.799 234.534 311.855 229.95 Q314.934 225.344 320.744 225.344 Z" fill="#000000" fill-rule="nonzero" fill-opacity="1" /><path clip-path="url(#clip660)" d="M181.523 739.551 Q176.237 739.551 173.242 741.738 Q170.221 743.9 170.221 747.702 Q170.221 751.504 173.242 753.691 Q176.237 755.853 181.523 755.853 Q186.81 755.853 189.83 753.691 Q192.825 751.504 192.825 747.702 Q192.825 743.9 189.83 741.738 Q186.81 739.551 181.523 739.551 M171.341 755.853 Q168.737 754.342 167.487 752.051 Q166.211 749.733 166.211 746.53 Q166.211 741.218 170.429 737.91 Q174.648 734.577 181.523 734.577 Q188.398 734.577 192.617 737.91 Q196.836 741.218 196.836 746.53 Q196.836 749.733 195.586 752.051 Q194.31 754.342 191.705 755.853 L196.08 755.853 L196.08 760.671 L155.56 760.671 L155.56 755.853 L171.341 755.853 Z" fill="#000000" fill-rule="nonzero" fill-opacity="1" /><path clip-path="url(#clip660)" d="M180.299 701.686 L182.643 701.686 L182.643 723.718 Q187.591 723.405 190.195 720.749 Q192.773 718.067 192.773 713.301 Q192.773 710.541 192.096 707.963 Q191.419 705.358 190.065 702.806 L194.596 702.806 Q195.69 705.384 196.263 708.093 Q196.836 710.801 196.836 713.587 Q196.836 720.567 192.773 724.655 Q188.711 728.718 181.784 728.718 Q174.622 728.718 170.429 724.863 Q166.211 720.983 166.211 714.421 Q166.211 708.535 170.013 705.124 Q173.789 701.686 180.299 701.686 M178.893 706.478 Q174.961 706.53 172.617 708.692 Q170.273 710.827 170.273 714.369 Q170.273 718.379 172.539 720.801 Q174.804 723.197 178.919 723.561 L178.893 706.478 Z" fill="#000000" fill-rule="nonzero" fill-opacity="1" /><path clip-path="url(#clip660)" d="M158.633 689.082 L166.914 689.082 L166.914 679.213 L170.638 679.213 L170.638 689.082 L186.471 689.082 Q190.039 689.082 191.054 688.119 Q192.07 687.129 192.07 684.135 L192.07 679.213 L196.08 679.213 L196.08 684.135 Q196.08 689.681 194.023 691.791 Q191.94 693.9 186.471 693.9 L170.638 693.9 L170.638 697.416 L166.914 697.416 L166.914 693.9 L158.633 693.9 L158.633 689.082 Z" fill="#000000" fill-rule="nonzero" fill-opacity="1" /><path clip-path="url(#clip660)" d="M181.419 659.655 Q181.419 665.463 182.747 667.702 Q184.075 669.942 187.278 669.942 Q189.83 669.942 191.341 668.275 Q192.825 666.583 192.825 663.692 Q192.825 659.708 190.013 657.312 Q187.174 654.89 182.487 654.89 L181.419 654.89 L181.419 659.655 M179.44 650.098 L196.08 650.098 L196.08 654.89 L191.653 654.89 Q194.31 656.53 195.586 658.978 Q196.836 661.426 196.836 664.968 Q196.836 669.447 194.336 672.103 Q191.81 674.734 187.591 674.734 Q182.669 674.734 180.169 671.452 Q177.669 668.145 177.669 661.609 L177.669 654.89 L177.2 654.89 Q173.893 654.89 172.096 657.077 Q170.273 659.239 170.273 663.171 Q170.273 665.671 170.872 668.041 Q171.471 670.411 172.669 672.598 L168.242 672.598 Q167.226 669.968 166.732 667.494 Q166.211 665.02 166.211 662.676 Q166.211 656.348 169.492 653.223 Q172.773 650.098 179.44 650.098 Z" fill="#000000" fill-rule="nonzero" fill-opacity="1" /><path clip-path="url(#clip660)" d="M204.934 618.067 L208.658 618.067 L208.658 645.775 L204.934 645.775 L204.934 618.067 Z" fill="#000000" fill-rule="nonzero" fill-opacity="1" /><path clip-path="url(#clip660)" d="M157.2 613.354 L157.2 608.093 L173.138 608.093 L173.138 588.979 L157.2 588.979 L157.2 583.718 L196.08 583.718 L196.08 588.979 L177.565 588.979 L177.565 608.093 L196.08 608.093 L196.08 613.354 L157.2 613.354 Z" fill="#000000" fill-rule="nonzero" fill-opacity="1" /><path clip-path="url(#clip660)" d="M157.2 573.25 L157.2 550.906 L161.627 550.906 L161.627 567.989 L173.086 567.989 L173.086 552.573 L177.513 552.573 L177.513 567.989 L196.08 567.989 L196.08 573.25 L157.2 573.25 Z" fill="#000000" fill-rule="nonzero" fill-opacity="1" /><path clip-path="url(#clip660)" d="M155.612 514.318 Q161.601 517.807 167.461 519.5 Q173.32 521.193 179.336 521.193 Q185.351 521.193 191.263 519.5 Q197.148 517.781 203.112 514.318 L203.112 518.484 Q196.992 522.391 191.08 524.344 Q185.169 526.271 179.336 526.271 Q173.528 526.271 167.643 524.344 Q161.758 522.417 155.612 518.484 L155.612 514.318 Z" fill="#000000" fill-rule="nonzero" fill-opacity="1" /><path clip-path="url(#clip660)" d="M157.2 504.813 L157.2 499.552 L173.138 499.552 L173.138 480.438 L157.2 480.438 L157.2 475.177 L196.08 475.177 L196.08 480.438 L177.565 480.438 L177.565 499.552 L196.08 499.552 L196.08 504.813 L157.2 504.813 Z" fill="#000000" fill-rule="nonzero" fill-opacity="1" /><path clip-path="url(#clip660)" d="M157.2 464.709 L157.2 442.365 L161.627 442.365 L161.627 459.448 L173.086 459.448 L173.086 444.032 L177.513 444.032 L177.513 459.448 L196.08 459.448 L196.08 464.709 L157.2 464.709 Z" fill="#000000" fill-rule="nonzero" fill-opacity="1" /><path clip-path="url(#clip660)" d="M166.914 420.724 L166.914 415.646 L191.393 406.532 L166.914 397.417 L166.914 392.339 L196.08 403.277 L196.08 409.787 L166.914 420.724 Z" fill="#000000" fill-rule="nonzero" fill-opacity="1" /><path clip-path="url(#clip660)" d="M167.773 367.131 L172.304 367.131 Q171.263 369.162 170.742 371.35 Q170.221 373.537 170.221 375.881 Q170.221 379.449 171.315 381.246 Q172.409 383.016 174.596 383.016 Q176.263 383.016 177.226 381.74 Q178.164 380.464 179.023 376.61 L179.388 374.969 Q180.482 369.865 182.487 367.73 Q184.466 365.569 188.034 365.569 Q192.096 365.569 194.466 368.798 Q196.836 372.001 196.836 377.626 Q196.836 379.969 196.367 382.522 Q195.924 385.048 195.013 387.86 L190.065 387.86 Q191.445 385.204 192.148 382.626 Q192.825 380.048 192.825 377.522 Q192.825 374.136 191.679 372.313 Q190.507 370.49 188.398 370.49 Q186.445 370.49 185.403 371.818 Q184.362 373.121 183.398 377.574 L183.008 379.24 Q182.07 383.693 180.143 385.673 Q178.19 387.652 174.804 387.652 Q170.69 387.652 168.45 384.735 Q166.211 381.818 166.211 376.454 Q166.211 373.798 166.601 371.454 Q166.992 369.11 167.773 367.131 Z" fill="#000000" fill-rule="nonzero" fill-opacity="1" /><path clip-path="url(#clip660)" d="M162.383 327.782 L181.731 334.918 L181.731 320.621 L162.383 327.782 M157.2 330.751 L157.2 324.787 L196.08 309.97 L196.08 315.439 L186.106 318.98 L186.106 336.506 L196.08 340.048 L196.08 345.595 L157.2 330.751 Z" fill="#000000" fill-rule="nonzero" fill-opacity="1" /><path clip-path="url(#clip660)" d="M177.513 299.032 L191.757 299.032 L191.757 290.595 Q191.757 286.35 190.013 284.319 Q188.242 282.262 184.622 282.262 Q180.976 282.262 179.258 284.319 Q177.513 286.35 177.513 290.595 L177.513 299.032 M161.523 299.032 L173.242 299.032 L173.242 291.246 Q173.242 287.392 171.81 285.517 Q170.351 283.616 167.383 283.616 Q164.44 283.616 162.982 285.517 Q161.523 287.392 161.523 291.246 L161.523 299.032 M157.2 304.293 L157.2 290.855 Q157.2 284.84 159.7 281.585 Q162.2 278.329 166.81 278.329 Q170.377 278.329 172.487 279.996 Q174.596 281.663 175.117 284.892 Q175.95 281.012 178.607 278.876 Q181.237 276.715 185.195 276.715 Q190.403 276.715 193.242 280.256 Q196.08 283.798 196.08 290.335 L196.08 304.293 L157.2 304.293 Z" fill="#000000" fill-rule="nonzero" fill-opacity="1" /><path clip-path="url(#clip660)" d="M189.466 266.689 L189.466 261.194 L193.945 261.194 L202.278 265.465 L202.278 268.824 L193.945 266.689 L189.466 266.689 Z" fill="#000000" fill-rule="nonzero" fill-opacity="1" /><path clip-path="url(#clip660)" d="M181.419 220.752 Q181.419 226.559 182.747 228.798 Q184.075 231.038 187.278 231.038 Q189.83 231.038 191.341 229.371 Q192.825 227.679 192.825 224.788 Q192.825 220.804 190.013 218.408 Q187.174 215.986 182.487 215.986 L181.419 215.986 L181.419 220.752 M179.44 211.194 L196.08 211.194 L196.08 215.986 L191.653 215.986 Q194.31 217.627 195.586 220.074 Q196.836 222.522 196.836 226.064 Q196.836 230.543 194.336 233.199 Q191.81 235.83 187.591 235.83 Q182.669 235.83 180.169 232.548 Q177.669 229.241 177.669 222.705 L177.669 215.986 L177.2 215.986 Q173.893 215.986 172.096 218.173 Q170.273 220.335 170.273 224.267 Q170.273 226.767 170.872 229.137 Q171.471 231.507 172.669 233.694 L168.242 233.694 Q167.226 231.064 166.732 228.59 Q166.211 226.116 166.211 223.772 Q166.211 217.444 169.492 214.319 Q172.773 211.194 179.44 211.194 Z" fill="#000000" fill-rule="nonzero" fill-opacity="1" /><path clip-path="url(#clip660)" d="M171.341 182.132 L155.56 182.132 L155.56 177.34 L196.08 177.34 L196.08 182.132 L191.705 182.132 Q194.31 183.642 195.586 185.96 Q196.836 188.252 196.836 191.481 Q196.836 196.767 192.617 200.101 Q188.398 203.408 181.523 203.408 Q174.648 203.408 170.429 200.101 Q166.211 196.767 166.211 191.481 Q166.211 188.252 167.487 185.96 Q168.737 183.642 171.341 182.132 M181.523 198.46 Q186.81 198.46 189.83 196.299 Q192.825 194.111 192.825 190.309 Q192.825 186.507 189.83 184.319 Q186.81 182.132 181.523 182.132 Q176.237 182.132 173.242 184.319 Q170.221 186.507 170.221 190.309 Q170.221 194.111 173.242 196.299 Q176.237 198.46 181.523 198.46 Z" fill="#000000" fill-rule="nonzero" fill-opacity="1" /><path clip-path="url(#clip660)" d="M166.914 167.471 L166.914 162.679 L196.601 162.679 Q202.174 162.679 204.674 164.814 Q207.174 166.924 207.174 171.637 L207.174 173.46 L203.112 173.46 L203.112 172.184 Q203.112 169.45 201.836 168.46 Q200.586 167.471 196.601 167.471 L166.914 167.471 M155.56 167.471 L155.56 162.679 L161.627 162.679 L161.627 167.471 L155.56 167.471 Z" fill="#000000" fill-rule="nonzero" fill-opacity="1" /><path clip-path="url(#clip660)" d="M184.57 153.148 L166.914 153.148 L166.914 148.356 L184.388 148.356 Q188.528 148.356 190.612 146.742 Q192.669 145.127 192.669 141.898 Q192.669 138.018 190.195 135.778 Q187.721 133.512 183.45 133.512 L166.914 133.512 L166.914 128.721 L196.08 128.721 L196.08 133.512 L191.601 133.512 Q194.257 135.257 195.56 137.575 Q196.836 139.867 196.836 142.913 Q196.836 147.939 193.711 150.544 Q190.586 153.148 184.57 153.148 M166.211 141.091 L166.211 141.091 Z" fill="#000000" fill-rule="nonzero" fill-opacity="1" /><path clip-path="url(#clip660)" d="M167.773 100.257 L172.304 100.257 Q171.263 102.289 170.742 104.476 Q170.221 106.664 170.221 109.007 Q170.221 112.575 171.315 114.372 Q172.409 116.143 174.596 116.143 Q176.263 116.143 177.226 114.867 Q178.164 113.591 179.023 109.737 L179.388 108.096 Q180.482 102.992 182.487 100.856 Q184.466 98.6949 188.034 98.6949 Q192.096 98.6949 194.466 101.924 Q196.836 105.127 196.836 110.752 Q196.836 113.096 196.367 115.648 Q195.924 118.174 195.013 120.986 L190.065 120.986 Q191.445 118.33 192.148 115.752 Q192.825 113.174 192.825 110.648 Q192.825 107.263 191.679 105.44 Q190.507 103.617 188.398 103.617 Q186.445 103.617 185.403 104.945 Q184.362 106.247 183.398 110.7 L183.008 112.367 Q182.07 116.82 180.143 118.799 Q178.19 120.778 174.804 120.778 Q170.69 120.778 168.45 117.862 Q166.211 114.945 166.211 109.58 Q166.211 106.924 166.601 104.58 Q166.992 102.237 167.773 100.257 Z" fill="#000000" fill-rule="nonzero" fill-opacity="1" /><path clip-path="url(#clip660)" d="M158.633 86.3252 L166.914 86.3252 L166.914 76.4555 L170.638 76.4555 L170.638 86.3252 L186.471 86.3252 Q190.039 86.3252 191.054 85.3617 Q192.07 84.3721 192.07 81.3773 L192.07 76.4555 L196.08 76.4555 L196.08 81.3773 Q196.08 86.9242 194.023 89.0335 Q191.94 91.1429 186.471 91.1429 L170.638 91.1429 L170.638 94.6585 L166.914 94.6585 L166.914 91.1429 L158.633 91.1429 L158.633 86.3252 Z" fill="#000000" fill-rule="nonzero" fill-opacity="1" /><path clip-path="url(#clip660)" d="M180.299 45.2056 L182.643 45.2056 L182.643 67.2368 Q187.591 66.9243 190.195 64.268 Q192.773 61.5858 192.773 56.8202 Q192.773 54.0598 192.096 51.4816 Q191.419 48.8775 190.065 46.3254 L194.596 46.3254 Q195.69 48.9035 196.263 51.6119 Q196.836 54.3202 196.836 57.1066 Q196.836 64.0857 192.773 68.1743 Q188.711 72.2367 181.784 72.2367 Q174.622 72.2367 170.429 68.3826 Q166.211 64.5024 166.211 57.9399 Q166.211 52.0546 170.013 48.6431 Q173.789 45.2056 180.299 45.2056 M178.893 49.9973 Q174.961 50.0494 172.617 52.2108 Q170.273 54.3462 170.273 57.8879 Q170.273 61.8983 172.539 64.3201 Q174.804 66.7159 178.919 67.0805 L178.893 49.9973 Z" fill="#000000" fill-rule="nonzero" fill-opacity="1" /><path clip-path="url(#clip660)" d="M171.341 18.1485 L155.56 18.1485 L155.56 13.3569 L196.08 13.3569 L196.08 18.1485 L191.705 18.1485 Q194.31 19.6589 195.586 21.9766 Q196.836 24.2683 196.836 27.4974 Q196.836 32.7838 192.617 36.1171 Q188.398 39.4244 181.523 39.4244 Q174.648 39.4244 170.429 36.1171 Q166.211 32.7838 166.211 27.4974 Q166.211 24.2683 167.487 21.9766 Q168.737 19.6589 171.341 18.1485 M181.523 34.4765 Q186.81 34.4765 189.83 32.3151 Q192.825 30.1276 192.825 26.3255 Q192.825 22.5235 189.83 20.336 Q186.81 18.1485 181.523 18.1485 Q176.237 18.1485 173.242 20.336 Q170.221 22.5235 170.221 26.3255 Q170.221 30.1276 173.242 32.3151 Q176.237 34.4765 181.523 34.4765 Z" fill="#000000" fill-rule="nonzero" fill-opacity="1" /><path clip-path="url(#clip660)" d="M155.612 4.24232 L155.612 0.075675 Q161.758 -3.83055 167.643 -5.75763 Q173.528 -7.71074 179.336 -7.71074 Q185.169 -7.71074 191.08 -5.75763 Q196.992 -3.83055 203.112 0.075675 L203.112 4.24232 Q197.148 0.778796 191.263 -0.913903 Q185.351 -2.63264 179.336 -2.63264 Q173.32 -2.63264 167.461 -0.913903 Q161.601 0.778796 155.612 4.24232 Z" fill="#000000" fill-rule="nonzero" fill-opacity="1" /><path clip-path="url(#clip660)" d="M34.9177 6.87496 Q31.0404 13.53 29.1596 20.0404 Q27.2788 26.5508 27.2788 33.2348 Q27.2788 39.9188 29.1596 46.487 Q31.0693 53.0263 34.9177 59.6525 L30.2881 59.6525 Q25.9478 52.8527 23.7777 46.2845 Q21.6365 39.7162 21.6365 33.2348 Q21.6365 26.7823 23.7777 20.2429 Q25.9189 13.7036 30.2881 6.87496 L34.9177 6.87496 Z" fill="#000000" fill-rule="nonzero" fill-opacity="1" /><path clip-path="url(#clip660)" d="M77.8283 11.9675 L77.8283 18.1307 Q74.877 15.3819 71.5205 14.0219 Q68.193 12.662 64.4314 12.662 Q57.0241 12.662 53.0889 17.2048 Q49.1537 21.7186 49.1537 30.2834 Q49.1537 38.8192 53.0889 43.362 Q57.0241 47.8759 64.4314 47.8759 Q68.193 47.8759 71.5205 46.516 Q74.877 45.156 77.8283 42.4072 L77.8283 48.5125 Q74.7612 50.5958 71.318 51.6375 Q67.9036 52.6791 64.0842 52.6791 Q54.2752 52.6791 48.6329 46.6896 Q42.9906 40.6711 42.9906 30.2834 Q42.9906 19.8668 48.6329 13.8772 Q54.2752 7.85875 64.0842 7.85875 Q67.9615 7.85875 71.3758 8.90042 Q74.8191 9.91314 77.8283 11.9675 Z" fill="#000000" fill-rule="nonzero" fill-opacity="1" /><path clip-path="url(#clip660)" d="M85.7855 6.87496 L90.4151 6.87496 Q94.7553 13.7036 96.8965 20.2429 Q99.0667 26.7823 99.0667 33.2348 Q99.0667 39.7162 96.8965 46.2845 Q94.7553 52.8527 90.4151 59.6525 L85.7855 59.6525 Q89.6338 53.0263 91.5146 46.487 Q93.4243 39.9188 93.4243 33.2348 Q93.4243 26.5508 91.5146 20.0404 Q89.6338 13.53 85.7855 6.87496 Z" fill="#000000" fill-rule="nonzero" fill-opacity="1" /><path clip-path="url(#clip660)" d="M128.812 8.64 L134.657 8.64 L134.657 26.3482 L155.895 26.3482 L155.895 8.64 L161.74 8.64 L161.74 51.84 L155.895 51.84 L155.895 31.2672 L134.657 31.2672 L134.657 51.84 L128.812 51.84 L128.812 8.64 Z" fill="#000000" fill-rule="nonzero" fill-opacity="1" /><path clip-path="url(#clip660)" d="M173.372 8.64 L198.198 8.64 L198.198 13.559 L179.217 13.559 L179.217 26.2904 L196.346 26.2904 L196.346 31.2093 L179.217 31.2093 L179.217 51.84 L173.372 51.84 L173.372 8.64 Z" fill="#000000" fill-rule="nonzero" fill-opacity="1" /><path clip-path="url(#clip660)" d="M249.384 20.677 L249.384 25.6538 Q247.127 24.4096 244.841 23.802 Q242.584 23.1654 240.27 23.1654 Q235.09 23.1654 232.226 26.464 Q229.361 29.7336 229.361 35.6653 Q229.361 41.597 232.226 44.8956 Q235.09 48.1653 240.27 48.1653 Q242.584 48.1653 244.841 47.5576 Q247.127 46.921 249.384 45.6768 L249.384 50.5958 Q247.156 51.6375 244.755 52.1583 Q242.382 52.6791 239.691 52.6791 Q232.37 52.6791 228.059 48.0784 Q223.748 43.4778 223.748 35.6653 Q223.748 27.7371 228.088 23.1943 Q232.457 18.6515 240.038 18.6515 Q242.498 18.6515 244.841 19.1724 Q247.185 19.6642 249.384 20.677 Z" fill="#000000" fill-rule="nonzero" fill-opacity="1" /><path clip-path="url(#clip660)" d="M271.201 23.1654 Q266.919 23.1654 264.43 26.5218 Q261.942 29.8494 261.942 35.6653 Q261.942 41.4813 264.401 44.8377 Q266.89 48.1653 271.201 48.1653 Q275.455 48.1653 277.943 44.8088 Q280.431 41.4523 280.431 35.6653 Q280.431 29.9072 277.943 26.5508 Q275.455 23.1654 271.201 23.1654 M271.201 18.6515 Q278.146 18.6515 282.11 23.1654 Q286.074 27.6792 286.074 35.6653 Q286.074 43.6225 282.11 48.1653 Q278.146 52.6791 271.201 52.6791 Q264.228 52.6791 260.264 48.1653 Q256.329 43.6225 256.329 35.6653 Q256.329 27.6792 260.264 23.1654 Q264.228 18.6515 271.201 18.6515 Z" fill="#000000" fill-rule="nonzero" fill-opacity="1" /><path clip-path="url(#clip660)" d="M322.619 34.3054 L322.619 36.9095 L298.14 36.9095 Q298.487 42.4072 301.438 45.3007 Q304.419 48.1653 309.714 48.1653 Q312.781 48.1653 315.645 47.4129 Q318.539 46.6606 321.374 45.156 L321.374 50.1907 Q318.51 51.406 315.501 52.0425 Q312.491 52.6791 309.395 52.6791 Q301.641 52.6791 297.098 48.1653 Q292.584 43.6514 292.584 35.9547 Q292.584 27.9975 296.867 23.339 Q301.178 18.6515 308.469 18.6515 Q315.009 18.6515 318.799 22.876 Q322.619 27.0716 322.619 34.3054 M317.295 32.7429 Q317.237 28.3737 314.835 25.7695 Q312.463 23.1654 308.527 23.1654 Q304.071 23.1654 301.38 25.6827 Q298.718 28.2001 298.313 32.7718 L317.295 32.7429 Z" fill="#000000" fill-rule="nonzero" fill-opacity="1" /><path clip-path="url(#clip660)" d="M347.763 6.81709 L347.763 11.2442 L342.671 11.2442 Q339.806 11.2442 338.678 12.4016 Q337.578 13.559 337.578 16.5682 L337.578 19.4328 L346.345 19.4328 L346.345 23.5705 L337.578 23.5705 L337.578 51.84 L332.225 51.84 L332.225 23.5705 L327.133 23.5705 L327.133 19.4328 L332.225 19.4328 L332.225 17.1758 Q332.225 11.765 334.742 9.30551 Q337.26 6.81709 342.729 6.81709 L347.763 6.81709 Z" fill="#000000" fill-rule="nonzero" fill-opacity="1" /><path clip-path="url(#clip660)" d="M368.625 6.81709 L368.625 11.2442 L363.533 11.2442 Q360.668 11.2442 359.54 12.4016 Q358.44 13.559 358.44 16.5682 L358.44 19.4328 L367.208 19.4328 L367.208 23.5705 L358.44 23.5705 L358.44 51.84 L353.087 51.84 L353.087 23.5705 L347.995 23.5705 L347.995 19.4328 L353.087 19.4328 L353.087 17.1758 Q353.087 11.765 355.605 9.30551 Q358.122 6.81709 363.591 6.81709 L368.625 6.81709 Z" fill="#000000" fill-rule="nonzero" fill-opacity="1" /><path clip-path="url(#clip660)" d="M373.081 19.4328 L378.405 19.4328 L378.405 51.84 L373.081 51.84 L373.081 19.4328 M373.081 6.81709 L378.405 6.81709 L378.405 13.559 L373.081 13.559 L373.081 6.81709 Z" fill="#000000" fill-rule="nonzero" fill-opacity="1" /><path clip-path="url(#clip660)" d="M412.867 20.677 L412.867 25.6538 Q410.61 24.4096 408.324 23.802 Q406.067 23.1654 403.753 23.1654 Q398.573 23.1654 395.709 26.464 Q392.844 29.7336 392.844 35.6653 Q392.844 41.597 395.709 44.8956 Q398.573 48.1653 403.753 48.1653 Q406.067 48.1653 408.324 47.5576 Q410.61 46.921 412.867 45.6768 L412.867 50.5958 Q410.639 51.6375 408.237 52.1583 Q405.865 52.6791 403.174 52.6791 Q395.853 52.6791 391.542 48.0784 Q387.231 43.4778 387.231 35.6653 Q387.231 27.7371 391.571 23.1943 Q395.94 18.6515 403.521 18.6515 Q405.981 18.6515 408.324 19.1724 Q410.668 19.6642 412.867 20.677 Z" fill="#000000" fill-rule="nonzero" fill-opacity="1" /><path clip-path="url(#clip660)" d="M422.126 19.4328 L427.45 19.4328 L427.45 51.84 L422.126 51.84 L422.126 19.4328 M422.126 6.81709 L427.45 6.81709 L427.45 13.559 L422.126 13.559 L422.126 6.81709 Z" fill="#000000" fill-rule="nonzero" fill-opacity="1" /><path clip-path="url(#clip660)" d="M466.31 34.3054 L466.31 36.9095 L441.831 36.9095 Q442.178 42.4072 445.13 45.3007 Q448.11 48.1653 453.405 48.1653 Q456.472 48.1653 459.337 47.4129 Q462.23 46.6606 465.066 45.156 L465.066 50.1907 Q462.201 51.406 459.192 52.0425 Q456.183 52.6791 453.087 52.6791 Q445.332 52.6791 440.789 48.1653 Q436.276 43.6514 436.276 35.9547 Q436.276 27.9975 440.558 23.339 Q444.869 18.6515 452.161 18.6515 Q458.7 18.6515 462.491 22.876 Q466.31 27.0716 466.31 34.3054 M460.986 32.7429 Q460.928 28.3737 458.527 25.7695 Q456.154 23.1654 452.219 23.1654 Q447.763 23.1654 445.072 25.6827 Q442.41 28.2001 442.005 32.7718 L460.986 32.7429 Z" fill="#000000" fill-rule="nonzero" fill-opacity="1" /><path clip-path="url(#clip660)" d="M501.987 32.2799 L501.987 51.84 L496.663 51.84 L496.663 32.4535 Q496.663 27.8529 494.869 25.567 Q493.075 23.2811 489.487 23.2811 Q485.176 23.2811 482.687 26.03 Q480.199 28.7788 480.199 33.5241 L480.199 51.84 L474.846 51.84 L474.846 19.4328 L480.199 19.4328 L480.199 24.4675 Q482.109 21.545 484.684 20.0983 Q487.288 18.6515 490.673 18.6515 Q496.258 18.6515 499.122 22.1237 Q501.987 25.567 501.987 32.2799 Z" fill="#000000" fill-rule="nonzero" fill-opacity="1" /><path clip-path="url(#clip660)" d="M517.872 10.2314 L517.872 19.4328 L528.839 19.4328 L528.839 23.5705 L517.872 23.5705 L517.872 41.163 Q517.872 45.1271 518.943 46.2555 Q520.042 47.384 523.37 47.384 L528.839 47.384 L528.839 51.84 L523.37 51.84 Q517.207 51.84 514.863 49.5541 Q512.519 47.2393 512.519 41.163 L512.519 23.5705 L508.613 23.5705 L508.613 19.4328 L512.519 19.4328 L512.519 10.2314 L517.872 10.2314 Z" fill="#000000" fill-rule="nonzero" fill-opacity="1" /><path clip-path="url(#clip660)" d="M569.406 35.5496 Q562.953 35.5496 560.465 37.0253 Q557.976 38.501 557.976 42.06 Q557.976 44.8956 559.828 46.5738 Q561.709 48.2231 564.921 48.2231 Q569.348 48.2231 572.01 45.0981 Q574.701 41.9442 574.701 36.7359 L574.701 35.5496 L569.406 35.5496 M580.025 33.3505 L580.025 51.84 L574.701 51.84 L574.701 46.921 Q572.878 49.8724 570.158 51.2902 Q567.438 52.6791 563.503 52.6791 Q558.526 52.6791 555.575 49.9014 Q552.652 47.0947 552.652 42.4072 Q552.652 36.9385 556.298 34.1607 Q559.973 31.3829 567.235 31.3829 L574.701 31.3829 L574.701 30.8621 Q574.701 27.1874 572.27 25.1908 Q569.869 23.1654 565.499 23.1654 Q562.722 23.1654 560.088 23.8309 Q557.455 24.4964 555.025 25.8274 L555.025 20.9085 Q557.947 19.78 560.696 19.2302 Q563.445 18.6515 566.049 18.6515 Q573.08 18.6515 576.553 22.2973 Q580.025 25.9431 580.025 33.3505 Z" fill="#000000" fill-rule="nonzero" fill-opacity="1" /><path clip-path="url(#clip660)" d="M607.397 6.81709 L607.397 11.2442 L602.305 11.2442 Q599.44 11.2442 598.312 12.4016 Q597.212 13.559 597.212 16.5682 L597.212 19.4328 L605.979 19.4328 L605.979 23.5705 L597.212 23.5705 L597.212 51.84 L591.859 51.84 L591.859 23.5705 L586.767 23.5705 L586.767 19.4328 L591.859 19.4328 L591.859 17.1758 Q591.859 11.765 594.377 9.30551 Q596.894 6.81709 602.363 6.81709 L607.397 6.81709 Z" fill="#000000" fill-rule="nonzero" fill-opacity="1" /><path clip-path="url(#clip660)" d="M616.078 10.2314 L616.078 19.4328 L627.044 19.4328 L627.044 23.5705 L616.078 23.5705 L616.078 41.163 Q616.078 45.1271 617.148 46.2555 Q618.248 47.384 621.575 47.384 L627.044 47.384 L627.044 51.84 L621.575 51.84 Q615.412 51.84 613.069 49.5541 Q610.725 47.2393 610.725 41.163 L610.725 23.5705 L606.819 23.5705 L606.819 19.4328 L610.725 19.4328 L610.725 10.2314 L616.078 10.2314 Z" fill="#000000" fill-rule="nonzero" fill-opacity="1" /><path clip-path="url(#clip660)" d="M661.766 34.3054 L661.766 36.9095 L637.287 36.9095 Q637.634 42.4072 640.586 45.3007 Q643.566 48.1653 648.861 48.1653 Q651.928 48.1653 654.793 47.4129 Q657.686 46.6606 660.522 45.156 L660.522 50.1907 Q657.657 51.406 654.648 52.0425 Q651.639 52.6791 648.543 52.6791 Q640.788 52.6791 636.245 48.1653 Q631.732 43.6514 631.732 35.9547 Q631.732 27.9975 636.014 23.339 Q640.325 18.6515 647.617 18.6515 Q654.156 18.6515 657.947 22.876 Q661.766 27.0716 661.766 34.3054 M656.442 32.7429 Q656.384 28.3737 653.983 25.7695 Q651.61 23.1654 647.675 23.1654 Q643.219 23.1654 640.528 25.6827 Q637.866 28.2001 637.461 32.7718 L656.442 32.7429 Z" fill="#000000" fill-rule="nonzero" fill-opacity="1" /><path clip-path="url(#clip660)" d="M689.283 24.4096 Q688.386 23.8888 687.316 23.6573 Q686.274 23.3969 685.001 23.3969 Q680.487 23.3969 678.057 26.3482 Q675.655 29.2707 675.655 34.7683 L675.655 51.84 L670.302 51.84 L670.302 19.4328 L675.655 19.4328 L675.655 24.4675 Q677.333 21.5161 680.024 20.0983 Q682.715 18.6515 686.564 18.6515 Q687.113 18.6515 687.779 18.7383 Q688.444 18.7962 689.254 18.9409 L689.283 24.4096 Z" fill="#000000" fill-rule="nonzero" fill-opacity="1" /><path clip-path="url(#clip660)" d="M734.364 20.3876 L734.364 25.4223 Q732.107 24.2649 729.677 23.6862 Q727.246 23.1075 724.642 23.1075 Q720.678 23.1075 718.681 24.3228 Q716.714 25.5381 716.714 27.9686 Q716.714 29.8204 718.132 30.891 Q719.549 31.9327 723.832 32.8876 L725.655 33.2926 Q731.326 34.5079 733.699 36.7359 Q736.1 38.935 736.1 42.8991 Q736.1 47.4129 732.512 50.046 Q728.953 52.6791 722.703 52.6791 Q720.099 52.6791 717.264 52.1583 Q714.457 51.6664 711.332 50.6537 L711.332 45.156 Q714.283 46.6896 717.148 47.4708 Q720.012 48.2231 722.819 48.2231 Q726.581 48.2231 728.606 46.95 Q730.632 45.6479 730.632 43.3042 Q730.632 41.134 729.156 39.9766 Q727.709 38.8192 722.761 37.7486 L720.909 37.3146 Q715.962 36.273 713.762 34.1318 Q711.563 31.9616 711.563 28.2001 Q711.563 23.6283 714.804 21.1399 Q718.045 18.6515 724.005 18.6515 Q726.957 18.6515 729.561 19.0855 Q732.165 19.5196 734.364 20.3876 Z" fill="#000000" fill-rule="nonzero" fill-opacity="1" /><path clip-path="url(#clip660)" d="M772.298 34.3054 L772.298 36.9095 L747.819 36.9095 Q748.166 42.4072 751.118 45.3007 Q754.098 48.1653 759.393 48.1653 Q762.46 48.1653 765.325 47.4129 Q768.218 46.6606 771.054 45.156 L771.054 50.1907 Q768.189 51.406 765.18 52.0425 Q762.171 52.6791 759.075 52.6791 Q751.32 52.6791 746.777 48.1653 Q742.263 43.6514 742.263 35.9547 Q742.263 27.9975 746.546 23.339 Q750.857 18.6515 758.149 18.6515 Q764.688 18.6515 768.479 22.876 Q772.298 27.0716 772.298 34.3054 M766.974 32.7429 Q766.916 28.3737 764.514 25.7695 Q762.142 23.1654 758.207 23.1654 Q753.751 23.1654 751.06 25.6827 Q748.398 28.2001 747.993 32.7718 L766.974 32.7429 Z" fill="#000000" fill-rule="nonzero" fill-opacity="1" /><path clip-path="url(#clip660)" d="M784.219 35.6653 Q784.219 41.5391 786.621 44.8956 Q789.051 48.2231 793.276 48.2231 Q797.5 48.2231 799.931 44.8956 Q802.362 41.5391 802.362 35.6653 Q802.362 29.7915 799.931 26.464 Q797.5 23.1075 793.276 23.1075 Q789.051 23.1075 786.621 26.464 Q784.219 29.7915 784.219 35.6653 M802.362 46.9789 Q800.683 49.8724 798.108 51.2902 Q795.562 52.6791 791.974 52.6791 Q786.1 52.6791 782.396 47.9916 Q778.722 43.3042 778.722 35.6653 Q778.722 28.0265 782.396 23.339 Q786.1 18.6515 791.974 18.6515 Q795.562 18.6515 798.108 20.0693 Q800.683 21.4582 802.362 24.3517 L802.362 19.4328 L807.686 19.4328 L807.686 64.1663 L802.362 64.1663 L802.362 46.9789 Z" fill="#000000" fill-rule="nonzero" fill-opacity="1" /><path clip-path="url(#clip660)" d="M818.102 39.0507 L818.102 19.4328 L823.426 19.4328 L823.426 38.8482 Q823.426 43.4488 825.22 45.7636 Q827.014 48.0495 830.602 48.0495 Q834.913 48.0495 837.402 45.3007 Q839.919 42.5519 839.919 37.8065 L839.919 19.4328 L845.243 19.4328 L845.243 51.84 L839.919 51.84 L839.919 46.8632 Q837.981 49.8145 835.405 51.2613 Q832.859 52.6791 829.474 52.6791 Q823.889 52.6791 820.996 49.2069 Q818.102 45.7347 818.102 39.0507 M831.499 18.6515 L831.499 18.6515 Z" fill="#000000" fill-rule="nonzero" fill-opacity="1" /><path clip-path="url(#clip660)" d="M883.929 34.3054 L883.929 36.9095 L859.45 36.9095 Q859.798 42.4072 862.749 45.3007 Q865.729 48.1653 871.024 48.1653 Q874.091 48.1653 876.956 47.4129 Q879.85 46.6606 882.685 45.156 L882.685 50.1907 Q879.821 51.406 876.811 52.0425 Q873.802 52.6791 870.706 52.6791 Q862.951 52.6791 858.409 48.1653 Q853.895 43.6514 853.895 35.9547 Q853.895 27.9975 858.177 23.339 Q862.488 18.6515 869.78 18.6515 Q876.319 18.6515 880.11 22.876 Q883.929 27.0716 883.929 34.3054 M878.605 32.7429 Q878.547 28.3737 876.146 25.7695 Q873.773 23.1654 869.838 23.1654 Q865.382 23.1654 862.691 25.6827 Q860.029 28.2001 859.624 32.7718 L878.605 32.7429 Z" fill="#000000" fill-rule="nonzero" fill-opacity="1" /><path clip-path="url(#clip660)" d="M919.606 32.2799 L919.606 51.84 L914.282 51.84 L914.282 32.4535 Q914.282 27.8529 912.488 25.567 Q910.694 23.2811 907.106 23.2811 Q902.795 23.2811 900.307 26.03 Q897.818 28.7788 897.818 33.5241 L897.818 51.84 L892.465 51.84 L892.465 19.4328 L897.818 19.4328 L897.818 24.4675 Q899.728 21.545 902.303 20.0983 Q904.907 18.6515 908.293 18.6515 Q913.877 18.6515 916.742 22.1237 Q919.606 25.567 919.606 32.2799 Z" fill="#000000" fill-rule="nonzero" fill-opacity="1" /><path clip-path="url(#clip660)" d="M935.492 10.2314 L935.492 19.4328 L946.458 19.4328 L946.458 23.5705 L935.492 23.5705 L935.492 41.163 Q935.492 45.1271 936.562 46.2555 Q937.662 47.384 940.989 47.384 L946.458 47.384 L946.458 51.84 L940.989 51.84 Q934.826 51.84 932.482 49.5541 Q930.139 47.2393 930.139 41.163 L930.139 23.5705 L926.232 23.5705 L926.232 19.4328 L930.139 19.4328 L930.139 10.2314 L935.492 10.2314 Z" fill="#000000" fill-rule="nonzero" fill-opacity="1" /><path clip-path="url(#clip660)" d="M953.46 19.4328 L958.784 19.4328 L958.784 51.84 L953.46 51.84 L953.46 19.4328 M953.46 6.81709 L958.784 6.81709 L958.784 13.559 L953.46 13.559 L953.46 6.81709 Z" fill="#000000" fill-rule="nonzero" fill-opacity="1" /><path clip-path="url(#clip660)" d="M984.652 35.5496 Q978.2 35.5496 975.711 37.0253 Q973.223 38.501 973.223 42.06 Q973.223 44.8956 975.075 46.5738 Q976.955 48.2231 980.167 48.2231 Q984.594 48.2231 987.256 45.0981 Q989.947 41.9442 989.947 36.7359 L989.947 35.5496 L984.652 35.5496 M995.271 33.3505 L995.271 51.84 L989.947 51.84 L989.947 46.921 Q988.124 49.8724 985.405 51.2902 Q982.685 52.6791 978.749 52.6791 Q973.773 52.6791 970.821 49.9014 Q967.899 47.0947 967.899 42.4072 Q967.899 36.9385 971.545 34.1607 Q975.219 31.3829 982.482 31.3829 L989.947 31.3829 L989.947 30.8621 Q989.947 27.1874 987.517 25.1908 Q985.115 23.1654 980.746 23.1654 Q977.968 23.1654 975.335 23.8309 Q972.702 24.4964 970.271 25.8274 L970.271 20.9085 Q973.194 19.78 975.943 19.2302 Q978.692 18.6515 981.296 18.6515 Q988.327 18.6515 991.799 22.2973 Q995.271 25.9431 995.271 33.3505 Z" fill="#000000" fill-rule="nonzero" fill-opacity="1" /><path clip-path="url(#clip660)" d="M1006.24 6.81709 L1011.56 6.81709 L1011.56 51.84 L1006.24 51.84 L1006.24 6.81709 Z" fill="#000000" fill-rule="nonzero" fill-opacity="1" /><path clip-path="url(#clip660)" d="M1056.27 35.5496 Q1049.81 35.5496 1047.33 37.0253 Q1044.84 38.501 1044.84 42.06 Q1044.84 44.8956 1046.69 46.5738 Q1048.57 48.2231 1051.78 48.2231 Q1056.21 48.2231 1058.87 45.0981 Q1061.56 41.9442 1061.56 36.7359 L1061.56 35.5496 L1056.27 35.5496 M1066.89 33.3505 L1066.89 51.84 L1061.56 51.84 L1061.56 46.921 Q1059.74 49.8724 1057.02 51.2902 Q1054.3 52.6791 1050.36 52.6791 Q1045.39 52.6791 1042.44 49.9014 Q1039.51 47.0947 1039.51 42.4072 Q1039.51 36.9385 1043.16 34.1607 Q1046.83 31.3829 1054.1 31.3829 L1061.56 31.3829 L1061.56 30.8621 Q1061.56 27.1874 1059.13 25.1908 Q1056.73 23.1654 1052.36 23.1654 Q1049.58 23.1654 1046.95 23.8309 Q1044.32 24.4964 1041.89 25.8274 L1041.89 20.9085 Q1044.81 19.78 1047.56 19.2302 Q1050.31 18.6515 1052.91 18.6515 Q1059.94 18.6515 1063.41 22.2973 Q1066.89 25.9431 1066.89 33.3505 Z" fill="#000000" fill-rule="nonzero" fill-opacity="1" /><path clip-path="url(#clip660)" d="M1099.18 24.3517 L1099.18 6.81709 L1104.5 6.81709 L1104.5 51.84 L1099.18 51.84 L1099.18 46.9789 Q1097.5 49.8724 1094.92 51.2902 Q1092.38 52.6791 1088.79 52.6791 Q1082.92 52.6791 1079.21 47.9916 Q1075.54 43.3042 1075.54 35.6653 Q1075.54 28.0265 1079.21 23.339 Q1082.92 18.6515 1088.79 18.6515 Q1092.38 18.6515 1094.92 20.0693 Q1097.5 21.4582 1099.18 24.3517 M1081.03 35.6653 Q1081.03 41.5391 1083.44 44.8956 Q1085.87 48.2231 1090.09 48.2231 Q1094.32 48.2231 1096.75 44.8956 Q1099.18 41.5391 1099.18 35.6653 Q1099.18 29.7915 1096.75 26.464 Q1094.32 23.1075 1090.09 23.1075 Q1085.87 23.1075 1083.44 26.464 Q1081.03 29.7915 1081.03 35.6653 Z" fill="#000000" fill-rule="nonzero" fill-opacity="1" /><path clip-path="url(#clip660)" d="M1115.47 19.4328 L1120.79 19.4328 L1120.79 52.4187 Q1120.79 58.6108 1118.42 61.3886 Q1116.08 64.1663 1110.84 64.1663 L1108.81 64.1663 L1108.81 59.6525 L1110.23 59.6525 Q1113.27 59.6525 1114.37 58.2346 Q1115.47 56.8458 1115.47 52.4187 L1115.47 19.4328 M1115.47 6.81709 L1120.79 6.81709 L1120.79 13.559 L1115.47 13.559 L1115.47 6.81709 Z" fill="#000000" fill-rule="nonzero" fill-opacity="1" /><path clip-path="url(#clip660)" d="M1131.38 39.0507 L1131.38 19.4328 L1136.71 19.4328 L1136.71 38.8482 Q1136.71 43.4488 1138.5 45.7636 Q1140.29 48.0495 1143.88 48.0495 Q1148.19 48.0495 1150.68 45.3007 Q1153.2 42.5519 1153.2 37.8065 L1153.2 19.4328 L1158.52 19.4328 L1158.52 51.84 L1153.2 51.84 L1153.2 46.8632 Q1151.26 49.8145 1148.68 51.2613 Q1146.14 52.6791 1142.75 52.6791 Q1137.17 52.6791 1134.28 49.2069 Q1131.38 45.7347 1131.38 39.0507 M1144.78 18.6515 L1144.78 18.6515 Z" fill="#000000" fill-rule="nonzero" fill-opacity="1" /><path clip-path="url(#clip660)" d="M1190.15 20.3876 L1190.15 25.4223 Q1187.89 24.2649 1185.46 23.6862 Q1183.03 23.1075 1180.43 23.1075 Q1176.46 23.1075 1174.47 24.3228 Q1172.5 25.5381 1172.5 27.9686 Q1172.5 29.8204 1173.92 30.891 Q1175.33 31.9327 1179.62 32.8876 L1181.44 33.2926 Q1187.11 34.5079 1189.48 36.7359 Q1191.88 38.935 1191.88 42.8991 Q1191.88 47.4129 1188.3 50.046 Q1184.74 52.6791 1178.49 52.6791 Q1175.88 52.6791 1173.05 52.1583 Q1170.24 51.6664 1167.12 50.6537 L1167.12 45.156 Q1170.07 46.6896 1172.93 47.4708 Q1175.8 48.2231 1178.6 48.2231 Q1182.37 48.2231 1184.39 46.95 Q1186.42 45.6479 1186.42 43.3042 Q1186.42 41.134 1184.94 39.9766 Q1183.49 38.8192 1178.55 37.7486 L1176.69 37.3146 Q1171.75 36.273 1169.55 34.1318 Q1167.35 31.9616 1167.35 28.2001 Q1167.35 23.6283 1170.59 21.1399 Q1173.83 18.6515 1179.79 18.6515 Q1182.74 18.6515 1185.35 19.0855 Q1187.95 19.5196 1190.15 20.3876 Z" fill="#000000" fill-rule="nonzero" fill-opacity="1" /><path clip-path="url(#clip660)" d="M1205.63 10.2314 L1205.63 19.4328 L1216.6 19.4328 L1216.6 23.5705 L1205.63 23.5705 L1205.63 41.163 Q1205.63 45.1271 1206.7 46.2555 Q1207.8 47.384 1211.13 47.384 L1216.6 47.384 L1216.6 51.84 L1211.13 51.84 Q1204.96 51.84 1202.62 49.5541 Q1200.28 47.2393 1200.28 41.163 L1200.28 23.5705 L1196.37 23.5705 L1196.37 19.4328 L1200.28 19.4328 L1200.28 10.2314 L1205.63 10.2314 Z" fill="#000000" fill-rule="nonzero" fill-opacity="1" /><path clip-path="url(#clip660)" d="M1248.83 25.6538 Q1250.83 22.0659 1253.6 20.3587 Q1256.38 18.6515 1260.14 18.6515 Q1265.21 18.6515 1267.96 22.2105 Q1270.7 25.7406 1270.7 32.2799 L1270.7 51.84 L1265.35 51.84 L1265.35 32.4535 Q1265.35 27.795 1263.7 25.5381 Q1262.05 23.2811 1258.67 23.2811 Q1254.53 23.2811 1252.13 26.03 Q1249.73 28.7788 1249.73 33.5241 L1249.73 51.84 L1244.37 51.84 L1244.37 32.4535 Q1244.37 27.7661 1242.72 25.5381 Q1241.07 23.2811 1237.63 23.2811 Q1233.55 23.2811 1231.15 26.0589 Q1228.75 28.8077 1228.75 33.5241 L1228.75 51.84 L1223.4 51.84 L1223.4 19.4328 L1228.75 19.4328 L1228.75 24.4675 Q1230.57 21.4872 1233.12 20.0693 Q1235.66 18.6515 1239.16 18.6515 Q1242.69 18.6515 1245.15 20.4455 Q1247.64 22.2395 1248.83 25.6538 Z" fill="#000000" fill-rule="nonzero" fill-opacity="1" /><path clip-path="url(#clip660)" d="M1309.04 34.3054 L1309.04 36.9095 L1284.56 36.9095 Q1284.91 42.4072 1287.86 45.3007 Q1290.84 48.1653 1296.14 48.1653 Q1299.2 48.1653 1302.07 47.4129 Q1304.96 46.6606 1307.8 45.156 L1307.8 50.1907 Q1304.93 51.406 1301.92 52.0425 Q1298.92 52.6791 1295.82 52.6791 Q1288.06 52.6791 1283.52 48.1653 Q1279.01 43.6514 1279.01 35.9547 Q1279.01 27.9975 1283.29 23.339 Q1287.6 18.6515 1294.89 18.6515 Q1301.43 18.6515 1305.22 22.876 Q1309.04 27.0716 1309.04 34.3054 M1303.72 32.7429 Q1303.66 28.3737 1301.26 25.7695 Q1298.89 23.1654 1294.95 23.1654 Q1290.5 23.1654 1287.8 25.6827 Q1285.14 28.2001 1284.74 32.7718 L1303.72 32.7429 Z" fill="#000000" fill-rule="nonzero" fill-opacity="1" /><path clip-path="url(#clip660)" d="M1344.72 32.2799 L1344.72 51.84 L1339.4 51.84 L1339.4 32.4535 Q1339.4 27.8529 1337.6 25.567 Q1335.81 23.2811 1332.22 23.2811 Q1327.91 23.2811 1325.42 26.03 Q1322.93 28.7788 1322.93 33.5241 L1322.93 51.84 L1317.58 51.84 L1317.58 19.4328 L1322.93 19.4328 L1322.93 24.4675 Q1324.84 21.545 1327.42 20.0983 Q1330.02 18.6515 1333.41 18.6515 Q1338.99 18.6515 1341.86 22.1237 Q1344.72 25.567 1344.72 32.2799 Z" fill="#000000" fill-rule="nonzero" fill-opacity="1" /><path clip-path="url(#clip660)" d="M1360.61 10.2314 L1360.61 19.4328 L1371.57 19.4328 L1371.57 23.5705 L1360.61 23.5705 L1360.61 41.163 Q1360.61 45.1271 1361.68 46.2555 Q1362.78 47.384 1366.1 47.384 L1371.57 47.384 L1371.57 51.84 L1366.1 51.84 Q1359.94 51.84 1357.6 49.5541 Q1355.25 47.2393 1355.25 41.163 L1355.25 23.5705 L1351.35 23.5705 L1351.35 19.4328 L1355.25 19.4328 L1355.25 10.2314 L1360.61 10.2314 Z" fill="#000000" fill-rule="nonzero" fill-opacity="1" /><polyline clip-path="url(#clip662)" style="stroke:#4682b4; stroke-linecap:round; stroke-linejoin:round; stroke-width:10; stroke-opacity:1; fill:none" points="370.268,483.296 587.825,445.867 805.382,431.641 1022.94,432.505 "/>
<circle clip-path="url(#clip662)" cx="370.268" cy="483.296" r="14.4" fill="#4682b4" fill-rule="evenodd" fill-opacity="1" stroke="#000000" stroke-opacity="1" stroke-width="1.76"/>
<circle clip-path="url(#clip662)" cx="587.825" cy="445.867" r="14.4" fill="#4682b4" fill-rule="evenodd" fill-opacity="1" stroke="#000000" stroke-opacity="1" stroke-width="1.76"/>
<circle clip-path="url(#clip662)" cx="805.382" cy="431.641" r="14.4" fill="#4682b4" fill-rule="evenodd" fill-opacity="1" stroke="#000000" stroke-opacity="1" stroke-width="1.76"/>
<circle clip-path="url(#clip662)" cx="1022.94" cy="432.505" r="14.4" fill="#4682b4" fill-rule="evenodd" fill-opacity="1" stroke="#000000" stroke-opacity="1" stroke-width="1.76"/>
<polyline clip-path="url(#clip662)" style="stroke:#4682b4; stroke-linecap:round; stroke-linejoin:round; stroke-width:6; stroke-opacity:1; fill:none" points="370.268,523.396 370.268,435.795 "/>
<polyline clip-path="url(#clip662)" style="stroke:#4682b4; stroke-linecap:round; stroke-linejoin:round; stroke-width:6; stroke-opacity:1; fill:none" points="587.825,498.71 587.825,395.079 "/>
<polyline clip-path="url(#clip662)" style="stroke:#4682b4; stroke-linecap:round; stroke-linejoin:round; stroke-width:6; stroke-opacity:1; fill:none" points="805.382,476.609 805.382,388.924 "/>
<polyline clip-path="url(#clip662)" style="stroke:#4682b4; stroke-linecap:round; stroke-linejoin:round; stroke-width:6; stroke-opacity:1; fill:none" points="1022.94,479.036 1022.94,387.901 "/>
<polyline clip-path="url(#clip662)" style="stroke:#ff8c00; stroke-linecap:round; stroke-linejoin:round; stroke-width:10; stroke-opacity:1; fill:none" points="370.268,281.641 587.825,313.235 805.382,343.342 1022.94,342.419 "/>
<circle clip-path="url(#clip662)" cx="370.268" cy="281.641" r="14.4" fill="#ff8c00" fill-rule="evenodd" fill-opacity="1" stroke="#000000" stroke-opacity="1" stroke-width="1.76"/>
<circle clip-path="url(#clip662)" cx="587.825" cy="313.235" r="14.4" fill="#ff8c00" fill-rule="evenodd" fill-opacity="1" stroke="#000000" stroke-opacity="1" stroke-width="1.76"/>
<circle clip-path="url(#clip662)" cx="805.382" cy="343.342" r="14.4" fill="#ff8c00" fill-rule="evenodd" fill-opacity="1" stroke="#000000" stroke-opacity="1" stroke-width="1.76"/>
<circle clip-path="url(#clip662)" cx="1022.94" cy="342.419" r="14.4" fill="#ff8c00" fill-rule="evenodd" fill-opacity="1" stroke="#000000" stroke-opacity="1" stroke-width="1.76"/>
<polyline clip-path="url(#clip662)" style="stroke:#ff8c00; stroke-linecap:round; stroke-linejoin:round; stroke-width:6; stroke-opacity:1; fill:none" points="370.268,337.388 370.268,229.563 "/>
<polyline clip-path="url(#clip662)" style="stroke:#ff8c00; stroke-linecap:round; stroke-linejoin:round; stroke-width:6; stroke-opacity:1; fill:none" points="587.825,371.771 587.825,256.106 "/>
<polyline clip-path="url(#clip662)" style="stroke:#ff8c00; stroke-linecap:round; stroke-linejoin:round; stroke-width:6; stroke-opacity:1; fill:none" points="805.382,384.222 805.382,302.026 "/>
<polyline clip-path="url(#clip662)" style="stroke:#ff8c00; stroke-linecap:round; stroke-linejoin:round; stroke-width:6; stroke-opacity:1; fill:none" points="1022.94,385.248 1022.94,299.925 "/>
<polyline clip-path="url(#clip662)" style="stroke:#999999; stroke-linecap:round; stroke-linejoin:round; stroke-width:4; stroke-opacity:1; fill:none" stroke-dasharray="16, 10" points="-341.143,387.325 1734.35,387.325 "/>
<path clip-path="url(#clip660)" d="M692.985 386.65 L1019.46 386.65 L1019.46 231.13 L692.985 231.13  Z" fill="#ffffff" fill-rule="evenodd" fill-opacity="1"/>
<polyline clip-path="url(#clip660)" style="stroke:#000000; stroke-linecap:round; stroke-linejoin:round; stroke-width:4; stroke-opacity:1; fill:none" points="692.985,386.65 1019.46,386.65 1019.46,231.13 692.985,231.13 692.985,386.65 "/>
<polyline clip-path="url(#clip660)" style="stroke:#4682b4; stroke-linecap:round; stroke-linejoin:round; stroke-width:10; stroke-opacity:1; fill:none" points="700.672,282.97 746.794,282.97 "/>
<circle clip-path="url(#clip660)" cx="723.733" cy="282.97" r="6.40585" fill="#4682b4" fill-rule="evenodd" fill-opacity="1" stroke="#000000" stroke-opacity="1" stroke-width="2.50311"/>
<path clip-path="url(#clip660)" d="M773.393 278.26 L773.393 264.232 L777.653 264.232 L777.653 300.25 L773.393 300.25 L773.393 296.362 Q772.051 298.676 769.991 299.811 Q767.953 300.922 765.083 300.922 Q760.384 300.922 757.421 297.172 Q754.481 293.422 754.481 287.311 Q754.481 281.2 757.421 277.45 Q760.384 273.7 765.083 273.7 Q767.953 273.7 769.991 274.834 Q772.051 275.945 773.393 278.26 M758.879 287.311 Q758.879 292.01 760.801 294.695 Q762.745 297.357 766.125 297.357 Q769.504 297.357 771.449 294.695 Q773.393 292.01 773.393 287.311 Q773.393 282.612 771.449 279.95 Q769.504 277.264 766.125 277.264 Q762.745 277.264 760.801 279.95 Q758.879 282.612 758.879 287.311 Z" fill="#000000" fill-rule="nonzero" fill-opacity="1" /><path clip-path="url(#clip660)" d="M808.601 286.223 L808.601 288.306 L789.018 288.306 Q789.296 292.704 791.657 295.019 Q794.041 297.311 798.277 297.311 Q800.731 297.311 803.023 296.709 Q805.338 296.107 807.606 294.903 L807.606 298.931 Q805.314 299.903 802.907 300.412 Q800.5 300.922 798.023 300.922 Q791.819 300.922 788.185 297.311 Q784.574 293.7 784.574 287.542 Q784.574 281.176 788 277.45 Q791.449 273.7 797.282 273.7 Q802.513 273.7 805.546 277.079 Q808.601 280.436 808.601 286.223 M804.342 284.973 Q804.296 281.477 802.375 279.394 Q800.476 277.311 797.328 277.311 Q793.764 277.311 791.611 279.325 Q789.481 281.339 789.157 284.996 L804.342 284.973 Z" fill="#000000" fill-rule="nonzero" fill-opacity="1" /><path clip-path="url(#clip660)" d="M834.249 275.32 L834.249 279.301 Q832.444 278.306 830.615 277.82 Q828.81 277.311 826.958 277.311 Q822.814 277.311 820.523 279.95 Q818.231 282.565 818.231 287.311 Q818.231 292.056 820.523 294.695 Q822.814 297.311 826.958 297.311 Q828.81 297.311 830.615 296.825 Q832.444 296.315 834.249 295.32 L834.249 299.255 Q832.467 300.088 830.546 300.505 Q828.648 300.922 826.495 300.922 Q820.638 300.922 817.189 297.241 Q813.74 293.561 813.74 287.311 Q813.74 280.968 817.212 277.334 Q820.708 273.7 826.773 273.7 Q828.74 273.7 830.615 274.116 Q832.49 274.51 834.249 275.32 Z" fill="#000000" fill-rule="nonzero" fill-opacity="1" /><path clip-path="url(#clip660)" d="M853.439 287.218 Q848.277 287.218 846.286 288.399 Q844.296 289.579 844.296 292.426 Q844.296 294.695 845.777 296.038 Q847.282 297.357 849.851 297.357 Q853.393 297.357 855.522 294.857 Q857.675 292.334 857.675 288.167 L857.675 287.218 L853.439 287.218 M861.934 285.459 L861.934 300.25 L857.675 300.25 L857.675 296.315 Q856.217 298.676 854.041 299.811 Q851.865 300.922 848.717 300.922 Q844.735 300.922 842.374 298.7 Q840.036 296.454 840.036 292.704 Q840.036 288.329 842.953 286.107 Q845.893 283.885 851.703 283.885 L857.675 283.885 L857.675 283.468 Q857.675 280.528 855.731 278.931 Q853.81 277.311 850.314 277.311 Q848.092 277.311 845.985 277.843 Q843.879 278.376 841.935 279.44 L841.935 275.505 Q844.273 274.602 846.472 274.163 Q848.671 273.7 850.754 273.7 Q856.379 273.7 859.157 276.616 Q861.934 279.533 861.934 285.459 Z" fill="#000000" fill-rule="nonzero" fill-opacity="1" /><path clip-path="url(#clip660)" d="M881.495 302.658 Q879.689 307.287 877.976 308.699 Q876.263 310.112 873.393 310.112 L869.99 310.112 L869.99 306.547 L872.49 306.547 Q874.249 306.547 875.221 305.713 Q876.194 304.88 877.374 301.778 L878.138 299.834 L867.652 274.325 L872.166 274.325 L880.268 294.602 L888.37 274.325 L892.883 274.325 L881.495 302.658 Z" fill="#000000" fill-rule="nonzero" fill-opacity="1" /><path clip-path="url(#clip660)" d="M918.462 308.121 L918.462 311.431 L893.832 311.431 L893.832 308.121 L918.462 308.121 Z" fill="#000000" fill-rule="nonzero" fill-opacity="1" /><path clip-path="url(#clip660)" d="M937.49 278.306 Q936.772 277.889 935.916 277.704 Q935.082 277.496 934.064 277.496 Q930.453 277.496 928.508 279.857 Q926.587 282.195 926.587 286.593 L926.587 300.25 L922.305 300.25 L922.305 274.325 L926.587 274.325 L926.587 278.352 Q927.929 275.991 930.082 274.857 Q932.235 273.7 935.314 273.7 Q935.754 273.7 936.286 273.769 Q936.818 273.815 937.466 273.931 L937.49 278.306 Z" fill="#000000" fill-rule="nonzero" fill-opacity="1" /><path clip-path="url(#clip660)" d="M953.74 287.218 Q948.578 287.218 946.587 288.399 Q944.596 289.579 944.596 292.426 Q944.596 294.695 946.078 296.038 Q947.582 297.357 950.152 297.357 Q953.693 297.357 955.823 294.857 Q957.976 292.334 957.976 288.167 L957.976 287.218 L953.74 287.218 M962.235 285.459 L962.235 300.25 L957.976 300.25 L957.976 296.315 Q956.517 298.676 954.341 299.811 Q952.165 300.922 949.017 300.922 Q945.036 300.922 942.675 298.7 Q940.337 296.454 940.337 292.704 Q940.337 288.329 943.253 286.107 Q946.193 283.885 952.003 283.885 L957.976 283.885 L957.976 283.468 Q957.976 280.528 956.031 278.931 Q954.11 277.311 950.615 277.311 Q948.392 277.311 946.286 277.843 Q944.179 278.376 942.235 279.44 L942.235 275.505 Q944.573 274.602 946.772 274.163 Q948.971 273.7 951.054 273.7 Q956.679 273.7 959.457 276.616 Q962.235 279.533 962.235 285.459 Z" fill="#000000" fill-rule="nonzero" fill-opacity="1" /><path clip-path="url(#clip660)" d="M975.221 266.964 L975.221 274.325 L983.994 274.325 L983.994 277.635 L975.221 277.635 L975.221 291.709 Q975.221 294.88 976.077 295.783 Q976.957 296.686 979.619 296.686 L983.994 296.686 L983.994 300.25 L979.619 300.25 Q974.688 300.25 972.813 298.422 Q970.939 296.57 970.939 291.709 L970.939 277.635 L967.814 277.635 L967.814 274.325 L970.939 274.325 L970.939 266.964 L975.221 266.964 Z" fill="#000000" fill-rule="nonzero" fill-opacity="1" /><path clip-path="url(#clip660)" d="M1011.77 286.223 L1011.77 288.306 L992.188 288.306 Q992.466 292.704 994.827 295.019 Q997.212 297.311 1001.45 297.311 Q1003.9 297.311 1006.19 296.709 Q1008.51 296.107 1010.78 294.903 L1010.78 298.931 Q1008.48 299.903 1006.08 300.412 Q1003.67 300.922 1001.19 300.922 Q994.989 300.922 991.355 297.311 Q987.744 293.7 987.744 287.542 Q987.744 281.176 991.17 277.45 Q994.619 273.7 1000.45 273.7 Q1005.68 273.7 1008.72 277.079 Q1011.77 280.436 1011.77 286.223 M1007.51 284.973 Q1007.47 281.477 1005.54 279.394 Q1003.65 277.311 1000.5 277.311 Q996.934 277.311 994.781 279.325 Q992.651 281.339 992.327 284.996 L1007.51 284.973 Z" fill="#000000" fill-rule="nonzero" fill-opacity="1" /><polyline clip-path="url(#clip660)" style="stroke:#ff8c00; stroke-linecap:round; stroke-linejoin:round; stroke-width:10; stroke-opacity:1; fill:none" points="700.672,334.81 746.794,334.81 "/>
<circle clip-path="url(#clip660)" cx="723.733" cy="334.81" r="6.40585" fill="#ff8c00" fill-rule="evenodd" fill-opacity="1" stroke="#000000" stroke-opacity="1" stroke-width="2.50311"/>
<path clip-path="url(#clip660)" d="M754.481 316.072 L758.741 316.072 L758.741 352.09 L754.481 352.09 L754.481 316.072 Z" fill="#000000" fill-rule="nonzero" fill-opacity="1" /><path clip-path="url(#clip660)" d="M777.699 329.151 Q774.273 329.151 772.282 331.836 Q770.291 334.498 770.291 339.151 Q770.291 343.803 772.259 346.489 Q774.25 349.151 777.699 349.151 Q781.102 349.151 783.092 346.465 Q785.083 343.78 785.083 339.151 Q785.083 334.544 783.092 331.859 Q781.102 329.151 777.699 329.151 M777.699 325.54 Q783.254 325.54 786.426 329.151 Q789.597 332.762 789.597 339.151 Q789.597 345.516 786.426 349.151 Q783.254 352.762 777.699 352.762 Q772.12 352.762 768.949 349.151 Q765.801 345.516 765.801 339.151 Q765.801 332.762 768.949 329.151 Q772.12 325.54 777.699 325.54 Z" fill="#000000" fill-rule="nonzero" fill-opacity="1" /><path clip-path="url(#clip660)" d="M813.717 338.827 Q813.717 334.197 811.796 331.651 Q809.898 329.104 806.449 329.104 Q803.023 329.104 801.101 331.651 Q799.203 334.197 799.203 338.827 Q799.203 343.433 801.101 345.979 Q803.023 348.526 806.449 348.526 Q809.898 348.526 811.796 345.979 Q813.717 343.433 813.717 338.827 M817.976 348.873 Q817.976 355.493 815.037 358.711 Q812.097 361.952 806.032 361.952 Q803.787 361.952 801.796 361.604 Q799.805 361.28 797.93 360.586 L797.93 356.442 Q799.805 357.461 801.634 357.947 Q803.463 358.433 805.361 358.433 Q809.55 358.433 811.634 356.234 Q813.717 354.058 813.717 349.637 L813.717 347.53 Q812.398 349.822 810.338 350.956 Q808.277 352.09 805.407 352.09 Q800.638 352.09 797.722 348.456 Q794.805 344.822 794.805 338.827 Q794.805 332.808 797.722 329.174 Q800.638 325.54 805.407 325.54 Q808.277 325.54 810.338 326.674 Q812.398 327.808 813.717 330.1 L813.717 326.165 L817.976 326.165 L817.976 348.873 Z" fill="#000000" fill-rule="nonzero" fill-opacity="1" /><path clip-path="url(#clip660)" d="M828.161 348.155 L835.8 348.155 L835.8 321.79 L827.49 323.456 L827.49 319.197 L835.754 317.53 L840.43 317.53 L840.43 348.155 L848.069 348.155 L848.069 352.09 L828.161 352.09 L828.161 348.155 Z" fill="#000000" fill-rule="nonzero" fill-opacity="1" /><path clip-path="url(#clip660)" d="M867.513 320.609 Q863.902 320.609 862.073 324.174 Q860.268 327.716 860.268 334.845 Q860.268 341.952 862.073 345.516 Q863.902 349.058 867.513 349.058 Q871.147 349.058 872.953 345.516 Q874.782 341.952 874.782 334.845 Q874.782 327.716 872.953 324.174 Q871.147 320.609 867.513 320.609 M867.513 316.905 Q873.323 316.905 876.379 321.512 Q879.458 326.095 879.458 334.845 Q879.458 343.572 876.379 348.178 Q873.323 352.762 867.513 352.762 Q861.703 352.762 858.624 348.178 Q855.569 343.572 855.569 334.845 Q855.569 326.095 858.624 321.512 Q861.703 316.905 867.513 316.905 Z" fill="#000000" fill-rule="nonzero" fill-opacity="1" /><path clip-path="url(#clip660)" d="M897.305 316.118 Q894.203 321.442 892.698 326.651 Q891.194 331.859 891.194 337.206 Q891.194 342.553 892.698 347.808 Q894.226 353.04 897.305 358.34 L893.601 358.34 Q890.129 352.901 888.393 347.646 Q886.68 342.391 886.68 337.206 Q886.68 332.044 888.393 326.813 Q890.106 321.581 893.601 316.118 L897.305 316.118 Z" fill="#000000" fill-rule="nonzero" fill-opacity="1" /><path clip-path="url(#clip660)" d="M931.633 320.192 L931.633 325.123 Q929.272 322.924 926.587 321.836 Q923.925 320.748 920.916 320.748 Q914.99 320.748 911.842 324.382 Q908.693 327.993 908.693 334.845 Q908.693 341.674 911.842 345.308 Q914.99 348.919 920.916 348.919 Q923.925 348.919 926.587 347.831 Q929.272 346.743 931.633 344.544 L931.633 349.428 Q929.179 351.095 926.425 351.928 Q923.693 352.762 920.638 352.762 Q912.791 352.762 908.277 347.97 Q903.763 343.155 903.763 334.845 Q903.763 326.512 908.277 321.72 Q912.791 316.905 920.638 316.905 Q923.74 316.905 926.471 317.739 Q929.226 318.549 931.633 320.192 Z" fill="#000000" fill-rule="nonzero" fill-opacity="1" /><path clip-path="url(#clip660)" d="M940.082 348.155 L947.721 348.155 L947.721 321.79 L939.411 323.456 L939.411 319.197 L947.675 317.53 L952.351 317.53 L952.351 348.155 L959.989 348.155 L959.989 352.09 L940.082 352.09 L940.082 348.155 Z" fill="#000000" fill-rule="nonzero" fill-opacity="1" /><path clip-path="url(#clip660)" d="M968.161 316.118 L971.864 316.118 Q975.337 321.581 977.05 326.813 Q978.786 332.044 978.786 337.206 Q978.786 342.391 977.05 347.646 Q975.337 352.901 971.864 358.34 L968.161 358.34 Q971.239 353.04 972.744 347.808 Q974.272 342.553 974.272 337.206 Q974.272 331.859 972.744 326.651 Q971.239 321.442 968.161 316.118 Z" fill="#000000" fill-rule="nonzero" fill-opacity="1" /></svg>
