<?xml version="1.0" encoding="utf-8"?>
<svg xmlns="http://www.w3.org/2000/svg" xmlns:xlink="http://www.w3.org/1999/xlink" width="360" height="242" viewBox="0 0 1440 968">
<defs>
  <clipPath id="clip660">
    <rect x="0" y="0" width="1440" height="968"/>
  </clipPath>
</defs>
<path clip-path="url(#clip660)" d="M0 968 L1440 968 L1440 1.13687e-13 L0 1.13687e-13  Z" fill="#ffffff" fill-rule="evenodd" fill-opacity="1"/>
<defs>
  <clipPath id="clip661">
    <rect x="257" y="332" width="1066" height="441"/>
  </clipPath>
</defs>
<path clip-path="url(#clip660)" d="M408.853 750.244 L1282.52 750.244 L1282.52 216.788 L408.853 216.788  Z" fill="#ffffff" fill-rule="evenodd" fill-opacity="1"/>
<defs>
  <clipPath id="clip662">
    <rect x="408" y="216" width="875" height="534"/>
  </clipPath>
</defs>
<polyline clip-path="url(#clip662)" style="stroke:#000000; stroke-linecap:round; stroke-linejoin:round; stroke-width:2; stroke-opacity:0.1; fill:none" points="507.893,750.244 507.893,216.788 "/>
<polyline clip-path="url(#clip662)" style="stroke:#000000; stroke-linecap:round; stroke-linejoin:round; stroke-width:2; stroke-opacity:0.1; fill:none" points="845.686,750.244 845.686,216.788 "/>
<polyline clip-path="url(#clip662)" style="stroke:#000000; stroke-linecap:round; stroke-linejoin:round; stroke-width:2; stroke-opacity:0.1; fill:none" points="1183.48,750.244 1183.48,216.788 "/>
<polyline clip-path="url(#clip662)" style="stroke:#000000; stroke-linecap:round; stroke-linejoin:round; stroke-width:2; stroke-opacity:0.1; fill:none" points="408.853,747.156 1282.52,747.156 "/>
<polyline clip-path="url(#clip662)" style="stroke:#000000; stroke-linecap:round; stroke-linejoin:round; stroke-width:2; stroke-opacity:0.1; fill:none" points="408.853,653.262 1282.52,653.262 "/>
<polyline clip-path="url(#clip662)" style="stroke:#000000; stroke-linecap:round; stroke-linejoin:round; stroke-width:2; stroke-opacity:0.1; fill:none" points="408.853,559.367 1282.52,559.367 "/>
<polyline clip-path="url(#clip662)" style="stroke:#000000; stroke-linecap:round; stroke-linejoin:round; stroke-width:2; stroke-opacity:0.1; fill:none" points="408.853,465.473 1282.52,465.473 "/>
<polyline clip-path="url(#clip662)" style="stroke:#000000; stroke-linecap:round; stroke-linejoin:round; stroke-width:2; stroke-opacity:0.1; fill:none" points="408.853,371.579 1282.52,371.579 "/>
<polyline clip-path="url(#clip662)" style="stroke:#000000; stroke-linecap:round; stroke-linejoin:round; stroke-width:2; stroke-opacity:0.1; fill:none" points="408.853,277.684 1282.52,277.684 "/>
<polyline clip-path="url(#clip660)" style="stroke:#000000; stroke-linecap:round; stroke-linejoin:round; stroke-width:4; stroke-opacity:1; fill:none" points="408.853,750.244 1282.52,750.244 "/>
<polyline clip-path="url(#clip660)" style="stroke:#000000; stroke-linecap:round; stroke-linejoin:round; stroke-width:4; stroke-opacity:1; fill:none" points="507.893,750.244 507.893,731.346 "/>
<polyline clip-path="url(#clip660)" style="stroke:#000000; stroke-linecap:round; stroke-linejoin:round; stroke-width:4; stroke-opacity:1; fill:none" points="845.686,750.244 845.686,731.346 "/>
<polyline clip-path="url(#clip660)" style="stroke:#000000; stroke-linecap:round; stroke-linejoin:round; stroke-width:4; stroke-opacity:1; fill:none" points="1183.48,750.244 1183.48,731.346 "/>
<path clip-path="url(#clip660)" d="M493.113 775.01 L486.771 792.209 L499.479 792.209 L493.113 775.01 M490.475 770.404 L495.775 770.404 L508.947 804.964 L504.086 804.964 L500.937 796.098 L485.359 796.098 L482.211 804.964 L477.28 804.964 L490.475 770.404 Z" fill="#000000" fill-rule="nonzero" fill-opacity="1" /><path clip-path="url(#clip660)" d="M518.669 788.459 L518.669 801.121 L526.169 801.121 Q529.942 801.121 531.747 799.57 Q533.576 797.996 533.576 794.779 Q533.576 791.538 531.747 790.01 Q529.942 788.459 526.169 788.459 L518.669 788.459 M518.669 774.246 L518.669 784.663 L525.59 784.663 Q529.016 784.663 530.683 783.39 Q532.372 782.093 532.372 779.455 Q532.372 776.839 530.683 775.543 Q529.016 774.246 525.59 774.246 L518.669 774.246 M513.993 770.404 L525.937 770.404 Q531.285 770.404 534.178 772.626 Q537.072 774.848 537.072 778.945 Q537.072 782.117 535.59 783.992 Q534.109 785.867 531.238 786.329 Q534.687 787.07 536.585 789.431 Q538.507 791.769 538.507 795.288 Q538.507 799.917 535.359 802.441 Q532.21 804.964 526.4 804.964 L513.993 804.964 L513.993 770.404 Z" fill="#000000" fill-rule="nonzero" fill-opacity="1" /><path clip-path="url(#clip660)" d="M817.932 770.404 L822.608 770.404 L822.608 784.57 L839.598 784.57 L839.598 770.404 L844.274 770.404 L844.274 804.964 L839.598 804.964 L839.598 788.505 L822.608 788.505 L822.608 804.964 L817.932 804.964 L817.932 770.404 Z" fill="#000000" fill-rule="nonzero" fill-opacity="1" /><path clip-path="url(#clip660)" d="M853.58 770.404 L873.441 770.404 L873.441 774.339 L858.256 774.339 L858.256 784.524 L871.959 784.524 L871.959 788.459 L858.256 788.459 L858.256 804.964 L853.58 804.964 L853.58 770.404 Z" fill="#000000" fill-rule="nonzero" fill-opacity="1" /><path clip-path="url(#clip660)" d="M1160.34 770.404 L1165.02 770.404 L1165.02 801.028 L1181.85 801.028 L1181.85 804.964 L1160.34 804.964 L1160.34 770.404 Z" fill="#000000" fill-rule="nonzero" fill-opacity="1" /><path clip-path="url(#clip660)" d="M1186.75 770.404 L1206.62 770.404 L1206.62 774.339 L1191.43 774.339 L1191.43 784.524 L1205.13 784.524 L1205.13 788.459 L1191.43 788.459 L1191.43 804.964 L1186.75 804.964 L1186.75 770.404 Z" fill="#000000" fill-rule="nonzero" fill-opacity="1" /><polyline clip-path="url(#clip660)" style="stroke:#000000; stroke-linecap:round; stroke-linejoin:round; stroke-width:4; stroke-opacity:1; fill:none" points="408.853,750.244 408.853,216.788 "/>
<polyline clip-path="url(#clip660)" style="stroke:#000000; stroke-linecap:round; stroke-linejoin:round; stroke-width:4; stroke-opacity:1; fill:none" points="408.853,747.156 427.75,747.156 "/>
<polyline clip-path="url(#clip660)" style="stroke:#000000; stroke-linecap:round; stroke-linejoin:round; stroke-width:4; stroke-opacity:1; fill:none" points="408.853,653.262 427.75,653.262 "/>
<polyline clip-path="url(#clip660)" style="stroke:#000000; stroke-linecap:round; stroke-linejoin:round; stroke-width:4; stroke-opacity:1; fill:none" points="408.853,559.367 427.75,559.367 "/>
<polyline clip-path="url(#clip660)" style="stroke:#000000; stroke-linecap:round; stroke-linejoin:round; stroke-width:4; stroke-opacity:1; fill:none" points="408.853,465.473 427.75,465.473 "/>
<polyline clip-path="url(#clip660)" style="stroke:#000000; stroke-linecap:round; stroke-linejoin:round; stroke-width:4; stroke-opacity:1; fill:none" points="408.853,371.579 427.75,371.579 "/>
<polyline clip-path="url(#clip660)" style="stroke:#000000; stroke-linecap:round; stroke-linejoin:round; stroke-width:4; stroke-opacity:1; fill:none" points="408.853,277.684 427.75,277.684 "/>
<path clip-path="url(#clip660)" d="M220.98 747.608 L250.656 747.608 L250.656 751.543 L220.98 751.543 L220.98 747.608 Z" fill="#000000" fill-rule="nonzero" fill-opacity="1" /><path clip-path="url(#clip660)" d="M270.749 732.955 Q267.138 732.955 265.309 736.52 Q263.503 740.061 263.503 747.191 Q263.503 754.297 265.309 757.862 Q267.138 761.404 270.749 761.404 Q274.383 761.404 276.188 757.862 Q278.017 754.297 278.017 747.191 Q278.017 740.061 276.188 736.52 Q274.383 732.955 270.749 732.955 M270.749 729.251 Q276.559 729.251 279.614 733.858 Q282.693 738.441 282.693 747.191 Q282.693 755.918 279.614 760.524 Q276.559 765.107 270.749 765.107 Q264.938 765.107 261.86 760.524 Q258.804 755.918 258.804 747.191 Q258.804 738.441 261.86 733.858 Q264.938 729.251 270.749 729.251 Z" fill="#000000" fill-rule="nonzero" fill-opacity="1" /><path clip-path="url(#clip660)" d="M290.911 758.557 L295.795 758.557 L295.795 764.436 L290.911 764.436 L290.911 758.557 Z" fill="#000000" fill-rule="nonzero" fill-opacity="1" /><path clip-path="url(#clip660)" d="M315.98 732.955 Q312.369 732.955 310.54 736.52 Q308.735 740.061 308.735 747.191 Q308.735 754.297 310.54 757.862 Q312.369 761.404 315.98 761.404 Q319.614 761.404 321.42 757.862 Q323.248 754.297 323.248 747.191 Q323.248 740.061 321.42 736.52 Q319.614 732.955 315.98 732.955 M315.98 729.251 Q321.79 729.251 324.846 733.858 Q327.924 738.441 327.924 747.191 Q327.924 755.918 324.846 760.524 Q321.79 765.107 315.98 765.107 Q310.17 765.107 307.091 760.524 Q304.035 755.918 304.035 747.191 Q304.035 738.441 307.091 733.858 Q310.17 729.251 315.98 729.251 Z" fill="#000000" fill-rule="nonzero" fill-opacity="1" /><path clip-path="url(#clip660)" d="M346.142 732.955 Q342.531 732.955 340.702 736.52 Q338.896 740.061 338.896 747.191 Q338.896 754.297 340.702 757.862 Q342.531 761.404 346.142 761.404 Q349.776 761.404 351.582 757.862 Q353.41 754.297 353.41 747.191 Q353.41 740.061 351.582 736.52 Q349.776 732.955 346.142 732.955 M346.142 729.251 Q351.952 729.251 355.007 733.858 Q358.086 738.441 358.086 747.191 Q358.086 755.918 355.007 760.524 Q351.952 765.107 346.142 765.107 Q340.332 765.107 337.253 760.524 Q334.197 755.918 334.197 747.191 Q334.197 738.441 337.253 733.858 Q340.332 729.251 346.142 729.251 Z" fill="#000000" fill-rule="nonzero" fill-opacity="1" /><path clip-path="url(#clip660)" d="M366.35 729.876 L384.706 729.876 L384.706 733.811 L370.632 733.811 L370.632 742.284 Q371.651 741.936 372.669 741.774 Q373.688 741.589 374.706 741.589 Q380.493 741.589 383.873 744.76 Q387.253 747.932 387.253 753.348 Q387.253 758.927 383.78 762.029 Q380.308 765.107 373.989 765.107 Q371.813 765.107 369.544 764.737 Q367.299 764.367 364.892 763.626 L364.892 758.927 Q366.975 760.061 369.197 760.617 Q371.419 761.172 373.896 761.172 Q377.901 761.172 380.239 759.066 Q382.577 756.959 382.577 753.348 Q382.577 749.737 380.239 747.631 Q377.901 745.524 373.896 745.524 Q372.021 745.524 370.146 745.941 Q368.294 746.358 366.35 747.237 L366.35 729.876 Z" fill="#000000" fill-rule="nonzero" fill-opacity="1" /><path clip-path="url(#clip660)" d="M269.753 639.06 Q266.142 639.06 264.313 642.625 Q262.508 646.167 262.508 653.296 Q262.508 660.403 264.313 663.968 Q266.142 667.509 269.753 667.509 Q273.388 667.509 275.193 663.968 Q277.022 660.403 277.022 653.296 Q277.022 646.167 275.193 642.625 Q273.388 639.06 269.753 639.06 M269.753 635.357 Q275.563 635.357 278.619 639.963 Q281.698 644.547 281.698 653.296 Q281.698 662.023 278.619 666.63 Q275.563 671.213 269.753 671.213 Q263.943 671.213 260.864 666.63 Q257.809 662.023 257.809 653.296 Q257.809 644.547 260.864 639.963 Q263.943 635.357 269.753 635.357 Z" fill="#000000" fill-rule="nonzero" fill-opacity="1" /><path clip-path="url(#clip660)" d="M289.915 664.662 L294.799 664.662 L294.799 670.542 L289.915 670.542 L289.915 664.662 Z" fill="#000000" fill-rule="nonzero" fill-opacity="1" /><path clip-path="url(#clip660)" d="M314.985 639.06 Q311.373 639.06 309.545 642.625 Q307.739 646.167 307.739 653.296 Q307.739 660.403 309.545 663.968 Q311.373 667.509 314.985 667.509 Q318.619 667.509 320.424 663.968 Q322.253 660.403 322.253 653.296 Q322.253 646.167 320.424 642.625 Q318.619 639.06 314.985 639.06 M314.985 635.357 Q320.795 635.357 323.85 639.963 Q326.929 644.547 326.929 653.296 Q326.929 662.023 323.85 666.63 Q320.795 671.213 314.985 671.213 Q309.174 671.213 306.096 666.63 Q303.04 662.023 303.04 653.296 Q303.04 644.547 306.096 639.963 Q309.174 635.357 314.985 635.357 Z" fill="#000000" fill-rule="nonzero" fill-opacity="1" /><path clip-path="url(#clip660)" d="M345.146 639.06 Q341.535 639.06 339.707 642.625 Q337.901 646.167 337.901 653.296 Q337.901 660.403 339.707 663.968 Q341.535 667.509 345.146 667.509 Q348.781 667.509 350.586 663.968 Q352.415 660.403 352.415 653.296 Q352.415 646.167 350.586 642.625 Q348.781 639.06 345.146 639.06 M345.146 635.357 Q350.957 635.357 354.012 639.963 Q357.091 644.547 357.091 653.296 Q357.091 662.023 354.012 666.63 Q350.957 671.213 345.146 671.213 Q339.336 671.213 336.258 666.63 Q333.202 662.023 333.202 653.296 Q333.202 644.547 336.258 639.963 Q339.336 635.357 345.146 635.357 Z" fill="#000000" fill-rule="nonzero" fill-opacity="1" /><path clip-path="url(#clip660)" d="M375.308 639.06 Q371.697 639.06 369.868 642.625 Q368.063 646.167 368.063 653.296 Q368.063 660.403 369.868 663.968 Q371.697 667.509 375.308 667.509 Q378.942 667.509 380.748 663.968 Q382.577 660.403 382.577 653.296 Q382.577 646.167 380.748 642.625 Q378.942 639.06 375.308 639.06 M375.308 635.357 Q381.118 635.357 384.174 639.963 Q387.253 644.547 387.253 653.296 Q387.253 662.023 384.174 666.63 Q381.118 671.213 375.308 671.213 Q369.498 671.213 366.419 666.63 Q363.364 662.023 363.364 653.296 Q363.364 644.547 366.419 639.963 Q369.498 635.357 375.308 635.357 Z" fill="#000000" fill-rule="nonzero" fill-opacity="1" /><path clip-path="url(#clip660)" d="M270.749 545.166 Q267.138 545.166 265.309 548.731 Q263.503 552.272 263.503 559.402 Q263.503 566.509 265.309 570.073 Q267.138 573.615 270.749 573.615 Q274.383 573.615 276.188 570.073 Q278.017 566.509 278.017 559.402 Q278.017 552.272 276.188 548.731 Q274.383 545.166 270.749 545.166 M270.749 541.462 Q276.559 541.462 279.614 546.069 Q282.693 550.652 282.693 559.402 Q282.693 568.129 279.614 572.735 Q276.559 577.319 270.749 577.319 Q264.938 577.319 261.86 572.735 Q258.804 568.129 258.804 559.402 Q258.804 550.652 261.86 546.069 Q264.938 541.462 270.749 541.462 Z" fill="#000000" fill-rule="nonzero" fill-opacity="1" /><path clip-path="url(#clip660)" d="M290.911 570.768 L295.795 570.768 L295.795 576.647 L290.911 576.647 L290.911 570.768 Z" fill="#000000" fill-rule="nonzero" fill-opacity="1" /><path clip-path="url(#clip660)" d="M315.98 545.166 Q312.369 545.166 310.54 548.731 Q308.735 552.272 308.735 559.402 Q308.735 566.509 310.54 570.073 Q312.369 573.615 315.98 573.615 Q319.614 573.615 321.42 570.073 Q323.248 566.509 323.248 559.402 Q323.248 552.272 321.42 548.731 Q319.614 545.166 315.98 545.166 M315.98 541.462 Q321.79 541.462 324.846 546.069 Q327.924 550.652 327.924 559.402 Q327.924 568.129 324.846 572.735 Q321.79 577.319 315.98 577.319 Q310.17 577.319 307.091 572.735 Q304.035 568.129 304.035 559.402 Q304.035 550.652 307.091 546.069 Q310.17 541.462 315.98 541.462 Z" fill="#000000" fill-rule="nonzero" fill-opacity="1" /><path clip-path="url(#clip660)" d="M346.142 545.166 Q342.531 545.166 340.702 548.731 Q338.896 552.272 338.896 559.402 Q338.896 566.509 340.702 570.073 Q342.531 573.615 346.142 573.615 Q349.776 573.615 351.582 570.073 Q353.41 566.509 353.41 559.402 Q353.41 552.272 351.582 548.731 Q349.776 545.166 346.142 545.166 M346.142 541.462 Q351.952 541.462 355.007 546.069 Q358.086 550.652 358.086 559.402 Q358.086 568.129 355.007 572.735 Q351.952 577.319 346.142 577.319 Q340.332 577.319 337.253 572.735 Q334.197 568.129 334.197 559.402 Q334.197 550.652 337.253 546.069 Q340.332 541.462 346.142 541.462 Z" fill="#000000" fill-rule="nonzero" fill-opacity="1" /><path clip-path="url(#clip660)" d="M366.35 542.087 L384.706 542.087 L384.706 546.023 L370.632 546.023 L370.632 554.495 Q371.651 554.147 372.669 553.985 Q373.688 553.8 374.706 553.8 Q380.493 553.8 383.873 556.972 Q387.253 560.143 387.253 565.559 Q387.253 571.138 383.78 574.24 Q380.308 577.319 373.989 577.319 Q371.813 577.319 369.544 576.948 Q367.299 576.578 364.892 575.837 L364.892 571.138 Q366.975 572.272 369.197 572.828 Q371.419 573.383 373.896 573.383 Q377.901 573.383 380.239 571.277 Q382.577 569.171 382.577 565.559 Q382.577 561.948 380.239 559.842 Q377.901 557.735 373.896 557.735 Q372.021 557.735 370.146 558.152 Q368.294 558.569 366.35 559.448 L366.35 542.087 Z" fill="#000000" fill-rule="nonzero" fill-opacity="1" /><path clip-path="url(#clip660)" d="M269.753 451.272 Q266.142 451.272 264.313 454.836 Q262.508 458.378 262.508 465.508 Q262.508 472.614 264.313 476.179 Q266.142 479.721 269.753 479.721 Q273.388 479.721 275.193 476.179 Q277.022 472.614 277.022 465.508 Q277.022 458.378 275.193 454.836 Q273.388 451.272 269.753 451.272 M269.753 447.568 Q275.563 447.568 278.619 452.174 Q281.698 456.758 281.698 465.508 Q281.698 474.234 278.619 478.841 Q275.563 483.424 269.753 483.424 Q263.943 483.424 260.864 478.841 Q257.809 474.234 257.809 465.508 Q257.809 456.758 260.864 452.174 Q263.943 447.568 269.753 447.568 Z" fill="#000000" fill-rule="nonzero" fill-opacity="1" /><path clip-path="url(#clip660)" d="M289.915 476.873 L294.799 476.873 L294.799 482.753 L289.915 482.753 L289.915 476.873 Z" fill="#000000" fill-rule="nonzero" fill-opacity="1" /><path clip-path="url(#clip660)" d="M314.985 451.272 Q311.373 451.272 309.545 454.836 Q307.739 458.378 307.739 465.508 Q307.739 472.614 309.545 476.179 Q311.373 479.721 314.985 479.721 Q318.619 479.721 320.424 476.179 Q322.253 472.614 322.253 465.508 Q322.253 458.378 320.424 454.836 Q318.619 451.272 314.985 451.272 M314.985 447.568 Q320.795 447.568 323.85 452.174 Q326.929 456.758 326.929 465.508 Q326.929 474.234 323.85 478.841 Q320.795 483.424 314.985 483.424 Q309.174 483.424 306.096 478.841 Q303.04 474.234 303.04 465.508 Q303.04 456.758 306.096 452.174 Q309.174 447.568 314.985 447.568 Z" fill="#000000" fill-rule="nonzero" fill-opacity="1" /><path clip-path="url(#clip660)" d="M335.957 478.818 L343.595 478.818 L343.595 452.452 L335.285 454.119 L335.285 449.86 L343.549 448.193 L348.225 448.193 L348.225 478.818 L355.864 478.818 L355.864 482.753 L335.957 482.753 L335.957 478.818 Z" fill="#000000" fill-rule="nonzero" fill-opacity="1" /><path clip-path="url(#clip660)" d="M375.308 451.272 Q371.697 451.272 369.868 454.836 Q368.063 458.378 368.063 465.508 Q368.063 472.614 369.868 476.179 Q371.697 479.721 375.308 479.721 Q378.942 479.721 380.748 476.179 Q382.577 472.614 382.577 465.508 Q382.577 458.378 380.748 454.836 Q378.942 451.272 375.308 451.272 M375.308 447.568 Q381.118 447.568 384.174 452.174 Q387.253 456.758 387.253 465.508 Q387.253 474.234 384.174 478.841 Q381.118 483.424 375.308 483.424 Q369.498 483.424 366.419 478.841 Q363.364 474.234 363.364 465.508 Q363.364 456.758 366.419 452.174 Q369.498 447.568 375.308 447.568 Z" fill="#000000" fill-rule="nonzero" fill-opacity="1" /><path clip-path="url(#clip660)" d="M270.749 357.377 Q267.138 357.377 265.309 360.942 Q263.503 364.484 263.503 371.613 Q263.503 378.72 265.309 382.284 Q267.138 385.826 270.749 385.826 Q274.383 385.826 276.188 382.284 Q278.017 378.72 278.017 371.613 Q278.017 364.484 276.188 360.942 Q274.383 357.377 270.749 357.377 M270.749 353.674 Q276.559 353.674 279.614 358.28 Q282.693 362.863 282.693 371.613 Q282.693 380.34 279.614 384.946 Q276.559 389.53 270.749 389.53 Q264.938 389.53 261.86 384.946 Q258.804 380.34 258.804 371.613 Q258.804 362.863 261.86 358.28 Q264.938 353.674 270.749 353.674 Z" fill="#000000" fill-rule="nonzero" fill-opacity="1" /><path clip-path="url(#clip660)" d="M290.911 382.979 L295.795 382.979 L295.795 388.859 L290.911 388.859 L290.911 382.979 Z" fill="#000000" fill-rule="nonzero" fill-opacity="1" /><path clip-path="url(#clip660)" d="M315.98 357.377 Q312.369 357.377 310.54 360.942 Q308.735 364.484 308.735 371.613 Q308.735 378.72 310.54 382.284 Q312.369 385.826 315.98 385.826 Q319.614 385.826 321.42 382.284 Q323.248 378.72 323.248 371.613 Q323.248 364.484 321.42 360.942 Q319.614 357.377 315.98 357.377 M315.98 353.674 Q321.79 353.674 324.846 358.28 Q327.924 362.863 327.924 371.613 Q327.924 380.34 324.846 384.946 Q321.79 389.53 315.98 389.53 Q310.17 389.53 307.091 384.946 Q304.035 380.34 304.035 371.613 Q304.035 362.863 307.091 358.28 Q310.17 353.674 315.98 353.674 Z" fill="#000000" fill-rule="nonzero" fill-opacity="1" /><path clip-path="url(#clip660)" d="M336.952 384.923 L344.591 384.923 L344.591 358.558 L336.281 360.224 L336.281 355.965 L344.545 354.299 L349.22 354.299 L349.22 384.923 L356.859 384.923 L356.859 388.859 L336.952 388.859 L336.952 384.923 Z" fill="#000000" fill-rule="nonzero" fill-opacity="1" /><path clip-path="url(#clip660)" d="M366.35 354.299 L384.706 354.299 L384.706 358.234 L370.632 358.234 L370.632 366.706 Q371.651 366.359 372.669 366.197 Q373.688 366.011 374.706 366.011 Q380.493 366.011 383.873 369.183 Q387.253 372.354 387.253 377.771 Q387.253 383.349 383.78 386.451 Q380.308 389.53 373.989 389.53 Q371.813 389.53 369.544 389.159 Q367.299 388.789 364.892 388.048 L364.892 383.349 Q366.975 384.484 369.197 385.039 Q371.419 385.595 373.896 385.595 Q377.901 385.595 380.239 383.488 Q382.577 381.382 382.577 377.771 Q382.577 374.16 380.239 372.053 Q377.901 369.947 373.896 369.947 Q372.021 369.947 370.146 370.363 Q368.294 370.78 366.35 371.66 L366.35 354.299 Z" fill="#000000" fill-rule="nonzero" fill-opacity="1" /><path clip-path="url(#clip660)" d="M269.753 263.483 Q266.142 263.483 264.313 267.048 Q262.508 270.589 262.508 277.719 Q262.508 284.825 264.313 288.39 Q266.142 291.932 269.753 291.932 Q273.388 291.932 275.193 288.39 Q277.022 284.825 277.022 277.719 Q277.022 270.589 275.193 267.048 Q273.388 263.483 269.753 263.483 M269.753 259.779 Q275.563 259.779 278.619 264.386 Q281.698 268.969 281.698 277.719 Q281.698 286.446 278.619 291.052 Q275.563 295.635 269.753 295.635 Q263.943 295.635 260.864 291.052 Q257.809 286.446 257.809 277.719 Q257.809 268.969 260.864 264.386 Q263.943 259.779 269.753 259.779 Z" fill="#000000" fill-rule="nonzero" fill-opacity="1" /><path clip-path="url(#clip660)" d="M289.915 289.084 L294.799 289.084 L294.799 294.964 L289.915 294.964 L289.915 289.084 Z" fill="#000000" fill-rule="nonzero" fill-opacity="1" /><path clip-path="url(#clip660)" d="M314.985 263.483 Q311.373 263.483 309.545 267.048 Q307.739 270.589 307.739 277.719 Q307.739 284.825 309.545 288.39 Q311.373 291.932 314.985 291.932 Q318.619 291.932 320.424 288.39 Q322.253 284.825 322.253 277.719 Q322.253 270.589 320.424 267.048 Q318.619 263.483 314.985 263.483 M314.985 259.779 Q320.795 259.779 323.85 264.386 Q326.929 268.969 326.929 277.719 Q326.929 286.446 323.85 291.052 Q320.795 295.635 314.985 295.635 Q309.174 295.635 306.096 291.052 Q303.04 286.446 303.04 277.719 Q303.04 268.969 306.096 264.386 Q309.174 259.779 314.985 259.779 Z" fill="#000000" fill-rule="nonzero" fill-opacity="1" /><path clip-path="url(#clip660)" d="M339.174 291.029 L355.494 291.029 L355.494 294.964 L333.549 294.964 L333.549 291.029 Q336.211 288.274 340.795 283.645 Q345.401 278.992 346.582 277.649 Q348.827 275.126 349.707 273.39 Q350.609 271.631 350.609 269.941 Q350.609 267.186 348.665 265.45 Q346.744 263.714 343.642 263.714 Q341.443 263.714 338.989 264.478 Q336.558 265.242 333.781 266.793 L333.781 262.071 Q336.605 260.936 339.058 260.358 Q341.512 259.779 343.549 259.779 Q348.92 259.779 352.114 262.464 Q355.308 265.149 355.308 269.64 Q355.308 271.77 354.498 273.691 Q353.711 275.589 351.605 278.182 Q351.026 278.853 347.924 282.071 Q344.822 285.265 339.174 291.029 Z" fill="#000000" fill-rule="nonzero" fill-opacity="1" /><path clip-path="url(#clip660)" d="M375.308 263.483 Q371.697 263.483 369.868 267.048 Q368.063 270.589 368.063 277.719 Q368.063 284.825 369.868 288.39 Q371.697 291.932 375.308 291.932 Q378.942 291.932 380.748 288.39 Q382.577 284.825 382.577 277.719 Q382.577 270.589 380.748 267.048 Q378.942 263.483 375.308 263.483 M375.308 259.779 Q381.118 259.779 384.174 264.386 Q387.253 268.969 387.253 277.719 Q387.253 286.446 384.174 291.052 Q381.118 295.635 375.308 295.635 Q369.498 295.635 366.419 291.052 Q363.364 286.446 363.364 277.719 Q363.364 268.969 366.419 264.386 Q369.498 259.779 375.308 259.779 Z" fill="#000000" fill-rule="nonzero" fill-opacity="1" /><path clip-path="url(#clip660)" d="M162.977 658.854 L147.196 658.854 L147.196 654.062 L187.716 654.062 L187.716 658.854 L183.341 658.854 Q185.946 660.364 187.222 662.682 Q188.472 664.973 188.472 668.203 Q188.472 673.489 184.253 676.822 Q180.034 680.13 173.159 680.13 Q166.284 680.13 162.065 676.822 Q157.847 673.489 157.847 668.203 Q157.847 664.973 159.123 662.682 Q160.373 660.364 162.977 658.854 M173.159 675.182 Q178.446 675.182 181.466 673.02 Q184.461 670.833 184.461 667.031 Q184.461 663.229 181.466 661.041 Q178.446 658.854 173.159 658.854 Q167.873 658.854 164.878 661.041 Q161.857 663.229 161.857 667.031 Q161.857 670.833 164.878 673.02 Q167.873 675.182 173.159 675.182 Z" fill="#000000" fill-rule="nonzero" fill-opacity="1" /><path clip-path="url(#clip660)" d="M171.935 602.291 L174.279 602.291 L174.279 624.323 Q179.227 624.01 181.831 621.354 Q184.409 618.672 184.409 613.906 Q184.409 611.146 183.732 608.567 Q183.055 605.963 181.701 603.411 L186.232 603.411 Q187.326 605.989 187.899 608.698 Q188.472 611.406 188.472 614.192 Q188.472 621.172 184.409 625.26 Q180.347 629.323 173.42 629.323 Q166.258 629.323 162.065 625.468 Q157.847 621.588 157.847 615.026 Q157.847 609.14 161.649 605.729 Q165.425 602.291 171.935 602.291 M170.529 607.083 Q166.597 607.135 164.253 609.297 Q161.909 611.432 161.909 614.974 Q161.909 618.984 164.175 621.406 Q166.44 623.802 170.555 624.166 L170.529 607.083 Z" fill="#000000" fill-rule="nonzero" fill-opacity="1" /><path clip-path="url(#clip660)" d="M150.269 589.687 L158.55 589.687 L158.55 579.818 L162.274 579.818 L162.274 589.687 L178.107 589.687 Q181.675 589.687 182.69 588.724 Q183.706 587.734 183.706 584.739 L183.706 579.818 L187.716 579.818 L187.716 584.739 Q187.716 590.286 185.659 592.396 Q183.576 594.505 178.107 594.505 L162.274 594.505 L162.274 598.021 L158.55 598.021 L158.55 594.505 L150.269 594.505 L150.269 589.687 Z" fill="#000000" fill-rule="nonzero" fill-opacity="1" /><path clip-path="url(#clip660)" d="M173.055 560.26 Q173.055 566.068 174.383 568.307 Q175.711 570.547 178.914 570.547 Q181.466 570.547 182.977 568.88 Q184.461 567.187 184.461 564.297 Q184.461 560.312 181.649 557.917 Q178.81 555.495 174.123 555.495 L173.055 555.495 L173.055 560.26 M171.076 550.703 L187.716 550.703 L187.716 555.495 L183.289 555.495 Q185.946 557.135 187.222 559.583 Q188.472 562.031 188.472 565.573 Q188.472 570.052 185.972 572.708 Q183.446 575.338 179.227 575.338 Q174.305 575.338 171.805 572.057 Q169.305 568.75 169.305 562.213 L169.305 555.495 L168.836 555.495 Q165.529 555.495 163.732 557.682 Q161.909 559.844 161.909 563.776 Q161.909 566.276 162.508 568.646 Q163.107 571.016 164.305 573.203 L159.878 573.203 Q158.862 570.573 158.368 568.099 Q157.847 565.625 157.847 563.281 Q157.847 556.953 161.128 553.828 Q164.409 550.703 171.076 550.703 Z" fill="#000000" fill-rule="nonzero" fill-opacity="1" /><path clip-path="url(#clip660)" d="M148.836 515.365 L148.836 510.938 L192.664 524.479 L192.664 528.906 L148.836 515.365 Z" fill="#000000" fill-rule="nonzero" fill-opacity="1" /><path clip-path="url(#clip660)" d="M162.977 469.766 L147.196 469.766 L147.196 464.974 L187.716 464.974 L187.716 469.766 L183.341 469.766 Q185.946 471.276 187.222 473.594 Q188.472 475.886 188.472 479.115 Q188.472 484.401 184.253 487.735 Q180.034 491.042 173.159 491.042 Q166.284 491.042 162.065 487.735 Q157.847 484.401 157.847 479.115 Q157.847 475.886 159.123 473.594 Q160.373 471.276 162.977 469.766 M173.159 486.094 Q178.446 486.094 181.466 483.933 Q184.461 481.745 184.461 477.943 Q184.461 474.141 181.466 471.954 Q178.446 469.766 173.159 469.766 Q167.873 469.766 164.878 471.954 Q161.857 474.141 161.857 477.943 Q161.857 481.745 164.878 483.933 Q167.873 486.094 173.159 486.094 Z" fill="#000000" fill-rule="nonzero" fill-opacity="1" /><path clip-path="url(#clip660)" d="M159.409 419.558 L163.94 419.558 Q162.899 421.589 162.378 423.777 Q161.857 425.964 161.857 428.308 Q161.857 431.876 162.951 433.673 Q164.045 435.443 166.232 435.443 Q167.899 435.443 168.862 434.167 Q169.8 432.891 170.659 429.037 L171.024 427.397 Q172.118 422.292 174.123 420.157 Q176.102 417.996 179.67 417.996 Q183.732 417.996 186.102 421.225 Q188.472 424.428 188.472 430.053 Q188.472 432.396 188.003 434.949 Q187.56 437.475 186.649 440.287 L181.701 440.287 Q183.081 437.631 183.784 435.053 Q184.461 432.475 184.461 429.949 Q184.461 426.563 183.315 424.74 Q182.143 422.917 180.034 422.917 Q178.081 422.917 177.039 424.245 Q175.998 425.548 175.034 430.001 L174.644 431.667 Q173.706 436.12 171.779 438.1 Q169.826 440.079 166.44 440.079 Q162.326 440.079 160.086 437.162 Q157.847 434.245 157.847 428.881 Q157.847 426.225 158.237 423.881 Q158.628 421.537 159.409 419.558 Z" fill="#000000" fill-rule="nonzero" fill-opacity="1" /><path clip-path="url(#clip660)" d="M183.341 405.73 L198.81 405.73 L198.81 410.548 L158.55 410.548 L158.55 405.73 L162.977 405.73 Q160.373 404.22 159.123 401.928 Q157.847 399.61 157.847 396.407 Q157.847 391.095 162.065 387.787 Q166.284 384.454 173.159 384.454 Q180.034 384.454 184.253 387.787 Q188.472 391.095 188.472 396.407 Q188.472 399.61 187.222 401.928 Q185.946 404.22 183.341 405.73 M173.159 389.428 Q167.873 389.428 164.878 391.615 Q161.857 393.777 161.857 397.579 Q161.857 401.381 164.878 403.569 Q167.873 405.73 173.159 405.73 Q178.446 405.73 181.466 403.569 Q184.461 401.381 184.461 397.579 Q184.461 393.777 181.466 391.615 Q178.446 389.428 173.159 389.428 Z" fill="#000000" fill-rule="nonzero" fill-opacity="1" /><path clip-path="url(#clip660)" d="M171.935 351.564 L174.279 351.564 L174.279 373.595 Q179.227 373.282 181.831 370.626 Q184.409 367.944 184.409 363.178 Q184.409 360.418 183.732 357.84 Q183.055 355.235 181.701 352.683 L186.232 352.683 Q187.326 355.261 187.899 357.97 Q188.472 360.678 188.472 363.465 Q188.472 370.444 184.409 374.532 Q180.347 378.595 173.42 378.595 Q166.258 378.595 162.065 374.741 Q157.847 370.86 157.847 364.298 Q157.847 358.413 161.649 355.001 Q165.425 351.564 171.935 351.564 M170.529 356.355 Q166.597 356.407 164.253 358.569 Q161.909 360.704 161.909 364.246 Q161.909 368.256 164.175 370.678 Q166.44 373.074 170.555 373.438 L170.529 356.355 Z" fill="#000000" fill-rule="nonzero" fill-opacity="1" /><path clip-path="url(#clip660)" d="M171.935 318.751 L174.279 318.751 L174.279 340.782 Q179.227 340.47 181.831 337.814 Q184.409 335.131 184.409 330.366 Q184.409 327.605 183.732 325.027 Q183.055 322.423 181.701 319.871 L186.232 319.871 Q187.326 322.449 187.899 325.157 Q188.472 327.866 188.472 330.652 Q188.472 337.631 184.409 341.72 Q180.347 345.782 173.42 345.782 Q166.258 345.782 162.065 341.928 Q157.847 338.048 157.847 331.486 Q157.847 325.6 161.649 322.189 Q165.425 318.751 171.935 318.751 M170.529 323.543 Q166.597 323.595 164.253 325.756 Q161.909 327.892 161.909 331.433 Q161.909 335.444 164.175 337.866 Q166.44 340.262 170.555 340.626 L170.529 323.543 Z" fill="#000000" fill-rule="nonzero" fill-opacity="1" /><path clip-path="url(#clip660)" d="M162.977 291.694 L147.196 291.694 L147.196 286.902 L187.716 286.902 L187.716 291.694 L183.341 291.694 Q185.946 293.205 187.222 295.522 Q188.472 297.814 188.472 301.043 Q188.472 306.329 184.253 309.663 Q180.034 312.97 173.159 312.97 Q166.284 312.97 162.065 309.663 Q157.847 306.329 157.847 301.043 Q157.847 297.814 159.123 295.522 Q160.373 293.205 162.977 291.694 M173.159 308.022 Q178.446 308.022 181.466 305.861 Q184.461 303.673 184.461 299.871 Q184.461 296.069 181.466 293.882 Q178.446 291.694 173.159 291.694 Q167.873 291.694 164.878 293.882 Q161.857 296.069 161.857 299.871 Q161.857 303.673 164.878 305.861 Q167.873 308.022 173.159 308.022 Z" fill="#000000" fill-rule="nonzero" fill-opacity="1" /><path clip-path="url(#clip660)" d="M443.909 6.87496 Q440.032 13.53 438.151 20.0404 Q436.27 26.5508 436.27 33.2348 Q436.27 39.9188 438.151 46.487 Q440.06 53.0263 443.909 59.6525 L439.279 59.6525 Q434.939 52.8527 432.769 46.2845 Q430.628 39.7162 430.628 33.2348 Q430.628 26.7823 432.769 20.2429 Q434.91 13.7036 439.279 6.87496 L443.909 6.87496 Z" fill="#000000" fill-rule="nonzero" fill-opacity="1" /><path clip-path="url(#clip660)" d="M460.315 31.2093 L460.315 47.0368 L469.69 47.0368 Q474.406 47.0368 476.663 45.0981 Q478.949 43.1306 478.949 39.1086 Q478.949 35.0577 476.663 33.148 Q474.406 31.2093 469.69 31.2093 L460.315 31.2093 M460.315 13.4432 L460.315 26.464 L468.967 26.464 Q473.249 26.464 475.332 24.8726 Q477.444 23.2522 477.444 19.9536 Q477.444 16.6839 475.332 15.0636 Q473.249 13.4432 468.967 13.4432 L460.315 13.4432 M454.47 8.64 L469.401 8.64 Q476.085 8.64 479.701 11.4178 Q483.318 14.1955 483.318 19.317 Q483.318 23.2811 481.466 25.6249 Q479.615 27.9686 476.027 28.5473 Q480.338 29.4732 482.711 32.4246 Q485.112 35.347 485.112 39.7452 Q485.112 45.5322 481.177 48.6861 Q477.242 51.84 469.979 51.84 L454.47 51.84 L454.47 8.64 Z" fill="#000000" fill-rule="nonzero" fill-opacity="1" /><path clip-path="url(#clip660)" d="M496.657 46.921 L506.206 46.921 L506.206 13.964 L495.818 16.0474 L495.818 10.7233 L506.148 8.64 L511.993 8.64 L511.993 46.921 L521.541 46.921 L521.541 51.84 L496.657 51.84 L496.657 46.921 Z" fill="#000000" fill-rule="nonzero" fill-opacity="1" /><path clip-path="url(#clip660)" d="M531.756 6.87496 L536.385 6.87496 Q540.725 13.7036 542.867 20.2429 Q545.037 26.7823 545.037 33.2348 Q545.037 39.7162 542.867 46.2845 Q540.725 52.8527 536.385 59.6525 L531.756 59.6525 Q535.604 53.0263 537.485 46.487 Q539.394 39.9188 539.394 33.2348 Q539.394 26.5508 537.485 20.0404 Q535.604 13.53 531.756 6.87496 Z" fill="#000000" fill-rule="nonzero" fill-opacity="1" /><path clip-path="url(#clip660)" d="M600.679 10.0578 L600.679 15.758 Q597.351 14.1666 594.4 13.3853 Q591.449 12.6041 588.7 12.6041 Q583.925 12.6041 581.321 14.4559 Q578.746 16.3078 578.746 19.7221 Q578.746 22.5867 580.453 24.0624 Q582.189 25.5091 586.993 26.4061 L590.523 27.1295 Q597.062 28.3737 600.158 31.5276 Q603.283 34.6526 603.283 39.9188 Q603.283 46.1977 599.058 49.4384 Q594.863 52.6791 586.732 52.6791 Q583.665 52.6791 580.193 51.9847 Q576.75 51.2902 573.046 49.9303 L573.046 43.9118 Q576.605 45.9083 580.019 46.921 Q583.434 47.9338 586.732 47.9338 Q591.738 47.9338 594.458 45.9662 Q597.178 43.9986 597.178 40.3528 Q597.178 37.1699 595.21 35.376 Q593.271 33.582 588.815 32.685 L585.256 31.9906 Q578.717 30.6885 575.795 27.9107 Q572.872 25.133 572.872 20.1851 Q572.872 14.4559 576.894 11.1573 Q580.945 7.85875 588.034 7.85875 Q591.072 7.85875 594.226 8.40852 Q597.38 8.95829 600.679 10.0578 Z" fill="#000000" fill-rule="nonzero" fill-opacity="1" /><path clip-path="url(#clip660)" d="M617.316 46.9789 L617.316 64.1663 L611.963 64.1663 L611.963 19.4328 L617.316 19.4328 L617.316 24.3517 Q618.995 21.4582 621.541 20.0693 Q624.116 18.6515 627.675 18.6515 Q633.578 18.6515 637.253 23.339 Q640.956 28.0265 640.956 35.6653 Q640.956 43.3042 637.253 47.9916 Q633.578 52.6791 627.675 52.6791 Q624.116 52.6791 621.541 51.2902 Q618.995 49.8724 617.316 46.9789 M635.43 35.6653 Q635.43 29.7915 632.999 26.464 Q630.598 23.1075 626.373 23.1075 Q622.149 23.1075 619.718 26.464 Q617.316 29.7915 617.316 35.6653 Q617.316 41.5391 619.718 44.8956 Q622.149 48.2231 626.373 48.2231 Q630.598 48.2231 632.999 44.8956 Q635.43 41.5391 635.43 35.6653 Z" fill="#000000" fill-rule="nonzero" fill-opacity="1" /><path clip-path="url(#clip660)" d="M677.501 34.3054 L677.501 36.9095 L653.022 36.9095 Q653.369 42.4072 656.321 45.3007 Q659.301 48.1653 664.596 48.1653 Q667.663 48.1653 670.528 47.4129 Q673.421 46.6606 676.257 45.156 L676.257 50.1907 Q673.393 51.406 670.383 52.0425 Q667.374 52.6791 664.278 52.6791 Q656.523 52.6791 651.981 48.1653 Q647.467 43.6514 647.467 35.9547 Q647.467 27.9975 651.749 23.339 Q656.06 18.6515 663.352 18.6515 Q669.891 18.6515 673.682 22.876 Q677.501 27.0716 677.501 34.3054 M672.177 32.7429 Q672.119 28.3737 669.718 25.7695 Q667.345 23.1654 663.41 23.1654 Q658.954 23.1654 656.263 25.6827 Q653.601 28.2001 653.196 32.7718 L672.177 32.7429 Z" fill="#000000" fill-rule="nonzero" fill-opacity="1" /><path clip-path="url(#clip660)" d="M713.959 34.3054 L713.959 36.9095 L689.48 36.9095 Q689.828 42.4072 692.779 45.3007 Q695.759 48.1653 701.054 48.1653 Q704.122 48.1653 706.986 47.4129 Q709.88 46.6606 712.715 45.156 L712.715 50.1907 Q709.851 51.406 706.841 52.0425 Q703.832 52.6791 700.736 52.6791 Q692.982 52.6791 688.439 48.1653 Q683.925 43.6514 683.925 35.9547 Q683.925 27.9975 688.207 23.339 Q692.519 18.6515 699.81 18.6515 Q706.35 18.6515 710.14 22.876 Q713.959 27.0716 713.959 34.3054 M708.635 32.7429 Q708.578 28.3737 706.176 25.7695 Q703.803 23.1654 699.868 23.1654 Q695.412 23.1654 692.721 25.6827 Q690.059 28.2001 689.654 32.7718 L708.635 32.7429 Z" fill="#000000" fill-rule="nonzero" fill-opacity="1" /><path clip-path="url(#clip660)" d="M744.023 24.3517 L744.023 6.81709 L749.347 6.81709 L749.347 51.84 L744.023 51.84 L744.023 46.9789 Q742.345 49.8724 739.769 51.2902 Q737.223 52.6791 733.635 52.6791 Q727.761 52.6791 724.058 47.9916 Q720.383 43.3042 720.383 35.6653 Q720.383 28.0265 724.058 23.339 Q727.761 18.6515 733.635 18.6515 Q737.223 18.6515 739.769 20.0693 Q742.345 21.4582 744.023 24.3517 M725.881 35.6653 Q725.881 41.5391 728.282 44.8956 Q730.713 48.2231 734.937 48.2231 Q739.162 48.2231 741.592 44.8956 Q744.023 41.5391 744.023 35.6653 Q744.023 29.7915 741.592 26.464 Q739.162 23.1075 734.937 23.1075 Q730.713 23.1075 728.282 26.464 Q725.881 29.7915 725.881 35.6653 Z" fill="#000000" fill-rule="nonzero" fill-opacity="1" /><path clip-path="url(#clip660)" d="M799.81 20.3876 L799.81 25.4223 Q797.553 24.2649 795.122 23.6862 Q792.692 23.1075 790.087 23.1075 Q786.123 23.1075 784.127 24.3228 Q782.159 25.5381 782.159 27.9686 Q782.159 29.8204 783.577 30.891 Q784.995 31.9327 789.277 32.8876 L791.1 33.2926 Q796.771 34.5079 799.144 36.7359 Q801.546 38.935 801.546 42.8991 Q801.546 47.4129 797.958 50.046 Q794.399 52.6791 788.149 52.6791 Q785.545 52.6791 782.709 52.1583 Q779.902 51.6664 776.777 50.6537 L776.777 45.156 Q779.729 46.6896 782.593 47.4708 Q785.458 48.2231 788.265 48.2231 Q792.026 48.2231 794.052 46.95 Q796.077 45.6479 796.077 43.3042 Q796.077 41.134 794.601 39.9766 Q793.155 38.8192 788.207 37.7486 L786.355 37.3146 Q781.407 36.273 779.208 34.1318 Q777.009 31.9616 777.009 28.2001 Q777.009 23.6283 780.25 21.1399 Q783.49 18.6515 789.451 18.6515 Q792.402 18.6515 795.006 19.0855 Q797.611 19.5196 799.81 20.3876 Z" fill="#000000" fill-rule="nonzero" fill-opacity="1" /><path clip-path="url(#clip660)" d="M837.743 34.3054 L837.743 36.9095 L813.264 36.9095 Q813.612 42.4072 816.563 45.3007 Q819.543 48.1653 824.838 48.1653 Q827.906 48.1653 830.77 47.4129 Q833.664 46.6606 836.499 45.156 L836.499 50.1907 Q833.635 51.406 830.625 52.0425 Q827.616 52.6791 824.52 52.6791 Q816.766 52.6791 812.223 48.1653 Q807.709 43.6514 807.709 35.9547 Q807.709 27.9975 811.991 23.339 Q816.303 18.6515 823.594 18.6515 Q830.134 18.6515 833.924 22.876 Q837.743 27.0716 837.743 34.3054 M832.419 32.7429 Q832.362 28.3737 829.96 25.7695 Q827.587 23.1654 823.652 23.1654 Q819.196 23.1654 816.505 25.6827 Q813.843 28.2001 813.438 32.7718 L832.419 32.7429 Z" fill="#000000" fill-rule="nonzero" fill-opacity="1" /><path clip-path="url(#clip660)" d="M873.42 32.2799 L873.42 51.84 L868.096 51.84 L868.096 32.4535 Q868.096 27.8529 866.302 25.567 Q864.508 23.2811 860.92 23.2811 Q856.609 23.2811 854.121 26.03 Q851.632 28.7788 851.632 33.5241 L851.632 51.84 L846.279 51.84 L846.279 19.4328 L851.632 19.4328 L851.632 24.4675 Q853.542 21.545 856.117 20.0983 Q858.721 18.6515 862.107 18.6515 Q867.691 18.6515 870.556 22.1237 Q873.42 25.567 873.42 32.2799 Z" fill="#000000" fill-rule="nonzero" fill-opacity="1" /><path clip-path="url(#clip660)" d="M904.699 20.3876 L904.699 25.4223 Q902.442 24.2649 900.012 23.6862 Q897.581 23.1075 894.977 23.1075 Q891.013 23.1075 889.016 24.3228 Q887.049 25.5381 887.049 27.9686 Q887.049 29.8204 888.467 30.891 Q889.884 31.9327 894.167 32.8876 L895.99 33.2926 Q901.661 34.5079 904.034 36.7359 Q906.435 38.935 906.435 42.8991 Q906.435 47.4129 902.847 50.046 Q899.288 52.6791 893.038 52.6791 Q890.434 52.6791 887.599 52.1583 Q884.792 51.6664 881.667 50.6537 L881.667 45.156 Q884.618 46.6896 887.483 47.4708 Q890.347 48.2231 893.154 48.2231 Q896.916 48.2231 898.941 46.95 Q900.967 45.6479 900.967 43.3042 Q900.967 41.134 899.491 39.9766 Q898.044 38.8192 893.096 37.7486 L891.244 37.3146 Q886.296 36.273 884.097 34.1318 Q881.898 31.9616 881.898 28.2001 Q881.898 23.6283 885.139 21.1399 Q888.38 18.6515 894.34 18.6515 Q897.292 18.6515 899.896 19.0855 Q902.5 19.5196 904.699 20.3876 Z" fill="#000000" fill-rule="nonzero" fill-opacity="1" /><path clip-path="url(#clip660)" d="M914.913 19.4328 L920.237 19.4328 L920.237 51.84 L914.913 51.84 L914.913 19.4328 M914.913 6.81709 L920.237 6.81709 L920.237 13.559 L914.913 13.559 L914.913 6.81709 Z" fill="#000000" fill-rule="nonzero" fill-opacity="1" /><path clip-path="url(#clip660)" d="M936.643 10.2314 L936.643 19.4328 L947.61 19.4328 L947.61 23.5705 L936.643 23.5705 L936.643 41.163 Q936.643 45.1271 937.714 46.2555 Q938.814 47.384 942.141 47.384 L947.61 47.384 L947.61 51.84 L942.141 51.84 Q935.978 51.84 933.634 49.5541 Q931.29 47.2393 931.29 41.163 L931.29 23.5705 L927.384 23.5705 L927.384 19.4328 L931.29 19.4328 L931.29 10.2314 L936.643 10.2314 Z" fill="#000000" fill-rule="nonzero" fill-opacity="1" /><path clip-path="url(#clip660)" d="M954.612 19.4328 L959.936 19.4328 L959.936 51.84 L954.612 51.84 L954.612 19.4328 M954.612 6.81709 L959.936 6.81709 L959.936 13.559 L954.612 13.559 L954.612 6.81709 Z" fill="#000000" fill-rule="nonzero" fill-opacity="1" /><path clip-path="url(#clip660)" d="M967.257 19.4328 L972.899 19.4328 L983.026 46.6317 L993.154 19.4328 L998.796 19.4328 L986.643 51.84 L979.409 51.84 L967.257 19.4328 Z" fill="#000000" fill-rule="nonzero" fill-opacity="1" /><path clip-path="url(#clip660)" d="M1006.15 19.4328 L1011.47 19.4328 L1011.47 51.84 L1006.15 51.84 L1006.15 19.4328 M1006.15 6.81709 L1011.47 6.81709 L1011.47 13.559 L1006.15 13.559 L1006.15 6.81709 Z" fill="#000000" fill-rule="nonzero" fill-opacity="1" /><path clip-path="url(#clip660)" d="M1027.88 10.2314 L1027.88 19.4328 L1038.84 19.4328 L1038.84 23.5705 L1027.88 23.5705 L1027.88 41.163 Q1027.88 45.1271 1028.95 46.2555 Q1030.05 47.384 1033.37 47.384 L1038.84 47.384 L1038.84 51.84 L1033.37 51.84 Q1027.21 51.84 1024.87 49.5541 Q1022.52 47.2393 1022.52 41.163 L1022.52 23.5705 L1018.62 23.5705 L1018.62 19.4328 L1022.52 19.4328 L1022.52 10.2314 L1027.88 10.2314 Z" fill="#000000" fill-rule="nonzero" fill-opacity="1" /><path clip-path="url(#clip660)" d="M1059.33 54.8492 Q1057.07 60.6362 1054.93 62.4013 Q1052.79 64.1663 1049.2 64.1663 L1044.95 64.1663 L1044.95 59.7103 L1048.07 59.7103 Q1050.27 59.7103 1051.49 58.6687 Q1052.7 57.627 1054.18 53.7497 L1055.13 51.3192 L1042.02 19.4328 L1047.67 19.4328 L1057.79 44.7799 L1067.92 19.4328 L1073.56 19.4328 L1059.33 54.8492 Z" fill="#000000" fill-rule="nonzero" fill-opacity="1" /><path clip-path="url(#clip660)" d="M1112.31 23.1654 Q1108.03 23.1654 1105.54 26.5218 Q1103.05 29.8494 1103.05 35.6653 Q1103.05 41.4813 1105.51 44.8377 Q1108 48.1653 1112.31 48.1653 Q1116.56 48.1653 1119.05 44.8088 Q1121.54 41.4523 1121.54 35.6653 Q1121.54 29.9072 1119.05 26.5508 Q1116.56 23.1654 1112.31 23.1654 M1112.31 18.6515 Q1119.25 18.6515 1123.22 23.1654 Q1127.18 27.6792 1127.18 35.6653 Q1127.18 43.6225 1123.22 48.1653 Q1119.25 52.6791 1112.31 52.6791 Q1105.33 52.6791 1101.37 48.1653 Q1097.44 43.6225 1097.44 35.6653 Q1097.44 27.6792 1101.37 23.1654 Q1105.33 18.6515 1112.31 18.6515 Z" fill="#000000" fill-rule="nonzero" fill-opacity="1" /><path clip-path="url(#clip660)" d="M1152.41 6.81709 L1152.41 11.2442 L1147.32 11.2442 Q1144.45 11.2442 1143.33 12.4016 Q1142.23 13.559 1142.23 16.5682 L1142.23 19.4328 L1150.99 19.4328 L1150.99 23.5705 L1142.23 23.5705 L1142.23 51.84 L1136.87 51.84 L1136.87 23.5705 L1131.78 23.5705 L1131.78 19.4328 L1136.87 19.4328 L1136.87 17.1758 Q1136.87 11.765 1139.39 9.30551 Q1141.91 6.81709 1147.38 6.81709 L1152.41 6.81709 Z" fill="#000000" fill-rule="nonzero" fill-opacity="1" /><path clip-path="url(#clip660)" d="M1203.42 34.3054 L1203.42 36.9095 L1178.95 36.9095 Q1179.29 42.4072 1182.24 45.3007 Q1185.22 48.1653 1190.52 48.1653 Q1193.59 48.1653 1196.45 47.4129 Q1199.34 46.6606 1202.18 45.156 L1202.18 50.1907 Q1199.32 51.406 1196.31 52.0425 Q1193.3 52.6791 1190.2 52.6791 Q1182.45 52.6791 1177.9 48.1653 Q1173.39 43.6514 1173.39 35.9547 Q1173.39 27.9975 1177.67 23.339 Q1181.98 18.6515 1189.28 18.6515 Q1195.81 18.6515 1199.6 22.876 Q1203.42 27.0716 1203.42 34.3054 M1198.1 32.7429 Q1198.04 28.3737 1195.64 25.7695 Q1193.27 23.1654 1189.33 23.1654 Q1184.88 23.1654 1182.19 25.6827 Q1179.52 28.2001 1179.12 32.7718 L1198.1 32.7429 Z" fill="#000000" fill-rule="nonzero" fill-opacity="1" /><path clip-path="url(#clip660)" d="M1217.43 10.2314 L1217.43 19.4328 L1228.4 19.4328 L1228.4 23.5705 L1217.43 23.5705 L1217.43 41.163 Q1217.43 45.1271 1218.5 46.2555 Q1219.6 47.384 1222.93 47.384 L1228.4 47.384 L1228.4 51.84 L1222.93 51.84 Q1216.76 51.84 1214.42 49.5541 Q1212.08 47.2393 1212.08 41.163 L1212.08 23.5705 L1208.17 23.5705 L1208.17 19.4328 L1212.08 19.4328 L1212.08 10.2314 L1217.43 10.2314 Z" fill="#000000" fill-rule="nonzero" fill-opacity="1" /><path clip-path="url(#clip660)" d="M1250.13 35.5496 Q1243.67 35.5496 1241.18 37.0253 Q1238.7 38.501 1238.7 42.06 Q1238.7 44.8956 1240.55 46.5738 Q1242.43 48.2231 1245.64 48.2231 Q1250.07 48.2231 1252.73 45.0981 Q1255.42 41.9442 1255.42 36.7359 L1255.42 35.5496 L1250.13 35.5496 M1260.74 33.3505 L1260.74 51.84 L1255.42 51.84 L1255.42 46.921 Q1253.6 49.8724 1250.88 51.2902 Q1248.16 52.6791 1244.22 52.6791 Q1239.25 52.6791 1236.29 49.9014 Q1233.37 47.0947 1233.37 42.4072 Q1233.37 36.9385 1237.02 34.1607 Q1240.69 31.3829 1247.96 31.3829 L1255.42 31.3829 L1255.42 30.8621 Q1255.42 27.1874 1252.99 25.1908 Q1250.59 23.1654 1246.22 23.1654 Q1243.44 23.1654 1240.81 23.8309 Q1238.18 24.4964 1235.74 25.8274 L1235.74 20.9085 Q1238.67 19.78 1241.42 19.2302 Q1244.16 18.6515 1246.77 18.6515 Q1253.8 18.6515 1257.27 22.2973 Q1260.74 25.9431 1260.74 33.3505 Z" fill="#000000" fill-rule="nonzero" fill-opacity="1" /><circle clip-path="url(#clip662)" cx="543.216" cy="651.272" r="10.8" fill="#4482b5" fill-rule="evenodd" fill-opacity="0.7" stroke="none"/>
<circle clip-path="url(#clip662)" cx="488.985" cy="653.07" r="10.8" fill="#4482b5" fill-rule="evenodd" fill-opacity="0.7" stroke="none"/>
<circle clip-path="url(#clip662)" cx="526.844" cy="654.317" r="10.8" fill="#4482b5" fill-rule="evenodd" fill-opacity="0.7" stroke="none"/>
<circle clip-path="url(#clip662)" cx="519.809" cy="652.487" r="10.8" fill="#4482b5" fill-rule="evenodd" fill-opacity="0.7" stroke="none"/>
<circle clip-path="url(#clip662)" cx="489.407" cy="650.927" r="10.8" fill="#4482b5" fill-rule="evenodd" fill-opacity="0.7" stroke="none"/>
<circle clip-path="url(#clip662)" cx="492.62" cy="651.836" r="10.8" fill="#4482b5" fill-rule="evenodd" fill-opacity="0.7" stroke="none"/>
<circle clip-path="url(#clip662)" cx="525.715" cy="651.952" r="10.8" fill="#4482b5" fill-rule="evenodd" fill-opacity="0.7" stroke="none"/>
<circle clip-path="url(#clip662)" cx="508.684" cy="651.305" r="10.8" fill="#4482b5" fill-rule="evenodd" fill-opacity="0.7" stroke="none"/>
<circle clip-path="url(#clip662)" cx="488.51" cy="651.28" r="10.8" fill="#4482b5" fill-rule="evenodd" fill-opacity="0.7" stroke="none"/>
<circle clip-path="url(#clip662)" cx="504.094" cy="655.079" r="10.8" fill="#4482b5" fill-rule="evenodd" fill-opacity="0.7" stroke="none"/>
<circle clip-path="url(#clip662)" cx="534.07" cy="652.567" r="10.8" fill="#4482b5" fill-rule="evenodd" fill-opacity="0.7" stroke="none"/>
<circle clip-path="url(#clip662)" cx="498.933" cy="652.565" r="10.8" fill="#4482b5" fill-rule="evenodd" fill-opacity="0.7" stroke="none"/>
<circle clip-path="url(#clip662)" cx="484.831" cy="649.249" r="10.8" fill="#4482b5" fill-rule="evenodd" fill-opacity="0.7" stroke="none"/>
<circle clip-path="url(#clip662)" cx="482.679" cy="652.175" r="10.8" fill="#4482b5" fill-rule="evenodd" fill-opacity="0.7" stroke="none"/>
<circle clip-path="url(#clip662)" cx="522.958" cy="652.72" r="10.8" fill="#4482b5" fill-rule="evenodd" fill-opacity="0.7" stroke="none"/>
<circle clip-path="url(#clip662)" cx="480.88" cy="653.123" r="10.8" fill="#4482b5" fill-rule="evenodd" fill-opacity="0.7" stroke="none"/>
<circle clip-path="url(#clip662)" cx="479.479" cy="649.871" r="10.8" fill="#4482b5" fill-rule="evenodd" fill-opacity="0.7" stroke="none"/>
<circle clip-path="url(#clip662)" cx="524.917" cy="653.255" r="10.8" fill="#4482b5" fill-rule="evenodd" fill-opacity="0.7" stroke="none"/>
<circle clip-path="url(#clip662)" cx="491.41" cy="653.006" r="10.8" fill="#4482b5" fill-rule="evenodd" fill-opacity="0.7" stroke="none"/>
<circle clip-path="url(#clip662)" cx="497.681" cy="633.838" r="10.8" fill="#4482b5" fill-rule="evenodd" fill-opacity="0.7" stroke="none"/>
<circle clip-path="url(#clip662)" cx="526.061" cy="653.25" r="10.8" fill="#4482b5" fill-rule="evenodd" fill-opacity="0.7" stroke="none"/>
<circle clip-path="url(#clip662)" cx="534.491" cy="653.253" r="10.8" fill="#4482b5" fill-rule="evenodd" fill-opacity="0.7" stroke="none"/>
<polyline clip-path="url(#clip662)" style="stroke:#000000; stroke-linecap:round; stroke-linejoin:round; stroke-width:12; stroke-opacity:1; fill:none" points="433.579,652.526 582.208,652.526 "/>
<polyline clip-path="url(#clip662)" style="stroke:#000000; stroke-linecap:round; stroke-linejoin:round; stroke-width:8; stroke-opacity:1; fill:none" points="507.893,653.11 507.893,651.286 "/>
<circle clip-path="url(#clip662)" cx="871.166" cy="735.146" r="10.8" fill="#ff8c00" fill-rule="evenodd" fill-opacity="0.7" stroke="none"/>
<circle clip-path="url(#clip662)" cx="843.633" cy="662.259" r="10.8" fill="#ff8c00" fill-rule="evenodd" fill-opacity="0.7" stroke="none"/>
<circle clip-path="url(#clip662)" cx="845.279" cy="604.983" r="10.8" fill="#ff8c00" fill-rule="evenodd" fill-opacity="0.7" stroke="none"/>
<circle clip-path="url(#clip662)" cx="835.969" cy="623.46" r="10.8" fill="#ff8c00" fill-rule="evenodd" fill-opacity="0.7" stroke="none"/>
<circle clip-path="url(#clip662)" cx="821.499" cy="653.242" r="10.8" fill="#ff8c00" fill-rule="evenodd" fill-opacity="0.7" stroke="none"/>
<circle clip-path="url(#clip662)" cx="833.49" cy="547.753" r="10.8" fill="#ff8c00" fill-rule="evenodd" fill-opacity="0.7" stroke="none"/>
<circle clip-path="url(#clip662)" cx="850.855" cy="567.927" r="10.8" fill="#ff8c00" fill-rule="evenodd" fill-opacity="0.7" stroke="none"/>
<circle clip-path="url(#clip662)" cx="817.149" cy="642.065" r="10.8" fill="#ff8c00" fill-rule="evenodd" fill-opacity="0.7" stroke="none"/>
<circle clip-path="url(#clip662)" cx="862.664" cy="667.689" r="10.8" fill="#ff8c00" fill-rule="evenodd" fill-opacity="0.7" stroke="none"/>
<circle clip-path="url(#clip662)" cx="829.44" cy="653.239" r="10.8" fill="#ff8c00" fill-rule="evenodd" fill-opacity="0.7" stroke="none"/>
<circle clip-path="url(#clip662)" cx="881.813" cy="704.101" r="10.8" fill="#ff8c00" fill-rule="evenodd" fill-opacity="0.7" stroke="none"/>
<polyline clip-path="url(#clip662)" style="stroke:#000000; stroke-linecap:round; stroke-linejoin:round; stroke-width:12; stroke-opacity:1; fill:none" points="771.372,653.239 920.001,653.239 "/>
<polyline clip-path="url(#clip662)" style="stroke:#000000; stroke-linecap:round; stroke-linejoin:round; stroke-width:8; stroke-opacity:1; fill:none" points="845.686,664.974 845.686,614.221 "/>
<circle clip-path="url(#clip662)" cx="1207" cy="538.97" r="10.8" fill="#db143d" fill-rule="evenodd" fill-opacity="0.7" stroke="none"/>
<circle clip-path="url(#clip662)" cx="1187.26" cy="622.857" r="10.8" fill="#db143d" fill-rule="evenodd" fill-opacity="0.7" stroke="none"/>
<circle clip-path="url(#clip662)" cx="1214.51" cy="577.882" r="10.8" fill="#db143d" fill-rule="evenodd" fill-opacity="0.7" stroke="none"/>
<circle clip-path="url(#clip662)" cx="1197.58" cy="231.886" r="10.8" fill="#db143d" fill-rule="evenodd" fill-opacity="0.7" stroke="none"/>
<circle clip-path="url(#clip662)" cx="1198.95" cy="529.486" r="10.8" fill="#db143d" fill-rule="evenodd" fill-opacity="0.7" stroke="none"/>
<circle clip-path="url(#clip662)" cx="1196.94" cy="511.799" r="10.8" fill="#db143d" fill-rule="evenodd" fill-opacity="0.7" stroke="none"/>
<circle clip-path="url(#clip662)" cx="1201.07" cy="537.495" r="10.8" fill="#db143d" fill-rule="evenodd" fill-opacity="0.7" stroke="none"/>
<circle clip-path="url(#clip662)" cx="1210.41" cy="670.616" r="10.8" fill="#db143d" fill-rule="evenodd" fill-opacity="0.7" stroke="none"/>
<circle clip-path="url(#clip662)" cx="1181.16" cy="555.265" r="10.8" fill="#db143d" fill-rule="evenodd" fill-opacity="0.7" stroke="none"/>
<polyline clip-path="url(#clip662)" style="stroke:#000000; stroke-linecap:round; stroke-linejoin:round; stroke-width:12; stroke-opacity:1; fill:none" points="1109.16,538.97 1257.79,538.97 "/>
<polyline clip-path="url(#clip662)" style="stroke:#000000; stroke-linecap:round; stroke-linejoin:round; stroke-width:8; stroke-opacity:1; fill:none" points="1183.48,577.882 1183.48,529.486 "/>
</svg>
