<?xml version="1.0" encoding="utf-8"?>
<svg xmlns="http://www.w3.org/2000/svg" xmlns:xlink="http://www.w3.org/1999/xlink" width="450" height="330" viewBox="0 0 1800 1320">
<defs>
  <clipPath id="clip610">
    <rect x="0" y="0" width="1800" height="1320"/>
  </clipPath>
</defs>
<path clip-path="url(#clip610)" d="M0 1320 L1800 1320 L1800 0 L0 0  Z" fill="#ffffff" fill-rule="evenodd" fill-opacity="1"/>
<defs>
  <clipPath id="clip611">
    <rect x="1442" y="834" width="246" height="311"/>
  </clipPath>
</defs>
<path clip-path="url(#clip610)" d="M352.248 1037.04 L1642.52 1037.04 L1642.52 220.748 L352.248 220.748  Z" fill="#ffffff" fill-rule="evenodd" fill-opacity="1"/>
<defs>
  <clipPath id="clip612">
    <rect x="352" y="220" width="1291" height="817"/>
  </clipPath>
</defs>
<polyline clip-path="url(#clip612)" style="stroke:#000000; stroke-linecap:round; stroke-linejoin:round; stroke-width:2; stroke-opacity:0.1; fill:none" points="388.765,1037.04 388.765,220.748 "/>
<polyline clip-path="url(#clip612)" style="stroke:#000000; stroke-linecap:round; stroke-linejoin:round; stroke-width:2; stroke-opacity:0.1; fill:none" points="693.075,1037.04 693.075,220.748 "/>
<polyline clip-path="url(#clip612)" style="stroke:#000000; stroke-linecap:round; stroke-linejoin:round; stroke-width:2; stroke-opacity:0.1; fill:none" points="997.384,1037.04 997.384,220.748 "/>
<polyline clip-path="url(#clip612)" style="stroke:#000000; stroke-linecap:round; stroke-linejoin:round; stroke-width:2; stroke-opacity:0.1; fill:none" points="1301.69,1037.04 1301.69,220.748 "/>
<polyline clip-path="url(#clip612)" style="stroke:#000000; stroke-linecap:round; stroke-linejoin:round; stroke-width:2; stroke-opacity:0.1; fill:none" points="1606,1037.04 1606,220.748 "/>
<polyline clip-path="url(#clip612)" style="stroke:#000000; stroke-linecap:round; stroke-linejoin:round; stroke-width:2; stroke-opacity:0.1; fill:none" points="352.248,935.217 1642.52,935.217 "/>
<polyline clip-path="url(#clip612)" style="stroke:#000000; stroke-linecap:round; stroke-linejoin:round; stroke-width:2; stroke-opacity:0.1; fill:none" points="352.248,762.376 1642.52,762.376 "/>
<polyline clip-path="url(#clip612)" style="stroke:#000000; stroke-linecap:round; stroke-linejoin:round; stroke-width:2; stroke-opacity:0.1; fill:none" points="352.248,589.534 1642.52,589.534 "/>
<polyline clip-path="url(#clip612)" style="stroke:#000000; stroke-linecap:round; stroke-linejoin:round; stroke-width:2; stroke-opacity:0.1; fill:none" points="352.248,416.693 1642.52,416.693 "/>
<polyline clip-path="url(#clip612)" style="stroke:#000000; stroke-linecap:round; stroke-linejoin:round; stroke-width:2; stroke-opacity:0.1; fill:none" points="352.248,243.851 1642.52,243.851 "/>
<polyline clip-path="url(#clip610)" style="stroke:#000000; stroke-linecap:round; stroke-linejoin:round; stroke-width:4; stroke-opacity:1; fill:none" points="352.248,1037.04 1642.52,1037.04 "/>
<polyline clip-path="url(#clip610)" style="stroke:#000000; stroke-linecap:round; stroke-linejoin:round; stroke-width:4; stroke-opacity:1; fill:none" points="388.765,1037.04 388.765,1018.14 "/>
<polyline clip-path="url(#clip610)" style="stroke:#000000; stroke-linecap:round; stroke-linejoin:round; stroke-width:4; stroke-opacity:1; fill:none" points="693.075,1037.04 693.075,1018.14 "/>
<polyline clip-path="url(#clip610)" style="stroke:#000000; stroke-linecap:round; stroke-linejoin:round; stroke-width:4; stroke-opacity:1; fill:none" points="997.384,1037.04 997.384,1018.14 "/>
<polyline clip-path="url(#clip610)" style="stroke:#000000; stroke-linecap:round; stroke-linejoin:round; stroke-width:4; stroke-opacity:1; fill:none" points="1301.69,1037.04 1301.69,1018.14 "/>
<polyline clip-path="url(#clip610)" style="stroke:#000000; stroke-linecap:round; stroke-linejoin:round; stroke-width:4; stroke-opacity:1; fill:none" points="1606,1037.04 1606,1018.14 "/>
<path clip-path="url(#clip610)" d="M379.147 1090.7 L386.786 1090.7 L386.786 1064.34 L378.476 1066.01 L378.476 1061.75 L386.74 1060.08 L391.416 1060.08 L391.416 1090.7 L399.055 1090.7 L399.055 1094.64 L379.147 1094.64 L379.147 1090.7 Z" fill="#000000" fill-rule="nonzero" fill-opacity="1" /><path clip-path="url(#clip610)" d="M687.727 1090.7 L704.047 1090.7 L704.047 1094.64 L682.102 1094.64 L682.102 1090.7 Q684.764 1087.95 689.348 1083.32 Q693.954 1078.67 695.135 1077.32 Q697.38 1074.8 698.26 1073.07 Q699.163 1071.31 699.163 1069.62 Q699.163 1066.86 697.218 1065.13 Q695.297 1063.39 692.195 1063.39 Q689.996 1063.39 687.542 1064.15 Q685.112 1064.92 682.334 1066.47 L682.334 1061.75 Q685.158 1060.61 687.612 1060.03 Q690.065 1059.45 692.102 1059.45 Q697.473 1059.45 700.667 1062.14 Q703.862 1064.82 703.862 1069.32 Q703.862 1071.45 703.051 1073.37 Q702.264 1075.26 700.158 1077.86 Q699.579 1078.53 696.477 1081.75 Q693.376 1084.94 687.727 1090.7 Z" fill="#000000" fill-rule="nonzero" fill-opacity="1" /><path clip-path="url(#clip610)" d="M1001.63 1076.01 Q1004.99 1076.72 1006.86 1078.99 Q1008.76 1081.26 1008.76 1084.59 Q1008.76 1089.71 1005.24 1092.51 Q1001.72 1095.31 995.243 1095.31 Q993.067 1095.31 990.752 1094.87 Q988.46 1094.45 986.007 1093.6 L986.007 1089.08 Q987.951 1090.22 990.266 1090.8 Q992.581 1091.38 995.104 1091.38 Q999.502 1091.38 1001.79 1089.64 Q1004.11 1087.9 1004.11 1084.59 Q1004.11 1081.54 1001.96 1079.82 Q999.826 1078.09 996.007 1078.09 L991.979 1078.09 L991.979 1074.25 L996.192 1074.25 Q999.641 1074.25 1001.47 1072.88 Q1003.3 1071.49 1003.3 1068.9 Q1003.3 1066.24 1001.4 1064.82 Q999.525 1063.39 996.007 1063.39 Q994.085 1063.39 991.886 1063.81 Q989.687 1064.22 987.048 1065.1 L987.048 1060.94 Q989.71 1060.2 992.025 1059.82 Q994.363 1059.45 996.423 1059.45 Q1001.75 1059.45 1004.85 1061.89 Q1007.95 1064.29 1007.95 1068.41 Q1007.95 1071.28 1006.31 1073.27 Q1004.66 1075.24 1001.63 1076.01 Z" fill="#000000" fill-rule="nonzero" fill-opacity="1" /><path clip-path="url(#clip610)" d="M1304.7 1064.15 L1292.9 1082.6 L1304.7 1082.6 L1304.7 1064.15 M1303.48 1060.08 L1309.36 1060.08 L1309.36 1082.6 L1314.29 1082.6 L1314.29 1086.49 L1309.36 1086.49 L1309.36 1094.64 L1304.7 1094.64 L1304.7 1086.49 L1289.1 1086.49 L1289.1 1081.98 L1303.48 1060.08 Z" fill="#000000" fill-rule="nonzero" fill-opacity="1" /><path clip-path="url(#clip610)" d="M1596.28 1060.08 L1614.64 1060.08 L1614.64 1064.01 L1600.56 1064.01 L1600.56 1072.49 Q1601.58 1072.14 1602.6 1071.98 Q1603.62 1071.79 1604.64 1071.79 Q1610.42 1071.79 1613.8 1074.96 Q1617.18 1078.14 1617.18 1083.55 Q1617.18 1089.13 1613.71 1092.23 Q1610.24 1095.31 1603.92 1095.31 Q1601.74 1095.31 1599.47 1094.94 Q1597.23 1094.57 1594.82 1093.83 L1594.82 1089.13 Q1596.91 1090.26 1599.13 1090.82 Q1601.35 1091.38 1603.83 1091.38 Q1607.83 1091.38 1610.17 1089.27 Q1612.51 1087.16 1612.51 1083.55 Q1612.51 1079.94 1610.17 1077.83 Q1607.83 1075.73 1603.83 1075.73 Q1601.95 1075.73 1600.08 1076.14 Q1598.22 1076.56 1596.28 1077.44 L1596.28 1060.08 Z" fill="#000000" fill-rule="nonzero" fill-opacity="1" /><path clip-path="url(#clip610)" d="M706.787 1123.66 L712.047 1123.66 L712.047 1139.59 L731.161 1139.59 L731.161 1123.66 L736.422 1123.66 L736.422 1162.54 L731.161 1162.54 L731.161 1144.02 L712.047 1144.02 L712.047 1162.54 L706.787 1162.54 L706.787 1123.66 Z" fill="#000000" fill-rule="nonzero" fill-opacity="1" /><path clip-path="url(#clip610)" d="M759.937 1147.87 Q754.13 1147.87 751.89 1149.2 Q749.651 1150.53 749.651 1153.73 Q749.651 1156.29 751.318 1157.8 Q753.01 1159.28 755.901 1159.28 Q759.885 1159.28 762.281 1156.47 Q764.703 1153.63 764.703 1148.94 L764.703 1147.87 L759.937 1147.87 M769.495 1145.9 L769.495 1162.54 L764.703 1162.54 L764.703 1158.11 Q763.062 1160.76 760.614 1162.04 Q758.166 1163.29 754.625 1163.29 Q750.146 1163.29 747.489 1160.79 Q744.859 1158.26 744.859 1154.05 Q744.859 1149.12 748.14 1146.62 Q751.448 1144.12 757.984 1144.12 L764.703 1144.12 L764.703 1143.66 Q764.703 1140.35 762.515 1138.55 Q760.354 1136.73 756.422 1136.73 Q753.922 1136.73 751.552 1137.33 Q749.182 1137.93 746.995 1139.12 L746.995 1134.7 Q749.625 1133.68 752.099 1133.19 Q754.573 1132.67 756.916 1132.67 Q763.245 1132.67 766.37 1135.95 Q769.495 1139.23 769.495 1145.9 Z" fill="#000000" fill-rule="nonzero" fill-opacity="1" /><path clip-path="url(#clip610)" d="M796.265 1137.85 Q795.458 1137.38 794.494 1137.17 Q793.557 1136.94 792.411 1136.94 Q788.349 1136.94 786.161 1139.59 Q784 1142.22 784 1147.17 L784 1162.54 L779.182 1162.54 L779.182 1133.37 L784 1133.37 L784 1137.9 Q785.51 1135.24 787.932 1133.97 Q790.354 1132.67 793.817 1132.67 Q794.312 1132.67 794.911 1132.74 Q795.51 1132.8 796.239 1132.93 L796.265 1137.85 Z" fill="#000000" fill-rule="nonzero" fill-opacity="1" /><path clip-path="url(#clip610)" d="M823.062 1138.97 Q824.859 1135.74 827.359 1134.2 Q829.859 1132.67 833.244 1132.67 Q837.801 1132.67 840.275 1135.87 Q842.749 1139.05 842.749 1144.93 L842.749 1162.54 L837.932 1162.54 L837.932 1145.09 Q837.932 1140.9 836.447 1138.86 Q834.963 1136.83 831.916 1136.83 Q828.192 1136.83 826.031 1139.31 Q823.869 1141.78 823.869 1146.05 L823.869 1162.54 L819.052 1162.54 L819.052 1145.09 Q819.052 1140.87 817.567 1138.86 Q816.083 1136.83 812.984 1136.83 Q809.312 1136.83 807.151 1139.33 Q804.989 1141.81 804.989 1146.05 L804.989 1162.54 L800.171 1162.54 L800.171 1133.37 L804.989 1133.37 L804.989 1137.9 Q806.63 1135.22 808.921 1133.94 Q811.213 1132.67 814.364 1132.67 Q817.541 1132.67 819.755 1134.28 Q821.994 1135.9 823.062 1138.97 Z" fill="#000000" fill-rule="nonzero" fill-opacity="1" /><path clip-path="url(#clip610)" d="M863.609 1136.73 Q859.754 1136.73 857.515 1139.75 Q855.275 1142.74 855.275 1147.98 Q855.275 1153.21 857.489 1156.23 Q859.728 1159.23 863.609 1159.23 Q867.437 1159.23 869.676 1156.21 Q871.916 1153.19 871.916 1147.98 Q871.916 1142.8 869.676 1139.78 Q867.437 1136.73 863.609 1136.73 M863.609 1132.67 Q869.859 1132.67 873.426 1136.73 Q876.994 1140.79 876.994 1147.98 Q876.994 1155.14 873.426 1159.23 Q869.859 1163.29 863.609 1163.29 Q857.333 1163.29 853.765 1159.23 Q850.223 1155.14 850.223 1147.98 Q850.223 1140.79 853.765 1136.73 Q857.333 1132.67 863.609 1132.67 Z" fill="#000000" fill-rule="nonzero" fill-opacity="1" /><path clip-path="url(#clip610)" d="M909.181 1144.93 L909.181 1162.54 L904.39 1162.54 L904.39 1145.09 Q904.39 1140.95 902.775 1138.89 Q901.16 1136.83 897.931 1136.83 Q894.051 1136.83 891.812 1139.31 Q889.572 1141.78 889.572 1146.05 L889.572 1162.54 L884.754 1162.54 L884.754 1133.37 L889.572 1133.37 L889.572 1137.9 Q891.291 1135.27 893.608 1133.97 Q895.952 1132.67 898.999 1132.67 Q904.025 1132.67 906.603 1135.79 Q909.181 1138.89 909.181 1144.93 Z" fill="#000000" fill-rule="nonzero" fill-opacity="1" /><path clip-path="url(#clip610)" d="M918.739 1133.37 L923.53 1133.37 L923.53 1162.54 L918.739 1162.54 L918.739 1133.37 M918.739 1122.02 L923.53 1122.02 L923.53 1128.08 L918.739 1128.08 L918.739 1122.02 Z" fill="#000000" fill-rule="nonzero" fill-opacity="1" /><path clip-path="url(#clip610)" d="M954.546 1134.49 L954.546 1138.97 Q952.514 1137.85 950.457 1137.3 Q948.426 1136.73 946.343 1136.73 Q941.681 1136.73 939.103 1139.7 Q936.525 1142.64 936.525 1147.98 Q936.525 1153.32 939.103 1156.29 Q941.681 1159.23 946.343 1159.23 Q948.426 1159.23 950.457 1158.68 Q952.514 1158.11 954.546 1156.99 L954.546 1161.42 Q952.54 1162.35 950.379 1162.82 Q948.244 1163.29 945.822 1163.29 Q939.233 1163.29 935.353 1159.15 Q931.473 1155.01 931.473 1147.98 Q931.473 1140.84 935.379 1136.75 Q939.311 1132.67 946.134 1132.67 Q948.348 1132.67 950.457 1133.13 Q952.566 1133.58 954.546 1134.49 Z" fill="#000000" fill-rule="nonzero" fill-opacity="1" /><path clip-path="url(#clip610)" d="M1008.3 1122.07 Q1004.81 1128.06 1003.11 1133.92 Q1001.42 1139.78 1001.42 1145.79 Q1001.42 1151.81 1003.11 1157.72 Q1004.83 1163.6 1008.3 1169.57 L1004.13 1169.57 Q1000.22 1163.45 998.269 1157.54 Q996.342 1151.62 996.342 1145.79 Q996.342 1139.98 998.269 1134.1 Q1000.2 1128.21 1004.13 1122.07 L1008.3 1122.07 Z" fill="#000000" fill-rule="nonzero" fill-opacity="1" /><path clip-path="url(#clip610)" d="M1049.96 1133.89 L1038.06 1145.84 L1049.96 1157.74 L1046.86 1160.9 L1034.91 1148.94 L1022.96 1160.9 L1019.88 1157.74 L1031.76 1145.84 L1019.88 1133.89 L1022.96 1130.74 L1034.91 1142.69 L1046.86 1130.74 L1049.96 1133.89 Z" fill="#000000" fill-rule="nonzero" fill-opacity="1" /><path clip-path="url(#clip610)" d="M1094 1122.02 L1094 1126 L1089.41 1126 Q1086.84 1126 1085.82 1127.04 Q1084.83 1128.08 1084.83 1130.79 L1084.83 1133.37 L1092.72 1133.37 L1092.72 1137.09 L1084.83 1137.09 L1084.83 1162.54 L1080.01 1162.54 L1080.01 1137.09 L1075.43 1137.09 L1075.43 1133.37 L1080.01 1133.37 L1080.01 1131.34 Q1080.01 1126.47 1082.28 1124.25 Q1084.54 1122.02 1089.47 1122.02 L1094 1122.02 Z" fill="#000000" fill-rule="nonzero" fill-opacity="1" /><path clip-path="url(#clip610)" d="M1120.17 1171.39 L1120.17 1175.11 L1092.46 1175.11 L1092.46 1171.39 L1120.17 1171.39 Z" fill="#000000" fill-rule="nonzero" fill-opacity="1" /><path clip-path="url(#clip610)" d="M1143.27 1134.23 L1143.27 1138.76 Q1141.24 1137.72 1139.05 1137.2 Q1136.86 1136.68 1134.52 1136.68 Q1130.95 1136.68 1129.15 1137.77 Q1127.38 1138.86 1127.38 1141.05 Q1127.38 1142.72 1128.66 1143.68 Q1129.94 1144.62 1133.79 1145.48 L1135.43 1145.84 Q1140.53 1146.94 1142.67 1148.94 Q1144.83 1150.92 1144.83 1154.49 Q1144.83 1158.55 1141.6 1160.92 Q1138.4 1163.29 1132.77 1163.29 Q1130.43 1163.29 1127.88 1162.82 Q1125.35 1162.38 1122.54 1161.47 L1122.54 1156.52 Q1125.2 1157.9 1127.77 1158.6 Q1130.35 1159.28 1132.88 1159.28 Q1136.26 1159.28 1138.09 1158.13 Q1139.91 1156.96 1139.91 1154.85 Q1139.91 1152.9 1138.58 1151.86 Q1137.28 1150.82 1132.83 1149.85 L1131.16 1149.46 Q1126.71 1148.53 1124.73 1146.6 Q1122.75 1144.65 1122.75 1141.26 Q1122.75 1137.15 1125.66 1134.91 Q1128.58 1132.67 1133.95 1132.67 Q1136.6 1132.67 1138.95 1133.06 Q1141.29 1133.45 1143.27 1134.23 Z" fill="#000000" fill-rule="nonzero" fill-opacity="1" /><path clip-path="url(#clip610)" d="M1157.2 1125.09 L1157.2 1133.37 L1167.07 1133.37 L1167.07 1137.09 L1157.2 1137.09 L1157.2 1152.93 Q1157.2 1156.49 1158.16 1157.51 Q1159.15 1158.53 1162.15 1158.53 L1167.07 1158.53 L1167.07 1162.54 L1162.15 1162.54 Q1156.6 1162.54 1154.49 1160.48 Q1152.38 1158.4 1152.38 1152.93 L1152.38 1137.09 L1148.87 1137.09 L1148.87 1133.37 L1152.38 1133.37 L1152.38 1125.09 L1157.2 1125.09 Z" fill="#000000" fill-rule="nonzero" fill-opacity="1" /><path clip-path="url(#clip610)" d="M1190.27 1137.85 Q1189.47 1137.38 1188.5 1137.17 Q1187.57 1136.94 1186.42 1136.94 Q1182.36 1136.94 1180.17 1139.59 Q1178.01 1142.22 1178.01 1147.17 L1178.01 1162.54 L1173.19 1162.54 L1173.19 1133.37 L1178.01 1133.37 L1178.01 1137.9 Q1179.52 1135.24 1181.94 1133.97 Q1184.36 1132.67 1187.83 1132.67 Q1188.32 1132.67 1188.92 1132.74 Q1189.52 1132.8 1190.25 1132.93 L1190.27 1137.85 Z" fill="#000000" fill-rule="nonzero" fill-opacity="1" /><path clip-path="url(#clip610)" d="M1195.3 1133.37 L1200.09 1133.37 L1200.09 1162.54 L1195.3 1162.54 L1195.3 1133.37 M1195.3 1122.02 L1200.09 1122.02 L1200.09 1128.08 L1195.3 1128.08 L1195.3 1122.02 Z" fill="#000000" fill-rule="nonzero" fill-opacity="1" /><path clip-path="url(#clip610)" d="M1229.31 1137.8 L1229.31 1122.02 L1234.1 1122.02 L1234.1 1162.54 L1229.31 1162.54 L1229.31 1158.16 Q1227.8 1160.76 1225.48 1162.04 Q1223.19 1163.29 1219.96 1163.29 Q1214.67 1163.29 1211.34 1159.07 Q1208.03 1154.85 1208.03 1147.98 Q1208.03 1141.1 1211.34 1136.88 Q1214.67 1132.67 1219.96 1132.67 Q1223.19 1132.67 1225.48 1133.94 Q1227.8 1135.19 1229.31 1137.8 M1212.98 1147.98 Q1212.98 1153.26 1215.14 1156.29 Q1217.33 1159.28 1221.13 1159.28 Q1224.93 1159.28 1227.12 1156.29 Q1229.31 1153.26 1229.31 1147.98 Q1229.31 1142.69 1227.12 1139.7 Q1224.93 1136.68 1221.13 1136.68 Q1217.33 1136.68 1215.14 1139.7 Q1212.98 1142.69 1212.98 1147.98 Z" fill="#000000" fill-rule="nonzero" fill-opacity="1" /><path clip-path="url(#clip610)" d="M1268.92 1146.75 L1268.92 1149.1 L1246.89 1149.1 Q1247.2 1154.05 1249.86 1156.65 Q1252.54 1159.23 1257.3 1159.23 Q1260.06 1159.23 1262.64 1158.55 Q1265.25 1157.87 1267.8 1156.52 L1267.8 1161.05 Q1265.22 1162.14 1262.51 1162.72 Q1259.8 1163.29 1257.02 1163.29 Q1250.04 1163.29 1245.95 1159.23 Q1241.89 1155.17 1241.89 1148.24 Q1241.89 1141.08 1245.74 1136.88 Q1249.62 1132.67 1256.18 1132.67 Q1262.07 1132.67 1265.48 1136.47 Q1268.92 1140.24 1268.92 1146.75 M1264.13 1145.35 Q1264.08 1141.42 1261.91 1139.07 Q1259.78 1136.73 1256.24 1136.73 Q1252.23 1136.73 1249.8 1138.99 Q1247.41 1141.26 1247.04 1145.37 L1264.13 1145.35 Z" fill="#000000" fill-rule="nonzero" fill-opacity="1" /><path clip-path="url(#clip610)" d="M1276.03 1122.07 L1280.19 1122.07 Q1284.1 1128.21 1286.03 1134.1 Q1287.98 1139.98 1287.98 1145.79 Q1287.98 1151.62 1286.03 1157.54 Q1284.1 1163.45 1280.19 1169.57 L1276.03 1169.57 Q1279.49 1163.6 1281.18 1157.72 Q1282.9 1151.81 1282.9 1145.79 Q1282.9 1139.78 1281.18 1133.92 Q1279.49 1128.06 1276.03 1122.07 Z" fill="#000000" fill-rule="nonzero" fill-opacity="1" /><polyline clip-path="url(#clip610)" style="stroke:#000000; stroke-linecap:round; stroke-linejoin:round; stroke-width:4; stroke-opacity:1; fill:none" points="352.248,1037.04 352.248,220.748 "/>
<polyline clip-path="url(#clip610)" style="stroke:#000000; stroke-linecap:round; stroke-linejoin:round; stroke-width:4; stroke-opacity:1; fill:none" points="352.248,935.217 371.146,935.217 "/>
<polyline clip-path="url(#clip610)" style="stroke:#000000; stroke-linecap:round; stroke-linejoin:round; stroke-width:4; stroke-opacity:1; fill:none" points="352.248,762.376 371.146,762.376 "/>
<polyline clip-path="url(#clip610)" style="stroke:#000000; stroke-linecap:round; stroke-linejoin:round; stroke-width:4; stroke-opacity:1; fill:none" points="352.248,589.534 371.146,589.534 "/>
<polyline clip-path="url(#clip610)" style="stroke:#000000; stroke-linecap:round; stroke-linejoin:round; stroke-width:4; stroke-opacity:1; fill:none" points="352.248,416.693 371.146,416.693 "/>
<polyline clip-path="url(#clip610)" style="stroke:#000000; stroke-linecap:round; stroke-linejoin:round; stroke-width:4; stroke-opacity:1; fill:none" points="352.248,243.851 371.146,243.851 "/>
<path clip-path="url(#clip610)" d="M223.416 955.01 L231.055 955.01 L231.055 928.644 L222.744 930.311 L222.744 926.052 L231.008 924.385 L235.684 924.385 L235.684 955.01 L243.323 955.01 L243.323 958.945 L223.416 958.945 L223.416 955.01 Z" fill="#000000" fill-rule="nonzero" fill-opacity="1" /><path clip-path="url(#clip610)" d="M262.767 927.464 Q259.156 927.464 257.328 931.028 Q255.522 934.57 255.522 941.7 Q255.522 948.806 257.328 952.371 Q259.156 955.912 262.767 955.912 Q266.402 955.912 268.207 952.371 Q270.036 948.806 270.036 941.7 Q270.036 934.57 268.207 931.028 Q266.402 927.464 262.767 927.464 M262.767 923.76 Q268.577 923.76 271.633 928.366 Q274.712 932.95 274.712 941.7 Q274.712 950.426 271.633 955.033 Q268.577 959.616 262.767 959.616 Q256.957 959.616 253.878 955.033 Q250.823 950.426 250.823 941.7 Q250.823 932.95 253.878 928.366 Q256.957 923.76 262.767 923.76 Z" fill="#000000" fill-rule="nonzero" fill-opacity="1" /><path clip-path="url(#clip610)" d="M274.712 917.861 L298.823 917.861 L298.823 921.059 L274.712 921.059 L274.712 917.861 Z" fill="#000000" fill-rule="nonzero" fill-opacity="1" /><path clip-path="url(#clip610)" d="M317.462 906.765 L307.87 921.754 L317.462 921.754 L317.462 906.765 M316.465 903.454 L321.242 903.454 L321.242 921.754 L325.248 921.754 L325.248 924.914 L321.242 924.914 L321.242 931.534 L317.462 931.534 L317.462 924.914 L304.785 924.914 L304.785 921.247 L316.465 903.454 Z" fill="#000000" fill-rule="nonzero" fill-opacity="1" /><path clip-path="url(#clip610)" d="M224.337 782.168 L231.976 782.168 L231.976 755.803 L223.666 757.469 L223.666 753.21 L231.93 751.543 L236.606 751.543 L236.606 782.168 L244.245 782.168 L244.245 786.103 L224.337 786.103 L224.337 782.168 Z" fill="#000000" fill-rule="nonzero" fill-opacity="1" /><path clip-path="url(#clip610)" d="M263.689 754.622 Q260.078 754.622 258.249 758.187 Q256.444 761.728 256.444 768.858 Q256.444 775.964 258.249 779.529 Q260.078 783.071 263.689 783.071 Q267.323 783.071 269.129 779.529 Q270.957 775.964 270.957 768.858 Q270.957 761.728 269.129 758.187 Q267.323 754.622 263.689 754.622 M263.689 750.918 Q269.499 750.918 272.555 755.525 Q275.633 760.108 275.633 768.858 Q275.633 777.585 272.555 782.191 Q269.499 786.775 263.689 786.775 Q257.879 786.775 254.8 782.191 Q251.745 777.585 251.745 768.858 Q251.745 760.108 254.8 755.525 Q257.879 750.918 263.689 750.918 Z" fill="#000000" fill-rule="nonzero" fill-opacity="1" /><path clip-path="url(#clip610)" d="M275.633 745.02 L299.745 745.02 L299.745 748.217 L275.633 748.217 L275.633 745.02 Z" fill="#000000" fill-rule="nonzero" fill-opacity="1" /><path clip-path="url(#clip610)" d="M319.455 743.553 Q322.183 744.136 323.706 745.979 Q325.248 747.822 325.248 750.53 Q325.248 754.687 322.389 756.963 Q319.531 759.238 314.264 759.238 Q312.497 759.238 310.616 758.881 Q308.754 758.542 306.76 757.847 L306.76 754.179 Q308.34 755.101 310.221 755.571 Q312.102 756.041 314.152 756.041 Q317.725 756.041 319.587 754.63 Q321.468 753.22 321.468 750.53 Q321.468 748.048 319.719 746.656 Q317.988 745.245 314.885 745.245 L311.613 745.245 L311.613 742.123 L315.036 742.123 Q317.838 742.123 319.324 741.014 Q320.81 739.885 320.81 737.779 Q320.81 735.616 319.267 734.468 Q317.744 733.302 314.885 733.302 Q313.324 733.302 311.537 733.641 Q309.751 733.979 307.606 734.694 L307.606 731.309 Q309.769 730.707 311.65 730.406 Q313.55 730.105 315.224 730.105 Q319.549 730.105 322.07 732.08 Q324.59 734.036 324.59 737.384 Q324.59 739.716 323.255 741.333 Q321.919 742.932 319.455 743.553 Z" fill="#000000" fill-rule="nonzero" fill-opacity="1" /><path clip-path="url(#clip610)" d="M225.108 609.327 L232.747 609.327 L232.747 582.961 L224.437 584.628 L224.437 580.368 L232.701 578.702 L237.377 578.702 L237.377 609.327 L245.016 609.327 L245.016 613.262 L225.108 613.262 L225.108 609.327 Z" fill="#000000" fill-rule="nonzero" fill-opacity="1" /><path clip-path="url(#clip610)" d="M264.46 581.78 Q260.849 581.78 259.02 585.345 Q257.215 588.887 257.215 596.016 Q257.215 603.123 259.02 606.688 Q260.849 610.229 264.46 610.229 Q268.094 610.229 269.9 606.688 Q271.728 603.123 271.728 596.016 Q271.728 588.887 269.9 585.345 Q268.094 581.78 264.46 581.78 M264.46 578.077 Q270.27 578.077 273.326 582.683 Q276.404 587.266 276.404 596.016 Q276.404 604.743 273.326 609.35 Q270.27 613.933 264.46 613.933 Q258.65 613.933 255.571 609.35 Q252.516 604.743 252.516 596.016 Q252.516 587.266 255.571 582.683 Q258.65 578.077 264.46 578.077 Z" fill="#000000" fill-rule="nonzero" fill-opacity="1" /><path clip-path="url(#clip610)" d="M276.404 572.178 L300.516 572.178 L300.516 575.375 L276.404 575.375 L276.404 572.178 Z" fill="#000000" fill-rule="nonzero" fill-opacity="1" /><path clip-path="url(#clip610)" d="M311.989 582.654 L325.248 582.654 L325.248 585.851 L307.418 585.851 L307.418 582.654 Q309.581 580.416 313.305 576.654 Q317.048 572.874 318.007 571.783 Q319.832 569.733 320.546 568.322 Q321.28 566.893 321.28 565.52 Q321.28 563.282 319.7 561.871 Q318.139 560.461 315.619 560.461 Q313.832 560.461 311.838 561.081 Q309.863 561.702 307.606 562.962 L307.606 559.125 Q309.901 558.204 311.895 557.734 Q313.888 557.263 315.543 557.263 Q319.907 557.263 322.502 559.445 Q325.098 561.627 325.098 565.276 Q325.098 567.006 324.439 568.567 Q323.8 570.109 322.088 572.216 Q321.618 572.761 319.098 575.375 Q316.578 577.971 311.989 582.654 Z" fill="#000000" fill-rule="nonzero" fill-opacity="1" /><path clip-path="url(#clip610)" d="M224.807 436.485 L232.446 436.485 L232.446 410.119 L224.136 411.786 L224.136 407.527 L232.4 405.86 L237.076 405.86 L237.076 436.485 L244.715 436.485 L244.715 440.42 L224.807 440.42 L224.807 436.485 Z" fill="#000000" fill-rule="nonzero" fill-opacity="1" /><path clip-path="url(#clip610)" d="M264.159 408.939 Q260.548 408.939 258.719 412.504 Q256.914 416.045 256.914 423.175 Q256.914 430.281 258.719 433.846 Q260.548 437.388 264.159 437.388 Q267.793 437.388 269.599 433.846 Q271.428 430.281 271.428 423.175 Q271.428 416.045 269.599 412.504 Q267.793 408.939 264.159 408.939 M264.159 405.235 Q269.969 405.235 273.025 409.842 Q276.103 414.425 276.103 423.175 Q276.103 431.902 273.025 436.508 Q269.969 441.091 264.159 441.091 Q258.349 441.091 255.27 436.508 Q252.215 431.902 252.215 423.175 Q252.215 414.425 255.27 409.842 Q258.349 405.235 264.159 405.235 Z" fill="#000000" fill-rule="nonzero" fill-opacity="1" /><path clip-path="url(#clip610)" d="M276.103 399.336 L300.215 399.336 L300.215 402.534 L276.103 402.534 L276.103 399.336 Z" fill="#000000" fill-rule="nonzero" fill-opacity="1" /><path clip-path="url(#clip610)" d="M309.073 409.812 L315.28 409.812 L315.28 388.39 L308.528 389.745 L308.528 386.284 L315.242 384.93 L319.042 384.93 L319.042 409.812 L325.248 409.812 L325.248 413.01 L309.073 413.01 L309.073 409.812 Z" fill="#000000" fill-rule="nonzero" fill-opacity="1" /><path clip-path="url(#clip610)" d="M254.543 263.643 L262.181 263.643 L262.181 237.278 L253.871 238.944 L253.871 234.685 L262.135 233.019 L266.811 233.019 L266.811 263.643 L274.45 263.643 L274.45 267.579 L254.543 267.579 L254.543 263.643 Z" fill="#000000" fill-rule="nonzero" fill-opacity="1" /><path clip-path="url(#clip610)" d="M293.894 236.097 Q290.283 236.097 288.454 239.662 Q286.649 243.204 286.649 250.333 Q286.649 257.44 288.454 261.004 Q290.283 264.546 293.894 264.546 Q297.528 264.546 299.334 261.004 Q301.163 257.44 301.163 250.333 Q301.163 243.204 299.334 239.662 Q297.528 236.097 293.894 236.097 M293.894 232.394 Q299.704 232.394 302.76 237 Q305.839 241.583 305.839 250.333 Q305.839 259.06 302.76 263.667 Q299.704 268.25 293.894 268.25 Q288.084 268.25 285.005 263.667 Q281.95 259.06 281.95 250.333 Q281.95 241.583 285.005 237 Q288.084 232.394 293.894 232.394 Z" fill="#000000" fill-rule="nonzero" fill-opacity="1" /><path clip-path="url(#clip610)" d="M315.543 214.59 Q312.609 214.59 311.124 217.486 Q309.657 220.364 309.657 226.156 Q309.657 231.93 311.124 234.827 Q312.609 237.704 315.543 237.704 Q318.496 237.704 319.963 234.827 Q321.449 231.93 321.449 226.156 Q321.449 220.364 319.963 217.486 Q318.496 214.59 315.543 214.59 M315.543 211.58 Q320.264 211.58 322.747 215.323 Q325.248 219.047 325.248 226.156 Q325.248 233.247 322.747 236.99 Q320.264 240.714 315.543 240.714 Q310.823 240.714 308.321 236.99 Q305.839 233.247 305.839 226.156 Q305.839 219.047 308.321 215.323 Q310.823 211.58 315.543 211.58 Z" fill="#000000" fill-rule="nonzero" fill-opacity="1" /><path clip-path="url(#clip610)" d="M178.534 840.976 L168.091 840.976 L168.091 849.57 L163.768 849.57 L163.768 835.768 L180.461 835.768 Q182.622 838.815 183.742 842.487 Q184.836 846.158 184.836 850.325 Q184.836 859.44 179.523 864.596 Q174.185 869.726 164.679 869.726 Q155.148 869.726 149.836 864.596 Q144.497 859.44 144.497 850.325 Q144.497 846.523 145.435 843.112 Q146.372 839.674 148.195 836.783 L153.794 836.783 Q151.32 839.7 150.07 842.981 Q148.82 846.263 148.82 849.882 Q148.82 857.018 152.805 860.611 Q156.789 864.179 164.679 864.179 Q172.544 864.179 176.528 860.611 Q180.513 857.018 180.513 849.882 Q180.513 847.096 180.044 844.908 Q179.549 842.721 178.534 840.976 Z" fill="#000000" fill-rule="nonzero" fill-opacity="1" /><path clip-path="url(#clip610)" d="M169.419 813.112 Q169.419 818.919 170.747 821.159 Q172.075 823.398 175.278 823.398 Q177.83 823.398 179.341 821.731 Q180.825 820.039 180.825 817.148 Q180.825 813.164 178.013 810.768 Q175.174 808.346 170.487 808.346 L169.419 808.346 L169.419 813.112 M167.44 803.555 L184.08 803.555 L184.08 808.346 L179.653 808.346 Q182.31 809.987 183.586 812.435 Q184.836 814.883 184.836 818.424 Q184.836 822.903 182.336 825.56 Q179.81 828.19 175.591 828.19 Q170.669 828.19 168.169 824.909 Q165.669 821.601 165.669 815.065 L165.669 808.346 L165.2 808.346 Q161.893 808.346 160.096 810.534 Q158.273 812.695 158.273 816.627 Q158.273 819.127 158.872 821.497 Q159.471 823.867 160.669 826.054 L156.242 826.054 Q155.226 823.424 154.732 820.95 Q154.211 818.476 154.211 816.133 Q154.211 809.804 157.492 806.679 Q160.773 803.555 167.44 803.555 Z" fill="#000000" fill-rule="nonzero" fill-opacity="1" /><path clip-path="url(#clip610)" d="M154.914 793.685 L154.914 788.893 L184.08 788.893 L184.08 793.685 L154.914 793.685 M143.56 793.685 L143.56 788.893 L149.627 788.893 L149.627 793.685 L143.56 793.685 Z" fill="#000000" fill-rule="nonzero" fill-opacity="1" /><path clip-path="url(#clip610)" d="M166.476 754.622 L184.08 754.622 L184.08 759.414 L166.633 759.414 Q162.492 759.414 160.435 761.029 Q158.377 762.643 158.377 765.872 Q158.377 769.753 160.851 771.992 Q163.325 774.232 167.596 774.232 L184.08 774.232 L184.08 779.049 L154.914 779.049 L154.914 774.232 L159.445 774.232 Q156.815 772.513 155.513 770.195 Q154.211 767.852 154.211 764.805 Q154.211 759.779 157.336 757.201 Q160.435 754.622 166.476 754.622 Z" fill="#000000" fill-rule="nonzero" fill-opacity="1" /><path clip-path="url(#clip610)" d="M145.2 719.597 L145.2 715.17 L189.028 728.711 L189.028 733.138 L145.2 719.597 Z" fill="#000000" fill-rule="nonzero" fill-opacity="1" /><path clip-path="url(#clip610)" d="M169.159 673.998 Q163.95 673.998 161.086 676.159 Q158.221 678.295 158.221 682.175 Q158.221 686.029 161.086 688.191 Q163.95 690.326 169.159 690.326 Q174.341 690.326 177.205 688.191 Q180.07 686.029 180.07 682.175 Q180.07 678.295 177.205 676.159 Q174.341 673.998 169.159 673.998 M180.461 669.206 Q187.908 669.206 191.528 672.514 Q195.174 675.821 195.174 682.644 Q195.174 685.17 194.783 687.409 Q194.419 689.649 193.638 691.758 L188.976 691.758 Q190.122 689.649 190.669 687.592 Q191.216 685.534 191.216 683.399 Q191.216 678.685 188.742 676.342 Q186.294 673.998 181.32 673.998 L178.95 673.998 Q181.528 675.482 182.804 677.8 Q184.08 680.118 184.08 683.347 Q184.08 688.711 179.992 691.993 Q175.903 695.274 169.159 695.274 Q162.388 695.274 158.299 691.993 Q154.211 688.711 154.211 683.347 Q154.211 680.118 155.487 677.8 Q156.763 675.482 159.341 673.998 L154.914 673.998 L154.914 669.206 L180.461 669.206 Z" fill="#000000" fill-rule="nonzero" fill-opacity="1" /><path clip-path="url(#clip610)" d="M169.419 646.081 Q169.419 651.889 170.747 654.128 Q172.075 656.368 175.278 656.368 Q177.83 656.368 179.341 654.701 Q180.825 653.008 180.825 650.118 Q180.825 646.133 178.013 643.738 Q175.174 641.316 170.487 641.316 L169.419 641.316 L169.419 646.081 M167.44 636.524 L184.08 636.524 L184.08 641.316 L179.653 641.316 Q182.31 642.956 183.586 645.404 Q184.836 647.852 184.836 651.394 Q184.836 655.873 182.336 658.529 Q179.81 661.159 175.591 661.159 Q170.669 661.159 168.169 657.878 Q165.669 654.571 165.669 648.035 L165.669 641.316 L165.2 641.316 Q161.893 641.316 160.096 643.503 Q158.273 645.665 158.273 649.597 Q158.273 652.097 158.872 654.467 Q159.471 656.837 160.669 659.024 L156.242 659.024 Q155.226 656.394 154.732 653.92 Q154.211 651.446 154.211 649.102 Q154.211 642.774 157.492 639.649 Q160.773 636.524 167.44 636.524 Z" fill="#000000" fill-rule="nonzero" fill-opacity="1" /><path clip-path="url(#clip610)" d="M154.914 626.654 L154.914 621.863 L184.08 621.863 L184.08 626.654 L154.914 626.654 M143.56 626.654 L143.56 621.863 L149.627 621.863 L149.627 626.654 L143.56 626.654 Z" fill="#000000" fill-rule="nonzero" fill-opacity="1" /><path clip-path="url(#clip610)" d="M166.476 587.592 L184.08 587.592 L184.08 592.384 L166.633 592.384 Q162.492 592.384 160.435 593.998 Q158.377 595.613 158.377 598.842 Q158.377 602.722 160.851 604.962 Q163.325 607.201 167.596 607.201 L184.08 607.201 L184.08 612.019 L154.914 612.019 L154.914 607.201 L159.445 607.201 Q156.815 605.483 155.513 603.165 Q154.211 600.821 154.211 597.774 Q154.211 592.748 157.336 590.17 Q160.435 587.592 166.476 587.592 Z" fill="#000000" fill-rule="nonzero" fill-opacity="1" /><path clip-path="url(#clip610)" d="M169.419 547.827 Q169.419 553.634 170.747 555.874 Q172.075 558.113 175.278 558.113 Q177.83 558.113 179.341 556.446 Q180.825 554.754 180.825 551.863 Q180.825 547.879 178.013 545.483 Q175.174 543.061 170.487 543.061 L169.419 543.061 L169.419 547.827 M167.44 538.269 L184.08 538.269 L184.08 543.061 L179.653 543.061 Q182.31 544.702 183.586 547.15 Q184.836 549.598 184.836 553.139 Q184.836 557.618 182.336 560.275 Q179.81 562.905 175.591 562.905 Q170.669 562.905 168.169 559.624 Q165.669 556.316 165.669 549.78 L165.669 543.061 L165.2 543.061 Q161.893 543.061 160.096 545.249 Q158.273 547.41 158.273 551.342 Q158.273 553.842 158.872 556.212 Q159.471 558.582 160.669 560.769 L156.242 560.769 Q155.226 558.139 154.732 555.665 Q154.211 553.191 154.211 550.848 Q154.211 544.519 157.492 541.394 Q160.773 538.269 167.44 538.269 Z" fill="#000000" fill-rule="nonzero" fill-opacity="1" /><path clip-path="url(#clip610)" d="M146.633 523.66 L154.914 523.66 L154.914 513.79 L158.638 513.79 L158.638 523.66 L174.471 523.66 Q178.039 523.66 179.054 522.697 Q180.07 521.707 180.07 518.712 L180.07 513.79 L184.08 513.79 L184.08 518.712 Q184.08 524.259 182.023 526.368 Q179.94 528.478 174.471 528.478 L158.638 528.478 L158.638 531.993 L154.914 531.993 L154.914 528.478 L146.633 528.478 L146.633 523.66 Z" fill="#000000" fill-rule="nonzero" fill-opacity="1" /><path clip-path="url(#clip610)" d="M166.476 466.291 L184.08 466.291 L184.08 471.082 L166.633 471.082 Q162.492 471.082 160.435 472.697 Q158.377 474.311 158.377 477.541 Q158.377 481.421 160.851 483.66 Q163.325 485.9 167.596 485.9 L184.08 485.9 L184.08 490.718 L143.56 490.718 L143.56 485.9 L159.445 485.9 Q156.815 484.181 155.513 481.864 Q154.211 479.52 154.211 476.473 Q154.211 471.447 157.336 468.869 Q160.435 466.291 166.476 466.291 Z" fill="#000000" fill-rule="nonzero" fill-opacity="1" /><path clip-path="url(#clip610)" d="M159.862 456.108 L159.862 422.723 L164.237 422.723 L164.237 456.108 L159.862 456.108 M170.487 456.108 L170.487 422.723 L174.914 422.723 L174.914 456.108 L170.487 456.108 Z" fill="#000000" fill-rule="nonzero" fill-opacity="1" /><path clip-path="url(#clip610)" d="M179.653 410.458 L179.653 401.864 L149.992 401.864 L151.867 411.213 L147.075 411.213 L145.2 401.916 L145.2 396.656 L179.653 396.656 L179.653 388.062 L184.08 388.062 L184.08 410.458 L179.653 410.458 Z" fill="#000000" fill-rule="nonzero" fill-opacity="1" /><path clip-path="url(#clip610)" d="M472.763 6.87496 Q468.886 13.53 467.005 20.0404 Q465.124 26.5508 465.124 33.2348 Q465.124 39.9188 467.005 46.487 Q468.915 53.0263 472.763 59.6525 L468.133 59.6525 Q463.793 52.8527 461.623 46.2845 Q459.482 39.7162 459.482 33.2348 Q459.482 26.7823 461.623 20.2429 Q463.764 13.7036 468.133 6.87496 L472.763 6.87496 Z" fill="#000000" fill-rule="nonzero" fill-opacity="1" /><path clip-path="url(#clip610)" d="M489.169 13.4432 L489.169 47.0368 L496.229 47.0368 Q505.17 47.0368 509.308 42.9859 Q513.474 38.935 513.474 30.1966 Q513.474 21.5161 509.308 17.4941 Q505.17 13.4432 496.229 13.4432 L489.169 13.4432 M483.324 8.64 L495.332 8.64 Q507.89 8.64 513.764 13.8772 Q519.638 19.0855 519.638 30.1966 Q519.638 41.3655 513.735 46.6028 Q507.832 51.84 495.332 51.84 L483.324 51.84 L483.324 8.64 Z" fill="#000000" fill-rule="nonzero" fill-opacity="1" /><path clip-path="url(#clip610)" d="M527.884 6.87496 L532.514 6.87496 Q536.854 13.7036 538.995 20.2429 Q541.165 26.7823 541.165 33.2348 Q541.165 39.7162 538.995 46.2845 Q536.854 52.8527 532.514 59.6525 L527.884 59.6525 Q531.732 53.0263 533.613 46.487 Q535.523 39.9188 535.523 33.2348 Q535.523 26.5508 533.613 20.0404 Q531.732 13.53 527.884 6.87496 Z" fill="#000000" fill-rule="nonzero" fill-opacity="1" /><path clip-path="url(#clip610)" d="M615.644 10.0578 L615.644 15.758 Q612.317 14.1666 609.365 13.3853 Q606.414 12.6041 603.665 12.6041 Q598.891 12.6041 596.287 14.4559 Q593.711 16.3078 593.711 19.7221 Q593.711 22.5867 595.418 24.0624 Q597.155 25.5091 601.958 26.4061 L605.488 27.1295 Q612.027 28.3737 615.123 31.5276 Q618.248 34.6526 618.248 39.9188 Q618.248 46.1977 614.024 49.4384 Q609.828 52.6791 601.697 52.6791 Q598.63 52.6791 595.158 51.9847 Q591.715 51.2902 588.011 49.9303 L588.011 43.9118 Q591.57 45.9083 594.984 46.921 Q598.399 47.9338 601.697 47.9338 Q606.703 47.9338 609.423 45.9662 Q612.143 43.9986 612.143 40.3528 Q612.143 37.1699 610.175 35.376 Q608.237 33.582 603.781 32.685 L600.222 31.9906 Q593.682 30.6885 590.76 27.9107 Q587.838 25.133 587.838 20.1851 Q587.838 14.4559 591.859 11.1573 Q595.91 7.85875 602.999 7.85875 Q606.038 7.85875 609.192 8.40852 Q612.345 8.95829 615.644 10.0578 Z" fill="#000000" fill-rule="nonzero" fill-opacity="1" /><path clip-path="url(#clip610)" d="M632.282 46.9789 L632.282 64.1663 L626.929 64.1663 L626.929 19.4328 L632.282 19.4328 L632.282 24.3517 Q633.96 21.4582 636.506 20.0693 Q639.081 18.6515 642.64 18.6515 Q648.543 18.6515 652.218 23.339 Q655.922 28.0265 655.922 35.6653 Q655.922 43.3042 652.218 47.9916 Q648.543 52.6791 642.64 52.6791 Q639.081 52.6791 636.506 51.2902 Q633.96 49.8724 632.282 46.9789 M650.395 35.6653 Q650.395 29.7915 647.965 26.464 Q645.563 23.1075 641.338 23.1075 Q637.114 23.1075 634.683 26.464 Q632.282 29.7915 632.282 35.6653 Q632.282 41.5391 634.683 44.8956 Q637.114 48.2231 641.338 48.2231 Q645.563 48.2231 647.965 44.8956 Q650.395 41.5391 650.395 35.6653 Z" fill="#000000" fill-rule="nonzero" fill-opacity="1" /><path clip-path="url(#clip610)" d="M692.467 34.3054 L692.467 36.9095 L667.988 36.9095 Q668.335 42.4072 671.286 45.3007 Q674.266 48.1653 679.562 48.1653 Q682.629 48.1653 685.493 47.4129 Q688.387 46.6606 691.222 45.156 L691.222 50.1907 Q688.358 51.406 685.349 52.0425 Q682.339 52.6791 679.243 52.6791 Q671.489 52.6791 666.946 48.1653 Q662.432 43.6514 662.432 35.9547 Q662.432 27.9975 666.714 23.339 Q671.026 18.6515 678.317 18.6515 Q684.857 18.6515 688.647 22.876 Q692.467 27.0716 692.467 34.3054 M687.143 32.7429 Q687.085 28.3737 684.683 25.7695 Q682.31 23.1654 678.375 23.1654 Q673.919 23.1654 671.228 25.6827 Q668.566 28.2001 668.161 32.7718 L687.143 32.7429 Z" fill="#000000" fill-rule="nonzero" fill-opacity="1" /><path clip-path="url(#clip610)" d="M728.925 34.3054 L728.925 36.9095 L704.446 36.9095 Q704.793 42.4072 707.744 45.3007 Q710.725 48.1653 716.02 48.1653 Q719.087 48.1653 721.951 47.4129 Q724.845 46.6606 727.681 45.156 L727.681 50.1907 Q724.816 51.406 721.807 52.0425 Q718.797 52.6791 715.701 52.6791 Q707.947 52.6791 703.404 48.1653 Q698.89 43.6514 698.89 35.9547 Q698.89 27.9975 703.173 23.339 Q707.484 18.6515 714.775 18.6515 Q721.315 18.6515 725.105 22.876 Q728.925 27.0716 728.925 34.3054 M723.601 32.7429 Q723.543 28.3737 721.141 25.7695 Q718.769 23.1654 714.833 23.1654 Q710.377 23.1654 707.686 25.6827 Q705.024 28.2001 704.619 32.7718 L723.601 32.7429 Z" fill="#000000" fill-rule="nonzero" fill-opacity="1" /><path clip-path="url(#clip610)" d="M758.988 24.3517 L758.988 6.81709 L764.312 6.81709 L764.312 51.84 L758.988 51.84 L758.988 46.9789 Q757.31 49.8724 754.735 51.2902 Q752.188 52.6791 748.601 52.6791 Q742.727 52.6791 739.023 47.9916 Q735.348 43.3042 735.348 35.6653 Q735.348 28.0265 739.023 23.339 Q742.727 18.6515 748.601 18.6515 Q752.188 18.6515 754.735 20.0693 Q757.31 21.4582 758.988 24.3517 M740.846 35.6653 Q740.846 41.5391 743.248 44.8956 Q745.678 48.2231 749.903 48.2231 Q754.127 48.2231 756.558 44.8956 Q758.988 41.5391 758.988 35.6653 Q758.988 29.7915 756.558 26.464 Q754.127 23.1075 749.903 23.1075 Q745.678 23.1075 743.248 26.464 Q740.846 29.7915 740.846 35.6653 Z" fill="#000000" fill-rule="nonzero" fill-opacity="1" /><path clip-path="url(#clip610)" d="M772.588 33.2348 L788.184 33.2348 L788.184 37.9801 L772.588 37.9801 L772.588 33.2348 Z" fill="#000000" fill-rule="nonzero" fill-opacity="1" /><path clip-path="url(#clip610)" d="M821.893 25.6538 Q823.889 22.0659 826.667 20.3587 Q829.445 18.6515 833.207 18.6515 Q838.27 18.6515 841.019 22.2105 Q843.768 25.7406 843.768 32.2799 L843.768 51.84 L838.415 51.84 L838.415 32.4535 Q838.415 27.795 836.766 25.5381 Q835.116 23.2811 831.731 23.2811 Q827.593 23.2811 825.192 26.03 Q822.79 28.7788 822.79 33.5241 L822.79 51.84 L817.437 51.84 L817.437 32.4535 Q817.437 27.7661 815.788 25.5381 Q814.138 23.2811 810.695 23.2811 Q806.615 23.2811 804.214 26.0589 Q801.812 28.8077 801.812 33.5241 L801.812 51.84 L796.459 51.84 L796.459 19.4328 L801.812 19.4328 L801.812 24.4675 Q803.635 21.4872 806.181 20.0693 Q808.728 18.6515 812.229 18.6515 Q815.759 18.6515 818.218 20.4455 Q820.707 22.2395 821.893 25.6538 Z" fill="#000000" fill-rule="nonzero" fill-opacity="1" /><path clip-path="url(#clip610)" d="M869.115 35.5496 Q862.662 35.5496 860.174 37.0253 Q857.686 38.501 857.686 42.06 Q857.686 44.8956 859.537 46.5738 Q861.418 48.2231 864.63 48.2231 Q869.057 48.2231 871.719 45.0981 Q874.41 41.9442 874.41 36.7359 L874.41 35.5496 L869.115 35.5496 M879.734 33.3505 L879.734 51.84 L874.41 51.84 L874.41 46.921 Q872.587 49.8724 869.867 51.2902 Q867.147 52.6791 863.212 52.6791 Q858.235 52.6791 855.284 49.9014 Q852.362 47.0947 852.362 42.4072 Q852.362 36.9385 856.007 34.1607 Q859.682 31.3829 866.945 31.3829 L874.41 31.3829 L874.41 30.8621 Q874.41 27.1874 871.98 25.1908 Q869.578 23.1654 865.209 23.1654 Q862.431 23.1654 859.798 23.8309 Q857.165 24.4964 854.734 25.8274 L854.734 20.9085 Q857.657 19.78 860.405 19.2302 Q863.154 18.6515 865.758 18.6515 Q872.79 18.6515 876.262 22.2973 Q879.734 25.9431 879.734 33.3505 Z" fill="#000000" fill-rule="nonzero" fill-opacity="1" /><path clip-path="url(#clip610)" d="M895.967 10.2314 L895.967 19.4328 L906.933 19.4328 L906.933 23.5705 L895.967 23.5705 L895.967 41.163 Q895.967 45.1271 897.037 46.2555 Q898.137 47.384 901.464 47.384 L906.933 47.384 L906.933 51.84 L901.464 51.84 Q895.301 51.84 892.957 49.5541 Q890.614 47.2393 890.614 41.163 L890.614 23.5705 L886.707 23.5705 L886.707 19.4328 L890.614 19.4328 L890.614 10.2314 L895.967 10.2314 Z" fill="#000000" fill-rule="nonzero" fill-opacity="1" /><path clip-path="url(#clip610)" d="M937.257 20.677 L937.257 25.6538 Q935 24.4096 932.714 23.802 Q930.457 23.1654 928.142 23.1654 Q922.963 23.1654 920.098 26.464 Q917.234 29.7336 917.234 35.6653 Q917.234 41.597 920.098 44.8956 Q922.963 48.1653 928.142 48.1653 Q930.457 48.1653 932.714 47.5576 Q935 46.921 937.257 45.6768 L937.257 50.5958 Q935.029 51.6375 932.627 52.1583 Q930.255 52.6791 927.564 52.6791 Q920.243 52.6791 915.932 48.0784 Q911.62 43.4778 911.62 35.6653 Q911.62 27.7371 915.961 23.1943 Q920.33 18.6515 927.911 18.6515 Q930.37 18.6515 932.714 19.1724 Q935.058 19.6642 937.257 20.677 Z" fill="#000000" fill-rule="nonzero" fill-opacity="1" /><path clip-path="url(#clip610)" d="M973.455 32.2799 L973.455 51.84 L968.131 51.84 L968.131 32.4535 Q968.131 27.8529 966.337 25.567 Q964.543 23.2811 960.955 23.2811 Q956.643 23.2811 954.155 26.03 Q951.667 28.7788 951.667 33.5241 L951.667 51.84 L946.314 51.84 L946.314 6.81709 L951.667 6.81709 L951.667 24.4675 Q953.576 21.545 956.152 20.0983 Q958.756 18.6515 962.141 18.6515 Q967.726 18.6515 970.59 22.1237 Q973.455 25.567 973.455 32.2799 Z" fill="#000000" fill-rule="nonzero" fill-opacity="1" /><path clip-path="url(#clip610)" d="M1011.79 34.3054 L1011.79 36.9095 L987.315 36.9095 Q987.662 42.4072 990.613 45.3007 Q993.593 48.1653 998.889 48.1653 Q1001.96 48.1653 1004.82 47.4129 Q1007.71 46.6606 1010.55 45.156 L1010.55 50.1907 Q1007.68 51.406 1004.68 52.0425 Q1001.67 52.6791 998.57 52.6791 Q990.816 52.6791 986.273 48.1653 Q981.759 43.6514 981.759 35.9547 Q981.759 27.9975 986.041 23.339 Q990.353 18.6515 997.644 18.6515 Q1004.18 18.6515 1007.97 22.876 Q1011.79 27.0716 1011.79 34.3054 M1006.47 32.7429 Q1006.41 28.3737 1004.01 25.7695 Q1001.64 23.1654 997.702 23.1654 Q993.246 23.1654 990.555 25.6827 Q987.893 28.2001 987.488 32.7718 L1006.47 32.7429 Z" fill="#000000" fill-rule="nonzero" fill-opacity="1" /><path clip-path="url(#clip610)" d="M1041.86 24.3517 L1041.86 6.81709 L1047.18 6.81709 L1047.18 51.84 L1041.86 51.84 L1041.86 46.9789 Q1040.18 49.8724 1037.6 51.2902 Q1035.06 52.6791 1031.47 52.6791 Q1025.6 52.6791 1021.89 47.9916 Q1018.22 43.3042 1018.22 35.6653 Q1018.22 28.0265 1021.89 23.339 Q1025.6 18.6515 1031.47 18.6515 Q1035.06 18.6515 1037.6 20.0693 Q1040.18 21.4582 1041.86 24.3517 M1023.71 35.6653 Q1023.71 41.5391 1026.12 44.8956 Q1028.55 48.2231 1032.77 48.2231 Q1037 48.2231 1039.43 44.8956 Q1041.86 41.5391 1041.86 35.6653 Q1041.86 29.7915 1039.43 26.464 Q1037 23.1075 1032.77 23.1075 Q1028.55 23.1075 1026.12 26.464 Q1023.71 29.7915 1023.71 35.6653 Z" fill="#000000" fill-rule="nonzero" fill-opacity="1" /><path clip-path="url(#clip610)" d="M1108.61 6.87496 Q1104.73 13.53 1102.85 20.0404 Q1100.97 26.5508 1100.97 33.2348 Q1100.97 39.9188 1102.85 46.487 Q1104.76 53.0263 1108.61 59.6525 L1103.98 59.6525 Q1099.64 52.8527 1097.47 46.2845 Q1095.33 39.7162 1095.33 33.2348 Q1095.33 26.7823 1097.47 20.2429 Q1099.61 13.7036 1103.98 6.87496 L1108.61 6.87496 Z" fill="#000000" fill-rule="nonzero" fill-opacity="1" /><path clip-path="url(#clip610)" d="M1133.61 14.3981 L1125.68 35.8968 L1141.57 35.8968 L1133.61 14.3981 M1130.31 8.64 L1136.94 8.64 L1153.4 51.84 L1147.33 51.84 L1143.39 40.7579 L1123.92 40.7579 L1119.98 51.84 L1113.82 51.84 L1130.31 8.64 Z" fill="#000000" fill-rule="nonzero" fill-opacity="1" /><path clip-path="url(#clip610)" d="M1165.55 31.2093 L1165.55 47.0368 L1174.93 47.0368 Q1179.65 47.0368 1181.9 45.0981 Q1184.19 43.1306 1184.19 39.1086 Q1184.19 35.0577 1181.9 33.148 Q1179.65 31.2093 1174.93 31.2093 L1165.55 31.2093 M1165.55 13.4432 L1165.55 26.464 L1174.21 26.464 Q1178.49 26.464 1180.57 24.8726 Q1182.68 23.2522 1182.68 19.9536 Q1182.68 16.6839 1180.57 15.0636 Q1178.49 13.4432 1174.21 13.4432 L1165.55 13.4432 M1159.71 8.64 L1174.64 8.64 Q1181.32 8.64 1184.94 11.4178 Q1188.56 14.1955 1188.56 19.317 Q1188.56 23.2811 1186.71 25.6249 Q1184.85 27.9686 1181.27 28.5473 Q1185.58 29.4732 1187.95 32.4246 Q1190.35 35.347 1190.35 39.7452 Q1190.35 45.5322 1186.42 48.6861 Q1182.48 51.84 1175.22 51.84 L1159.71 51.84 L1159.71 8.64 Z" fill="#000000" fill-rule="nonzero" fill-opacity="1" /><path clip-path="url(#clip610)" d="M1256.76 22.442 L1228.98 30.457 L1256.76 38.3852 L1256.76 43.5356 L1219.66 32.8876 L1219.66 27.9686 L1256.76 17.3494 L1256.76 22.442 M1219.66 46.921 L1256.76 46.921 L1256.76 51.84 L1219.66 51.84 L1219.66 46.921 Z" fill="#000000" fill-rule="nonzero" fill-opacity="1" /><path clip-path="url(#clip610)" d="M1301.43 27.9107 Q1297.5 27.9107 1295.18 30.6017 Q1292.9 33.2926 1292.9 37.9801 Q1292.9 42.6387 1295.18 45.3586 Q1297.5 48.0495 1301.43 48.0495 Q1305.37 48.0495 1307.65 45.3586 Q1309.97 42.6387 1309.97 37.9801 Q1309.97 33.2926 1307.65 30.6017 Q1305.37 27.9107 1301.43 27.9107 M1313.04 9.59486 L1313.04 14.9189 Q1310.84 13.8772 1308.58 13.3275 Q1306.35 12.7777 1304.15 12.7777 Q1298.37 12.7777 1295.3 16.6839 Q1292.26 20.5902 1291.83 28.4894 Q1293.53 25.9721 1296.11 24.6411 Q1298.68 23.2811 1301.78 23.2811 Q1308.29 23.2811 1312.05 27.2452 Q1315.84 31.1804 1315.84 37.9801 Q1315.84 44.6352 1311.91 48.6571 Q1307.97 52.6791 1301.43 52.6791 Q1293.94 52.6791 1289.97 46.95 Q1286.01 41.1919 1286.01 30.2834 Q1286.01 20.0404 1290.87 13.964 Q1295.73 7.85875 1303.92 7.85875 Q1306.12 7.85875 1308.35 8.29278 Q1310.61 8.72681 1313.04 9.59486 Z" fill="#000000" fill-rule="nonzero" fill-opacity="1" /><path clip-path="url(#clip610)" d="M1338.41 12.4884 Q1333.9 12.4884 1331.61 16.9444 Q1329.36 21.3714 1329.36 30.2834 Q1329.36 39.1665 1331.61 43.6225 Q1333.9 48.0495 1338.41 48.0495 Q1342.95 48.0495 1345.21 43.6225 Q1347.5 39.1665 1347.5 30.2834 Q1347.5 21.3714 1345.21 16.9444 Q1342.95 12.4884 1338.41 12.4884 M1338.41 7.85875 Q1345.67 7.85875 1349.49 13.6168 Q1353.34 19.346 1353.34 30.2834 Q1353.34 41.1919 1349.49 46.95 Q1345.67 52.6791 1338.41 52.6791 Q1331.15 52.6791 1327.3 46.95 Q1323.48 41.1919 1323.48 30.2834 Q1323.48 19.346 1327.3 13.6168 Q1331.15 7.85875 1338.41 7.85875 Z" fill="#000000" fill-rule="nonzero" fill-opacity="1" /><path clip-path="url(#clip610)" d="M1405.02 20.677 L1405.02 25.6538 Q1402.76 24.4096 1400.48 23.802 Q1398.22 23.1654 1395.91 23.1654 Q1390.73 23.1654 1387.86 26.464 Q1385 29.7336 1385 35.6653 Q1385 41.597 1387.86 44.8956 Q1390.73 48.1653 1395.91 48.1653 Q1398.22 48.1653 1400.48 47.5576 Q1402.76 46.921 1405.02 45.6768 L1405.02 50.5958 Q1402.79 51.6375 1400.39 52.1583 Q1398.02 52.6791 1395.33 52.6791 Q1388.01 52.6791 1383.7 48.0784 Q1379.38 43.4778 1379.38 35.6653 Q1379.38 27.7371 1383.72 23.1943 Q1388.09 18.6515 1395.67 18.6515 Q1398.13 18.6515 1400.48 19.1724 Q1402.82 19.6642 1405.02 20.677 Z" fill="#000000" fill-rule="nonzero" fill-opacity="1" /><path clip-path="url(#clip610)" d="M1439.51 25.6538 Q1441.51 22.0659 1444.29 20.3587 Q1447.06 18.6515 1450.82 18.6515 Q1455.89 18.6515 1458.64 22.2105 Q1461.39 25.7406 1461.39 32.2799 L1461.39 51.84 L1456.03 51.84 L1456.03 32.4535 Q1456.03 27.795 1454.38 25.5381 Q1452.73 23.2811 1449.35 23.2811 Q1445.21 23.2811 1442.81 26.03 Q1440.41 28.7788 1440.41 33.5241 L1440.41 51.84 L1435.06 51.84 L1435.06 32.4535 Q1435.06 27.7661 1433.41 25.5381 Q1431.76 23.2811 1428.31 23.2811 Q1424.23 23.2811 1421.83 26.0589 Q1419.43 28.8077 1419.43 33.5241 L1419.43 51.84 L1414.08 51.84 L1414.08 19.4328 L1419.43 19.4328 L1419.43 24.4675 Q1421.25 21.4872 1423.8 20.0693 Q1426.35 18.6515 1429.85 18.6515 Q1433.38 18.6515 1435.84 20.4455 Q1438.32 22.2395 1439.51 25.6538 Z" fill="#000000" fill-rule="nonzero" fill-opacity="1" /><path clip-path="url(#clip610)" d="M1481.47 8.64 L1486.39 8.64 L1471.34 57.3377 L1466.42 57.3377 L1481.47 8.64 Z" fill="#000000" fill-rule="nonzero" fill-opacity="1" /><path clip-path="url(#clip610)" d="M1512.63 20.3876 L1512.63 25.4223 Q1510.37 24.2649 1507.94 23.6862 Q1505.51 23.1075 1502.91 23.1075 Q1498.94 23.1075 1496.95 24.3228 Q1494.98 25.5381 1494.98 27.9686 Q1494.98 29.8204 1496.4 30.891 Q1497.82 31.9327 1502.1 32.8876 L1503.92 33.2926 Q1509.59 34.5079 1511.96 36.7359 Q1514.37 38.935 1514.37 42.8991 Q1514.37 47.4129 1510.78 50.046 Q1507.22 52.6791 1500.97 52.6791 Q1498.37 52.6791 1495.53 52.1583 Q1492.72 51.6664 1489.6 50.6537 L1489.6 45.156 Q1492.55 46.6896 1495.41 47.4708 Q1498.28 48.2231 1501.08 48.2231 Q1504.85 48.2231 1506.87 46.95 Q1508.9 45.6479 1508.9 43.3042 Q1508.9 41.134 1507.42 39.9766 Q1505.97 38.8192 1501.03 37.7486 L1499.18 37.3146 Q1494.23 36.273 1492.03 34.1318 Q1489.83 31.9616 1489.83 28.2001 Q1489.83 23.6283 1493.07 21.1399 Q1496.31 18.6515 1502.27 18.6515 Q1505.22 18.6515 1507.83 19.0855 Q1510.43 19.5196 1512.63 20.3876 Z" fill="#000000" fill-rule="nonzero" fill-opacity="1" /><path clip-path="url(#clip610)" d="M1522 6.87496 L1526.63 6.87496 Q1530.97 13.7036 1533.12 20.2429 Q1535.29 26.7823 1535.29 33.2348 Q1535.29 39.7162 1533.12 46.2845 Q1530.97 52.8527 1526.63 59.6525 L1522 59.6525 Q1525.85 53.0263 1527.73 46.487 Q1529.64 39.9188 1529.64 33.2348 Q1529.64 26.5508 1527.73 20.0404 Q1525.85 13.53 1522 6.87496 Z" fill="#000000" fill-rule="nonzero" fill-opacity="1" /><path clip-path="url(#clip612)" d="M388.765 243.851 L693.075 302.177 L997.384 352.494 L1301.69 437.921 L1606 485.812 L1606 574.245 L1301.69 520.343 L997.384 453.519 L693.075 386.175 L388.765 243.851  Z" fill="#4482b5" fill-rule="evenodd" fill-opacity="0.18"/>
<polyline clip-path="url(#clip612)" style="stroke:#009af9; stroke-linecap:round; stroke-linejoin:round; stroke-width:0; stroke-opacity:1; fill:none" points="388.765,243.851 693.075,302.177 997.384,352.494 1301.69,437.921 1606,485.812 "/>
<polyline clip-path="url(#clip612)" style="stroke:#4482b5; stroke-linecap:round; stroke-linejoin:round; stroke-width:8; stroke-opacity:1; fill:none" points="388.765,243.851 693.075,329.718 997.384,379.862 1301.69,488.427 1606,523.439 "/>
<path clip-path="url(#clip612)" d="M388.765 243.851 L693.075 405.105 L997.384 466.835 L1301.69 548.286 L1606 603.026 L1606 1013.94 L1301.69 939.728 L997.384 698.849 L693.075 556.507 L388.765 243.851  Z" fill="#ff8c00" fill-rule="evenodd" fill-opacity="0.18"/>
<polyline clip-path="url(#clip612)" style="stroke:#3da44d; stroke-linecap:round; stroke-linejoin:round; stroke-width:0; stroke-opacity:1; fill:none" points="388.765,243.851 693.075,405.105 997.384,466.835 1301.69,548.286 1606,603.026 "/>
<polyline clip-path="url(#clip612)" style="stroke:#ff8c00; stroke-linecap:round; stroke-linejoin:round; stroke-width:8; stroke-opacity:1; fill:none" points="388.765,243.851 693.075,464.367 997.384,541.536 1301.69,673.367 1606,867.475 "/>
<path clip-path="url(#clip612)" d="M388.765 243.851 L693.075 320.094 L997.384 375.046 L1301.69 440.026 L1606 474.153 L1606 878.269 L1301.69 732.009 L997.384 578.804 L693.075 500.304 L388.765 243.851  Z" fill="#db143d" fill-rule="evenodd" fill-opacity="0.18"/>
<polyline clip-path="url(#clip612)" style="stroke:#ac8d18; stroke-linecap:round; stroke-linejoin:round; stroke-width:0; stroke-opacity:1; fill:none" points="388.765,243.851 693.075,320.094 997.384,375.046 1301.69,440.026 1606,474.153 "/>
<polyline clip-path="url(#clip612)" style="stroke:#db143d; stroke-linecap:round; stroke-linejoin:round; stroke-width:8; stroke-opacity:1; fill:none" points="388.765,243.851 693.075,385.139 997.384,459.882 1301.69,577.162 1606,594.56 "/>
<polyline clip-path="url(#clip612)" style="stroke:#999999; stroke-linecap:round; stroke-linejoin:round; stroke-width:4; stroke-opacity:1; fill:none" stroke-dasharray="16, 10" points="-938.023,243.851 2932.79,243.851 "/>
<path clip-path="url(#clip610)" d="M395.257 1009.83 L766.945 1009.83 L766.945 802.47 L395.257 802.47  Z" fill="#ffffff" fill-rule="evenodd" fill-opacity="1"/>
<polyline clip-path="url(#clip610)" style="stroke:#000000; stroke-linecap:round; stroke-linejoin:round; stroke-width:4; stroke-opacity:1; fill:none" points="395.257,1009.83 766.945,1009.83 766.945,802.47 395.257,802.47 395.257,1009.83 "/>
<polyline clip-path="url(#clip610)" style="stroke:#4482b5; stroke-linecap:round; stroke-linejoin:round; stroke-width:8; stroke-opacity:1; fill:none" points="409.594,854.31 495.612,854.31 "/>
<path clip-path="url(#clip610)" d="M525.781 841.636 L519.439 858.835 L532.147 858.835 L525.781 841.636 M523.142 837.03 L528.443 837.03 L541.615 871.59 L536.753 871.59 L533.605 862.724 L518.027 862.724 L514.879 871.59 L509.948 871.59 L523.142 837.03 Z" fill="#000000" fill-rule="nonzero" fill-opacity="1" /><path clip-path="url(#clip610)" d="M551.337 855.085 L551.337 867.747 L558.837 867.747 Q562.61 867.747 564.415 866.196 Q566.244 864.622 566.244 861.405 Q566.244 858.164 564.415 856.636 Q562.61 855.085 558.837 855.085 L551.337 855.085 M551.337 840.872 L551.337 851.289 L558.258 851.289 Q561.684 851.289 563.351 850.016 Q565.04 848.72 565.04 846.081 Q565.04 843.465 563.351 842.169 Q561.684 840.872 558.258 840.872 L551.337 840.872 M546.661 837.03 L558.605 837.03 Q563.952 837.03 566.846 839.252 Q569.739 841.474 569.739 845.572 Q569.739 848.743 568.258 850.618 Q566.776 852.493 563.906 852.956 Q567.355 853.696 569.253 856.058 Q571.175 858.396 571.175 861.914 Q571.175 866.544 568.026 869.067 Q564.878 871.59 559.068 871.59 L546.661 871.59 L546.661 837.03 Z" fill="#000000" fill-rule="nonzero" fill-opacity="1" /><path clip-path="url(#clip610)" d="M604.299 835.618 Q601.198 840.942 599.693 846.15 Q598.188 851.359 598.188 856.706 Q598.188 862.053 599.693 867.308 Q601.221 872.539 604.299 877.84 L600.596 877.84 Q597.123 872.4 595.387 867.145 Q593.674 861.891 593.674 856.706 Q593.674 851.544 595.387 846.312 Q597.1 841.081 600.596 835.618 L604.299 835.618 Z" fill="#000000" fill-rule="nonzero" fill-opacity="1" /><path clip-path="url(#clip610)" d="M634.114 855.942 L634.114 871.59 L629.855 871.59 L629.855 856.081 Q629.855 852.4 628.42 850.572 Q626.984 848.743 624.114 848.743 Q620.665 848.743 618.674 850.942 Q616.684 853.141 616.684 856.937 L616.684 871.59 L612.401 871.59 L612.401 845.664 L616.684 845.664 L616.684 849.692 Q618.211 847.354 620.272 846.197 Q622.355 845.039 625.063 845.039 Q629.531 845.039 631.822 847.817 Q634.114 850.572 634.114 855.942 Z" fill="#000000" fill-rule="nonzero" fill-opacity="1" /><path clip-path="url(#clip610)" d="M643.165 850.062 L672.841 850.062 L672.841 853.951 L643.165 853.951 L643.165 850.062 M643.165 859.507 L672.841 859.507 L672.841 863.442 L643.165 863.442 L643.165 859.507 Z" fill="#000000" fill-rule="nonzero" fill-opacity="1" /><path clip-path="url(#clip610)" d="M697.1 852.956 Q700.456 853.673 702.331 855.942 Q704.229 858.21 704.229 861.544 Q704.229 866.659 700.711 869.46 Q697.192 872.261 690.711 872.261 Q688.535 872.261 686.22 871.821 Q683.929 871.405 681.475 870.548 L681.475 866.034 Q683.419 867.169 685.734 867.747 Q688.049 868.326 690.572 868.326 Q694.97 868.326 697.262 866.59 Q699.577 864.854 699.577 861.544 Q699.577 858.488 697.424 856.775 Q695.294 855.039 691.475 855.039 L687.447 855.039 L687.447 851.197 L691.66 851.197 Q695.109 851.197 696.938 849.831 Q698.766 848.442 698.766 845.849 Q698.766 843.187 696.868 841.775 Q694.993 840.34 691.475 840.34 Q689.554 840.34 687.354 840.757 Q685.155 841.173 682.517 842.053 L682.517 837.886 Q685.179 837.146 687.493 836.775 Q689.831 836.405 691.891 836.405 Q697.216 836.405 700.317 838.835 Q703.419 841.243 703.419 845.363 Q703.419 848.234 701.776 850.224 Q700.132 852.192 697.1 852.956 Z" fill="#000000" fill-rule="nonzero" fill-opacity="1" /><path clip-path="url(#clip610)" d="M713.905 867.655 L721.544 867.655 L721.544 841.289 L713.234 842.956 L713.234 838.697 L721.498 837.03 L726.174 837.03 L726.174 867.655 L733.813 867.655 L733.813 871.59 L713.905 871.59 L713.905 867.655 Z" fill="#000000" fill-rule="nonzero" fill-opacity="1" /><path clip-path="url(#clip610)" d="M741.984 835.618 L745.687 835.618 Q749.16 841.081 750.873 846.312 Q752.609 851.544 752.609 856.706 Q752.609 861.891 750.873 867.145 Q749.16 872.4 745.687 877.84 L741.984 877.84 Q745.063 872.539 746.567 867.308 Q748.095 862.053 748.095 856.706 Q748.095 851.359 746.567 846.15 Q745.063 840.942 741.984 835.618 Z" fill="#000000" fill-rule="nonzero" fill-opacity="1" /><polyline clip-path="url(#clip610)" style="stroke:#ff8c00; stroke-linecap:round; stroke-linejoin:round; stroke-width:8; stroke-opacity:1; fill:none" points="409.594,906.15 495.612,906.15 "/>
<path clip-path="url(#clip610)" d="M509.948 888.87 L514.624 888.87 L514.624 903.037 L531.615 903.037 L531.615 888.87 L536.29 888.87 L536.29 923.43 L531.615 923.43 L531.615 906.972 L514.624 906.972 L514.624 923.43 L509.948 923.43 L509.948 888.87 Z" fill="#000000" fill-rule="nonzero" fill-opacity="1" /><path clip-path="url(#clip610)" d="M545.596 888.87 L565.457 888.87 L565.457 892.805 L550.272 892.805 L550.272 902.99 L563.976 902.99 L563.976 906.925 L550.272 906.925 L550.272 923.43 L545.596 923.43 L545.596 888.87 Z" fill="#000000" fill-rule="nonzero" fill-opacity="1" /><path clip-path="url(#clip610)" d="M597.98 887.458 Q594.878 892.782 593.373 897.99 Q591.869 903.199 591.869 908.546 Q591.869 913.893 593.373 919.148 Q594.901 924.379 597.98 929.68 L594.276 929.68 Q590.804 924.24 589.068 918.985 Q587.355 913.731 587.355 908.546 Q587.355 903.384 589.068 898.152 Q590.781 892.921 594.276 887.458 L597.98 887.458 Z" fill="#000000" fill-rule="nonzero" fill-opacity="1" /><path clip-path="url(#clip610)" d="M627.795 907.782 L627.795 923.43 L623.535 923.43 L623.535 907.921 Q623.535 904.24 622.1 902.412 Q620.665 900.583 617.795 900.583 Q614.346 900.583 612.355 902.782 Q610.364 904.981 610.364 908.777 L610.364 923.43 L606.082 923.43 L606.082 897.504 L610.364 897.504 L610.364 901.532 Q611.892 899.194 613.952 898.037 Q616.035 896.879 618.744 896.879 Q623.211 896.879 625.503 899.657 Q627.795 902.412 627.795 907.782 Z" fill="#000000" fill-rule="nonzero" fill-opacity="1" /><path clip-path="url(#clip610)" d="M636.845 901.902 L666.521 901.902 L666.521 905.791 L636.845 905.791 L636.845 901.902 M636.845 911.347 L666.521 911.347 L666.521 915.282 L636.845 915.282 L636.845 911.347 Z" fill="#000000" fill-rule="nonzero" fill-opacity="1" /><path clip-path="url(#clip610)" d="M687.192 904.286 Q684.044 904.286 682.192 906.439 Q680.364 908.592 680.364 912.342 Q680.364 916.069 682.192 918.245 Q684.044 920.398 687.192 920.398 Q690.341 920.398 692.169 918.245 Q694.021 916.069 694.021 912.342 Q694.021 908.592 692.169 906.439 Q690.341 904.286 687.192 904.286 M696.475 889.634 L696.475 893.893 Q694.716 893.06 692.91 892.62 Q691.128 892.18 689.368 892.18 Q684.739 892.18 682.285 895.305 Q679.855 898.43 679.507 904.749 Q680.873 902.736 682.933 901.671 Q684.993 900.583 687.47 900.583 Q692.679 900.583 695.688 903.754 Q698.72 906.902 698.72 912.342 Q698.72 917.666 695.572 920.884 Q692.424 924.101 687.192 924.101 Q681.197 924.101 678.026 919.518 Q674.855 914.911 674.855 906.185 Q674.855 897.99 678.743 893.129 Q682.632 888.245 689.183 888.245 Q690.942 888.245 692.725 888.592 Q694.53 888.939 696.475 889.634 Z" fill="#000000" fill-rule="nonzero" fill-opacity="1" /><path clip-path="url(#clip610)" d="M706.822 888.87 L725.178 888.87 L725.178 892.805 L711.104 892.805 L711.104 901.277 Q712.123 900.93 713.141 900.768 Q714.16 900.583 715.178 900.583 Q720.965 900.583 724.345 903.754 Q727.725 906.925 727.725 912.342 Q727.725 917.921 724.252 921.023 Q720.78 924.101 714.461 924.101 Q712.285 924.101 710.016 923.731 Q707.771 923.36 705.364 922.62 L705.364 917.921 Q707.447 919.055 709.669 919.61 Q711.891 920.166 714.368 920.166 Q718.373 920.166 720.711 918.06 Q723.049 915.953 723.049 912.342 Q723.049 908.731 720.711 906.624 Q718.373 904.518 714.368 904.518 Q712.493 904.518 710.618 904.935 Q708.766 905.351 706.822 906.231 L706.822 888.87 Z" fill="#000000" fill-rule="nonzero" fill-opacity="1" /><path clip-path="url(#clip610)" d="M735.664 887.458 L739.368 887.458 Q742.84 892.921 744.553 898.152 Q746.289 903.384 746.289 908.546 Q746.289 913.731 744.553 918.985 Q742.84 924.24 739.368 929.68 L735.664 929.68 Q738.743 924.379 740.248 919.148 Q741.775 913.893 741.775 908.546 Q741.775 903.199 740.248 897.99 Q738.743 892.782 735.664 887.458 Z" fill="#000000" fill-rule="nonzero" fill-opacity="1" /><polyline clip-path="url(#clip610)" style="stroke:#db143d; stroke-linecap:round; stroke-linejoin:round; stroke-width:8; stroke-opacity:1; fill:none" points="409.594,957.99 495.612,957.99 "/>
<path clip-path="url(#clip610)" d="M509.948 940.71 L514.624 940.71 L514.624 971.335 L531.453 971.335 L531.453 975.27 L509.948 975.27 L509.948 940.71 Z" fill="#000000" fill-rule="nonzero" fill-opacity="1" /><path clip-path="url(#clip610)" d="M536.36 940.71 L556.221 940.71 L556.221 944.645 L541.036 944.645 L541.036 954.83 L554.739 954.83 L554.739 958.765 L541.036 958.765 L541.036 975.27 L536.36 975.27 L536.36 940.71 Z" fill="#000000" fill-rule="nonzero" fill-opacity="1" /><path clip-path="url(#clip610)" d="M588.744 939.298 Q585.642 944.622 584.137 949.83 Q582.633 955.039 582.633 960.386 Q582.633 965.733 584.137 970.988 Q585.665 976.219 588.744 981.52 L585.04 981.52 Q581.568 976.08 579.832 970.825 Q578.119 965.571 578.119 960.386 Q578.119 955.224 579.832 949.992 Q581.545 944.761 585.04 939.298 L588.744 939.298 Z" fill="#000000" fill-rule="nonzero" fill-opacity="1" /><path clip-path="url(#clip610)" d="M618.559 959.622 L618.559 975.27 L614.299 975.27 L614.299 959.761 Q614.299 956.08 612.864 954.252 Q611.429 952.423 608.559 952.423 Q605.11 952.423 603.119 954.622 Q601.128 956.821 601.128 960.617 L601.128 975.27 L596.846 975.27 L596.846 949.344 L601.128 949.344 L601.128 953.372 Q602.656 951.034 604.716 949.877 Q606.799 948.719 609.508 948.719 Q613.975 948.719 616.267 951.497 Q618.559 954.252 618.559 959.622 Z" fill="#000000" fill-rule="nonzero" fill-opacity="1" /><path clip-path="url(#clip610)" d="M627.609 953.742 L657.285 953.742 L657.285 957.631 L627.609 957.631 L627.609 953.742 M627.609 963.187 L657.285 963.187 L657.285 967.122 L627.609 967.122 L627.609 963.187 Z" fill="#000000" fill-rule="nonzero" fill-opacity="1" /><path clip-path="url(#clip610)" d="M667.424 940.71 L685.78 940.71 L685.78 944.645 L671.706 944.645 L671.706 953.117 Q672.725 952.77 673.743 952.608 Q674.762 952.423 675.78 952.423 Q681.567 952.423 684.947 955.594 Q688.327 958.765 688.327 964.182 Q688.327 969.761 684.854 972.863 Q681.382 975.941 675.063 975.941 Q672.887 975.941 670.618 975.571 Q668.373 975.2 665.966 974.46 L665.966 969.761 Q668.049 970.895 670.271 971.45 Q672.493 972.006 674.97 972.006 Q678.975 972.006 681.313 969.9 Q683.651 967.793 683.651 964.182 Q683.651 960.571 681.313 958.464 Q678.975 956.358 674.97 956.358 Q673.095 956.358 671.22 956.775 Q669.368 957.191 667.424 958.071 L667.424 940.71 Z" fill="#000000" fill-rule="nonzero" fill-opacity="1" /><path clip-path="url(#clip610)" d="M710.387 944.784 L698.581 963.233 L710.387 963.233 L710.387 944.784 M709.16 940.71 L715.04 940.71 L715.04 963.233 L719.97 963.233 L719.97 967.122 L715.04 967.122 L715.04 975.27 L710.387 975.27 L710.387 967.122 L694.785 967.122 L694.785 962.608 L709.16 940.71 Z" fill="#000000" fill-rule="nonzero" fill-opacity="1" /><path clip-path="url(#clip610)" d="M726.428 939.298 L730.132 939.298 Q733.604 944.761 735.317 949.992 Q737.053 955.224 737.053 960.386 Q737.053 965.571 735.317 970.825 Q733.604 976.08 730.132 981.52 L726.428 981.52 Q729.507 976.219 731.012 970.988 Q732.539 965.733 732.539 960.386 Q732.539 955.039 731.012 949.83 Q729.507 944.622 726.428 939.298 Z" fill="#000000" fill-rule="nonzero" fill-opacity="1" /></svg>
