<?xml version="1.0" encoding="utf-8"?>
<svg xmlns="http://www.w3.org/2000/svg" xmlns:xlink="http://www.w3.org/1999/xlink" width="300" height="220" viewBox="0 0 1200 880">
<defs>
  <clipPath id="clip870">
    <rect x="0" y="0" width="1200" height="880"/>
  </clipPath>
</defs>
<path clip-path="url(#clip870)" d="M0 880 L1200 880 L1200 1.13687e-13 L0 1.13687e-13  Z" fill="#ffffff" fill-rule="evenodd" fill-opacity="1"/>
<defs>
  <clipPath id="clip871">
    <rect x="343" y="220" width="700" height="382"/>
  </clipPath>
</defs>
<path clip-path="url(#clip870)" d="M343.026 659.956 L1042.52 659.956 L1042.52 220.748 L343.026 220.748  Z" fill="#ffffff" fill-rule="evenodd" fill-opacity="1"/>
<defs>
  <clipPath id="clip872">
    <rect x="343" y="220" width="700" height="440"/>
  </clipPath>
</defs>
<polyline clip-path="url(#clip872)" style="stroke:#000000; stroke-linecap:round; stroke-linejoin:round; stroke-width:2; stroke-opacity:0.1; fill:none" points="422.322,659.956 422.322,220.748 "/>
<polyline clip-path="url(#clip872)" style="stroke:#000000; stroke-linecap:round; stroke-linejoin:round; stroke-width:2; stroke-opacity:0.1; fill:none" points="692.773,659.956 692.773,220.748 "/>
<polyline clip-path="url(#clip872)" style="stroke:#000000; stroke-linecap:round; stroke-linejoin:round; stroke-width:2; stroke-opacity:0.1; fill:none" points="963.224,659.956 963.224,220.748 "/>
<polyline clip-path="url(#clip872)" style="stroke:#000000; stroke-linecap:round; stroke-linejoin:round; stroke-width:2; stroke-opacity:0.1; fill:none" points="343.026,603.121 1042.52,603.121 "/>
<polyline clip-path="url(#clip872)" style="stroke:#000000; stroke-linecap:round; stroke-linejoin:round; stroke-width:2; stroke-opacity:0.1; fill:none" points="343.026,510.635 1042.52,510.635 "/>
<polyline clip-path="url(#clip872)" style="stroke:#000000; stroke-linecap:round; stroke-linejoin:round; stroke-width:2; stroke-opacity:0.1; fill:none" points="343.026,418.149 1042.52,418.149 "/>
<polyline clip-path="url(#clip872)" style="stroke:#000000; stroke-linecap:round; stroke-linejoin:round; stroke-width:2; stroke-opacity:0.1; fill:none" points="343.026,325.663 1042.52,325.663 "/>
<polyline clip-path="url(#clip872)" style="stroke:#000000; stroke-linecap:round; stroke-linejoin:round; stroke-width:2; stroke-opacity:0.1; fill:none" points="343.026,233.177 1042.52,233.177 "/>
<polyline clip-path="url(#clip870)" style="stroke:#000000; stroke-linecap:round; stroke-linejoin:round; stroke-width:4; stroke-opacity:1; fill:none" points="343.026,659.956 1042.52,659.956 "/>
<polyline clip-path="url(#clip870)" style="stroke:#000000; stroke-linecap:round; stroke-linejoin:round; stroke-width:4; stroke-opacity:1; fill:none" points="422.322,659.956 422.322,641.058 "/>
<polyline clip-path="url(#clip870)" style="stroke:#000000; stroke-linecap:round; stroke-linejoin:round; stroke-width:4; stroke-opacity:1; fill:none" points="692.773,659.956 692.773,641.058 "/>
<polyline clip-path="url(#clip870)" style="stroke:#000000; stroke-linecap:round; stroke-linejoin:round; stroke-width:4; stroke-opacity:1; fill:none" points="963.224,659.956 963.224,641.058 "/>
<path clip-path="url(#clip870)" d="M407.542 682.802 L401.2 700.001 L413.908 700.001 L407.542 682.802 M404.903 678.196 L410.204 678.196 L423.376 712.756 L418.515 712.756 L415.366 703.89 L399.788 703.89 L396.64 712.756 L391.709 712.756 L404.903 678.196 Z" fill="#000000" fill-rule="nonzero" fill-opacity="1" /><path clip-path="url(#clip870)" d="M433.098 696.251 L433.098 708.913 L440.598 708.913 Q444.371 708.913 446.176 707.362 Q448.005 705.788 448.005 702.571 Q448.005 699.33 446.176 697.802 Q444.371 696.251 440.598 696.251 L433.098 696.251 M433.098 682.038 L433.098 692.455 L440.019 692.455 Q443.445 692.455 445.112 691.182 Q446.801 689.885 446.801 687.247 Q446.801 684.631 445.112 683.335 Q443.445 682.038 440.019 682.038 L433.098 682.038 M428.422 678.196 L440.366 678.196 Q445.713 678.196 448.607 680.418 Q451.5 682.64 451.5 686.737 Q451.5 689.909 450.019 691.784 Q448.538 693.659 445.667 694.121 Q449.116 694.862 451.014 697.223 Q452.936 699.561 452.936 703.08 Q452.936 707.709 449.787 710.233 Q446.639 712.756 440.829 712.756 L428.422 712.756 L428.422 678.196 Z" fill="#000000" fill-rule="nonzero" fill-opacity="1" /><path clip-path="url(#clip870)" d="M665.018 678.196 L669.694 678.196 L669.694 692.362 L686.685 692.362 L686.685 678.196 L691.361 678.196 L691.361 712.756 L686.685 712.756 L686.685 696.297 L669.694 696.297 L669.694 712.756 L665.018 712.756 L665.018 678.196 Z" fill="#000000" fill-rule="nonzero" fill-opacity="1" /><path clip-path="url(#clip870)" d="M700.666 678.196 L720.527 678.196 L720.527 682.131 L705.342 682.131 L705.342 692.316 L719.046 692.316 L719.046 696.251 L705.342 696.251 L705.342 712.756 L700.666 712.756 L700.666 678.196 Z" fill="#000000" fill-rule="nonzero" fill-opacity="1" /><path clip-path="url(#clip870)" d="M940.087 678.196 L944.763 678.196 L944.763 708.82 L961.592 708.82 L961.592 712.756 L940.087 712.756 L940.087 678.196 Z" fill="#000000" fill-rule="nonzero" fill-opacity="1" /><path clip-path="url(#clip870)" d="M966.499 678.196 L986.36 678.196 L986.36 682.131 L971.175 682.131 L971.175 692.316 L984.879 692.316 L984.879 696.251 L971.175 696.251 L971.175 712.756 L966.499 712.756 L966.499 678.196 Z" fill="#000000" fill-rule="nonzero" fill-opacity="1" /><polyline clip-path="url(#clip870)" style="stroke:#000000; stroke-linecap:round; stroke-linejoin:round; stroke-width:4; stroke-opacity:1; fill:none" points="343.026,659.956 343.026,220.748 "/>
<polyline clip-path="url(#clip870)" style="stroke:#000000; stroke-linecap:round; stroke-linejoin:round; stroke-width:4; stroke-opacity:1; fill:none" points="343.026,603.121 361.924,603.121 "/>
<polyline clip-path="url(#clip870)" style="stroke:#000000; stroke-linecap:round; stroke-linejoin:round; stroke-width:4; stroke-opacity:1; fill:none" points="343.026,510.635 361.924,510.635 "/>
<polyline clip-path="url(#clip870)" style="stroke:#000000; stroke-linecap:round; stroke-linejoin:round; stroke-width:4; stroke-opacity:1; fill:none" points="343.026,418.149 361.924,418.149 "/>
<polyline clip-path="url(#clip870)" style="stroke:#000000; stroke-linecap:round; stroke-linejoin:round; stroke-width:4; stroke-opacity:1; fill:none" points="343.026,325.663 361.924,325.663 "/>
<polyline clip-path="url(#clip870)" style="stroke:#000000; stroke-linecap:round; stroke-linejoin:round; stroke-width:4; stroke-opacity:1; fill:none" points="343.026,233.177 361.924,233.177 "/>
<path clip-path="url(#clip870)" d="M237.689 588.92 Q234.078 588.92 232.249 592.485 Q230.443 596.026 230.443 603.156 Q230.443 610.262 232.249 613.827 Q234.078 617.369 237.689 617.369 Q241.323 617.369 243.129 613.827 Q244.957 610.262 244.957 603.156 Q244.957 596.026 243.129 592.485 Q241.323 588.92 237.689 588.92 M237.689 585.216 Q243.499 585.216 246.554 589.823 Q249.633 594.406 249.633 603.156 Q249.633 611.883 246.554 616.489 Q243.499 621.073 237.689 621.073 Q231.879 621.073 228.8 616.489 Q225.744 611.883 225.744 603.156 Q225.744 594.406 228.8 589.823 Q231.879 585.216 237.689 585.216 Z" fill="#000000" fill-rule="nonzero" fill-opacity="1" /><path clip-path="url(#clip870)" d="M257.851 614.522 L262.735 614.522 L262.735 620.401 L257.851 620.401 L257.851 614.522 Z" fill="#000000" fill-rule="nonzero" fill-opacity="1" /><path clip-path="url(#clip870)" d="M282.92 603.989 Q279.587 603.989 277.665 605.772 Q275.767 607.554 275.767 610.679 Q275.767 613.804 277.665 615.586 Q279.587 617.369 282.92 617.369 Q286.253 617.369 288.175 615.586 Q290.096 613.781 290.096 610.679 Q290.096 607.554 288.175 605.772 Q286.276 603.989 282.92 603.989 M278.244 601.999 Q275.235 601.258 273.545 599.198 Q271.878 597.137 271.878 594.175 Q271.878 590.031 274.818 587.624 Q277.781 585.216 282.92 585.216 Q288.082 585.216 291.022 587.624 Q293.962 590.031 293.962 594.175 Q293.962 597.137 292.272 599.198 Q290.605 601.258 287.619 601.999 Q290.999 602.786 292.874 605.077 Q294.772 607.369 294.772 610.679 Q294.772 615.702 291.693 618.387 Q288.638 621.073 282.92 621.073 Q277.202 621.073 274.124 618.387 Q271.068 615.702 271.068 610.679 Q271.068 607.369 272.966 605.077 Q274.864 602.786 278.244 601.999 M276.531 594.614 Q276.531 597.3 278.198 598.804 Q279.888 600.309 282.92 600.309 Q285.929 600.309 287.619 598.804 Q289.332 597.3 289.332 594.614 Q289.332 591.929 287.619 590.425 Q285.929 588.92 282.92 588.92 Q279.888 588.92 278.198 590.425 Q276.531 591.929 276.531 594.614 Z" fill="#000000" fill-rule="nonzero" fill-opacity="1" /><path clip-path="url(#clip870)" d="M313.082 588.92 Q309.471 588.92 307.642 592.485 Q305.837 596.026 305.837 603.156 Q305.837 610.262 307.642 613.827 Q309.471 617.369 313.082 617.369 Q316.716 617.369 318.522 613.827 Q320.35 610.262 320.35 603.156 Q320.35 596.026 318.522 592.485 Q316.716 588.92 313.082 588.92 M313.082 585.216 Q318.892 585.216 321.948 589.823 Q325.026 594.406 325.026 603.156 Q325.026 611.883 321.948 616.489 Q318.892 621.073 313.082 621.073 Q307.272 621.073 304.193 616.489 Q301.137 611.883 301.137 603.156 Q301.137 594.406 304.193 589.823 Q307.272 585.216 313.082 585.216 Z" fill="#000000" fill-rule="nonzero" fill-opacity="1" /><path clip-path="url(#clip870)" d="M238.684 496.434 Q235.073 496.434 233.244 499.999 Q231.439 503.54 231.439 510.67 Q231.439 517.776 233.244 521.341 Q235.073 524.883 238.684 524.883 Q242.318 524.883 244.124 521.341 Q245.953 517.776 245.953 510.67 Q245.953 503.54 244.124 499.999 Q242.318 496.434 238.684 496.434 M238.684 492.73 Q244.494 492.73 247.55 497.337 Q250.629 501.92 250.629 510.67 Q250.629 519.397 247.55 524.003 Q244.494 528.586 238.684 528.586 Q232.874 528.586 229.795 524.003 Q226.74 519.397 226.74 510.67 Q226.74 501.92 229.795 497.337 Q232.874 492.73 238.684 492.73 Z" fill="#000000" fill-rule="nonzero" fill-opacity="1" /><path clip-path="url(#clip870)" d="M258.846 522.036 L263.73 522.036 L263.73 527.915 L258.846 527.915 L258.846 522.036 Z" fill="#000000" fill-rule="nonzero" fill-opacity="1" /><path clip-path="url(#clip870)" d="M283.915 511.503 Q280.582 511.503 278.661 513.286 Q276.763 515.068 276.763 518.193 Q276.763 521.318 278.661 523.1 Q280.582 524.883 283.915 524.883 Q287.249 524.883 289.17 523.1 Q291.091 521.295 291.091 518.193 Q291.091 515.068 289.17 513.286 Q287.272 511.503 283.915 511.503 M279.239 509.512 Q276.23 508.772 274.54 506.712 Q272.874 504.651 272.874 501.688 Q272.874 497.545 275.814 495.138 Q278.777 492.73 283.915 492.73 Q289.077 492.73 292.017 495.138 Q294.957 497.545 294.957 501.688 Q294.957 504.651 293.267 506.712 Q291.601 508.772 288.614 509.512 Q291.994 510.299 293.869 512.591 Q295.767 514.883 295.767 518.193 Q295.767 523.216 292.688 525.901 Q289.633 528.586 283.915 528.586 Q278.198 528.586 275.119 525.901 Q272.064 523.216 272.064 518.193 Q272.064 514.883 273.962 512.591 Q275.86 510.299 279.239 509.512 M277.527 502.128 Q277.527 504.813 279.193 506.318 Q280.883 507.823 283.915 507.823 Q286.925 507.823 288.614 506.318 Q290.327 504.813 290.327 502.128 Q290.327 499.443 288.614 497.938 Q286.925 496.434 283.915 496.434 Q280.883 496.434 279.193 497.938 Q277.527 499.443 277.527 502.128 Z" fill="#000000" fill-rule="nonzero" fill-opacity="1" /><path clip-path="url(#clip870)" d="M304.124 493.355 L322.48 493.355 L322.48 497.29 L308.406 497.29 L308.406 505.762 Q309.424 505.415 310.443 505.253 Q311.462 505.068 312.48 505.068 Q318.267 505.068 321.647 508.239 Q325.026 511.411 325.026 516.827 Q325.026 522.406 321.554 525.508 Q318.082 528.586 311.762 528.586 Q309.587 528.586 307.318 528.216 Q305.073 527.846 302.665 527.105 L302.665 522.406 Q304.749 523.54 306.971 524.096 Q309.193 524.651 311.67 524.651 Q315.674 524.651 318.012 522.545 Q320.35 520.438 320.35 516.827 Q320.35 513.216 318.012 511.11 Q315.674 509.003 311.67 509.003 Q309.795 509.003 307.92 509.42 Q306.068 509.837 304.124 510.716 L304.124 493.355 Z" fill="#000000" fill-rule="nonzero" fill-opacity="1" /><path clip-path="url(#clip870)" d="M237.689 403.948 Q234.078 403.948 232.249 407.513 Q230.443 411.054 230.443 418.184 Q230.443 425.29 232.249 428.855 Q234.078 432.397 237.689 432.397 Q241.323 432.397 243.129 428.855 Q244.957 425.29 244.957 418.184 Q244.957 411.054 243.129 407.513 Q241.323 403.948 237.689 403.948 M237.689 400.244 Q243.499 400.244 246.554 404.85 Q249.633 409.434 249.633 418.184 Q249.633 426.911 246.554 431.517 Q243.499 436.1 237.689 436.1 Q231.879 436.1 228.8 431.517 Q225.744 426.911 225.744 418.184 Q225.744 409.434 228.8 404.85 Q231.879 400.244 237.689 400.244 Z" fill="#000000" fill-rule="nonzero" fill-opacity="1" /><path clip-path="url(#clip870)" d="M257.851 429.549 L262.735 429.549 L262.735 435.429 L257.851 435.429 L257.851 429.549 Z" fill="#000000" fill-rule="nonzero" fill-opacity="1" /><path clip-path="url(#clip870)" d="M273.059 434.711 L273.059 430.452 Q274.818 431.286 276.624 431.725 Q278.429 432.165 280.165 432.165 Q284.795 432.165 287.226 429.063 Q289.679 425.938 290.026 419.596 Q288.684 421.587 286.624 422.651 Q284.564 423.716 282.064 423.716 Q276.878 423.716 273.846 420.591 Q270.837 417.443 270.837 412.003 Q270.837 406.679 273.985 403.462 Q277.133 400.244 282.364 400.244 Q288.36 400.244 291.508 404.85 Q294.679 409.434 294.679 418.184 Q294.679 426.355 290.79 431.239 Q286.925 436.1 280.374 436.1 Q278.614 436.1 276.809 435.753 Q275.003 435.406 273.059 434.711 M282.364 420.059 Q285.513 420.059 287.341 417.906 Q289.193 415.753 289.193 412.003 Q289.193 408.276 287.341 406.124 Q285.513 403.948 282.364 403.948 Q279.216 403.948 277.364 406.124 Q275.536 408.276 275.536 412.003 Q275.536 415.753 277.364 417.906 Q279.216 420.059 282.364 420.059 Z" fill="#000000" fill-rule="nonzero" fill-opacity="1" /><path clip-path="url(#clip870)" d="M313.082 403.948 Q309.471 403.948 307.642 407.513 Q305.837 411.054 305.837 418.184 Q305.837 425.29 307.642 428.855 Q309.471 432.397 313.082 432.397 Q316.716 432.397 318.522 428.855 Q320.35 425.29 320.35 418.184 Q320.35 411.054 318.522 407.513 Q316.716 403.948 313.082 403.948 M313.082 400.244 Q318.892 400.244 321.948 404.85 Q325.026 409.434 325.026 418.184 Q325.026 426.911 321.948 431.517 Q318.892 436.1 313.082 436.1 Q307.272 436.1 304.193 431.517 Q301.137 426.911 301.137 418.184 Q301.137 409.434 304.193 404.85 Q307.272 400.244 313.082 400.244 Z" fill="#000000" fill-rule="nonzero" fill-opacity="1" /><path clip-path="url(#clip870)" d="M238.684 311.462 Q235.073 311.462 233.244 315.026 Q231.439 318.568 231.439 325.698 Q231.439 332.804 233.244 336.369 Q235.073 339.911 238.684 339.911 Q242.318 339.911 244.124 336.369 Q245.953 332.804 245.953 325.698 Q245.953 318.568 244.124 315.026 Q242.318 311.462 238.684 311.462 M238.684 307.758 Q244.494 307.758 247.55 312.364 Q250.629 316.948 250.629 325.698 Q250.629 334.424 247.55 339.031 Q244.494 343.614 238.684 343.614 Q232.874 343.614 229.795 339.031 Q226.74 334.424 226.74 325.698 Q226.74 316.948 229.795 312.364 Q232.874 307.758 238.684 307.758 Z" fill="#000000" fill-rule="nonzero" fill-opacity="1" /><path clip-path="url(#clip870)" d="M258.846 337.063 L263.73 337.063 L263.73 342.943 L258.846 342.943 L258.846 337.063 Z" fill="#000000" fill-rule="nonzero" fill-opacity="1" /><path clip-path="url(#clip870)" d="M274.054 342.225 L274.054 337.966 Q275.814 338.799 277.619 339.239 Q279.425 339.679 281.161 339.679 Q285.79 339.679 288.221 336.577 Q290.675 333.452 291.022 327.11 Q289.679 329.1 287.619 330.165 Q285.559 331.23 283.059 331.23 Q277.874 331.23 274.841 328.105 Q271.832 324.957 271.832 319.517 Q271.832 314.193 274.98 310.976 Q278.128 307.758 283.36 307.758 Q289.355 307.758 292.503 312.364 Q295.675 316.948 295.675 325.698 Q295.675 333.869 291.786 338.753 Q287.92 343.614 281.369 343.614 Q279.61 343.614 277.804 343.267 Q275.999 342.92 274.054 342.225 M283.36 327.573 Q286.508 327.573 288.337 325.42 Q290.188 323.267 290.188 319.517 Q290.188 315.79 288.337 313.638 Q286.508 311.462 283.36 311.462 Q280.212 311.462 278.36 313.638 Q276.531 315.79 276.531 319.517 Q276.531 323.267 278.36 325.42 Q280.212 327.573 283.36 327.573 Z" fill="#000000" fill-rule="nonzero" fill-opacity="1" /><path clip-path="url(#clip870)" d="M304.124 308.383 L322.48 308.383 L322.48 312.318 L308.406 312.318 L308.406 320.79 Q309.424 320.443 310.443 320.281 Q311.462 320.096 312.48 320.096 Q318.267 320.096 321.647 323.267 Q325.026 326.438 325.026 331.855 Q325.026 337.434 321.554 340.536 Q318.082 343.614 311.762 343.614 Q309.587 343.614 307.318 343.244 Q305.073 342.873 302.665 342.133 L302.665 337.434 Q304.749 338.568 306.971 339.123 Q309.193 339.679 311.67 339.679 Q315.674 339.679 318.012 337.573 Q320.35 335.466 320.35 331.855 Q320.35 328.244 318.012 326.137 Q315.674 324.031 311.67 324.031 Q309.795 324.031 307.92 324.448 Q306.068 324.864 304.124 325.744 L304.124 308.383 Z" fill="#000000" fill-rule="nonzero" fill-opacity="1" /><path clip-path="url(#clip870)" d="M228.499 246.522 L236.138 246.522 L236.138 220.156 L227.828 221.823 L227.828 217.563 L236.092 215.897 L240.767 215.897 L240.767 246.522 L248.406 246.522 L248.406 250.457 L228.499 250.457 L228.499 246.522 Z" fill="#000000" fill-rule="nonzero" fill-opacity="1" /><path clip-path="url(#clip870)" d="M257.851 244.577 L262.735 244.577 L262.735 250.457 L257.851 250.457 L257.851 244.577 Z" fill="#000000" fill-rule="nonzero" fill-opacity="1" /><path clip-path="url(#clip870)" d="M282.92 218.976 Q279.309 218.976 277.48 222.54 Q275.675 226.082 275.675 233.212 Q275.675 240.318 277.48 243.883 Q279.309 247.424 282.92 247.424 Q286.554 247.424 288.36 243.883 Q290.188 240.318 290.188 233.212 Q290.188 226.082 288.36 222.54 Q286.554 218.976 282.92 218.976 M282.92 215.272 Q288.73 215.272 291.786 219.878 Q294.864 224.462 294.864 233.212 Q294.864 241.938 291.786 246.545 Q288.73 251.128 282.92 251.128 Q277.11 251.128 274.031 246.545 Q270.976 241.938 270.976 233.212 Q270.976 224.462 274.031 219.878 Q277.11 215.272 282.92 215.272 Z" fill="#000000" fill-rule="nonzero" fill-opacity="1" /><path clip-path="url(#clip870)" d="M313.082 218.976 Q309.471 218.976 307.642 222.54 Q305.837 226.082 305.837 233.212 Q305.837 240.318 307.642 243.883 Q309.471 247.424 313.082 247.424 Q316.716 247.424 318.522 243.883 Q320.35 240.318 320.35 233.212 Q320.35 226.082 318.522 222.54 Q316.716 218.976 313.082 218.976 M313.082 215.272 Q318.892 215.272 321.948 219.878 Q325.026 224.462 325.026 233.212 Q325.026 241.938 321.948 246.545 Q318.892 251.128 313.082 251.128 Q307.272 251.128 304.193 246.545 Q301.137 241.938 301.137 233.212 Q301.137 224.462 304.193 219.878 Q307.272 215.272 313.082 215.272 Z" fill="#000000" fill-rule="nonzero" fill-opacity="1" /><path clip-path="url(#clip870)" d="M157.2 670.299 L157.2 665.038 L173.138 665.038 L173.138 645.924 L157.2 645.924 L157.2 640.663 L196.08 640.663 L196.08 645.924 L177.565 645.924 L177.565 665.038 L196.08 665.038 L196.08 670.299 L157.2 670.299 Z" fill="#000000" fill-rule="nonzero" fill-opacity="1" /><path clip-path="url(#clip870)" d="M180.299 605.455 L182.643 605.455 L182.643 627.486 Q187.591 627.174 190.195 624.518 Q192.773 621.835 192.773 617.07 Q192.773 614.309 192.096 611.731 Q191.419 609.127 190.065 606.575 L194.596 606.575 Q195.69 609.153 196.263 611.861 Q196.836 614.57 196.836 617.356 Q196.836 624.335 192.773 628.424 Q188.711 632.486 181.784 632.486 Q174.622 632.486 170.429 628.632 Q166.211 624.752 166.211 618.19 Q166.211 612.304 170.013 608.893 Q173.789 605.455 180.299 605.455 M178.893 610.247 Q174.961 610.299 172.617 612.46 Q170.273 614.596 170.273 618.138 Q170.273 622.148 172.539 624.57 Q174.804 626.966 178.919 627.33 L178.893 610.247 Z" fill="#000000" fill-rule="nonzero" fill-opacity="1" /><path clip-path="url(#clip870)" d="M178.476 573.346 L196.08 573.346 L196.08 578.138 L178.633 578.138 Q174.492 578.138 172.435 579.752 Q170.377 581.367 170.377 584.596 Q170.377 588.476 172.851 590.716 Q175.325 592.955 179.596 592.955 L196.08 592.955 L196.08 597.773 L166.914 597.773 L166.914 592.955 L171.445 592.955 Q168.815 591.237 167.513 588.919 Q166.211 586.575 166.211 583.528 Q166.211 578.502 169.336 575.924 Q172.435 573.346 178.476 573.346 Z" fill="#000000" fill-rule="nonzero" fill-opacity="1" /><path clip-path="url(#clip870)" d="M171.393 546.888 Q170.924 547.695 170.716 548.659 Q170.482 549.596 170.482 550.742 Q170.482 554.805 173.138 556.992 Q175.768 559.153 180.716 559.153 L196.08 559.153 L196.08 563.971 L166.914 563.971 L166.914 559.153 L171.445 559.153 Q168.789 557.643 167.513 555.221 Q166.211 552.799 166.211 549.336 Q166.211 548.841 166.289 548.242 Q166.341 547.643 166.471 546.914 L171.393 546.888 Z" fill="#000000" fill-rule="nonzero" fill-opacity="1" /><path clip-path="url(#clip870)" d="M166.914 541.862 L166.914 537.07 L196.08 537.07 L196.08 541.862 L166.914 541.862 M155.56 541.862 L155.56 537.07 L161.627 537.07 L161.627 541.862 L155.56 541.862 Z" fill="#000000" fill-rule="nonzero" fill-opacity="1" /><path clip-path="url(#clip870)" d="M168.034 506.055 L172.513 506.055 Q171.393 508.086 170.846 510.143 Q170.273 512.175 170.273 514.258 Q170.273 518.919 173.242 521.497 Q176.185 524.076 181.523 524.076 Q186.862 524.076 189.83 521.497 Q192.773 518.919 192.773 514.258 Q192.773 512.175 192.226 510.143 Q191.653 508.086 190.534 506.055 L194.961 506.055 Q195.898 508.06 196.367 510.221 Q196.836 512.357 196.836 514.779 Q196.836 521.367 192.695 525.247 Q188.554 529.128 181.523 529.128 Q174.388 529.128 170.299 525.221 Q166.211 521.289 166.211 514.466 Q166.211 512.253 166.679 510.143 Q167.122 508.034 168.034 506.055 Z" fill="#000000" fill-rule="nonzero" fill-opacity="1" /><path clip-path="url(#clip870)" d="M166.914 497.721 L166.914 492.93 L196.08 492.93 L196.08 497.721 L166.914 497.721 M155.56 497.721 L155.56 492.93 L161.627 492.93 L161.627 497.721 L155.56 497.721 Z" fill="#000000" fill-rule="nonzero" fill-opacity="1" /><path clip-path="url(#clip870)" d="M171.341 446.758 L155.56 446.758 L155.56 441.967 L196.08 441.967 L196.08 446.758 L191.705 446.758 Q194.31 448.269 195.586 450.586 Q196.836 452.878 196.836 456.107 Q196.836 461.394 192.617 464.727 Q188.398 468.034 181.523 468.034 Q174.648 468.034 170.429 464.727 Q166.211 461.394 166.211 456.107 Q166.211 452.878 167.487 450.586 Q168.737 448.269 171.341 446.758 M181.523 463.086 Q186.81 463.086 189.83 460.925 Q192.825 458.737 192.825 454.935 Q192.825 451.133 189.83 448.946 Q186.81 446.758 181.523 446.758 Q176.237 446.758 173.242 448.946 Q170.221 451.133 170.221 454.935 Q170.221 458.737 173.242 460.925 Q176.237 463.086 181.523 463.086 Z" fill="#000000" fill-rule="nonzero" fill-opacity="1" /><path clip-path="url(#clip870)" d="M180.299 407.149 L182.643 407.149 L182.643 429.18 Q187.591 428.868 190.195 426.211 Q192.773 423.529 192.773 418.764 Q192.773 416.003 192.096 413.425 Q191.419 410.821 190.065 408.269 L194.596 408.269 Q195.69 410.847 196.263 413.555 Q196.836 416.264 196.836 419.05 Q196.836 426.029 192.773 430.118 Q188.711 434.18 181.784 434.18 Q174.622 434.18 170.429 430.326 Q166.211 426.446 166.211 419.883 Q166.211 413.998 170.013 410.587 Q173.789 407.149 180.299 407.149 M178.893 411.941 Q174.961 411.993 172.617 414.154 Q170.273 416.29 170.273 419.831 Q170.273 423.842 172.539 426.264 Q174.804 428.659 178.919 429.024 L178.893 411.941 Z" fill="#000000" fill-rule="nonzero" fill-opacity="1" /><path clip-path="url(#clip870)" d="M191.705 394.649 L207.174 394.649 L207.174 399.467 L166.914 399.467 L166.914 394.649 L171.341 394.649 Q168.737 393.139 167.487 390.847 Q166.211 388.529 166.211 385.326 Q166.211 380.014 170.429 376.707 Q174.648 373.373 181.523 373.373 Q188.398 373.373 192.617 376.707 Q196.836 380.014 196.836 385.326 Q196.836 388.529 195.586 390.847 Q194.31 393.139 191.705 394.649 M181.523 378.347 Q176.237 378.347 173.242 380.535 Q170.221 382.696 170.221 386.498 Q170.221 390.3 173.242 392.488 Q176.237 394.649 181.523 394.649 Q186.81 394.649 189.83 392.488 Q192.825 390.3 192.825 386.498 Q192.825 382.696 189.83 380.535 Q186.81 378.347 181.523 378.347 Z" fill="#000000" fill-rule="nonzero" fill-opacity="1" /><path clip-path="url(#clip870)" d="M181.419 352.175 Q181.419 357.983 182.747 360.222 Q184.075 362.462 187.278 362.462 Q189.83 362.462 191.341 360.795 Q192.825 359.102 192.825 356.212 Q192.825 352.227 190.013 349.832 Q187.174 347.41 182.487 347.41 L181.419 347.41 L181.419 352.175 M179.44 342.618 L196.08 342.618 L196.08 347.41 L191.653 347.41 Q194.31 349.05 195.586 351.498 Q196.836 353.946 196.836 357.488 Q196.836 361.967 194.336 364.623 Q191.81 367.253 187.591 367.253 Q182.669 367.253 180.169 363.972 Q177.669 360.665 177.669 354.129 L177.669 347.41 L177.2 347.41 Q173.893 347.41 172.096 349.597 Q170.273 351.759 170.273 355.691 Q170.273 358.191 170.872 360.561 Q171.471 362.931 172.669 365.118 L168.242 365.118 Q167.226 362.488 166.732 360.014 Q166.211 357.54 166.211 355.196 Q166.211 348.868 169.492 345.743 Q172.773 342.618 179.44 342.618 Z" fill="#000000" fill-rule="nonzero" fill-opacity="1" /><path clip-path="url(#clip870)" d="M171.393 315.847 Q170.924 316.655 170.716 317.618 Q170.482 318.556 170.482 319.702 Q170.482 323.764 173.138 325.952 Q175.768 328.113 180.716 328.113 L196.08 328.113 L196.08 332.931 L166.914 332.931 L166.914 328.113 L171.445 328.113 Q168.789 326.603 167.513 324.181 Q166.211 321.759 166.211 318.295 Q166.211 317.801 166.289 317.202 Q166.341 316.603 166.471 315.874 L171.393 315.847 Z" fill="#000000" fill-rule="nonzero" fill-opacity="1" /><path clip-path="url(#clip870)" d="M158.633 306.082 L166.914 306.082 L166.914 296.212 L170.638 296.212 L170.638 306.082 L186.471 306.082 Q190.039 306.082 191.054 305.118 Q192.07 304.129 192.07 301.134 L192.07 296.212 L196.08 296.212 L196.08 301.134 Q196.08 306.681 194.023 308.79 Q191.94 310.9 186.471 310.9 L170.638 310.9 L170.638 314.415 L166.914 314.415 L166.914 310.9 L158.633 310.9 L158.633 306.082 Z" fill="#000000" fill-rule="nonzero" fill-opacity="1" /><path clip-path="url(#clip870)" d="M184.57 290.405 L166.914 290.405 L166.914 285.613 L184.388 285.613 Q188.528 285.613 190.612 283.999 Q192.669 282.384 192.669 279.155 Q192.669 275.275 190.195 273.035 Q187.721 270.77 183.45 270.77 L166.914 270.77 L166.914 265.978 L196.08 265.978 L196.08 270.77 L191.601 270.77 Q194.257 272.514 195.56 274.832 Q196.836 277.124 196.836 280.171 Q196.836 285.197 193.711 287.801 Q190.586 290.405 184.57 290.405 M166.211 278.348 L166.211 278.348 Z" fill="#000000" fill-rule="nonzero" fill-opacity="1" /><path clip-path="url(#clip870)" d="M171.393 239.207 Q170.924 240.015 170.716 240.978 Q170.482 241.916 170.482 243.061 Q170.482 247.124 173.138 249.311 Q175.768 251.473 180.716 251.473 L196.08 251.473 L196.08 256.29 L166.914 256.29 L166.914 251.473 L171.445 251.473 Q168.789 249.962 167.513 247.541 Q166.211 245.119 166.211 241.655 Q166.211 241.16 166.289 240.561 Q166.341 239.962 166.471 239.233 L171.393 239.207 Z" fill="#000000" fill-rule="nonzero" fill-opacity="1" /><path clip-path="url(#clip870)" d="M180.299 210.405 L182.643 210.405 L182.643 232.436 Q187.591 232.124 190.195 229.468 Q192.773 226.785 192.773 222.02 Q192.773 219.259 192.096 216.681 Q191.419 214.077 190.065 211.525 L194.596 211.525 Q195.69 214.103 196.263 216.812 Q196.836 219.52 196.836 222.306 Q196.836 229.285 192.773 233.374 Q188.711 237.436 181.784 237.436 Q174.622 237.436 170.429 233.582 Q166.211 229.702 166.211 223.14 Q166.211 217.254 170.013 213.843 Q173.789 210.405 180.299 210.405 M178.893 215.197 Q174.961 215.249 172.617 217.41 Q170.273 219.546 170.273 223.088 Q170.273 227.098 172.539 229.52 Q174.804 231.916 178.919 232.28 L178.893 215.197 Z" fill="#000000" fill-rule="nonzero" fill-opacity="1" /><path clip-path="url(#clip870)" d="M102.122 8.64 L109.993 8.64 L129.148 44.7799 L129.148 8.64 L134.819 8.64 L134.819 51.84 L126.948 51.84 L107.793 15.7001 L107.793 51.84 L102.122 51.84 L102.122 8.64 Z" fill="#000000" fill-rule="nonzero" fill-opacity="1" /><path clip-path="url(#clip870)" d="M158.777 23.1654 Q154.495 23.1654 152.006 26.5218 Q149.518 29.8494 149.518 35.6653 Q149.518 41.4813 151.977 44.8377 Q154.466 48.1653 158.777 48.1653 Q163.03 48.1653 165.519 44.8088 Q168.007 41.4523 168.007 35.6653 Q168.007 29.9072 165.519 26.5508 Q163.03 23.1654 158.777 23.1654 M158.777 18.6515 Q165.721 18.6515 169.685 23.1654 Q173.65 27.6792 173.65 35.6653 Q173.65 43.6225 169.685 48.1653 Q165.721 52.6791 158.777 52.6791 Q151.804 52.6791 147.84 48.1653 Q143.904 43.6225 143.904 35.6653 Q143.904 27.6792 147.84 23.1654 Q151.804 18.6515 158.777 18.6515 Z" fill="#000000" fill-rule="nonzero" fill-opacity="1" /><path clip-path="url(#clip870)" d="M209.413 32.2799 L209.413 51.84 L204.089 51.84 L204.089 32.4535 Q204.089 27.8529 202.295 25.567 Q200.501 23.2811 196.913 23.2811 Q192.602 23.2811 190.114 26.03 Q187.625 28.7788 187.625 33.5241 L187.625 51.84 L182.272 51.84 L182.272 19.4328 L187.625 19.4328 L187.625 24.4675 Q189.535 21.545 192.11 20.0983 Q194.714 18.6515 198.1 18.6515 Q203.684 18.6515 206.549 22.1237 Q209.413 25.567 209.413 32.2799 Z" fill="#000000" fill-rule="nonzero" fill-opacity="1" /><path clip-path="url(#clip870)" d="M217.341 33.2348 L232.937 33.2348 L232.937 37.9801 L217.341 37.9801 L217.341 33.2348 Z" fill="#000000" fill-rule="nonzero" fill-opacity="1" /><path clip-path="url(#clip870)" d="M268.354 32.2799 L268.354 51.84 L263.03 51.84 L263.03 32.4535 Q263.03 27.8529 261.236 25.567 Q259.442 23.2811 255.854 23.2811 Q251.543 23.2811 249.054 26.03 Q246.566 28.7788 246.566 33.5241 L246.566 51.84 L241.213 51.84 L241.213 19.4328 L246.566 19.4328 L246.566 24.4675 Q248.476 21.545 251.051 20.0983 Q253.655 18.6515 257.04 18.6515 Q262.625 18.6515 265.489 22.1237 Q268.354 25.567 268.354 32.2799 Z" fill="#000000" fill-rule="nonzero" fill-opacity="1" /><path clip-path="url(#clip870)" d="M291.531 23.1654 Q287.249 23.1654 284.76 26.5218 Q282.272 29.8494 282.272 35.6653 Q282.272 41.4813 284.731 44.8377 Q287.22 48.1653 291.531 48.1653 Q295.784 48.1653 298.273 44.8088 Q300.761 41.4523 300.761 35.6653 Q300.761 29.9072 298.273 26.5508 Q295.784 23.1654 291.531 23.1654 M291.531 18.6515 Q298.475 18.6515 302.439 23.1654 Q306.404 27.6792 306.404 35.6653 Q306.404 43.6225 302.439 48.1653 Q298.475 52.6791 291.531 52.6791 Q284.558 52.6791 280.593 48.1653 Q276.658 43.6225 276.658 35.6653 Q276.658 27.6792 280.593 23.1654 Q284.558 18.6515 291.531 18.6515 Z" fill="#000000" fill-rule="nonzero" fill-opacity="1" /><path clip-path="url(#clip870)" d="M334.008 24.4096 Q333.111 23.8888 332.04 23.6573 Q330.998 23.3969 329.725 23.3969 Q325.211 23.3969 322.781 26.3482 Q320.379 29.2707 320.379 34.7683 L320.379 51.84 L315.026 51.84 L315.026 19.4328 L320.379 19.4328 L320.379 24.4675 Q322.057 21.5161 324.748 20.0983 Q327.439 18.6515 331.288 18.6515 Q331.837 18.6515 332.503 18.7383 Q333.168 18.7962 333.979 18.9409 L334.008 24.4096 Z" fill="#000000" fill-rule="nonzero" fill-opacity="1" /><path clip-path="url(#clip870)" d="M363.782 25.6538 Q365.778 22.0659 368.556 20.3587 Q371.334 18.6515 375.095 18.6515 Q380.159 18.6515 382.908 22.2105 Q385.657 25.7406 385.657 32.2799 L385.657 51.84 L380.304 51.84 L380.304 32.4535 Q380.304 27.795 378.654 25.5381 Q377.005 23.2811 373.62 23.2811 Q369.482 23.2811 367.08 26.03 Q364.679 28.7788 364.679 33.5241 L364.679 51.84 L359.326 51.84 L359.326 32.4535 Q359.326 27.7661 357.676 25.5381 Q356.027 23.2811 352.584 23.2811 Q348.504 23.2811 346.102 26.0589 Q343.701 28.8077 343.701 33.5241 L343.701 51.84 L338.348 51.84 L338.348 19.4328 L343.701 19.4328 L343.701 24.4675 Q345.524 21.4872 348.07 20.0693 Q350.616 18.6515 354.117 18.6515 Q357.647 18.6515 360.107 20.4455 Q362.595 22.2395 363.782 25.6538 Z" fill="#000000" fill-rule="nonzero" fill-opacity="1" /><path clip-path="url(#clip870)" d="M411.004 35.5496 Q404.551 35.5496 402.063 37.0253 Q399.574 38.501 399.574 42.06 Q399.574 44.8956 401.426 46.5738 Q403.307 48.2231 406.519 48.2231 Q410.946 48.2231 413.608 45.0981 Q416.299 41.9442 416.299 36.7359 L416.299 35.5496 L411.004 35.5496 M421.623 33.3505 L421.623 51.84 L416.299 51.84 L416.299 46.921 Q414.476 49.8724 411.756 51.2902 Q409.036 52.6791 405.101 52.6791 Q400.124 52.6791 397.173 49.9014 Q394.25 47.0947 394.25 42.4072 Q394.25 36.9385 397.896 34.1607 Q401.571 31.3829 408.834 31.3829 L416.299 31.3829 L416.299 30.8621 Q416.299 27.1874 413.868 25.1908 Q411.467 23.1654 407.097 23.1654 Q404.32 23.1654 401.687 23.8309 Q399.053 24.4964 396.623 25.8274 L396.623 20.9085 Q399.545 19.78 402.294 19.2302 Q405.043 18.6515 407.647 18.6515 Q414.678 18.6515 418.151 22.2973 Q421.623 25.9431 421.623 33.3505 Z" fill="#000000" fill-rule="nonzero" fill-opacity="1" /><path clip-path="url(#clip870)" d="M432.589 6.81709 L437.913 6.81709 L437.913 51.84 L432.589 51.84 L432.589 6.81709 Z" fill="#000000" fill-rule="nonzero" fill-opacity="1" /><path clip-path="url(#clip870)" d="M449.053 19.4328 L454.377 19.4328 L454.377 51.84 L449.053 51.84 L449.053 19.4328 M449.053 6.81709 L454.377 6.81709 L454.377 13.559 L449.053 13.559 L449.053 6.81709 Z" fill="#000000" fill-rule="nonzero" fill-opacity="1" /><path clip-path="url(#clip870)" d="M470.783 10.2314 L470.783 19.4328 L481.75 19.4328 L481.75 23.5705 L470.783 23.5705 L470.783 41.163 Q470.783 45.1271 471.854 46.2555 Q472.954 47.384 476.281 47.384 L481.75 47.384 L481.75 51.84 L476.281 51.84 Q470.118 51.84 467.774 49.5541 Q465.43 47.2393 465.43 41.163 L465.43 23.5705 L461.524 23.5705 L461.524 19.4328 L465.43 19.4328 L465.43 10.2314 L470.783 10.2314 Z" fill="#000000" fill-rule="nonzero" fill-opacity="1" /><path clip-path="url(#clip870)" d="M502.236 54.8492 Q499.979 60.6362 497.838 62.4013 Q495.696 64.1663 492.109 64.1663 L487.855 64.1663 L487.855 59.7103 L490.98 59.7103 Q493.179 59.7103 494.394 58.6687 Q495.61 57.627 497.085 53.7497 L498.04 51.3192 L484.933 19.4328 L490.575 19.4328 L500.702 44.7799 L510.829 19.4328 L516.472 19.4328 L502.236 54.8492 Z" fill="#000000" fill-rule="nonzero" fill-opacity="1" /><path clip-path="url(#clip870)" d="M565.922 35.6653 Q565.922 29.7915 563.491 26.464 Q561.09 23.1075 556.865 23.1075 Q552.641 23.1075 550.21 26.464 Q547.808 29.7915 547.808 35.6653 Q547.808 41.5391 550.21 44.8956 Q552.641 48.2231 556.865 48.2231 Q561.09 48.2231 563.491 44.8956 Q565.922 41.5391 565.922 35.6653 M547.808 24.3517 Q549.487 21.4582 552.033 20.0693 Q554.608 18.6515 558.167 18.6515 Q564.07 18.6515 567.745 23.339 Q571.448 28.0265 571.448 35.6653 Q571.448 43.3042 567.745 47.9916 Q564.07 52.6791 558.167 52.6791 Q554.608 52.6791 552.033 51.2902 Q549.487 49.8724 547.808 46.9789 L547.808 51.84 L542.455 51.84 L542.455 6.81709 L547.808 6.81709 L547.808 24.3517 Z" fill="#000000" fill-rule="nonzero" fill-opacity="1" /><path clip-path="url(#clip870)" d="M593.757 54.8492 Q591.5 60.6362 589.359 62.4013 Q587.218 64.1663 583.63 64.1663 L579.377 64.1663 L579.377 59.7103 L582.502 59.7103 Q584.701 59.7103 585.916 58.6687 Q587.131 57.627 588.607 53.7497 L589.562 51.3192 L576.454 19.4328 L582.096 19.4328 L592.224 44.7799 L602.351 19.4328 L607.993 19.4328 L593.757 54.8492 Z" fill="#000000" fill-rule="nonzero" fill-opacity="1" /><path clip-path="url(#clip870)" d="M655.505 35.2602 Q655.505 29.4732 653.103 26.2904 Q650.73 23.1075 646.419 23.1075 Q642.137 23.1075 639.735 26.2904 Q637.362 29.4732 637.362 35.2602 Q637.362 41.0183 639.735 44.2012 Q642.137 47.384 646.419 47.384 Q650.73 47.384 653.103 44.2012 Q655.505 41.0183 655.505 35.2602 M660.829 47.818 Q660.829 56.0934 657.154 60.1154 Q653.479 64.1663 645.898 64.1663 Q643.092 64.1663 640.603 63.7323 Q638.115 63.3272 635.771 62.4592 L635.771 57.2798 Q638.115 58.5529 640.401 59.1606 Q642.686 59.7682 645.059 59.7682 Q650.296 59.7682 652.9 57.0194 Q655.505 54.2995 655.505 48.7729 L655.505 46.1398 Q653.855 49.0044 651.28 50.4222 Q648.705 51.84 645.117 51.84 Q639.156 51.84 635.511 47.2972 Q631.865 42.7544 631.865 35.2602 Q631.865 27.7371 635.511 23.1943 Q639.156 18.6515 645.117 18.6515 Q648.705 18.6515 651.28 20.0693 Q653.855 21.4872 655.505 24.3517 L655.505 19.4328 L660.829 19.4328 L660.829 47.818 Z" fill="#000000" fill-rule="nonzero" fill-opacity="1" /><path clip-path="url(#clip870)" d="M690.574 24.4096 Q689.677 23.8888 688.606 23.6573 Q687.565 23.3969 686.292 23.3969 Q681.778 23.3969 679.347 26.3482 Q676.946 29.2707 676.946 34.7683 L676.946 51.84 L671.593 51.84 L671.593 19.4328 L676.946 19.4328 L676.946 24.4675 Q678.624 21.5161 681.315 20.0983 Q684.006 18.6515 687.854 18.6515 Q688.404 18.6515 689.069 18.7383 Q689.735 18.7962 690.545 18.9409 L690.574 24.4096 Z" fill="#000000" fill-rule="nonzero" fill-opacity="1" /><path clip-path="url(#clip870)" d="M707.414 23.1654 Q703.132 23.1654 700.643 26.5218 Q698.155 29.8494 698.155 35.6653 Q698.155 41.4813 700.614 44.8377 Q703.103 48.1653 707.414 48.1653 Q711.668 48.1653 714.156 44.8088 Q716.644 41.4523 716.644 35.6653 Q716.644 29.9072 714.156 26.5508 Q711.668 23.1654 707.414 23.1654 M707.414 18.6515 Q714.359 18.6515 718.323 23.1654 Q722.287 27.6792 722.287 35.6653 Q722.287 43.6225 718.323 48.1653 Q714.359 52.6791 707.414 52.6791 Q700.441 52.6791 696.477 48.1653 Q692.541 43.6225 692.541 35.6653 Q692.541 27.6792 696.477 23.1654 Q700.441 18.6515 707.414 18.6515 Z" fill="#000000" fill-rule="nonzero" fill-opacity="1" /><path clip-path="url(#clip870)" d="M730.562 39.0507 L730.562 19.4328 L735.886 19.4328 L735.886 38.8482 Q735.886 43.4488 737.68 45.7636 Q739.474 48.0495 743.062 48.0495 Q747.373 48.0495 749.862 45.3007 Q752.379 42.5519 752.379 37.8065 L752.379 19.4328 L757.703 19.4328 L757.703 51.84 L752.379 51.84 L752.379 46.8632 Q750.44 49.8145 747.865 51.2613 Q745.319 52.6791 741.934 52.6791 Q736.349 52.6791 733.456 49.2069 Q730.562 45.7347 730.562 39.0507 M743.959 18.6515 L743.959 18.6515 Z" fill="#000000" fill-rule="nonzero" fill-opacity="1" /><path clip-path="url(#clip870)" d="M773.82 46.9789 L773.82 64.1663 L768.467 64.1663 L768.467 19.4328 L773.82 19.4328 L773.82 24.3517 Q775.498 21.4582 778.045 20.0693 Q780.62 18.6515 784.179 18.6515 Q790.081 18.6515 793.756 23.339 Q797.46 28.0265 797.46 35.6653 Q797.46 43.3042 793.756 47.9916 Q790.081 52.6791 784.179 52.6791 Q780.62 52.6791 778.045 51.2902 Q775.498 49.8724 773.82 46.9789 M791.933 35.6653 Q791.933 29.7915 789.503 26.464 Q787.101 23.1075 782.877 23.1075 Q778.652 23.1075 776.222 26.464 Q773.82 29.7915 773.82 35.6653 Q773.82 41.5391 776.222 44.8956 Q778.652 48.2231 782.877 48.2231 Q787.101 48.2231 789.503 44.8956 Q791.933 41.5391 791.933 35.6653 Z" fill="#000000" fill-rule="nonzero" fill-opacity="1" /><path clip-path="url(#clip870)" d="M856.748 6.87496 Q852.87 13.53 850.99 20.0404 Q849.109 26.5508 849.109 33.2348 Q849.109 39.9188 850.99 46.487 Q852.899 53.0263 856.748 59.6525 L852.118 59.6525 Q847.778 52.8527 845.608 46.2845 Q843.467 39.7162 843.467 33.2348 Q843.467 26.7823 845.608 20.2429 Q847.749 13.7036 852.118 6.87496 L856.748 6.87496 Z" fill="#000000" fill-rule="nonzero" fill-opacity="1" /><path clip-path="url(#clip870)" d="M881.748 14.3981 L873.819 35.8968 L889.705 35.8968 L881.748 14.3981 M878.449 8.64 L885.075 8.64 L901.539 51.84 L895.463 51.84 L891.528 40.7579 L872.054 40.7579 L868.119 51.84 L861.956 51.84 L878.449 8.64 Z" fill="#000000" fill-rule="nonzero" fill-opacity="1" /><path clip-path="url(#clip870)" d="M913.692 31.2093 L913.692 47.0368 L923.067 47.0368 Q927.783 47.0368 930.04 45.0981 Q932.326 43.1306 932.326 39.1086 Q932.326 35.0577 930.04 33.148 Q927.783 31.2093 923.067 31.2093 L913.692 31.2093 M913.692 13.4432 L913.692 26.464 L922.343 26.464 Q926.626 26.464 928.709 24.8726 Q930.821 23.2522 930.821 19.9536 Q930.821 16.6839 928.709 15.0636 Q926.626 13.4432 922.343 13.4432 L913.692 13.4432 M907.847 8.64 L922.778 8.64 Q929.462 8.64 933.078 11.4178 Q936.695 14.1955 936.695 19.317 Q936.695 23.2811 934.843 25.6249 Q932.992 27.9686 929.404 28.5473 Q933.715 29.4732 936.088 32.4246 Q938.489 35.347 938.489 39.7452 Q938.489 45.5322 934.554 48.6861 Q930.619 51.84 923.356 51.84 L907.847 51.84 L907.847 8.64 Z" fill="#000000" fill-rule="nonzero" fill-opacity="1" /><path clip-path="url(#clip870)" d="M1004.9 22.442 L977.118 30.457 L1004.9 38.3852 L1004.9 43.5356 L967.8 32.8876 L967.8 27.9686 L1004.9 17.3494 L1004.9 22.442 M967.8 46.921 L1004.9 46.921 L1004.9 51.84 L967.8 51.84 L967.8 46.921 Z" fill="#000000" fill-rule="nonzero" fill-opacity="1" /><path clip-path="url(#clip870)" d="M1049.57 27.9107 Q1045.64 27.9107 1043.32 30.6017 Q1041.03 33.2926 1041.03 37.9801 Q1041.03 42.6387 1043.32 45.3586 Q1045.64 48.0495 1049.57 48.0495 Q1053.51 48.0495 1055.79 45.3586 Q1058.11 42.6387 1058.11 37.9801 Q1058.11 33.2926 1055.79 30.6017 Q1053.51 27.9107 1049.57 27.9107 M1061.17 9.59486 L1061.17 14.9189 Q1058.97 13.8772 1056.72 13.3275 Q1054.49 12.7777 1052.29 12.7777 Q1046.5 12.7777 1043.44 16.6839 Q1040.4 20.5902 1039.96 28.4894 Q1041.67 25.9721 1044.25 24.6411 Q1046.82 23.2811 1049.92 23.2811 Q1056.43 23.2811 1060.19 27.2452 Q1063.98 31.1804 1063.98 37.9801 Q1063.98 44.6352 1060.05 48.6571 Q1056.11 52.6791 1049.57 52.6791 Q1042.08 52.6791 1038.11 46.95 Q1034.15 41.1919 1034.15 30.2834 Q1034.15 20.0404 1039.01 13.964 Q1043.87 7.85875 1052.06 7.85875 Q1054.26 7.85875 1056.49 8.29278 Q1058.74 8.72681 1061.17 9.59486 Z" fill="#000000" fill-rule="nonzero" fill-opacity="1" /><path clip-path="url(#clip870)" d="M1086.55 12.4884 Q1082.04 12.4884 1079.75 16.9444 Q1077.49 21.3714 1077.49 30.2834 Q1077.49 39.1665 1079.75 43.6225 Q1082.04 48.0495 1086.55 48.0495 Q1091.09 48.0495 1093.35 43.6225 Q1095.64 39.1665 1095.64 30.2834 Q1095.64 21.3714 1093.35 16.9444 Q1091.09 12.4884 1086.55 12.4884 M1086.55 7.85875 Q1093.81 7.85875 1097.63 13.6168 Q1101.48 19.346 1101.48 30.2834 Q1101.48 41.1919 1097.63 46.95 Q1093.81 52.6791 1086.55 52.6791 Q1079.29 52.6791 1075.44 46.95 Q1071.62 41.1919 1071.62 30.2834 Q1071.62 19.346 1075.44 13.6168 Q1079.29 7.85875 1086.55 7.85875 Z" fill="#000000" fill-rule="nonzero" fill-opacity="1" /><path clip-path="url(#clip870)" d="M1153.16 20.677 L1153.16 25.6538 Q1150.9 24.4096 1148.62 23.802 Q1146.36 23.1654 1144.04 23.1654 Q1138.86 23.1654 1136 26.464 Q1133.14 29.7336 1133.14 35.6653 Q1133.14 41.597 1136 44.8956 Q1138.86 48.1653 1144.04 48.1653 Q1146.36 48.1653 1148.62 47.5576 Q1150.9 46.921 1153.16 45.6768 L1153.16 50.5958 Q1150.93 51.6375 1148.53 52.1583 Q1146.16 52.6791 1143.46 52.6791 Q1136.14 52.6791 1131.83 48.0784 Q1127.52 43.4778 1127.52 35.6653 Q1127.52 27.7371 1131.86 23.1943 Q1136.23 18.6515 1143.81 18.6515 Q1146.27 18.6515 1148.62 19.1724 Q1150.96 19.6642 1153.16 20.677 Z" fill="#000000" fill-rule="nonzero" fill-opacity="1" /><path clip-path="url(#clip870)" d="M1187.65 25.6538 Q1189.65 22.0659 1192.42 20.3587 Q1195.2 18.6515 1198.96 18.6515 Q1204.03 18.6515 1206.77 22.2105 Q1209.52 25.7406 1209.52 32.2799 L1209.52 51.84 L1204.17 51.84 L1204.17 32.4535 Q1204.17 27.795 1202.52 25.5381 Q1200.87 23.2811 1197.49 23.2811 Q1193.35 23.2811 1190.95 26.03 Q1188.55 28.7788 1188.55 33.5241 L1188.55 51.84 L1183.19 51.84 L1183.19 32.4535 Q1183.19 27.7661 1181.54 25.5381 Q1179.89 23.2811 1176.45 23.2811 Q1172.37 23.2811 1169.97 26.0589 Q1167.57 28.8077 1167.57 33.5241 L1167.57 51.84 L1162.21 51.84 L1162.21 19.4328 L1167.57 19.4328 L1167.57 24.4675 Q1169.39 21.4872 1171.94 20.0693 Q1174.48 18.6515 1177.98 18.6515 Q1181.51 18.6515 1183.97 20.4455 Q1186.46 22.2395 1187.65 25.6538 Z" fill="#000000" fill-rule="nonzero" fill-opacity="1" /><path clip-path="url(#clip870)" d="M1229.6 8.64 L1234.52 8.64 L1219.48 57.3377 L1214.56 57.3377 L1229.6 8.64 Z" fill="#000000" fill-rule="nonzero" fill-opacity="1" /><path clip-path="url(#clip870)" d="M1260.77 20.3876 L1260.77 25.4223 Q1258.51 24.2649 1256.08 23.6862 Q1253.65 23.1075 1251.05 23.1075 Q1247.08 23.1075 1245.08 24.3228 Q1243.12 25.5381 1243.12 27.9686 Q1243.12 29.8204 1244.54 30.891 Q1245.95 31.9327 1250.24 32.8876 L1252.06 33.2926 Q1257.73 34.5079 1260.1 36.7359 Q1262.5 38.935 1262.5 42.8991 Q1262.5 47.4129 1258.92 50.046 Q1255.36 52.6791 1249.11 52.6791 Q1246.5 52.6791 1243.67 52.1583 Q1240.86 51.6664 1237.74 50.6537 L1237.74 45.156 Q1240.69 46.6896 1243.55 47.4708 Q1246.42 48.2231 1249.22 48.2231 Q1252.98 48.2231 1255.01 46.95 Q1257.03 45.6479 1257.03 43.3042 Q1257.03 41.134 1255.56 39.9766 Q1254.11 38.8192 1249.16 37.7486 L1247.31 37.3146 Q1242.36 36.273 1240.17 34.1318 Q1237.97 31.9616 1237.97 28.2001 Q1237.97 23.6283 1241.21 21.1399 Q1244.45 18.6515 1250.41 18.6515 Q1253.36 18.6515 1255.96 19.0855 Q1258.57 19.5196 1260.77 20.3876 Z" fill="#000000" fill-rule="nonzero" fill-opacity="1" /><path clip-path="url(#clip870)" d="M1270.14 6.87496 L1274.77 6.87496 Q1279.11 13.7036 1281.25 20.2429 Q1283.42 26.7823 1283.42 33.2348 Q1283.42 39.7162 1281.25 46.2845 Q1279.11 52.8527 1274.77 59.6525 L1270.14 59.6525 Q1273.99 53.0263 1275.87 46.487 Q1277.78 39.9188 1277.78 33.2348 Q1277.78 26.5508 1275.87 20.0404 Q1273.99 13.53 1270.14 6.87496 Z" fill="#000000" fill-rule="nonzero" fill-opacity="1" /><circle clip-path="url(#clip872)" cx="428.34" cy="287.872" r="10.8" fill="#4482b5" fill-rule="evenodd" fill-opacity="0.65" stroke="none"/>
<circle clip-path="url(#clip872)" cx="448.707" cy="288.315" r="10.8" fill="#4482b5" fill-rule="evenodd" fill-opacity="0.65" stroke="none"/>
<circle clip-path="url(#clip872)" cx="435.276" cy="323.624" r="10.8" fill="#4482b5" fill-rule="evenodd" fill-opacity="0.65" stroke="none"/>
<circle clip-path="url(#clip872)" cx="406.91" cy="319.177" r="10.8" fill="#4482b5" fill-rule="evenodd" fill-opacity="0.65" stroke="none"/>
<circle clip-path="url(#clip872)" cx="425.512" cy="259.57" r="10.8" fill="#4482b5" fill-rule="evenodd" fill-opacity="0.65" stroke="none"/>
<circle clip-path="url(#clip872)" cx="430.169" cy="272.881" r="10.8" fill="#4482b5" fill-rule="evenodd" fill-opacity="0.65" stroke="none"/>
<circle clip-path="url(#clip872)" cx="398.491" cy="265.552" r="10.8" fill="#4482b5" fill-rule="evenodd" fill-opacity="0.65" stroke="none"/>
<circle clip-path="url(#clip872)" cx="413.861" cy="287.24" r="10.8" fill="#4482b5" fill-rule="evenodd" fill-opacity="0.65" stroke="none"/>
<circle clip-path="url(#clip872)" cx="417.943" cy="288.615" r="10.8" fill="#4482b5" fill-rule="evenodd" fill-opacity="0.65" stroke="none"/>
<circle clip-path="url(#clip872)" cx="415.221" cy="294.017" r="10.8" fill="#4482b5" fill-rule="evenodd" fill-opacity="0.65" stroke="none"/>
<circle clip-path="url(#clip872)" cx="451.223" cy="298.677" r="10.8" fill="#4482b5" fill-rule="evenodd" fill-opacity="0.65" stroke="none"/>
<circle clip-path="url(#clip872)" cx="418.308" cy="277.167" r="10.8" fill="#4482b5" fill-rule="evenodd" fill-opacity="0.65" stroke="none"/>
<circle clip-path="url(#clip872)" cx="426.924" cy="326.023" r="10.8" fill="#4482b5" fill-rule="evenodd" fill-opacity="0.65" stroke="none"/>
<circle clip-path="url(#clip872)" cx="415.527" cy="333.051" r="10.8" fill="#4482b5" fill-rule="evenodd" fill-opacity="0.65" stroke="none"/>
<circle clip-path="url(#clip872)" cx="413.056" cy="327.961" r="10.8" fill="#4482b5" fill-rule="evenodd" fill-opacity="0.65" stroke="none"/>
<circle clip-path="url(#clip872)" cx="411.825" cy="326.234" r="10.8" fill="#4482b5" fill-rule="evenodd" fill-opacity="0.65" stroke="none"/>
<circle clip-path="url(#clip872)" cx="420.459" cy="331.234" r="10.8" fill="#4482b5" fill-rule="evenodd" fill-opacity="0.65" stroke="none"/>
<circle clip-path="url(#clip872)" cx="402.069" cy="328.152" r="10.8" fill="#4482b5" fill-rule="evenodd" fill-opacity="0.65" stroke="none"/>
<circle clip-path="url(#clip872)" cx="393.377" cy="235.168" r="10.8" fill="#4482b5" fill-rule="evenodd" fill-opacity="0.65" stroke="none"/>
<circle clip-path="url(#clip872)" cx="437.695" cy="327.204" r="10.8" fill="#4482b5" fill-rule="evenodd" fill-opacity="0.65" stroke="none"/>
<circle clip-path="url(#clip872)" cx="448.197" cy="324.521" r="10.8" fill="#4482b5" fill-rule="evenodd" fill-opacity="0.65" stroke="none"/>
<circle clip-path="url(#clip872)" cx="422.296" cy="321.014" r="10.8" fill="#4482b5" fill-rule="evenodd" fill-opacity="0.65" stroke="none"/>
<circle clip-path="url(#clip872)" cx="420.594" cy="321.518" r="10.8" fill="#4482b5" fill-rule="evenodd" fill-opacity="0.65" stroke="none"/>
<circle clip-path="url(#clip872)" cx="450.715" cy="329.37" r="10.8" fill="#4482b5" fill-rule="evenodd" fill-opacity="0.65" stroke="none"/>
<circle clip-path="url(#clip872)" cx="430.51" cy="316.167" r="10.8" fill="#4482b5" fill-rule="evenodd" fill-opacity="0.65" stroke="none"/>
<circle clip-path="url(#clip872)" cx="411.915" cy="321.806" r="10.8" fill="#4482b5" fill-rule="evenodd" fill-opacity="0.65" stroke="none"/>
<circle clip-path="url(#clip872)" cx="397.541" cy="333.95" r="10.8" fill="#4482b5" fill-rule="evenodd" fill-opacity="0.65" stroke="none"/>
<circle clip-path="url(#clip872)" cx="431.605" cy="331.419" r="10.8" fill="#4482b5" fill-rule="evenodd" fill-opacity="0.65" stroke="none"/>
<circle clip-path="url(#clip872)" cx="425.471" cy="323.624" r="10.8" fill="#4482b5" fill-rule="evenodd" fill-opacity="0.65" stroke="none"/>
<circle clip-path="url(#clip872)" cx="406.833" cy="325.554" r="10.8" fill="#4482b5" fill-rule="evenodd" fill-opacity="0.65" stroke="none"/>
<circle clip-path="url(#clip872)" cx="428.896" cy="334.739" r="10.8" fill="#4482b5" fill-rule="evenodd" fill-opacity="0.65" stroke="none"/>
<polyline clip-path="url(#clip872)" style="stroke:#000000; stroke-linecap:round; stroke-linejoin:round; stroke-width:12; stroke-opacity:1; fill:none" points="362.823,321.806 481.822,321.806 "/>
<polyline clip-path="url(#clip872)" style="stroke:#000000; stroke-linecap:round; stroke-linejoin:round; stroke-width:8; stroke-opacity:1; fill:none" points="422.322,327.582 422.322,288.465 "/>
<circle clip-path="url(#clip872)" cx="706.83" cy="233.19" r="10.8" fill="#ff8c00" fill-rule="evenodd" fill-opacity="0.65" stroke="none"/>
<circle clip-path="url(#clip872)" cx="691.002" cy="233.184" r="10.8" fill="#ff8c00" fill-rule="evenodd" fill-opacity="0.65" stroke="none"/>
<circle clip-path="url(#clip872)" cx="683.686" cy="233.405" r="10.8" fill="#ff8c00" fill-rule="evenodd" fill-opacity="0.65" stroke="none"/>
<circle clip-path="url(#clip872)" cx="699.698" cy="233.196" r="10.8" fill="#ff8c00" fill-rule="evenodd" fill-opacity="0.65" stroke="none"/>
<circle clip-path="url(#clip872)" cx="674.165" cy="434.824" r="10.8" fill="#ff8c00" fill-rule="evenodd" fill-opacity="0.65" stroke="none"/>
<circle clip-path="url(#clip872)" cx="681.364" cy="253.888" r="10.8" fill="#ff8c00" fill-rule="evenodd" fill-opacity="0.65" stroke="none"/>
<circle clip-path="url(#clip872)" cx="686.666" cy="233.239" r="10.8" fill="#ff8c00" fill-rule="evenodd" fill-opacity="0.65" stroke="none"/>
<circle clip-path="url(#clip872)" cx="689.5" cy="618.749" r="10.8" fill="#ff8c00" fill-rule="evenodd" fill-opacity="0.65" stroke="none"/>
<circle clip-path="url(#clip872)" cx="677.658" cy="326.37" r="10.8" fill="#ff8c00" fill-rule="evenodd" fill-opacity="0.65" stroke="none"/>
<circle clip-path="url(#clip872)" cx="665.883" cy="233.23" r="10.8" fill="#ff8c00" fill-rule="evenodd" fill-opacity="0.65" stroke="none"/>
<circle clip-path="url(#clip872)" cx="717.261" cy="343.387" r="10.8" fill="#ff8c00" fill-rule="evenodd" fill-opacity="0.65" stroke="none"/>
<circle clip-path="url(#clip872)" cx="721.782" cy="431.736" r="10.8" fill="#ff8c00" fill-rule="evenodd" fill-opacity="0.65" stroke="none"/>
<circle clip-path="url(#clip872)" cx="681.197" cy="235.928" r="10.8" fill="#ff8c00" fill-rule="evenodd" fill-opacity="0.65" stroke="none"/>
<circle clip-path="url(#clip872)" cx="717.229" cy="234.428" r="10.8" fill="#ff8c00" fill-rule="evenodd" fill-opacity="0.65" stroke="none"/>
<circle clip-path="url(#clip872)" cx="713.896" cy="236.702" r="10.8" fill="#ff8c00" fill-rule="evenodd" fill-opacity="0.65" stroke="none"/>
<circle clip-path="url(#clip872)" cx="707.965" cy="233.186" r="10.8" fill="#ff8c00" fill-rule="evenodd" fill-opacity="0.65" stroke="none"/>
<circle clip-path="url(#clip872)" cx="663.024" cy="233.195" r="10.8" fill="#ff8c00" fill-rule="evenodd" fill-opacity="0.65" stroke="none"/>
<circle clip-path="url(#clip872)" cx="719.888" cy="272.317" r="10.8" fill="#ff8c00" fill-rule="evenodd" fill-opacity="0.65" stroke="none"/>
<circle clip-path="url(#clip872)" cx="707.721" cy="240.361" r="10.8" fill="#ff8c00" fill-rule="evenodd" fill-opacity="0.65" stroke="none"/>
<circle clip-path="url(#clip872)" cx="668.721" cy="633.091" r="10.8" fill="#ff8c00" fill-rule="evenodd" fill-opacity="0.65" stroke="none"/>
<circle clip-path="url(#clip872)" cx="664.24" cy="233.39" r="10.8" fill="#ff8c00" fill-rule="evenodd" fill-opacity="0.65" stroke="none"/>
<circle clip-path="url(#clip872)" cx="701.522" cy="233.221" r="10.8" fill="#ff8c00" fill-rule="evenodd" fill-opacity="0.65" stroke="none"/>
<circle clip-path="url(#clip872)" cx="666.783" cy="233.25" r="10.8" fill="#ff8c00" fill-rule="evenodd" fill-opacity="0.65" stroke="none"/>
<circle clip-path="url(#clip872)" cx="704.267" cy="233.229" r="10.8" fill="#ff8c00" fill-rule="evenodd" fill-opacity="0.65" stroke="none"/>
<circle clip-path="url(#clip872)" cx="712.15" cy="233.317" r="10.8" fill="#ff8c00" fill-rule="evenodd" fill-opacity="0.65" stroke="none"/>
<circle clip-path="url(#clip872)" cx="713.482" cy="233.181" r="10.8" fill="#ff8c00" fill-rule="evenodd" fill-opacity="0.65" stroke="none"/>
<circle clip-path="url(#clip872)" cx="687.779" cy="233.195" r="10.8" fill="#ff8c00" fill-rule="evenodd" fill-opacity="0.65" stroke="none"/>
<circle clip-path="url(#clip872)" cx="680.199" cy="233.187" r="10.8" fill="#ff8c00" fill-rule="evenodd" fill-opacity="0.65" stroke="none"/>
<circle clip-path="url(#clip872)" cx="711.666" cy="233.179" r="10.8" fill="#ff8c00" fill-rule="evenodd" fill-opacity="0.65" stroke="none"/>
<circle clip-path="url(#clip872)" cx="696.74" cy="597.054" r="10.8" fill="#ff8c00" fill-rule="evenodd" fill-opacity="0.65" stroke="none"/>
<circle clip-path="url(#clip872)" cx="695.626" cy="419.678" r="10.8" fill="#ff8c00" fill-rule="evenodd" fill-opacity="0.65" stroke="none"/>
<circle clip-path="url(#clip872)" cx="707.3" cy="432.968" r="10.8" fill="#ff8c00" fill-rule="evenodd" fill-opacity="0.65" stroke="none"/>
<circle clip-path="url(#clip872)" cx="675.251" cy="570.75" r="10.8" fill="#ff8c00" fill-rule="evenodd" fill-opacity="0.65" stroke="none"/>
<circle clip-path="url(#clip872)" cx="704.678" cy="291.16" r="10.8" fill="#ff8c00" fill-rule="evenodd" fill-opacity="0.65" stroke="none"/>
<circle clip-path="url(#clip872)" cx="664.638" cy="282.867" r="10.8" fill="#ff8c00" fill-rule="evenodd" fill-opacity="0.65" stroke="none"/>
<circle clip-path="url(#clip872)" cx="694.59" cy="427.676" r="10.8" fill="#ff8c00" fill-rule="evenodd" fill-opacity="0.65" stroke="none"/>
<circle clip-path="url(#clip872)" cx="684.849" cy="616.048" r="10.8" fill="#ff8c00" fill-rule="evenodd" fill-opacity="0.65" stroke="none"/>
<circle clip-path="url(#clip872)" cx="688.92" cy="581.235" r="10.8" fill="#ff8c00" fill-rule="evenodd" fill-opacity="0.65" stroke="none"/>
<circle clip-path="url(#clip872)" cx="701.122" cy="588.586" r="10.8" fill="#ff8c00" fill-rule="evenodd" fill-opacity="0.65" stroke="none"/>
<circle clip-path="url(#clip872)" cx="671.9" cy="233.429" r="10.8" fill="#ff8c00" fill-rule="evenodd" fill-opacity="0.65" stroke="none"/>
<circle clip-path="url(#clip872)" cx="669.898" cy="243.91" r="10.8" fill="#ff8c00" fill-rule="evenodd" fill-opacity="0.65" stroke="none"/>
<circle clip-path="url(#clip872)" cx="675.043" cy="233.184" r="10.8" fill="#ff8c00" fill-rule="evenodd" fill-opacity="0.65" stroke="none"/>
<circle clip-path="url(#clip872)" cx="717.982" cy="433.606" r="10.8" fill="#ff8c00" fill-rule="evenodd" fill-opacity="0.65" stroke="none"/>
<circle clip-path="url(#clip872)" cx="684.945" cy="233.291" r="10.8" fill="#ff8c00" fill-rule="evenodd" fill-opacity="0.65" stroke="none"/>
<circle clip-path="url(#clip872)" cx="697.993" cy="233.18" r="10.8" fill="#ff8c00" fill-rule="evenodd" fill-opacity="0.65" stroke="none"/>
<circle clip-path="url(#clip872)" cx="703.005" cy="381.867" r="10.8" fill="#ff8c00" fill-rule="evenodd" fill-opacity="0.65" stroke="none"/>
<circle clip-path="url(#clip872)" cx="669.23" cy="233.368" r="10.8" fill="#ff8c00" fill-rule="evenodd" fill-opacity="0.65" stroke="none"/>
<circle clip-path="url(#clip872)" cx="678.448" cy="293.826" r="10.8" fill="#ff8c00" fill-rule="evenodd" fill-opacity="0.65" stroke="none"/>
<circle clip-path="url(#clip872)" cx="682.042" cy="281.351" r="10.8" fill="#ff8c00" fill-rule="evenodd" fill-opacity="0.65" stroke="none"/>
<circle clip-path="url(#clip872)" cx="682.161" cy="235.657" r="10.8" fill="#ff8c00" fill-rule="evenodd" fill-opacity="0.65" stroke="none"/>
<circle clip-path="url(#clip872)" cx="689.079" cy="429.683" r="10.8" fill="#ff8c00" fill-rule="evenodd" fill-opacity="0.65" stroke="none"/>
<circle clip-path="url(#clip872)" cx="688.099" cy="233.307" r="10.8" fill="#ff8c00" fill-rule="evenodd" fill-opacity="0.65" stroke="none"/>
<circle clip-path="url(#clip872)" cx="692.277" cy="312.139" r="10.8" fill="#ff8c00" fill-rule="evenodd" fill-opacity="0.65" stroke="none"/>
<circle clip-path="url(#clip872)" cx="682.089" cy="233.307" r="10.8" fill="#ff8c00" fill-rule="evenodd" fill-opacity="0.65" stroke="none"/>
<circle clip-path="url(#clip872)" cx="681.608" cy="233.561" r="10.8" fill="#ff8c00" fill-rule="evenodd" fill-opacity="0.65" stroke="none"/>
<circle clip-path="url(#clip872)" cx="704.463" cy="234.845" r="10.8" fill="#ff8c00" fill-rule="evenodd" fill-opacity="0.65" stroke="none"/>
<circle clip-path="url(#clip872)" cx="680.057" cy="233.187" r="10.8" fill="#ff8c00" fill-rule="evenodd" fill-opacity="0.65" stroke="none"/>
<circle clip-path="url(#clip872)" cx="681.7" cy="234.03" r="10.8" fill="#ff8c00" fill-rule="evenodd" fill-opacity="0.65" stroke="none"/>
<circle clip-path="url(#clip872)" cx="681.506" cy="233.183" r="10.8" fill="#ff8c00" fill-rule="evenodd" fill-opacity="0.65" stroke="none"/>
<circle clip-path="url(#clip872)" cx="676.011" cy="233.272" r="10.8" fill="#ff8c00" fill-rule="evenodd" fill-opacity="0.65" stroke="none"/>
<circle clip-path="url(#clip872)" cx="676.484" cy="509.171" r="10.8" fill="#ff8c00" fill-rule="evenodd" fill-opacity="0.65" stroke="none"/>
<circle clip-path="url(#clip872)" cx="708.172" cy="255.094" r="10.8" fill="#ff8c00" fill-rule="evenodd" fill-opacity="0.65" stroke="none"/>
<circle clip-path="url(#clip872)" cx="707.178" cy="233.245" r="10.8" fill="#ff8c00" fill-rule="evenodd" fill-opacity="0.65" stroke="none"/>
<circle clip-path="url(#clip872)" cx="702.368" cy="609.521" r="10.8" fill="#ff8c00" fill-rule="evenodd" fill-opacity="0.65" stroke="none"/>
<circle clip-path="url(#clip872)" cx="715.742" cy="239.485" r="10.8" fill="#ff8c00" fill-rule="evenodd" fill-opacity="0.65" stroke="none"/>
<polyline clip-path="url(#clip872)" style="stroke:#000000; stroke-linecap:round; stroke-linejoin:round; stroke-width:12; stroke-opacity:1; fill:none" points="633.274,235.657 752.272,235.657 "/>
<polyline clip-path="url(#clip872)" style="stroke:#000000; stroke-linecap:round; stroke-linejoin:round; stroke-width:8; stroke-opacity:1; fill:none" points="692.773,381.867 692.773,233.239 "/>
<circle clip-path="url(#clip872)" cx="964.819" cy="639.239" r="10.8" fill="#db143d" fill-rule="evenodd" fill-opacity="0.65" stroke="none"/>
<circle clip-path="url(#clip872)" cx="952.655" cy="455.009" r="10.8" fill="#db143d" fill-rule="evenodd" fill-opacity="0.65" stroke="none"/>
<circle clip-path="url(#clip872)" cx="951.524" cy="336.776" r="10.8" fill="#db143d" fill-rule="evenodd" fill-opacity="0.65" stroke="none"/>
<circle clip-path="url(#clip872)" cx="938.925" cy="236.196" r="10.8" fill="#db143d" fill-rule="evenodd" fill-opacity="0.65" stroke="none"/>
<circle clip-path="url(#clip872)" cx="953.349" cy="638.869" r="10.8" fill="#db143d" fill-rule="evenodd" fill-opacity="0.65" stroke="none"/>
<circle clip-path="url(#clip872)" cx="942.685" cy="233.821" r="10.8" fill="#db143d" fill-rule="evenodd" fill-opacity="0.65" stroke="none"/>
<circle clip-path="url(#clip872)" cx="970.247" cy="446.21" r="10.8" fill="#db143d" fill-rule="evenodd" fill-opacity="0.65" stroke="none"/>
<circle clip-path="url(#clip872)" cx="958.672" cy="619.467" r="10.8" fill="#db143d" fill-rule="evenodd" fill-opacity="0.65" stroke="none"/>
<circle clip-path="url(#clip872)" cx="988.829" cy="235.668" r="10.8" fill="#db143d" fill-rule="evenodd" fill-opacity="0.65" stroke="none"/>
<circle clip-path="url(#clip872)" cx="964.442" cy="475.479" r="10.8" fill="#db143d" fill-rule="evenodd" fill-opacity="0.65" stroke="none"/>
<circle clip-path="url(#clip872)" cx="953.455" cy="438.632" r="10.8" fill="#db143d" fill-rule="evenodd" fill-opacity="0.65" stroke="none"/>
<circle clip-path="url(#clip872)" cx="950.4" cy="422.893" r="10.8" fill="#db143d" fill-rule="evenodd" fill-opacity="0.65" stroke="none"/>
<circle clip-path="url(#clip872)" cx="938.877" cy="616.571" r="10.8" fill="#db143d" fill-rule="evenodd" fill-opacity="0.65" stroke="none"/>
<circle clip-path="url(#clip872)" cx="939.439" cy="233.226" r="10.8" fill="#db143d" fill-rule="evenodd" fill-opacity="0.65" stroke="none"/>
<circle clip-path="url(#clip872)" cx="959.684" cy="233.442" r="10.8" fill="#db143d" fill-rule="evenodd" fill-opacity="0.65" stroke="none"/>
<circle clip-path="url(#clip872)" cx="953.969" cy="236.353" r="10.8" fill="#db143d" fill-rule="evenodd" fill-opacity="0.65" stroke="none"/>
<circle clip-path="url(#clip872)" cx="954.506" cy="610.101" r="10.8" fill="#db143d" fill-rule="evenodd" fill-opacity="0.65" stroke="none"/>
<circle clip-path="url(#clip872)" cx="968.907" cy="233.94" r="10.8" fill="#db143d" fill-rule="evenodd" fill-opacity="0.65" stroke="none"/>
<circle clip-path="url(#clip872)" cx="991.619" cy="596.973" r="10.8" fill="#db143d" fill-rule="evenodd" fill-opacity="0.65" stroke="none"/>
<circle clip-path="url(#clip872)" cx="945.493" cy="603.747" r="10.8" fill="#db143d" fill-rule="evenodd" fill-opacity="0.65" stroke="none"/>
<circle clip-path="url(#clip872)" cx="972.228" cy="550.606" r="10.8" fill="#db143d" fill-rule="evenodd" fill-opacity="0.65" stroke="none"/>
<circle clip-path="url(#clip872)" cx="937.266" cy="385.529" r="10.8" fill="#db143d" fill-rule="evenodd" fill-opacity="0.65" stroke="none"/>
<circle clip-path="url(#clip872)" cx="988.99" cy="296.09" r="10.8" fill="#db143d" fill-rule="evenodd" fill-opacity="0.65" stroke="none"/>
<circle clip-path="url(#clip872)" cx="983.999" cy="233.506" r="10.8" fill="#db143d" fill-rule="evenodd" fill-opacity="0.65" stroke="none"/>
<circle clip-path="url(#clip872)" cx="973.474" cy="619.506" r="10.8" fill="#db143d" fill-rule="evenodd" fill-opacity="0.65" stroke="none"/>
<circle clip-path="url(#clip872)" cx="958.208" cy="438.15" r="10.8" fill="#db143d" fill-rule="evenodd" fill-opacity="0.65" stroke="none"/>
<circle clip-path="url(#clip872)" cx="943.703" cy="407.563" r="10.8" fill="#db143d" fill-rule="evenodd" fill-opacity="0.65" stroke="none"/>
<circle clip-path="url(#clip872)" cx="945.823" cy="358.77" r="10.8" fill="#db143d" fill-rule="evenodd" fill-opacity="0.65" stroke="none"/>
<circle clip-path="url(#clip872)" cx="936.829" cy="233.64" r="10.8" fill="#db143d" fill-rule="evenodd" fill-opacity="0.65" stroke="none"/>
<circle clip-path="url(#clip872)" cx="936.506" cy="239.908" r="10.8" fill="#db143d" fill-rule="evenodd" fill-opacity="0.65" stroke="none"/>
<circle clip-path="url(#clip872)" cx="962.871" cy="429.687" r="10.8" fill="#db143d" fill-rule="evenodd" fill-opacity="0.65" stroke="none"/>
<circle clip-path="url(#clip872)" cx="975.789" cy="442.081" r="10.8" fill="#db143d" fill-rule="evenodd" fill-opacity="0.65" stroke="none"/>
<circle clip-path="url(#clip872)" cx="951.978" cy="288.889" r="10.8" fill="#db143d" fill-rule="evenodd" fill-opacity="0.65" stroke="none"/>
<circle clip-path="url(#clip872)" cx="986.302" cy="431.326" r="10.8" fill="#db143d" fill-rule="evenodd" fill-opacity="0.65" stroke="none"/>
<circle clip-path="url(#clip872)" cx="961.572" cy="234.422" r="10.8" fill="#db143d" fill-rule="evenodd" fill-opacity="0.65" stroke="none"/>
<circle clip-path="url(#clip872)" cx="943.588" cy="233.179" r="10.8" fill="#db143d" fill-rule="evenodd" fill-opacity="0.65" stroke="none"/>
<circle clip-path="url(#clip872)" cx="947.755" cy="629.502" r="10.8" fill="#db143d" fill-rule="evenodd" fill-opacity="0.65" stroke="none"/>
<circle clip-path="url(#clip872)" cx="989.287" cy="530.484" r="10.8" fill="#db143d" fill-rule="evenodd" fill-opacity="0.65" stroke="none"/>
<circle clip-path="url(#clip872)" cx="954.022" cy="507.974" r="10.8" fill="#db143d" fill-rule="evenodd" fill-opacity="0.65" stroke="none"/>
<circle clip-path="url(#clip872)" cx="959.483" cy="316.368" r="10.8" fill="#db143d" fill-rule="evenodd" fill-opacity="0.65" stroke="none"/>
<circle clip-path="url(#clip872)" cx="944.637" cy="249.172" r="10.8" fill="#db143d" fill-rule="evenodd" fill-opacity="0.65" stroke="none"/>
<circle clip-path="url(#clip872)" cx="938.987" cy="647.525" r="10.8" fill="#db143d" fill-rule="evenodd" fill-opacity="0.65" stroke="none"/>
<circle clip-path="url(#clip872)" cx="948.629" cy="233.181" r="10.8" fill="#db143d" fill-rule="evenodd" fill-opacity="0.65" stroke="none"/>
<circle clip-path="url(#clip872)" cx="958.761" cy="430.707" r="10.8" fill="#db143d" fill-rule="evenodd" fill-opacity="0.65" stroke="none"/>
<circle clip-path="url(#clip872)" cx="974.633" cy="331.828" r="10.8" fill="#db143d" fill-rule="evenodd" fill-opacity="0.65" stroke="none"/>
<circle clip-path="url(#clip872)" cx="938.909" cy="432.651" r="10.8" fill="#db143d" fill-rule="evenodd" fill-opacity="0.65" stroke="none"/>
<circle clip-path="url(#clip872)" cx="966.443" cy="431.885" r="10.8" fill="#db143d" fill-rule="evenodd" fill-opacity="0.65" stroke="none"/>
<circle clip-path="url(#clip872)" cx="973.914" cy="243.156" r="10.8" fill="#db143d" fill-rule="evenodd" fill-opacity="0.65" stroke="none"/>
<circle clip-path="url(#clip872)" cx="953.937" cy="646.792" r="10.8" fill="#db143d" fill-rule="evenodd" fill-opacity="0.65" stroke="none"/>
<circle clip-path="url(#clip872)" cx="971.375" cy="641.585" r="10.8" fill="#db143d" fill-rule="evenodd" fill-opacity="0.65" stroke="none"/>
<circle clip-path="url(#clip872)" cx="953.42" cy="547.18" r="10.8" fill="#db143d" fill-rule="evenodd" fill-opacity="0.65" stroke="none"/>
<circle clip-path="url(#clip872)" cx="940.414" cy="267.772" r="10.8" fill="#db143d" fill-rule="evenodd" fill-opacity="0.65" stroke="none"/>
<circle clip-path="url(#clip872)" cx="940.132" cy="516.672" r="10.8" fill="#db143d" fill-rule="evenodd" fill-opacity="0.65" stroke="none"/>
<circle clip-path="url(#clip872)" cx="949.667" cy="642.484" r="10.8" fill="#db143d" fill-rule="evenodd" fill-opacity="0.65" stroke="none"/>
<polyline clip-path="url(#clip872)" style="stroke:#000000; stroke-linecap:round; stroke-linejoin:round; stroke-width:12; stroke-opacity:1; fill:none" points="903.724,431.017 1022.72,431.017 "/>
<polyline clip-path="url(#clip872)" style="stroke:#000000; stroke-linecap:round; stroke-linejoin:round; stroke-width:8; stroke-opacity:1; fill:none" points="963.224,549.75 963.224,244.66 "/>
</svg>
