<?xml version="1.0" encoding="utf-8"?>
<svg xmlns="http://www.w3.org/2000/svg" xmlns:xlink="http://www.w3.org/1999/xlink" width="1000" height="500" viewBox="0 0 4000 2000">
<defs>
  <clipPath id="clip380">
    <rect x="0" y="0" width="4000" height="2000"/>
  </clipPath>
</defs>
<path clip-path="url(#clip380)" d="M0 2000 L4000 2000 L4000 0 L0 0  Z" fill="#ffffff" fill-rule="evenodd" fill-opacity="1"/>
<defs>
  <clipPath id="clip381">
    <rect x="2210" y="678" width="1751" height="1207"/>
  </clipPath>
</defs>
<path clip-path="url(#clip380)" d="M305.726 1771.13 L1810.04 1771.13 L1810.04 225.068 L305.726 225.068  Z" fill="#ffffff" fill-rule="evenodd" fill-opacity="1"/>
<defs>
  <clipPath id="clip382">
    <rect x="305" y="225" width="1505" height="1547"/>
  </clipPath>
</defs>
<polyline clip-path="url(#clip382)" style="stroke:#000000; stroke-linecap:round; stroke-linejoin:round; stroke-width:2; stroke-opacity:0.1; fill:none" points="466.564,1771.13 466.564,225.068 "/>
<polyline clip-path="url(#clip382)" style="stroke:#000000; stroke-linecap:round; stroke-linejoin:round; stroke-width:2; stroke-opacity:0.1; fill:none" points="1057.88,1771.13 1057.88,225.068 "/>
<polyline clip-path="url(#clip382)" style="stroke:#000000; stroke-linecap:round; stroke-linejoin:round; stroke-width:2; stroke-opacity:0.1; fill:none" points="1649.2,1771.13 1649.2,225.068 "/>
<polyline clip-path="url(#clip382)" style="stroke:#000000; stroke-linecap:round; stroke-linejoin:round; stroke-width:2; stroke-opacity:0.1; fill:none" points="305.726,1727.56 1810.04,1727.56 "/>
<polyline clip-path="url(#clip382)" style="stroke:#000000; stroke-linecap:round; stroke-linejoin:round; stroke-width:2; stroke-opacity:0.1; fill:none" points="305.726,1387.8 1810.04,1387.8 "/>
<polyline clip-path="url(#clip382)" style="stroke:#000000; stroke-linecap:round; stroke-linejoin:round; stroke-width:2; stroke-opacity:0.1; fill:none" points="305.726,1048.03 1810.04,1048.03 "/>
<polyline clip-path="url(#clip382)" style="stroke:#000000; stroke-linecap:round; stroke-linejoin:round; stroke-width:2; stroke-opacity:0.1; fill:none" points="305.726,708.268 1810.04,708.268 "/>
<polyline clip-path="url(#clip382)" style="stroke:#000000; stroke-linecap:round; stroke-linejoin:round; stroke-width:2; stroke-opacity:0.1; fill:none" points="305.726,368.504 1810.04,368.504 "/>
<polyline clip-path="url(#clip380)" style="stroke:#000000; stroke-linecap:round; stroke-linejoin:round; stroke-width:4; stroke-opacity:1; fill:none" points="305.726,1771.13 1810.04,1771.13 "/>
<polyline clip-path="url(#clip380)" style="stroke:#000000; stroke-linecap:round; stroke-linejoin:round; stroke-width:4; stroke-opacity:1; fill:none" points="466.564,1771.13 466.564,1752.23 "/>
<polyline clip-path="url(#clip380)" style="stroke:#000000; stroke-linecap:round; stroke-linejoin:round; stroke-width:4; stroke-opacity:1; fill:none" points="1057.88,1771.13 1057.88,1752.23 "/>
<polyline clip-path="url(#clip380)" style="stroke:#000000; stroke-linecap:round; stroke-linejoin:round; stroke-width:4; stroke-opacity:1; fill:none" points="1649.2,1771.13 1649.2,1752.23 "/>
<path clip-path="url(#clip380)" d="M446.242 1821.35 L437.521 1844.99 L454.995 1844.99 L446.242 1821.35 M442.613 1815.01 L449.902 1815.01 L468.013 1862.53 L461.329 1862.53 L457 1850.34 L435.579 1850.34 L431.251 1862.53 L424.471 1862.53 L442.613 1815.01 Z" fill="#000000" fill-rule="nonzero" fill-opacity="1" /><path clip-path="url(#clip380)" d="M481.38 1839.84 L481.38 1857.25 L491.693 1857.25 Q496.881 1857.25 499.364 1855.12 Q501.878 1852.95 501.878 1848.53 Q501.878 1844.07 499.364 1841.97 Q496.881 1839.84 491.693 1839.84 L481.38 1839.84 M481.38 1820.3 L481.38 1834.62 L490.897 1834.62 Q495.608 1834.62 497.899 1832.87 Q500.223 1831.09 500.223 1827.46 Q500.223 1823.86 497.899 1822.08 Q495.608 1820.3 490.897 1820.3 L481.38 1820.3 M474.951 1815.01 L491.375 1815.01 Q498.727 1815.01 502.706 1818.07 Q506.684 1821.12 506.684 1826.76 Q506.684 1831.12 504.647 1833.7 Q502.61 1836.27 498.663 1836.91 Q503.406 1837.93 506.016 1841.17 Q508.658 1844.39 508.658 1849.23 Q508.658 1855.59 504.329 1859.06 Q500 1862.53 492.011 1862.53 L474.951 1862.53 L474.951 1815.01 Z" fill="#000000" fill-rule="nonzero" fill-opacity="1" /><path clip-path="url(#clip380)" d="M1019.72 1815.01 L1026.15 1815.01 L1026.15 1834.49 L1049.51 1834.49 L1049.51 1815.01 L1055.94 1815.01 L1055.94 1862.53 L1049.51 1862.53 L1049.51 1839.9 L1026.15 1839.9 L1026.15 1862.53 L1019.72 1862.53 L1019.72 1815.01 Z" fill="#000000" fill-rule="nonzero" fill-opacity="1" /><path clip-path="url(#clip380)" d="M1068.74 1815.01 L1096.04 1815.01 L1096.04 1820.42 L1075.17 1820.42 L1075.17 1834.43 L1094.01 1834.43 L1094.01 1839.84 L1075.17 1839.84 L1075.17 1862.53 L1068.74 1862.53 L1068.74 1815.01 Z" fill="#000000" fill-rule="nonzero" fill-opacity="1" /><path clip-path="url(#clip380)" d="M1617.39 1815.01 L1623.82 1815.01 L1623.82 1857.12 L1646.96 1857.12 L1646.96 1862.53 L1617.39 1862.53 L1617.39 1815.01 Z" fill="#000000" fill-rule="nonzero" fill-opacity="1" /><path clip-path="url(#clip380)" d="M1653.7 1815.01 L1681.01 1815.01 L1681.01 1820.42 L1660.13 1820.42 L1660.13 1834.43 L1678.98 1834.43 L1678.98 1839.84 L1660.13 1839.84 L1660.13 1862.53 L1653.7 1862.53 L1653.7 1815.01 Z" fill="#000000" fill-rule="nonzero" fill-opacity="1" /><polyline clip-path="url(#clip380)" style="stroke:#000000; stroke-linecap:round; stroke-linejoin:round; stroke-width:4; stroke-opacity:1; fill:none" points="305.726,1771.13 305.726,225.068 "/>
<polyline clip-path="url(#clip380)" style="stroke:#000000; stroke-linecap:round; stroke-linejoin:round; stroke-width:4; stroke-opacity:1; fill:none" points="305.726,1727.56 324.623,1727.56 "/>
<polyline clip-path="url(#clip380)" style="stroke:#000000; stroke-linecap:round; stroke-linejoin:round; stroke-width:4; stroke-opacity:1; fill:none" points="305.726,1387.8 324.623,1387.8 "/>
<polyline clip-path="url(#clip380)" style="stroke:#000000; stroke-linecap:round; stroke-linejoin:round; stroke-width:4; stroke-opacity:1; fill:none" points="305.726,1048.03 324.623,1048.03 "/>
<polyline clip-path="url(#clip380)" style="stroke:#000000; stroke-linecap:round; stroke-linejoin:round; stroke-width:4; stroke-opacity:1; fill:none" points="305.726,708.268 324.623,708.268 "/>
<polyline clip-path="url(#clip380)" style="stroke:#000000; stroke-linecap:round; stroke-linejoin:round; stroke-width:4; stroke-opacity:1; fill:none" points="305.726,368.504 324.623,368.504 "/>
<path clip-path="url(#clip380)" d="M218.353 1745.91 L228.857 1745.91 L228.857 1709.66 L217.43 1711.95 L217.43 1706.09 L228.793 1703.8 L235.222 1703.8 L235.222 1745.91 L245.726 1745.91 L245.726 1751.32 L218.353 1751.32 L218.353 1745.91 Z" fill="#000000" fill-rule="nonzero" fill-opacity="1" /><path clip-path="url(#clip380)" d="M223.287 1406.15 L245.726 1406.15 L245.726 1411.56 L215.552 1411.56 L215.552 1406.15 Q219.213 1402.36 225.515 1395.99 Q231.849 1389.59 233.472 1387.75 Q236.559 1384.28 237.769 1381.89 Q239.01 1379.47 239.01 1377.15 Q239.01 1373.36 236.336 1370.98 Q233.695 1368.59 229.43 1368.59 Q226.406 1368.59 223.032 1369.64 Q219.69 1370.69 215.871 1372.82 L215.871 1366.33 Q219.754 1364.77 223.128 1363.97 Q226.501 1363.18 229.302 1363.18 Q236.687 1363.18 241.079 1366.87 Q245.471 1370.56 245.471 1376.74 Q245.471 1379.66 244.357 1382.31 Q243.275 1384.92 240.379 1388.48 Q239.583 1389.4 235.318 1393.83 Q231.053 1398.22 223.287 1406.15 Z" fill="#000000" fill-rule="nonzero" fill-opacity="1" /><path clip-path="url(#clip380)" d="M235.923 1046.17 Q240.538 1047.16 243.116 1050.28 Q245.726 1053.4 245.726 1057.98 Q245.726 1065.01 240.888 1068.86 Q236.05 1072.72 227.138 1072.72 Q224.146 1072.72 220.963 1072.11 Q217.812 1071.54 214.438 1070.36 L214.438 1064.15 Q217.112 1065.71 220.295 1066.51 Q223.478 1067.3 226.947 1067.3 Q232.994 1067.3 236.145 1064.92 Q239.328 1062.53 239.328 1057.98 Q239.328 1053.78 236.368 1051.42 Q233.44 1049.03 228.188 1049.03 L222.65 1049.03 L222.65 1043.75 L228.443 1043.75 Q233.185 1043.75 235.7 1041.87 Q238.214 1039.96 238.214 1036.4 Q238.214 1032.74 235.604 1030.8 Q233.026 1028.82 228.188 1028.82 Q225.547 1028.82 222.523 1029.4 Q219.499 1029.97 215.871 1031.18 L215.871 1025.45 Q219.531 1024.43 222.714 1023.92 Q225.928 1023.41 228.761 1023.41 Q236.082 1023.41 240.347 1026.75 Q244.612 1030.06 244.612 1035.73 Q244.612 1039.68 242.352 1042.41 Q240.092 1045.12 235.923 1046.17 Z" fill="#000000" fill-rule="nonzero" fill-opacity="1" /><path clip-path="url(#clip380)" d="M232.549 690.11 L216.316 715.477 L232.549 715.477 L232.549 690.11 M230.862 684.508 L238.946 684.508 L238.946 715.477 L245.726 715.477 L245.726 720.824 L238.946 720.824 L238.946 732.028 L232.549 732.028 L232.549 720.824 L211.096 720.824 L211.096 714.618 L230.862 684.508 Z" fill="#000000" fill-rule="nonzero" fill-opacity="1" /><path clip-path="url(#clip380)" d="M216.985 344.744 L242.225 344.744 L242.225 350.154 L222.873 350.154 L222.873 361.804 Q224.273 361.326 225.674 361.103 Q227.074 360.849 228.475 360.849 Q236.432 360.849 241.079 365.209 Q245.726 369.57 245.726 377.018 Q245.726 384.688 240.952 388.953 Q236.177 393.187 227.488 393.187 Q224.496 393.187 221.377 392.677 Q218.29 392.168 214.979 391.15 L214.979 384.688 Q217.844 386.248 220.9 387.012 Q223.955 387.776 227.361 387.776 Q232.867 387.776 236.082 384.879 Q239.296 381.983 239.296 377.018 Q239.296 372.052 236.082 369.156 Q232.867 366.26 227.361 366.26 Q224.783 366.26 222.205 366.833 Q219.658 367.405 216.985 368.615 L216.985 344.744 Z" fill="#000000" fill-rule="nonzero" fill-opacity="1" /><path clip-path="url(#clip380)" d="M78.0884 1370.64 L78.0884 1359.32 L116.306 1344.99 L78.0884 1330.58 L78.0884 1319.26 L134.248 1319.26 L134.248 1326.67 L84.9344 1326.67 L123.453 1341.15 L123.453 1348.79 L84.9344 1363.27 L134.248 1363.27 L134.248 1370.64 L78.0884 1370.64 Z" fill="#000000" fill-rule="nonzero" fill-opacity="1" /><path clip-path="url(#clip380)" d="M113.071 1285.33 Q113.071 1293.72 114.989 1296.96 Q116.908 1300.19 121.534 1300.19 Q125.221 1300.19 127.402 1297.78 Q129.546 1295.34 129.546 1291.16 Q129.546 1285.41 125.484 1281.95 Q121.384 1278.45 114.613 1278.45 L113.071 1278.45 L113.071 1285.33 M110.212 1271.53 L134.248 1271.53 L134.248 1278.45 L127.854 1278.45 Q131.691 1280.82 133.534 1284.35 Q135.339 1287.89 135.339 1293.01 Q135.339 1299.48 131.728 1303.31 Q128.079 1307.11 121.986 1307.11 Q114.876 1307.11 111.265 1302.37 Q107.654 1297.59 107.654 1288.15 L107.654 1278.45 L106.977 1278.45 Q102.2 1278.45 99.6045 1281.61 Q96.9714 1284.73 96.9714 1290.41 Q96.9714 1294.02 97.8365 1297.44 Q98.7017 1300.87 100.432 1304.03 L94.0374 1304.03 Q92.5704 1300.23 91.8557 1296.65 Q91.1034 1293.08 91.1034 1289.7 Q91.1034 1280.56 95.8429 1276.04 Q100.582 1271.53 110.212 1271.53 Z" fill="#000000" fill-rule="nonzero" fill-opacity="1" /><path clip-path="url(#clip380)" d="M92.119 1222.25 L112.619 1237.49 L134.248 1221.46 L134.248 1229.62 L117.698 1241.89 L134.248 1254.15 L134.248 1262.31 L112.206 1245.95 L92.119 1260.92 L92.119 1252.76 L107.128 1241.59 L92.119 1230.41 L92.119 1222.25 Z" fill="#000000" fill-rule="nonzero" fill-opacity="1" /><path clip-path="url(#clip380)" d="M78.0884 1199.38 L78.0884 1192.99 L141.395 1212.55 L141.395 1218.94 L78.0884 1199.38 Z" fill="#000000" fill-rule="nonzero" fill-opacity="1" /><path clip-path="url(#clip380)" d="M78.0884 1185.43 L78.0884 1174.1 L116.306 1159.77 L78.0884 1145.36 L78.0884 1134.04 L134.248 1134.04 L134.248 1141.45 L84.9344 1141.45 L123.453 1155.93 L123.453 1163.57 L84.9344 1178.05 L134.248 1178.05 L134.248 1185.43 L78.0884 1185.43 Z" fill="#000000" fill-rule="nonzero" fill-opacity="1" /><path clip-path="url(#clip380)" d="M92.119 1119.26 L92.119 1112.34 L134.248 1112.34 L134.248 1119.26 L92.119 1119.26 M75.7186 1119.26 L75.7186 1112.34 L84.483 1112.34 L84.483 1119.26 L75.7186 1119.26 Z" fill="#000000" fill-rule="nonzero" fill-opacity="1" /><path clip-path="url(#clip380)" d="M108.82 1062.84 L134.248 1062.84 L134.248 1069.76 L109.046 1069.76 Q103.065 1069.76 100.093 1072.09 Q97.1218 1074.42 97.1218 1079.09 Q97.1218 1084.69 100.695 1087.93 Q104.269 1091.16 110.438 1091.16 L134.248 1091.16 L134.248 1098.12 L92.119 1098.12 L92.119 1091.16 L98.6641 1091.16 Q94.8649 1088.68 92.9841 1085.33 Q91.1034 1081.95 91.1034 1077.54 Q91.1034 1070.28 95.6172 1066.56 Q100.093 1062.84 108.82 1062.84 Z" fill="#000000" fill-rule="nonzero" fill-opacity="1" /><path clip-path="url(#clip380)" d="M82.4142 982.189 L90.4263 982.189 Q86.8528 986.025 85.0849 990.389 Q83.3169 994.715 83.3169 999.605 Q83.3169 1009.23 89.2226 1014.35 Q95.0906 1019.47 106.225 1019.47 Q117.321 1019.47 123.227 1014.35 Q129.095 1009.23 129.095 999.605 Q129.095 994.715 127.327 990.389 Q125.559 986.025 121.986 982.189 L129.923 982.189 Q132.631 986.176 133.985 990.652 Q135.339 995.091 135.339 1000.06 Q135.339 1012.81 127.553 1020.14 Q119.729 1027.48 106.225 1027.48 Q92.6832 1027.48 84.8968 1020.14 Q77.0728 1012.81 77.0728 1000.06 Q77.0728 995.016 78.4269 990.577 Q79.7435 986.101 82.4142 982.189 Z" fill="#000000" fill-rule="nonzero" fill-opacity="1" /><path clip-path="url(#clip380)" d="M98.5888 946.341 Q97.9118 947.507 97.6108 948.899 Q97.2723 950.253 97.2723 951.908 Q97.2723 957.776 101.109 960.936 Q104.908 964.058 112.055 964.058 L134.248 964.058 L134.248 971.017 L92.119 971.017 L92.119 964.058 L98.6641 964.058 Q94.8273 961.876 92.9841 958.378 Q91.1034 954.88 91.1034 949.877 Q91.1034 949.162 91.2162 948.297 Q91.2914 947.432 91.4795 946.379 L98.5888 946.341 Z" fill="#000000" fill-rule="nonzero" fill-opacity="1" /><path clip-path="url(#clip380)" d="M96.9714 924.449 Q96.9714 930.016 101.335 933.251 Q105.661 936.486 113.221 936.486 Q120.782 936.486 125.145 933.288 Q129.471 930.053 129.471 924.449 Q129.471 918.919 125.108 915.684 Q120.744 912.449 113.221 912.449 Q105.736 912.449 101.372 915.684 Q96.9714 918.919 96.9714 924.449 M91.1034 924.449 Q91.1034 915.421 96.9714 910.268 Q102.839 905.114 113.221 905.114 Q123.566 905.114 129.471 910.268 Q135.339 915.421 135.339 924.449 Q135.339 933.514 129.471 938.667 Q123.566 943.783 113.221 943.783 Q102.839 943.783 96.9714 938.667 Q91.1034 933.514 91.1034 924.449 Z" fill="#000000" fill-rule="nonzero" fill-opacity="1" /><path clip-path="url(#clip380)" d="M93.3603 866.784 L99.9054 866.784 Q98.4008 869.718 97.6485 872.878 Q96.8961 876.038 96.8961 879.423 Q96.8961 884.576 98.476 887.172 Q100.056 889.73 103.216 889.73 Q105.623 889.73 107.015 887.886 Q108.369 886.043 109.61 880.476 L110.137 878.106 Q111.717 870.734 114.613 867.649 Q117.472 864.527 122.625 864.527 Q128.493 864.527 131.916 869.192 Q135.339 873.818 135.339 881.943 Q135.339 885.329 134.662 889.015 Q134.023 892.664 132.706 896.726 L125.559 896.726 Q127.553 892.889 128.568 889.165 Q129.546 885.441 129.546 881.793 Q129.546 876.903 127.891 874.27 Q126.199 871.637 123.152 871.637 Q120.331 871.637 118.826 873.555 Q117.321 875.436 115.93 881.868 L115.365 884.275 Q114.011 890.708 111.228 893.566 Q108.407 896.425 103.516 896.425 Q97.5732 896.425 94.3383 892.212 Q91.1034 887.999 91.1034 880.251 Q91.1034 876.414 91.6676 873.028 Q92.2318 869.643 93.3603 866.784 Z" fill="#000000" fill-rule="nonzero" fill-opacity="1" /><path clip-path="url(#clip380)" d="M93.3603 826.648 L99.9054 826.648 Q98.4008 829.582 97.6485 832.742 Q96.8961 835.902 96.8961 839.287 Q96.8961 844.441 98.476 847.036 Q100.056 849.594 103.216 849.594 Q105.623 849.594 107.015 847.751 Q108.369 845.908 109.61 840.34 L110.137 837.971 Q111.717 830.598 114.613 827.514 Q117.472 824.391 122.625 824.391 Q128.493 824.391 131.916 829.056 Q135.339 833.682 135.339 841.807 Q135.339 845.193 134.662 848.879 Q134.023 852.528 132.706 856.59 L125.559 856.59 Q127.553 852.754 128.568 849.03 Q129.546 845.306 129.546 841.657 Q129.546 836.767 127.891 834.134 Q126.199 831.501 123.152 831.501 Q120.331 831.501 118.826 833.419 Q117.321 835.3 115.93 841.732 L115.365 844.14 Q114.011 850.572 111.228 853.431 Q108.407 856.289 103.516 856.289 Q97.5732 856.289 94.3383 852.076 Q91.1034 847.864 91.1034 840.115 Q91.1034 836.278 91.6676 832.893 Q92.2318 829.507 93.3603 826.648 Z" fill="#000000" fill-rule="nonzero" fill-opacity="1" /><path clip-path="url(#clip380)" d="M126.236 750.289 L111.152 750.289 L111.152 762.702 L104.908 762.702 L104.908 742.766 L129.02 742.766 Q132.142 747.167 133.759 752.471 Q135.339 757.774 135.339 763.793 Q135.339 776.958 127.666 784.406 Q119.954 791.816 106.225 791.816 Q92.4575 791.816 84.7839 784.406 Q77.0728 776.958 77.0728 763.793 Q77.0728 758.301 78.4269 753.373 Q79.7811 748.408 82.4142 744.233 L90.5015 744.233 Q86.928 748.446 85.1225 753.185 Q83.3169 757.925 83.3169 763.153 Q83.3169 773.46 89.0721 778.651 Q94.8273 783.804 106.225 783.804 Q117.585 783.804 123.34 778.651 Q129.095 773.46 129.095 763.153 Q129.095 759.128 128.418 755.969 Q127.703 752.809 126.236 750.289 Z" fill="#000000" fill-rule="nonzero" fill-opacity="1" /><path clip-path="url(#clip380)" d="M113.071 710.04 Q113.071 718.428 114.989 721.663 Q116.908 724.898 121.534 724.898 Q125.221 724.898 127.402 722.491 Q129.546 720.046 129.546 715.871 Q129.546 710.115 125.484 706.655 Q121.384 703.157 114.613 703.157 L113.071 703.157 L113.071 710.04 M110.212 696.235 L134.248 696.235 L134.248 703.157 L127.854 703.157 Q131.691 705.526 133.534 709.062 Q135.339 712.598 135.339 717.714 Q135.339 724.184 131.728 728.02 Q128.079 731.82 121.986 731.82 Q114.876 731.82 111.265 727.08 Q107.654 722.303 107.654 712.861 L107.654 703.157 L106.977 703.157 Q102.2 703.157 99.6045 706.316 Q96.9714 709.438 96.9714 715.118 Q96.9714 718.729 97.8365 722.152 Q98.7017 725.575 100.432 728.735 L94.0374 728.735 Q92.5704 724.936 91.8557 721.362 Q91.1034 717.789 91.1034 714.404 Q91.1034 705.263 95.8429 700.749 Q100.582 696.235 110.212 696.235 Z" fill="#000000" fill-rule="nonzero" fill-opacity="1" /><path clip-path="url(#clip380)" d="M92.119 681.979 L92.119 675.058 L134.248 675.058 L134.248 681.979 L92.119 681.979 M75.7186 681.979 L75.7186 675.058 L84.483 675.058 L84.483 681.979 L75.7186 681.979 Z" fill="#000000" fill-rule="nonzero" fill-opacity="1" /><path clip-path="url(#clip380)" d="M108.82 625.556 L134.248 625.556 L134.248 632.477 L109.046 632.477 Q103.065 632.477 100.093 634.809 Q97.1218 637.141 97.1218 641.806 Q97.1218 647.41 100.695 650.645 Q104.269 653.88 110.438 653.88 L134.248 653.88 L134.248 660.839 L92.119 660.839 L92.119 653.88 L98.6641 653.88 Q94.8649 651.398 92.9841 648.05 Q91.1034 644.664 91.1034 640.263 Q91.1034 633.004 95.6172 629.28 Q100.093 625.556 108.82 625.556 Z" fill="#000000" fill-rule="nonzero" fill-opacity="1" /><path clip-path="url(#clip380)" d="M548.996 10.9999 Q542.792 21.648 539.783 32.0646 Q536.774 42.4813 536.774 53.1756 Q536.774 63.87 539.783 74.3792 Q542.839 84.8421 548.996 95.4439 L541.589 95.4439 Q534.644 84.5644 531.172 74.0552 Q527.746 63.546 527.746 53.1756 Q527.746 42.8516 531.172 32.3887 Q534.598 21.9258 541.589 10.9999 L548.996 10.9999 Z" fill="#000000" fill-rule="nonzero" fill-opacity="1" /><path clip-path="url(#clip380)" d="M588.996 23.0369 L576.311 57.4349 L601.727 57.4349 L588.996 23.0369 M583.718 13.824 L594.32 13.824 L620.662 82.944 L610.94 82.944 L604.644 65.2126 L573.487 65.2126 L567.19 82.944 L557.329 82.944 L583.718 13.824 Z" fill="#000000" fill-rule="nonzero" fill-opacity="1" /><path clip-path="url(#clip380)" d="M629.042 10.9999 L636.449 10.9999 Q643.394 21.9258 646.82 32.3887 Q650.292 42.8516 650.292 53.1756 Q650.292 63.546 646.82 74.0552 Q643.394 84.5644 636.449 95.4439 L629.042 95.4439 Q635.199 84.8421 638.209 74.3792 Q641.264 63.87 641.264 53.1756 Q641.264 42.4813 638.209 32.0646 Q635.199 21.648 629.042 10.9999 Z" fill="#000000" fill-rule="nonzero" fill-opacity="1" /><path clip-path="url(#clip380)" d="M739.319 16.0925 L739.319 25.2128 Q733.995 22.6665 729.273 21.4166 Q724.551 20.1666 720.153 20.1666 Q712.514 20.1666 708.347 23.1295 Q704.227 26.0925 704.227 31.5554 Q704.227 36.1387 706.958 38.4998 Q709.736 40.8146 717.421 42.2498 L723.069 43.4072 Q733.532 45.3979 738.486 50.4442 Q743.486 55.4441 743.486 63.87 Q743.486 73.9163 736.727 79.1014 Q730.014 84.2866 717.004 84.2866 Q712.097 84.2866 706.542 83.1755 Q701.032 82.0644 695.106 79.8885 L695.106 70.2589 Q700.801 73.4533 706.264 75.0737 Q711.727 76.694 717.004 76.694 Q725.014 76.694 729.365 73.5459 Q733.717 70.3978 733.717 64.5645 Q733.717 59.4719 730.569 56.6015 Q727.467 53.7312 720.338 52.296 L714.643 51.1849 Q704.18 49.1016 699.505 44.6572 Q694.829 40.2127 694.829 32.2961 Q694.829 23.1295 701.264 17.8518 Q707.745 12.574 719.088 12.574 Q723.949 12.574 728.995 13.4536 Q734.041 14.3333 739.319 16.0925 Z" fill="#000000" fill-rule="nonzero" fill-opacity="1" /><path clip-path="url(#clip380)" d="M765.939 75.1663 L765.939 102.666 L757.375 102.666 L757.375 31.0924 L765.939 31.0924 L765.939 38.9628 Q768.625 34.3331 772.699 32.1109 Q776.819 29.8424 782.513 29.8424 Q791.958 29.8424 797.837 37.3424 Q803.763 44.8424 803.763 57.0645 Q803.763 69.2867 797.837 76.7866 Q791.958 84.2866 782.513 84.2866 Q776.819 84.2866 772.699 82.0644 Q768.625 79.7959 765.939 75.1663 M794.921 57.0645 Q794.921 47.6664 791.032 42.3424 Q787.189 36.972 780.43 36.972 Q773.671 36.972 769.782 42.3424 Q765.939 47.6664 765.939 57.0645 Q765.939 66.4626 769.782 71.8329 Q773.671 77.157 780.43 77.157 Q787.189 77.157 791.032 71.8329 Q794.921 66.4626 794.921 57.0645 Z" fill="#000000" fill-rule="nonzero" fill-opacity="1" /><path clip-path="url(#clip380)" d="M841.448 56.8793 Q831.124 56.8793 827.143 59.2404 Q823.161 61.6015 823.161 67.2959 Q823.161 71.8329 826.124 74.5181 Q829.133 77.157 834.272 77.157 Q841.356 77.157 845.615 72.157 Q849.92 67.1108 849.92 58.7775 L849.92 56.8793 L841.448 56.8793 M858.439 53.3608 L858.439 82.944 L849.92 82.944 L849.92 75.0737 Q847.004 79.7959 842.652 82.0644 Q838.3 84.2866 832.004 84.2866 Q824.041 84.2866 819.319 79.8422 Q814.643 75.3514 814.643 67.8515 Q814.643 59.1015 820.476 54.6571 Q826.356 50.2127 837.976 50.2127 L849.92 50.2127 L849.92 49.3794 Q849.92 43.4998 846.032 40.3053 Q842.189 37.0646 835.198 37.0646 Q830.754 37.0646 826.541 38.1294 Q822.328 39.1942 818.439 41.3239 L818.439 33.4535 Q823.115 31.648 827.513 30.7684 Q831.911 29.8424 836.078 29.8424 Q847.328 29.8424 852.883 35.6757 Q858.439 41.509 858.439 53.3608 Z" fill="#000000" fill-rule="nonzero" fill-opacity="1" /><path clip-path="url(#clip380)" d="M884.411 16.3703 L884.411 31.0924 L901.957 31.0924 L901.957 37.7128 L884.411 37.7128 L884.411 65.8608 Q884.411 72.2033 886.124 74.0089 Q887.883 75.8144 893.207 75.8144 L901.957 75.8144 L901.957 82.944 L893.207 82.944 Q883.346 82.944 879.596 79.2866 Q875.846 75.5829 875.846 65.8608 L875.846 37.7128 L869.596 37.7128 L869.596 31.0924 L875.846 31.0924 L875.846 16.3703 L884.411 16.3703 Z" fill="#000000" fill-rule="nonzero" fill-opacity="1" /><path clip-path="url(#clip380)" d="M913.161 31.0924 L921.679 31.0924 L921.679 82.944 L913.161 82.944 L913.161 31.0924 M913.161 10.9073 L921.679 10.9073 L921.679 21.6943 L913.161 21.6943 L913.161 10.9073 Z" fill="#000000" fill-rule="nonzero" fill-opacity="1" /><path clip-path="url(#clip380)" d="M963.068 56.8793 Q952.744 56.8793 948.762 59.2404 Q944.781 61.6015 944.781 67.2959 Q944.781 71.8329 947.744 74.5181 Q950.753 77.157 955.892 77.157 Q962.975 77.157 967.235 72.157 Q971.54 67.1108 971.54 58.7775 L971.54 56.8793 L963.068 56.8793 M980.059 53.3608 L980.059 82.944 L971.54 82.944 L971.54 75.0737 Q968.623 79.7959 964.272 82.0644 Q959.92 84.2866 953.624 84.2866 Q945.661 84.2866 940.938 79.8422 Q936.263 75.3514 936.263 67.8515 Q936.263 59.1015 942.096 54.6571 Q947.975 50.2127 959.596 50.2127 L971.54 50.2127 L971.54 49.3794 Q971.54 43.4998 967.651 40.3053 Q963.809 37.0646 956.818 37.0646 Q952.374 37.0646 948.161 38.1294 Q943.948 39.1942 940.059 41.3239 L940.059 33.4535 Q944.735 31.648 949.133 30.7684 Q953.531 29.8424 957.698 29.8424 Q968.948 29.8424 974.503 35.6757 Q980.059 41.509 980.059 53.3608 Z" fill="#000000" fill-rule="nonzero" fill-opacity="1" /><path clip-path="url(#clip380)" d="M997.605 10.9073 L1006.12 10.9073 L1006.12 82.944 L997.605 82.944 L997.605 10.9073 Z" fill="#000000" fill-rule="nonzero" fill-opacity="1" /><path clip-path="url(#clip380)" d="M1077.56 23.0369 L1064.87 57.4349 L1090.29 57.4349 L1077.56 23.0369 M1072.28 13.824 L1082.88 13.824 L1109.22 82.944 L1099.5 82.944 L1093.21 65.2126 L1062.05 65.2126 L1055.75 82.944 L1045.89 82.944 L1072.28 13.824 Z" fill="#000000" fill-rule="nonzero" fill-opacity="1" /><path clip-path="url(#clip380)" d="M1152 32.6202 L1152 40.6757 Q1148.39 38.8239 1144.5 37.8979 Q1140.61 36.972 1136.45 36.972 Q1130.1 36.972 1126.91 38.9165 Q1123.76 40.8609 1123.76 44.7498 Q1123.76 47.7127 1126.03 49.4257 Q1128.3 51.0923 1135.15 52.6201 L1138.07 53.2682 Q1147.14 55.2127 1150.94 58.7775 Q1154.78 62.296 1154.78 68.6385 Q1154.78 75.8607 1149.04 80.0736 Q1143.34 84.2866 1133.34 84.2866 Q1129.18 84.2866 1124.64 83.4533 Q1120.15 82.6662 1115.15 81.0459 L1115.15 72.2496 Q1119.87 74.7033 1124.46 75.9533 Q1129.04 77.157 1133.53 77.157 Q1139.55 77.157 1142.79 75.12 Q1146.03 73.0366 1146.03 69.2867 Q1146.03 65.8145 1143.67 63.9626 Q1141.35 62.1108 1133.44 60.3978 L1130.47 59.7034 Q1122.56 58.0367 1119.04 54.6108 Q1115.52 51.1386 1115.52 45.1201 Q1115.52 37.8054 1120.71 33.8239 Q1125.89 29.8424 1135.43 29.8424 Q1140.15 29.8424 1144.32 30.5369 Q1148.48 31.2313 1152 32.6202 Z" fill="#000000" fill-rule="nonzero" fill-opacity="1" /><path clip-path="url(#clip380)" d="M1189.92 87.7588 Q1186.31 97.018 1182.88 99.8421 Q1179.46 102.666 1173.71 102.666 L1166.91 102.666 L1166.91 95.5365 L1171.91 95.5365 Q1175.43 95.5365 1177.37 93.8699 Q1179.32 92.2032 1181.68 85.9995 L1183.21 82.1107 L1162.23 31.0924 L1171.26 31.0924 L1187.46 71.6478 L1203.67 31.0924 L1212.7 31.0924 L1189.92 87.7588 Z" fill="#000000" fill-rule="nonzero" fill-opacity="1" /><path clip-path="url(#clip380)" d="M1264.83 41.0461 Q1268.02 35.3054 1272.46 32.5739 Q1276.91 29.8424 1282.93 29.8424 Q1291.03 29.8424 1295.43 35.5368 Q1299.83 41.185 1299.83 51.6479 L1299.83 82.944 L1291.26 82.944 L1291.26 51.9256 Q1291.26 44.472 1288.62 40.8609 Q1285.98 37.2498 1280.57 37.2498 Q1273.95 37.2498 1270.1 41.6479 Q1266.26 46.046 1266.26 53.6386 L1266.26 82.944 L1257.7 82.944 L1257.7 51.9256 Q1257.7 44.4257 1255.06 40.8609 Q1252.42 37.2498 1246.91 37.2498 Q1240.38 37.2498 1236.54 41.6942 Q1232.7 46.0923 1232.7 53.6386 L1232.7 82.944 L1224.13 82.944 L1224.13 31.0924 L1232.7 31.0924 L1232.7 39.1479 Q1235.61 34.3794 1239.69 32.1109 Q1243.76 29.8424 1249.36 29.8424 Q1255.01 29.8424 1258.95 32.7128 Q1262.93 35.5831 1264.83 41.0461 Z" fill="#000000" fill-rule="nonzero" fill-opacity="1" /><path clip-path="url(#clip380)" d="M1357.19 41.0461 Q1360.38 35.3054 1364.83 32.5739 Q1369.27 29.8424 1375.29 29.8424 Q1383.39 29.8424 1387.79 35.5368 Q1392.19 41.185 1392.19 51.6479 L1392.19 82.944 L1383.62 82.944 L1383.62 51.9256 Q1383.62 44.472 1380.98 40.8609 Q1378.34 37.2498 1372.93 37.2498 Q1366.31 37.2498 1362.46 41.6479 Q1358.62 46.046 1358.62 53.6386 L1358.62 82.944 L1350.06 82.944 L1350.06 51.9256 Q1350.06 44.4257 1347.42 40.8609 Q1344.78 37.2498 1339.27 37.2498 Q1332.74 37.2498 1328.9 41.6942 Q1325.06 46.0923 1325.06 53.6386 L1325.06 82.944 L1316.49 82.944 L1316.49 31.0924 L1325.06 31.0924 L1325.06 39.1479 Q1327.97 34.3794 1332.05 32.1109 Q1336.12 29.8424 1341.72 29.8424 Q1347.37 29.8424 1351.31 32.7128 Q1355.29 35.5831 1357.19 41.0461 Z" fill="#000000" fill-rule="nonzero" fill-opacity="1" /><path clip-path="url(#clip380)" d="M1453.53 54.8886 L1453.53 59.0552 L1414.36 59.0552 Q1414.92 67.8515 1419.64 72.4811 Q1424.41 77.0644 1432.88 77.0644 Q1437.79 77.0644 1442.37 75.8607 Q1447 74.657 1451.54 72.2496 L1451.54 80.3051 Q1446.95 82.2496 1442.14 83.2681 Q1437.32 84.2866 1432.37 84.2866 Q1419.96 84.2866 1412.7 77.0644 Q1405.47 69.8422 1405.47 57.5275 Q1405.47 44.7961 1412.32 37.3424 Q1419.22 29.8424 1430.89 29.8424 Q1441.35 29.8424 1447.42 36.6017 Q1453.53 43.3146 1453.53 54.8886 M1445.01 52.3886 Q1444.92 45.3979 1441.07 41.2313 Q1437.28 37.0646 1430.98 37.0646 Q1423.85 37.0646 1419.55 41.0924 Q1415.29 45.1201 1414.64 52.4349 L1445.01 52.3886 Z" fill="#000000" fill-rule="nonzero" fill-opacity="1" /><path clip-path="url(#clip380)" d="M1475.94 16.3703 L1475.94 31.0924 L1493.48 31.0924 L1493.48 37.7128 L1475.94 37.7128 L1475.94 65.8608 Q1475.94 72.2033 1477.65 74.0089 Q1479.41 75.8144 1484.73 75.8144 L1493.48 75.8144 L1493.48 82.944 L1484.73 82.944 Q1474.87 82.944 1471.12 79.2866 Q1467.37 75.5829 1467.37 65.8608 L1467.37 37.7128 L1461.12 37.7128 L1461.12 31.0924 L1467.37 31.0924 L1467.37 16.3703 L1475.94 16.3703 Z" fill="#000000" fill-rule="nonzero" fill-opacity="1" /><path clip-path="url(#clip380)" d="M1534.73 39.0553 Q1533.3 38.222 1531.58 37.8516 Q1529.92 37.435 1527.88 37.435 Q1520.66 37.435 1516.77 42.1572 Q1512.93 46.8331 1512.93 55.6293 L1512.93 82.944 L1504.36 82.944 L1504.36 31.0924 L1512.93 31.0924 L1512.93 39.1479 Q1515.61 34.4257 1519.92 32.1572 Q1524.22 29.8424 1530.38 29.8424 Q1531.26 29.8424 1532.32 29.9813 Q1533.39 30.0739 1534.69 30.3054 L1534.73 39.0553 Z" fill="#000000" fill-rule="nonzero" fill-opacity="1" /><path clip-path="url(#clip380)" d="M1565.24 87.7588 Q1561.63 97.018 1558.2 99.8421 Q1554.78 102.666 1549.04 102.666 L1542.23 102.666 L1542.23 95.5365 L1547.23 95.5365 Q1550.75 95.5365 1552.69 93.8699 Q1554.64 92.2032 1557 85.9995 L1558.53 82.1107 L1537.56 31.0924 L1546.58 31.0924 L1562.79 71.6478 L1578.99 31.0924 L1588.02 31.0924 L1565.24 87.7588 Z" fill="#000000" fill-rule="nonzero" fill-opacity="1" /><circle clip-path="url(#clip382)" cx="522.622" cy="1707.34" r="18" fill="#4482b5" fill-rule="evenodd" fill-opacity="0.6" stroke="none"/>
<circle clip-path="url(#clip382)" cx="495.641" cy="1696.46" r="18" fill="#4482b5" fill-rule="evenodd" fill-opacity="0.6" stroke="none"/>
<circle clip-path="url(#clip382)" cx="455.643" cy="1610.4" r="18" fill="#4482b5" fill-rule="evenodd" fill-opacity="0.6" stroke="none"/>
<circle clip-path="url(#clip382)" cx="470.155" cy="1674.44" r="18" fill="#4482b5" fill-rule="evenodd" fill-opacity="0.6" stroke="none"/>
<circle clip-path="url(#clip382)" cx="443.52" cy="1683.38" r="18" fill="#4482b5" fill-rule="evenodd" fill-opacity="0.6" stroke="none"/>
<circle clip-path="url(#clip382)" cx="487.325" cy="1679.47" r="18" fill="#4482b5" fill-rule="evenodd" fill-opacity="0.6" stroke="none"/>
<circle clip-path="url(#clip382)" cx="421.534" cy="1689.11" r="18" fill="#4482b5" fill-rule="evenodd" fill-opacity="0.6" stroke="none"/>
<circle clip-path="url(#clip382)" cx="513.591" cy="1397.7" r="18" fill="#4482b5" fill-rule="evenodd" fill-opacity="0.6" stroke="none"/>
<circle clip-path="url(#clip382)" cx="477.48" cy="1573.57" r="18" fill="#4482b5" fill-rule="evenodd" fill-opacity="0.6" stroke="none"/>
<circle clip-path="url(#clip382)" cx="504.907" cy="1645.38" r="18" fill="#4482b5" fill-rule="evenodd" fill-opacity="0.6" stroke="none"/>
<circle clip-path="url(#clip382)" cx="432.828" cy="1148.55" r="18" fill="#4482b5" fill-rule="evenodd" fill-opacity="0.6" stroke="none"/>
<circle clip-path="url(#clip382)" cx="487.72" cy="1039.2" r="18" fill="#4482b5" fill-rule="evenodd" fill-opacity="0.6" stroke="none"/>
<circle clip-path="url(#clip382)" cx="455.685" cy="1416.27" r="18" fill="#4482b5" fill-rule="evenodd" fill-opacity="0.6" stroke="none"/>
<circle clip-path="url(#clip382)" cx="413.236" cy="1727.38" r="18" fill="#4482b5" fill-rule="evenodd" fill-opacity="0.6" stroke="none"/>
<circle clip-path="url(#clip382)" cx="505.867" cy="1673.79" r="18" fill="#4482b5" fill-rule="evenodd" fill-opacity="0.6" stroke="none"/>
<circle clip-path="url(#clip382)" cx="454.98" cy="1425.42" r="18" fill="#4482b5" fill-rule="evenodd" fill-opacity="0.6" stroke="none"/>
<circle clip-path="url(#clip382)" cx="430.615" cy="1649.94" r="18" fill="#4482b5" fill-rule="evenodd" fill-opacity="0.6" stroke="none"/>
<circle clip-path="url(#clip382)" cx="458.507" cy="1684.35" r="18" fill="#4482b5" fill-rule="evenodd" fill-opacity="0.6" stroke="none"/>
<circle clip-path="url(#clip382)" cx="410.7" cy="1631.02" r="18" fill="#4482b5" fill-rule="evenodd" fill-opacity="0.6" stroke="none"/>
<circle clip-path="url(#clip382)" cx="525.24" cy="1709.22" r="18" fill="#4482b5" fill-rule="evenodd" fill-opacity="0.6" stroke="none"/>
<circle clip-path="url(#clip382)" cx="415.986" cy="1726.4" r="18" fill="#4482b5" fill-rule="evenodd" fill-opacity="0.6" stroke="none"/>
<circle clip-path="url(#clip382)" cx="439.457" cy="1693.01" r="18" fill="#4482b5" fill-rule="evenodd" fill-opacity="0.6" stroke="none"/>
<circle clip-path="url(#clip382)" cx="516.509" cy="1641.05" r="18" fill="#4482b5" fill-rule="evenodd" fill-opacity="0.6" stroke="none"/>
<circle clip-path="url(#clip382)" cx="429.848" cy="1600.42" r="18" fill="#4482b5" fill-rule="evenodd" fill-opacity="0.6" stroke="none"/>
<circle clip-path="url(#clip382)" cx="444.05" cy="1718.57" r="18" fill="#4482b5" fill-rule="evenodd" fill-opacity="0.6" stroke="none"/>
<circle clip-path="url(#clip382)" cx="467.814" cy="1647.34" r="18" fill="#4482b5" fill-rule="evenodd" fill-opacity="0.6" stroke="none"/>
<circle clip-path="url(#clip382)" cx="473.358" cy="1643.51" r="18" fill="#4482b5" fill-rule="evenodd" fill-opacity="0.6" stroke="none"/>
<circle clip-path="url(#clip382)" cx="509.609" cy="1687.99" r="18" fill="#4482b5" fill-rule="evenodd" fill-opacity="0.6" stroke="none"/>
<circle clip-path="url(#clip382)" cx="431.21" cy="1531.97" r="18" fill="#4482b5" fill-rule="evenodd" fill-opacity="0.6" stroke="none"/>
<circle clip-path="url(#clip382)" cx="512.253" cy="1550.57" r="18" fill="#4482b5" fill-rule="evenodd" fill-opacity="0.6" stroke="none"/>
<circle clip-path="url(#clip382)" cx="460.304" cy="1713.65" r="18" fill="#4482b5" fill-rule="evenodd" fill-opacity="0.6" stroke="none"/>
<polyline clip-path="url(#clip382)" style="stroke:#000000; stroke-linecap:round; stroke-linejoin:round; stroke-width:12; stroke-opacity:1; fill:none" points="348.301,1649.94 584.828,1649.94 "/>
<polyline clip-path="url(#clip382)" style="stroke:#000000; stroke-linecap:round; stroke-linejoin:round; stroke-width:8; stroke-opacity:1; fill:none" points="466.564,1691.06 466.564,1587 "/>
<circle clip-path="url(#clip382)" cx="1072.3" cy="1556" r="18" fill="#ff8c00" fill-rule="evenodd" fill-opacity="0.6" stroke="none"/>
<circle clip-path="url(#clip382)" cx="1051.57" cy="1606.61" r="18" fill="#ff8c00" fill-rule="evenodd" fill-opacity="0.6" stroke="none"/>
<circle clip-path="url(#clip382)" cx="1048.03" cy="1181.05" r="18" fill="#ff8c00" fill-rule="evenodd" fill-opacity="0.6" stroke="none"/>
<circle clip-path="url(#clip382)" cx="1111.87" cy="748.573" r="18" fill="#ff8c00" fill-rule="evenodd" fill-opacity="0.6" stroke="none"/>
<circle clip-path="url(#clip382)" cx="1051.03" cy="1542.47" r="18" fill="#ff8c00" fill-rule="evenodd" fill-opacity="0.6" stroke="none"/>
<circle clip-path="url(#clip382)" cx="1046.51" cy="1515.15" r="18" fill="#ff8c00" fill-rule="evenodd" fill-opacity="0.6" stroke="none"/>
<circle clip-path="url(#clip382)" cx="1098.55" cy="1231.83" r="18" fill="#ff8c00" fill-rule="evenodd" fill-opacity="0.6" stroke="none"/>
<circle clip-path="url(#clip382)" cx="1053.88" cy="1389.58" r="18" fill="#ff8c00" fill-rule="evenodd" fill-opacity="0.6" stroke="none"/>
<circle clip-path="url(#clip382)" cx="1003.02" cy="1504.51" r="18" fill="#ff8c00" fill-rule="evenodd" fill-opacity="0.6" stroke="none"/>
<circle clip-path="url(#clip382)" cx="1084.72" cy="1546.26" r="18" fill="#ff8c00" fill-rule="evenodd" fill-opacity="0.6" stroke="none"/>
<circle clip-path="url(#clip382)" cx="1055.28" cy="1627.89" r="18" fill="#ff8c00" fill-rule="evenodd" fill-opacity="0.6" stroke="none"/>
<circle clip-path="url(#clip382)" cx="1020.18" cy="1567.09" r="18" fill="#ff8c00" fill-rule="evenodd" fill-opacity="0.6" stroke="none"/>
<circle clip-path="url(#clip382)" cx="1066.44" cy="1284.66" r="18" fill="#ff8c00" fill-rule="evenodd" fill-opacity="0.6" stroke="none"/>
<circle clip-path="url(#clip382)" cx="1002.47" cy="1281.63" r="18" fill="#ff8c00" fill-rule="evenodd" fill-opacity="0.6" stroke="none"/>
<circle clip-path="url(#clip382)" cx="1092.26" cy="1669.33" r="18" fill="#ff8c00" fill-rule="evenodd" fill-opacity="0.6" stroke="none"/>
<circle clip-path="url(#clip382)" cx="1058.26" cy="1399.55" r="18" fill="#ff8c00" fill-rule="evenodd" fill-opacity="0.6" stroke="none"/>
<circle clip-path="url(#clip382)" cx="1097.02" cy="1678.36" r="18" fill="#ff8c00" fill-rule="evenodd" fill-opacity="0.6" stroke="none"/>
<circle clip-path="url(#clip382)" cx="1015.41" cy="1517.14" r="18" fill="#ff8c00" fill-rule="evenodd" fill-opacity="0.6" stroke="none"/>
<circle clip-path="url(#clip382)" cx="1016.93" cy="1550.29" r="18" fill="#ff8c00" fill-rule="evenodd" fill-opacity="0.6" stroke="none"/>
<circle clip-path="url(#clip382)" cx="1067.01" cy="853.933" r="18" fill="#ff8c00" fill-rule="evenodd" fill-opacity="0.6" stroke="none"/>
<circle clip-path="url(#clip382)" cx="1005.18" cy="1176.43" r="18" fill="#ff8c00" fill-rule="evenodd" fill-opacity="0.6" stroke="none"/>
<circle clip-path="url(#clip382)" cx="1047.85" cy="1541.3" r="18" fill="#ff8c00" fill-rule="evenodd" fill-opacity="0.6" stroke="none"/>
<circle clip-path="url(#clip382)" cx="1069.42" cy="1239.09" r="18" fill="#ff8c00" fill-rule="evenodd" fill-opacity="0.6" stroke="none"/>
<circle clip-path="url(#clip382)" cx="1038.14" cy="1488.8" r="18" fill="#ff8c00" fill-rule="evenodd" fill-opacity="0.6" stroke="none"/>
<circle clip-path="url(#clip382)" cx="1091.82" cy="1699.64" r="18" fill="#ff8c00" fill-rule="evenodd" fill-opacity="0.6" stroke="none"/>
<circle clip-path="url(#clip382)" cx="1098.17" cy="1668.82" r="18" fill="#ff8c00" fill-rule="evenodd" fill-opacity="0.6" stroke="none"/>
<circle clip-path="url(#clip382)" cx="1049.83" cy="1417.18" r="18" fill="#ff8c00" fill-rule="evenodd" fill-opacity="0.6" stroke="none"/>
<circle clip-path="url(#clip382)" cx="1107.37" cy="1641.2" r="18" fill="#ff8c00" fill-rule="evenodd" fill-opacity="0.6" stroke="none"/>
<circle clip-path="url(#clip382)" cx="1039.83" cy="1670.3" r="18" fill="#ff8c00" fill-rule="evenodd" fill-opacity="0.6" stroke="none"/>
<circle clip-path="url(#clip382)" cx="1034.31" cy="1183.18" r="18" fill="#ff8c00" fill-rule="evenodd" fill-opacity="0.6" stroke="none"/>
<circle clip-path="url(#clip382)" cx="1047.81" cy="855.564" r="18" fill="#ff8c00" fill-rule="evenodd" fill-opacity="0.6" stroke="none"/>
<circle clip-path="url(#clip382)" cx="1012.28" cy="1491.46" r="18" fill="#ff8c00" fill-rule="evenodd" fill-opacity="0.6" stroke="none"/>
<circle clip-path="url(#clip382)" cx="1102.02" cy="1454.62" r="18" fill="#ff8c00" fill-rule="evenodd" fill-opacity="0.6" stroke="none"/>
<circle clip-path="url(#clip382)" cx="1033.7" cy="1364.34" r="18" fill="#ff8c00" fill-rule="evenodd" fill-opacity="0.6" stroke="none"/>
<circle clip-path="url(#clip382)" cx="1105.19" cy="1150.78" r="18" fill="#ff8c00" fill-rule="evenodd" fill-opacity="0.6" stroke="none"/>
<circle clip-path="url(#clip382)" cx="1116.24" cy="1592.16" r="18" fill="#ff8c00" fill-rule="evenodd" fill-opacity="0.6" stroke="none"/>
<circle clip-path="url(#clip382)" cx="1039.29" cy="1672.88" r="18" fill="#ff8c00" fill-rule="evenodd" fill-opacity="0.6" stroke="none"/>
<circle clip-path="url(#clip382)" cx="1012.99" cy="1400.13" r="18" fill="#ff8c00" fill-rule="evenodd" fill-opacity="0.6" stroke="none"/>
<circle clip-path="url(#clip382)" cx="1005.52" cy="1402.38" r="18" fill="#ff8c00" fill-rule="evenodd" fill-opacity="0.6" stroke="none"/>
<circle clip-path="url(#clip382)" cx="1036.74" cy="1156.23" r="18" fill="#ff8c00" fill-rule="evenodd" fill-opacity="0.6" stroke="none"/>
<circle clip-path="url(#clip382)" cx="1026.66" cy="1721.3" r="18" fill="#ff8c00" fill-rule="evenodd" fill-opacity="0.6" stroke="none"/>
<circle clip-path="url(#clip382)" cx="1002.32" cy="1626.67" r="18" fill="#ff8c00" fill-rule="evenodd" fill-opacity="0.6" stroke="none"/>
<circle clip-path="url(#clip382)" cx="1046.87" cy="1588.18" r="18" fill="#ff8c00" fill-rule="evenodd" fill-opacity="0.6" stroke="none"/>
<circle clip-path="url(#clip382)" cx="1078.14" cy="1203.55" r="18" fill="#ff8c00" fill-rule="evenodd" fill-opacity="0.6" stroke="none"/>
<circle clip-path="url(#clip382)" cx="1105.39" cy="1682" r="18" fill="#ff8c00" fill-rule="evenodd" fill-opacity="0.6" stroke="none"/>
<circle clip-path="url(#clip382)" cx="1115.43" cy="1553.83" r="18" fill="#ff8c00" fill-rule="evenodd" fill-opacity="0.6" stroke="none"/>
<circle clip-path="url(#clip382)" cx="1073.29" cy="1705.75" r="18" fill="#ff8c00" fill-rule="evenodd" fill-opacity="0.6" stroke="none"/>
<circle clip-path="url(#clip382)" cx="1094.66" cy="1368.81" r="18" fill="#ff8c00" fill-rule="evenodd" fill-opacity="0.6" stroke="none"/>
<circle clip-path="url(#clip382)" cx="1027.4" cy="1692.71" r="18" fill="#ff8c00" fill-rule="evenodd" fill-opacity="0.6" stroke="none"/>
<circle clip-path="url(#clip382)" cx="1059.48" cy="1493.4" r="18" fill="#ff8c00" fill-rule="evenodd" fill-opacity="0.6" stroke="none"/>
<circle clip-path="url(#clip382)" cx="1036.81" cy="1456.83" r="18" fill="#ff8c00" fill-rule="evenodd" fill-opacity="0.6" stroke="none"/>
<circle clip-path="url(#clip382)" cx="1046.43" cy="1286.55" r="18" fill="#ff8c00" fill-rule="evenodd" fill-opacity="0.6" stroke="none"/>
<circle clip-path="url(#clip382)" cx="1103.67" cy="1571.31" r="18" fill="#ff8c00" fill-rule="evenodd" fill-opacity="0.6" stroke="none"/>
<circle clip-path="url(#clip382)" cx="1009.32" cy="1356.96" r="18" fill="#ff8c00" fill-rule="evenodd" fill-opacity="0.6" stroke="none"/>
<circle clip-path="url(#clip382)" cx="1077.72" cy="1049.92" r="18" fill="#ff8c00" fill-rule="evenodd" fill-opacity="0.6" stroke="none"/>
<circle clip-path="url(#clip382)" cx="1021.71" cy="787.232" r="18" fill="#ff8c00" fill-rule="evenodd" fill-opacity="0.6" stroke="none"/>
<circle clip-path="url(#clip382)" cx="1035.14" cy="1706.44" r="18" fill="#ff8c00" fill-rule="evenodd" fill-opacity="0.6" stroke="none"/>
<circle clip-path="url(#clip382)" cx="1052.46" cy="1622.47" r="18" fill="#ff8c00" fill-rule="evenodd" fill-opacity="0.6" stroke="none"/>
<circle clip-path="url(#clip382)" cx="1038.56" cy="1641.9" r="18" fill="#ff8c00" fill-rule="evenodd" fill-opacity="0.6" stroke="none"/>
<circle clip-path="url(#clip382)" cx="1000.41" cy="1161.06" r="18" fill="#ff8c00" fill-rule="evenodd" fill-opacity="0.6" stroke="none"/>
<circle clip-path="url(#clip382)" cx="1022.31" cy="1048.13" r="18" fill="#ff8c00" fill-rule="evenodd" fill-opacity="0.6" stroke="none"/>
<circle clip-path="url(#clip382)" cx="1066.2" cy="1318.63" r="18" fill="#ff8c00" fill-rule="evenodd" fill-opacity="0.6" stroke="none"/>
<circle clip-path="url(#clip382)" cx="1071.18" cy="1258.28" r="18" fill="#ff8c00" fill-rule="evenodd" fill-opacity="0.6" stroke="none"/>
<circle clip-path="url(#clip382)" cx="1093.35" cy="1493.64" r="18" fill="#ff8c00" fill-rule="evenodd" fill-opacity="0.6" stroke="none"/>
<circle clip-path="url(#clip382)" cx="1014.71" cy="1343.97" r="18" fill="#ff8c00" fill-rule="evenodd" fill-opacity="0.6" stroke="none"/>
<polyline clip-path="url(#clip382)" style="stroke:#000000; stroke-linecap:round; stroke-linejoin:round; stroke-width:12; stroke-opacity:1; fill:none" points="939.619,1491.46 1176.15,1491.46 "/>
<polyline clip-path="url(#clip382)" style="stroke:#000000; stroke-linecap:round; stroke-linejoin:round; stroke-width:8; stroke-opacity:1; fill:none" points="1057.88,1606.61 1057.88,1281.63 "/>
<circle clip-path="url(#clip382)" cx="1614.05" cy="1391.67" r="18" fill="#db143d" fill-rule="evenodd" fill-opacity="0.6" stroke="none"/>
<circle clip-path="url(#clip382)" cx="1656.97" cy="1033.71" r="18" fill="#db143d" fill-rule="evenodd" fill-opacity="0.6" stroke="none"/>
<circle clip-path="url(#clip382)" cx="1698.38" cy="1192.79" r="18" fill="#db143d" fill-rule="evenodd" fill-opacity="0.6" stroke="none"/>
<circle clip-path="url(#clip382)" cx="1597.22" cy="1004.88" r="18" fill="#db143d" fill-rule="evenodd" fill-opacity="0.6" stroke="none"/>
<circle clip-path="url(#clip382)" cx="1599.13" cy="1453.8" r="18" fill="#db143d" fill-rule="evenodd" fill-opacity="0.6" stroke="none"/>
<circle clip-path="url(#clip382)" cx="1593.92" cy="1519.02" r="18" fill="#db143d" fill-rule="evenodd" fill-opacity="0.6" stroke="none"/>
<circle clip-path="url(#clip382)" cx="1631.44" cy="1482.49" r="18" fill="#db143d" fill-rule="evenodd" fill-opacity="0.6" stroke="none"/>
<circle clip-path="url(#clip382)" cx="1690.76" cy="1705.51" r="18" fill="#db143d" fill-rule="evenodd" fill-opacity="0.6" stroke="none"/>
<circle clip-path="url(#clip382)" cx="1696.46" cy="879.649" r="18" fill="#db143d" fill-rule="evenodd" fill-opacity="0.6" stroke="none"/>
<circle clip-path="url(#clip382)" cx="1646.59" cy="1586.13" r="18" fill="#db143d" fill-rule="evenodd" fill-opacity="0.6" stroke="none"/>
<circle clip-path="url(#clip382)" cx="1624.51" cy="1535.34" r="18" fill="#db143d" fill-rule="evenodd" fill-opacity="0.6" stroke="none"/>
<circle clip-path="url(#clip382)" cx="1611.75" cy="1599.04" r="18" fill="#db143d" fill-rule="evenodd" fill-opacity="0.6" stroke="none"/>
<circle clip-path="url(#clip382)" cx="1630.65" cy="795.701" r="18" fill="#db143d" fill-rule="evenodd" fill-opacity="0.6" stroke="none"/>
<circle clip-path="url(#clip382)" cx="1642.76" cy="1226.29" r="18" fill="#db143d" fill-rule="evenodd" fill-opacity="0.6" stroke="none"/>
<circle clip-path="url(#clip382)" cx="1596.55" cy="818.002" r="18" fill="#db143d" fill-rule="evenodd" fill-opacity="0.6" stroke="none"/>
<circle clip-path="url(#clip382)" cx="1631.26" cy="663.813" r="18" fill="#db143d" fill-rule="evenodd" fill-opacity="0.6" stroke="none"/>
<circle clip-path="url(#clip382)" cx="1661.08" cy="859.821" r="18" fill="#db143d" fill-rule="evenodd" fill-opacity="0.6" stroke="none"/>
<circle clip-path="url(#clip382)" cx="1659.17" cy="1194.91" r="18" fill="#db143d" fill-rule="evenodd" fill-opacity="0.6" stroke="none"/>
<circle clip-path="url(#clip382)" cx="1689.54" cy="907.954" r="18" fill="#db143d" fill-rule="evenodd" fill-opacity="0.6" stroke="none"/>
<circle clip-path="url(#clip382)" cx="1698.3" cy="1716.51" r="18" fill="#db143d" fill-rule="evenodd" fill-opacity="0.6" stroke="none"/>
<circle clip-path="url(#clip382)" cx="1662.14" cy="1560.07" r="18" fill="#db143d" fill-rule="evenodd" fill-opacity="0.6" stroke="none"/>
<circle clip-path="url(#clip382)" cx="1663.37" cy="1701.86" r="18" fill="#db143d" fill-rule="evenodd" fill-opacity="0.6" stroke="none"/>
<circle clip-path="url(#clip382)" cx="1599.91" cy="1642.25" r="18" fill="#db143d" fill-rule="evenodd" fill-opacity="0.6" stroke="none"/>
<circle clip-path="url(#clip382)" cx="1659.7" cy="1536.84" r="18" fill="#db143d" fill-rule="evenodd" fill-opacity="0.6" stroke="none"/>
<circle clip-path="url(#clip382)" cx="1657.86" cy="1439.06" r="18" fill="#db143d" fill-rule="evenodd" fill-opacity="0.6" stroke="none"/>
<circle clip-path="url(#clip382)" cx="1692" cy="268.825" r="18" fill="#db143d" fill-rule="evenodd" fill-opacity="0.6" stroke="none"/>
<circle clip-path="url(#clip382)" cx="1658.89" cy="607.484" r="18" fill="#db143d" fill-rule="evenodd" fill-opacity="0.6" stroke="none"/>
<circle clip-path="url(#clip382)" cx="1703.61" cy="1550.04" r="18" fill="#db143d" fill-rule="evenodd" fill-opacity="0.6" stroke="none"/>
<circle clip-path="url(#clip382)" cx="1633.92" cy="1724.8" r="18" fill="#db143d" fill-rule="evenodd" fill-opacity="0.6" stroke="none"/>
<circle clip-path="url(#clip382)" cx="1697.08" cy="1585.23" r="18" fill="#db143d" fill-rule="evenodd" fill-opacity="0.6" stroke="none"/>
<circle clip-path="url(#clip382)" cx="1666.57" cy="1695.12" r="18" fill="#db143d" fill-rule="evenodd" fill-opacity="0.6" stroke="none"/>
<circle clip-path="url(#clip382)" cx="1635.74" cy="373.412" r="18" fill="#db143d" fill-rule="evenodd" fill-opacity="0.6" stroke="none"/>
<circle clip-path="url(#clip382)" cx="1647.07" cy="1417.52" r="18" fill="#db143d" fill-rule="evenodd" fill-opacity="0.6" stroke="none"/>
<circle clip-path="url(#clip382)" cx="1594.09" cy="387.858" r="18" fill="#db143d" fill-rule="evenodd" fill-opacity="0.6" stroke="none"/>
<circle clip-path="url(#clip382)" cx="1594.93" cy="1588.06" r="18" fill="#db143d" fill-rule="evenodd" fill-opacity="0.6" stroke="none"/>
<circle clip-path="url(#clip382)" cx="1616.57" cy="1579.24" r="18" fill="#db143d" fill-rule="evenodd" fill-opacity="0.6" stroke="none"/>
<circle clip-path="url(#clip382)" cx="1651.93" cy="815.927" r="18" fill="#db143d" fill-rule="evenodd" fill-opacity="0.6" stroke="none"/>
<circle clip-path="url(#clip382)" cx="1602.03" cy="925.678" r="18" fill="#db143d" fill-rule="evenodd" fill-opacity="0.6" stroke="none"/>
<circle clip-path="url(#clip382)" cx="1621.66" cy="1063.64" r="18" fill="#db143d" fill-rule="evenodd" fill-opacity="0.6" stroke="none"/>
<circle clip-path="url(#clip382)" cx="1667.22" cy="1367.38" r="18" fill="#db143d" fill-rule="evenodd" fill-opacity="0.6" stroke="none"/>
<circle clip-path="url(#clip382)" cx="1703.77" cy="1514.52" r="18" fill="#db143d" fill-rule="evenodd" fill-opacity="0.6" stroke="none"/>
<circle clip-path="url(#clip382)" cx="1682.42" cy="1435.17" r="18" fill="#db143d" fill-rule="evenodd" fill-opacity="0.6" stroke="none"/>
<circle clip-path="url(#clip382)" cx="1645.38" cy="1067.42" r="18" fill="#db143d" fill-rule="evenodd" fill-opacity="0.6" stroke="none"/>
<circle clip-path="url(#clip382)" cx="1693.22" cy="760.865" r="18" fill="#db143d" fill-rule="evenodd" fill-opacity="0.6" stroke="none"/>
<circle clip-path="url(#clip382)" cx="1642.06" cy="1708.3" r="18" fill="#db143d" fill-rule="evenodd" fill-opacity="0.6" stroke="none"/>
<circle clip-path="url(#clip382)" cx="1591.41" cy="570.85" r="18" fill="#db143d" fill-rule="evenodd" fill-opacity="0.6" stroke="none"/>
<circle clip-path="url(#clip382)" cx="1651.4" cy="1078.53" r="18" fill="#db143d" fill-rule="evenodd" fill-opacity="0.6" stroke="none"/>
<circle clip-path="url(#clip382)" cx="1636.02" cy="1093.21" r="18" fill="#db143d" fill-rule="evenodd" fill-opacity="0.6" stroke="none"/>
<circle clip-path="url(#clip382)" cx="1646.06" cy="1470.08" r="18" fill="#db143d" fill-rule="evenodd" fill-opacity="0.6" stroke="none"/>
<circle clip-path="url(#clip382)" cx="1599.36" cy="1486.83" r="18" fill="#db143d" fill-rule="evenodd" fill-opacity="0.6" stroke="none"/>
<circle clip-path="url(#clip382)" cx="1703.7" cy="1719.11" r="18" fill="#db143d" fill-rule="evenodd" fill-opacity="0.6" stroke="none"/>
<circle clip-path="url(#clip382)" cx="1678.44" cy="1709.65" r="18" fill="#db143d" fill-rule="evenodd" fill-opacity="0.6" stroke="none"/>
<circle clip-path="url(#clip382)" cx="1618.81" cy="1723.43" r="18" fill="#db143d" fill-rule="evenodd" fill-opacity="0.6" stroke="none"/>
<circle clip-path="url(#clip382)" cx="1667.44" cy="1392" r="18" fill="#db143d" fill-rule="evenodd" fill-opacity="0.6" stroke="none"/>
<polyline clip-path="url(#clip382)" style="stroke:#000000; stroke-linecap:round; stroke-linejoin:round; stroke-width:12; stroke-opacity:1; fill:none" points="1530.94,1426.34 1767.46,1426.34 "/>
<polyline clip-path="url(#clip382)" style="stroke:#000000; stroke-linecap:round; stroke-linejoin:round; stroke-width:8; stroke-opacity:1; fill:none" points="1649.2,1583.73 1649.2,945.479 "/>
<path clip-path="url(#clip380)" d="M2338.21 1771.13 L3842.52 1771.13 L3842.52 225.068 L2338.21 225.068  Z" fill="#ffffff" fill-rule="evenodd" fill-opacity="1"/>
<defs>
  <clipPath id="clip383">
    <rect x="2338" y="225" width="1505" height="1547"/>
  </clipPath>
</defs>
<polyline clip-path="url(#clip383)" style="stroke:#000000; stroke-linecap:round; stroke-linejoin:round; stroke-width:2; stroke-opacity:0.1; fill:none" points="2499.05,1771.13 2499.05,225.068 "/>
<polyline clip-path="url(#clip383)" style="stroke:#000000; stroke-linecap:round; stroke-linejoin:round; stroke-width:2; stroke-opacity:0.1; fill:none" points="3090.36,1771.13 3090.36,225.068 "/>
<polyline clip-path="url(#clip383)" style="stroke:#000000; stroke-linecap:round; stroke-linejoin:round; stroke-width:2; stroke-opacity:0.1; fill:none" points="3681.68,1771.13 3681.68,225.068 "/>
<polyline clip-path="url(#clip383)" style="stroke:#000000; stroke-linecap:round; stroke-linejoin:round; stroke-width:2; stroke-opacity:0.1; fill:none" points="2338.21,1199.35 3842.52,1199.35 "/>
<polyline clip-path="url(#clip383)" style="stroke:#000000; stroke-linecap:round; stroke-linejoin:round; stroke-width:2; stroke-opacity:0.1; fill:none" points="2338.21,354.999 3842.52,354.999 "/>
<polyline clip-path="url(#clip380)" style="stroke:#000000; stroke-linecap:round; stroke-linejoin:round; stroke-width:4; stroke-opacity:1; fill:none" points="2338.21,1771.13 3842.52,1771.13 "/>
<polyline clip-path="url(#clip380)" style="stroke:#000000; stroke-linecap:round; stroke-linejoin:round; stroke-width:4; stroke-opacity:1; fill:none" points="2499.05,1771.13 2499.05,1752.23 "/>
<polyline clip-path="url(#clip380)" style="stroke:#000000; stroke-linecap:round; stroke-linejoin:round; stroke-width:4; stroke-opacity:1; fill:none" points="3090.36,1771.13 3090.36,1752.23 "/>
<polyline clip-path="url(#clip380)" style="stroke:#000000; stroke-linecap:round; stroke-linejoin:round; stroke-width:4; stroke-opacity:1; fill:none" points="3681.68,1771.13 3681.68,1752.23 "/>
<path clip-path="url(#clip380)" d="M2478.72 1821.35 L2470 1844.99 L2487.48 1844.99 L2478.72 1821.35 M2475.09 1815.01 L2482.38 1815.01 L2500.49 1862.53 L2493.81 1862.53 L2489.48 1850.34 L2468.06 1850.34 L2463.73 1862.53 L2456.95 1862.53 L2475.09 1815.01 Z" fill="#000000" fill-rule="nonzero" fill-opacity="1" /><path clip-path="url(#clip380)" d="M2513.86 1839.84 L2513.86 1857.25 L2524.17 1857.25 Q2529.36 1857.25 2531.84 1855.12 Q2534.36 1852.95 2534.36 1848.53 Q2534.36 1844.07 2531.84 1841.97 Q2529.36 1839.84 2524.17 1839.84 L2513.86 1839.84 M2513.86 1820.3 L2513.86 1834.62 L2523.38 1834.62 Q2528.09 1834.62 2530.38 1832.87 Q2532.7 1831.09 2532.7 1827.46 Q2532.7 1823.86 2530.38 1822.08 Q2528.09 1820.3 2523.38 1820.3 L2513.86 1820.3 M2507.43 1815.01 L2523.86 1815.01 Q2531.21 1815.01 2535.19 1818.07 Q2539.17 1821.12 2539.17 1826.76 Q2539.17 1831.12 2537.13 1833.7 Q2535.09 1836.27 2531.14 1836.91 Q2535.89 1837.93 2538.5 1841.17 Q2541.14 1844.39 2541.14 1849.23 Q2541.14 1855.59 2536.81 1859.06 Q2532.48 1862.53 2524.49 1862.53 L2507.43 1862.53 L2507.43 1815.01 Z" fill="#000000" fill-rule="nonzero" fill-opacity="1" /><path clip-path="url(#clip380)" d="M3052.2 1815.01 L3058.63 1815.01 L3058.63 1834.49 L3081.99 1834.49 L3081.99 1815.01 L3088.42 1815.01 L3088.42 1862.53 L3081.99 1862.53 L3081.99 1839.9 L3058.63 1839.9 L3058.63 1862.53 L3052.2 1862.53 L3052.2 1815.01 Z" fill="#000000" fill-rule="nonzero" fill-opacity="1" /><path clip-path="url(#clip380)" d="M3101.22 1815.01 L3128.53 1815.01 L3128.53 1820.42 L3107.65 1820.42 L3107.65 1834.43 L3126.49 1834.43 L3126.49 1839.84 L3107.65 1839.84 L3107.65 1862.53 L3101.22 1862.53 L3101.22 1815.01 Z" fill="#000000" fill-rule="nonzero" fill-opacity="1" /><path clip-path="url(#clip380)" d="M3649.87 1815.01 L3656.3 1815.01 L3656.3 1857.12 L3679.44 1857.12 L3679.44 1862.53 L3649.87 1862.53 L3649.87 1815.01 Z" fill="#000000" fill-rule="nonzero" fill-opacity="1" /><path clip-path="url(#clip380)" d="M3686.18 1815.01 L3713.49 1815.01 L3713.49 1820.42 L3692.61 1820.42 L3692.61 1834.43 L3711.46 1834.43 L3711.46 1839.84 L3692.61 1839.84 L3692.61 1862.53 L3686.18 1862.53 L3686.18 1815.01 Z" fill="#000000" fill-rule="nonzero" fill-opacity="1" /><polyline clip-path="url(#clip380)" style="stroke:#000000; stroke-linecap:round; stroke-linejoin:round; stroke-width:4; stroke-opacity:1; fill:none" points="2338.21,1771.13 2338.21,225.068 "/>
<polyline clip-path="url(#clip380)" style="stroke:#000000; stroke-linecap:round; stroke-linejoin:round; stroke-width:4; stroke-opacity:1; fill:none" points="2338.21,1199.35 2357.1,1199.35 "/>
<polyline clip-path="url(#clip380)" style="stroke:#000000; stroke-linecap:round; stroke-linejoin:round; stroke-width:4; stroke-opacity:1; fill:none" points="2338.21,354.999 2357.1,354.999 "/>
<path clip-path="url(#clip380)" d="M2183.16 1226.56 L2193.66 1226.56 L2193.66 1190.31 L2182.24 1192.6 L2182.24 1186.75 L2193.6 1184.46 L2200.03 1184.46 L2200.03 1226.56 L2210.53 1226.56 L2210.53 1231.98 L2183.16 1231.98 L2183.16 1226.56 Z" fill="#000000" fill-rule="nonzero" fill-opacity="1" /><path clip-path="url(#clip380)" d="M2237.27 1188.69 Q2232.3 1188.69 2229.79 1193.59 Q2227.31 1198.46 2227.31 1208.26 Q2227.31 1218.03 2229.79 1222.94 Q2232.3 1227.81 2237.27 1227.81 Q2242.26 1227.81 2244.75 1222.94 Q2247.26 1218.03 2247.26 1208.26 Q2247.26 1198.46 2244.75 1193.59 Q2242.26 1188.69 2237.27 1188.69 M2237.27 1183.6 Q2245.26 1183.6 2249.46 1189.93 Q2253.69 1196.23 2253.69 1208.26 Q2253.69 1220.26 2249.46 1226.6 Q2245.26 1232.9 2237.27 1232.9 Q2229.28 1232.9 2225.05 1226.6 Q2220.84 1220.26 2220.84 1208.26 Q2220.84 1196.23 2225.05 1189.93 Q2229.28 1183.6 2237.27 1183.6 Z" fill="#000000" fill-rule="nonzero" fill-opacity="1" /><path clip-path="url(#clip380)" d="M2259.98 1189.89 L2278.21 1189.89 L2278.21 1194.29 L2253.69 1194.29 L2253.69 1189.89 Q2256.66 1186.81 2261.79 1181.64 Q2266.93 1176.44 2268.25 1174.94 Q2270.76 1172.12 2271.74 1170.18 Q2272.75 1168.22 2272.75 1166.33 Q2272.75 1163.25 2270.58 1161.31 Q2268.43 1159.37 2264.97 1159.37 Q2262.51 1159.37 2259.77 1160.23 Q2257.05 1161.08 2253.95 1162.81 L2253.95 1157.54 Q2257.1 1156.27 2259.85 1155.62 Q2262.59 1154.98 2264.86 1154.98 Q2270.86 1154.98 2274.43 1157.98 Q2278 1160.98 2278 1165.99 Q2278 1168.37 2277.09 1170.52 Q2276.22 1172.64 2273.86 1175.54 Q2273.22 1176.29 2269.75 1179.88 Q2266.29 1183.45 2259.98 1189.89 Z" fill="#000000" fill-rule="nonzero" fill-opacity="1" /><path clip-path="url(#clip380)" d="M2179.54 382.214 L2190.04 382.214 L2190.04 345.961 L2178.62 348.253 L2178.62 342.396 L2189.98 340.105 L2196.41 340.105 L2196.41 382.214 L2206.91 382.214 L2206.91 387.625 L2179.54 387.625 L2179.54 382.214 Z" fill="#000000" fill-rule="nonzero" fill-opacity="1" /><path clip-path="url(#clip380)" d="M2233.65 344.338 Q2228.68 344.338 2226.17 349.24 Q2223.68 354.109 2223.68 363.912 Q2223.68 373.684 2226.17 378.585 Q2228.68 383.455 2233.65 383.455 Q2238.64 383.455 2241.13 378.585 Q2243.64 373.684 2243.64 363.912 Q2243.64 354.109 2241.13 349.24 Q2238.64 344.338 2233.65 344.338 M2233.65 339.245 Q2241.64 339.245 2245.84 345.579 Q2250.07 351.881 2250.07 363.912 Q2250.07 375.912 2245.84 382.246 Q2241.64 388.548 2233.65 388.548 Q2225.66 388.548 2221.42 382.246 Q2217.22 375.912 2217.22 363.912 Q2217.22 351.881 2221.42 345.579 Q2225.66 339.245 2233.65 339.245 Z" fill="#000000" fill-rule="nonzero" fill-opacity="1" /><path clip-path="url(#clip380)" d="M2267.5 315.877 L2254.31 336.488 L2267.5 336.488 L2267.5 315.877 M2266.13 311.325 L2272.7 311.325 L2272.7 336.488 L2278.21 336.488 L2278.21 340.832 L2272.7 340.832 L2272.7 349.935 L2267.5 349.935 L2267.5 340.832 L2250.07 340.832 L2250.07 335.79 L2266.13 311.325 Z" fill="#000000" fill-rule="nonzero" fill-opacity="1" /><path clip-path="url(#clip380)" d="M2045.61 1232.95 L2045.61 1200.68 L2052 1200.68 L2052 1225.35 L2068.55 1225.35 L2068.55 1203.09 L2074.95 1203.09 L2074.95 1225.35 L2101.77 1225.35 L2101.77 1232.95 L2045.61 1232.95 Z" fill="#000000" fill-rule="nonzero" fill-opacity="1" /><path clip-path="url(#clip380)" d="M2066.11 1170.13 Q2065.43 1171.3 2065.13 1172.69 Q2064.79 1174.05 2064.79 1175.7 Q2064.79 1181.57 2068.63 1184.73 Q2072.43 1187.85 2079.57 1187.85 L2101.77 1187.85 L2101.77 1194.81 L2059.64 1194.81 L2059.64 1187.85 L2066.18 1187.85 Q2062.35 1185.67 2060.5 1182.17 Q2058.62 1178.67 2058.62 1173.67 Q2058.62 1172.96 2058.74 1172.09 Q2058.81 1171.23 2059 1170.17 L2066.11 1170.13 Z" fill="#000000" fill-rule="nonzero" fill-opacity="1" /><path clip-path="url(#clip380)" d="M2078.97 1128.53 L2082.36 1128.53 L2082.36 1160.35 Q2089.5 1159.9 2093.27 1156.07 Q2096.99 1152.19 2096.99 1145.31 Q2096.99 1141.32 2096.01 1137.6 Q2095.03 1133.84 2093.08 1130.15 L2099.62 1130.15 Q2101.2 1133.87 2102.03 1137.79 Q2102.86 1141.7 2102.86 1145.72 Q2102.86 1155.8 2096.99 1161.71 Q2091.12 1167.58 2081.12 1167.58 Q2070.77 1167.58 2064.72 1162.01 Q2058.62 1156.4 2058.62 1146.93 Q2058.62 1138.42 2064.11 1133.5 Q2069.57 1128.53 2078.97 1128.53 M2076.94 1135.45 Q2071.26 1135.53 2067.88 1138.65 Q2064.49 1141.73 2064.49 1146.85 Q2064.49 1152.64 2067.76 1156.14 Q2071.04 1159.6 2076.98 1160.13 L2076.94 1135.45 Z" fill="#000000" fill-rule="nonzero" fill-opacity="1" /><path clip-path="url(#clip380)" d="M2080.74 1113.03 Q2088.38 1113.03 2092.74 1109.91 Q2097.07 1106.75 2097.07 1101.26 Q2097.07 1095.77 2092.74 1092.61 Q2088.38 1089.45 2080.74 1089.45 Q2073.1 1089.45 2068.78 1092.61 Q2064.42 1095.77 2064.42 1101.26 Q2064.42 1106.75 2068.78 1109.91 Q2073.1 1113.03 2080.74 1113.03 M2095.45 1089.45 Q2099.21 1091.63 2101.05 1094.98 Q2102.86 1098.29 2102.86 1102.95 Q2102.86 1110.59 2096.76 1115.4 Q2090.67 1120.18 2080.74 1120.18 Q2070.81 1120.18 2064.72 1115.4 Q2058.62 1110.59 2058.62 1102.95 Q2058.62 1098.29 2060.47 1094.98 Q2062.27 1091.63 2066.03 1089.45 L2059.64 1089.45 L2059.64 1082.53 L2117.79 1082.53 L2117.79 1089.45 L2095.45 1089.45 Z" fill="#000000" fill-rule="nonzero" fill-opacity="1" /><path clip-path="url(#clip380)" d="M2045.61 1031.48 L2045.61 1025.09 L2108.91 1044.65 L2108.91 1051.04 L2045.61 1031.48 Z" fill="#000000" fill-rule="nonzero" fill-opacity="1" /><path clip-path="url(#clip380)" d="M2045.61 993.041 L2045.61 960.767 L2052 960.767 L2052 985.442 L2068.55 985.442 L2068.55 963.174 L2074.95 963.174 L2074.95 985.442 L2101.77 985.442 L2101.77 993.041 L2045.61 993.041 Z" fill="#000000" fill-rule="nonzero" fill-opacity="1" /><path clip-path="url(#clip380)" d="M2045.61 953.732 L2045.61 946.059 L2093.08 934.248 L2045.61 922.474 L2045.61 913.935 L2093.08 902.124 L2045.61 890.35 L2045.61 882.639 L2101.77 896.745 L2101.77 906.299 L2053.02 918.148 L2101.77 930.11 L2101.77 939.664 L2045.61 953.732 Z" fill="#000000" fill-rule="nonzero" fill-opacity="1" /><path clip-path="url(#clip380)" d="M2045.61 872.558 L2045.61 864.96 L2068.63 864.96 L2068.63 837.35 L2045.61 837.35 L2045.61 829.752 L2101.77 829.752 L2101.77 837.35 L2075.02 837.35 L2075.02 864.96 L2101.77 864.96 L2101.77 872.558 L2045.61 872.558 Z" fill="#000000" fill-rule="nonzero" fill-opacity="1" /><path clip-path="url(#clip380)" d="M2045.61 814.63 L2045.61 803.308 L2083.82 788.976 L2045.61 774.57 L2045.61 763.247 L2101.77 763.247 L2101.77 770.658 L2052.45 770.658 L2090.97 785.14 L2090.97 792.776 L2052.45 807.258 L2101.77 807.258 L2101.77 814.63 L2045.61 814.63 Z" fill="#000000" fill-rule="nonzero" fill-opacity="1" /><path clip-path="url(#clip380)" d="M2702.61 10.9999 Q2696.41 21.648 2693.4 32.0646 Q2690.39 42.4813 2690.39 53.1756 Q2690.39 63.87 2693.4 74.3792 Q2696.45 84.8421 2702.61 95.4439 L2695.2 95.4439 Q2688.26 84.5644 2684.79 74.0552 Q2681.36 63.546 2681.36 53.1756 Q2681.36 42.8516 2684.79 32.3887 Q2688.21 21.9258 2695.2 10.9999 L2702.61 10.9999 Z" fill="#000000" fill-rule="nonzero" fill-opacity="1" /><path clip-path="url(#clip380)" d="M2728.86 49.9349 L2728.86 75.2589 L2743.86 75.2589 Q2751.41 75.2589 2755.02 72.157 Q2758.68 69.0089 2758.68 62.5737 Q2758.68 56.0923 2755.02 53.0368 Q2751.41 49.9349 2743.86 49.9349 L2728.86 49.9349 M2728.86 21.5091 L2728.86 42.3424 L2742.7 42.3424 Q2749.55 42.3424 2752.89 39.7961 Q2756.27 37.2035 2756.27 31.9258 Q2756.27 26.6943 2752.89 24.1017 Q2749.55 21.5091 2742.7 21.5091 L2728.86 21.5091 M2719.51 13.824 L2743.4 13.824 Q2754.09 13.824 2759.88 18.2684 Q2765.67 22.7128 2765.67 30.9072 Q2765.67 37.2498 2762.7 40.9998 Q2759.74 44.7498 2754 45.6757 Q2760.9 47.1572 2764.69 51.8794 Q2768.54 56.5553 2768.54 63.5923 Q2768.54 72.8515 2762.24 77.8977 Q2755.94 82.944 2744.32 82.944 L2719.51 82.944 L2719.51 13.824 Z" fill="#000000" fill-rule="nonzero" fill-opacity="1" /><path clip-path="url(#clip380)" d="M2782.84 10.9999 L2790.25 10.9999 Q2797.19 21.9258 2800.62 32.3887 Q2804.09 42.8516 2804.09 53.1756 Q2804.09 63.546 2800.62 74.0552 Q2797.19 84.5644 2790.25 95.4439 L2782.84 95.4439 Q2789 84.8421 2792.01 74.3792 Q2795.06 63.87 2795.06 53.1756 Q2795.06 42.4813 2792.01 32.0646 Q2789 21.648 2782.84 10.9999 Z" fill="#000000" fill-rule="nonzero" fill-opacity="1" /><path clip-path="url(#clip380)" d="M2861.04 21.5091 L2861.04 47.4812 L2872.79 47.4812 Q2879.32 47.4812 2882.89 44.1016 Q2886.45 40.722 2886.45 34.472 Q2886.45 28.2684 2882.89 24.8888 Q2879.32 21.5091 2872.79 21.5091 L2861.04 21.5091 M2851.68 13.824 L2872.79 13.824 Q2884.42 13.824 2890.34 19.1017 Q2896.31 24.3332 2896.31 34.472 Q2896.31 44.7035 2890.34 49.9349 Q2884.42 55.1664 2872.79 55.1664 L2861.04 55.1664 L2861.04 82.944 L2851.68 82.944 L2851.68 13.824 Z" fill="#000000" fill-rule="nonzero" fill-opacity="1" /><path clip-path="url(#clip380)" d="M2949.46 54.8886 L2949.46 59.0552 L2910.29 59.0552 Q2910.85 67.8515 2915.57 72.4811 Q2920.34 77.0644 2928.81 77.0644 Q2933.72 77.0644 2938.3 75.8607 Q2942.93 74.657 2947.47 72.2496 L2947.47 80.3051 Q2942.89 82.2496 2938.07 83.2681 Q2933.26 84.2866 2928.3 84.2866 Q2915.9 84.2866 2908.63 77.0644 Q2901.41 69.8422 2901.41 57.5275 Q2901.41 44.7961 2908.26 37.3424 Q2915.16 29.8424 2926.82 29.8424 Q2937.29 29.8424 2943.35 36.6017 Q2949.46 43.3146 2949.46 54.8886 M2940.94 52.3886 Q2940.85 45.3979 2937.01 41.2313 Q2933.21 37.0646 2926.92 37.0646 Q2919.79 37.0646 2915.48 41.0924 Q2911.22 45.1201 2910.57 52.4349 L2940.94 52.3886 Z" fill="#000000" fill-rule="nonzero" fill-opacity="1" /><path clip-path="url(#clip380)" d="M2987.01 56.8793 Q2976.68 56.8793 2972.7 59.2404 Q2968.72 61.6015 2968.72 67.2959 Q2968.72 71.8329 2971.68 74.5181 Q2974.69 77.157 2979.83 77.157 Q2986.91 77.157 2991.17 72.157 Q2995.48 67.1108 2995.48 58.7775 L2995.48 56.8793 L2987.01 56.8793 M3004 53.3608 L3004 82.944 L2995.48 82.944 L2995.48 75.0737 Q2992.56 79.7959 2988.21 82.0644 Q2983.86 84.2866 2977.56 84.2866 Q2969.6 84.2866 2964.88 79.8422 Q2960.2 75.3514 2960.2 67.8515 Q2960.2 59.1015 2966.04 54.6571 Q2971.91 50.2127 2983.54 50.2127 L2995.48 50.2127 L2995.48 49.3794 Q2995.48 43.4998 2991.59 40.3053 Q2987.75 37.0646 2980.76 37.0646 Q2976.31 37.0646 2972.1 38.1294 Q2967.89 39.1942 2964 41.3239 L2964 33.4535 Q2968.67 31.648 2973.07 30.7684 Q2977.47 29.8424 2981.64 29.8424 Q2992.89 29.8424 2998.44 35.6757 Q3004 41.509 3004 53.3608 Z" fill="#000000" fill-rule="nonzero" fill-opacity="1" /><path clip-path="url(#clip380)" d="M3021.22 10.9073 L3029.78 10.9073 L3029.78 53.4534 L3055.2 31.0924 L3066.08 31.0924 L3038.58 55.3516 L3067.24 82.944 L3056.13 82.944 L3029.78 57.6201 L3029.78 82.944 L3021.22 82.944 L3021.22 10.9073 Z" fill="#000000" fill-rule="nonzero" fill-opacity="1" /><path clip-path="url(#clip380)" d="M3135.02 20.1666 Q3124.83 20.1666 3118.81 27.7591 Q3112.84 35.3517 3112.84 48.4534 Q3112.84 61.5089 3118.81 69.1015 Q3124.83 76.694 3135.02 76.694 Q3145.2 76.694 3151.13 69.1015 Q3157.1 61.5089 3157.1 48.4534 Q3157.1 35.3517 3151.13 27.7591 Q3145.2 20.1666 3135.02 20.1666 M3148.12 81.694 L3160.43 95.1662 L3149.14 95.1662 L3138.9 84.1014 Q3137.38 84.194 3136.54 84.2403 Q3135.76 84.2866 3135.02 84.2866 Q3120.43 84.2866 3111.68 74.5644 Q3102.98 64.7959 3102.98 48.4534 Q3102.98 32.0646 3111.68 22.3425 Q3120.43 12.574 3135.02 12.574 Q3149.55 12.574 3158.26 22.3425 Q3166.96 32.0646 3166.96 48.4534 Q3166.96 60.4904 3162.1 69.0552 Q3157.28 77.62 3148.12 81.694 Z" fill="#000000" fill-rule="nonzero" fill-opacity="1" /><path clip-path="url(#clip380)" d="M3179.55 53.1756 L3204.51 53.1756 L3204.51 60.7682 L3179.55 60.7682 L3179.55 53.1756 Z" fill="#000000" fill-rule="nonzero" fill-opacity="1" /><path clip-path="url(#clip380)" d="M3218.44 13.824 L3258.16 13.824 L3258.16 21.6943 L3227.79 21.6943 L3227.79 42.0646 L3255.2 42.0646 L3255.2 49.9349 L3227.79 49.9349 L3227.79 82.944 L3218.44 82.944 L3218.44 13.824 Z" fill="#000000" fill-rule="nonzero" fill-opacity="1" /><path clip-path="url(#clip380)" d="M3287.47 56.8793 Q3277.14 56.8793 3273.16 59.2404 Q3269.18 61.6015 3269.18 67.2959 Q3269.18 71.8329 3272.14 74.5181 Q3275.15 77.157 3280.29 77.157 Q3287.38 77.157 3291.64 72.157 Q3295.94 67.1108 3295.94 58.7775 L3295.94 56.8793 L3287.47 56.8793 M3304.46 53.3608 L3304.46 82.944 L3295.94 82.944 L3295.94 75.0737 Q3293.02 79.7959 3288.67 82.0644 Q3284.32 84.2866 3278.02 84.2866 Q3270.06 84.2866 3265.34 79.8422 Q3260.66 75.3514 3260.66 67.8515 Q3260.66 59.1015 3266.5 54.6571 Q3272.38 50.2127 3284 50.2127 L3295.94 50.2127 L3295.94 49.3794 Q3295.94 43.4998 3292.05 40.3053 Q3288.21 37.0646 3281.22 37.0646 Q3276.77 37.0646 3272.56 38.1294 Q3268.35 39.1942 3264.46 41.3239 L3264.46 33.4535 Q3269.14 31.648 3273.53 30.7684 Q3277.93 29.8424 3282.1 29.8424 Q3293.35 29.8424 3298.9 35.6757 Q3304.46 41.509 3304.46 53.3608 Z" fill="#000000" fill-rule="nonzero" fill-opacity="1" /><path clip-path="url(#clip380)" d="M3359.32 33.0832 L3359.32 41.0461 Q3355.71 39.0553 3352.05 38.0831 Q3348.44 37.0646 3344.74 37.0646 Q3336.45 37.0646 3331.87 42.3424 Q3327.28 47.5738 3327.28 57.0645 Q3327.28 66.5552 3331.87 71.8329 Q3336.45 77.0644 3344.74 77.0644 Q3348.44 77.0644 3352.05 76.0922 Q3355.71 75.0737 3359.32 73.0829 L3359.32 80.9533 Q3355.76 82.6199 3351.91 83.4533 Q3348.12 84.2866 3343.81 84.2866 Q3332.1 84.2866 3325.2 76.9255 Q3318.3 69.5644 3318.3 57.0645 Q3318.3 44.3794 3325.25 37.1109 Q3332.24 29.8424 3344.37 29.8424 Q3348.3 29.8424 3352.05 30.6758 Q3355.8 31.4628 3359.32 33.0832 Z" fill="#000000" fill-rule="nonzero" fill-opacity="1" /><path clip-path="url(#clip380)" d="M3382.56 16.3703 L3382.56 31.0924 L3400.11 31.0924 L3400.11 37.7128 L3382.56 37.7128 L3382.56 65.8608 Q3382.56 72.2033 3384.27 74.0089 Q3386.03 75.8144 3391.36 75.8144 L3400.11 75.8144 L3400.11 82.944 L3391.36 82.944 Q3381.5 82.944 3377.75 79.2866 Q3374 75.5829 3374 65.8608 L3374 37.7128 L3367.75 37.7128 L3367.75 31.0924 L3374 31.0924 L3374 16.3703 L3382.56 16.3703 Z" fill="#000000" fill-rule="nonzero" fill-opacity="1" /><path clip-path="url(#clip380)" d="M3431.4 37.0646 Q3424.55 37.0646 3420.57 42.435 Q3416.59 47.759 3416.59 57.0645 Q3416.59 66.37 3420.52 71.7404 Q3424.5 77.0644 3431.4 77.0644 Q3438.21 77.0644 3442.19 71.6941 Q3446.17 66.3237 3446.17 57.0645 Q3446.17 47.8516 3442.19 42.4813 Q3438.21 37.0646 3431.4 37.0646 M3431.4 29.8424 Q3442.51 29.8424 3448.86 37.0646 Q3455.2 44.2868 3455.2 57.0645 Q3455.2 69.7959 3448.86 77.0644 Q3442.51 84.2866 3431.4 84.2866 Q3420.25 84.2866 3413.9 77.0644 Q3407.61 69.7959 3407.61 57.0645 Q3407.61 44.2868 3413.9 37.0646 Q3420.25 29.8424 3431.4 29.8424 Z" fill="#000000" fill-rule="nonzero" fill-opacity="1" /><path clip-path="url(#clip380)" d="M3499.37 39.0553 Q3497.93 38.222 3496.22 37.8516 Q3494.55 37.435 3492.51 37.435 Q3485.29 37.435 3481.4 42.1572 Q3477.56 46.8331 3477.56 55.6293 L3477.56 82.944 L3469 82.944 L3469 31.0924 L3477.56 31.0924 L3477.56 39.1479 Q3480.25 34.4257 3484.55 32.1572 Q3488.86 29.8424 3495.01 29.8424 Q3495.89 29.8424 3496.96 29.9813 Q3498.02 30.0739 3499.32 30.3054 L3499.37 39.0553 Z" fill="#000000" fill-rule="nonzero" fill-opacity="1" /><circle clip-path="url(#clip383)" cx="2533.42" cy="1727.38" r="18" fill="#4482b5" fill-rule="evenodd" fill-opacity="0.6" stroke="none"/>
<circle clip-path="url(#clip383)" cx="2466.75" cy="1548.22" r="18" fill="#4482b5" fill-rule="evenodd" fill-opacity="0.6" stroke="none"/>
<circle clip-path="url(#clip383)" cx="2478.96" cy="1543.32" r="18" fill="#4482b5" fill-rule="evenodd" fill-opacity="0.6" stroke="none"/>
<circle clip-path="url(#clip383)" cx="2467.82" cy="1527.55" r="18" fill="#4482b5" fill-rule="evenodd" fill-opacity="0.6" stroke="none"/>
<circle clip-path="url(#clip383)" cx="2448.79" cy="1556.49" r="18" fill="#4482b5" fill-rule="evenodd" fill-opacity="0.6" stroke="none"/>
<circle clip-path="url(#clip383)" cx="2531.81" cy="1570.05" r="18" fill="#4482b5" fill-rule="evenodd" fill-opacity="0.6" stroke="none"/>
<circle clip-path="url(#clip383)" cx="2447.81" cy="1469.96" r="18" fill="#4482b5" fill-rule="evenodd" fill-opacity="0.6" stroke="none"/>
<circle clip-path="url(#clip383)" cx="2471.71" cy="1391.83" r="18" fill="#4482b5" fill-rule="evenodd" fill-opacity="0.6" stroke="none"/>
<circle clip-path="url(#clip383)" cx="2531.97" cy="1537.18" r="18" fill="#4482b5" fill-rule="evenodd" fill-opacity="0.6" stroke="none"/>
<circle clip-path="url(#clip383)" cx="2475.29" cy="1528.68" r="18" fill="#4482b5" fill-rule="evenodd" fill-opacity="0.6" stroke="none"/>
<circle clip-path="url(#clip383)" cx="2444.69" cy="1571.81" r="18" fill="#4482b5" fill-rule="evenodd" fill-opacity="0.6" stroke="none"/>
<circle clip-path="url(#clip383)" cx="2507.29" cy="1572.9" r="18" fill="#4482b5" fill-rule="evenodd" fill-opacity="0.6" stroke="none"/>
<circle clip-path="url(#clip383)" cx="2446.81" cy="1653.03" r="18" fill="#4482b5" fill-rule="evenodd" fill-opacity="0.6" stroke="none"/>
<circle clip-path="url(#clip383)" cx="2485.82" cy="1554.33" r="18" fill="#4482b5" fill-rule="evenodd" fill-opacity="0.6" stroke="none"/>
<circle clip-path="url(#clip383)" cx="2537.93" cy="1427.9" r="18" fill="#4482b5" fill-rule="evenodd" fill-opacity="0.6" stroke="none"/>
<circle clip-path="url(#clip383)" cx="2439.93" cy="1513.2" r="18" fill="#4482b5" fill-rule="evenodd" fill-opacity="0.6" stroke="none"/>
<circle clip-path="url(#clip383)" cx="2544.08" cy="1641.99" r="18" fill="#4482b5" fill-rule="evenodd" fill-opacity="0.6" stroke="none"/>
<circle clip-path="url(#clip383)" cx="2498.35" cy="1633.18" r="18" fill="#4482b5" fill-rule="evenodd" fill-opacity="0.6" stroke="none"/>
<circle clip-path="url(#clip383)" cx="2457.97" cy="1711.42" r="18" fill="#4482b5" fill-rule="evenodd" fill-opacity="0.6" stroke="none"/>
<circle clip-path="url(#clip383)" cx="2534.98" cy="1481.49" r="18" fill="#4482b5" fill-rule="evenodd" fill-opacity="0.6" stroke="none"/>
<circle clip-path="url(#clip383)" cx="2528.46" cy="1570.3" r="18" fill="#4482b5" fill-rule="evenodd" fill-opacity="0.6" stroke="none"/>
<circle clip-path="url(#clip383)" cx="2532.53" cy="1679.91" r="18" fill="#4482b5" fill-rule="evenodd" fill-opacity="0.6" stroke="none"/>
<circle clip-path="url(#clip383)" cx="2483.39" cy="1597.04" r="18" fill="#4482b5" fill-rule="evenodd" fill-opacity="0.6" stroke="none"/>
<circle clip-path="url(#clip383)" cx="2441.99" cy="1491.87" r="18" fill="#4482b5" fill-rule="evenodd" fill-opacity="0.6" stroke="none"/>
<circle clip-path="url(#clip383)" cx="2510.7" cy="1535.35" r="18" fill="#4482b5" fill-rule="evenodd" fill-opacity="0.6" stroke="none"/>
<circle clip-path="url(#clip383)" cx="2541.57" cy="1582.41" r="18" fill="#4482b5" fill-rule="evenodd" fill-opacity="0.6" stroke="none"/>
<circle clip-path="url(#clip383)" cx="2470.23" cy="1467.02" r="18" fill="#4482b5" fill-rule="evenodd" fill-opacity="0.6" stroke="none"/>
<circle clip-path="url(#clip383)" cx="2530.83" cy="1492.43" r="18" fill="#4482b5" fill-rule="evenodd" fill-opacity="0.6" stroke="none"/>
<circle clip-path="url(#clip383)" cx="2458.47" cy="1666.97" r="18" fill="#4482b5" fill-rule="evenodd" fill-opacity="0.6" stroke="none"/>
<circle clip-path="url(#clip383)" cx="2489.12" cy="1627.17" r="18" fill="#4482b5" fill-rule="evenodd" fill-opacity="0.6" stroke="none"/>
<circle clip-path="url(#clip383)" cx="2504.18" cy="1681.99" r="18" fill="#4482b5" fill-rule="evenodd" fill-opacity="0.6" stroke="none"/>
<polyline clip-path="url(#clip383)" style="stroke:#000000; stroke-linecap:round; stroke-linejoin:round; stroke-width:12; stroke-opacity:1; fill:none" points="2380.78,1556.49 2617.31,1556.49 "/>
<polyline clip-path="url(#clip383)" style="stroke:#000000; stroke-linecap:round; stroke-linejoin:round; stroke-width:8; stroke-opacity:1; fill:none" points="2499.05,1630.15 2499.05,1520.23 "/>
<circle clip-path="url(#clip383)" cx="3059.61" cy="1448.51" r="18" fill="#ff8c00" fill-rule="evenodd" fill-opacity="0.6" stroke="none"/>
<circle clip-path="url(#clip383)" cx="3069.71" cy="1709.53" r="18" fill="#ff8c00" fill-rule="evenodd" fill-opacity="0.6" stroke="none"/>
<circle clip-path="url(#clip383)" cx="3070.11" cy="1410.69" r="18" fill="#ff8c00" fill-rule="evenodd" fill-opacity="0.6" stroke="none"/>
<circle clip-path="url(#clip383)" cx="3072.06" cy="1478.9" r="18" fill="#ff8c00" fill-rule="evenodd" fill-opacity="0.6" stroke="none"/>
<circle clip-path="url(#clip383)" cx="3102.31" cy="1146.6" r="18" fill="#ff8c00" fill-rule="evenodd" fill-opacity="0.6" stroke="none"/>
<circle clip-path="url(#clip383)" cx="3097.88" cy="1010.57" r="18" fill="#ff8c00" fill-rule="evenodd" fill-opacity="0.6" stroke="none"/>
<circle clip-path="url(#clip383)" cx="3115.97" cy="694.704" r="18" fill="#ff8c00" fill-rule="evenodd" fill-opacity="0.6" stroke="none"/>
<circle clip-path="url(#clip383)" cx="3093.94" cy="1436.85" r="18" fill="#ff8c00" fill-rule="evenodd" fill-opacity="0.6" stroke="none"/>
<circle clip-path="url(#clip383)" cx="3035.59" cy="708.475" r="18" fill="#ff8c00" fill-rule="evenodd" fill-opacity="0.6" stroke="none"/>
<circle clip-path="url(#clip383)" cx="3031.39" cy="1335" r="18" fill="#ff8c00" fill-rule="evenodd" fill-opacity="0.6" stroke="none"/>
<circle clip-path="url(#clip383)" cx="3081.42" cy="1314.6" r="18" fill="#ff8c00" fill-rule="evenodd" fill-opacity="0.6" stroke="none"/>
<circle clip-path="url(#clip383)" cx="3143.84" cy="1332.77" r="18" fill="#ff8c00" fill-rule="evenodd" fill-opacity="0.6" stroke="none"/>
<circle clip-path="url(#clip383)" cx="3126.4" cy="951.058" r="18" fill="#ff8c00" fill-rule="evenodd" fill-opacity="0.6" stroke="none"/>
<circle clip-path="url(#clip383)" cx="3065.91" cy="943.915" r="18" fill="#ff8c00" fill-rule="evenodd" fill-opacity="0.6" stroke="none"/>
<circle clip-path="url(#clip383)" cx="3059" cy="1097.89" r="18" fill="#ff8c00" fill-rule="evenodd" fill-opacity="0.6" stroke="none"/>
<circle clip-path="url(#clip383)" cx="3125.89" cy="1168.6" r="18" fill="#ff8c00" fill-rule="evenodd" fill-opacity="0.6" stroke="none"/>
<circle clip-path="url(#clip383)" cx="3033.83" cy="1170.24" r="18" fill="#ff8c00" fill-rule="evenodd" fill-opacity="0.6" stroke="none"/>
<circle clip-path="url(#clip383)" cx="3090.49" cy="1404.9" r="18" fill="#ff8c00" fill-rule="evenodd" fill-opacity="0.6" stroke="none"/>
<circle clip-path="url(#clip383)" cx="3072.93" cy="1232.46" r="18" fill="#ff8c00" fill-rule="evenodd" fill-opacity="0.6" stroke="none"/>
<circle clip-path="url(#clip383)" cx="3063.6" cy="1613.72" r="18" fill="#ff8c00" fill-rule="evenodd" fill-opacity="0.6" stroke="none"/>
<circle clip-path="url(#clip383)" cx="3051" cy="1328.19" r="18" fill="#ff8c00" fill-rule="evenodd" fill-opacity="0.6" stroke="none"/>
<circle clip-path="url(#clip383)" cx="3095.65" cy="1383.03" r="18" fill="#ff8c00" fill-rule="evenodd" fill-opacity="0.6" stroke="none"/>
<circle clip-path="url(#clip383)" cx="3083.58" cy="1031.35" r="18" fill="#ff8c00" fill-rule="evenodd" fill-opacity="0.6" stroke="none"/>
<circle clip-path="url(#clip383)" cx="3076.05" cy="974.973" r="18" fill="#ff8c00" fill-rule="evenodd" fill-opacity="0.6" stroke="none"/>
<circle clip-path="url(#clip383)" cx="3090.86" cy="971.977" r="18" fill="#ff8c00" fill-rule="evenodd" fill-opacity="0.6" stroke="none"/>
<circle clip-path="url(#clip383)" cx="3040.96" cy="1581.79" r="18" fill="#ff8c00" fill-rule="evenodd" fill-opacity="0.6" stroke="none"/>
<circle clip-path="url(#clip383)" cx="3099.33" cy="1265.89" r="18" fill="#ff8c00" fill-rule="evenodd" fill-opacity="0.6" stroke="none"/>
<circle clip-path="url(#clip383)" cx="3139.95" cy="1314.6" r="18" fill="#ff8c00" fill-rule="evenodd" fill-opacity="0.6" stroke="none"/>
<circle clip-path="url(#clip383)" cx="3095.27" cy="1202.93" r="18" fill="#ff8c00" fill-rule="evenodd" fill-opacity="0.6" stroke="none"/>
<circle clip-path="url(#clip383)" cx="3086.13" cy="933.342" r="18" fill="#ff8c00" fill-rule="evenodd" fill-opacity="0.6" stroke="none"/>
<circle clip-path="url(#clip383)" cx="3087.84" cy="1243.89" r="18" fill="#ff8c00" fill-rule="evenodd" fill-opacity="0.6" stroke="none"/>
<circle clip-path="url(#clip383)" cx="3144.78" cy="1209.63" r="18" fill="#ff8c00" fill-rule="evenodd" fill-opacity="0.6" stroke="none"/>
<circle clip-path="url(#clip383)" cx="3077.02" cy="1252.21" r="18" fill="#ff8c00" fill-rule="evenodd" fill-opacity="0.6" stroke="none"/>
<circle clip-path="url(#clip383)" cx="3048.29" cy="1219.48" r="18" fill="#ff8c00" fill-rule="evenodd" fill-opacity="0.6" stroke="none"/>
<circle clip-path="url(#clip383)" cx="3140.68" cy="883.483" r="18" fill="#ff8c00" fill-rule="evenodd" fill-opacity="0.6" stroke="none"/>
<circle clip-path="url(#clip383)" cx="3114.95" cy="1187.52" r="18" fill="#ff8c00" fill-rule="evenodd" fill-opacity="0.6" stroke="none"/>
<circle clip-path="url(#clip383)" cx="3122.41" cy="1554.33" r="18" fill="#ff8c00" fill-rule="evenodd" fill-opacity="0.6" stroke="none"/>
<circle clip-path="url(#clip383)" cx="3043.4" cy="1159.25" r="18" fill="#ff8c00" fill-rule="evenodd" fill-opacity="0.6" stroke="none"/>
<circle clip-path="url(#clip383)" cx="3090.49" cy="651.56" r="18" fill="#ff8c00" fill-rule="evenodd" fill-opacity="0.6" stroke="none"/>
<circle clip-path="url(#clip383)" cx="3121.04" cy="1263.7" r="18" fill="#ff8c00" fill-rule="evenodd" fill-opacity="0.6" stroke="none"/>
<circle clip-path="url(#clip383)" cx="3111.85" cy="1410.86" r="18" fill="#ff8c00" fill-rule="evenodd" fill-opacity="0.6" stroke="none"/>
<circle clip-path="url(#clip383)" cx="3090.78" cy="1549.46" r="18" fill="#ff8c00" fill-rule="evenodd" fill-opacity="0.6" stroke="none"/>
<circle clip-path="url(#clip383)" cx="3068.75" cy="1328.34" r="18" fill="#ff8c00" fill-rule="evenodd" fill-opacity="0.6" stroke="none"/>
<circle clip-path="url(#clip383)" cx="3076.25" cy="1261.44" r="18" fill="#ff8c00" fill-rule="evenodd" fill-opacity="0.6" stroke="none"/>
<circle clip-path="url(#clip383)" cx="3070.86" cy="1308.39" r="18" fill="#ff8c00" fill-rule="evenodd" fill-opacity="0.6" stroke="none"/>
<circle clip-path="url(#clip383)" cx="3090.62" cy="1321.66" r="18" fill="#ff8c00" fill-rule="evenodd" fill-opacity="0.6" stroke="none"/>
<circle clip-path="url(#clip383)" cx="3079.29" cy="1079.75" r="18" fill="#ff8c00" fill-rule="evenodd" fill-opacity="0.6" stroke="none"/>
<circle clip-path="url(#clip383)" cx="3080.06" cy="1441.69" r="18" fill="#ff8c00" fill-rule="evenodd" fill-opacity="0.6" stroke="none"/>
<circle clip-path="url(#clip383)" cx="3068.49" cy="1514.33" r="18" fill="#ff8c00" fill-rule="evenodd" fill-opacity="0.6" stroke="none"/>
<circle clip-path="url(#clip383)" cx="3101.97" cy="1226.68" r="18" fill="#ff8c00" fill-rule="evenodd" fill-opacity="0.6" stroke="none"/>
<circle clip-path="url(#clip383)" cx="3099.49" cy="1521.88" r="18" fill="#ff8c00" fill-rule="evenodd" fill-opacity="0.6" stroke="none"/>
<circle clip-path="url(#clip383)" cx="3146.26" cy="1587.44" r="18" fill="#ff8c00" fill-rule="evenodd" fill-opacity="0.6" stroke="none"/>
<circle clip-path="url(#clip383)" cx="3073.43" cy="1556" r="18" fill="#ff8c00" fill-rule="evenodd" fill-opacity="0.6" stroke="none"/>
<circle clip-path="url(#clip383)" cx="3101.52" cy="1420.45" r="18" fill="#ff8c00" fill-rule="evenodd" fill-opacity="0.6" stroke="none"/>
<circle clip-path="url(#clip383)" cx="3089.18" cy="268.825" r="18" fill="#ff8c00" fill-rule="evenodd" fill-opacity="0.6" stroke="none"/>
<circle clip-path="url(#clip383)" cx="3069.49" cy="867.803" r="18" fill="#ff8c00" fill-rule="evenodd" fill-opacity="0.6" stroke="none"/>
<circle clip-path="url(#clip383)" cx="3115.65" cy="1356.56" r="18" fill="#ff8c00" fill-rule="evenodd" fill-opacity="0.6" stroke="none"/>
<circle clip-path="url(#clip383)" cx="3056.3" cy="1209.87" r="18" fill="#ff8c00" fill-rule="evenodd" fill-opacity="0.6" stroke="none"/>
<circle clip-path="url(#clip383)" cx="3120.14" cy="777.175" r="18" fill="#ff8c00" fill-rule="evenodd" fill-opacity="0.6" stroke="none"/>
<circle clip-path="url(#clip383)" cx="3084.09" cy="1047.78" r="18" fill="#ff8c00" fill-rule="evenodd" fill-opacity="0.6" stroke="none"/>
<circle clip-path="url(#clip383)" cx="3065.54" cy="1327.25" r="18" fill="#ff8c00" fill-rule="evenodd" fill-opacity="0.6" stroke="none"/>
<circle clip-path="url(#clip383)" cx="3038.25" cy="1614.33" r="18" fill="#ff8c00" fill-rule="evenodd" fill-opacity="0.6" stroke="none"/>
<circle clip-path="url(#clip383)" cx="3091.56" cy="1353.24" r="18" fill="#ff8c00" fill-rule="evenodd" fill-opacity="0.6" stroke="none"/>
<circle clip-path="url(#clip383)" cx="3110.09" cy="1467.76" r="18" fill="#ff8c00" fill-rule="evenodd" fill-opacity="0.6" stroke="none"/>
<circle clip-path="url(#clip383)" cx="3136.05" cy="1356.7" r="18" fill="#ff8c00" fill-rule="evenodd" fill-opacity="0.6" stroke="none"/>
<polyline clip-path="url(#clip383)" style="stroke:#000000; stroke-linecap:round; stroke-linejoin:round; stroke-width:12; stroke-opacity:1; fill:none" points="2972.1,1265.89 3208.63,1265.89 "/>
<polyline clip-path="url(#clip383)" style="stroke:#000000; stroke-linecap:round; stroke-linejoin:round; stroke-width:8; stroke-opacity:1; fill:none" points="3090.36,1410.86 3090.36,1097.89 "/>
<circle clip-path="url(#clip383)" cx="3649.64" cy="1544.3" r="18" fill="#db143d" fill-rule="evenodd" fill-opacity="0.6" stroke="none"/>
<circle clip-path="url(#clip383)" cx="3737.14" cy="1580.87" r="18" fill="#db143d" fill-rule="evenodd" fill-opacity="0.6" stroke="none"/>
<circle clip-path="url(#clip383)" cx="3637.39" cy="1554.33" r="18" fill="#db143d" fill-rule="evenodd" fill-opacity="0.6" stroke="none"/>
<circle clip-path="url(#clip383)" cx="3666.03" cy="1332.25" r="18" fill="#db143d" fill-rule="evenodd" fill-opacity="0.6" stroke="none"/>
<circle clip-path="url(#clip383)" cx="3684.02" cy="1579.89" r="18" fill="#db143d" fill-rule="evenodd" fill-opacity="0.6" stroke="none"/>
<circle clip-path="url(#clip383)" cx="3668.23" cy="1438.36" r="18" fill="#db143d" fill-rule="evenodd" fill-opacity="0.6" stroke="none"/>
<circle clip-path="url(#clip383)" cx="3667.78" cy="1224.31" r="18" fill="#db143d" fill-rule="evenodd" fill-opacity="0.6" stroke="none"/>
<circle clip-path="url(#clip383)" cx="3691.77" cy="1609.69" r="18" fill="#db143d" fill-rule="evenodd" fill-opacity="0.6" stroke="none"/>
<circle clip-path="url(#clip383)" cx="3639.29" cy="1072.26" r="18" fill="#db143d" fill-rule="evenodd" fill-opacity="0.6" stroke="none"/>
<circle clip-path="url(#clip383)" cx="3697.11" cy="1314.6" r="18" fill="#db143d" fill-rule="evenodd" fill-opacity="0.6" stroke="none"/>
<circle clip-path="url(#clip383)" cx="3700.76" cy="1353.76" r="18" fill="#db143d" fill-rule="evenodd" fill-opacity="0.6" stroke="none"/>
<circle clip-path="url(#clip383)" cx="3705.56" cy="1476.96" r="18" fill="#db143d" fill-rule="evenodd" fill-opacity="0.6" stroke="none"/>
<circle clip-path="url(#clip383)" cx="3665.78" cy="1576.26" r="18" fill="#db143d" fill-rule="evenodd" fill-opacity="0.6" stroke="none"/>
<circle clip-path="url(#clip383)" cx="3625.9" cy="1146.6" r="18" fill="#db143d" fill-rule="evenodd" fill-opacity="0.6" stroke="none"/>
<circle clip-path="url(#clip383)" cx="3710.09" cy="1098.88" r="18" fill="#db143d" fill-rule="evenodd" fill-opacity="0.6" stroke="none"/>
<circle clip-path="url(#clip383)" cx="3700.72" cy="1066.25" r="18" fill="#db143d" fill-rule="evenodd" fill-opacity="0.6" stroke="none"/>
<circle clip-path="url(#clip383)" cx="3718.26" cy="982.145" r="18" fill="#db143d" fill-rule="evenodd" fill-opacity="0.6" stroke="none"/>
<circle clip-path="url(#clip383)" cx="3680.45" cy="1238.26" r="18" fill="#db143d" fill-rule="evenodd" fill-opacity="0.6" stroke="none"/>
<circle clip-path="url(#clip383)" cx="3700.19" cy="964.493" r="18" fill="#db143d" fill-rule="evenodd" fill-opacity="0.6" stroke="none"/>
<circle clip-path="url(#clip383)" cx="3711.86" cy="1568.78" r="18" fill="#db143d" fill-rule="evenodd" fill-opacity="0.6" stroke="none"/>
<circle clip-path="url(#clip383)" cx="3732.85" cy="1012.97" r="18" fill="#db143d" fill-rule="evenodd" fill-opacity="0.6" stroke="none"/>
<circle clip-path="url(#clip383)" cx="3710.78" cy="1419.49" r="18" fill="#db143d" fill-rule="evenodd" fill-opacity="0.6" stroke="none"/>
<circle clip-path="url(#clip383)" cx="3674.66" cy="1444.12" r="18" fill="#db143d" fill-rule="evenodd" fill-opacity="0.6" stroke="none"/>
<circle clip-path="url(#clip383)" cx="3649" cy="1469.96" r="18" fill="#db143d" fill-rule="evenodd" fill-opacity="0.6" stroke="none"/>
<circle clip-path="url(#clip383)" cx="3640.58" cy="1254.37" r="18" fill="#db143d" fill-rule="evenodd" fill-opacity="0.6" stroke="none"/>
<circle clip-path="url(#clip383)" cx="3667.88" cy="1314.6" r="18" fill="#db143d" fill-rule="evenodd" fill-opacity="0.6" stroke="none"/>
<circle clip-path="url(#clip383)" cx="3648.92" cy="1444.03" r="18" fill="#db143d" fill-rule="evenodd" fill-opacity="0.6" stroke="none"/>
<circle clip-path="url(#clip383)" cx="3684.03" cy="1053.18" r="18" fill="#db143d" fill-rule="evenodd" fill-opacity="0.6" stroke="none"/>
<circle clip-path="url(#clip383)" cx="3632.91" cy="1215.17" r="18" fill="#db143d" fill-rule="evenodd" fill-opacity="0.6" stroke="none"/>
<circle clip-path="url(#clip383)" cx="3737.24" cy="1418.95" r="18" fill="#db143d" fill-rule="evenodd" fill-opacity="0.6" stroke="none"/>
<circle clip-path="url(#clip383)" cx="3732.16" cy="1544.3" r="18" fill="#db143d" fill-rule="evenodd" fill-opacity="0.6" stroke="none"/>
<circle clip-path="url(#clip383)" cx="3711.31" cy="1405.42" r="18" fill="#db143d" fill-rule="evenodd" fill-opacity="0.6" stroke="none"/>
<circle clip-path="url(#clip383)" cx="3655.25" cy="1382.03" r="18" fill="#db143d" fill-rule="evenodd" fill-opacity="0.6" stroke="none"/>
<circle clip-path="url(#clip383)" cx="3662.56" cy="1564.36" r="18" fill="#db143d" fill-rule="evenodd" fill-opacity="0.6" stroke="none"/>
<circle clip-path="url(#clip383)" cx="3702.78" cy="1541.36" r="18" fill="#db143d" fill-rule="evenodd" fill-opacity="0.6" stroke="none"/>
<circle clip-path="url(#clip383)" cx="3734.4" cy="1636.9" r="18" fill="#db143d" fill-rule="evenodd" fill-opacity="0.6" stroke="none"/>
<circle clip-path="url(#clip383)" cx="3660.04" cy="1261.86" r="18" fill="#db143d" fill-rule="evenodd" fill-opacity="0.6" stroke="none"/>
<circle clip-path="url(#clip383)" cx="3658.11" cy="1259.58" r="18" fill="#db143d" fill-rule="evenodd" fill-opacity="0.6" stroke="none"/>
<circle clip-path="url(#clip383)" cx="3723.32" cy="1680.84" r="18" fill="#db143d" fill-rule="evenodd" fill-opacity="0.6" stroke="none"/>
<circle clip-path="url(#clip383)" cx="3677.23" cy="1684.85" r="18" fill="#db143d" fill-rule="evenodd" fill-opacity="0.6" stroke="none"/>
<circle clip-path="url(#clip383)" cx="3662.36" cy="1565.35" r="18" fill="#db143d" fill-rule="evenodd" fill-opacity="0.6" stroke="none"/>
<circle clip-path="url(#clip383)" cx="3739.43" cy="1547.76" r="18" fill="#db143d" fill-rule="evenodd" fill-opacity="0.6" stroke="none"/>
<circle clip-path="url(#clip383)" cx="3672.18" cy="986.088" r="18" fill="#db143d" fill-rule="evenodd" fill-opacity="0.6" stroke="none"/>
<circle clip-path="url(#clip383)" cx="3698.96" cy="1493" r="18" fill="#db143d" fill-rule="evenodd" fill-opacity="0.6" stroke="none"/>
<circle clip-path="url(#clip383)" cx="3629.07" cy="966.994" r="18" fill="#db143d" fill-rule="evenodd" fill-opacity="0.6" stroke="none"/>
<circle clip-path="url(#clip383)" cx="3678.06" cy="1282.36" r="18" fill="#db143d" fill-rule="evenodd" fill-opacity="0.6" stroke="none"/>
<circle clip-path="url(#clip383)" cx="3709.07" cy="1525.61" r="18" fill="#db143d" fill-rule="evenodd" fill-opacity="0.6" stroke="none"/>
<circle clip-path="url(#clip383)" cx="3692.32" cy="1499.24" r="18" fill="#db143d" fill-rule="evenodd" fill-opacity="0.6" stroke="none"/>
<circle clip-path="url(#clip383)" cx="3663.25" cy="1543.84" r="18" fill="#db143d" fill-rule="evenodd" fill-opacity="0.6" stroke="none"/>
<circle clip-path="url(#clip383)" cx="3725.24" cy="1432.29" r="18" fill="#db143d" fill-rule="evenodd" fill-opacity="0.6" stroke="none"/>
<circle clip-path="url(#clip383)" cx="3727.03" cy="1181.5" r="18" fill="#db143d" fill-rule="evenodd" fill-opacity="0.6" stroke="none"/>
<circle clip-path="url(#clip383)" cx="3704.08" cy="1305.66" r="18" fill="#db143d" fill-rule="evenodd" fill-opacity="0.6" stroke="none"/>
<circle clip-path="url(#clip383)" cx="3650.02" cy="1218.15" r="18" fill="#db143d" fill-rule="evenodd" fill-opacity="0.6" stroke="none"/>
<circle clip-path="url(#clip383)" cx="3739.34" cy="1375.15" r="18" fill="#db143d" fill-rule="evenodd" fill-opacity="0.6" stroke="none"/>
<polyline clip-path="url(#clip383)" style="stroke:#000000; stroke-linecap:round; stroke-linejoin:round; stroke-width:12; stroke-opacity:1; fill:none" points="3563.42,1412.06 3799.94,1412.06 "/>
<polyline clip-path="url(#clip383)" style="stroke:#000000; stroke-linecap:round; stroke-linejoin:round; stroke-width:8; stroke-opacity:1; fill:none" points="3681.68,1544.18 3681.68,1227.7 "/>
</svg>
