<?xml version="1.0" encoding="utf-8"?>
<svg xmlns="http://www.w3.org/2000/svg" xmlns:xlink="http://www.w3.org/1999/xlink" width="630" height="220" viewBox="0 0 2520 880">
<defs>
  <clipPath id="clip390">
    <rect x="0" y="0" width="2520" height="880"/>
  </clipPath>
</defs>
<path clip-path="url(#clip390)" d="M0 880 L2520 880 L2520 0 L0 0  Z" fill="#ffffff" fill-rule="evenodd" fill-opacity="1"/>
<defs>
  <clipPath id="clip391">
    <rect x="1597" y="162" width="758" height="468"/>
  </clipPath>
</defs>
<path clip-path="url(#clip390)" d="M356.806 634.704 L709.613 634.704 L709.613 200.383 L356.806 200.383  Z" fill="#ffffff" fill-rule="evenodd" fill-opacity="1"/>
<defs>
  <clipPath id="clip392">
    <rect x="356" y="200" width="354" height="435"/>
  </clipPath>
</defs>
<polyline clip-path="url(#clip392)" style="stroke:#000000; stroke-linecap:round; stroke-linejoin:round; stroke-width:2; stroke-opacity:0.1; fill:none" points="366.791,634.704 366.791,200.383 "/>
<polyline clip-path="url(#clip392)" style="stroke:#000000; stroke-linecap:round; stroke-linejoin:round; stroke-width:2; stroke-opacity:0.1; fill:none" points="450,634.704 450,200.383 "/>
<polyline clip-path="url(#clip392)" style="stroke:#000000; stroke-linecap:round; stroke-linejoin:round; stroke-width:2; stroke-opacity:0.1; fill:none" points="533.209,634.704 533.209,200.383 "/>
<polyline clip-path="url(#clip392)" style="stroke:#000000; stroke-linecap:round; stroke-linejoin:round; stroke-width:2; stroke-opacity:0.1; fill:none" points="616.419,634.704 616.419,200.383 "/>
<polyline clip-path="url(#clip392)" style="stroke:#000000; stroke-linecap:round; stroke-linejoin:round; stroke-width:2; stroke-opacity:0.1; fill:none" points="699.628,634.704 699.628,200.383 "/>
<polyline clip-path="url(#clip392)" style="stroke:#000000; stroke-linecap:round; stroke-linejoin:round; stroke-width:2; stroke-opacity:0.1; fill:none" points="356.806,634.704 709.613,634.704 "/>
<polyline clip-path="url(#clip392)" style="stroke:#000000; stroke-linecap:round; stroke-linejoin:round; stroke-width:2; stroke-opacity:0.1; fill:none" points="356.806,417.543 709.613,417.543 "/>
<polyline clip-path="url(#clip392)" style="stroke:#000000; stroke-linecap:round; stroke-linejoin:round; stroke-width:2; stroke-opacity:0.1; fill:none" points="356.806,200.383 709.613,200.383 "/>
<polyline clip-path="url(#clip390)" style="stroke:#000000; stroke-linecap:round; stroke-linejoin:round; stroke-width:4; stroke-opacity:1; fill:none" points="356.806,634.704 709.613,634.704 "/>
<polyline clip-path="url(#clip390)" style="stroke:#000000; stroke-linecap:round; stroke-linejoin:round; stroke-width:4; stroke-opacity:1; fill:none" points="366.791,634.704 366.791,615.806 "/>
<polyline clip-path="url(#clip390)" style="stroke:#000000; stroke-linecap:round; stroke-linejoin:round; stroke-width:4; stroke-opacity:1; fill:none" points="450,634.704 450,615.806 "/>
<polyline clip-path="url(#clip390)" style="stroke:#000000; stroke-linecap:round; stroke-linejoin:round; stroke-width:4; stroke-opacity:1; fill:none" points="533.209,634.704 533.209,615.806 "/>
<polyline clip-path="url(#clip390)" style="stroke:#000000; stroke-linecap:round; stroke-linejoin:round; stroke-width:4; stroke-opacity:1; fill:none" points="616.419,634.704 616.419,615.806 "/>
<polyline clip-path="url(#clip390)" style="stroke:#000000; stroke-linecap:round; stroke-linejoin:round; stroke-width:4; stroke-opacity:1; fill:none" points="699.628,634.704 699.628,615.806 "/>
<path clip-path="url(#clip390)" d="M354.769 703.945 L364.317 703.945 L364.317 670.988 L353.93 673.071 L353.93 667.747 L364.26 665.664 L370.104 665.664 L370.104 703.945 L379.653 703.945 L379.653 708.864 L354.769 708.864 L354.769 703.945 Z" fill="#000000" fill-rule="nonzero" fill-opacity="1" /><path clip-path="url(#clip390)" d="M443.316 703.945 L463.716 703.945 L463.716 708.864 L436.285 708.864 L436.285 703.945 Q439.613 700.501 445.342 694.714 Q451.1 688.898 452.576 687.22 Q455.382 684.066 456.482 681.896 Q457.61 679.697 457.61 677.585 Q457.61 674.142 455.18 671.971 Q452.778 669.801 448.901 669.801 Q446.152 669.801 443.085 670.756 Q440.047 671.711 436.575 673.65 L436.575 667.747 Q440.105 666.329 443.172 665.606 Q446.239 664.882 448.785 664.882 Q455.498 664.882 459.491 668.239 Q463.484 671.595 463.484 677.209 Q463.484 679.871 462.471 682.272 Q461.488 684.645 458.855 687.886 Q458.131 688.725 454.254 692.747 Q450.377 696.74 443.316 703.945 Z" fill="#000000" fill-rule="nonzero" fill-opacity="1" /><path clip-path="url(#clip390)" d="M538.519 685.571 Q542.715 686.468 545.058 689.304 Q547.431 692.139 547.431 696.306 Q547.431 702.7 543.033 706.202 Q538.635 709.703 530.533 709.703 Q527.813 709.703 524.92 709.153 Q522.055 708.632 518.988 707.562 L518.988 701.919 Q521.418 703.337 524.312 704.06 Q527.205 704.784 530.359 704.784 Q535.857 704.784 538.722 702.614 Q541.615 700.444 541.615 696.306 Q541.615 692.486 538.924 690.345 Q536.262 688.175 531.488 688.175 L526.453 688.175 L526.453 683.372 L531.719 683.372 Q536.031 683.372 538.316 681.665 Q540.602 679.929 540.602 676.688 Q540.602 673.36 538.23 671.595 Q535.886 669.801 531.488 669.801 Q529.086 669.801 526.337 670.322 Q523.589 670.843 520.29 671.943 L520.29 666.734 Q523.617 665.808 526.511 665.345 Q529.433 664.882 532.009 664.882 Q538.664 664.882 542.541 667.921 Q546.418 670.93 546.418 676.08 Q546.418 679.668 544.364 682.157 Q542.31 684.616 538.519 685.571 Z" fill="#000000" fill-rule="nonzero" fill-opacity="1" /><path clip-path="url(#clip390)" d="M620.18 670.756 L605.423 693.817 L620.18 693.817 L620.18 670.756 M618.647 665.664 L625.996 665.664 L625.996 693.817 L632.159 693.817 L632.159 698.678 L625.996 698.678 L625.996 708.864 L620.18 708.864 L620.18 698.678 L600.678 698.678 L600.678 693.036 L618.647 665.664 Z" fill="#000000" fill-rule="nonzero" fill-opacity="1" /><path clip-path="url(#clip390)" d="M687.475 665.664 L710.42 665.664 L710.42 670.583 L692.828 670.583 L692.828 681.173 Q694.101 680.739 695.374 680.536 Q696.647 680.305 697.92 680.305 Q705.154 680.305 709.379 684.269 Q713.603 688.233 713.603 695.004 Q713.603 701.977 709.263 705.854 Q704.923 709.703 697.023 709.703 Q694.304 709.703 691.468 709.24 Q688.661 708.777 685.652 707.851 L685.652 701.977 Q688.256 703.395 691.034 704.089 Q693.812 704.784 696.908 704.784 Q701.913 704.784 704.836 702.151 Q707.758 699.518 707.758 695.004 Q707.758 690.49 704.836 687.857 Q701.913 685.224 696.908 685.224 Q694.564 685.224 692.22 685.745 Q689.905 686.265 687.475 687.365 L687.475 665.664 Z" fill="#000000" fill-rule="nonzero" fill-opacity="1" /><path clip-path="url(#clip390)" d="M381.801 746.808 L388.23 746.808 L388.23 766.287 L411.593 766.287 L411.593 746.808 L418.022 746.808 L418.022 794.328 L411.593 794.328 L411.593 771.698 L388.23 771.698 L388.23 794.328 L381.801 794.328 L381.801 746.808 Z" fill="#000000" fill-rule="nonzero" fill-opacity="1" /><path clip-path="url(#clip390)" d="M446.763 776.408 Q439.665 776.408 436.928 778.031 Q434.191 779.655 434.191 783.57 Q434.191 786.689 436.228 788.535 Q438.297 790.349 441.83 790.349 Q446.7 790.349 449.628 786.912 Q452.588 783.442 452.588 777.713 L452.588 776.408 L446.763 776.408 M458.444 773.989 L458.444 794.328 L452.588 794.328 L452.588 788.917 Q450.583 792.163 447.591 793.723 Q444.599 795.251 440.27 795.251 Q434.796 795.251 431.549 792.195 Q428.334 789.108 428.334 783.952 Q428.334 777.936 432.345 774.88 Q436.387 771.825 444.376 771.825 L452.588 771.825 L452.588 771.252 Q452.588 767.21 449.914 765.014 Q447.272 762.786 442.466 762.786 Q439.411 762.786 436.514 763.518 Q433.618 764.25 430.944 765.714 L430.944 760.303 Q434.159 759.062 437.183 758.457 Q440.206 757.82 443.071 757.82 Q450.805 757.82 454.625 761.831 Q458.444 765.841 458.444 773.989 Z" fill="#000000" fill-rule="nonzero" fill-opacity="1" /><path clip-path="url(#clip390)" d="M491.164 764.154 Q490.177 763.581 489 763.327 Q487.854 763.04 486.453 763.04 Q481.488 763.04 478.814 766.287 Q476.173 769.501 476.173 775.549 L476.173 794.328 L470.284 794.328 L470.284 758.68 L476.173 758.68 L476.173 764.218 Q478.019 760.971 480.979 759.412 Q483.939 757.82 488.172 757.82 Q488.777 757.82 489.509 757.916 Q490.241 757.979 491.132 758.139 L491.164 764.154 Z" fill="#000000" fill-rule="nonzero" fill-opacity="1" /><path clip-path="url(#clip390)" d="M523.916 765.523 Q526.112 761.576 529.167 759.698 Q532.223 757.82 536.36 757.82 Q541.93 757.82 544.954 761.735 Q547.978 765.618 547.978 772.812 L547.978 794.328 L542.09 794.328 L542.09 773.003 Q542.09 767.878 540.275 765.395 Q538.461 762.913 534.737 762.913 Q530.186 762.913 527.544 765.937 Q524.902 768.96 524.902 774.18 L524.902 794.328 L519.014 794.328 L519.014 773.003 Q519.014 767.846 517.2 765.395 Q515.385 762.913 511.598 762.913 Q507.11 762.913 504.468 765.968 Q501.827 768.992 501.827 774.18 L501.827 794.328 L495.938 794.328 L495.938 758.68 L501.827 758.68 L501.827 764.218 Q503.832 760.939 506.633 759.38 Q509.434 757.82 513.285 757.82 Q517.168 757.82 519.873 759.794 Q522.611 761.767 523.916 765.523 Z" fill="#000000" fill-rule="nonzero" fill-opacity="1" /><path clip-path="url(#clip390)" d="M573.473 762.786 Q568.762 762.786 566.025 766.478 Q563.287 770.138 563.287 776.535 Q563.287 782.933 565.993 786.625 Q568.73 790.285 573.473 790.285 Q578.151 790.285 580.889 786.593 Q583.626 782.901 583.626 776.535 Q583.626 770.202 580.889 766.509 Q578.151 762.786 573.473 762.786 M573.473 757.82 Q581.111 757.82 585.472 762.786 Q589.832 767.751 589.832 776.535 Q589.832 785.288 585.472 790.285 Q581.111 795.251 573.473 795.251 Q565.802 795.251 561.441 790.285 Q557.113 785.288 557.113 776.535 Q557.113 767.751 561.441 762.786 Q565.802 757.82 573.473 757.82 Z" fill="#000000" fill-rule="nonzero" fill-opacity="1" /><path clip-path="url(#clip390)" d="M629.172 772.812 L629.172 794.328 L623.316 794.328 L623.316 773.003 Q623.316 767.942 621.343 765.427 Q619.369 762.913 615.423 762.913 Q610.68 762.913 607.943 765.937 Q605.206 768.96 605.206 774.18 L605.206 794.328 L599.317 794.328 L599.317 758.68 L605.206 758.68 L605.206 764.218 Q607.306 761.003 610.139 759.412 Q613.004 757.82 616.728 757.82 Q622.87 757.82 626.021 761.64 Q629.172 765.427 629.172 772.812 Z" fill="#000000" fill-rule="nonzero" fill-opacity="1" /><path clip-path="url(#clip390)" d="M640.854 758.68 L646.71 758.68 L646.71 794.328 L640.854 794.328 L640.854 758.68 M640.854 744.802 L646.71 744.802 L646.71 752.218 L640.854 752.218 L640.854 744.802 Z" fill="#000000" fill-rule="nonzero" fill-opacity="1" /><path clip-path="url(#clip390)" d="M684.618 760.048 L684.618 765.523 Q682.135 764.154 679.621 763.486 Q677.138 762.786 674.592 762.786 Q668.894 762.786 665.743 766.414 Q662.592 770.011 662.592 776.535 Q662.592 783.06 665.743 786.689 Q668.894 790.285 674.592 790.285 Q677.138 790.285 679.621 789.617 Q682.135 788.917 684.618 787.548 L684.618 792.959 Q682.167 794.105 679.525 794.678 Q676.915 795.251 673.955 795.251 Q665.903 795.251 661.16 790.19 Q656.418 785.129 656.418 776.535 Q656.418 767.814 661.192 762.817 Q665.998 757.82 674.337 757.82 Q677.043 757.82 679.621 758.393 Q682.199 758.934 684.618 760.048 Z" fill="#000000" fill-rule="nonzero" fill-opacity="1" /><polyline clip-path="url(#clip390)" style="stroke:#000000; stroke-linecap:round; stroke-linejoin:round; stroke-width:4; stroke-opacity:1; fill:none" points="356.806,634.704 356.806,200.383 "/>
<polyline clip-path="url(#clip390)" style="stroke:#000000; stroke-linecap:round; stroke-linejoin:round; stroke-width:4; stroke-opacity:1; fill:none" points="356.806,634.704 375.704,634.704 "/>
<polyline clip-path="url(#clip390)" style="stroke:#000000; stroke-linecap:round; stroke-linejoin:round; stroke-width:4; stroke-opacity:1; fill:none" points="356.806,417.543 375.704,417.543 "/>
<polyline clip-path="url(#clip390)" style="stroke:#000000; stroke-linecap:round; stroke-linejoin:round; stroke-width:4; stroke-opacity:1; fill:none" points="356.806,200.383 375.704,200.383 "/>
<path clip-path="url(#clip390)" d="M230.624 659.444 L240.173 659.444 L240.173 626.487 L229.785 628.57 L229.785 623.246 L240.115 621.163 L245.96 621.163 L245.96 659.444 L255.508 659.444 L255.508 664.363 L230.624 664.363 L230.624 659.444 Z" fill="#000000" fill-rule="nonzero" fill-opacity="1" /><path clip-path="url(#clip390)" d="M279.814 625.011 Q275.3 625.011 273.014 629.467 Q270.757 633.895 270.757 642.807 Q270.757 651.69 273.014 656.146 Q275.3 660.573 279.814 660.573 Q284.357 660.573 286.613 656.146 Q288.899 651.69 288.899 642.807 Q288.899 633.895 286.613 629.467 Q284.357 625.011 279.814 625.011 M279.814 620.382 Q287.076 620.382 290.896 626.14 Q294.744 631.869 294.744 642.807 Q294.744 653.715 290.896 659.473 Q287.076 665.202 279.814 665.202 Q272.551 665.202 268.703 659.473 Q264.883 653.715 264.883 642.807 Q264.883 631.869 268.703 626.14 Q272.551 620.382 279.814 620.382 Z" fill="#000000" fill-rule="nonzero" fill-opacity="1" /><path clip-path="url(#clip390)" d="M306.875 598.127 Q303.208 598.127 301.35 601.747 Q299.517 605.344 299.517 612.585 Q299.517 619.803 301.35 623.423 Q303.208 627.02 306.875 627.02 Q310.566 627.02 312.4 623.423 Q314.257 619.803 314.257 612.585 Q314.257 605.344 312.4 601.747 Q310.566 598.127 306.875 598.127 M306.875 594.365 Q312.776 594.365 315.879 599.044 Q319.006 603.699 319.006 612.585 Q319.006 621.449 315.879 626.127 Q312.776 630.782 306.875 630.782 Q300.974 630.782 297.848 626.127 Q294.744 621.449 294.744 612.585 Q294.744 603.699 297.848 599.044 Q300.974 594.365 306.875 594.365 Z" fill="#000000" fill-rule="nonzero" fill-opacity="1" /><path clip-path="url(#clip390)" d="M232.176 442.284 L241.724 442.284 L241.724 409.327 L231.337 411.41 L231.337 406.086 L241.667 404.003 L247.511 404.003 L247.511 442.284 L257.06 442.284 L257.06 447.203 L232.176 447.203 L232.176 442.284 Z" fill="#000000" fill-rule="nonzero" fill-opacity="1" /><path clip-path="url(#clip390)" d="M281.365 407.851 Q276.852 407.851 274.566 412.307 Q272.309 416.734 272.309 425.646 Q272.309 434.529 274.566 438.985 Q276.852 443.412 281.365 443.412 Q285.908 443.412 288.165 438.985 Q290.451 434.529 290.451 425.646 Q290.451 416.734 288.165 412.307 Q285.908 407.851 281.365 407.851 M281.365 403.221 Q288.628 403.221 292.448 408.979 Q296.296 414.709 296.296 425.646 Q296.296 436.555 292.448 442.313 Q288.628 448.042 281.365 448.042 Q274.103 448.042 270.254 442.313 Q266.435 436.555 266.435 425.646 Q266.435 414.709 270.254 408.979 Q274.103 403.221 281.365 403.221 Z" fill="#000000" fill-rule="nonzero" fill-opacity="1" /><path clip-path="url(#clip390)" d="M297.777 377.84 L316.42 377.84 L316.42 381.836 L302.126 381.836 L302.126 390.441 Q303.161 390.088 304.195 389.924 Q305.23 389.736 306.264 389.736 Q312.141 389.736 315.574 392.956 Q319.006 396.177 319.006 401.678 Q319.006 407.344 315.48 410.495 Q311.953 413.621 305.535 413.621 Q303.325 413.621 301.021 413.245 Q298.741 412.869 296.296 412.117 L296.296 407.344 Q298.412 408.496 300.669 409.061 Q302.926 409.625 305.441 409.625 Q309.508 409.625 311.883 407.485 Q314.257 405.346 314.257 401.678 Q314.257 398.011 311.883 395.872 Q309.508 393.732 305.441 393.732 Q303.537 393.732 301.633 394.155 Q299.752 394.579 297.777 395.472 L297.777 377.84 Z" fill="#000000" fill-rule="nonzero" fill-opacity="1" /><path clip-path="url(#clip390)" d="M202.107 225.123 L211.655 225.123 L211.655 192.166 L201.268 194.249 L201.268 188.925 L211.598 186.842 L217.442 186.842 L217.442 225.123 L226.991 225.123 L226.991 230.042 L202.107 230.042 L202.107 225.123 Z" fill="#000000" fill-rule="nonzero" fill-opacity="1" /><path clip-path="url(#clip390)" d="M251.296 190.69 Q246.783 190.69 244.497 195.146 Q242.24 199.574 242.24 208.486 Q242.24 217.369 244.497 221.825 Q246.783 226.252 251.296 226.252 Q255.839 226.252 258.096 221.825 Q260.382 217.369 260.382 208.486 Q260.382 199.574 258.096 195.146 Q255.839 190.69 251.296 190.69 M251.296 186.061 Q258.559 186.061 262.379 191.819 Q266.227 197.548 266.227 208.486 Q266.227 219.394 262.379 225.152 Q258.559 230.881 251.296 230.881 Q244.034 230.881 240.185 225.152 Q236.366 219.394 236.366 208.486 Q236.366 197.548 240.185 191.819 Q244.034 186.061 251.296 186.061 Z" fill="#000000" fill-rule="nonzero" fill-opacity="1" /><path clip-path="url(#clip390)" d="M266.909 191.782 L274.667 191.782 L274.667 165.005 L266.227 166.698 L266.227 162.372 L274.62 160.679 L279.369 160.679 L279.369 191.782 L287.127 191.782 L287.127 195.779 L266.909 195.779 L266.909 191.782 Z" fill="#000000" fill-rule="nonzero" fill-opacity="1" /><path clip-path="url(#clip390)" d="M306.875 163.806 Q303.208 163.806 301.35 167.426 Q299.517 171.023 299.517 178.264 Q299.517 185.482 301.35 189.102 Q303.208 192.699 306.875 192.699 Q310.566 192.699 312.4 189.102 Q314.257 185.482 314.257 178.264 Q314.257 171.023 312.4 167.426 Q310.566 163.806 306.875 163.806 M306.875 160.044 Q312.776 160.044 315.879 164.723 Q319.006 169.378 319.006 178.264 Q319.006 187.128 315.879 191.806 Q312.776 196.461 306.875 196.461 Q300.974 196.461 297.848 191.806 Q294.744 187.128 294.744 178.264 Q294.744 169.378 297.848 164.723 Q300.974 160.044 306.875 160.044 Z" fill="#000000" fill-rule="nonzero" fill-opacity="1" /><path clip-path="url(#clip390)" d="M126.932 629.76 Q127.632 627.691 129.924 625.749 Q132.215 623.776 136.226 621.803 L149.212 615.278 L149.212 622.185 L137.021 628.264 Q132.247 630.619 130.688 632.847 Q129.128 635.043 129.128 638.863 L129.128 645.865 L149.212 645.865 L149.212 652.294 L101.692 652.294 L101.692 637.781 Q101.692 629.633 105.097 625.622 Q108.503 621.612 115.378 621.612 Q119.866 621.612 122.826 623.712 Q125.786 625.781 126.932 629.76 M106.975 645.865 L123.844 645.865 L123.844 637.781 Q123.844 633.134 121.712 630.778 Q119.548 628.391 115.378 628.391 Q111.209 628.391 109.108 630.778 Q106.975 633.134 106.975 637.781 L106.975 645.865 Z" fill="#000000" fill-rule="nonzero" fill-opacity="1" /><path clip-path="url(#clip390)" d="M129.924 579.694 L132.788 579.694 L132.788 606.621 Q138.836 606.239 142.019 602.992 Q145.17 599.714 145.17 593.889 Q145.17 590.515 144.342 587.364 Q143.514 584.181 141.859 581.062 L147.398 581.062 Q148.734 584.213 149.435 587.523 Q150.135 590.834 150.135 594.239 Q150.135 602.769 145.17 607.766 Q140.204 612.732 131.738 612.732 Q122.985 612.732 117.861 608.021 Q112.704 603.279 112.704 595.258 Q112.704 588.064 117.351 583.895 Q121.967 579.694 129.924 579.694 M128.205 585.55 Q123.399 585.614 120.534 588.255 Q117.67 590.865 117.67 595.194 Q117.67 600.096 120.439 603.056 Q123.208 605.984 128.237 606.43 L128.205 585.55 Z" fill="#000000" fill-rule="nonzero" fill-opacity="1" /><path clip-path="url(#clip390)" d="M114.614 547.356 L120.152 547.356 Q118.879 549.838 118.243 552.512 Q117.606 555.186 117.606 558.05 Q117.606 562.411 118.943 564.607 Q120.28 566.771 122.953 566.771 Q124.99 566.771 126.168 565.212 Q127.314 563.652 128.364 558.941 L128.81 556.936 Q130.147 550.698 132.597 548.088 Q135.016 545.446 139.377 545.446 Q144.342 545.446 147.238 549.393 Q150.135 553.308 150.135 560.183 Q150.135 563.047 149.562 566.166 Q149.021 569.254 147.907 572.691 L141.859 572.691 Q143.546 569.445 144.406 566.294 Q145.233 563.143 145.233 560.055 Q145.233 555.918 143.833 553.69 Q142.401 551.462 139.822 551.462 Q137.435 551.462 136.162 553.085 Q134.889 554.676 133.711 560.119 L133.234 562.156 Q132.088 567.599 129.733 570.018 Q127.346 572.437 123.208 572.437 Q118.179 572.437 115.442 568.872 Q112.704 565.307 112.704 558.75 Q112.704 555.504 113.182 552.639 Q113.659 549.775 114.614 547.356 Z" fill="#000000" fill-rule="nonzero" fill-opacity="1" /><path clip-path="url(#clip390)" d="M117.67 522.307 Q117.67 527.017 121.362 529.755 Q125.022 532.492 131.42 532.492 Q137.817 532.492 141.509 529.786 Q145.17 527.049 145.17 522.307 Q145.17 517.628 141.477 514.891 Q137.785 512.153 131.42 512.153 Q125.086 512.153 121.394 514.891 Q117.67 517.628 117.67 522.307 M112.704 522.307 Q112.704 514.668 117.67 510.307 Q122.635 505.947 131.42 505.947 Q140.173 505.947 145.17 510.307 Q150.135 514.668 150.135 522.307 Q150.135 529.977 145.17 534.338 Q140.173 538.667 131.42 538.667 Q122.635 538.667 117.67 534.338 Q112.704 529.977 112.704 522.307 Z" fill="#000000" fill-rule="nonzero" fill-opacity="1" /><path clip-path="url(#clip390)" d="M99.6866 496.239 L99.6866 490.383 L149.212 490.383 L149.212 496.239 L99.6866 496.239 Z" fill="#000000" fill-rule="nonzero" fill-opacity="1" /><path clip-path="url(#clip390)" d="M113.564 482.33 L113.564 476.124 L143.483 464.984 L113.564 453.844 L113.564 447.637 L149.212 461.005 L149.212 468.962 L113.564 482.33 Z" fill="#000000" fill-rule="nonzero" fill-opacity="1" /><path clip-path="url(#clip390)" d="M129.924 409.061 L132.788 409.061 L132.788 435.988 Q138.836 435.606 142.019 432.359 Q145.17 429.081 145.17 423.256 Q145.17 419.883 144.342 416.731 Q143.514 413.549 141.859 410.429 L147.398 410.429 Q148.734 413.58 149.435 416.891 Q150.135 420.201 150.135 423.606 Q150.135 432.137 145.17 437.134 Q140.204 442.099 131.738 442.099 Q122.985 442.099 117.861 437.388 Q112.704 432.646 112.704 424.625 Q112.704 417.432 117.351 413.262 Q121.967 409.061 129.924 409.061 M128.205 414.917 Q123.399 414.981 120.534 417.623 Q117.67 420.233 117.67 424.561 Q117.67 429.463 120.439 432.423 Q123.208 435.351 128.237 435.797 L128.205 414.917 Z" fill="#000000" fill-rule="nonzero" fill-opacity="1" /><path clip-path="url(#clip390)" d="M127.696 369.816 L149.212 369.816 L149.212 375.673 L127.887 375.673 Q122.826 375.673 120.311 377.646 Q117.797 379.619 117.797 383.566 Q117.797 388.309 120.821 391.046 Q123.844 393.783 129.064 393.783 L149.212 393.783 L149.212 399.671 L113.564 399.671 L113.564 393.783 L119.102 393.783 Q115.887 391.682 114.296 388.85 Q112.704 385.985 112.704 382.261 Q112.704 376.118 116.524 372.967 Q120.311 369.816 127.696 369.816 Z" fill="#000000" fill-rule="nonzero" fill-opacity="1" /><path clip-path="url(#clip390)" d="M103.442 352.342 L113.564 352.342 L113.564 340.279 L118.115 340.279 L118.115 352.342 L137.467 352.342 Q141.828 352.342 143.069 351.165 Q144.31 349.955 144.31 346.295 L144.31 340.279 L149.212 340.279 L149.212 346.295 Q149.212 353.074 146.697 355.653 Q144.151 358.231 137.467 358.231 L118.115 358.231 L118.115 362.528 L113.564 362.528 L113.564 358.231 L103.442 358.231 L103.442 352.342 Z" fill="#000000" fill-rule="nonzero" fill-opacity="1" /><path clip-path="url(#clip390)" d="M130.974 288.399 Q124.608 288.399 121.107 291.041 Q117.606 293.651 117.606 298.393 Q117.606 303.104 121.107 305.745 Q124.608 308.355 130.974 308.355 Q137.308 308.355 140.809 305.745 Q144.31 303.104 144.31 298.393 Q144.31 293.651 140.809 291.041 Q137.308 288.399 130.974 288.399 M144.788 282.542 Q153.891 282.542 158.315 286.585 Q162.771 290.627 162.771 298.966 Q162.771 302.053 162.293 304.791 Q161.848 307.528 160.893 310.106 L155.196 310.106 Q156.596 307.528 157.264 305.013 Q157.933 302.499 157.933 299.889 Q157.933 294.128 154.909 291.263 Q151.917 288.399 145.838 288.399 L142.942 288.399 Q146.093 290.213 147.652 293.046 Q149.212 295.879 149.212 299.825 Q149.212 306.382 144.215 310.392 Q139.218 314.403 130.974 314.403 Q122.699 314.403 117.702 310.392 Q112.704 306.382 112.704 299.825 Q112.704 295.879 114.264 293.046 Q115.824 290.213 118.975 288.399 L113.564 288.399 L113.564 282.542 L144.788 282.542 Z" fill="#000000" fill-rule="nonzero" fill-opacity="1" /><path clip-path="url(#clip390)" d="M131.292 254.279 Q131.292 261.376 132.916 264.114 Q134.539 266.851 138.454 266.851 Q141.573 266.851 143.419 264.814 Q145.233 262.745 145.233 259.212 Q145.233 254.342 141.796 251.414 Q138.326 248.454 132.597 248.454 L131.292 248.454 L131.292 254.279 M128.873 242.598 L149.212 242.598 L149.212 248.454 L143.801 248.454 Q147.047 250.459 148.607 253.451 Q150.135 256.443 150.135 260.772 Q150.135 266.246 147.079 269.493 Q143.992 272.707 138.836 272.707 Q132.82 272.707 129.765 268.697 Q126.709 264.655 126.709 256.666 L126.709 248.454 L126.136 248.454 Q122.094 248.454 119.898 251.128 Q117.67 253.769 117.67 258.576 Q117.67 261.631 118.402 264.527 Q119.134 267.424 120.598 270.097 L115.187 270.097 Q113.946 266.883 113.341 263.859 Q112.704 260.835 112.704 257.971 Q112.704 250.236 116.715 246.417 Q120.725 242.598 128.873 242.598 Z" fill="#000000" fill-rule="nonzero" fill-opacity="1" /><path clip-path="url(#clip390)" d="M113.564 230.535 L113.564 224.678 L149.212 224.678 L149.212 230.535 L113.564 230.535 M99.6866 230.535 L99.6866 224.678 L107.103 224.678 L107.103 230.535 L99.6866 230.535 Z" fill="#000000" fill-rule="nonzero" fill-opacity="1" /><path clip-path="url(#clip390)" d="M127.696 182.792 L149.212 182.792 L149.212 188.648 L127.887 188.648 Q122.826 188.648 120.311 190.622 Q117.797 192.595 117.797 196.542 Q117.797 201.284 120.821 204.021 Q123.844 206.759 129.064 206.759 L149.212 206.759 L149.212 212.647 L113.564 212.647 L113.564 206.759 L119.102 206.759 Q115.887 204.658 114.296 201.825 Q112.704 198.961 112.704 195.237 Q112.704 189.094 116.524 185.943 Q120.311 182.792 127.696 182.792 Z" fill="#000000" fill-rule="nonzero" fill-opacity="1" /><path clip-path="url(#clip390)" d="M511.039 17.2777 L501.526 43.0762 L520.588 43.0762 L511.039 17.2777 M507.081 10.368 L515.032 10.368 L534.789 62.208 L527.498 62.208 L522.775 48.9095 L499.408 48.9095 L494.685 62.208 L487.29 62.208 L507.081 10.368 Z" fill="#000000" fill-rule="nonzero" fill-opacity="1" /><path clip-path="url(#clip390)" d="M549.373 37.4512 L549.373 56.4441 L560.623 56.4441 Q566.282 56.4441 568.991 54.1178 Q571.734 51.7567 571.734 46.9303 Q571.734 42.0692 568.991 39.7776 Q566.282 37.4512 560.623 37.4512 L549.373 37.4512 M549.373 16.1319 L549.373 31.7568 L559.754 31.7568 Q564.893 31.7568 567.393 29.8471 Q569.928 27.9026 569.928 23.9443 Q569.928 20.0207 567.393 18.0763 Q564.893 16.1319 559.754 16.1319 L549.373 16.1319 M542.359 10.368 L560.275 10.368 Q568.296 10.368 572.636 13.7013 Q576.977 17.0346 576.977 23.1804 Q576.977 27.9374 574.754 30.7498 Q572.532 33.5623 568.227 34.2568 Q573.4 35.3679 576.247 38.9095 Q579.129 42.4164 579.129 47.6942 Q579.129 54.6386 574.407 58.4233 Q569.685 62.208 560.97 62.208 L542.359 62.208 L542.359 10.368 Z" fill="#000000" fill-rule="nonzero" fill-opacity="1" /><polyline clip-path="url(#clip392)" style="stroke:#0000ff; stroke-linecap:round; stroke-linejoin:round; stroke-width:12; stroke-opacity:1; fill:none" points="366.791,348.334 450,376.569 533.209,387.723 616.419,411.702 699.628,423.804 "/>
<polyline clip-path="url(#clip392)" style="stroke:#3f00bf; stroke-linecap:round; stroke-linejoin:round; stroke-width:12; stroke-opacity:1; fill:none" points="366.791,341.095 450,385.931 533.209,396.562 616.419,422.126 699.628,436.127 "/>
<polyline clip-path="url(#clip392)" style="stroke:#7f007f; stroke-linecap:round; stroke-linejoin:round; stroke-width:12; stroke-opacity:1; fill:none" points="366.791,344.612 450,359.702 533.209,371.775 616.419,394.444 699.628,397.566 "/>
<polyline clip-path="url(#clip392)" style="stroke:#bf003f; stroke-linecap:round; stroke-linejoin:round; stroke-width:12; stroke-opacity:1; fill:none" points="366.791,341.249 450,383.028 533.209,414.895 616.419,438.052 699.628,469.022 "/>
<polyline clip-path="url(#clip392)" style="stroke:#ff0000; stroke-linecap:round; stroke-linejoin:round; stroke-width:12; stroke-opacity:1; fill:none" points="366.791,341.972 450,381.215 533.209,412.026 616.419,437.024 699.628,462.696 "/>
<path clip-path="url(#clip390)" d="M368.566 620.226 L669.772 620.226 L669.772 309.186 L368.566 309.186  Z" fill="#ffffff" fill-rule="evenodd" fill-opacity="1"/>
<polyline clip-path="url(#clip390)" style="stroke:#000000; stroke-linecap:round; stroke-linejoin:round; stroke-width:4; stroke-opacity:1; fill:none" points="368.566,620.226 669.772,620.226 669.772,309.186 368.566,309.186 368.566,620.226 "/>
<polyline clip-path="url(#clip390)" style="stroke:#0000ff; stroke-linecap:round; stroke-linejoin:round; stroke-width:12; stroke-opacity:1; fill:none" points="372.487,361.026 396.007,361.026 "/>
<path clip-path="url(#clip390)" d="M429.603 354.973 L405.714 363.468 L429.603 371.917 L429.603 376.13 L399.927 365.367 L399.927 361.524 L429.603 350.76 L429.603 354.973 Z" fill="#000000" fill-rule="nonzero" fill-opacity="1" /><path clip-path="url(#clip390)" d="M452.542 347.82 L440.737 366.269 L452.542 366.269 L452.542 347.82 M451.316 343.746 L457.195 343.746 L457.195 366.269 L462.126 366.269 L462.126 370.158 L457.195 370.158 L457.195 378.306 L452.542 378.306 L452.542 370.158 L436.941 370.158 L436.941 365.644 L451.316 343.746 Z" fill="#000000" fill-rule="nonzero" fill-opacity="1" /><path clip-path="url(#clip390)" d="M479.857 346.825 Q476.246 346.825 474.417 350.39 Q472.612 353.931 472.612 361.061 Q472.612 368.167 474.417 371.732 Q476.246 375.274 479.857 375.274 Q483.491 375.274 485.297 371.732 Q487.126 368.167 487.126 361.061 Q487.126 353.931 485.297 350.39 Q483.491 346.825 479.857 346.825 M479.857 343.121 Q485.667 343.121 488.723 347.728 Q491.802 352.311 491.802 361.061 Q491.802 369.788 488.723 374.394 Q485.667 378.978 479.857 378.978 Q474.047 378.978 470.968 374.394 Q467.913 369.788 467.913 361.061 Q467.913 352.311 470.968 347.728 Q474.047 343.121 479.857 343.121 Z" fill="#000000" fill-rule="nonzero" fill-opacity="1" /><polyline clip-path="url(#clip390)" style="stroke:#3f00bf; stroke-linecap:round; stroke-linejoin:round; stroke-width:12; stroke-opacity:1; fill:none" points="372.487,412.866 396.007,412.866 "/>
<path clip-path="url(#clip390)" d="M415.529 399.66 L403.723 418.109 L415.529 418.109 L415.529 399.66 M414.302 395.586 L420.182 395.586 L420.182 418.109 L425.112 418.109 L425.112 421.998 L420.182 421.998 L420.182 430.146 L415.529 430.146 L415.529 421.998 L399.927 421.998 L399.927 417.484 L414.302 395.586 Z" fill="#000000" fill-rule="nonzero" fill-opacity="1" /><path clip-path="url(#clip390)" d="M442.843 398.665 Q439.232 398.665 437.404 402.23 Q435.598 405.771 435.598 412.901 Q435.598 420.007 437.404 423.572 Q439.232 427.114 442.843 427.114 Q446.478 427.114 448.283 423.572 Q450.112 420.007 450.112 412.901 Q450.112 405.771 448.283 402.23 Q446.478 398.665 442.843 398.665 M442.843 394.961 Q448.654 394.961 451.709 399.568 Q454.788 404.151 454.788 412.901 Q454.788 421.628 451.709 426.234 Q448.654 430.818 442.843 430.818 Q437.033 430.818 433.955 426.234 Q430.899 421.628 430.899 412.901 Q430.899 404.151 433.955 399.568 Q437.033 394.961 442.843 394.961 Z" fill="#000000" fill-rule="nonzero" fill-opacity="1" /><path clip-path="url(#clip390)" d="M460.251 415.494 L479.325 415.494 L479.325 418.827 L460.251 418.827 L460.251 415.494 Z" fill="#000000" fill-rule="nonzero" fill-opacity="1" /><path clip-path="url(#clip390)" d="M497.288 411.003 Q494.139 411.003 492.288 413.156 Q490.459 415.308 490.459 419.058 Q490.459 422.785 492.288 424.961 Q494.139 427.114 497.288 427.114 Q500.436 427.114 502.264 424.961 Q504.116 422.785 504.116 419.058 Q504.116 415.308 502.264 413.156 Q500.436 411.003 497.288 411.003 M506.57 396.35 L506.57 400.609 Q504.811 399.776 503.005 399.336 Q501.223 398.896 499.464 398.896 Q494.834 398.896 492.38 402.021 Q489.95 405.146 489.602 411.466 Q490.968 409.452 493.028 408.387 Q495.089 407.299 497.565 407.299 Q502.774 407.299 505.783 410.47 Q508.815 413.619 508.815 419.058 Q508.815 424.382 505.667 427.6 Q502.519 430.818 497.288 430.818 Q491.292 430.818 488.121 426.234 Q484.95 421.628 484.95 412.901 Q484.95 404.707 488.839 399.845 Q492.727 394.961 499.278 394.961 Q501.038 394.961 502.82 395.308 Q504.626 395.656 506.57 396.35 Z" fill="#000000" fill-rule="nonzero" fill-opacity="1" /><path clip-path="url(#clip390)" d="M526.871 398.665 Q523.26 398.665 521.431 402.23 Q519.625 405.771 519.625 412.901 Q519.625 420.007 521.431 423.572 Q523.26 427.114 526.871 427.114 Q530.505 427.114 532.311 423.572 Q534.139 420.007 534.139 412.901 Q534.139 405.771 532.311 402.23 Q530.505 398.665 526.871 398.665 M526.871 394.961 Q532.681 394.961 535.736 399.568 Q538.815 404.151 538.815 412.901 Q538.815 421.628 535.736 426.234 Q532.681 430.818 526.871 430.818 Q521.061 430.818 517.982 426.234 Q514.926 421.628 514.926 412.901 Q514.926 404.151 517.982 399.568 Q521.061 394.961 526.871 394.961 Z" fill="#000000" fill-rule="nonzero" fill-opacity="1" /><polyline clip-path="url(#clip390)" style="stroke:#7f007f; stroke-linecap:round; stroke-linejoin:round; stroke-width:12; stroke-opacity:1; fill:none" points="372.487,464.706 396.007,464.706 "/>
<path clip-path="url(#clip390)" d="M412.265 462.843 Q409.117 462.843 407.265 464.996 Q405.436 467.148 405.436 470.898 Q405.436 474.625 407.265 476.801 Q409.117 478.954 412.265 478.954 Q415.413 478.954 417.242 476.801 Q419.094 474.625 419.094 470.898 Q419.094 467.148 417.242 464.996 Q415.413 462.843 412.265 462.843 M421.547 448.19 L421.547 452.449 Q419.788 451.616 417.982 451.176 Q416.2 450.736 414.441 450.736 Q409.811 450.736 407.358 453.861 Q404.927 456.986 404.58 463.306 Q405.946 461.292 408.006 460.227 Q410.066 459.139 412.543 459.139 Q417.751 459.139 420.76 462.31 Q423.793 465.459 423.793 470.898 Q423.793 476.222 420.645 479.44 Q417.496 482.658 412.265 482.658 Q406.27 482.658 403.098 478.074 Q399.927 473.468 399.927 464.741 Q399.927 456.547 403.816 451.685 Q407.705 446.801 414.256 446.801 Q416.015 446.801 417.797 447.148 Q419.603 447.496 421.547 448.19 Z" fill="#000000" fill-rule="nonzero" fill-opacity="1" /><path clip-path="url(#clip390)" d="M441.848 450.505 Q438.237 450.505 436.408 454.07 Q434.603 457.611 434.603 464.741 Q434.603 471.847 436.408 475.412 Q438.237 478.954 441.848 478.954 Q445.482 478.954 447.288 475.412 Q449.117 471.847 449.117 464.741 Q449.117 457.611 447.288 454.07 Q445.482 450.505 441.848 450.505 M441.848 446.801 Q447.658 446.801 450.714 451.408 Q453.792 455.991 453.792 464.741 Q453.792 473.468 450.714 478.074 Q447.658 482.658 441.848 482.658 Q436.038 482.658 432.959 478.074 Q429.904 473.468 429.904 464.741 Q429.904 455.991 432.959 451.408 Q436.038 446.801 441.848 446.801 Z" fill="#000000" fill-rule="nonzero" fill-opacity="1" /><path clip-path="url(#clip390)" d="M459.255 467.334 L478.329 467.334 L478.329 470.667 L459.255 470.667 L459.255 467.334 Z" fill="#000000" fill-rule="nonzero" fill-opacity="1" /><path clip-path="url(#clip390)" d="M485.853 481.269 L485.853 477.009 Q487.612 477.843 489.417 478.283 Q491.223 478.722 492.959 478.722 Q497.589 478.722 500.019 475.621 Q502.473 472.496 502.82 466.153 Q501.477 468.144 499.417 469.209 Q497.357 470.273 494.857 470.273 Q489.672 470.273 486.64 467.148 Q483.63 464 483.63 458.56 Q483.63 453.236 486.778 450.019 Q489.927 446.801 495.158 446.801 Q501.153 446.801 504.301 451.408 Q507.473 455.991 507.473 464.741 Q507.473 472.912 503.584 477.796 Q499.718 482.658 493.167 482.658 Q491.408 482.658 489.602 482.31 Q487.797 481.963 485.853 481.269 M495.158 466.616 Q498.306 466.616 500.135 464.463 Q501.987 462.31 501.987 458.56 Q501.987 454.834 500.135 452.681 Q498.306 450.505 495.158 450.505 Q492.01 450.505 490.158 452.681 Q488.329 454.834 488.329 458.56 Q488.329 462.31 490.158 464.463 Q492.01 466.616 495.158 466.616 Z" fill="#000000" fill-rule="nonzero" fill-opacity="1" /><path clip-path="url(#clip390)" d="M525.875 450.505 Q522.264 450.505 520.436 454.07 Q518.63 457.611 518.63 464.741 Q518.63 471.847 520.436 475.412 Q522.264 478.954 525.875 478.954 Q529.51 478.954 531.315 475.412 Q533.144 471.847 533.144 464.741 Q533.144 457.611 531.315 454.07 Q529.51 450.505 525.875 450.505 M525.875 446.801 Q531.686 446.801 534.741 451.408 Q537.82 455.991 537.82 464.741 Q537.82 473.468 534.741 478.074 Q531.686 482.658 525.875 482.658 Q520.065 482.658 516.987 478.074 Q513.931 473.468 513.931 464.741 Q513.931 455.991 516.987 451.408 Q520.065 446.801 525.875 446.801 Z" fill="#000000" fill-rule="nonzero" fill-opacity="1" /><polyline clip-path="url(#clip390)" style="stroke:#bf003f; stroke-linecap:round; stroke-linejoin:round; stroke-width:12; stroke-opacity:1; fill:none" points="372.487,516.546 396.007,516.546 "/>
<path clip-path="url(#clip390)" d="M402.149 533.109 L402.149 528.849 Q403.908 529.683 405.714 530.123 Q407.52 530.562 409.256 530.562 Q413.885 530.562 416.316 527.461 Q418.77 524.336 419.117 517.993 Q417.774 519.984 415.714 521.049 Q413.654 522.113 411.154 522.113 Q405.969 522.113 402.936 518.988 Q399.927 515.84 399.927 510.4 Q399.927 505.076 403.075 501.859 Q406.223 498.641 411.455 498.641 Q417.45 498.641 420.598 503.248 Q423.77 507.831 423.77 516.581 Q423.77 524.752 419.881 529.636 Q416.015 534.498 409.464 534.498 Q407.705 534.498 405.899 534.15 Q404.094 533.803 402.149 533.109 M411.455 518.456 Q414.603 518.456 416.432 516.303 Q418.283 514.15 418.283 510.4 Q418.283 506.674 416.432 504.521 Q414.603 502.345 411.455 502.345 Q408.307 502.345 406.455 504.521 Q404.626 506.674 404.626 510.4 Q404.626 514.15 406.455 516.303 Q408.307 518.456 411.455 518.456 Z" fill="#000000" fill-rule="nonzero" fill-opacity="1" /><path clip-path="url(#clip390)" d="M442.172 502.345 Q438.561 502.345 436.732 505.91 Q434.927 509.451 434.927 516.581 Q434.927 523.687 436.732 527.252 Q438.561 530.794 442.172 530.794 Q445.806 530.794 447.612 527.252 Q449.441 523.687 449.441 516.581 Q449.441 509.451 447.612 505.91 Q445.806 502.345 442.172 502.345 M442.172 498.641 Q447.982 498.641 451.038 503.248 Q454.117 507.831 454.117 516.581 Q454.117 525.308 451.038 529.914 Q447.982 534.498 442.172 534.498 Q436.362 534.498 433.283 529.914 Q430.228 525.308 430.228 516.581 Q430.228 507.831 433.283 503.248 Q436.362 498.641 442.172 498.641 Z" fill="#000000" fill-rule="nonzero" fill-opacity="1" /><path clip-path="url(#clip390)" d="M459.579 519.174 L478.653 519.174 L478.653 522.507 L459.579 522.507 L459.579 519.174 Z" fill="#000000" fill-rule="nonzero" fill-opacity="1" /><path clip-path="url(#clip390)" d="M486.848 529.891 L494.487 529.891 L494.487 503.525 L486.177 505.192 L486.177 500.933 L494.44 499.266 L499.116 499.266 L499.116 529.891 L506.755 529.891 L506.755 533.826 L486.848 533.826 L486.848 529.891 Z" fill="#000000" fill-rule="nonzero" fill-opacity="1" /><path clip-path="url(#clip390)" d="M530.366 515.192 Q533.723 515.91 535.598 518.178 Q537.496 520.447 537.496 523.78 Q537.496 528.896 533.977 531.697 Q530.459 534.498 523.977 534.498 Q521.801 534.498 519.487 534.058 Q517.195 533.641 514.741 532.785 L514.741 528.271 Q516.686 529.405 519 529.984 Q521.315 530.562 523.838 530.562 Q528.237 530.562 530.528 528.826 Q532.843 527.09 532.843 523.78 Q532.843 520.724 530.69 519.012 Q528.561 517.275 524.741 517.275 L520.713 517.275 L520.713 513.433 L524.926 513.433 Q528.375 513.433 530.204 512.067 Q532.033 510.678 532.033 508.086 Q532.033 505.424 530.135 504.012 Q528.26 502.576 524.741 502.576 Q522.82 502.576 520.621 502.993 Q518.422 503.41 515.783 504.289 L515.783 500.123 Q518.445 499.382 520.76 499.012 Q523.098 498.641 525.158 498.641 Q530.482 498.641 533.584 501.072 Q536.686 503.479 536.686 507.6 Q536.686 510.47 535.042 512.461 Q533.399 514.428 530.366 515.192 Z" fill="#000000" fill-rule="nonzero" fill-opacity="1" /><path clip-path="url(#clip390)" d="M556.361 502.345 Q552.75 502.345 550.922 505.91 Q549.116 509.451 549.116 516.581 Q549.116 523.687 550.922 527.252 Q552.75 530.794 556.361 530.794 Q559.996 530.794 561.801 527.252 Q563.63 523.687 563.63 516.581 Q563.63 509.451 561.801 505.91 Q559.996 502.345 556.361 502.345 M556.361 498.641 Q562.172 498.641 565.227 503.248 Q568.306 507.831 568.306 516.581 Q568.306 525.308 565.227 529.914 Q562.172 534.498 556.361 534.498 Q550.551 534.498 547.473 529.914 Q544.417 525.308 544.417 516.581 Q544.417 507.831 547.473 503.248 Q550.551 498.641 556.361 498.641 Z" fill="#000000" fill-rule="nonzero" fill-opacity="1" /><polyline clip-path="url(#clip390)" style="stroke:#ff0000; stroke-linecap:round; stroke-linejoin:round; stroke-width:12; stroke-opacity:1; fill:none" points="372.487,568.386 396.007,568.386 "/>
<path clip-path="url(#clip390)" d="M399.927 562.333 L399.927 558.12 L429.603 568.884 L429.603 572.727 L399.927 583.49 L399.927 579.277 L423.77 570.828 L399.927 562.333 Z" fill="#000000" fill-rule="nonzero" fill-opacity="1" /><path clip-path="url(#clip390)" d="M440.506 581.731 L448.144 581.731 L448.144 555.365 L439.834 557.032 L439.834 552.773 L448.098 551.106 L452.774 551.106 L452.774 581.731 L460.413 581.731 L460.413 585.666 L440.506 585.666 L440.506 581.731 Z" fill="#000000" fill-rule="nonzero" fill-opacity="1" /><path clip-path="url(#clip390)" d="M484.024 567.032 Q487.38 567.75 489.255 570.018 Q491.153 572.287 491.153 575.62 Q491.153 580.736 487.635 583.537 Q484.116 586.338 477.635 586.338 Q475.459 586.338 473.144 585.898 Q470.853 585.481 468.399 584.625 L468.399 580.111 Q470.343 581.245 472.658 581.824 Q474.973 582.402 477.496 582.402 Q481.894 582.402 484.186 580.666 Q486.501 578.93 486.501 575.62 Q486.501 572.564 484.348 570.852 Q482.218 569.115 478.399 569.115 L474.371 569.115 L474.371 565.273 L478.584 565.273 Q482.033 565.273 483.862 563.907 Q485.69 562.518 485.69 559.926 Q485.69 557.264 483.792 555.852 Q481.917 554.416 478.399 554.416 Q476.478 554.416 474.278 554.833 Q472.079 555.25 469.441 556.129 L469.441 551.963 Q472.103 551.222 474.417 550.852 Q476.755 550.481 478.816 550.481 Q484.14 550.481 487.241 552.912 Q490.343 555.319 490.343 559.44 Q490.343 562.31 488.7 564.301 Q487.056 566.268 484.024 567.032 Z" fill="#000000" fill-rule="nonzero" fill-opacity="1" /><path clip-path="url(#clip390)" d="M510.019 554.185 Q506.408 554.185 504.579 557.75 Q502.774 561.291 502.774 568.421 Q502.774 575.527 504.579 579.092 Q506.408 582.634 510.019 582.634 Q513.653 582.634 515.459 579.092 Q517.288 575.527 517.288 568.421 Q517.288 561.291 515.459 557.75 Q513.653 554.185 510.019 554.185 M510.019 550.481 Q515.829 550.481 518.885 555.088 Q521.963 559.671 521.963 568.421 Q521.963 577.148 518.885 581.754 Q515.829 586.338 510.019 586.338 Q504.209 586.338 501.13 581.754 Q498.075 577.148 498.075 568.421 Q498.075 559.671 501.13 555.088 Q504.209 550.481 510.019 550.481 Z" fill="#000000" fill-rule="nonzero" fill-opacity="1" /><path clip-path="url(#clip390)" d="M578.375 560.736 L578.375 564.717 Q576.57 563.722 574.741 563.236 Q572.935 562.727 571.084 562.727 Q566.94 562.727 564.648 565.365 Q562.357 567.981 562.357 572.727 Q562.357 577.472 564.648 580.111 Q566.94 582.726 571.084 582.726 Q572.935 582.726 574.741 582.24 Q576.57 581.731 578.375 580.736 L578.375 584.671 Q576.593 585.504 574.671 585.921 Q572.773 586.338 570.621 586.338 Q564.764 586.338 561.315 582.657 Q557.866 578.976 557.866 572.727 Q557.866 566.384 561.338 562.75 Q564.834 559.115 570.898 559.115 Q572.866 559.115 574.741 559.532 Q576.616 559.926 578.375 560.736 Z" fill="#000000" fill-rule="nonzero" fill-opacity="1" /><path clip-path="url(#clip390)" d="M605.968 564.717 Q607.565 561.847 609.787 560.481 Q612.009 559.115 615.018 559.115 Q619.069 559.115 621.268 561.963 Q623.468 564.787 623.468 570.018 L623.468 585.666 L619.185 585.666 L619.185 570.157 Q619.185 566.43 617.866 564.625 Q616.546 562.819 613.838 562.819 Q610.528 562.819 608.606 565.018 Q606.685 567.217 606.685 571.014 L606.685 585.666 L602.403 585.666 L602.403 570.157 Q602.403 566.407 601.083 564.625 Q599.764 562.819 597.009 562.819 Q593.745 562.819 591.824 565.041 Q589.903 567.24 589.903 571.014 L589.903 585.666 L585.62 585.666 L585.62 559.74 L589.903 559.74 L589.903 563.768 Q591.361 561.384 593.398 560.25 Q595.435 559.115 598.236 559.115 Q601.06 559.115 603.028 560.551 Q605.019 561.986 605.968 564.717 Z" fill="#000000" fill-rule="nonzero" fill-opacity="1" /><path clip-path="url(#clip390)" d="M639.532 551.106 L643.467 551.106 L631.43 590.064 L627.495 590.064 L639.532 551.106 Z" fill="#000000" fill-rule="nonzero" fill-opacity="1" /><path clip-path="url(#clip390)" d="M664.463 560.504 L664.463 564.532 Q662.657 563.606 660.713 563.143 Q658.768 562.68 656.685 562.68 Q653.514 562.68 651.916 563.652 Q650.342 564.625 650.342 566.569 Q650.342 568.051 651.477 568.907 Q652.611 569.74 656.037 570.504 L657.495 570.828 Q662.032 571.801 663.93 573.583 Q665.852 575.342 665.852 578.514 Q665.852 582.125 662.981 584.231 Q660.134 586.338 655.134 586.338 Q653.051 586.338 650.782 585.921 Q648.537 585.527 646.037 584.717 L646.037 580.319 Q648.398 581.546 650.69 582.171 Q652.981 582.773 655.227 582.773 Q658.236 582.773 659.856 581.754 Q661.477 580.713 661.477 578.838 Q661.477 577.101 660.296 576.176 Q659.139 575.25 655.18 574.393 L653.699 574.046 Q649.741 573.213 647.981 571.5 Q646.222 569.764 646.222 566.754 Q646.222 563.097 648.815 561.106 Q651.407 559.115 656.176 559.115 Q658.537 559.115 660.62 559.463 Q662.703 559.81 664.463 560.504 Z" fill="#000000" fill-rule="nonzero" fill-opacity="1" /><path clip-path="url(#clip390)" d="M1183.26 634.704 L1536.07 634.704 L1536.07 200.383 L1183.26 200.383  Z" fill="#ffffff" fill-rule="evenodd" fill-opacity="1"/>
<defs>
  <clipPath id="clip393">
    <rect x="1183" y="200" width="354" height="435"/>
  </clipPath>
</defs>
<polyline clip-path="url(#clip393)" style="stroke:#000000; stroke-linecap:round; stroke-linejoin:round; stroke-width:2; stroke-opacity:0.1; fill:none" points="1193.24,634.704 1193.24,200.383 "/>
<polyline clip-path="url(#clip393)" style="stroke:#000000; stroke-linecap:round; stroke-linejoin:round; stroke-width:2; stroke-opacity:0.1; fill:none" points="1276.45,634.704 1276.45,200.383 "/>
<polyline clip-path="url(#clip393)" style="stroke:#000000; stroke-linecap:round; stroke-linejoin:round; stroke-width:2; stroke-opacity:0.1; fill:none" points="1359.66,634.704 1359.66,200.383 "/>
<polyline clip-path="url(#clip393)" style="stroke:#000000; stroke-linecap:round; stroke-linejoin:round; stroke-width:2; stroke-opacity:0.1; fill:none" points="1442.87,634.704 1442.87,200.383 "/>
<polyline clip-path="url(#clip393)" style="stroke:#000000; stroke-linecap:round; stroke-linejoin:round; stroke-width:2; stroke-opacity:0.1; fill:none" points="1526.08,634.704 1526.08,200.383 "/>
<polyline clip-path="url(#clip393)" style="stroke:#000000; stroke-linecap:round; stroke-linejoin:round; stroke-width:2; stroke-opacity:0.1; fill:none" points="1183.26,634.704 1536.07,634.704 "/>
<polyline clip-path="url(#clip393)" style="stroke:#000000; stroke-linecap:round; stroke-linejoin:round; stroke-width:2; stroke-opacity:0.1; fill:none" points="1183.26,417.543 1536.07,417.543 "/>
<polyline clip-path="url(#clip393)" style="stroke:#000000; stroke-linecap:round; stroke-linejoin:round; stroke-width:2; stroke-opacity:0.1; fill:none" points="1183.26,200.383 1536.07,200.383 "/>
<polyline clip-path="url(#clip390)" style="stroke:#000000; stroke-linecap:round; stroke-linejoin:round; stroke-width:4; stroke-opacity:1; fill:none" points="1183.26,634.704 1536.07,634.704 "/>
<polyline clip-path="url(#clip390)" style="stroke:#000000; stroke-linecap:round; stroke-linejoin:round; stroke-width:4; stroke-opacity:1; fill:none" points="1193.24,634.704 1193.24,615.806 "/>
<polyline clip-path="url(#clip390)" style="stroke:#000000; stroke-linecap:round; stroke-linejoin:round; stroke-width:4; stroke-opacity:1; fill:none" points="1276.45,634.704 1276.45,615.806 "/>
<polyline clip-path="url(#clip390)" style="stroke:#000000; stroke-linecap:round; stroke-linejoin:round; stroke-width:4; stroke-opacity:1; fill:none" points="1359.66,634.704 1359.66,615.806 "/>
<polyline clip-path="url(#clip390)" style="stroke:#000000; stroke-linecap:round; stroke-linejoin:round; stroke-width:4; stroke-opacity:1; fill:none" points="1442.87,634.704 1442.87,615.806 "/>
<polyline clip-path="url(#clip390)" style="stroke:#000000; stroke-linecap:round; stroke-linejoin:round; stroke-width:4; stroke-opacity:1; fill:none" points="1526.08,634.704 1526.08,615.806 "/>
<path clip-path="url(#clip390)" d="M1181.22 703.945 L1190.77 703.945 L1190.77 670.988 L1180.38 673.071 L1180.38 667.747 L1190.71 665.664 L1196.56 665.664 L1196.56 703.945 L1206.11 703.945 L1206.11 708.864 L1181.22 708.864 L1181.22 703.945 Z" fill="#000000" fill-rule="nonzero" fill-opacity="1" /><path clip-path="url(#clip390)" d="M1269.77 703.945 L1290.17 703.945 L1290.17 708.864 L1262.74 708.864 L1262.74 703.945 Q1266.07 700.501 1271.8 694.714 Q1277.55 688.898 1279.03 687.22 Q1281.84 684.066 1282.94 681.896 Q1284.06 679.697 1284.06 677.585 Q1284.06 674.142 1281.63 671.971 Q1279.23 669.801 1275.35 669.801 Q1272.61 669.801 1269.54 670.756 Q1266.5 671.711 1263.03 673.65 L1263.03 667.747 Q1266.56 666.329 1269.63 665.606 Q1272.69 664.882 1275.24 664.882 Q1281.95 664.882 1285.94 668.239 Q1289.94 671.595 1289.94 677.209 Q1289.94 679.871 1288.92 682.272 Q1287.94 684.645 1285.31 687.886 Q1284.58 688.725 1280.71 692.747 Q1276.83 696.74 1269.77 703.945 Z" fill="#000000" fill-rule="nonzero" fill-opacity="1" /><path clip-path="url(#clip390)" d="M1364.97 685.571 Q1369.17 686.468 1371.51 689.304 Q1373.88 692.139 1373.88 696.306 Q1373.88 702.7 1369.49 706.202 Q1365.09 709.703 1356.99 709.703 Q1354.27 709.703 1351.37 709.153 Q1348.51 708.632 1345.44 707.562 L1345.44 701.919 Q1347.87 703.337 1350.77 704.06 Q1353.66 704.784 1356.81 704.784 Q1362.31 704.784 1365.18 702.614 Q1368.07 700.444 1368.07 696.306 Q1368.07 692.486 1365.38 690.345 Q1362.72 688.175 1357.94 688.175 L1352.91 688.175 L1352.91 683.372 L1358.17 683.372 Q1362.48 683.372 1364.77 681.665 Q1367.06 679.929 1367.06 676.688 Q1367.06 673.36 1364.68 671.595 Q1362.34 669.801 1357.94 669.801 Q1355.54 669.801 1352.79 670.322 Q1350.04 670.843 1346.74 671.943 L1346.74 666.734 Q1350.07 665.808 1352.96 665.345 Q1355.89 664.882 1358.46 664.882 Q1365.12 664.882 1368.99 667.921 Q1372.87 670.93 1372.87 676.08 Q1372.87 679.668 1370.82 682.157 Q1368.76 684.616 1364.97 685.571 Z" fill="#000000" fill-rule="nonzero" fill-opacity="1" /><path clip-path="url(#clip390)" d="M1446.63 670.756 L1431.88 693.817 L1446.63 693.817 L1446.63 670.756 M1445.1 665.664 L1452.45 665.664 L1452.45 693.817 L1458.61 693.817 L1458.61 698.678 L1452.45 698.678 L1452.45 708.864 L1446.63 708.864 L1446.63 698.678 L1427.13 698.678 L1427.13 693.036 L1445.1 665.664 Z" fill="#000000" fill-rule="nonzero" fill-opacity="1" /><path clip-path="url(#clip390)" d="M1513.93 665.664 L1536.87 665.664 L1536.87 670.583 L1519.28 670.583 L1519.28 681.173 Q1520.55 680.739 1521.83 680.536 Q1523.1 680.305 1524.37 680.305 Q1531.61 680.305 1535.83 684.269 Q1540.06 688.233 1540.06 695.004 Q1540.06 701.977 1535.72 705.854 Q1531.38 709.703 1523.48 709.703 Q1520.76 709.703 1517.92 709.24 Q1515.11 708.777 1512.11 707.851 L1512.11 701.977 Q1514.71 703.395 1517.49 704.089 Q1520.27 704.784 1523.36 704.784 Q1528.37 704.784 1531.29 702.151 Q1534.21 699.518 1534.21 695.004 Q1534.21 690.49 1531.29 687.857 Q1528.37 685.224 1523.36 685.224 Q1521.02 685.224 1518.67 685.745 Q1516.36 686.265 1513.93 687.365 L1513.93 665.664 Z" fill="#000000" fill-rule="nonzero" fill-opacity="1" /><path clip-path="url(#clip390)" d="M1208.25 746.808 L1214.68 746.808 L1214.68 766.287 L1238.05 766.287 L1238.05 746.808 L1244.48 746.808 L1244.48 794.328 L1238.05 794.328 L1238.05 771.698 L1214.68 771.698 L1214.68 794.328 L1208.25 794.328 L1208.25 746.808 Z" fill="#000000" fill-rule="nonzero" fill-opacity="1" /><path clip-path="url(#clip390)" d="M1273.22 776.408 Q1266.12 776.408 1263.38 778.031 Q1260.64 779.655 1260.64 783.57 Q1260.64 786.689 1262.68 788.535 Q1264.75 790.349 1268.28 790.349 Q1273.15 790.349 1276.08 786.912 Q1279.04 783.442 1279.04 777.713 L1279.04 776.408 L1273.22 776.408 M1284.9 773.989 L1284.9 794.328 L1279.04 794.328 L1279.04 788.917 Q1277.04 792.163 1274.04 793.723 Q1271.05 795.251 1266.72 795.251 Q1261.25 795.251 1258 792.195 Q1254.79 789.108 1254.79 783.952 Q1254.79 777.936 1258.8 774.88 Q1262.84 771.825 1270.83 771.825 L1279.04 771.825 L1279.04 771.252 Q1279.04 767.21 1276.37 765.014 Q1273.73 762.786 1268.92 762.786 Q1265.86 762.786 1262.97 763.518 Q1260.07 764.25 1257.4 765.714 L1257.4 760.303 Q1260.61 759.062 1263.64 758.457 Q1266.66 757.82 1269.52 757.82 Q1277.26 757.82 1281.08 761.831 Q1284.9 765.841 1284.9 773.989 Z" fill="#000000" fill-rule="nonzero" fill-opacity="1" /><path clip-path="url(#clip390)" d="M1317.62 764.154 Q1316.63 763.581 1315.45 763.327 Q1314.31 763.04 1312.91 763.04 Q1307.94 763.04 1305.27 766.287 Q1302.63 769.501 1302.63 775.549 L1302.63 794.328 L1296.74 794.328 L1296.74 758.68 L1302.63 758.68 L1302.63 764.218 Q1304.47 760.971 1307.43 759.412 Q1310.39 757.82 1314.63 757.82 Q1315.23 757.82 1315.96 757.916 Q1316.69 757.979 1317.59 758.139 L1317.62 764.154 Z" fill="#000000" fill-rule="nonzero" fill-opacity="1" /><path clip-path="url(#clip390)" d="M1350.37 765.523 Q1352.57 761.576 1355.62 759.698 Q1358.68 757.82 1362.81 757.82 Q1368.38 757.82 1371.41 761.735 Q1374.43 765.618 1374.43 772.812 L1374.43 794.328 L1368.54 794.328 L1368.54 773.003 Q1368.54 767.878 1366.73 765.395 Q1364.91 762.913 1361.19 762.913 Q1356.64 762.913 1354 765.937 Q1351.36 768.96 1351.36 774.18 L1351.36 794.328 L1345.47 794.328 L1345.47 773.003 Q1345.47 767.846 1343.65 765.395 Q1341.84 762.913 1338.05 762.913 Q1333.56 762.913 1330.92 765.968 Q1328.28 768.992 1328.28 774.18 L1328.28 794.328 L1322.39 794.328 L1322.39 758.68 L1328.28 758.68 L1328.28 764.218 Q1330.29 760.939 1333.09 759.38 Q1335.89 757.82 1339.74 757.82 Q1343.62 757.82 1346.33 759.794 Q1349.06 761.767 1350.37 765.523 Z" fill="#000000" fill-rule="nonzero" fill-opacity="1" /><path clip-path="url(#clip390)" d="M1399.93 762.786 Q1395.22 762.786 1392.48 766.478 Q1389.74 770.138 1389.74 776.535 Q1389.74 782.933 1392.45 786.625 Q1395.18 790.285 1399.93 790.285 Q1404.6 790.285 1407.34 786.593 Q1410.08 782.901 1410.08 776.535 Q1410.08 770.202 1407.34 766.509 Q1404.6 762.786 1399.93 762.786 M1399.93 757.82 Q1407.56 757.82 1411.93 762.786 Q1416.29 767.751 1416.29 776.535 Q1416.29 785.288 1411.93 790.285 Q1407.56 795.251 1399.93 795.251 Q1392.26 795.251 1387.89 790.285 Q1383.57 785.288 1383.57 776.535 Q1383.57 767.751 1387.89 762.786 Q1392.26 757.82 1399.93 757.82 Z" fill="#000000" fill-rule="nonzero" fill-opacity="1" /><path clip-path="url(#clip390)" d="M1455.63 772.812 L1455.63 794.328 L1449.77 794.328 L1449.77 773.003 Q1449.77 767.942 1447.8 765.427 Q1445.82 762.913 1441.88 762.913 Q1437.13 762.913 1434.4 765.937 Q1431.66 768.96 1431.66 774.18 L1431.66 794.328 L1425.77 794.328 L1425.77 758.68 L1431.66 758.68 L1431.66 764.218 Q1433.76 761.003 1436.59 759.412 Q1439.46 757.82 1443.18 757.82 Q1449.32 757.82 1452.47 761.64 Q1455.63 765.427 1455.63 772.812 Z" fill="#000000" fill-rule="nonzero" fill-opacity="1" /><path clip-path="url(#clip390)" d="M1467.31 758.68 L1473.16 758.68 L1473.16 794.328 L1467.31 794.328 L1467.31 758.68 M1467.31 744.802 L1473.16 744.802 L1473.16 752.218 L1467.31 752.218 L1467.31 744.802 Z" fill="#000000" fill-rule="nonzero" fill-opacity="1" /><path clip-path="url(#clip390)" d="M1511.07 760.048 L1511.07 765.523 Q1508.59 764.154 1506.07 763.486 Q1503.59 762.786 1501.05 762.786 Q1495.35 762.786 1492.2 766.414 Q1489.05 770.011 1489.05 776.535 Q1489.05 783.06 1492.2 786.689 Q1495.35 790.285 1501.05 790.285 Q1503.59 790.285 1506.07 789.617 Q1508.59 788.917 1511.07 787.548 L1511.07 792.959 Q1508.62 794.105 1505.98 794.678 Q1503.37 795.251 1500.41 795.251 Q1492.36 795.251 1487.61 790.19 Q1482.87 785.129 1482.87 776.535 Q1482.87 767.814 1487.65 762.817 Q1492.45 757.82 1500.79 757.82 Q1503.5 757.82 1506.07 758.393 Q1508.65 758.934 1511.07 760.048 Z" fill="#000000" fill-rule="nonzero" fill-opacity="1" /><polyline clip-path="url(#clip390)" style="stroke:#000000; stroke-linecap:round; stroke-linejoin:round; stroke-width:4; stroke-opacity:1; fill:none" points="1183.26,634.704 1183.26,200.383 "/>
<polyline clip-path="url(#clip390)" style="stroke:#000000; stroke-linecap:round; stroke-linejoin:round; stroke-width:4; stroke-opacity:1; fill:none" points="1183.26,634.704 1202.16,634.704 "/>
<polyline clip-path="url(#clip390)" style="stroke:#000000; stroke-linecap:round; stroke-linejoin:round; stroke-width:4; stroke-opacity:1; fill:none" points="1183.26,417.543 1202.16,417.543 "/>
<polyline clip-path="url(#clip390)" style="stroke:#000000; stroke-linecap:round; stroke-linejoin:round; stroke-width:4; stroke-opacity:1; fill:none" points="1183.26,200.383 1202.16,200.383 "/>
<path clip-path="url(#clip390)" d="M1057.08 659.444 L1066.63 659.444 L1066.63 626.487 L1056.24 628.57 L1056.24 623.246 L1066.57 621.163 L1072.41 621.163 L1072.41 659.444 L1081.96 659.444 L1081.96 664.363 L1057.08 664.363 L1057.08 659.444 Z" fill="#000000" fill-rule="nonzero" fill-opacity="1" /><path clip-path="url(#clip390)" d="M1106.27 625.011 Q1101.75 625.011 1099.47 629.467 Q1097.21 633.895 1097.21 642.807 Q1097.21 651.69 1099.47 656.146 Q1101.75 660.573 1106.27 660.573 Q1110.81 660.573 1113.07 656.146 Q1115.35 651.69 1115.35 642.807 Q1115.35 633.895 1113.07 629.467 Q1110.81 625.011 1106.27 625.011 M1106.27 620.382 Q1113.53 620.382 1117.35 626.14 Q1121.2 631.869 1121.2 642.807 Q1121.2 653.715 1117.35 659.473 Q1113.53 665.202 1106.27 665.202 Q1099 665.202 1095.16 659.473 Q1091.34 653.715 1091.34 642.807 Q1091.34 631.869 1095.16 626.14 Q1099 620.382 1106.27 620.382 Z" fill="#000000" fill-rule="nonzero" fill-opacity="1" /><path clip-path="url(#clip390)" d="M1133.33 598.127 Q1129.66 598.127 1127.8 601.747 Q1125.97 605.344 1125.97 612.585 Q1125.97 619.803 1127.8 623.423 Q1129.66 627.02 1133.33 627.02 Q1137.02 627.02 1138.85 623.423 Q1140.71 619.803 1140.71 612.585 Q1140.71 605.344 1138.85 601.747 Q1137.02 598.127 1133.33 598.127 M1133.33 594.365 Q1139.23 594.365 1142.33 599.044 Q1145.46 603.699 1145.46 612.585 Q1145.46 621.449 1142.33 626.127 Q1139.23 630.782 1133.33 630.782 Q1127.43 630.782 1124.3 626.127 Q1121.2 621.449 1121.2 612.585 Q1121.2 603.699 1124.3 599.044 Q1127.43 594.365 1133.33 594.365 Z" fill="#000000" fill-rule="nonzero" fill-opacity="1" /><path clip-path="url(#clip390)" d="M1058.63 442.284 L1068.18 442.284 L1068.18 409.327 L1057.79 411.41 L1057.79 406.086 L1068.12 404.003 L1073.96 404.003 L1073.96 442.284 L1083.51 442.284 L1083.51 447.203 L1058.63 447.203 L1058.63 442.284 Z" fill="#000000" fill-rule="nonzero" fill-opacity="1" /><path clip-path="url(#clip390)" d="M1107.82 407.851 Q1103.31 407.851 1101.02 412.307 Q1098.76 416.734 1098.76 425.646 Q1098.76 434.529 1101.02 438.985 Q1103.31 443.412 1107.82 443.412 Q1112.36 443.412 1114.62 438.985 Q1116.9 434.529 1116.9 425.646 Q1116.9 416.734 1114.62 412.307 Q1112.36 407.851 1107.82 407.851 M1107.82 403.221 Q1115.08 403.221 1118.9 408.979 Q1122.75 414.709 1122.75 425.646 Q1122.75 436.555 1118.9 442.313 Q1115.08 448.042 1107.82 448.042 Q1100.56 448.042 1096.71 442.313 Q1092.89 436.555 1092.89 425.646 Q1092.89 414.709 1096.71 408.979 Q1100.56 403.221 1107.82 403.221 Z" fill="#000000" fill-rule="nonzero" fill-opacity="1" /><path clip-path="url(#clip390)" d="M1124.23 377.84 L1142.87 377.84 L1142.87 381.836 L1128.58 381.836 L1128.58 390.441 Q1129.61 390.088 1130.65 389.924 Q1131.68 389.736 1132.72 389.736 Q1138.59 389.736 1142.03 392.956 Q1145.46 396.177 1145.46 401.678 Q1145.46 407.344 1141.93 410.495 Q1138.41 413.621 1131.99 413.621 Q1129.78 413.621 1127.47 413.245 Q1125.19 412.869 1122.75 412.117 L1122.75 407.344 Q1124.87 408.496 1127.12 409.061 Q1129.38 409.625 1131.89 409.625 Q1135.96 409.625 1138.34 407.485 Q1140.71 405.346 1140.71 401.678 Q1140.71 398.011 1138.34 395.872 Q1135.96 393.732 1131.89 393.732 Q1129.99 393.732 1128.09 394.155 Q1126.21 394.579 1124.23 395.472 L1124.23 377.84 Z" fill="#000000" fill-rule="nonzero" fill-opacity="1" /><path clip-path="url(#clip390)" d="M1028.56 225.123 L1038.11 225.123 L1038.11 192.166 L1027.72 194.249 L1027.72 188.925 L1038.05 186.842 L1043.9 186.842 L1043.9 225.123 L1053.44 225.123 L1053.44 230.042 L1028.56 230.042 L1028.56 225.123 Z" fill="#000000" fill-rule="nonzero" fill-opacity="1" /><path clip-path="url(#clip390)" d="M1077.75 190.69 Q1073.24 190.69 1070.95 195.146 Q1068.69 199.574 1068.69 208.486 Q1068.69 217.369 1070.95 221.825 Q1073.24 226.252 1077.75 226.252 Q1082.29 226.252 1084.55 221.825 Q1086.84 217.369 1086.84 208.486 Q1086.84 199.574 1084.55 195.146 Q1082.29 190.69 1077.75 190.69 M1077.75 186.061 Q1085.01 186.061 1088.83 191.819 Q1092.68 197.548 1092.68 208.486 Q1092.68 219.394 1088.83 225.152 Q1085.01 230.881 1077.75 230.881 Q1070.49 230.881 1066.64 225.152 Q1062.82 219.394 1062.82 208.486 Q1062.82 197.548 1066.64 191.819 Q1070.49 186.061 1077.75 186.061 Z" fill="#000000" fill-rule="nonzero" fill-opacity="1" /><path clip-path="url(#clip390)" d="M1093.36 191.782 L1101.12 191.782 L1101.12 165.005 L1092.68 166.698 L1092.68 162.372 L1101.07 160.679 L1105.82 160.679 L1105.82 191.782 L1113.58 191.782 L1113.58 195.779 L1093.36 195.779 L1093.36 191.782 Z" fill="#000000" fill-rule="nonzero" fill-opacity="1" /><path clip-path="url(#clip390)" d="M1133.33 163.806 Q1129.66 163.806 1127.8 167.426 Q1125.97 171.023 1125.97 178.264 Q1125.97 185.482 1127.8 189.102 Q1129.66 192.699 1133.33 192.699 Q1137.02 192.699 1138.85 189.102 Q1140.71 185.482 1140.71 178.264 Q1140.71 171.023 1138.85 167.426 Q1137.02 163.806 1133.33 163.806 M1133.33 160.044 Q1139.23 160.044 1142.33 164.723 Q1145.46 169.378 1145.46 178.264 Q1145.46 187.128 1142.33 191.806 Q1139.23 196.461 1133.33 196.461 Q1127.43 196.461 1124.3 191.806 Q1121.2 187.128 1121.2 178.264 Q1121.2 169.378 1124.3 164.723 Q1127.43 160.044 1133.33 160.044 Z" fill="#000000" fill-rule="nonzero" fill-opacity="1" /><path clip-path="url(#clip390)" d="M1318.03 10.368 L1325.05 10.368 L1325.05 31.6179 L1350.53 31.6179 L1350.53 10.368 L1357.54 10.368 L1357.54 62.208 L1350.53 62.208 L1350.53 37.5206 L1325.05 37.5206 L1325.05 62.208 L1318.03 62.208 L1318.03 10.368 Z" fill="#000000" fill-rule="nonzero" fill-opacity="1" /><path clip-path="url(#clip390)" d="M1371.5 10.368 L1401.29 10.368 L1401.29 16.2707 L1378.52 16.2707 L1378.52 31.5484 L1399.07 31.5484 L1399.07 37.4512 L1378.52 37.4512 L1378.52 62.208 L1371.5 62.208 L1371.5 10.368 Z" fill="#000000" fill-rule="nonzero" fill-opacity="1" /><polyline clip-path="url(#clip393)" style="stroke:#0000ff; stroke-linecap:round; stroke-linejoin:round; stroke-width:12; stroke-opacity:1; fill:none" points="1193.24,320.073 1276.45,367.05 1359.66,379.455 1442.87,391.261 1526.08,404.195 "/>
<polyline clip-path="url(#clip393)" style="stroke:#7f007f; stroke-linecap:round; stroke-linejoin:round; stroke-width:12; stroke-opacity:1; fill:none" points="1193.24,320.667 1276.45,385.626 1359.66,409.493 1442.87,437.829 1526.08,501.56 "/>
<polyline clip-path="url(#clip393)" style="stroke:#ff0000; stroke-linecap:round; stroke-linejoin:round; stroke-width:12; stroke-opacity:1; fill:none" points="1193.24,302.233 1276.45,367.828 1359.66,404.049 1442.87,449.68 1526.08,494.716 "/>
<path clip-path="url(#clip390)" d="M1195.02 620.226 L1398.68 620.226 L1398.68 412.866 L1195.02 412.866  Z" fill="#ffffff" fill-rule="evenodd" fill-opacity="1"/>
<polyline clip-path="url(#clip390)" style="stroke:#000000; stroke-linecap:round; stroke-linejoin:round; stroke-width:4; stroke-opacity:1; fill:none" points="1195.02,620.226 1398.68,620.226 1398.68,412.866 1195.02,412.866 1195.02,620.226 "/>
<polyline clip-path="url(#clip390)" style="stroke:#0000ff; stroke-linecap:round; stroke-linejoin:round; stroke-width:12; stroke-opacity:1; fill:none" points="1198.94,464.706 1222.46,464.706 "/>
<path clip-path="url(#clip390)" d="M1241.98 451.5 L1230.18 469.949 L1241.98 469.949 L1241.98 451.5 M1240.76 447.426 L1246.64 447.426 L1246.64 469.949 L1251.57 469.949 L1251.57 473.838 L1246.64 473.838 L1246.64 481.986 L1241.98 481.986 L1241.98 473.838 L1226.38 473.838 L1226.38 469.324 L1240.76 447.426 Z" fill="#000000" fill-rule="nonzero" fill-opacity="1" /><path clip-path="url(#clip390)" d="M1269.3 450.505 Q1265.69 450.505 1263.86 454.07 Q1262.05 457.611 1262.05 464.741 Q1262.05 471.847 1263.86 475.412 Q1265.69 478.954 1269.3 478.954 Q1272.93 478.954 1274.74 475.412 Q1276.57 471.847 1276.57 464.741 Q1276.57 457.611 1274.74 454.07 Q1272.93 450.505 1269.3 450.505 M1269.3 446.801 Q1275.11 446.801 1278.16 451.408 Q1281.24 455.991 1281.24 464.741 Q1281.24 473.468 1278.16 478.074 Q1275.11 482.658 1269.3 482.658 Q1263.49 482.658 1260.41 478.074 Q1257.35 473.468 1257.35 464.741 Q1257.35 455.991 1260.41 451.408 Q1263.49 446.801 1269.3 446.801 Z" fill="#000000" fill-rule="nonzero" fill-opacity="1" /><path clip-path="url(#clip390)" d="M1286.7 467.334 L1305.78 467.334 L1305.78 470.667 L1286.7 470.667 L1286.7 467.334 Z" fill="#000000" fill-rule="nonzero" fill-opacity="1" /><path clip-path="url(#clip390)" d="M1323.74 462.843 Q1320.59 462.843 1318.74 464.996 Q1316.91 467.148 1316.91 470.898 Q1316.91 474.625 1318.74 476.801 Q1320.59 478.954 1323.74 478.954 Q1326.89 478.954 1328.72 476.801 Q1330.57 474.625 1330.57 470.898 Q1330.57 467.148 1328.72 464.996 Q1326.89 462.843 1323.74 462.843 M1333.02 448.19 L1333.02 452.449 Q1331.26 451.616 1329.46 451.176 Q1327.68 450.736 1325.92 450.736 Q1321.29 450.736 1318.83 453.861 Q1316.4 456.986 1316.06 463.306 Q1317.42 461.292 1319.48 460.227 Q1321.54 459.139 1324.02 459.139 Q1329.23 459.139 1332.24 462.31 Q1335.27 465.459 1335.27 470.898 Q1335.27 476.222 1332.12 479.44 Q1328.97 482.658 1323.74 482.658 Q1317.75 482.658 1314.57 478.074 Q1311.4 473.468 1311.4 464.741 Q1311.4 456.547 1315.29 451.685 Q1319.18 446.801 1325.73 446.801 Q1327.49 446.801 1329.27 447.148 Q1331.08 447.496 1333.02 448.19 Z" fill="#000000" fill-rule="nonzero" fill-opacity="1" /><path clip-path="url(#clip390)" d="M1353.32 450.505 Q1349.71 450.505 1347.88 454.07 Q1346.08 457.611 1346.08 464.741 Q1346.08 471.847 1347.88 475.412 Q1349.71 478.954 1353.32 478.954 Q1356.96 478.954 1358.76 475.412 Q1360.59 471.847 1360.59 464.741 Q1360.59 457.611 1358.76 454.07 Q1356.96 450.505 1353.32 450.505 M1353.32 446.801 Q1359.13 446.801 1362.19 451.408 Q1365.27 455.991 1365.27 464.741 Q1365.27 473.468 1362.19 478.074 Q1359.13 482.658 1353.32 482.658 Q1347.51 482.658 1344.44 478.074 Q1341.38 473.468 1341.38 464.741 Q1341.38 455.991 1344.44 451.408 Q1347.51 446.801 1353.32 446.801 Z" fill="#000000" fill-rule="nonzero" fill-opacity="1" /><polyline clip-path="url(#clip390)" style="stroke:#7f007f; stroke-linecap:round; stroke-linejoin:round; stroke-width:12; stroke-opacity:1; fill:none" points="1198.94,516.546 1222.46,516.546 "/>
<path clip-path="url(#clip390)" d="M1238.72 514.683 Q1235.57 514.683 1233.72 516.836 Q1231.89 518.988 1231.89 522.738 Q1231.89 526.465 1233.72 528.641 Q1235.57 530.794 1238.72 530.794 Q1241.87 530.794 1243.7 528.641 Q1245.55 526.465 1245.55 522.738 Q1245.55 518.988 1243.7 516.836 Q1241.87 514.683 1238.72 514.683 M1248 500.03 L1248 504.289 Q1246.24 503.456 1244.44 503.016 Q1242.65 502.576 1240.89 502.576 Q1236.26 502.576 1233.81 505.701 Q1231.38 508.826 1231.03 515.146 Q1232.4 513.132 1234.46 512.067 Q1236.52 510.979 1239 510.979 Q1244.2 510.979 1247.21 514.15 Q1250.25 517.299 1250.25 522.738 Q1250.25 528.062 1247.1 531.28 Q1243.95 534.498 1238.72 534.498 Q1232.72 534.498 1229.55 529.914 Q1226.38 525.308 1226.38 516.581 Q1226.38 508.387 1230.27 503.525 Q1234.16 498.641 1240.71 498.641 Q1242.47 498.641 1244.25 498.988 Q1246.06 499.336 1248 500.03 Z" fill="#000000" fill-rule="nonzero" fill-opacity="1" /><path clip-path="url(#clip390)" d="M1268.3 502.345 Q1264.69 502.345 1262.86 505.91 Q1261.06 509.451 1261.06 516.581 Q1261.06 523.687 1262.86 527.252 Q1264.69 530.794 1268.3 530.794 Q1271.94 530.794 1273.74 527.252 Q1275.57 523.687 1275.57 516.581 Q1275.57 509.451 1273.74 505.91 Q1271.94 502.345 1268.3 502.345 M1268.3 498.641 Q1274.11 498.641 1277.17 503.248 Q1280.25 507.831 1280.25 516.581 Q1280.25 525.308 1277.17 529.914 Q1274.11 534.498 1268.3 534.498 Q1262.49 534.498 1259.41 529.914 Q1256.36 525.308 1256.36 516.581 Q1256.36 507.831 1259.41 503.248 Q1262.49 498.641 1268.3 498.641 Z" fill="#000000" fill-rule="nonzero" fill-opacity="1" /><path clip-path="url(#clip390)" d="M1285.71 519.174 L1304.78 519.174 L1304.78 522.507 L1285.71 522.507 L1285.71 519.174 Z" fill="#000000" fill-rule="nonzero" fill-opacity="1" /><path clip-path="url(#clip390)" d="M1312.31 533.109 L1312.31 528.849 Q1314.07 529.683 1315.87 530.123 Q1317.68 530.562 1319.41 530.562 Q1324.04 530.562 1326.47 527.461 Q1328.93 524.336 1329.27 517.993 Q1327.93 519.984 1325.87 521.049 Q1323.81 522.113 1321.31 522.113 Q1316.13 522.113 1313.09 518.988 Q1310.08 515.84 1310.08 510.4 Q1310.08 505.076 1313.23 501.859 Q1316.38 498.641 1321.61 498.641 Q1327.61 498.641 1330.75 503.248 Q1333.93 507.831 1333.93 516.581 Q1333.93 524.752 1330.04 529.636 Q1326.17 534.498 1319.62 534.498 Q1317.86 534.498 1316.06 534.15 Q1314.25 533.803 1312.31 533.109 M1321.61 518.456 Q1324.76 518.456 1326.59 516.303 Q1328.44 514.15 1328.44 510.4 Q1328.44 506.674 1326.59 504.521 Q1324.76 502.345 1321.61 502.345 Q1318.46 502.345 1316.61 504.521 Q1314.78 506.674 1314.78 510.4 Q1314.78 514.15 1316.61 516.303 Q1318.46 518.456 1321.61 518.456 Z" fill="#000000" fill-rule="nonzero" fill-opacity="1" /><path clip-path="url(#clip390)" d="M1352.33 502.345 Q1348.72 502.345 1346.89 505.91 Q1345.08 509.451 1345.08 516.581 Q1345.08 523.687 1346.89 527.252 Q1348.72 530.794 1352.33 530.794 Q1355.96 530.794 1357.77 527.252 Q1359.6 523.687 1359.6 516.581 Q1359.6 509.451 1357.77 505.91 Q1355.96 502.345 1352.33 502.345 M1352.33 498.641 Q1358.14 498.641 1361.19 503.248 Q1364.27 507.831 1364.27 516.581 Q1364.27 525.308 1361.19 529.914 Q1358.14 534.498 1352.33 534.498 Q1346.52 534.498 1343.44 529.914 Q1340.38 525.308 1340.38 516.581 Q1340.38 507.831 1343.44 503.248 Q1346.52 498.641 1352.33 498.641 Z" fill="#000000" fill-rule="nonzero" fill-opacity="1" /><polyline clip-path="url(#clip390)" style="stroke:#ff0000; stroke-linecap:round; stroke-linejoin:round; stroke-width:12; stroke-opacity:1; fill:none" points="1198.94,568.386 1222.46,568.386 "/>
<path clip-path="url(#clip390)" d="M1228.6 584.949 L1228.6 580.689 Q1230.36 581.523 1232.17 581.963 Q1233.97 582.402 1235.71 582.402 Q1240.34 582.402 1242.77 579.301 Q1245.22 576.176 1245.57 569.833 Q1244.23 571.824 1242.17 572.889 Q1240.11 573.953 1237.61 573.953 Q1232.42 573.953 1229.39 570.828 Q1226.38 567.68 1226.38 562.24 Q1226.38 556.916 1229.53 553.699 Q1232.68 550.481 1237.91 550.481 Q1243.9 550.481 1247.05 555.088 Q1250.22 559.671 1250.22 568.421 Q1250.22 576.592 1246.33 581.476 Q1242.47 586.338 1235.92 586.338 Q1234.16 586.338 1232.35 585.99 Q1230.55 585.643 1228.6 584.949 M1237.91 570.296 Q1241.06 570.296 1242.89 568.143 Q1244.74 565.99 1244.74 562.24 Q1244.74 558.514 1242.89 556.361 Q1241.06 554.185 1237.91 554.185 Q1234.76 554.185 1232.91 556.361 Q1231.08 558.514 1231.08 562.24 Q1231.08 565.99 1232.91 568.143 Q1234.76 570.296 1237.91 570.296 Z" fill="#000000" fill-rule="nonzero" fill-opacity="1" /><path clip-path="url(#clip390)" d="M1268.63 554.185 Q1265.01 554.185 1263.19 557.75 Q1261.38 561.291 1261.38 568.421 Q1261.38 575.527 1263.19 579.092 Q1265.01 582.634 1268.63 582.634 Q1272.26 582.634 1274.07 579.092 Q1275.89 575.527 1275.89 568.421 Q1275.89 561.291 1274.07 557.75 Q1272.26 554.185 1268.63 554.185 M1268.63 550.481 Q1274.44 550.481 1277.49 555.088 Q1280.57 559.671 1280.57 568.421 Q1280.57 577.148 1277.49 581.754 Q1274.44 586.338 1268.63 586.338 Q1262.82 586.338 1259.74 581.754 Q1256.68 577.148 1256.68 568.421 Q1256.68 559.671 1259.74 555.088 Q1262.82 550.481 1268.63 550.481 Z" fill="#000000" fill-rule="nonzero" fill-opacity="1" /><path clip-path="url(#clip390)" d="M1286.03 571.014 L1305.11 571.014 L1305.11 574.347 L1286.03 574.347 L1286.03 571.014 Z" fill="#000000" fill-rule="nonzero" fill-opacity="1" /><path clip-path="url(#clip390)" d="M1313.3 581.731 L1320.94 581.731 L1320.94 555.365 L1312.63 557.032 L1312.63 552.773 L1320.89 551.106 L1325.57 551.106 L1325.57 581.731 L1333.21 581.731 L1333.21 585.666 L1313.3 585.666 L1313.3 581.731 Z" fill="#000000" fill-rule="nonzero" fill-opacity="1" /><path clip-path="url(#clip390)" d="M1356.82 567.032 Q1360.18 567.75 1362.05 570.018 Q1363.95 572.287 1363.95 575.62 Q1363.95 580.736 1360.43 583.537 Q1356.91 586.338 1350.43 586.338 Q1348.25 586.338 1345.94 585.898 Q1343.65 585.481 1341.19 584.625 L1341.19 580.111 Q1343.14 581.245 1345.45 581.824 Q1347.77 582.402 1350.29 582.402 Q1354.69 582.402 1356.98 580.666 Q1359.3 578.93 1359.3 575.62 Q1359.3 572.564 1357.14 570.852 Q1355.01 569.115 1351.19 569.115 L1347.17 569.115 L1347.17 565.273 L1351.38 565.273 Q1354.83 565.273 1356.66 563.907 Q1358.49 562.518 1358.49 559.926 Q1358.49 557.264 1356.59 555.852 Q1354.71 554.416 1351.19 554.416 Q1349.27 554.416 1347.07 554.833 Q1344.88 555.25 1342.24 556.129 L1342.24 551.963 Q1344.9 551.222 1347.21 550.852 Q1349.55 550.481 1351.61 550.481 Q1356.94 550.481 1360.04 552.912 Q1363.14 555.319 1363.14 559.44 Q1363.14 562.31 1361.5 564.301 Q1359.85 566.268 1356.82 567.032 Z" fill="#000000" fill-rule="nonzero" fill-opacity="1" /><path clip-path="url(#clip390)" d="M1382.81 554.185 Q1379.2 554.185 1377.38 557.75 Q1375.57 561.291 1375.57 568.421 Q1375.57 575.527 1377.38 579.092 Q1379.2 582.634 1382.81 582.634 Q1386.45 582.634 1388.25 579.092 Q1390.08 575.527 1390.08 568.421 Q1390.08 561.291 1388.25 557.75 Q1386.45 554.185 1382.81 554.185 M1382.81 550.481 Q1388.63 550.481 1391.68 555.088 Q1394.76 559.671 1394.76 568.421 Q1394.76 577.148 1391.68 581.754 Q1388.63 586.338 1382.81 586.338 Q1377 586.338 1373.93 581.754 Q1370.87 577.148 1370.87 568.421 Q1370.87 559.671 1373.93 555.088 Q1377 550.481 1382.81 550.481 Z" fill="#000000" fill-rule="nonzero" fill-opacity="1" /><path clip-path="url(#clip390)" d="M2009.71 634.704 L2362.52 634.704 L2362.52 200.383 L2009.71 200.383  Z" fill="#ffffff" fill-rule="evenodd" fill-opacity="1"/>
<defs>
  <clipPath id="clip394">
    <rect x="2009" y="200" width="354" height="435"/>
  </clipPath>
</defs>
<polyline clip-path="url(#clip394)" style="stroke:#000000; stroke-linecap:round; stroke-linejoin:round; stroke-width:2; stroke-opacity:0.1; fill:none" points="2019.7,634.704 2019.7,200.383 "/>
<polyline clip-path="url(#clip394)" style="stroke:#000000; stroke-linecap:round; stroke-linejoin:round; stroke-width:2; stroke-opacity:0.1; fill:none" points="2102.91,634.704 2102.91,200.383 "/>
<polyline clip-path="url(#clip394)" style="stroke:#000000; stroke-linecap:round; stroke-linejoin:round; stroke-width:2; stroke-opacity:0.1; fill:none" points="2186.12,634.704 2186.12,200.383 "/>
<polyline clip-path="url(#clip394)" style="stroke:#000000; stroke-linecap:round; stroke-linejoin:round; stroke-width:2; stroke-opacity:0.1; fill:none" points="2269.33,634.704 2269.33,200.383 "/>
<polyline clip-path="url(#clip394)" style="stroke:#000000; stroke-linecap:round; stroke-linejoin:round; stroke-width:2; stroke-opacity:0.1; fill:none" points="2352.53,634.704 2352.53,200.383 "/>
<polyline clip-path="url(#clip394)" style="stroke:#000000; stroke-linecap:round; stroke-linejoin:round; stroke-width:2; stroke-opacity:0.1; fill:none" points="2009.71,634.704 2362.52,634.704 "/>
<polyline clip-path="url(#clip394)" style="stroke:#000000; stroke-linecap:round; stroke-linejoin:round; stroke-width:2; stroke-opacity:0.1; fill:none" points="2009.71,417.543 2362.52,417.543 "/>
<polyline clip-path="url(#clip394)" style="stroke:#000000; stroke-linecap:round; stroke-linejoin:round; stroke-width:2; stroke-opacity:0.1; fill:none" points="2009.71,200.383 2362.52,200.383 "/>
<polyline clip-path="url(#clip390)" style="stroke:#000000; stroke-linecap:round; stroke-linejoin:round; stroke-width:4; stroke-opacity:1; fill:none" points="2009.71,634.704 2362.52,634.704 "/>
<polyline clip-path="url(#clip390)" style="stroke:#000000; stroke-linecap:round; stroke-linejoin:round; stroke-width:4; stroke-opacity:1; fill:none" points="2019.7,634.704 2019.7,615.806 "/>
<polyline clip-path="url(#clip390)" style="stroke:#000000; stroke-linecap:round; stroke-linejoin:round; stroke-width:4; stroke-opacity:1; fill:none" points="2102.91,634.704 2102.91,615.806 "/>
<polyline clip-path="url(#clip390)" style="stroke:#000000; stroke-linecap:round; stroke-linejoin:round; stroke-width:4; stroke-opacity:1; fill:none" points="2186.12,634.704 2186.12,615.806 "/>
<polyline clip-path="url(#clip390)" style="stroke:#000000; stroke-linecap:round; stroke-linejoin:round; stroke-width:4; stroke-opacity:1; fill:none" points="2269.33,634.704 2269.33,615.806 "/>
<polyline clip-path="url(#clip390)" style="stroke:#000000; stroke-linecap:round; stroke-linejoin:round; stroke-width:4; stroke-opacity:1; fill:none" points="2352.53,634.704 2352.53,615.806 "/>
<path clip-path="url(#clip390)" d="M2007.68 703.945 L2017.22 703.945 L2017.22 670.988 L2006.84 673.071 L2006.84 667.747 L2017.17 665.664 L2023.01 665.664 L2023.01 703.945 L2032.56 703.945 L2032.56 708.864 L2007.68 708.864 L2007.68 703.945 Z" fill="#000000" fill-rule="nonzero" fill-opacity="1" /><path clip-path="url(#clip390)" d="M2096.22 703.945 L2116.62 703.945 L2116.62 708.864 L2089.19 708.864 L2089.19 703.945 Q2092.52 700.501 2098.25 694.714 Q2104.01 688.898 2105.48 687.22 Q2108.29 684.066 2109.39 681.896 Q2110.52 679.697 2110.52 677.585 Q2110.52 674.142 2108.09 671.971 Q2105.69 669.801 2101.81 669.801 Q2099.06 669.801 2095.99 670.756 Q2092.95 671.711 2089.48 673.65 L2089.48 667.747 Q2093.01 666.329 2096.08 665.606 Q2099.15 664.882 2101.69 664.882 Q2108.41 664.882 2112.4 668.239 Q2116.39 671.595 2116.39 677.209 Q2116.39 679.871 2115.38 682.272 Q2114.39 684.645 2111.76 687.886 Q2111.04 688.725 2107.16 692.747 Q2103.28 696.74 2096.22 703.945 Z" fill="#000000" fill-rule="nonzero" fill-opacity="1" /><path clip-path="url(#clip390)" d="M2191.43 685.571 Q2195.62 686.468 2197.97 689.304 Q2200.34 692.139 2200.34 696.306 Q2200.34 702.7 2195.94 706.202 Q2191.54 709.703 2183.44 709.703 Q2180.72 709.703 2177.83 709.153 Q2174.96 708.632 2171.89 707.562 L2171.89 701.919 Q2174.33 703.337 2177.22 704.06 Q2180.11 704.784 2183.27 704.784 Q2188.76 704.784 2191.63 702.614 Q2194.52 700.444 2194.52 696.306 Q2194.52 692.486 2191.83 690.345 Q2189.17 688.175 2184.39 688.175 L2179.36 688.175 L2179.36 683.372 L2184.63 683.372 Q2188.94 683.372 2191.22 681.665 Q2193.51 679.929 2193.51 676.688 Q2193.51 673.36 2191.14 671.595 Q2188.79 669.801 2184.39 669.801 Q2181.99 669.801 2179.24 670.322 Q2176.5 670.843 2173.2 671.943 L2173.2 666.734 Q2176.52 665.808 2179.42 665.345 Q2182.34 664.882 2184.92 664.882 Q2191.57 664.882 2195.45 667.921 Q2199.33 670.93 2199.33 676.08 Q2199.33 679.668 2197.27 682.157 Q2195.22 684.616 2191.43 685.571 Z" fill="#000000" fill-rule="nonzero" fill-opacity="1" /><path clip-path="url(#clip390)" d="M2273.09 670.756 L2258.33 693.817 L2273.09 693.817 L2273.09 670.756 M2271.55 665.664 L2278.9 665.664 L2278.9 693.817 L2285.07 693.817 L2285.07 698.678 L2278.9 698.678 L2278.9 708.864 L2273.09 708.864 L2273.09 698.678 L2253.58 698.678 L2253.58 693.036 L2271.55 665.664 Z" fill="#000000" fill-rule="nonzero" fill-opacity="1" /><path clip-path="url(#clip390)" d="M2340.38 665.664 L2363.33 665.664 L2363.33 670.583 L2345.73 670.583 L2345.73 681.173 Q2347.01 680.739 2348.28 680.536 Q2349.55 680.305 2350.83 680.305 Q2358.06 680.305 2362.29 684.269 Q2366.51 688.233 2366.51 695.004 Q2366.51 701.977 2362.17 705.854 Q2357.83 709.703 2349.93 709.703 Q2347.21 709.703 2344.37 709.24 Q2341.57 708.777 2338.56 707.851 L2338.56 701.977 Q2341.16 703.395 2343.94 704.089 Q2346.72 704.784 2349.81 704.784 Q2354.82 704.784 2357.74 702.151 Q2360.67 699.518 2360.67 695.004 Q2360.67 690.49 2357.74 687.857 Q2354.82 685.224 2349.81 685.224 Q2347.47 685.224 2345.13 685.745 Q2342.81 686.265 2340.38 687.365 L2340.38 665.664 Z" fill="#000000" fill-rule="nonzero" fill-opacity="1" /><path clip-path="url(#clip390)" d="M2034.71 746.808 L2041.14 746.808 L2041.14 766.287 L2064.5 766.287 L2064.5 746.808 L2070.93 746.808 L2070.93 794.328 L2064.5 794.328 L2064.5 771.698 L2041.14 771.698 L2041.14 794.328 L2034.71 794.328 L2034.71 746.808 Z" fill="#000000" fill-rule="nonzero" fill-opacity="1" /><path clip-path="url(#clip390)" d="M2099.67 776.408 Q2092.57 776.408 2089.84 778.031 Q2087.1 779.655 2087.1 783.57 Q2087.1 786.689 2089.13 788.535 Q2091.2 790.349 2094.74 790.349 Q2099.61 790.349 2102.53 786.912 Q2105.49 783.442 2105.49 777.713 L2105.49 776.408 L2099.67 776.408 M2111.35 773.989 L2111.35 794.328 L2105.49 794.328 L2105.49 788.917 Q2103.49 792.163 2100.5 793.723 Q2097.51 795.251 2093.18 795.251 Q2087.7 795.251 2084.46 792.195 Q2081.24 789.108 2081.24 783.952 Q2081.24 777.936 2085.25 774.88 Q2089.29 771.825 2097.28 771.825 L2105.49 771.825 L2105.49 771.252 Q2105.49 767.21 2102.82 765.014 Q2100.18 762.786 2095.37 762.786 Q2092.32 762.786 2089.42 763.518 Q2086.53 764.25 2083.85 765.714 L2083.85 760.303 Q2087.07 759.062 2090.09 758.457 Q2093.11 757.82 2095.98 757.82 Q2103.71 757.82 2107.53 761.831 Q2111.35 765.841 2111.35 773.989 Z" fill="#000000" fill-rule="nonzero" fill-opacity="1" /><path clip-path="url(#clip390)" d="M2144.07 764.154 Q2143.08 763.581 2141.91 763.327 Q2140.76 763.04 2139.36 763.04 Q2134.4 763.04 2131.72 766.287 Q2129.08 769.501 2129.08 775.549 L2129.08 794.328 L2123.19 794.328 L2123.19 758.68 L2129.08 758.68 L2129.08 764.218 Q2130.93 760.971 2133.89 759.412 Q2136.85 757.82 2141.08 757.82 Q2141.68 757.82 2142.42 757.916 Q2143.15 757.979 2144.04 758.139 L2144.07 764.154 Z" fill="#000000" fill-rule="nonzero" fill-opacity="1" /><path clip-path="url(#clip390)" d="M2176.82 765.523 Q2179.02 761.576 2182.07 759.698 Q2185.13 757.82 2189.27 757.82 Q2194.84 757.82 2197.86 761.735 Q2200.88 765.618 2200.88 772.812 L2200.88 794.328 L2195 794.328 L2195 773.003 Q2195 767.878 2193.18 765.395 Q2191.37 762.913 2187.64 762.913 Q2183.09 762.913 2180.45 765.937 Q2177.81 768.96 2177.81 774.18 L2177.81 794.328 L2171.92 794.328 L2171.92 773.003 Q2171.92 767.846 2170.11 765.395 Q2168.29 762.913 2164.5 762.913 Q2160.02 762.913 2157.38 765.968 Q2154.73 768.992 2154.73 774.18 L2154.73 794.328 L2148.85 794.328 L2148.85 758.68 L2154.73 758.68 L2154.73 764.218 Q2156.74 760.939 2159.54 759.38 Q2162.34 757.82 2166.19 757.82 Q2170.07 757.82 2172.78 759.794 Q2175.52 761.767 2176.82 765.523 Z" fill="#000000" fill-rule="nonzero" fill-opacity="1" /><path clip-path="url(#clip390)" d="M2226.38 762.786 Q2221.67 762.786 2218.93 766.478 Q2216.19 770.138 2216.19 776.535 Q2216.19 782.933 2218.9 786.625 Q2221.64 790.285 2226.38 790.285 Q2231.06 790.285 2233.8 786.593 Q2236.53 782.901 2236.53 776.535 Q2236.53 770.202 2233.8 766.509 Q2231.06 762.786 2226.38 762.786 M2226.38 757.82 Q2234.02 757.82 2238.38 762.786 Q2242.74 767.751 2242.74 776.535 Q2242.74 785.288 2238.38 790.285 Q2234.02 795.251 2226.38 795.251 Q2218.71 795.251 2214.35 790.285 Q2210.02 785.288 2210.02 776.535 Q2210.02 767.751 2214.35 762.786 Q2218.71 757.82 2226.38 757.82 Z" fill="#000000" fill-rule="nonzero" fill-opacity="1" /><path clip-path="url(#clip390)" d="M2282.08 772.812 L2282.08 794.328 L2276.22 794.328 L2276.22 773.003 Q2276.22 767.942 2274.25 765.427 Q2272.28 762.913 2268.33 762.913 Q2263.59 762.913 2260.85 765.937 Q2258.11 768.96 2258.11 774.18 L2258.11 794.328 L2252.22 794.328 L2252.22 758.68 L2258.11 758.68 L2258.11 764.218 Q2260.21 761.003 2263.05 759.412 Q2265.91 757.82 2269.63 757.82 Q2275.78 757.82 2278.93 761.64 Q2282.08 765.427 2282.08 772.812 Z" fill="#000000" fill-rule="nonzero" fill-opacity="1" /><path clip-path="url(#clip390)" d="M2293.76 758.68 L2299.62 758.68 L2299.62 794.328 L2293.76 794.328 L2293.76 758.68 M2293.76 744.802 L2299.62 744.802 L2299.62 752.218 L2293.76 752.218 L2293.76 744.802 Z" fill="#000000" fill-rule="nonzero" fill-opacity="1" /><path clip-path="url(#clip390)" d="M2337.52 760.048 L2337.52 765.523 Q2335.04 764.154 2332.53 763.486 Q2330.05 762.786 2327.5 762.786 Q2321.8 762.786 2318.65 766.414 Q2315.5 770.011 2315.5 776.535 Q2315.5 783.06 2318.65 786.689 Q2321.8 790.285 2327.5 790.285 Q2330.05 790.285 2332.53 789.617 Q2335.04 788.917 2337.52 787.548 L2337.52 792.959 Q2335.07 794.105 2332.43 794.678 Q2329.82 795.251 2326.86 795.251 Q2318.81 795.251 2314.07 790.19 Q2309.32 785.129 2309.32 776.535 Q2309.32 767.814 2314.1 762.817 Q2318.91 757.82 2327.24 757.82 Q2329.95 757.82 2332.53 758.393 Q2335.11 758.934 2337.52 760.048 Z" fill="#000000" fill-rule="nonzero" fill-opacity="1" /><polyline clip-path="url(#clip390)" style="stroke:#000000; stroke-linecap:round; stroke-linejoin:round; stroke-width:4; stroke-opacity:1; fill:none" points="2009.71,634.704 2009.71,200.383 "/>
<polyline clip-path="url(#clip390)" style="stroke:#000000; stroke-linecap:round; stroke-linejoin:round; stroke-width:4; stroke-opacity:1; fill:none" points="2009.71,634.704 2028.61,634.704 "/>
<polyline clip-path="url(#clip390)" style="stroke:#000000; stroke-linecap:round; stroke-linejoin:round; stroke-width:4; stroke-opacity:1; fill:none" points="2009.71,417.543 2028.61,417.543 "/>
<polyline clip-path="url(#clip390)" style="stroke:#000000; stroke-linecap:round; stroke-linejoin:round; stroke-width:4; stroke-opacity:1; fill:none" points="2009.71,200.383 2028.61,200.383 "/>
<path clip-path="url(#clip390)" d="M1883.53 659.444 L1893.08 659.444 L1893.08 626.487 L1882.69 628.57 L1882.69 623.246 L1893.02 621.163 L1898.87 621.163 L1898.87 659.444 L1908.42 659.444 L1908.42 664.363 L1883.53 664.363 L1883.53 659.444 Z" fill="#000000" fill-rule="nonzero" fill-opacity="1" /><path clip-path="url(#clip390)" d="M1932.72 625.011 Q1928.21 625.011 1925.92 629.467 Q1923.66 633.895 1923.66 642.807 Q1923.66 651.69 1925.92 656.146 Q1928.21 660.573 1932.72 660.573 Q1937.26 660.573 1939.52 656.146 Q1941.81 651.69 1941.81 642.807 Q1941.81 633.895 1939.52 629.467 Q1937.26 625.011 1932.72 625.011 M1932.72 620.382 Q1939.98 620.382 1943.8 626.14 Q1947.65 631.869 1947.65 642.807 Q1947.65 653.715 1943.8 659.473 Q1939.98 665.202 1932.72 665.202 Q1925.46 665.202 1921.61 659.473 Q1917.79 653.715 1917.79 642.807 Q1917.79 631.869 1921.61 626.14 Q1925.46 620.382 1932.72 620.382 Z" fill="#000000" fill-rule="nonzero" fill-opacity="1" /><path clip-path="url(#clip390)" d="M1959.78 598.127 Q1956.11 598.127 1954.26 601.747 Q1952.42 605.344 1952.42 612.585 Q1952.42 619.803 1954.26 623.423 Q1956.11 627.02 1959.78 627.02 Q1963.47 627.02 1965.31 623.423 Q1967.16 619.803 1967.16 612.585 Q1967.16 605.344 1965.31 601.747 Q1963.47 598.127 1959.78 598.127 M1959.78 594.365 Q1965.68 594.365 1968.79 599.044 Q1971.91 603.699 1971.91 612.585 Q1971.91 621.449 1968.79 626.127 Q1965.68 630.782 1959.78 630.782 Q1953.88 630.782 1950.75 626.127 Q1947.65 621.449 1947.65 612.585 Q1947.65 603.699 1950.75 599.044 Q1953.88 594.365 1959.78 594.365 Z" fill="#000000" fill-rule="nonzero" fill-opacity="1" /><path clip-path="url(#clip390)" d="M1885.08 442.284 L1894.63 442.284 L1894.63 409.327 L1884.24 411.41 L1884.24 406.086 L1894.57 404.003 L1900.42 404.003 L1900.42 442.284 L1909.97 442.284 L1909.97 447.203 L1885.08 447.203 L1885.08 442.284 Z" fill="#000000" fill-rule="nonzero" fill-opacity="1" /><path clip-path="url(#clip390)" d="M1934.27 407.851 Q1929.76 407.851 1927.47 412.307 Q1925.22 416.734 1925.22 425.646 Q1925.22 434.529 1927.47 438.985 Q1929.76 443.412 1934.27 443.412 Q1938.82 443.412 1941.07 438.985 Q1943.36 434.529 1943.36 425.646 Q1943.36 416.734 1941.07 412.307 Q1938.82 407.851 1934.27 407.851 M1934.27 403.221 Q1941.54 403.221 1945.35 408.979 Q1949.2 414.709 1949.2 425.646 Q1949.2 436.555 1945.35 442.313 Q1941.54 448.042 1934.27 448.042 Q1927.01 448.042 1923.16 442.313 Q1919.34 436.555 1919.34 425.646 Q1919.34 414.709 1923.16 408.979 Q1927.01 403.221 1934.27 403.221 Z" fill="#000000" fill-rule="nonzero" fill-opacity="1" /><path clip-path="url(#clip390)" d="M1950.68 377.84 L1969.33 377.84 L1969.33 381.836 L1955.03 381.836 L1955.03 390.441 Q1956.07 390.088 1957.1 389.924 Q1958.14 389.736 1959.17 389.736 Q1965.05 389.736 1968.48 392.956 Q1971.91 396.177 1971.91 401.678 Q1971.91 407.344 1968.39 410.495 Q1964.86 413.621 1958.44 413.621 Q1956.23 413.621 1953.93 413.245 Q1951.65 412.869 1949.2 412.117 L1949.2 407.344 Q1951.32 408.496 1953.58 409.061 Q1955.83 409.625 1958.35 409.625 Q1962.42 409.625 1964.79 407.485 Q1967.16 405.346 1967.16 401.678 Q1967.16 398.011 1964.79 395.872 Q1962.42 393.732 1958.35 393.732 Q1956.44 393.732 1954.54 394.155 Q1952.66 394.579 1950.68 395.472 L1950.68 377.84 Z" fill="#000000" fill-rule="nonzero" fill-opacity="1" /><path clip-path="url(#clip390)" d="M1855.01 225.123 L1864.56 225.123 L1864.56 192.166 L1854.17 194.249 L1854.17 188.925 L1864.5 186.842 L1870.35 186.842 L1870.35 225.123 L1879.9 225.123 L1879.9 230.042 L1855.01 230.042 L1855.01 225.123 Z" fill="#000000" fill-rule="nonzero" fill-opacity="1" /><path clip-path="url(#clip390)" d="M1904.2 190.69 Q1899.69 190.69 1897.4 195.146 Q1895.15 199.574 1895.15 208.486 Q1895.15 217.369 1897.4 221.825 Q1899.69 226.252 1904.2 226.252 Q1908.75 226.252 1911 221.825 Q1913.29 217.369 1913.29 208.486 Q1913.29 199.574 1911 195.146 Q1908.75 190.69 1904.2 190.69 M1904.2 186.061 Q1911.47 186.061 1915.29 191.819 Q1919.13 197.548 1919.13 208.486 Q1919.13 219.394 1915.29 225.152 Q1911.47 230.881 1904.2 230.881 Q1896.94 230.881 1893.09 225.152 Q1889.27 219.394 1889.27 208.486 Q1889.27 197.548 1893.09 191.819 Q1896.94 186.061 1904.2 186.061 Z" fill="#000000" fill-rule="nonzero" fill-opacity="1" /><path clip-path="url(#clip390)" d="M1919.82 191.782 L1927.57 191.782 L1927.57 165.005 L1919.13 166.698 L1919.13 162.372 L1927.53 160.679 L1932.28 160.679 L1932.28 191.782 L1940.03 191.782 L1940.03 195.779 L1919.82 195.779 L1919.82 191.782 Z" fill="#000000" fill-rule="nonzero" fill-opacity="1" /><path clip-path="url(#clip390)" d="M1959.78 163.806 Q1956.11 163.806 1954.26 167.426 Q1952.42 171.023 1952.42 178.264 Q1952.42 185.482 1954.26 189.102 Q1956.11 192.699 1959.78 192.699 Q1963.47 192.699 1965.31 189.102 Q1967.16 185.482 1967.16 178.264 Q1967.16 171.023 1965.31 167.426 Q1963.47 163.806 1959.78 163.806 M1959.78 160.044 Q1965.68 160.044 1968.79 164.723 Q1971.91 169.378 1971.91 178.264 Q1971.91 187.128 1968.79 191.806 Q1965.68 196.461 1959.78 196.461 Q1953.88 196.461 1950.75 191.806 Q1947.65 187.128 1947.65 178.264 Q1947.65 169.378 1950.75 164.723 Q1953.88 160.044 1959.78 160.044 Z" fill="#000000" fill-rule="nonzero" fill-opacity="1" /><path clip-path="url(#clip390)" d="M2151.41 10.368 L2158.43 10.368 L2158.43 56.3053 L2183.67 56.3053 L2183.67 62.208 L2151.41 62.208 L2151.41 10.368 Z" fill="#000000" fill-rule="nonzero" fill-opacity="1" /><path clip-path="url(#clip390)" d="M2191.03 10.368 L2220.82 10.368 L2220.82 16.2707 L2198.04 16.2707 L2198.04 31.5484 L2218.6 31.5484 L2218.6 37.4512 L2198.04 37.4512 L2198.04 62.208 L2191.03 62.208 L2191.03 10.368 Z" fill="#000000" fill-rule="nonzero" fill-opacity="1" /><polyline clip-path="url(#clip394)" style="stroke:#0000ff; stroke-linecap:round; stroke-linejoin:round; stroke-width:12; stroke-opacity:1; fill:none" points="2019.7,331.35 2102.91,363.915 2186.12,376.437 2269.33,403.948 2352.53,411.542 "/>
<polyline clip-path="url(#clip394)" style="stroke:#7f007f; stroke-linecap:round; stroke-linejoin:round; stroke-width:12; stroke-opacity:1; fill:none" points="2019.7,327.475 2102.91,367.615 2186.12,394.158 2269.33,412.815 2352.53,455.585 "/>
<polyline clip-path="url(#clip394)" style="stroke:#ff0000; stroke-linecap:round; stroke-linejoin:round; stroke-width:12; stroke-opacity:1; fill:none" points="2019.7,318.737 2102.91,400.769 2186.12,433.124 2269.33,496.224 2352.53,532.871 "/>
<path clip-path="url(#clip390)" d="M2021.47 620.226 L2195.64 620.226 L2195.64 412.866 L2021.47 412.866  Z" fill="#ffffff" fill-rule="evenodd" fill-opacity="1"/>
<polyline clip-path="url(#clip390)" style="stroke:#000000; stroke-linecap:round; stroke-linejoin:round; stroke-width:4; stroke-opacity:1; fill:none" points="2021.47,620.226 2195.64,620.226 2195.64,412.866 2021.47,412.866 2021.47,620.226 "/>
<polyline clip-path="url(#clip390)" style="stroke:#0000ff; stroke-linecap:round; stroke-linejoin:round; stroke-width:12; stroke-opacity:1; fill:none" points="2025.39,464.706 2048.91,464.706 "/>
<path clip-path="url(#clip390)" d="M2082.51 458.653 L2058.62 467.148 L2082.51 475.597 L2082.51 479.81 L2052.83 469.047 L2052.83 465.204 L2082.51 454.44 L2082.51 458.653 Z" fill="#000000" fill-rule="nonzero" fill-opacity="1" /><path clip-path="url(#clip390)" d="M2105.45 451.5 L2093.64 469.949 L2105.45 469.949 L2105.45 451.5 M2104.22 447.426 L2110.1 447.426 L2110.1 469.949 L2115.03 469.949 L2115.03 473.838 L2110.1 473.838 L2110.1 481.986 L2105.45 481.986 L2105.45 473.838 L2089.85 473.838 L2089.85 469.324 L2104.22 447.426 Z" fill="#000000" fill-rule="nonzero" fill-opacity="1" /><path clip-path="url(#clip390)" d="M2132.76 450.505 Q2129.15 450.505 2127.32 454.07 Q2125.52 457.611 2125.52 464.741 Q2125.52 471.847 2127.32 475.412 Q2129.15 478.954 2132.76 478.954 Q2136.4 478.954 2138.2 475.412 Q2140.03 471.847 2140.03 464.741 Q2140.03 457.611 2138.2 454.07 Q2136.4 450.505 2132.76 450.505 M2132.76 446.801 Q2138.57 446.801 2141.63 451.408 Q2144.71 455.991 2144.71 464.741 Q2144.71 473.468 2141.63 478.074 Q2138.57 482.658 2132.76 482.658 Q2126.95 482.658 2123.88 478.074 Q2120.82 473.468 2120.82 464.741 Q2120.82 455.991 2123.88 451.408 Q2126.95 446.801 2132.76 446.801 Z" fill="#000000" fill-rule="nonzero" fill-opacity="1" /><polyline clip-path="url(#clip390)" style="stroke:#7f007f; stroke-linecap:round; stroke-linejoin:round; stroke-width:12; stroke-opacity:1; fill:none" points="2025.39,516.546 2048.91,516.546 "/>
<path clip-path="url(#clip390)" d="M2068.44 503.34 L2056.63 521.789 L2068.44 521.789 L2068.44 503.34 M2067.21 499.266 L2073.09 499.266 L2073.09 521.789 L2078.02 521.789 L2078.02 525.678 L2073.09 525.678 L2073.09 533.826 L2068.44 533.826 L2068.44 525.678 L2052.83 525.678 L2052.83 521.164 L2067.21 499.266 Z" fill="#000000" fill-rule="nonzero" fill-opacity="1" /><path clip-path="url(#clip390)" d="M2095.75 502.345 Q2092.14 502.345 2090.31 505.91 Q2088.51 509.451 2088.51 516.581 Q2088.51 523.687 2090.31 527.252 Q2092.14 530.794 2095.75 530.794 Q2099.38 530.794 2101.19 527.252 Q2103.02 523.687 2103.02 516.581 Q2103.02 509.451 2101.19 505.91 Q2099.38 502.345 2095.75 502.345 M2095.75 498.641 Q2101.56 498.641 2104.62 503.248 Q2107.69 507.831 2107.69 516.581 Q2107.69 525.308 2104.62 529.914 Q2101.56 534.498 2095.75 534.498 Q2089.94 534.498 2086.86 529.914 Q2083.81 525.308 2083.81 516.581 Q2083.81 507.831 2086.86 503.248 Q2089.94 498.641 2095.75 498.641 Z" fill="#000000" fill-rule="nonzero" fill-opacity="1" /><path clip-path="url(#clip390)" d="M2113.16 519.174 L2132.23 519.174 L2132.23 522.507 L2113.16 522.507 L2113.16 519.174 Z" fill="#000000" fill-rule="nonzero" fill-opacity="1" /><path clip-path="url(#clip390)" d="M2150.19 514.683 Q2147.05 514.683 2145.19 516.836 Q2143.37 518.988 2143.37 522.738 Q2143.37 526.465 2145.19 528.641 Q2147.05 530.794 2150.19 530.794 Q2153.34 530.794 2155.17 528.641 Q2157.02 526.465 2157.02 522.738 Q2157.02 518.988 2155.17 516.836 Q2153.34 514.683 2150.19 514.683 M2159.48 500.03 L2159.48 504.289 Q2157.72 503.456 2155.91 503.016 Q2154.13 502.576 2152.37 502.576 Q2147.74 502.576 2145.29 505.701 Q2142.86 508.826 2142.51 515.146 Q2143.88 513.132 2145.94 512.067 Q2148 510.979 2150.47 510.979 Q2155.68 510.979 2158.69 514.15 Q2161.72 517.299 2161.72 522.738 Q2161.72 528.062 2158.57 531.28 Q2155.43 534.498 2150.19 534.498 Q2144.2 534.498 2141.03 529.914 Q2137.86 525.308 2137.86 516.581 Q2137.86 508.387 2141.75 503.525 Q2145.63 498.641 2152.19 498.641 Q2153.94 498.641 2155.73 498.988 Q2157.53 499.336 2159.48 500.03 Z" fill="#000000" fill-rule="nonzero" fill-opacity="1" /><path clip-path="url(#clip390)" d="M2179.78 502.345 Q2176.17 502.345 2174.34 505.91 Q2172.53 509.451 2172.53 516.581 Q2172.53 523.687 2174.34 527.252 Q2176.17 530.794 2179.78 530.794 Q2183.41 530.794 2185.22 527.252 Q2187.05 523.687 2187.05 516.581 Q2187.05 509.451 2185.22 505.91 Q2183.41 502.345 2179.78 502.345 M2179.78 498.641 Q2185.59 498.641 2188.64 503.248 Q2191.72 507.831 2191.72 516.581 Q2191.72 525.308 2188.64 529.914 Q2185.59 534.498 2179.78 534.498 Q2173.97 534.498 2170.89 529.914 Q2167.83 525.308 2167.83 516.581 Q2167.83 507.831 2170.89 503.248 Q2173.97 498.641 2179.78 498.641 Z" fill="#000000" fill-rule="nonzero" fill-opacity="1" /><polyline clip-path="url(#clip390)" style="stroke:#ff0000; stroke-linecap:round; stroke-linejoin:round; stroke-width:12; stroke-opacity:1; fill:none" points="2025.39,568.386 2048.91,568.386 "/>
<path clip-path="url(#clip390)" d="M2065.17 566.523 Q2062.02 566.523 2060.17 568.676 Q2058.34 570.828 2058.34 574.578 Q2058.34 578.305 2060.17 580.481 Q2062.02 582.634 2065.17 582.634 Q2068.32 582.634 2070.15 580.481 Q2072 578.305 2072 574.578 Q2072 570.828 2070.15 568.676 Q2068.32 566.523 2065.17 566.523 M2074.45 551.87 L2074.45 556.129 Q2072.7 555.296 2070.89 554.856 Q2069.11 554.416 2067.35 554.416 Q2062.72 554.416 2060.26 557.541 Q2057.83 560.666 2057.49 566.986 Q2058.85 564.972 2060.91 563.907 Q2062.97 562.819 2065.45 562.819 Q2070.66 562.819 2073.67 565.99 Q2076.7 569.139 2076.7 574.578 Q2076.7 579.902 2073.55 583.12 Q2070.4 586.338 2065.17 586.338 Q2059.18 586.338 2056.01 581.754 Q2052.83 577.148 2052.83 568.421 Q2052.83 560.227 2056.72 555.365 Q2060.61 550.481 2067.16 550.481 Q2068.92 550.481 2070.7 550.828 Q2072.51 551.176 2074.45 551.87 Z" fill="#000000" fill-rule="nonzero" fill-opacity="1" /><path clip-path="url(#clip390)" d="M2094.76 554.185 Q2091.14 554.185 2089.32 557.75 Q2087.51 561.291 2087.51 568.421 Q2087.51 575.527 2089.32 579.092 Q2091.14 582.634 2094.76 582.634 Q2098.39 582.634 2100.19 579.092 Q2102.02 575.527 2102.02 568.421 Q2102.02 561.291 2100.19 557.75 Q2098.39 554.185 2094.76 554.185 M2094.76 550.481 Q2100.57 550.481 2103.62 555.088 Q2106.7 559.671 2106.7 568.421 Q2106.7 577.148 2103.62 581.754 Q2100.57 586.338 2094.76 586.338 Q2088.94 586.338 2085.87 581.754 Q2082.81 577.148 2082.81 568.421 Q2082.81 559.671 2085.87 555.088 Q2088.94 550.481 2094.76 550.481 Z" fill="#000000" fill-rule="nonzero" fill-opacity="1" /><path clip-path="url(#clip390)" d="M2112.16 571.014 L2131.24 571.014 L2131.24 574.347 L2112.16 574.347 L2112.16 571.014 Z" fill="#000000" fill-rule="nonzero" fill-opacity="1" /><path clip-path="url(#clip390)" d="M2138.76 584.949 L2138.76 580.689 Q2140.52 581.523 2142.32 581.963 Q2144.13 582.402 2145.87 582.402 Q2150.5 582.402 2152.93 579.301 Q2155.38 576.176 2155.73 569.833 Q2154.38 571.824 2152.32 572.889 Q2150.26 573.953 2147.76 573.953 Q2142.58 573.953 2139.55 570.828 Q2136.54 567.68 2136.54 562.24 Q2136.54 556.916 2139.69 553.699 Q2142.83 550.481 2148.07 550.481 Q2154.06 550.481 2157.21 555.088 Q2160.38 559.671 2160.38 568.421 Q2160.38 576.592 2156.49 581.476 Q2152.63 586.338 2146.07 586.338 Q2144.32 586.338 2142.51 585.99 Q2140.7 585.643 2138.76 584.949 M2148.07 570.296 Q2151.21 570.296 2153.04 568.143 Q2154.89 565.99 2154.89 562.24 Q2154.89 558.514 2153.04 556.361 Q2151.21 554.185 2148.07 554.185 Q2144.92 554.185 2143.07 556.361 Q2141.24 558.514 2141.24 562.24 Q2141.24 565.99 2143.07 568.143 Q2144.92 570.296 2148.07 570.296 Z" fill="#000000" fill-rule="nonzero" fill-opacity="1" /><path clip-path="url(#clip390)" d="M2178.78 554.185 Q2175.17 554.185 2173.34 557.75 Q2171.54 561.291 2171.54 568.421 Q2171.54 575.527 2173.34 579.092 Q2175.17 582.634 2178.78 582.634 Q2182.42 582.634 2184.22 579.092 Q2186.05 575.527 2186.05 568.421 Q2186.05 561.291 2184.22 557.75 Q2182.42 554.185 2178.78 554.185 M2178.78 550.481 Q2184.59 550.481 2187.65 555.088 Q2190.73 559.671 2190.73 568.421 Q2190.73 577.148 2187.65 581.754 Q2184.59 586.338 2178.78 586.338 Q2172.97 586.338 2169.89 581.754 Q2166.84 577.148 2166.84 568.421 Q2166.84 559.671 2169.89 555.088 Q2172.97 550.481 2178.78 550.481 Z" fill="#000000" fill-rule="nonzero" fill-opacity="1" /></svg>
