<?xml version="1.0" encoding="utf-8"?>
<svg xmlns="http://www.w3.org/2000/svg" xmlns:xlink="http://www.w3.org/1999/xlink" width="360" height="242" viewBox="0 0 1440 968">
<defs>
  <clipPath id="clip720">
    <rect x="0" y="0" width="1440" height="968"/>
  </clipPath>
</defs>
<path clip-path="url(#clip720)" d="M0 968 L1440 968 L1440 1.13687e-13 L0 1.13687e-13  Z" fill="#ffffff" fill-rule="evenodd" fill-opacity="1"/>
<defs>
  <clipPath id="clip721">
    <rect x="257" y="332" width="1066" height="441"/>
  </clipPath>
</defs>
<path clip-path="url(#clip720)" d="M267.765 750.244 L1282.52 750.244 L1282.52 216.788 L267.765 216.788  Z" fill="#ffffff" fill-rule="evenodd" fill-opacity="1"/>
<defs>
  <clipPath id="clip722">
    <rect x="267" y="216" width="1016" height="534"/>
  </clipPath>
</defs>
<polyline clip-path="url(#clip722)" style="stroke:#000000; stroke-linecap:round; stroke-linejoin:round; stroke-width:2; stroke-opacity:0.1; fill:none" points="382.8,750.244 382.8,216.788 "/>
<polyline clip-path="url(#clip722)" style="stroke:#000000; stroke-linecap:round; stroke-linejoin:round; stroke-width:2; stroke-opacity:0.1; fill:none" points="775.143,750.244 775.143,216.788 "/>
<polyline clip-path="url(#clip722)" style="stroke:#000000; stroke-linecap:round; stroke-linejoin:round; stroke-width:2; stroke-opacity:0.1; fill:none" points="1167.48,750.244 1167.48,216.788 "/>
<polyline clip-path="url(#clip722)" style="stroke:#000000; stroke-linecap:round; stroke-linejoin:round; stroke-width:2; stroke-opacity:0.1; fill:none" points="267.765,685.28 1282.52,685.28 "/>
<polyline clip-path="url(#clip722)" style="stroke:#000000; stroke-linecap:round; stroke-linejoin:round; stroke-width:2; stroke-opacity:0.1; fill:none" points="267.765,555.171 1282.52,555.171 "/>
<polyline clip-path="url(#clip722)" style="stroke:#000000; stroke-linecap:round; stroke-linejoin:round; stroke-width:2; stroke-opacity:0.1; fill:none" points="267.765,425.061 1282.52,425.061 "/>
<polyline clip-path="url(#clip722)" style="stroke:#000000; stroke-linecap:round; stroke-linejoin:round; stroke-width:2; stroke-opacity:0.1; fill:none" points="267.765,294.952 1282.52,294.952 "/>
<polyline clip-path="url(#clip720)" style="stroke:#000000; stroke-linecap:round; stroke-linejoin:round; stroke-width:4; stroke-opacity:1; fill:none" points="267.765,750.244 1282.52,750.244 "/>
<polyline clip-path="url(#clip720)" style="stroke:#000000; stroke-linecap:round; stroke-linejoin:round; stroke-width:4; stroke-opacity:1; fill:none" points="382.8,750.244 382.8,731.346 "/>
<polyline clip-path="url(#clip720)" style="stroke:#000000; stroke-linecap:round; stroke-linejoin:round; stroke-width:4; stroke-opacity:1; fill:none" points="775.143,750.244 775.143,731.346 "/>
<polyline clip-path="url(#clip720)" style="stroke:#000000; stroke-linecap:round; stroke-linejoin:round; stroke-width:4; stroke-opacity:1; fill:none" points="1167.48,750.244 1167.48,731.346 "/>
<path clip-path="url(#clip720)" d="M368.02 775.01 L361.678 792.209 L374.386 792.209 L368.02 775.01 M365.381 770.404 L370.682 770.404 L383.853 804.964 L378.992 804.964 L375.844 796.098 L360.266 796.098 L357.117 804.964 L352.187 804.964 L365.381 770.404 Z" fill="#000000" fill-rule="nonzero" fill-opacity="1" /><path clip-path="url(#clip720)" d="M393.576 788.459 L393.576 801.121 L401.076 801.121 Q404.849 801.121 406.654 799.57 Q408.483 797.996 408.483 794.779 Q408.483 791.538 406.654 790.01 Q404.849 788.459 401.076 788.459 L393.576 788.459 M393.576 774.246 L393.576 784.663 L400.497 784.663 Q403.923 784.663 405.589 783.39 Q407.279 782.093 407.279 779.455 Q407.279 776.839 405.589 775.543 Q403.923 774.246 400.497 774.246 L393.576 774.246 M388.9 770.404 L400.844 770.404 Q406.191 770.404 409.085 772.626 Q411.978 774.848 411.978 778.945 Q411.978 782.117 410.497 783.992 Q409.015 785.867 406.145 786.329 Q409.594 787.07 411.492 789.431 Q413.413 791.769 413.413 795.288 Q413.413 799.917 410.265 802.441 Q407.117 804.964 401.307 804.964 L388.9 804.964 L388.9 770.404 Z" fill="#000000" fill-rule="nonzero" fill-opacity="1" /><path clip-path="url(#clip720)" d="M747.388 770.404 L752.064 770.404 L752.064 784.57 L769.055 784.57 L769.055 770.404 L773.731 770.404 L773.731 804.964 L769.055 804.964 L769.055 788.505 L752.064 788.505 L752.064 804.964 L747.388 804.964 L747.388 770.404 Z" fill="#000000" fill-rule="nonzero" fill-opacity="1" /><path clip-path="url(#clip720)" d="M783.036 770.404 L802.897 770.404 L802.897 774.339 L787.712 774.339 L787.712 784.524 L801.416 784.524 L801.416 788.459 L787.712 788.459 L787.712 804.964 L783.036 804.964 L783.036 770.404 Z" fill="#000000" fill-rule="nonzero" fill-opacity="1" /><path clip-path="url(#clip720)" d="M1144.35 770.404 L1149.02 770.404 L1149.02 801.028 L1165.85 801.028 L1165.85 804.964 L1144.35 804.964 L1144.35 770.404 Z" fill="#000000" fill-rule="nonzero" fill-opacity="1" /><path clip-path="url(#clip720)" d="M1170.76 770.404 L1190.62 770.404 L1190.62 774.339 L1175.44 774.339 L1175.44 784.524 L1189.14 784.524 L1189.14 788.459 L1175.44 788.459 L1175.44 804.964 L1170.76 804.964 L1170.76 770.404 Z" fill="#000000" fill-rule="nonzero" fill-opacity="1" /><polyline clip-path="url(#clip720)" style="stroke:#000000; stroke-linecap:round; stroke-linejoin:round; stroke-width:4; stroke-opacity:1; fill:none" points="267.765,750.244 267.765,216.788 "/>
<polyline clip-path="url(#clip720)" style="stroke:#000000; stroke-linecap:round; stroke-linejoin:round; stroke-width:4; stroke-opacity:1; fill:none" points="267.765,685.28 286.663,685.28 "/>
<polyline clip-path="url(#clip720)" style="stroke:#000000; stroke-linecap:round; stroke-linejoin:round; stroke-width:4; stroke-opacity:1; fill:none" points="267.765,555.171 286.663,555.171 "/>
<polyline clip-path="url(#clip720)" style="stroke:#000000; stroke-linecap:round; stroke-linejoin:round; stroke-width:4; stroke-opacity:1; fill:none" points="267.765,425.061 286.663,425.061 "/>
<polyline clip-path="url(#clip720)" style="stroke:#000000; stroke-linecap:round; stroke-linejoin:round; stroke-width:4; stroke-opacity:1; fill:none" points="267.765,294.952 286.663,294.952 "/>
<path clip-path="url(#clip720)" d="M236.582 672.074 L224.777 690.523 L236.582 690.523 L236.582 672.074 M235.355 668 L241.235 668 L241.235 690.523 L246.165 690.523 L246.165 694.412 L241.235 694.412 L241.235 702.56 L236.582 702.56 L236.582 694.412 L220.98 694.412 L220.98 689.898 L235.355 668 Z" fill="#000000" fill-rule="nonzero" fill-opacity="1" /><path clip-path="url(#clip720)" d="M225.263 537.891 L243.619 537.891 L243.619 541.826 L229.545 541.826 L229.545 550.298 Q230.564 549.951 231.582 549.789 Q232.601 549.604 233.619 549.604 Q239.406 549.604 242.786 552.775 Q246.165 555.946 246.165 561.363 Q246.165 566.942 242.693 570.043 Q239.221 573.122 232.902 573.122 Q230.726 573.122 228.457 572.752 Q226.212 572.381 223.804 571.641 L223.804 566.942 Q225.888 568.076 228.11 568.631 Q230.332 569.187 232.809 569.187 Q236.814 569.187 239.152 567.081 Q241.49 564.974 241.49 561.363 Q241.49 557.752 239.152 555.645 Q236.814 553.539 232.809 553.539 Q230.934 553.539 229.059 553.956 Q227.207 554.372 225.263 555.252 L225.263 537.891 Z" fill="#000000" fill-rule="nonzero" fill-opacity="1" /><path clip-path="url(#clip720)" d="M234.638 423.198 Q231.49 423.198 229.638 425.351 Q227.809 427.504 227.809 431.254 Q227.809 434.98 229.638 437.156 Q231.49 439.309 234.638 439.309 Q237.786 439.309 239.615 437.156 Q241.466 434.98 241.466 431.254 Q241.466 427.504 239.615 425.351 Q237.786 423.198 234.638 423.198 M243.92 408.545 L243.92 412.805 Q242.161 411.971 240.355 411.531 Q238.573 411.092 236.814 411.092 Q232.184 411.092 229.73 414.217 Q227.3 417.342 226.953 423.661 Q228.318 421.647 230.378 420.582 Q232.439 419.494 234.915 419.494 Q240.124 419.494 243.133 422.666 Q246.165 425.814 246.165 431.254 Q246.165 436.578 243.017 439.795 Q239.869 443.013 234.638 443.013 Q228.642 443.013 225.471 438.429 Q222.3 433.823 222.3 425.096 Q222.3 416.902 226.189 412.041 Q230.078 407.156 236.628 407.156 Q238.388 407.156 240.17 407.504 Q241.976 407.851 243.92 408.545 Z" fill="#000000" fill-rule="nonzero" fill-opacity="1" /><path clip-path="url(#clip720)" d="M223.943 277.672 L246.165 277.672 L246.165 279.663 L233.619 312.232 L228.735 312.232 L240.54 281.607 L223.943 281.607 L223.943 277.672 Z" fill="#000000" fill-rule="nonzero" fill-opacity="1" /><path clip-path="url(#clip720)" d="M147.196 764.465 L147.196 759.673 L187.716 759.673 L187.716 764.465 L147.196 764.465 Z" fill="#000000" fill-rule="nonzero" fill-opacity="1" /><path clip-path="url(#clip720)" d="M161.909 738.345 Q161.909 742.2 164.93 744.439 Q167.925 746.679 173.159 746.679 Q178.394 746.679 181.414 744.465 Q184.409 742.226 184.409 738.345 Q184.409 734.517 181.388 732.278 Q178.367 730.038 173.159 730.038 Q167.977 730.038 164.956 732.278 Q161.909 734.517 161.909 738.345 M157.847 738.345 Q157.847 732.095 161.909 728.528 Q165.972 724.96 173.159 724.96 Q180.321 724.96 184.409 728.528 Q188.472 732.095 188.472 738.345 Q188.472 744.621 184.409 748.189 Q180.321 751.731 173.159 751.731 Q165.972 751.731 161.909 748.189 Q157.847 744.621 157.847 738.345 Z" fill="#000000" fill-rule="nonzero" fill-opacity="1" /><path clip-path="url(#clip720)" d="M172.795 697.825 Q167.586 697.825 164.722 699.986 Q161.857 702.122 161.857 706.002 Q161.857 709.856 164.722 712.017 Q167.586 714.153 172.795 714.153 Q177.977 714.153 180.841 712.017 Q183.706 709.856 183.706 706.002 Q183.706 702.122 180.841 699.986 Q177.977 697.825 172.795 697.825 M184.097 693.033 Q191.544 693.033 195.164 696.34 Q198.81 699.648 198.81 706.471 Q198.81 708.997 198.419 711.236 Q198.055 713.476 197.274 715.585 L192.612 715.585 Q193.758 713.476 194.305 711.418 Q194.852 709.361 194.852 707.226 Q194.852 702.512 192.378 700.168 Q189.93 697.825 184.956 697.825 L182.586 697.825 Q185.164 699.309 186.44 701.627 Q187.716 703.945 187.716 707.174 Q187.716 712.538 183.628 715.819 Q179.539 719.101 172.795 719.101 Q166.024 719.101 161.935 715.819 Q157.847 712.538 157.847 707.174 Q157.847 703.945 159.123 701.627 Q160.399 699.309 162.977 697.825 L158.55 697.825 L158.55 693.033 L184.097 693.033 Z" fill="#000000" fill-rule="nonzero" fill-opacity="1" /><path clip-path="url(#clip720)" d="M183.289 681.575 L183.289 672.981 L153.628 672.981 L155.503 682.33 L150.711 682.33 L148.836 673.033 L148.836 667.773 L183.289 667.773 L183.289 659.179 L187.716 659.179 L187.716 681.575 L183.289 681.575 Z" fill="#000000" fill-rule="nonzero" fill-opacity="1" /><path clip-path="url(#clip720)" d="M152.3 637.304 Q152.3 641.367 156.31 643.424 Q160.295 645.455 168.315 645.455 Q176.31 645.455 180.321 643.424 Q184.305 641.367 184.305 637.304 Q184.305 633.216 180.321 631.184 Q176.31 629.127 168.315 629.127 Q160.295 629.127 156.31 631.184 Q152.3 633.216 152.3 637.304 M148.133 637.304 Q148.133 630.768 153.316 627.33 Q158.472 623.867 168.315 623.867 Q178.133 623.867 183.315 627.33 Q188.472 630.768 188.472 637.304 Q188.472 643.841 183.315 647.304 Q178.133 650.742 168.315 650.742 Q158.472 650.742 153.316 647.304 Q148.133 643.841 148.133 637.304 Z" fill="#000000" fill-rule="nonzero" fill-opacity="1" /><path clip-path="url(#clip720)" d="M147.248 603.789 Q153.237 607.278 159.097 608.971 Q164.956 610.664 170.972 610.664 Q176.987 610.664 182.899 608.971 Q188.784 607.252 194.748 603.789 L194.748 607.955 Q188.628 611.862 182.716 613.815 Q176.805 615.742 170.972 615.742 Q165.164 615.742 159.279 613.815 Q153.394 611.888 147.248 607.955 L147.248 603.789 Z" fill="#000000" fill-rule="nonzero" fill-opacity="1" /><path clip-path="url(#clip720)" d="M172.795 575.299 Q167.586 575.299 164.722 577.461 Q161.857 579.596 161.857 583.476 Q161.857 587.331 164.722 589.492 Q167.586 591.627 172.795 591.627 Q177.977 591.627 180.841 589.492 Q183.706 587.331 183.706 583.476 Q183.706 579.596 180.841 577.461 Q177.977 575.299 172.795 575.299 M184.097 570.508 Q191.544 570.508 195.164 573.815 Q198.81 577.122 198.81 583.945 Q198.81 586.471 198.419 588.711 Q198.055 590.95 197.274 593.06 L192.612 593.06 Q193.758 590.95 194.305 588.893 Q194.852 586.836 194.852 584.7 Q194.852 579.987 192.378 577.643 Q189.93 575.299 184.956 575.299 L182.586 575.299 Q185.164 576.784 186.44 579.101 Q187.716 581.419 187.716 584.648 Q187.716 590.013 183.628 593.294 Q179.539 596.575 172.795 596.575 Q166.024 596.575 161.935 593.294 Q157.847 590.013 157.847 584.648 Q157.847 581.419 159.123 579.101 Q160.399 576.784 162.977 575.299 L158.55 575.299 L158.55 570.508 L184.097 570.508 Z" fill="#000000" fill-rule="nonzero" fill-opacity="1" /><path clip-path="url(#clip720)" d="M173.055 547.383 Q173.055 553.19 174.383 555.43 Q175.711 557.669 178.914 557.669 Q181.466 557.669 182.977 556.003 Q184.461 554.31 184.461 551.419 Q184.461 547.435 181.649 545.039 Q178.81 542.617 174.123 542.617 L173.055 542.617 L173.055 547.383 M171.076 537.826 L187.716 537.826 L187.716 542.617 L183.289 542.617 Q185.946 544.258 187.222 546.706 Q188.472 549.154 188.472 552.695 Q188.472 557.174 185.972 559.831 Q183.446 562.461 179.227 562.461 Q174.305 562.461 171.805 559.18 Q169.305 555.872 169.305 549.336 L169.305 542.617 L168.836 542.617 Q165.529 542.617 163.732 544.805 Q161.909 546.966 161.909 550.898 Q161.909 553.398 162.508 555.768 Q163.107 558.138 164.305 560.325 L159.878 560.325 Q158.862 557.695 158.368 555.221 Q157.847 552.747 157.847 550.404 Q157.847 544.076 161.128 540.951 Q164.409 537.826 171.076 537.826 Z" fill="#000000" fill-rule="nonzero" fill-opacity="1" /><path clip-path="url(#clip720)" d="M158.55 527.956 L158.55 523.164 L187.716 523.164 L187.716 527.956 L158.55 527.956 M147.196 527.956 L147.196 523.164 L153.263 523.164 L153.263 527.956 L147.196 527.956 Z" fill="#000000" fill-rule="nonzero" fill-opacity="1" /><path clip-path="url(#clip720)" d="M170.112 488.894 L187.716 488.894 L187.716 493.685 L170.269 493.685 Q166.128 493.685 164.071 495.3 Q162.013 496.914 162.013 500.144 Q162.013 504.024 164.487 506.263 Q166.961 508.503 171.232 508.503 L187.716 508.503 L187.716 513.321 L158.55 513.321 L158.55 508.503 L163.081 508.503 Q160.451 506.784 159.149 504.466 Q157.847 502.123 157.847 499.076 Q157.847 494.05 160.972 491.472 Q164.071 488.894 170.112 488.894 Z" fill="#000000" fill-rule="nonzero" fill-opacity="1" /><path clip-path="url(#clip720)" d="M196.57 457.175 L200.294 457.175 L200.294 484.883 L196.57 484.883 L196.57 457.175 Z" fill="#000000" fill-rule="nonzero" fill-opacity="1" /><path clip-path="url(#clip720)" d="M170.112 428.425 L187.716 428.425 L187.716 433.217 L170.269 433.217 Q166.128 433.217 164.071 434.831 Q162.013 436.446 162.013 439.675 Q162.013 443.555 164.487 445.795 Q166.961 448.034 171.232 448.034 L187.716 448.034 L187.716 452.852 L147.196 452.852 L147.196 448.034 L163.081 448.034 Q160.451 446.316 159.149 443.998 Q157.847 441.654 157.847 438.607 Q157.847 433.581 160.972 431.003 Q164.071 428.425 170.112 428.425 Z" fill="#000000" fill-rule="nonzero" fill-opacity="1" /><path clip-path="url(#clip720)" d="M183.289 417.279 L183.289 408.686 L153.628 408.686 L155.503 418.035 L150.711 418.035 L148.836 408.738 L148.836 403.477 L183.289 403.477 L183.289 394.884 L187.716 394.884 L187.716 417.279 L183.289 417.279 Z" fill="#000000" fill-rule="nonzero" fill-opacity="1" /><path clip-path="url(#clip720)" d="M148.836 359.467 L148.836 355.04 L192.664 368.582 L192.664 373.009 L148.836 359.467 Z" fill="#000000" fill-rule="nonzero" fill-opacity="1" /><path clip-path="url(#clip720)" d="M163.029 316.16 Q162.56 316.967 162.352 317.931 Q162.118 318.868 162.118 320.014 Q162.118 324.077 164.774 326.264 Q167.404 328.426 172.352 328.426 L187.716 328.426 L187.716 333.243 L158.55 333.243 L158.55 328.426 L163.081 328.426 Q160.425 326.915 159.149 324.493 Q157.847 322.072 157.847 318.608 Q157.847 318.113 157.925 317.514 Q157.977 316.915 158.107 316.186 L163.029 316.16 Z" fill="#000000" fill-rule="nonzero" fill-opacity="1" /><path clip-path="url(#clip720)" d="M173.055 297.879 Q173.055 303.686 174.383 305.926 Q175.711 308.165 178.914 308.165 Q181.466 308.165 182.977 306.499 Q184.461 304.806 184.461 301.915 Q184.461 297.931 181.649 295.535 Q178.81 293.113 174.123 293.113 L173.055 293.113 L173.055 297.879 M171.076 288.322 L187.716 288.322 L187.716 293.113 L183.289 293.113 Q185.946 294.754 187.222 297.202 Q188.472 299.65 188.472 303.191 Q188.472 307.671 185.972 310.327 Q183.446 312.957 179.227 312.957 Q174.305 312.957 171.805 309.676 Q169.305 306.369 169.305 299.832 L169.305 293.113 L168.836 293.113 Q165.529 293.113 163.732 295.301 Q161.909 297.462 161.909 301.395 Q161.909 303.895 162.508 306.264 Q163.107 308.634 164.305 310.822 L159.878 310.822 Q158.862 308.191 158.368 305.717 Q157.847 303.244 157.847 300.9 Q157.847 294.572 161.128 291.447 Q164.409 288.322 171.076 288.322 Z" fill="#000000" fill-rule="nonzero" fill-opacity="1" /><path clip-path="url(#clip720)" d="M170.112 254.207 L187.716 254.207 L187.716 258.999 L170.269 258.999 Q166.128 258.999 164.071 260.614 Q162.013 262.228 162.013 265.457 Q162.013 269.337 164.487 271.577 Q166.961 273.817 171.232 273.817 L187.716 273.817 L187.716 278.634 L158.55 278.634 L158.55 273.817 L163.081 273.817 Q160.451 272.098 159.149 269.78 Q157.847 267.436 157.847 264.39 Q157.847 259.364 160.972 256.785 Q164.071 254.207 170.112 254.207 Z" fill="#000000" fill-rule="nonzero" fill-opacity="1" /><path clip-path="url(#clip720)" d="M147.196 244.832 L147.196 240.015 L171.128 240.015 L158.55 225.718 L158.55 219.598 L172.196 235.067 L187.716 218.947 L187.716 225.197 L173.472 240.015 L187.716 240.015 L187.716 244.832 L147.196 244.832 Z" fill="#000000" fill-rule="nonzero" fill-opacity="1" /><path clip-path="url(#clip720)" d="M147.248 214.52 L147.248 210.353 Q153.394 206.447 159.279 204.52 Q165.164 202.567 170.972 202.567 Q176.805 202.567 182.716 204.52 Q188.628 206.447 194.748 210.353 L194.748 214.52 Q188.784 211.057 182.899 209.364 Q176.987 207.645 170.972 207.645 Q164.956 207.645 159.097 209.364 Q153.237 211.057 147.248 214.52 Z" fill="#000000" fill-rule="nonzero" fill-opacity="1" /><path clip-path="url(#clip720)" d="M159.897 6.87496 Q156.02 13.53 154.139 20.0404 Q152.258 26.5508 152.258 33.2348 Q152.258 39.9188 154.139 46.487 Q156.049 53.0263 159.897 59.6525 L155.267 59.6525 Q150.927 52.8527 148.757 46.2845 Q146.616 39.7162 146.616 33.2348 Q146.616 26.7823 148.757 20.2429 Q150.898 13.7036 155.267 6.87496 L159.897 6.87496 Z" fill="#000000" fill-rule="nonzero" fill-opacity="1" /><path clip-path="url(#clip720)" d="M170.458 8.64 L195.285 8.64 L195.285 13.559 L176.303 13.559 L176.303 26.2904 L193.433 26.2904 L193.433 31.2093 L176.303 31.2093 L176.303 51.84 L170.458 51.84 L170.458 8.64 Z" fill="#000000" fill-rule="nonzero" fill-opacity="1" /><path clip-path="url(#clip720)" d="M206.077 46.921 L215.626 46.921 L215.626 13.964 L205.238 16.0474 L205.238 10.7233 L215.568 8.64 L221.413 8.64 L221.413 46.921 L230.961 46.921 L230.961 51.84 L206.077 51.84 L206.077 46.921 Z" fill="#000000" fill-rule="nonzero" fill-opacity="1" /><path clip-path="url(#clip720)" d="M241.176 6.87496 L245.805 6.87496 Q250.145 13.7036 252.287 20.2429 Q254.457 26.7823 254.457 33.2348 Q254.457 39.7162 252.287 46.2845 Q250.145 52.8527 245.805 59.6525 L241.176 59.6525 Q245.024 53.0263 246.905 46.487 Q248.814 39.9188 248.814 33.2348 Q248.814 26.5508 246.905 20.0404 Q245.024 13.53 241.176 6.87496 Z" fill="#000000" fill-rule="nonzero" fill-opacity="1" /><path clip-path="url(#clip720)" d="M284.202 8.64 L309.028 8.64 L309.028 13.559 L290.047 13.559 L290.047 26.2904 L307.176 26.2904 L307.176 31.2093 L290.047 31.2093 L290.047 51.84 L284.202 51.84 L284.202 8.64 Z" fill="#000000" fill-rule="nonzero" fill-opacity="1" /><path clip-path="url(#clip720)" d="M314.265 39.0507 L314.265 19.4328 L319.589 19.4328 L319.589 38.8482 Q319.589 43.4488 321.383 45.7636 Q323.177 48.0495 326.765 48.0495 Q331.077 48.0495 333.565 45.3007 Q336.082 42.5519 336.082 37.8065 L336.082 19.4328 L341.406 19.4328 L341.406 51.84 L336.082 51.84 L336.082 46.8632 Q334.144 49.8145 331.569 51.2613 Q329.022 52.6791 325.637 52.6791 Q320.052 52.6791 317.159 49.2069 Q314.265 45.7347 314.265 39.0507 M327.662 18.6515 L327.662 18.6515 Z" fill="#000000" fill-rule="nonzero" fill-opacity="1" /><path clip-path="url(#clip720)" d="M379.311 32.2799 L379.311 51.84 L373.987 51.84 L373.987 32.4535 Q373.987 27.8529 372.193 25.567 Q370.399 23.2811 366.811 23.2811 Q362.5 23.2811 360.012 26.03 Q357.523 28.7788 357.523 33.5241 L357.523 51.84 L352.17 51.84 L352.17 19.4328 L357.523 19.4328 L357.523 24.4675 Q359.433 21.545 362.008 20.0983 Q364.612 18.6515 367.998 18.6515 Q373.582 18.6515 376.447 22.1237 Q379.311 25.567 379.311 32.2799 Z" fill="#000000" fill-rule="nonzero" fill-opacity="1" /><path clip-path="url(#clip720)" d="M411.256 24.3517 L411.256 6.81709 L416.58 6.81709 L416.58 51.84 L411.256 51.84 L411.256 46.9789 Q409.577 49.8724 407.002 51.2902 Q404.456 52.6791 400.868 52.6791 Q394.994 52.6791 391.29 47.9916 Q387.616 43.3042 387.616 35.6653 Q387.616 28.0265 391.29 23.339 Q394.994 18.6515 400.868 18.6515 Q404.456 18.6515 407.002 20.0693 Q409.577 21.4582 411.256 24.3517 M393.113 35.6653 Q393.113 41.5391 395.515 44.8956 Q397.946 48.2231 402.17 48.2231 Q406.395 48.2231 408.825 44.8956 Q411.256 41.5391 411.256 35.6653 Q411.256 29.7915 408.825 26.464 Q406.395 23.1075 402.17 23.1075 Q397.946 23.1075 395.515 26.464 Q393.113 29.7915 393.113 35.6653 Z" fill="#000000" fill-rule="nonzero" fill-opacity="1" /><path clip-path="url(#clip720)" d="M442.274 35.5496 Q435.821 35.5496 433.333 37.0253 Q430.845 38.501 430.845 42.06 Q430.845 44.8956 432.696 46.5738 Q434.577 48.2231 437.789 48.2231 Q442.216 48.2231 444.878 45.0981 Q447.569 41.9442 447.569 36.7359 L447.569 35.5496 L442.274 35.5496 M452.893 33.3505 L452.893 51.84 L447.569 51.84 L447.569 46.921 Q445.746 49.8724 443.026 51.2902 Q440.306 52.6791 436.371 52.6791 Q431.394 52.6791 428.443 49.9014 Q425.521 47.0947 425.521 42.4072 Q425.521 36.9385 429.166 34.1607 Q432.841 31.3829 440.104 31.3829 L447.569 31.3829 L447.569 30.8621 Q447.569 27.1874 445.139 25.1908 Q442.737 23.1654 438.368 23.1654 Q435.59 23.1654 432.957 23.8309 Q430.324 24.4964 427.893 25.8274 L427.893 20.9085 Q430.816 19.78 433.565 19.2302 Q436.313 18.6515 438.918 18.6515 Q445.949 18.6515 449.421 22.2973 Q452.893 25.9431 452.893 33.3505 Z" fill="#000000" fill-rule="nonzero" fill-opacity="1" /><path clip-path="url(#clip720)" d="M489.091 25.6538 Q491.087 22.0659 493.865 20.3587 Q496.643 18.6515 500.404 18.6515 Q505.468 18.6515 508.217 22.2105 Q510.966 25.7406 510.966 32.2799 L510.966 51.84 L505.613 51.84 L505.613 32.4535 Q505.613 27.795 503.963 25.5381 Q502.314 23.2811 498.929 23.2811 Q494.791 23.2811 492.389 26.03 Q489.988 28.7788 489.988 33.5241 L489.988 51.84 L484.635 51.84 L484.635 32.4535 Q484.635 27.7661 482.986 25.5381 Q481.336 23.2811 477.893 23.2811 Q473.813 23.2811 471.412 26.0589 Q469.01 28.8077 469.01 33.5241 L469.01 51.84 L463.657 51.84 L463.657 19.4328 L469.01 19.4328 L469.01 24.4675 Q470.833 21.4872 473.379 20.0693 Q475.925 18.6515 479.427 18.6515 Q482.957 18.6515 485.416 20.4455 Q487.905 22.2395 489.091 25.6538 Z" fill="#000000" fill-rule="nonzero" fill-opacity="1" /><path clip-path="url(#clip720)" d="M549.305 34.3054 L549.305 36.9095 L524.826 36.9095 Q525.173 42.4072 528.124 45.3007 Q531.105 48.1653 536.4 48.1653 Q539.467 48.1653 542.331 47.4129 Q545.225 46.6606 548.06 45.156 L548.06 50.1907 Q545.196 51.406 542.187 52.0425 Q539.177 52.6791 536.081 52.6791 Q528.327 52.6791 523.784 48.1653 Q519.27 43.6514 519.27 35.9547 Q519.27 27.9975 523.552 23.339 Q527.864 18.6515 535.155 18.6515 Q541.695 18.6515 545.485 22.876 Q549.305 27.0716 549.305 34.3054 M543.981 32.7429 Q543.923 28.3737 541.521 25.7695 Q539.148 23.1654 535.213 23.1654 Q530.757 23.1654 528.066 25.6827 Q525.404 28.2001 524.999 32.7718 L543.981 32.7429 Z" fill="#000000" fill-rule="nonzero" fill-opacity="1" /><path clip-path="url(#clip720)" d="M584.982 32.2799 L584.982 51.84 L579.657 51.84 L579.657 32.4535 Q579.657 27.8529 577.864 25.567 Q576.07 23.2811 572.482 23.2811 Q568.17 23.2811 565.682 26.03 Q563.193 28.7788 563.193 33.5241 L563.193 51.84 L557.84 51.84 L557.84 19.4328 L563.193 19.4328 L563.193 24.4675 Q565.103 21.545 567.678 20.0983 Q570.283 18.6515 573.668 18.6515 Q579.252 18.6515 582.117 22.1237 Q584.982 25.567 584.982 32.2799 Z" fill="#000000" fill-rule="nonzero" fill-opacity="1" /><path clip-path="url(#clip720)" d="M600.867 10.2314 L600.867 19.4328 L611.833 19.4328 L611.833 23.5705 L600.867 23.5705 L600.867 41.163 Q600.867 45.1271 601.937 46.2555 Q603.037 47.384 606.365 47.384 L611.833 47.384 L611.833 51.84 L606.365 51.84 Q600.201 51.84 597.858 49.5541 Q595.514 47.2393 595.514 41.163 L595.514 23.5705 L591.608 23.5705 L591.608 19.4328 L595.514 19.4328 L595.514 10.2314 L600.867 10.2314 Z" fill="#000000" fill-rule="nonzero" fill-opacity="1" /><path clip-path="url(#clip720)" d="M633.563 35.5496 Q627.111 35.5496 624.623 37.0253 Q622.134 38.501 622.134 42.06 Q622.134 44.8956 623.986 46.5738 Q625.867 48.2231 629.079 48.2231 Q633.506 48.2231 636.168 45.0981 Q638.859 41.9442 638.859 36.7359 L638.859 35.5496 L633.563 35.5496 M644.183 33.3505 L644.183 51.84 L638.859 51.84 L638.859 46.921 Q637.036 49.8724 634.316 51.2902 Q631.596 52.6791 627.661 52.6791 Q622.684 52.6791 619.733 49.9014 Q616.81 47.0947 616.81 42.4072 Q616.81 36.9385 620.456 34.1607 Q624.131 31.3829 631.393 31.3829 L638.859 31.3829 L638.859 30.8621 Q638.859 27.1874 636.428 25.1908 Q634.026 23.1654 629.657 23.1654 Q626.879 23.1654 624.246 23.8309 Q621.613 24.4964 619.183 25.8274 L619.183 20.9085 Q622.105 19.78 624.854 19.2302 Q627.603 18.6515 630.207 18.6515 Q637.238 18.6515 640.71 22.2973 Q644.183 25.9431 644.183 33.3505 Z" fill="#000000" fill-rule="nonzero" fill-opacity="1" /><path clip-path="url(#clip720)" d="M655.149 6.81709 L660.473 6.81709 L660.473 51.84 L655.149 51.84 L655.149 6.81709 Z" fill="#000000" fill-rule="nonzero" fill-opacity="1" /><path clip-path="url(#clip720)" d="M711.775 35.2602 Q711.775 29.4732 709.373 26.2904 Q707.001 23.1075 702.689 23.1075 Q698.407 23.1075 696.005 26.2904 Q693.633 29.4732 693.633 35.2602 Q693.633 41.0183 696.005 44.2012 Q698.407 47.384 702.689 47.384 Q707.001 47.384 709.373 44.2012 Q711.775 41.0183 711.775 35.2602 M717.099 47.818 Q717.099 56.0934 713.424 60.1154 Q709.749 64.1663 702.168 64.1663 Q699.362 64.1663 696.873 63.7323 Q694.385 63.3272 692.041 62.4592 L692.041 57.2798 Q694.385 58.5529 696.671 59.1606 Q698.957 59.7682 701.329 59.7682 Q706.567 59.7682 709.171 57.0194 Q711.775 54.2995 711.775 48.7729 L711.775 46.1398 Q710.126 49.0044 707.55 50.4222 Q704.975 51.84 701.387 51.84 Q695.427 51.84 691.781 47.2972 Q688.135 42.7544 688.135 35.2602 Q688.135 27.7371 691.781 23.1943 Q695.427 18.6515 701.387 18.6515 Q704.975 18.6515 707.55 20.0693 Q710.126 21.4872 711.775 24.3517 L711.775 19.4328 L717.099 19.4328 L717.099 47.818 Z" fill="#000000" fill-rule="nonzero" fill-opacity="1" /><path clip-path="url(#clip720)" d="M742.793 35.5496 Q736.341 35.5496 733.852 37.0253 Q731.364 38.501 731.364 42.06 Q731.364 44.8956 733.216 46.5738 Q735.096 48.2231 738.308 48.2231 Q742.735 48.2231 745.397 45.0981 Q748.088 41.9442 748.088 36.7359 L748.088 35.5496 L742.793 35.5496 M753.412 33.3505 L753.412 51.84 L748.088 51.84 L748.088 46.921 Q746.265 49.8724 743.546 51.2902 Q740.826 52.6791 736.89 52.6791 Q731.914 52.6791 728.962 49.9014 Q726.04 47.0947 726.04 42.4072 Q726.04 36.9385 729.686 34.1607 Q733.36 31.3829 740.623 31.3829 L748.088 31.3829 L748.088 30.8621 Q748.088 27.1874 745.658 25.1908 Q743.256 23.1654 738.887 23.1654 Q736.109 23.1654 733.476 23.8309 Q730.843 24.4964 728.412 25.8274 L728.412 20.9085 Q731.335 19.78 734.084 19.2302 Q736.833 18.6515 739.437 18.6515 Q746.468 18.6515 749.94 22.2973 Q753.412 25.9431 753.412 33.3505 Z" fill="#000000" fill-rule="nonzero" fill-opacity="1" /><path clip-path="url(#clip720)" d="M764.379 19.4328 L769.703 19.4328 L769.703 51.84 L764.379 51.84 L764.379 19.4328 M764.379 6.81709 L769.703 6.81709 L769.703 13.559 L764.379 13.559 L764.379 6.81709 Z" fill="#000000" fill-rule="nonzero" fill-opacity="1" /><path clip-path="url(#clip720)" d="M807.781 32.2799 L807.781 51.84 L802.457 51.84 L802.457 32.4535 Q802.457 27.8529 800.663 25.567 Q798.869 23.2811 795.281 23.2811 Q790.97 23.2811 788.482 26.03 Q785.993 28.7788 785.993 33.5241 L785.993 51.84 L780.64 51.84 L780.64 19.4328 L785.993 19.4328 L785.993 24.4675 Q787.903 21.545 790.478 20.0983 Q793.082 18.6515 796.468 18.6515 Q802.052 18.6515 804.917 22.1237 Q807.781 25.567 807.781 32.2799 Z" fill="#000000" fill-rule="nonzero" fill-opacity="1" /><path clip-path="url(#clip720)" d="M864.176 32.2799 L864.176 51.84 L858.852 51.84 L858.852 32.4535 Q858.852 27.8529 857.058 25.567 Q855.264 23.2811 851.676 23.2811 Q847.364 23.2811 844.876 26.03 Q842.388 28.7788 842.388 33.5241 L842.388 51.84 L837.035 51.84 L837.035 19.4328 L842.388 19.4328 L842.388 24.4675 Q844.297 21.545 846.872 20.0983 Q849.477 18.6515 852.862 18.6515 Q858.447 18.6515 861.311 22.1237 Q864.176 25.567 864.176 32.2799 Z" fill="#000000" fill-rule="nonzero" fill-opacity="1" /><path clip-path="url(#clip720)" d="M887.353 23.1654 Q883.07 23.1654 880.582 26.5218 Q878.093 29.8494 878.093 35.6653 Q878.093 41.4813 880.553 44.8377 Q883.041 48.1653 887.353 48.1653 Q891.606 48.1653 894.094 44.8088 Q896.583 41.4523 896.583 35.6653 Q896.583 29.9072 894.094 26.5508 Q891.606 23.1654 887.353 23.1654 M887.353 18.6515 Q894.297 18.6515 898.261 23.1654 Q902.225 27.6792 902.225 35.6653 Q902.225 43.6225 898.261 48.1653 Q894.297 52.6791 887.353 52.6791 Q880.379 52.6791 876.415 48.1653 Q872.48 43.6225 872.48 35.6653 Q872.48 27.6792 876.415 23.1654 Q880.379 18.6515 887.353 18.6515 Z" fill="#000000" fill-rule="nonzero" fill-opacity="1" /><path clip-path="url(#clip720)" d="M929.829 24.4096 Q928.932 23.8888 927.862 23.6573 Q926.82 23.3969 925.547 23.3969 Q921.033 23.3969 918.602 26.3482 Q916.201 29.2707 916.201 34.7683 L916.201 51.84 L910.848 51.84 L910.848 19.4328 L916.201 19.4328 L916.201 24.4675 Q917.879 21.5161 920.57 20.0983 Q923.261 18.6515 927.109 18.6515 Q927.659 18.6515 928.325 18.7383 Q928.99 18.7962 929.8 18.9409 L929.829 24.4096 Z" fill="#000000" fill-rule="nonzero" fill-opacity="1" /><path clip-path="url(#clip720)" d="M959.603 25.6538 Q961.6 22.0659 964.378 20.3587 Q967.155 18.6515 970.917 18.6515 Q975.981 18.6515 978.729 22.2105 Q981.478 25.7406 981.478 32.2799 L981.478 51.84 L976.125 51.84 L976.125 32.4535 Q976.125 27.795 974.476 25.5381 Q972.827 23.2811 969.441 23.2811 Q965.304 23.2811 962.902 26.03 Q960.5 28.7788 960.5 33.5241 L960.5 51.84 L955.147 51.84 L955.147 32.4535 Q955.147 27.7661 953.498 25.5381 Q951.849 23.2811 948.406 23.2811 Q944.326 23.2811 941.924 26.0589 Q939.522 28.8077 939.522 33.5241 L939.522 51.84 L934.169 51.84 L934.169 19.4328 L939.522 19.4328 L939.522 24.4675 Q941.345 21.4872 943.892 20.0693 Q946.438 18.6515 949.939 18.6515 Q953.469 18.6515 955.929 20.4455 Q958.417 22.2395 959.603 25.6538 Z" fill="#000000" fill-rule="nonzero" fill-opacity="1" /><path clip-path="url(#clip720)" d="M1006.83 35.5496 Q1000.37 35.5496 997.884 37.0253 Q995.396 38.501 995.396 42.06 Q995.396 44.8956 997.248 46.5738 Q999.129 48.2231 1002.34 48.2231 Q1006.77 48.2231 1009.43 45.0981 Q1012.12 41.9442 1012.12 36.7359 L1012.12 35.5496 L1006.83 35.5496 M1017.44 33.3505 L1017.44 51.84 L1012.12 51.84 L1012.12 46.921 Q1010.3 49.8724 1007.58 51.2902 Q1004.86 52.6791 1000.92 52.6791 Q995.946 52.6791 992.994 49.9014 Q990.072 47.0947 990.072 42.4072 Q990.072 36.9385 993.718 34.1607 Q997.393 31.3829 1004.66 31.3829 L1012.12 31.3829 L1012.12 30.8621 Q1012.12 27.1874 1009.69 25.1908 Q1007.29 23.1654 1002.92 23.1654 Q1000.14 23.1654 997.508 23.8309 Q994.875 24.4964 992.445 25.8274 L992.445 20.9085 Q995.367 19.78 998.116 19.2302 Q1000.86 18.6515 1003.47 18.6515 Q1010.5 18.6515 1013.97 22.2973 Q1017.44 25.9431 1017.44 33.3505 Z" fill="#000000" fill-rule="nonzero" fill-opacity="1" /><path clip-path="url(#clip720)" d="M1028.41 6.81709 L1033.73 6.81709 L1033.73 51.84 L1028.41 51.84 L1028.41 6.81709 Z" fill="#000000" fill-rule="nonzero" fill-opacity="1" /><path clip-path="url(#clip720)" d="M1044.87 19.4328 L1050.2 19.4328 L1050.2 51.84 L1044.87 51.84 L1044.87 19.4328 M1044.87 6.81709 L1050.2 6.81709 L1050.2 13.559 L1044.87 13.559 L1044.87 6.81709 Z" fill="#000000" fill-rule="nonzero" fill-opacity="1" /><path clip-path="url(#clip720)" d="M1059.02 19.4328 L1084.31 19.4328 L1084.31 24.2939 L1064.29 47.5866 L1084.31 47.5866 L1084.31 51.84 L1058.3 51.84 L1058.3 46.9789 L1078.32 23.6862 L1059.02 23.6862 L1059.02 19.4328 Z" fill="#000000" fill-rule="nonzero" fill-opacity="1" /><path clip-path="url(#clip720)" d="M1120.16 34.3054 L1120.16 36.9095 L1095.68 36.9095 Q1096.03 42.4072 1098.98 45.3007 Q1101.96 48.1653 1107.26 48.1653 Q1110.33 48.1653 1113.19 47.4129 Q1116.08 46.6606 1118.92 45.156 L1118.92 50.1907 Q1116.06 51.406 1113.05 52.0425 Q1110.04 52.6791 1106.94 52.6791 Q1099.19 52.6791 1094.64 48.1653 Q1090.13 43.6514 1090.13 35.9547 Q1090.13 27.9975 1094.41 23.339 Q1098.72 18.6515 1106.01 18.6515 Q1112.55 18.6515 1116.34 22.876 Q1120.16 27.0716 1120.16 34.3054 M1114.84 32.7429 Q1114.78 28.3737 1112.38 25.7695 Q1110.01 23.1654 1106.07 23.1654 Q1101.62 23.1654 1098.93 25.6827 Q1096.26 28.2001 1095.86 32.7718 L1114.84 32.7429 Z" fill="#000000" fill-rule="nonzero" fill-opacity="1" /><path clip-path="url(#clip720)" d="M1150.23 24.3517 L1150.23 6.81709 L1155.55 6.81709 L1155.55 51.84 L1150.23 51.84 L1150.23 46.9789 Q1148.55 49.8724 1145.97 51.2902 Q1143.43 52.6791 1139.84 52.6791 Q1133.97 52.6791 1130.26 47.9916 Q1126.59 43.3042 1126.59 35.6653 Q1126.59 28.0265 1130.26 23.339 Q1133.97 18.6515 1139.84 18.6515 Q1143.43 18.6515 1145.97 20.0693 Q1148.55 21.4582 1150.23 24.3517 M1132.09 35.6653 Q1132.09 41.5391 1134.49 44.8956 Q1136.92 48.2231 1141.14 48.2231 Q1145.37 48.2231 1147.8 44.8956 Q1150.23 41.5391 1150.23 35.6653 Q1150.23 29.7915 1147.8 26.464 Q1145.37 23.1075 1141.14 23.1075 Q1136.92 23.1075 1134.49 26.464 Q1132.09 29.7915 1132.09 35.6653 Z" fill="#000000" fill-rule="nonzero" fill-opacity="1" /><path clip-path="url(#clip720)" d="M1208.62 35.6653 Q1208.62 29.7915 1206.19 26.464 Q1203.79 23.1075 1199.56 23.1075 Q1195.34 23.1075 1192.91 26.464 Q1190.5 29.7915 1190.5 35.6653 Q1190.5 41.5391 1192.91 44.8956 Q1195.34 48.2231 1199.56 48.2231 Q1203.79 48.2231 1206.19 44.8956 Q1208.62 41.5391 1208.62 35.6653 M1190.5 24.3517 Q1192.18 21.4582 1194.73 20.0693 Q1197.3 18.6515 1200.86 18.6515 Q1206.77 18.6515 1210.44 23.339 Q1214.14 28.0265 1214.14 35.6653 Q1214.14 43.3042 1210.44 47.9916 Q1206.77 52.6791 1200.86 52.6791 Q1197.3 52.6791 1194.73 51.2902 Q1192.18 49.8724 1190.5 46.9789 L1190.5 51.84 L1185.15 51.84 L1185.15 6.81709 L1190.5 6.81709 L1190.5 24.3517 Z" fill="#000000" fill-rule="nonzero" fill-opacity="1" /><path clip-path="url(#clip720)" d="M1236.45 54.8492 Q1234.2 60.6362 1232.06 62.4013 Q1229.91 64.1663 1226.33 64.1663 L1222.07 64.1663 L1222.07 59.7103 L1225.2 59.7103 Q1227.4 59.7103 1228.61 58.6687 Q1229.83 57.627 1231.3 53.7497 L1232.26 51.3192 L1219.15 19.4328 L1224.79 19.4328 L1234.92 44.7799 L1245.05 19.4328 L1250.69 19.4328 L1236.45 54.8492 Z" fill="#000000" fill-rule="nonzero" fill-opacity="1" /><path clip-path="url(#clip720)" d="M1295.65 24.4096 Q1294.76 23.8888 1293.69 23.6573 Q1292.65 23.3969 1291.37 23.3969 Q1286.86 23.3969 1284.43 26.3482 Q1282.03 29.2707 1282.03 34.7683 L1282.03 51.84 L1276.67 51.84 L1276.67 19.4328 L1282.03 19.4328 L1282.03 24.4675 Q1283.7 21.5161 1286.4 20.0983 Q1289.09 18.6515 1292.93 18.6515 Q1293.48 18.6515 1294.15 18.7383 Q1294.82 18.7962 1295.63 18.9409 L1295.65 24.4096 Z" fill="#000000" fill-rule="nonzero" fill-opacity="1" /><path clip-path="url(#clip720)" d="M1315.97 35.5496 Q1309.51 35.5496 1307.03 37.0253 Q1304.54 38.501 1304.54 42.06 Q1304.54 44.8956 1306.39 46.5738 Q1308.27 48.2231 1311.48 48.2231 Q1315.91 48.2231 1318.57 45.0981 Q1321.26 41.9442 1321.26 36.7359 L1321.26 35.5496 L1315.97 35.5496 M1326.59 33.3505 L1326.59 51.84 L1321.26 51.84 L1321.26 46.921 Q1319.44 49.8724 1316.72 51.2902 Q1314 52.6791 1310.06 52.6791 Q1305.09 52.6791 1302.14 49.9014 Q1299.21 47.0947 1299.21 42.4072 Q1299.21 36.9385 1302.86 34.1607 Q1306.53 31.3829 1313.8 31.3829 L1321.26 31.3829 L1321.26 30.8621 Q1321.26 27.1874 1318.83 25.1908 Q1316.43 23.1654 1312.06 23.1654 Q1309.28 23.1654 1306.65 23.8309 Q1304.02 24.4964 1301.59 25.8274 L1301.59 20.9085 Q1304.51 19.78 1307.26 19.2302 Q1310.01 18.6515 1312.61 18.6515 Q1319.64 18.6515 1323.11 22.2973 Q1326.59 25.9431 1326.59 33.3505 Z" fill="#000000" fill-rule="nonzero" fill-opacity="1" /><path clip-path="url(#clip720)" d="M1364.49 32.2799 L1364.49 51.84 L1359.17 51.84 L1359.17 32.4535 Q1359.17 27.8529 1357.37 25.567 Q1355.58 23.2811 1351.99 23.2811 Q1347.68 23.2811 1345.19 26.03 Q1342.7 28.7788 1342.7 33.5241 L1342.7 51.84 L1337.35 51.84 L1337.35 19.4328 L1342.7 19.4328 L1342.7 24.4675 Q1344.61 21.545 1347.19 20.0983 Q1349.79 18.6515 1353.18 18.6515 Q1358.76 18.6515 1361.63 22.1237 Q1364.49 25.567 1364.49 32.2799 Z" fill="#000000" fill-rule="nonzero" fill-opacity="1" /><path clip-path="url(#clip720)" d="M1374.91 6.81709 L1380.26 6.81709 L1380.26 33.4084 L1396.15 19.4328 L1402.95 19.4328 L1385.76 34.5947 L1403.67 51.84 L1396.72 51.84 L1380.26 36.0125 L1380.26 51.84 L1374.91 51.84 L1374.91 6.81709 Z" fill="#000000" fill-rule="nonzero" fill-opacity="1" /><circle clip-path="url(#clip722)" cx="390.894" cy="599.852" r="10.8" fill="#4482b5" fill-rule="evenodd" fill-opacity="0.65" stroke="none"/>
<circle clip-path="url(#clip722)" cx="350.791" cy="634.272" r="10.8" fill="#4482b5" fill-rule="evenodd" fill-opacity="0.65" stroke="none"/>
<circle clip-path="url(#clip722)" cx="418.167" cy="613.142" r="10.8" fill="#4482b5" fill-rule="evenodd" fill-opacity="0.65" stroke="none"/>
<circle clip-path="url(#clip722)" cx="384.05" cy="632.513" r="10.8" fill="#4482b5" fill-rule="evenodd" fill-opacity="0.65" stroke="none"/>
<circle clip-path="url(#clip722)" cx="398.333" cy="611.107" r="10.8" fill="#4482b5" fill-rule="evenodd" fill-opacity="0.65" stroke="none"/>
<circle clip-path="url(#clip722)" cx="372.626" cy="515.182" r="10.8" fill="#4482b5" fill-rule="evenodd" fill-opacity="0.65" stroke="none"/>
<circle clip-path="url(#clip722)" cx="351.786" cy="491.076" r="10.8" fill="#4482b5" fill-rule="evenodd" fill-opacity="0.65" stroke="none"/>
<circle clip-path="url(#clip722)" cx="421.999" cy="497.185" r="10.8" fill="#4482b5" fill-rule="evenodd" fill-opacity="0.65" stroke="none"/>
<circle clip-path="url(#clip722)" cx="418" cy="550.896" r="10.8" fill="#4482b5" fill-rule="evenodd" fill-opacity="0.65" stroke="none"/>
<circle clip-path="url(#clip722)" cx="392.036" cy="542.268" r="10.8" fill="#4482b5" fill-rule="evenodd" fill-opacity="0.65" stroke="none"/>
<circle clip-path="url(#clip722)" cx="373.872" cy="708.189" r="10.8" fill="#4482b5" fill-rule="evenodd" fill-opacity="0.65" stroke="none"/>
<circle clip-path="url(#clip722)" cx="379.017" cy="673.481" r="10.8" fill="#4482b5" fill-rule="evenodd" fill-opacity="0.65" stroke="none"/>
<circle clip-path="url(#clip722)" cx="402.607" cy="721.719" r="10.8" fill="#4482b5" fill-rule="evenodd" fill-opacity="0.65" stroke="none"/>
<circle clip-path="url(#clip722)" cx="387.913" cy="725.984" r="10.8" fill="#4482b5" fill-rule="evenodd" fill-opacity="0.65" stroke="none"/>
<circle clip-path="url(#clip722)" cx="381.824" cy="618.574" r="10.8" fill="#4482b5" fill-rule="evenodd" fill-opacity="0.65" stroke="none"/>
<circle clip-path="url(#clip722)" cx="365.515" cy="703.247" r="10.8" fill="#4482b5" fill-rule="evenodd" fill-opacity="0.65" stroke="none"/>
<circle clip-path="url(#clip722)" cx="424.509" cy="642.577" r="10.8" fill="#4482b5" fill-rule="evenodd" fill-opacity="0.65" stroke="none"/>
<circle clip-path="url(#clip722)" cx="405.45" cy="640.144" r="10.8" fill="#4482b5" fill-rule="evenodd" fill-opacity="0.65" stroke="none"/>
<circle clip-path="url(#clip722)" cx="378.296" cy="649.377" r="10.8" fill="#4482b5" fill-rule="evenodd" fill-opacity="0.65" stroke="none"/>
<circle clip-path="url(#clip722)" cx="378.488" cy="703.631" r="10.8" fill="#4482b5" fill-rule="evenodd" fill-opacity="0.65" stroke="none"/>
<circle clip-path="url(#clip722)" cx="417.339" cy="723.347" r="10.8" fill="#4482b5" fill-rule="evenodd" fill-opacity="0.65" stroke="none"/>
<circle clip-path="url(#clip722)" cx="379.381" cy="684.929" r="10.8" fill="#4482b5" fill-rule="evenodd" fill-opacity="0.65" stroke="none"/>
<circle clip-path="url(#clip722)" cx="361.033" cy="595.736" r="10.8" fill="#4482b5" fill-rule="evenodd" fill-opacity="0.65" stroke="none"/>
<circle clip-path="url(#clip722)" cx="364.466" cy="638.292" r="10.8" fill="#4482b5" fill-rule="evenodd" fill-opacity="0.65" stroke="none"/>
<circle clip-path="url(#clip722)" cx="401.664" cy="657.466" r="10.8" fill="#4482b5" fill-rule="evenodd" fill-opacity="0.65" stroke="none"/>
<circle clip-path="url(#clip722)" cx="343.987" cy="640.366" r="10.8" fill="#4482b5" fill-rule="evenodd" fill-opacity="0.65" stroke="none"/>
<circle clip-path="url(#clip722)" cx="339.681" cy="623.776" r="10.8" fill="#4482b5" fill-rule="evenodd" fill-opacity="0.65" stroke="none"/>
<circle clip-path="url(#clip722)" cx="394.425" cy="684.043" r="10.8" fill="#4482b5" fill-rule="evenodd" fill-opacity="0.65" stroke="none"/>
<circle clip-path="url(#clip722)" cx="363.749" cy="632.911" r="10.8" fill="#4482b5" fill-rule="evenodd" fill-opacity="0.65" stroke="none"/>
<circle clip-path="url(#clip722)" cx="419.11" cy="693.197" r="10.8" fill="#4482b5" fill-rule="evenodd" fill-opacity="0.65" stroke="none"/>
<circle clip-path="url(#clip722)" cx="379.015" cy="656.698" r="10.8" fill="#4482b5" fill-rule="evenodd" fill-opacity="0.65" stroke="none"/>
<circle clip-path="url(#clip722)" cx="347.448" cy="735.146" r="10.8" fill="#4482b5" fill-rule="evenodd" fill-opacity="0.65" stroke="none"/>
<circle clip-path="url(#clip722)" cx="418.494" cy="727.815" r="10.8" fill="#4482b5" fill-rule="evenodd" fill-opacity="0.65" stroke="none"/>
<circle clip-path="url(#clip722)" cx="370.982" cy="644.344" r="10.8" fill="#4482b5" fill-rule="evenodd" fill-opacity="0.65" stroke="none"/>
<circle clip-path="url(#clip722)" cx="383.653" cy="489.267" r="10.8" fill="#4482b5" fill-rule="evenodd" fill-opacity="0.65" stroke="none"/>
<circle clip-path="url(#clip722)" cx="368.638" cy="552.494" r="10.8" fill="#4482b5" fill-rule="evenodd" fill-opacity="0.65" stroke="none"/>
<circle clip-path="url(#clip722)" cx="352.238" cy="507.98" r="10.8" fill="#4482b5" fill-rule="evenodd" fill-opacity="0.65" stroke="none"/>
<circle clip-path="url(#clip722)" cx="348.862" cy="531.388" r="10.8" fill="#4482b5" fill-rule="evenodd" fill-opacity="0.65" stroke="none"/>
<circle clip-path="url(#clip722)" cx="394.806" cy="527.777" r="10.8" fill="#4482b5" fill-rule="evenodd" fill-opacity="0.65" stroke="none"/>
<circle clip-path="url(#clip722)" cx="383.534" cy="531.32" r="10.8" fill="#4482b5" fill-rule="evenodd" fill-opacity="0.65" stroke="none"/>
<circle clip-path="url(#clip722)" cx="411.775" cy="521.45" r="10.8" fill="#4482b5" fill-rule="evenodd" fill-opacity="0.65" stroke="none"/>
<circle clip-path="url(#clip722)" cx="388.775" cy="535.874" r="10.8" fill="#4482b5" fill-rule="evenodd" fill-opacity="0.65" stroke="none"/>
<circle clip-path="url(#clip722)" cx="344.531" cy="527.872" r="10.8" fill="#4482b5" fill-rule="evenodd" fill-opacity="0.65" stroke="none"/>
<circle clip-path="url(#clip722)" cx="407.473" cy="543.296" r="10.8" fill="#4482b5" fill-rule="evenodd" fill-opacity="0.65" stroke="none"/>
<circle clip-path="url(#clip722)" cx="350.852" cy="556.783" r="10.8" fill="#4482b5" fill-rule="evenodd" fill-opacity="0.65" stroke="none"/>
<circle clip-path="url(#clip722)" cx="393.441" cy="564.545" r="10.8" fill="#4482b5" fill-rule="evenodd" fill-opacity="0.65" stroke="none"/>
<circle clip-path="url(#clip722)" cx="372.884" cy="557.297" r="10.8" fill="#4482b5" fill-rule="evenodd" fill-opacity="0.65" stroke="none"/>
<circle clip-path="url(#clip722)" cx="391.173" cy="516.012" r="10.8" fill="#4482b5" fill-rule="evenodd" fill-opacity="0.65" stroke="none"/>
<circle clip-path="url(#clip722)" cx="347.95" cy="492.455" r="10.8" fill="#4482b5" fill-rule="evenodd" fill-opacity="0.65" stroke="none"/>
<circle clip-path="url(#clip722)" cx="409.63" cy="557.102" r="10.8" fill="#4482b5" fill-rule="evenodd" fill-opacity="0.65" stroke="none"/>
<circle clip-path="url(#clip722)" cx="341.484" cy="522.173" r="10.8" fill="#4482b5" fill-rule="evenodd" fill-opacity="0.65" stroke="none"/>
<circle clip-path="url(#clip722)" cx="407.577" cy="597.549" r="10.8" fill="#4482b5" fill-rule="evenodd" fill-opacity="0.65" stroke="none"/>
<circle clip-path="url(#clip722)" cx="405.051" cy="461.848" r="10.8" fill="#4482b5" fill-rule="evenodd" fill-opacity="0.65" stroke="none"/>
<circle clip-path="url(#clip722)" cx="400.804" cy="462.48" r="10.8" fill="#4482b5" fill-rule="evenodd" fill-opacity="0.65" stroke="none"/>
<circle clip-path="url(#clip722)" cx="364.902" cy="490.335" r="10.8" fill="#4482b5" fill-rule="evenodd" fill-opacity="0.65" stroke="none"/>
<circle clip-path="url(#clip722)" cx="372.635" cy="523.631" r="10.8" fill="#4482b5" fill-rule="evenodd" fill-opacity="0.65" stroke="none"/>
<circle clip-path="url(#clip722)" cx="393.437" cy="525.769" r="10.8" fill="#4482b5" fill-rule="evenodd" fill-opacity="0.65" stroke="none"/>
<circle clip-path="url(#clip722)" cx="364.993" cy="546.911" r="10.8" fill="#4482b5" fill-rule="evenodd" fill-opacity="0.65" stroke="none"/>
<circle clip-path="url(#clip722)" cx="369.171" cy="567.5" r="10.8" fill="#4482b5" fill-rule="evenodd" fill-opacity="0.65" stroke="none"/>
<circle clip-path="url(#clip722)" cx="395.597" cy="549.221" r="10.8" fill="#4482b5" fill-rule="evenodd" fill-opacity="0.65" stroke="none"/>
<circle clip-path="url(#clip722)" cx="364.819" cy="566.773" r="10.8" fill="#4482b5" fill-rule="evenodd" fill-opacity="0.65" stroke="none"/>
<circle clip-path="url(#clip722)" cx="371.423" cy="541.254" r="10.8" fill="#4482b5" fill-rule="evenodd" fill-opacity="0.65" stroke="none"/>
<circle clip-path="url(#clip722)" cx="368.339" cy="597.825" r="10.8" fill="#4482b5" fill-rule="evenodd" fill-opacity="0.65" stroke="none"/>
<circle clip-path="url(#clip722)" cx="393.202" cy="413.566" r="10.8" fill="#4482b5" fill-rule="evenodd" fill-opacity="0.65" stroke="none"/>
<circle clip-path="url(#clip722)" cx="361.091" cy="580.937" r="10.8" fill="#4482b5" fill-rule="evenodd" fill-opacity="0.65" stroke="none"/>
<circle clip-path="url(#clip722)" cx="421.953" cy="581.79" r="10.8" fill="#4482b5" fill-rule="evenodd" fill-opacity="0.65" stroke="none"/>
<circle clip-path="url(#clip722)" cx="344.148" cy="487.822" r="10.8" fill="#4482b5" fill-rule="evenodd" fill-opacity="0.65" stroke="none"/>
<circle clip-path="url(#clip722)" cx="399.478" cy="496.331" r="10.8" fill="#4482b5" fill-rule="evenodd" fill-opacity="0.65" stroke="none"/>
<circle clip-path="url(#clip722)" cx="368.323" cy="529.681" r="10.8" fill="#4482b5" fill-rule="evenodd" fill-opacity="0.65" stroke="none"/>
<circle clip-path="url(#clip722)" cx="404.991" cy="476.617" r="10.8" fill="#4482b5" fill-rule="evenodd" fill-opacity="0.65" stroke="none"/>
<circle clip-path="url(#clip722)" cx="340.702" cy="553.996" r="10.8" fill="#4482b5" fill-rule="evenodd" fill-opacity="0.65" stroke="none"/>
<circle clip-path="url(#clip722)" cx="359.363" cy="563.338" r="10.8" fill="#4482b5" fill-rule="evenodd" fill-opacity="0.65" stroke="none"/>
<circle clip-path="url(#clip722)" cx="421.113" cy="531.204" r="10.8" fill="#4482b5" fill-rule="evenodd" fill-opacity="0.65" stroke="none"/>
<circle clip-path="url(#clip722)" cx="344.466" cy="488.918" r="10.8" fill="#4482b5" fill-rule="evenodd" fill-opacity="0.65" stroke="none"/>
<circle clip-path="url(#clip722)" cx="373.554" cy="660" r="10.8" fill="#4482b5" fill-rule="evenodd" fill-opacity="0.65" stroke="none"/>
<circle clip-path="url(#clip722)" cx="383.59" cy="364.208" r="10.8" fill="#4482b5" fill-rule="evenodd" fill-opacity="0.65" stroke="none"/>
<circle clip-path="url(#clip722)" cx="378.773" cy="535.031" r="10.8" fill="#4482b5" fill-rule="evenodd" fill-opacity="0.65" stroke="none"/>
<circle clip-path="url(#clip722)" cx="424.006" cy="491.896" r="10.8" fill="#4482b5" fill-rule="evenodd" fill-opacity="0.65" stroke="none"/>
<circle clip-path="url(#clip722)" cx="403.163" cy="529.803" r="10.8" fill="#4482b5" fill-rule="evenodd" fill-opacity="0.65" stroke="none"/>
<circle clip-path="url(#clip722)" cx="371.106" cy="389.716" r="10.8" fill="#4482b5" fill-rule="evenodd" fill-opacity="0.65" stroke="none"/>
<circle clip-path="url(#clip722)" cx="402.947" cy="396.852" r="10.8" fill="#4482b5" fill-rule="evenodd" fill-opacity="0.65" stroke="none"/>
<circle clip-path="url(#clip722)" cx="368.727" cy="558.696" r="10.8" fill="#4482b5" fill-rule="evenodd" fill-opacity="0.65" stroke="none"/>
<circle clip-path="url(#clip722)" cx="344.844" cy="495.501" r="10.8" fill="#4482b5" fill-rule="evenodd" fill-opacity="0.65" stroke="none"/>
<circle clip-path="url(#clip722)" cx="405.09" cy="482.81" r="10.8" fill="#4482b5" fill-rule="evenodd" fill-opacity="0.65" stroke="none"/>
<circle clip-path="url(#clip722)" cx="381.621" cy="342.949" r="10.8" fill="#4482b5" fill-rule="evenodd" fill-opacity="0.65" stroke="none"/>
<circle clip-path="url(#clip722)" cx="373.067" cy="447.482" r="10.8" fill="#4482b5" fill-rule="evenodd" fill-opacity="0.65" stroke="none"/>
<circle clip-path="url(#clip722)" cx="370.846" cy="495.48" r="10.8" fill="#4482b5" fill-rule="evenodd" fill-opacity="0.65" stroke="none"/>
<circle clip-path="url(#clip722)" cx="352.03" cy="275.995" r="10.8" fill="#4482b5" fill-rule="evenodd" fill-opacity="0.65" stroke="none"/>
<circle clip-path="url(#clip722)" cx="364.594" cy="398.141" r="10.8" fill="#4482b5" fill-rule="evenodd" fill-opacity="0.65" stroke="none"/>
<circle clip-path="url(#clip722)" cx="355.196" cy="458.348" r="10.8" fill="#4482b5" fill-rule="evenodd" fill-opacity="0.65" stroke="none"/>
<circle clip-path="url(#clip722)" cx="386.748" cy="489.332" r="10.8" fill="#4482b5" fill-rule="evenodd" fill-opacity="0.65" stroke="none"/>
<circle clip-path="url(#clip722)" cx="353.303" cy="371.602" r="10.8" fill="#4482b5" fill-rule="evenodd" fill-opacity="0.65" stroke="none"/>
<circle clip-path="url(#clip722)" cx="375.016" cy="520.322" r="10.8" fill="#4482b5" fill-rule="evenodd" fill-opacity="0.65" stroke="none"/>
<circle clip-path="url(#clip722)" cx="363.08" cy="389.437" r="10.8" fill="#4482b5" fill-rule="evenodd" fill-opacity="0.65" stroke="none"/>
<polyline clip-path="url(#clip722)" style="stroke:#000000; stroke-linecap:round; stroke-linejoin:round; stroke-width:12; stroke-opacity:1; fill:none" points="296.485,545.104 469.116,545.104 "/>
<polyline clip-path="url(#clip722)" style="stroke:#000000; stroke-linecap:round; stroke-linejoin:round; stroke-width:8; stroke-opacity:1; fill:none" points="382.8,630.329 382.8,495.485 "/>
<circle clip-path="url(#clip722)" cx="744.664" cy="462.019" r="10.8" fill="#ff8c00" fill-rule="evenodd" fill-opacity="0.65" stroke="none"/>
<circle clip-path="url(#clip722)" cx="782.654" cy="536.358" r="10.8" fill="#ff8c00" fill-rule="evenodd" fill-opacity="0.65" stroke="none"/>
<circle clip-path="url(#clip722)" cx="759.443" cy="525.924" r="10.8" fill="#ff8c00" fill-rule="evenodd" fill-opacity="0.65" stroke="none"/>
<circle clip-path="url(#clip722)" cx="733.531" cy="517.188" r="10.8" fill="#ff8c00" fill-rule="evenodd" fill-opacity="0.65" stroke="none"/>
<circle clip-path="url(#clip722)" cx="787.287" cy="514.013" r="10.8" fill="#ff8c00" fill-rule="evenodd" fill-opacity="0.65" stroke="none"/>
<circle clip-path="url(#clip722)" cx="807.947" cy="314.626" r="10.8" fill="#ff8c00" fill-rule="evenodd" fill-opacity="0.65" stroke="none"/>
<circle clip-path="url(#clip722)" cx="779.813" cy="463.042" r="10.8" fill="#ff8c00" fill-rule="evenodd" fill-opacity="0.65" stroke="none"/>
<circle clip-path="url(#clip722)" cx="732.666" cy="519.746" r="10.8" fill="#ff8c00" fill-rule="evenodd" fill-opacity="0.65" stroke="none"/>
<circle clip-path="url(#clip722)" cx="757.374" cy="502.994" r="10.8" fill="#ff8c00" fill-rule="evenodd" fill-opacity="0.65" stroke="none"/>
<circle clip-path="url(#clip722)" cx="734.267" cy="505.278" r="10.8" fill="#ff8c00" fill-rule="evenodd" fill-opacity="0.65" stroke="none"/>
<circle clip-path="url(#clip722)" cx="802.652" cy="529.128" r="10.8" fill="#ff8c00" fill-rule="evenodd" fill-opacity="0.65" stroke="none"/>
<circle clip-path="url(#clip722)" cx="752.53" cy="490.024" r="10.8" fill="#ff8c00" fill-rule="evenodd" fill-opacity="0.65" stroke="none"/>
<circle clip-path="url(#clip722)" cx="807.008" cy="382.461" r="10.8" fill="#ff8c00" fill-rule="evenodd" fill-opacity="0.65" stroke="none"/>
<circle clip-path="url(#clip722)" cx="754.658" cy="468.27" r="10.8" fill="#ff8c00" fill-rule="evenodd" fill-opacity="0.65" stroke="none"/>
<circle clip-path="url(#clip722)" cx="783.531" cy="377.602" r="10.8" fill="#ff8c00" fill-rule="evenodd" fill-opacity="0.65" stroke="none"/>
<circle clip-path="url(#clip722)" cx="736.206" cy="400.689" r="10.8" fill="#ff8c00" fill-rule="evenodd" fill-opacity="0.65" stroke="none"/>
<circle clip-path="url(#clip722)" cx="814.09" cy="469.424" r="10.8" fill="#ff8c00" fill-rule="evenodd" fill-opacity="0.65" stroke="none"/>
<circle clip-path="url(#clip722)" cx="795.141" cy="516.773" r="10.8" fill="#ff8c00" fill-rule="evenodd" fill-opacity="0.65" stroke="none"/>
<circle clip-path="url(#clip722)" cx="750.188" cy="363.614" r="10.8" fill="#ff8c00" fill-rule="evenodd" fill-opacity="0.65" stroke="none"/>
<circle clip-path="url(#clip722)" cx="736.31" cy="474.271" r="10.8" fill="#ff8c00" fill-rule="evenodd" fill-opacity="0.65" stroke="none"/>
<circle clip-path="url(#clip722)" cx="806.901" cy="484.069" r="10.8" fill="#ff8c00" fill-rule="evenodd" fill-opacity="0.65" stroke="none"/>
<circle clip-path="url(#clip722)" cx="762.962" cy="431.655" r="10.8" fill="#ff8c00" fill-rule="evenodd" fill-opacity="0.65" stroke="none"/>
<circle clip-path="url(#clip722)" cx="741.278" cy="429.582" r="10.8" fill="#ff8c00" fill-rule="evenodd" fill-opacity="0.65" stroke="none"/>
<circle clip-path="url(#clip722)" cx="782.3" cy="464.782" r="10.8" fill="#ff8c00" fill-rule="evenodd" fill-opacity="0.65" stroke="none"/>
<circle clip-path="url(#clip722)" cx="769.099" cy="345.616" r="10.8" fill="#ff8c00" fill-rule="evenodd" fill-opacity="0.65" stroke="none"/>
<circle clip-path="url(#clip722)" cx="797.462" cy="478.366" r="10.8" fill="#ff8c00" fill-rule="evenodd" fill-opacity="0.65" stroke="none"/>
<circle clip-path="url(#clip722)" cx="739.962" cy="344.645" r="10.8" fill="#ff8c00" fill-rule="evenodd" fill-opacity="0.65" stroke="none"/>
<circle clip-path="url(#clip722)" cx="777.882" cy="413.775" r="10.8" fill="#ff8c00" fill-rule="evenodd" fill-opacity="0.65" stroke="none"/>
<circle clip-path="url(#clip722)" cx="780.209" cy="396.165" r="10.8" fill="#ff8c00" fill-rule="evenodd" fill-opacity="0.65" stroke="none"/>
<circle clip-path="url(#clip722)" cx="742.865" cy="352.022" r="10.8" fill="#ff8c00" fill-rule="evenodd" fill-opacity="0.65" stroke="none"/>
<circle clip-path="url(#clip722)" cx="794.314" cy="492.412" r="10.8" fill="#ff8c00" fill-rule="evenodd" fill-opacity="0.65" stroke="none"/>
<circle clip-path="url(#clip722)" cx="733.053" cy="508.7" r="10.8" fill="#ff8c00" fill-rule="evenodd" fill-opacity="0.65" stroke="none"/>
<circle clip-path="url(#clip722)" cx="773.831" cy="520.148" r="10.8" fill="#ff8c00" fill-rule="evenodd" fill-opacity="0.65" stroke="none"/>
<circle clip-path="url(#clip722)" cx="765.101" cy="473.818" r="10.8" fill="#ff8c00" fill-rule="evenodd" fill-opacity="0.65" stroke="none"/>
<circle clip-path="url(#clip722)" cx="817.884" cy="361.389" r="10.8" fill="#ff8c00" fill-rule="evenodd" fill-opacity="0.65" stroke="none"/>
<circle clip-path="url(#clip722)" cx="784.231" cy="422.72" r="10.8" fill="#ff8c00" fill-rule="evenodd" fill-opacity="0.65" stroke="none"/>
<circle clip-path="url(#clip722)" cx="748.245" cy="538.994" r="10.8" fill="#ff8c00" fill-rule="evenodd" fill-opacity="0.65" stroke="none"/>
<circle clip-path="url(#clip722)" cx="784.886" cy="529.332" r="10.8" fill="#ff8c00" fill-rule="evenodd" fill-opacity="0.65" stroke="none"/>
<circle clip-path="url(#clip722)" cx="759.829" cy="405.866" r="10.8" fill="#ff8c00" fill-rule="evenodd" fill-opacity="0.65" stroke="none"/>
<circle clip-path="url(#clip722)" cx="796.136" cy="484.623" r="10.8" fill="#ff8c00" fill-rule="evenodd" fill-opacity="0.65" stroke="none"/>
<circle clip-path="url(#clip722)" cx="741.765" cy="448.243" r="10.8" fill="#ff8c00" fill-rule="evenodd" fill-opacity="0.65" stroke="none"/>
<circle clip-path="url(#clip722)" cx="778.316" cy="381.555" r="10.8" fill="#ff8c00" fill-rule="evenodd" fill-opacity="0.65" stroke="none"/>
<circle clip-path="url(#clip722)" cx="759.672" cy="459.606" r="10.8" fill="#ff8c00" fill-rule="evenodd" fill-opacity="0.65" stroke="none"/>
<circle clip-path="url(#clip722)" cx="797.878" cy="504.229" r="10.8" fill="#ff8c00" fill-rule="evenodd" fill-opacity="0.65" stroke="none"/>
<circle clip-path="url(#clip722)" cx="778.17" cy="368.667" r="10.8" fill="#ff8c00" fill-rule="evenodd" fill-opacity="0.65" stroke="none"/>
<circle clip-path="url(#clip722)" cx="811.978" cy="488.817" r="10.8" fill="#ff8c00" fill-rule="evenodd" fill-opacity="0.65" stroke="none"/>
<circle clip-path="url(#clip722)" cx="763.498" cy="280.701" r="10.8" fill="#ff8c00" fill-rule="evenodd" fill-opacity="0.65" stroke="none"/>
<circle clip-path="url(#clip722)" cx="810.383" cy="423.895" r="10.8" fill="#ff8c00" fill-rule="evenodd" fill-opacity="0.65" stroke="none"/>
<circle clip-path="url(#clip722)" cx="787.566" cy="482.37" r="10.8" fill="#ff8c00" fill-rule="evenodd" fill-opacity="0.65" stroke="none"/>
<circle clip-path="url(#clip722)" cx="807.755" cy="471.48" r="10.8" fill="#ff8c00" fill-rule="evenodd" fill-opacity="0.65" stroke="none"/>
<circle clip-path="url(#clip722)" cx="766.925" cy="463.331" r="10.8" fill="#ff8c00" fill-rule="evenodd" fill-opacity="0.65" stroke="none"/>
<circle clip-path="url(#clip722)" cx="805.654" cy="428.237" r="10.8" fill="#ff8c00" fill-rule="evenodd" fill-opacity="0.65" stroke="none"/>
<circle clip-path="url(#clip722)" cx="794.501" cy="456.277" r="10.8" fill="#ff8c00" fill-rule="evenodd" fill-opacity="0.65" stroke="none"/>
<circle clip-path="url(#clip722)" cx="734.159" cy="447.344" r="10.8" fill="#ff8c00" fill-rule="evenodd" fill-opacity="0.65" stroke="none"/>
<circle clip-path="url(#clip722)" cx="767.582" cy="231.886" r="10.8" fill="#ff8c00" fill-rule="evenodd" fill-opacity="0.65" stroke="none"/>
<circle clip-path="url(#clip722)" cx="801.634" cy="439.032" r="10.8" fill="#ff8c00" fill-rule="evenodd" fill-opacity="0.65" stroke="none"/>
<circle clip-path="url(#clip722)" cx="784.397" cy="506.092" r="10.8" fill="#ff8c00" fill-rule="evenodd" fill-opacity="0.65" stroke="none"/>
<circle clip-path="url(#clip722)" cx="748.294" cy="449.517" r="10.8" fill="#ff8c00" fill-rule="evenodd" fill-opacity="0.65" stroke="none"/>
<circle clip-path="url(#clip722)" cx="770.699" cy="303.748" r="10.8" fill="#ff8c00" fill-rule="evenodd" fill-opacity="0.65" stroke="none"/>
<circle clip-path="url(#clip722)" cx="752.785" cy="362.693" r="10.8" fill="#ff8c00" fill-rule="evenodd" fill-opacity="0.65" stroke="none"/>
<circle clip-path="url(#clip722)" cx="733.599" cy="435.237" r="10.8" fill="#ff8c00" fill-rule="evenodd" fill-opacity="0.65" stroke="none"/>
<circle clip-path="url(#clip722)" cx="804.255" cy="521.972" r="10.8" fill="#ff8c00" fill-rule="evenodd" fill-opacity="0.65" stroke="none"/>
<circle clip-path="url(#clip722)" cx="776.165" cy="506.312" r="10.8" fill="#ff8c00" fill-rule="evenodd" fill-opacity="0.65" stroke="none"/>
<circle clip-path="url(#clip722)" cx="787.282" cy="449.042" r="10.8" fill="#ff8c00" fill-rule="evenodd" fill-opacity="0.65" stroke="none"/>
<circle clip-path="url(#clip722)" cx="759.291" cy="494.701" r="10.8" fill="#ff8c00" fill-rule="evenodd" fill-opacity="0.65" stroke="none"/>
<polyline clip-path="url(#clip722)" style="stroke:#000000; stroke-linecap:round; stroke-linejoin:round; stroke-width:12; stroke-opacity:1; fill:none" points="688.827,463.042 861.458,463.042 "/>
<polyline clip-path="url(#clip722)" style="stroke:#000000; stroke-linecap:round; stroke-linejoin:round; stroke-width:8; stroke-opacity:1; fill:none" points="775.143,502.994 775.143,405.866 "/>
<circle clip-path="url(#clip722)" cx="1181.66" cy="513.788" r="10.8" fill="#db143d" fill-rule="evenodd" fill-opacity="0.65" stroke="none"/>
<circle clip-path="url(#clip722)" cx="1174.16" cy="571.084" r="10.8" fill="#db143d" fill-rule="evenodd" fill-opacity="0.65" stroke="none"/>
<circle clip-path="url(#clip722)" cx="1160.23" cy="537.58" r="10.8" fill="#db143d" fill-rule="evenodd" fill-opacity="0.65" stroke="none"/>
<circle clip-path="url(#clip722)" cx="1157.18" cy="512.969" r="10.8" fill="#db143d" fill-rule="evenodd" fill-opacity="0.65" stroke="none"/>
<circle clip-path="url(#clip722)" cx="1184.86" cy="530.755" r="10.8" fill="#db143d" fill-rule="evenodd" fill-opacity="0.65" stroke="none"/>
<circle clip-path="url(#clip722)" cx="1135.23" cy="538.284" r="10.8" fill="#db143d" fill-rule="evenodd" fill-opacity="0.65" stroke="none"/>
<circle clip-path="url(#clip722)" cx="1198.5" cy="438.244" r="10.8" fill="#db143d" fill-rule="evenodd" fill-opacity="0.65" stroke="none"/>
<circle clip-path="url(#clip722)" cx="1193.11" cy="515.112" r="10.8" fill="#db143d" fill-rule="evenodd" fill-opacity="0.65" stroke="none"/>
<circle clip-path="url(#clip722)" cx="1145.22" cy="346.46" r="10.8" fill="#db143d" fill-rule="evenodd" fill-opacity="0.65" stroke="none"/>
<circle clip-path="url(#clip722)" cx="1144.97" cy="453.11" r="10.8" fill="#db143d" fill-rule="evenodd" fill-opacity="0.65" stroke="none"/>
<circle clip-path="url(#clip722)" cx="1205.58" cy="542.064" r="10.8" fill="#db143d" fill-rule="evenodd" fill-opacity="0.65" stroke="none"/>
<circle clip-path="url(#clip722)" cx="1138.86" cy="520.258" r="10.8" fill="#db143d" fill-rule="evenodd" fill-opacity="0.65" stroke="none"/>
<circle clip-path="url(#clip722)" cx="1124.49" cy="516.158" r="10.8" fill="#db143d" fill-rule="evenodd" fill-opacity="0.65" stroke="none"/>
<circle clip-path="url(#clip722)" cx="1184.18" cy="403.685" r="10.8" fill="#db143d" fill-rule="evenodd" fill-opacity="0.65" stroke="none"/>
<circle clip-path="url(#clip722)" cx="1160.52" cy="362.308" r="10.8" fill="#db143d" fill-rule="evenodd" fill-opacity="0.65" stroke="none"/>
<circle clip-path="url(#clip722)" cx="1208.48" cy="487.844" r="10.8" fill="#db143d" fill-rule="evenodd" fill-opacity="0.65" stroke="none"/>
<circle clip-path="url(#clip722)" cx="1205.29" cy="416.361" r="10.8" fill="#db143d" fill-rule="evenodd" fill-opacity="0.65" stroke="none"/>
<circle clip-path="url(#clip722)" cx="1204.29" cy="466.173" r="10.8" fill="#db143d" fill-rule="evenodd" fill-opacity="0.65" stroke="none"/>
<circle clip-path="url(#clip722)" cx="1148.37" cy="484.571" r="10.8" fill="#db143d" fill-rule="evenodd" fill-opacity="0.65" stroke="none"/>
<circle clip-path="url(#clip722)" cx="1198.62" cy="533.721" r="10.8" fill="#db143d" fill-rule="evenodd" fill-opacity="0.65" stroke="none"/>
<circle clip-path="url(#clip722)" cx="1141.13" cy="541.076" r="10.8" fill="#db143d" fill-rule="evenodd" fill-opacity="0.65" stroke="none"/>
<circle clip-path="url(#clip722)" cx="1137.84" cy="483.16" r="10.8" fill="#db143d" fill-rule="evenodd" fill-opacity="0.65" stroke="none"/>
<circle clip-path="url(#clip722)" cx="1196.74" cy="521.698" r="10.8" fill="#db143d" fill-rule="evenodd" fill-opacity="0.65" stroke="none"/>
<circle clip-path="url(#clip722)" cx="1166.08" cy="548.098" r="10.8" fill="#db143d" fill-rule="evenodd" fill-opacity="0.65" stroke="none"/>
<circle clip-path="url(#clip722)" cx="1127.96" cy="504.741" r="10.8" fill="#db143d" fill-rule="evenodd" fill-opacity="0.65" stroke="none"/>
<circle clip-path="url(#clip722)" cx="1157.81" cy="407.349" r="10.8" fill="#db143d" fill-rule="evenodd" fill-opacity="0.65" stroke="none"/>
<circle clip-path="url(#clip722)" cx="1155.05" cy="481.314" r="10.8" fill="#db143d" fill-rule="evenodd" fill-opacity="0.65" stroke="none"/>
<circle clip-path="url(#clip722)" cx="1139.66" cy="479.906" r="10.8" fill="#db143d" fill-rule="evenodd" fill-opacity="0.65" stroke="none"/>
<circle clip-path="url(#clip722)" cx="1184.18" cy="467.577" r="10.8" fill="#db143d" fill-rule="evenodd" fill-opacity="0.65" stroke="none"/>
<circle clip-path="url(#clip722)" cx="1179.38" cy="463.215" r="10.8" fill="#db143d" fill-rule="evenodd" fill-opacity="0.65" stroke="none"/>
<circle clip-path="url(#clip722)" cx="1133.96" cy="434.191" r="10.8" fill="#db143d" fill-rule="evenodd" fill-opacity="0.65" stroke="none"/>
<circle clip-path="url(#clip722)" cx="1141.21" cy="480.433" r="10.8" fill="#db143d" fill-rule="evenodd" fill-opacity="0.65" stroke="none"/>
<circle clip-path="url(#clip722)" cx="1154.46" cy="503.98" r="10.8" fill="#db143d" fill-rule="evenodd" fill-opacity="0.65" stroke="none"/>
<circle clip-path="url(#clip722)" cx="1137.38" cy="496.609" r="10.8" fill="#db143d" fill-rule="evenodd" fill-opacity="0.65" stroke="none"/>
<circle clip-path="url(#clip722)" cx="1128.04" cy="478.149" r="10.8" fill="#db143d" fill-rule="evenodd" fill-opacity="0.65" stroke="none"/>
<circle clip-path="url(#clip722)" cx="1194.91" cy="417.761" r="10.8" fill="#db143d" fill-rule="evenodd" fill-opacity="0.65" stroke="none"/>
<circle clip-path="url(#clip722)" cx="1206.6" cy="402.026" r="10.8" fill="#db143d" fill-rule="evenodd" fill-opacity="0.65" stroke="none"/>
<circle clip-path="url(#clip722)" cx="1190.11" cy="527.403" r="10.8" fill="#db143d" fill-rule="evenodd" fill-opacity="0.65" stroke="none"/>
<circle clip-path="url(#clip722)" cx="1139.97" cy="512.793" r="10.8" fill="#db143d" fill-rule="evenodd" fill-opacity="0.65" stroke="none"/>
<circle clip-path="url(#clip722)" cx="1201.88" cy="496.675" r="10.8" fill="#db143d" fill-rule="evenodd" fill-opacity="0.65" stroke="none"/>
<circle clip-path="url(#clip722)" cx="1135.91" cy="437.431" r="10.8" fill="#db143d" fill-rule="evenodd" fill-opacity="0.65" stroke="none"/>
<circle clip-path="url(#clip722)" cx="1209.03" cy="472.679" r="10.8" fill="#db143d" fill-rule="evenodd" fill-opacity="0.65" stroke="none"/>
<circle clip-path="url(#clip722)" cx="1125.33" cy="279.681" r="10.8" fill="#db143d" fill-rule="evenodd" fill-opacity="0.65" stroke="none"/>
<circle clip-path="url(#clip722)" cx="1156.98" cy="496.21" r="10.8" fill="#db143d" fill-rule="evenodd" fill-opacity="0.65" stroke="none"/>
<circle clip-path="url(#clip722)" cx="1128.11" cy="484.731" r="10.8" fill="#db143d" fill-rule="evenodd" fill-opacity="0.65" stroke="none"/>
<circle clip-path="url(#clip722)" cx="1137.19" cy="503.922" r="10.8" fill="#db143d" fill-rule="evenodd" fill-opacity="0.65" stroke="none"/>
<circle clip-path="url(#clip722)" cx="1157.48" cy="520.641" r="10.8" fill="#db143d" fill-rule="evenodd" fill-opacity="0.65" stroke="none"/>
<circle clip-path="url(#clip722)" cx="1172.88" cy="513.691" r="10.8" fill="#db143d" fill-rule="evenodd" fill-opacity="0.65" stroke="none"/>
<circle clip-path="url(#clip722)" cx="1125.63" cy="549.996" r="10.8" fill="#db143d" fill-rule="evenodd" fill-opacity="0.65" stroke="none"/>
<circle clip-path="url(#clip722)" cx="1198.46" cy="481.376" r="10.8" fill="#db143d" fill-rule="evenodd" fill-opacity="0.65" stroke="none"/>
<circle clip-path="url(#clip722)" cx="1160.63" cy="521.038" r="10.8" fill="#db143d" fill-rule="evenodd" fill-opacity="0.65" stroke="none"/>
<circle clip-path="url(#clip722)" cx="1169.09" cy="543.975" r="10.8" fill="#db143d" fill-rule="evenodd" fill-opacity="0.65" stroke="none"/>
<circle clip-path="url(#clip722)" cx="1199.95" cy="442.367" r="10.8" fill="#db143d" fill-rule="evenodd" fill-opacity="0.65" stroke="none"/>
<circle clip-path="url(#clip722)" cx="1188.82" cy="536.945" r="10.8" fill="#db143d" fill-rule="evenodd" fill-opacity="0.65" stroke="none"/>
<polyline clip-path="url(#clip722)" style="stroke:#000000; stroke-linecap:round; stroke-linejoin:round; stroke-width:12; stroke-opacity:1; fill:none" points="1081.17,496.41 1253.8,496.41 "/>
<polyline clip-path="url(#clip722)" style="stroke:#000000; stroke-linecap:round; stroke-linejoin:round; stroke-width:8; stroke-opacity:1; fill:none" points="1167.48,520.939 1167.48,463.955 "/>
</svg>
